<svg width="350" height="400" fill="none" xmlns="http://www.w3.org/2000/svg"><g clip-path="url(#clip0)"><path d="M.318 234.06C-10.55-30.994 259.967 16.1 323.37 74.062c63.403 57.962-11.473 109.886 0 199.243 11.473 89.358-60.351 99.776-140.057 101.587-79.706 1.812-82.034-9.205-92.903-45.431S9.376 324.625.32 234.06z" fill="#D6EEEC" stroke="#D6EEEC"/><path d="M99.072 98.636c0 26.451-15.553 50.69-38.432 50.69-22.88 0-39.332-24.204-39.332-50.69 0-35.978 15.985-34.042 38.882-34.042s38.882-5.463 38.882 34.042z" fill="#ED506B"/><path d="M87.338 88.141a10.367 10.367 0 01-8.951 1.73c-2.264-.796-3.68-2.853-5.634-4.167a.38.38 0 00-.518.519c3.906 5.808 9.936 7.122 15.898 3.302.847-.57 0-1.937-.794-1.384zM47.42 84.822c-3.3 4.893-8.468 8.264-14.516 6.916a.829.829 0 00-.432 1.59c6.55 1.729 13.012-2.126 15.812-8.04a.502.502 0 00-.864-.466zm-1.314 18.516a4.045 4.045 0 01-6.903 2.878 4.047 4.047 0 015.724-5.726 4.028 4.028 0 011.18 2.848zm35.962 0a4.027 4.027 0 11-8.055.001 4.027 4.027 0 018.055-.001zm-6.774 22.873c-4.597-9.388-26.18-10.373-28.099 1.625a.589.589 0 001.123.294c3.595-8.99 20.91-9.612 25.196-.881.587 1.193 2.367.155 1.78-1.038z" fill="#FEFEFE"/><path d="M133.617 229.737c-3.837 1.85-20.184 12.742-25.922 35.079-3.767 14.712-22.862 111.115-22.862 111.115h29.032s26.768-73.46 27.839-85.874c1.071-12.413 14.447-63.415-8.087-60.32z" fill="#FFB1A5"/><path d="M131.716 324.808c4.424-13.295 8.277-25.657 9.591-32.054l-40.386 15.716 30.795 16.338z" fill="#302D24"/><path d="M133.616 229.737c-3.836 1.85-20.858 14.073-29.515 36.306-1.832 4.685-7.656 23.876-12.823 40.041l43.202 10.373c3.923-12.102 6.913-22.475 7.31-26.503 1.072-12.466 14.361-63.312-8.174-60.217z" fill="#5F1C4F"/><path d="M242.088 229.737c3.819 1.85 20.184 12.742 25.922 35.079 3.767 14.712 22.862 111.115 22.862 111.115H261.84s-26.819-73.46-27.891-85.874c-1.071-12.413-14.481-63.415 8.139-60.32z" fill="#FFB1A5"/><path d="M243.989 324.808c-4.424-13.295-8.277-25.657-9.591-32.054l40.369 15.716-30.778 16.338z" fill="#302D24"/><path d="M242.088 229.737c3.819 1.85 20.858 14.073 29.516 36.306 1.832 4.685 7.655 23.876 12.822 40.041l-43.202 10.373c-3.922-12.102-6.912-22.475-7.31-26.503-1.071-12.466-14.446-63.312 8.174-60.217z" fill="#5F1C4F"/><path d="M255.585 286.6c-3.681-18.499-2.212-40.837-5.893-49.256-3.681-8.42-31.952-20.712-34.372-22.095l-26.958-10.823v-.398l-.501.208-.484-.208v.398l-27.062 10.823c-2.333 1.383-30.673 13.641-34.371 22.06-3.698 8.42-2.212 30.757-5.893 49.291-3.681 18.533 17.851 89.331 17.851 89.331h101.577s19.735-70.884 16.106-89.331z" fill="#5F1C4F"/><path d="M150.033 83.992c3.992-21.127 40.749-33.28 67.862-10.529a46.302 46.302 0 0115.08 22.12 46.329 46.329 0 01.318 26.773s48.179 12.984 38.017 37.793c-10.161 24.81-27.044 16.338-27.044 16.338s6.912 11.999-11.838 20.297c-17.28 7.659-26.681-5.186-26.681-5.186s-7.897 17.842-20.582 17.582c-22.707-.467-28.254-20.746-28.254-20.746s-10.023 21.939-30.397 7.278c-20.374-14.661-4.51-25.933-4.51-25.933s-22.465 15.232-29.879-3.942c-7.413-19.173 34.769-27.109 34.769-27.109-6.238-5.618-11.267-55.324 23.139-54.736z" fill="#302D24"/><path d="M146.543 147.373c1.296 7.4-1.729 14.108-6.636 14.972-4.908.864-10.006-4.461-11.285-11.877-1.279-7.417 1.728-14.108 6.636-14.955 4.908-.847 10.006 4.443 11.285 11.86zm86.598.842c1.663-7.338-.959-14.187-5.855-15.297-4.896-1.11-10.212 3.938-11.874 11.276-1.663 7.338.959 14.187 5.855 15.297 4.895 1.11 10.212-3.938 11.874-11.276z" fill="#ED9996"/><path d="M165.327 176.418c.536 1.729 2.298 33.817-10.697 41.597 0 0 11.872 32.572 30.639 34.076 20.184 1.625 28.842-37.326 28.842-37.326-10.991-3.786-14.862-12.708-14.015-38.347h-34.769z" fill="#FFB1A5"/><path d="M200.131 189.385c-.19-3.89-.19-8.195 0-12.967h-22.275l-12.097 3.043c.035 1.072 7.327 17.686 34.372 9.924z" fill="#302D24"/><path d="M224.255 133.11c0 29.08-17.074 55.722-42.235 55.722-25.161 0-43.254-26.712-43.254-55.722 0-29.011 17.765-52.68 42.943-52.68 25.178 0 42.546 23.583 42.546 52.68z" fill="#FFB1A5"/><path d="M152.073 93.069s16.226 22.994 29.602 21.386c13.375-1.608 4.959-14.8 4.959-14.8s48.801 38.97 40.593 14.886c-8.208-24.083-16.659-37.136-45.293-36.894-28.635.242-29.861 15.422-29.861 15.422z" fill="#302D24"/><path d="M157.879 92.861c2.765.623-5.495 37.673-21.739 40.249 0 0-13.445-48.253 21.739-40.249z" fill="#302D24"/><path d="M235.124 109.337a45.774 45.774 0 00-17.281-35.874c-22.897-19.208-52.672-13.537-63.783 1.418a36.96 36.96 0 0110.731-4.098 52.198 52.198 0 0123.329.934 74.007 74.007 0 0147.004 37.62zm5.789 15.56c8.779 6.709 16.244 15.232 20.184 25.484a41.393 41.393 0 012.04 22.562 35.225 35.225 0 008.173-12.742c7.604-18.499-17.28-30.428-30.397-35.304z" fill="#514A47"/><path d="M165.327 144.243a2.646 2.646 0 01-3.07 2.749 2.645 2.645 0 01.426-5.255 2.561 2.561 0 011.841.705 2.578 2.578 0 01.803 1.801zm40.022-.553a2.627 2.627 0 11-4.097-2.054 2.623 2.623 0 011.471-.452 2.572 2.572 0 012.626 2.506zm-19.838-8.748a.605.605 0 00-1.141 0c-1.071 7.331 4.804 16.58-1.417 22.631-.76.744.381 1.885 1.158 1.159 6.653-6.155 2.61-16.165 1.4-23.79zm25.316-13.744c-5.184-3.665-11.301-2.887-16.486.19-.397.242-.138.951.329.778 5.564-1.902 9.971-2.438 15.293.501a.85.85 0 001.167-.302.854.854 0 00-.303-1.167zm-42.251 2.627c-4.614-2.161-13.358-3.544-17.074 1.09a.724.724 0 00.247 1.145c.14.062.295.079.444.047 2.714-.639 4.908-2.022 7.794-2.195a32.32 32.32 0 018.26.691c.432.069.795-.518.329-.778zm22.551 43.966c-4.562-.121-9.625-.83-13.825 1.348-.587.312-.155 1.159.45 1.038 4.476-.882 6.964-.675 11.474-.71.262-.002 2.429.187 2.612 0a.983.983 0 00-.012-1.394.986.986 0 00-.699-.282z" fill="#302D24"/><path d="M158.985 213.987s-2.506 45.953 9.228 61.116c7.275 9.405-.605 100.897-.605 100.897h-43.98s-4.389-70.383-4.666-85.943c-.276-15.559 4.977-52.056 7.137-56.309 1.158-2.351 27.339-21.162 32.886-19.761zm52.136-.485s3.837 46.369-7.914 61.531c-7.276 9.405.604 100.898.604 100.898h43.963s4.389-70.297 4.666-85.943c.276-15.646-6.152-54.339-8.312-58.592-1.158-2.282-27.494-19.138-33.007-17.894z" fill="#FEFEFE"/><path d="M205.453 271.402s19.735-13.831 29.377-8.73c9.643 5.1-9.504-45.228-12.597-48.962-3.094-3.735-11.838-.588-11.838-.588.104 22.216.087 43.36-4.942 58.28zm-38.882 1.643s-19.717-13.831-29.377-8.644c-9.66 5.186 4.268-42.859 7.569-46.317 4.372-4.651 14.222-4.339 14.222-4.339-.104 22.216 2.575 44.397 7.586 59.3z" fill="#E4E8EA"/></g><defs><clipPath id="clip0"><path fill="#fff" d="M0 0h350v400H0z"/></clipPath></defs></svg>