<svg width="1920" height="1120" fill="none" xmlns="http://www.w3.org/2000/svg"><mask id="a" maskUnits="userSpaceOnUse" x="0" y="0" width="1920" height="1120"><path d="M0 0h1920v1117.5s-504.5 2.5-960 2.5-960-2.5-960-2.5V0z" fill="#FEF8E4"/></mask><g mask="url(#a)"><path d="M0 0h1920v1117.5s-504.5 2.5-960 2.5-960-2.5-960-2.5V0z" fill="#FEF8E4"/><path fill-rule="evenodd" clip-rule="evenodd" d="M1764.29 667.332c29.54-44.59 60.35-93.708 110.32-112.7 48.62-18.479 100.98 8.151 152.77 12.706 47.11 4.144 99.6-13.401 138.87 12.947 39.14 26.265 37.69 84.358 64.21 123.334 29.61 43.502 82.45 68.868 100.31 118.382 20.9 57.933 40.42 129.173 7.87 181.509-32.67 52.54-106.54 59.74-166.72 73.92-48.82 11.5-98.14-6.28-147.87.21-59.93 7.82-117.52 64.85-173.32 41.69-54.18-22.5-60.49-97.24-86.82-149.69-24.97-49.729-64.22-95.367-64.15-151.043.07-55.751 33.73-104.771 64.53-151.265zM-456.572 273.105c39.055-58.959 79.8-123.907 145.874-149.02 64.285-24.434 133.524 10.778 201.994 16.801 62.298 5.48 131.704-17.72 183.622 17.12 51.754 34.729 49.835 111.543 84.914 163.08 39.151 57.521 109.012 91.061 132.629 156.533 27.633 76.602 53.451 170.801 10.413 240.006-43.205 69.472-140.876 78.983-220.453 97.734-64.555 15.211-129.767-8.297-195.524.281-79.249 10.339-155.394 85.752-229.171 55.122-71.642-29.742-79.993-128.575-114.808-197.925-33.01-65.755-84.912-126.101-84.818-199.72.094-73.718 44.604-138.535 85.328-200.012z" fill="#FAF0D0"/><path d="M386.631 367.402c-2.449-9.885-12-17.251-23.4-17.251a25.512 25.512 0 00-6.079.723 35.614 35.614 0 00-32.017-18.89 37.483 37.483 0 00-10.573 1.48 44.351 44.351 0 00-37.285-19.611c-18.837 0-34.872 11.083-40.968 26.589a31.626 31.626 0 00-14.538-3.524c-16.51 0-29.955 12.335-29.955 27.7-.006.895.041 1.789.141 2.678l194.674.106zm450.187 109.694c-2.449-9.886-12-17.269-23.4-17.269a26.336 26.336 0 00-6.062.723 35.637 35.637 0 00-13.359-13.953 35.642 35.642 0 00-18.675-4.937 38.272 38.272 0 00-10.573 1.48 44.373 44.373 0 00-37.18-19.523c-18.854 0-34.889 11.066-40.968 26.572a31.713 31.713 0 00-14.537-3.524c-16.528 0-29.955 12.334-29.955 27.699 0 .899 0 1.762.141 2.696l194.568.036zM1491 228.628c2.87-11.577 14.1-20.211 27.42-20.211 2.37.005 4.74.289 7.05.846a41.615 41.615 0 0115.63-16.342 41.638 41.638 0 0121.86-5.772c4.18.003 8.33.596 12.34 1.762a51.873 51.873 0 0118.95-16.977 51.91 51.91 0 0124.75-5.93c22.06 0 40.86 12.969 47.98 31.118a37.17 37.17 0 0117.02-4.088c19.38 0 35.01 14.52 35.01 32.44 0 1.053-.05 2.106-.16 3.154H1491z" fill="#fff"/></g></svg>