<svg width="1920" height="1060" fill="none" xmlns="http://www.w3.org/2000/svg"><mask id="a" maskUnits="userSpaceOnUse" x="0" y="0" width="1920" height="1060"><path d="M0 0h1920v1060s-504.5-47.5-960-47.5S0 1060 0 1060V0z" fill="#E7F2F0"/></mask><g mask="url(#a)"><path d="M0 0h1920v1060s-504.5-47.5-960-47.5S0 1060 0 1060V0z" fill="#E7F2F0"/><path fill-rule="evenodd" clip-rule="evenodd" d="M1785.43 398.352c41.07 3.579 80.57 22.982 111.12 50.67 28.22 25.577 25.94 73.33 54.04 99.037 35.27 32.267 97.94 26.373 125.63 65.338 27 37.988 42.95 97.462 18.08 136.871-28.1 44.52-98.96 33.17-143.31 61.534-28.13 17.989-44.5 48.1-66.89 72.879-33.5 37.096-48.83 106.605-98.67 110.418-47.91 3.665-65.52-69.219-106.23-94.743-35.26-22.105-84.93-15.437-115.14-44.049-30.75-29.108-54.73-71.91-51.95-114.155 2.85-43.195 67.88-66.274 66.67-109.546-1.8-64.87-99.83-117.347-74.65-177.159 21.3-50.599 106.64-15.715 160.44-26.636 41.23-8.368 78.94-34.11 120.86-30.459zm-1607.005-249c41.071 3.579 80.577 22.982 111.123 50.67 28.217 25.577 25.939 73.33 54.039 99.037 35.27 32.267 97.945 26.373 125.638 65.338 26.998 37.988 42.949 97.462 18.072 136.871-28.102 44.52-98.956 33.17-143.31 61.534-28.131 17.989-44.5 48.1-66.882 72.879-33.507 37.096-48.836 106.605-98.68 110.418-47.909 3.665-65.519-69.219-106.228-94.743-35.259-22.105-84.924-15.437-115.142-44.049-30.742-29.108-54.725-71.91-51.943-114.155 2.844-43.195 67.876-66.274 66.671-109.546-1.805-64.87-99.828-117.347-74.651-177.159 21.3-50.599 106.635-15.715 160.438-26.636 41.231-8.368 78.942-34.11 120.855-30.459z" fill="#D6EEEC"/><path d="M259 504c-3.937-15.711-19.29-27.445-37.617-27.445a42.676 42.676 0 00-9.744 1.148c-4.957-9.206-12.388-16.88-21.474-22.177a57.808 57.808 0 00-30.022-7.845 62.104 62.104 0 00-16.996 2.352 71.05 71.05 0 00-25.935-22.948 71.977 71.977 0 00-33.832-8.082c-30.308 0-56.085 17.588-65.857 42.233a51.46 51.46 0 00-23.37-5.602c-26.569 0-48.153 19.604-48.153 44.025 0 1.428 0 2.801.227 4.285L259 504zm1630-255c-3.22-12.939-15.78-22.602-30.77-22.602a34.75 34.75 0 00-7.97.945 46.723 46.723 0 00-17.56-18.263 47.033 47.033 0 00-24.55-6.461c-4.71-.004-9.39.648-13.9 1.938a58.311 58.311 0 00-21.22-18.899 58.523 58.523 0 00-27.67-6.655c-24.79 0-45.87 14.483-53.86 34.779a41.876 41.876 0 00-19.12-4.612c-21.73 0-39.38 16.144-39.38 36.255 0 1.176 0 2.307.19 3.529L1889 249z" fill="#fff"/><path d="M1811.8 222.003a34.245 34.245 0 0011.38-6.988 13.65 13.65 0 004.55-6.828c.34-1.353.22-2.78-.34-4.059a6.35 6.35 0 00-2.73-3.019 6.586 6.586 0 00-7.2 2.048 17.244 17.244 0 00-3.34 7.17 113.88 113.88 0 00-2.55 11.835l.23-.159zm22.01 36.803c5.28.888 10.81 1.753 15.93 0 2.87-.978 5.76-3.482 5.19-6.441a5.052 5.052 0 00-1.69-2.58 5.04 5.04 0 00-2.86-1.13c-2.12-.096-4.22.409-6.06 1.457a29.535 29.535 0 00-10.33 8.535l-.18.159zm-40.18 74.654c0 5.349 0 10.948 2.44 15.682 1.41 2.663 4.32 5.144 7.17 4.12a5.127 5.127 0 002.29-2.09c.53-.917.76-1.976.67-3.031a10.944 10.944 0 00-2.28-5.758 29.473 29.473 0 00-10.04-8.877l-.25-.046zm-96.32-112.003a33.697 33.697 0 00-7.28-11.176 13.69 13.69 0 00-6.99-4.279 6.308 6.308 0 00-4.06.479 6.321 6.321 0 00-2.93 2.867 6.589 6.589 0 00.02 3.931 6.54 6.54 0 002.26 3.216 17.658 17.658 0 007.26 3.164c3.87.978 7.97 1.638 11.93 2.276l-.21-.478zm32.87-22.67c.92-4.394.96-8.928.11-13.337a13.47 13.47 0 00-3.48-7.42 6.312 6.312 0 00-3.61-1.868 6.312 6.312 0 00-3.99.707 6.613 6.613 0 00-2.18 3.267 6.65 6.65 0 00.08 3.925 17.466 17.466 0 004.31 6.646c2.68 2.936 5.73 5.759 8.69 8.444l.07-.364zm46.09-5.804c2.68-4.552 5.44-9.514 5.6-14.862 0-3.005-1.23-6.601-4.19-7.102a5.122 5.122 0 00-3.03.68 5.111 5.111 0 00-2.09 2.302 11.3 11.3 0 00-.75 6.213 29.505 29.505 0 004.37 12.655l.09.114zm47.5 105.13a33.395 33.395 0 009.35 9.469 13.664 13.664 0 007.72 2.776 6.343 6.343 0 003.86-1.233 6.326 6.326 0 002.33-3.319 6.51 6.51 0 00-.77-3.843 6.515 6.515 0 00-2.83-2.712 17.347 17.347 0 00-7.76-1.638c-4.04-.129-8.09-.053-12.13.227l.23.273zm-67.62 46.159a34.05 34.05 0 00-4.55 12.564c-.56 2.747-.26 5.6.86 8.171a6.372 6.372 0 006.83 3.573 6.582 6.582 0 004.32-6.1 17.17 17.17 0 00-1.89-7.693c-1.57-3.664-3.55-7.329-5.48-10.834l-.09.319zm-36.83-12.177c-4.3 1.28-8.31 3.4-11.79 6.236a13.635 13.635 0 00-4.89 6.578 6.345 6.345 0 00.08 4.061 6.403 6.403 0 002.54 3.177c1.23.516 2.58.645 3.89.368a6.51 6.51 0 003.41-1.916 17.533 17.533 0 003.82-6.942c1.33-3.755 2.28-7.784 3.31-11.653l-.37.091zm-39.85-70.808a33.579 33.579 0 00-11.38-7.01 13.661 13.661 0 00-8.15-.865 6.33 6.33 0 00-3.47 2.124 6.363 6.363 0 00-1.47 3.794c.18 1.323.76 2.56 1.66 3.544.91.985 2.09 1.67 3.39 1.964 2.63.53 5.34.445 7.92-.251a115.09 115.09 0 0011.72-3.072l-.22-.228zm8.44 41.674c-5.32-.273-10.92-.523-15.77 1.753-2.71 1.297-5.33 4.119-4.42 6.987.41.978 1.1 1.808 1.99 2.378.9.569 1.94.852 3 .809 2.12-.151 4.15-.893 5.87-2.14a29.656 29.656 0 009.29-9.65l.04-.137z" fill="#FFD530"/><path d="M1731.52 205.023c21.58-8.876 65.6-8.808 85.58 36.622 19.98 45.43-9.49 74.631-29.11 84.213-19.62 9.582-70.56 16.934-92.16-25.218-21.6-42.153 5.97-83.463 35.69-95.708" fill="#FFE96B"/></g></svg>