<svg width="375" height="713" fill="none" xmlns="http://www.w3.org/2000/svg"><mask id="a" maskUnits="userSpaceOnUse" x="0" y="0" width="375" height="713"><path d="M0 0h375v713s-71.5-13.906-187.5-13.906S0 713 0 713V0z" fill="#E7F2F0"/></mask><g mask="url(#a)"><path d="M0-13.405h375l-5.5 607-369.5 81v-688z" fill="#E7F2F0"/><path d="M730.917 597.692c-48.473-17.948-99.516-22.21-149.46-12.48-72.915 14.251-142.987 58.257-216.294 46.367-12.828-2.078-25.499-5.926-36.737-12.861-20.036-12.394-34.198-34.551-38.572-58.675-2.039-11.226-1.961-23.214 2.413-33.654 3.315-7.881 8.895-14.41 14.387-20.779 16.113-18.727 32.471-37.834 42.651-60.753 10.179-22.919 13.416-50.696 2.785-73.393-14.073-30.039-47.702-43.662-67.325-69.988-22.037-29.509-23.371-70.356-22.616-108.005.177-8.767 2.209-18.202 4.365-25.649 0 0 14.859-41.904 42.489-57.444 27.63-15.54 150.16-43.725 243.19-21.654 29.608 7.02 58.95 18.825 81.791 39.973 25.067 23.202 40.552 56.032 50.771 89.599 39.111 128.441 9.287 274.489 61.245 397.717" fill="#D6EEEC"/><path d="M799 835.594S753.3 608.365 607.323 603.34c-49.023-1.667-306.407-57.122-451.174 25.529C11.381 711.52-31.884 815.601-56 835.594h855z" fill="#9DBEAA"/><path d="M90.716-11.3c12.619 13.441 13.459 18.248 13.744 33.357.922 48.976-81.99 68.879-82.32 111.199-.35 44.749 92.034 61.863 92.664 110.167.512 39.418-60.713 51.879-60.025 89.055.841 47.52 101.25 50.726 137.378 150.181 6.444 17.728 15.734 43.313 7.768 63.348-23.795 60.047-198.617 62.666-282.97-55.377C-181.56 352.787-144.591 67.157-31.008-3.943 10.452-29.897 78.097-24.74 90.716-11.3z" fill="#D6EEEC"/><path d="M-230.811 737s-22.528-157.686 128.552-157.686c151.08 0 190.845-47.956 305.052 0C317 627.27 317 725.559 317 725.559L-230.811 737z" fill="#92B19D"/><path d="M-1.354 665.388a265.794 265.794 0 01-9.33-27.774c-7.622-29.239-5.716-50.561-5.478-60.812 0-1.351-2.106-1.717-2.297-.328a114.217 114.217 0 00-.82 14.552c-.054 8.228.44 16.45 1.478 24.611-5.565 1.465-10.834-.733-15.141-4.707-7.423-6.808-10.082-15.873-11.244-25.922-.124-1.032-.162-1.996-.953-2.594a.58.58 0 00-.215-.355.568.568 0 00-.766.065.584.584 0 00-.153.387c-1.182 1.224-.61 3.683-.429 5.265 2.42 21.428 15.275 31.834 25.623 31.708 1.26.024 2.52-.115 3.745-.414a194.302 194.302 0 002.858 15.227 224.333 224.333 0 008.824 27.967c11.797 31.322 15.56 47.321 18.915 56.386.12.341.365.622.683.787.318.165.687.202 1.03.102.344-.099.638-.326.822-.637a1.44 1.44 0 00.17-1.033c-.161-.656-9.366-31.515-17.341-52.51m48.142-82.091c-.115-.674-.507-1.127-.65-1.753-.201-.828-1.548-.914-1.692 0-.076.52-.363.848-.478 1.377-.363 1.733.517 11.467-1.767 26.351a65.447 65.447 0 01-2.58 11.679c-2.113 6.104-5.964 12.689-10.761 16.848a256.238 256.238 0 00-1.71-26.1 274.733 274.733 0 00-2.352-15.482 224.731 224.731 0 00-1.51-7.471 28.822 28.822 0 00-2.36-7.452.794.794 0 00-.892-.356.794.794 0 00-.58.77c.078 2.259.399 4.502.956 6.691.478 2.247.924 4.493 1.338 6.74a253.234 253.234 0 014.224 48.187A101.843 101.843 0 015.428 592.77a94.287 94.287 0 01-.554-8.376c0-1.444-.067-2.888-.096-4.342 0-.751-.296-2.994-1.539-2.34-1.242.655-1.041 1.926-1.137 3.139-.095 1.213-.114 2.571-.095 3.851 0 2.465.162 4.939.391 7.404a104.722 104.722 0 0018.511 49.92 51.669 51.669 0 005.027 6.489c-.44 28.556-4.778 66.624-4.778 69.503 0 .635 0 .472.229.712.956.963 1.997 1.233 2.35.231.65-1.877.546-3.639 1.51-14.056 1.74-18.572 3.69-61.127 3.68-62.85 6.03-4.371 10.302-11.091 13.092-18.1a54.81 54.81 0 003-11.554c2.218-13.479 2.15-26.957 1.788-29.162" fill="#304852"/><path d="M4.655 559.594c.232-2.068.347-4.147.345-6.228 0-23.619-14.772-42.772-32.995-42.772S-61 529.747-61 553.366c.003 2.08.118 4.16.345 6.228h65.31z" fill="#5C806A"/><path d="M42.645 549.594c.23-2.894.355-5.884.355-8.913 0-33.76-14.772-61.087-33.005-61.087C-8.237 479.594-23 506.95-23 540.681c0 3.029.115 6 .345 8.913h65.3z" fill="#66A480"/><path d="M-22.557 586.594a87.43 87.43 0 01-.443-8.913c0-33.76 18.798-61.087 42.005-61.087C42.21 516.594 61 543.95 61 577.681a87.46 87.46 0 01-.443 8.913h-83.114z" fill="#5C806A"/><path d="M78 266.594c-2.074-8.305-10.161-14.519-19.816-14.519a22.533 22.533 0 00-5.147.608 30.057 30.057 0 00-11.303-11.745 30.3 30.3 0 00-15.81-4.154 32.456 32.456 0 00-8.952 1.246 37.494 37.494 0 00-13.715-12.181 37.748 37.748 0 00-17.888-4.252c-15.966 0-29.544 9.314-34.692 22.365a26.99 26.99 0 00-12.31-2.966C-75.63 240.996-87 251.378-87 264.31c-.006.753.034 1.506.119 2.255l164.88.029zm297-87c-2.074-8.305-10.161-14.519-19.815-14.519a22.53 22.53 0 00-5.148.608 30.056 30.056 0 00-11.304-11.745 30.297 30.297 0 00-15.808-4.154 32.456 32.456 0 00-8.953 1.246 37.5 37.5 0 00-13.715-12.181 37.745 37.745 0 00-17.888-4.252c-15.966 0-29.544 9.314-34.692 22.365a26.992 26.992 0 00-12.31-2.966c-13.997 0-25.367 10.382-25.367 23.314-.005.753.035 1.506.12 2.255l164.88.029zM356 75.057c3.323-13.374 16.31-23.364 31.723-23.364 2.747 0 5.484.32 8.155.958a48.26 48.26 0 0143.446-25.587c4.829.012 9.632.699 14.271 2.04a60.15 60.15 0 0150.582-26.505c25.525 0 47.279 15.006 55.516 36.005a42.809 42.809 0 0119.633-4.71c22.426 0 40.51 16.8 40.51 37.534a35.19 35.19 0 01-.184 3.629H356z" fill="#fff"/></g><path d="M247.233 416.626s-11.605 18.913-28.812 21.361c-17.207 2.448-25.446-8.933-25.446-8.933l2.264-.76a25.197 25.197 0 0016.429 8.459c20.061 1.806 31.706-19.278 32.208-20.206l3.357.079z" fill="#E8D16E"/><path d="M120.271 424.513l3.287-.493c.611.858 14.766 20.383 34.453 16.158a25.295 25.295 0 0015.297-10.384l2.343.484s-8.456-23.473-30.387-21.874c-18.959 1.421-24.993 16.109-24.993 16.109z" fill="#AC8A2F"/><path d="M123.549 423.99c.61.859 14.765 20.383 34.452 16.159a25.295 25.295 0 0015.297-10.384s-10.237-18.913-27.09-18.35c-16.852.562-22.64 12.565-22.64 12.565" fill="#fff"/><path d="M162.224 386.471c-3.317-4.462-12.747.474-17.384-2.596-6.142-4.067-9.745-20.048-15.11-25.102-5.364-5.054-9.902-11.253-11.881-18.37-2.382-8.587-.876-17.767 1.182-26.424a211.926 211.926 0 0112.796-37.835 156.845 156.845 0 0132.277 31.33c6.773 8.795 12.797 19.13 12.216 30.225-.256 4.56-.728 14.293-2.097 18.646-3.711 11.845-8.317 18.31-12.028 30.126" fill="#FFD32A"/><path d="M163.071 385.977c-2.255-2.961-6.241-2.566-9.529-2.27-1.801.236-3.62.306-5.434.207a7.189 7.189 0 01-2.067-.493 5.338 5.338 0 01-1.585-1.096c-2.372-2.191-3.878-5.34-5.276-8.252-1.634-3.396-3.061-6.91-4.794-10.226a29.671 29.671 0 00-2.529-4.136c-1.182-1.54-2.678-2.794-3.997-4.215a40.076 40.076 0 01-7.875-11.845c-4.213-10.246-2.027-21.489.561-31.844a210.2 210.2 0 0110.494-31.349c.541-1.284 1.102-2.547 1.663-3.821l-1.339.356a155.459 155.459 0 0120.278 17.56c3.13 3.218 6.12 6.568 8.968 10.049a106.271 106.271 0 017.806 10.68 49.81 49.81 0 015.571 11.776 31.517 31.517 0 011.28 6.169c.142 1.896.142 3.8 0 5.696-.197 3.435-.404 6.909-.778 10.305-.177 1.619-.394 3.238-.718 4.837a39.592 39.592 0 01-1.615 5.36c-2.845 7.985-6.959 15.448-9.843 23.443a95.69 95.69 0 00-1.113 3.346c-.354 1.125 1.506 1.728 1.89.523a115.217 115.217 0 014.912-12.447c1.733-3.85 3.524-7.67 5.06-11.608.817-2.093 1.604-4.215 2.234-6.377.4-1.487.693-3.001.876-4.53.502-3.623.768-7.265.985-10.918.098-1.609.226-3.227.216-4.846a32.444 32.444 0 00-.738-6.604 44.984 44.984 0 00-4.922-12.329 87.678 87.678 0 00-7.53-11.075 137.551 137.551 0 00-8.879-10.453 158.397 158.397 0 00-20.229-18.241 491.66 491.66 0 00-2.716-1.974.98.98 0 00-1.349.345 215.64 215.64 0 00-11.29 31.587 128.608 128.608 0 00-3.574 16.563 42.885 42.885 0 00.65 16.455 37.374 37.374 0 006.723 13.148 50.8 50.8 0 004.863 5.419 17.557 17.557 0 012.874 3.475 86.4 86.4 0 014.922 9.949 49.141 49.141 0 005.138 9.467 11.64 11.64 0 003.278 3.158 9.83 9.83 0 005.079 1.057c1.851 0 3.682-.267 5.523-.395a10.856 10.856 0 014.764.395c.545.21 1.031.548 1.417.987a.984.984 0 001.339.355.99.99 0 00.355-1.342" fill="#AC8A2F"/><path d="M201.618 448.322c5.168 1.974 10.562-7.167 16.114-7.028 7.363.187 18.85 11.845 26.075 13.286 7.226 1.441 14.333 4.294 19.766 9.288 6.556 6.022 10.119 14.59 12.954 23.039a212.562 212.562 0 019.076 38.921 156.412 156.412 0 01-43.873-9.496c-10.394-3.869-20.996-9.417-26.331-19.159-2.185-4.008-6.891-12.517-8.052-16.939-3.091-11.993-2.599-19.949-5.69-31.942" fill="#FFD32A"/><path d="M201.372 449.24c3.386 1.283 6.703-1.412 9.223-3.327a27.41 27.41 0 014.489-2.961l.256-.118.128-.06c.207-.088.403-.158.61-.227l.522-.138.295-.069h.138c.148 0-.158 0 0 0 .36-.04.723-.04 1.083 0h.325c.175.02.349.05.521.089.759.156 1.504.377 2.225.661.177.059.354.129.531.208 0 0 .168.069 0 0l.128.059.315.138c.404.178.788.365 1.182.572 1.691.9 3.334 1.889 4.921 2.962 3.308 2.132 6.497 4.461 9.942 6.366a22.162 22.162 0 004.548 1.975c.984.276 1.969.434 2.953.671 1.191.286 2.373.612 3.544.987a36.448 36.448 0 0112.747 6.811 37.153 37.153 0 018.692 11.401 92.407 92.407 0 015.434 13.72 214.795 214.795 0 014.607 16.366 208.192 208.192 0 013.287 16.692c.217 1.362.414 2.724.601 4.086l.984-1.243a156.162 156.162 0 01-28.389-4.62 156.436 156.436 0 01-13.781-4.254 91.03 91.03 0 01-11.133-4.768 46.934 46.934 0 01-9.587-6.456 32.333 32.333 0 01-3.938-4.175 31.602 31.602 0 01-2.953-4.521c-1.624-2.961-3.238-5.922-4.715-8.972-.748-1.53-1.457-3.06-2.047-4.561a36.818 36.818 0 01-1.497-5.221c-1.919-8.499-2.352-17.235-4.203-25.754a104.26 104.26 0 00-.827-3.484.986.986 0 00-1.183-.604.988.988 0 00-.707 1.127 116.66 116.66 0 012.52 13.523c.561 4.235 1.073 8.479 1.871 12.675a62.75 62.75 0 001.496 6.465 38.83 38.83 0 001.811 4.56c1.486 3.277 3.18 6.446 4.922 9.605.768 1.401 1.506 2.833 2.382 4.175a31.892 31.892 0 003.75 4.689 43.175 43.175 0 009.45 7.265 76.619 76.619 0 0010.995 5.172 147.383 147.383 0 0013.466 4.491 157.88 157.88 0 0028.724 5.331c1.191.098 2.382.197 3.573.276.709.049.985-.661.985-1.244a221.816 221.816 0 00-2.954-16.83 198.276 198.276 0 00-4.311-16.524 129.081 129.081 0 00-5.325-14.806 45.123 45.123 0 00-7.875-12.408 35.448 35.448 0 00-12.295-8.4 48.776 48.776 0 00-7.176-2.369c-1.053-.266-2.126-.444-3.179-.72a8.378 8.378 0 01-.985-.316l-.521-.207-.246-.099h-.099a66.874 66.874 0 01-9.765-5.923 52.988 52.988 0 00-10.04-5.725 10.605 10.605 0 00-4.508-.888c-1.78.196-3.477.856-4.922 1.915-1.556.987-2.953 2.211-4.499 3.287-.705.514-1.445.979-2.215 1.392l-.502.237c-.167.078.079 0-.098 0l-.325.128a8.08 8.08 0 01-1.073.276h-.334a4.72 4.72 0 01-.532 0h-.069l-.246-.059a3.175 3.175 0 01-.571-.178.986.986 0 00-1.111 1.439.984.984 0 00.589.466" fill="#AC8A2F"/><path d="M142.025 434.927l-25.593 8.351c-5.207 1.698-10.513 3.415-15.996 3.524-12.265.237-23.034-7.364-32.848-14.649-10.985-8.143-22.236-16.573-29.422-28.25-.985-1.57-1.821-3.722-.62-5.113a4.562 4.562 0 012.392-1.155c19.234-5.202 39.069-8.43 58.992-8.588 5.404 0 11.104.227 15.75 3.08a27.189 27.189 0 017.107 7.136c3.878 5.202 7.255 10.76 10.621 16.307l7.097 11.687c1.546 2.547 3.16 5.469 2.402 8.351" fill="#FFD32A"/><path d="M141.759 433.979l-26.026 8.47a63.946 63.946 0 01-12.511 3.168c-3.87.419-7.784.084-11.527-.987-7.461-2.024-14.076-6.396-20.258-10.897-6.182-4.502-12.521-9.101-18.3-14.195a90.264 90.264 0 01-8.16-8.094 61.557 61.557 0 01-3.563-4.442 29.626 29.626 0 01-3.012-4.688 3.842 3.842 0 01-.433-2.133 1.87 1.87 0 011.447-1.372c1.968-.671 4.105-1.115 6.142-1.628a271.94 271.94 0 0112.925-2.883 228.131 228.131 0 0126.115-3.632c4.397-.355 8.8-.563 13.21-.622a43.094 43.094 0 0111.586.987 17.144 17.144 0 015.177 2.28 21.219 21.219 0 014.184 3.84 88.835 88.835 0 017.304 10.187c2.372 3.672 4.626 7.423 6.89 11.164 1.162 1.921 2.327 3.84 3.495 5.754 1.132 1.886 2.362 3.732 3.366 5.686a7.915 7.915 0 011.073 5.449c-.295 1.234 1.595 1.757 1.9.523 1.073-4.393-2.126-8.499-4.272-12.023-2.392-3.948-4.774-7.896-7.186-11.845-2.412-3.948-4.705-7.6-7.294-11.243-2.382-3.346-4.922-6.771-8.328-9.111-3.406-2.339-7.392-3.158-11.369-3.454a105.877 105.877 0 00-12.895.059 221.714 221.714 0 00-27.139 2.961c-4.436.75-8.859 1.626-13.269 2.626-2.234.503-4.469.987-6.684 1.599-1.112.276-2.224.562-3.327.859-.987.216-1.955.513-2.894.888a3.795 3.795 0 00-1.902 1.985 3.81 3.81 0 00-.066 2.753 17.366 17.366 0 002.766 4.935 70.147 70.147 0 007.609 9.121 155.82 155.82 0 0018.338 15.33c6.398 4.767 12.797 9.683 20.17 12.95a38.56 38.56 0 0011.487 3.277c4.26.395 8.556.01 12.679-1.135 4.459-1.135 8.81-2.695 13.18-4.116l13.309-4.343 6.555-2.132c1.201-.395.689-2.29-.521-1.895" fill="#AC8A2F"/><path d="M159.044 450.859c-10.296 5.754-23.053 4.846-33.999 9.249a74.445 74.445 0 00-10.828 5.863c-5.611 3.455-11.35 7.048-15.336 12.299-6.399 8.43-7.294 19.742-7.314 30.323-.02 10.582.492 21.608-3.76 31.301l27.562-1.767c4.272-.276 8.652-.573 12.57-2.29 3.75-1.639 6.89-4.472 9.617-7.492 8.987-9.871 15.1-22.071 19.018-34.825 3.918-12.753 5.729-26.059 6.89-39.355a4.64 4.64 0 00-.59-3.385c-.739-.899-2.589-.78-2.747.385" fill="#FFD32A"/><path d="M158.582 450.01c-7.393 4.106-16.016 4.767-24.146 6.416-4.233.79-8.352 2.1-12.265 3.899a112.121 112.121 0 00-11.714 6.83 54.037 54.037 0 00-10.051 7.818 31.327 31.327 0 00-6.546 10.414c-3.002 7.749-3.297 16.277-3.287 24.49 0 8.883.315 17.974-2.48 26.493a38.093 38.093 0 01-1.153 3.03c-.265.622 0 1.53.847 1.481l15.553-.987c5.02-.326 10.05-.563 15.07-.987a38.077 38.077 0 007.068-1.145 21.326 21.326 0 006.074-2.784 44.087 44.087 0 009.548-9.259 89.884 89.884 0 0013.259-23.019 134.888 134.888 0 007.511-27.727 218.137 218.137 0 001.968-14.806c.128-1.244.256-2.498.374-3.751a30.96 30.96 0 00.266-3.455 4.129 4.129 0 00-1.063-2.961 2.945 2.945 0 00-2.52-.691 2.133 2.133 0 00-1.742 1.648.98.98 0 00.093.751.968.968 0 00.596.463.972.972 0 00.748-.093.994.994 0 00.463-.598s.069-.315 0-.108c.069-.207 0 0 0 0l.059-.059c-.089.059-.089.059 0 0 .088-.06-.089 0 0 0a.975.975 0 01.64 0c.265.079-.119-.089.128.049l.157.099c-.148-.109.069.098.079.108.01.01.069.129.108.188.162.349.245.73.246 1.115a25.721 25.721 0 01-.226 3.258c-.118 1.194-.227 2.378-.355 3.573-.492 4.738-1.092 9.466-1.87 14.165a137.768 137.768 0 01-6.94 26.769 89.606 89.606 0 01-12.215 22.24 52.557 52.557 0 01-8.574 9.17 20.473 20.473 0 01-5.217 3.119 26.16 26.16 0 01-6.418 1.53c-2.294.286-4.597.404-6.891.553l-7.422.473-14.844.987-3.711.247.856 1.481c3.642-8.341 3.938-17.541 3.938-26.503 0-8.272-.177-16.702 2.126-24.727a30.747 30.747 0 015.168-10.552 39.968 39.968 0 019.282-8.232c1.753-1.185 3.544-2.3 5.336-3.406 1.968-1.204 3.937-2.408 5.906-3.514a43.573 43.573 0 016.073-2.833 51.935 51.935 0 015.906-1.747c8.141-1.915 16.656-2.418 24.393-5.794.984-.415 1.88-.879 2.795-1.382 1.103-.612.118-2.32-.984-1.698" fill="#AC8A2F"/><path d="M193.32 387.339a38.407 38.407 0 01-4.193-5.843c-3.282-5.265-6.546-10.496-9.795-15.695a54.975 54.975 0 01-5.079-9.456c-1.91-5.064-2.294-10.552-2.618-15.961-.263-4.205-.502-8.41-.719-12.615a62.902 62.902 0 01.187-12.102c1.329-9.328 6.694-17.768 13.525-24.203 6.832-6.436 15.1-11.204 23.457-15.508a2.291 2.291 0 011.388-.375c.543.156 1.01.507 1.309.987 4.391 5.706 6.625 12.734 8.781 19.604 3.229 10.315 6.487 20.729 7.186 31.518.397 4.113.02 8.266-1.113 12.24-.915 2.852-2.411 5.478-3.484 8.281-1.309 3.406-1.969 7.038-3.603 10.315a40.57 40.57 0 01-4.085 6.258c-5.955 7.996-12.118 16.179-20.573 21.43" fill="#FFD32A"/><path d="M194.019 386.648a33.68 33.68 0 01-3.613-4.935 2719.863 2719.863 0 01-3.671-5.922 5828.746 5828.746 0 01-7.324-11.717 40.554 40.554 0 01-5.296-11.5 70.023 70.023 0 01-1.535-12.733c-.276-4.59-.562-9.19-.768-13.819a48.198 48.198 0 01.748-12.833c1.683-7.304 5.798-13.819 10.956-19.218 5.66-5.873 12.56-10.355 19.687-14.274 1.782-.987 3.583-1.974 5.404-2.872.285-.138.591-.345.896-.178.349.271.643.606.866.987.581.8 1.132 1.629 1.654 2.478a55.04 55.04 0 014.862 10.917c1.379 4.028 2.619 8.094 3.839 12.171 1.28 4.254 2.471 8.548 3.396 12.891a78.223 78.223 0 011.753 13.099 29.555 29.555 0 01-1.969 12.605c-.817 1.974-1.782 3.84-2.559 5.804-.778 1.965-1.359 4.037-1.969 6.071a28.555 28.555 0 01-2.372 5.725 54.637 54.637 0 01-3.603 5.222c-4.646 6.238-9.401 12.516-15.425 17.491a42.831 42.831 0 01-4.567 3.287c-1.073.671-.089 2.379.984 1.698 6.89-4.304 12.294-10.473 17.216-16.86a317.52 317.52 0 003.711-4.935 46.85 46.85 0 003.623-5.36c2.106-3.83 2.805-8.193 4.469-12.201.836-1.974 1.831-3.948 2.628-5.991a26.325 26.325 0 001.585-6.495 53.08 53.08 0 00-.532-13.622c-1.309-9.022-4.075-17.768-6.802-26.434a99.472 99.472 0 00-4.282-11.717 42.407 42.407 0 00-2.953-5.389c-.984-1.55-2.411-4.166-4.666-3.376-.977.402-1.924.874-2.835 1.411l-2.785 1.491c-1.851.987-3.682 2.063-5.493 3.158a85.133 85.133 0 00-10.414 7.354 49.55 49.55 0 00-14.293 18.597 36.428 36.428 0 00-2.757 11.845c-.159 4.695-.037 9.395.365 14.076.256 4.56.433 9.15.905 13.701a39.26 39.26 0 003.278 12.773c2.1 4.082 4.437 8.037 6.999 11.845 2.49 3.948 4.971 8.015 7.491 11.993a35.512 35.512 0 003.76 5.123c.857.928 2.245-.464 1.388-1.392" fill="#AC8A2F"/><path d="M213.696 390.765c-6.073-23.572-.669-49.651 14.362-69.333a38.464 38.464 0 016.831-7.206 68.848 68.848 0 017.826-4.807c3.425-1.974 6.733-4.136 10.267-5.923 6.89-3.455 14.45-5.37 21.961-7.255 1.378-.345 2.953-.671 4.134.089 1.181.76 1.457 2.152 1.664 3.445 3.396 21.785-1.634 44.419-11.872 64.161-1.801 3.484-3.809 6.968-6.772 9.634a34.975 34.975 0 01-9.46 5.567 156.923 156.923 0 01-39.059 11.41" fill="#FFD32A"/><path d="M214.641 390.498a78.078 78.078 0 01-2.303-23.404 81.871 81.871 0 014.636-23.147 80.909 80.909 0 0111.182-20.985 36.969 36.969 0 018.86-9.052c1.88-1.244 3.858-2.31 5.817-3.435s3.997-2.379 6.005-3.563a67.731 67.731 0 0112.343-5.745c4.292-1.471 8.692-2.606 13.092-3.712 1.487-.375 3.859-1.263 4.834.454.348.736.561 1.528.63 2.34a72.97 72.97 0 01.433 3.227c.478 4.296.653 8.621.521 12.941a102.909 102.909 0 01-4.163 25.714 120.183 120.183 0 01-4.381 12.378 104.714 104.714 0 01-5.66 11.697 29.613 29.613 0 01-3.563 5.103 21.282 21.282 0 01-4.814 3.949 74.64 74.64 0 01-11.97 5.498 156.465 156.465 0 01-26.311 7.689c-2.186.434-4.384.826-6.596 1.175a.982.982 0 00.522 1.895 158.54 158.54 0 0027.306-6.791 154.296 154.296 0 0012.895-5.123c4.026-1.817 7.875-3.949 10.828-7.423a52.152 52.152 0 006.704-11.371 123.174 123.174 0 005.168-12.546 109.257 109.257 0 005.709-26.287c.392-4.417.474-8.857.246-13.286a87.286 87.286 0 00-.61-6.663c-.247-1.924-.325-4.205-1.595-5.774-1.486-1.816-3.938-1.412-5.906-.908-2.264.572-4.518 1.135-6.773 1.757a88.946 88.946 0 00-13.2 4.58c-4.301 1.974-8.239 4.541-12.314 6.91-1.969 1.145-4.036 2.24-5.965 3.514a30.53 30.53 0 00-5.217 4.353 63.987 63.987 0 00-7.757 10.206 81.337 81.337 0 00-5.759 10.779 84.2 84.2 0 00-6.555 23.601 80.773 80.773 0 00.571 24.204 73.386 73.386 0 001.259 5.794.987.987 0 001.184.604.988.988 0 00.706-1.127" fill="#AC8A2F"/><path d="M227.625 392.857c2.185-8.301 6.28-15.951 10.345-23.502a68.485 68.485 0 013.938-6.772 42.547 42.547 0 016.004-6.761c8.86-8.213 20.062-13.583 31.785-16.347 11.724-2.763 23.92-2.961 35.9-1.826.384.004.76.117 1.083.326.348.378.535.878.521 1.392.67 8.538-4.341 16.366-9.135 23.453l-7.333 10.858c-4.922 7.265-10.08 14.806-17.591 19.288a49.612 49.612 0 01-10.444 4.471 143.651 143.651 0 01-21.006 5.173c-5.906.987-12.078 1.599-17.718-.385a10.207 10.207 0 01-5.217-3.583 5.253 5.253 0 01-.109-6.032" fill="#FFD32A"/><path d="M228.57 393.114c2.106-7.897 5.906-15.26 9.843-22.456a55.75 55.75 0 016.497-10.246 53.145 53.145 0 018.347-7.749 69.287 69.287 0 0119.687-10.216 89.352 89.352 0 0123.832-4.334 119.2 119.2 0 0112.737.05c1.054 0 2.117.128 3.17.207 1.053.079 2.116.109 3.15.276.295 0 .354.089.413.336.086.402.122.813.109 1.224.034.939.005 1.879-.089 2.813a29.463 29.463 0 01-3.554 10.542c-1.9 3.444-3.99 6.779-6.26 9.99-2.422 3.579-4.846 7.159-7.274 10.739-2.058 3.03-4.154 6.051-6.497 8.884a43.694 43.694 0 01-7.727 7.472 40.116 40.116 0 01-10.523 5.212 137.703 137.703 0 01-24.757 6.12 36.94 36.94 0 01-11.93.227 17.68 17.68 0 01-5.306-1.698 6.894 6.894 0 01-3.307-3.277 4.08 4.08 0 01.403-4.086.99.99 0 00-.344-1.353.975.975 0 00-1.094.066.984.984 0 00-.255.29 5.842 5.842 0 00-.758 5.172 8.112 8.112 0 003.406 4.313 16.315 16.315 0 005.306 2.172c2.045.488 4.139.736 6.241.74 4.323-.06 8.63-.552 12.855-1.47a144.297 144.297 0 0012.797-3.031 89.34 89.34 0 0012.334-4.284 35.884 35.884 0 009.716-6.564c5.728-5.37 9.951-12.161 14.332-18.626 2.441-3.603 4.922-7.176 7.294-10.858a51.514 51.514 0 005.473-10.7 26.764 26.764 0 001.309-5.794c.108-.96.148-1.927.118-2.893a4.395 4.395 0 00-.689-2.823c-.728-.849-1.969-.799-2.953-.898a96.98 96.98 0 00-3.258-.257c-2.205-.148-4.42-.246-6.625-.296-8.772-.229-17.536.68-26.075 2.705a75.273 75.273 0 00-21.4 8.815c-6.763 4.155-13.132 9.555-17.355 16.366-1.132 1.766-2.116 3.642-3.1 5.508-.985 1.865-1.969 3.711-2.953 5.586-2 3.8-3.772 7.716-5.306 11.727a63.468 63.468 0 00-1.86 5.834.987.987 0 00.706 1.127.985.985 0 001.183-.604" fill="#AC8A2F"/><path d="M232.192 406.785a24.31 24.31 0 018.712-8.884c3.593-2.092 7.589-3.04 11.3-4.836 2.815-1.363 5.453-3.199 8.259-4.581 9.095-4.481 19.569-3.948 29.097-.839 9.529 3.11 18.29 8.677 26.962 14.195l15.494 9.871c-3.593 6.426-10.828 8.252-16.813 11.558a89.494 89.494 0 00-8.17 5.489 147.38 147.38 0 01-8.377 5.606 42.387 42.387 0 01-8.987 4.571 33.902 33.902 0 01-9.352 1.48c-9.085.385-18.407-1.095-26.469-5.922a52.504 52.504 0 01-12.856-11.5c-4.41-5.281-8.318-11.509-9.499-18.755" fill="#FFD32A"/><path d="M233.039 407.279a23.8 23.8 0 016.427-7.275c2.855-2.083 6.153-3.228 9.411-4.482a44.093 44.093 0 005.138-2.28c1.634-.878 3.209-1.865 4.824-2.773a32.162 32.162 0 019.843-3.682c6.891-1.323 14.037-.356 20.672 1.806 7.028 2.3 13.544 5.923 19.834 9.772 6.684 4.087 13.26 8.361 19.865 12.566.846.533 1.693 1.066 2.53 1.609l-.355-1.352c-3.455 6.1-10.582 7.975-16.33 11.134-3.938 2.171-7.462 5.024-11.173 7.561a85.254 85.254 0 01-11.458 6.91 31.607 31.607 0 01-12.796 2.605 54.04 54.04 0 01-12.226-.987 40.566 40.566 0 01-11.625-4.185 44.062 44.062 0 01-9.657-7.413c-5.581-5.547-10.739-12.279-12.846-19.988a32.105 32.105 0 01-.649-2.962.988.988 0 00-1.211-.681.988.988 0 00-.679 1.204c1.378 8.262 6.27 15.429 11.812 21.509a52.343 52.343 0 009.568 8.381 40.44 40.44 0 0011.724 5.29 51.867 51.867 0 0012.629 1.846 41.665 41.665 0 0013.259-1.441c4.341-1.352 8.239-3.889 12.019-6.347a144.513 144.513 0 005.778-3.948c1.9-1.363 3.8-2.764 5.759-4.047a92.076 92.076 0 019.843-5.104 24.178 24.178 0 008.338-6.06 17.952 17.952 0 001.565-2.281.987.987 0 00-.354-1.352c-6.802-4.313-13.565-8.686-20.406-12.941-6.448-4.017-13.082-7.896-20.229-10.482a45.774 45.774 0 00-21.272-2.902 33.333 33.333 0 00-10.404 3.01c-3.386 1.629-6.448 3.87-9.913 5.34-3.465 1.471-6.979 2.438-10.158 4.353a25.29 25.29 0 00-7.432 6.959c-.482.681-.984 1.392-1.368 2.113a.985.985 0 00.379 1.312.983.983 0 001.324-.325" fill="#AC8A2F"/><path d="M218.953 442.567a109.428 109.428 0 0138.842-18.044 32.862 32.862 0 018.692-1.184c2.261.105 4.503.466 6.684 1.075a147.962 147.962 0 0119.274 6.851c6.162 2.527 12.402 5.093 17.649 9.2 4.164 3.267 7.56 7.403 10.917 11.509 2.447 2.981 4.895 5.969 7.343 8.963a23.842 23.842 0 00-7.826 2.083c-11.812 4.668-23.624 9.634-35.998 12.457a49.805 49.805 0 01-13.781 1.52c-9.676-.523-18.555-5.291-27.04-9.99-10.562-5.863-21.656-12.407-27.06-23.246" fill="#FFD32A"/><path d="M219.445 443.386a108.896 108.896 0 0131.342-15.892 75.163 75.163 0 0111.812-2.961 22.388 22.388 0 016.29 0 46.36 46.36 0 016.201 1.421 126.503 126.503 0 0112.068 4.225c3.82 1.52 7.639 3.04 11.38 4.728a55.368 55.368 0 0110.286 5.824 52.487 52.487 0 018.554 8.38c2.786 3.268 5.463 6.624 8.19 9.94.699.869 1.408 1.728 2.116 2.587.227-.553.463-1.116.689-1.678a20.606 20.606 0 00-6.329 1.441c-2.047.76-4.065 1.589-6.093 2.398-4.036 1.609-8.082 3.218-12.157 4.728-8.18 3.031-16.626 5.864-25.288 7.108-4.25.647-8.58.55-12.797-.287a53.057 53.057 0 01-11.536-3.997c-3.731-1.738-7.334-3.732-10.927-5.735-3.14-1.757-6.26-3.544-9.282-5.518-5.906-3.82-11.468-8.42-15.149-14.481-.463-.76-.896-1.54-1.29-2.339-.571-1.135-2.264-.138-1.693.987 3.268 6.525 8.653 11.598 14.529 15.793 3.012 2.132 6.182 4.037 9.381 5.923 3.445 1.974 6.891 3.899 10.434 5.685 7.609 3.86 15.75 6.851 24.402 6.407a68.81 68.81 0 0013.348-2.3c4.263-1.106 8.476-2.438 12.63-3.899 4.154-1.461 8.288-3.06 12.402-4.689l6.103-2.428a56.384 56.384 0 016.222-2.251 14.083 14.083 0 013.12-.493.98.98 0 00.915-.609.994.994 0 00-.216-1.079c-2.835-3.455-5.65-6.91-8.495-10.365a72.776 72.776 0 00-8.377-8.953c-6.251-5.389-14.007-8.38-21.548-11.45-4.016-1.628-8.052-3.228-12.186-4.56-4.134-1.333-8.387-2.606-12.708-2.567-4.321.04-8.436 1.205-12.472 2.35a111.773 111.773 0 00-32.415 15.319 83.132 83.132 0 00-2.392 1.708.988.988 0 00-.354 1.342.981.981 0 001.339.356" fill="#AC8A2F"/><path d="M173.505 459.555c-4.449 7.897-10.326 14.895-15.356 22.456-5.03 7.561-9.302 15.971-9.844 25.043a61.069 61.069 0 00.335 9.377 430.433 430.433 0 001.969 17.767 51.851 51.851 0 001.417 7.769c1.831 6.376 5.985 12.19 6.113 18.824.984-4.393 4.292-7.897 7.944-10.473 3.652-2.577 7.757-4.521 11.3-7.255a58.265 58.265 0 006.655-6.298 64.058 64.058 0 006.959-8.361c5.296-7.966 7.058-17.708 8.702-27.135a50.976 50.976 0 001.112-11.243c-.276-5.448-2.274-10.67-4.666-15.576-2.097-4.304-4.587-8.538-8.249-11.618a20.898 20.898 0 00-14.224-4.807" fill="#FFD32A"/><path d="M172.658 459.051c-3.543 6.278-7.963 11.984-12.147 17.827-4.055 5.666-7.874 11.549-10.424 18.064a41.17 41.17 0 00-2.579 9.97 53.092 53.092 0 00.108 11.321c.355 3.87.748 7.733 1.182 11.589.433 3.83.807 7.699 1.535 11.48a47.269 47.269 0 003.367 9.871 39.77 39.77 0 013.179 9.278c.123.761.192 1.53.207 2.3 0 1.076 1.683 1.382 1.969.257.856-3.801 3.524-6.841 6.536-9.17 3.504-2.705 7.55-4.59 11.152-7.147a64.089 64.089 0 009.864-9.407 46.266 46.266 0 007.727-10.956c3.829-7.897 5.286-16.83 6.684-25.457.422-2.407.669-4.842.738-7.285a29.469 29.469 0 00-.827-7.068 53.789 53.789 0 00-5.03-12.634 31.333 31.333 0 00-7.639-10.019 22.018 22.018 0 00-11.585-4.788 21.154 21.154 0 00-3.072-.098c-1.26.059-1.26 2.023 0 1.974a20.085 20.085 0 0111.517 3.06 25.288 25.288 0 018.043 8.962 56.428 56.428 0 015.256 11.895 29.573 29.573 0 011.28 6.534 34.804 34.804 0 01-.335 7.147c-.61 4.402-1.427 8.815-2.372 13.158a64.162 64.162 0 01-3.652 12.022 41.252 41.252 0 01-6.891 10.809 121.735 121.735 0 01-4.597 4.936 49.24 49.24 0 01-4.922 4.58c-6.358 5.004-15.247 7.709-18.84 15.605a14.026 14.026 0 00-.984 2.784l1.968.267c-.167-6.762-4.164-12.448-6.054-18.755a65.493 65.493 0 01-1.87-11.055 513.56 513.56 0 01-1.25-11.48 87.827 87.827 0 01-.659-11.599 36.546 36.546 0 011.88-9.959c2.155-6.525 5.788-12.438 9.696-18.034 4.085-5.844 8.524-11.451 12.235-17.551.453-.75.896-1.51 1.319-2.27a.99.99 0 00-.402-1.26.984.984 0 00-1.291.273" fill="#AC8A2F"/><path d="M196.106 457.502a81.725 81.725 0 01-2.501 21.271c-.885 3.495-1.968 6.91-2.549 10.493-1.9 12.447 3.603 25.122 12.206 34.657a39.365 39.365 0 007.107 6.357 59.107 59.107 0 009.607 4.935l16.321 7.087c.614.316 1.282.51 1.969.573 2.096 0 3.376-2.152 4.045-4.037 3.554-9.97 4.046-20.729 3.554-31.173-.246-5.152-.748-10.374-2.727-15.171a40.245 40.245 0 00-5.699-9.298c-10.336-13.267-25.367-23.691-42.505-26.652" fill="#FFD32A"/><path d="M195.121 457.502a79.784 79.784 0 01-.748 12.259 95.912 95.912 0 01-2.618 12.122 48.234 48.234 0 00-2.048 11.44 38.227 38.227 0 001.241 10.453 49.929 49.929 0 009.922 18.874 44.952 44.952 0 008.17 7.896 54.534 54.534 0 0010.444 5.469l11.606 5.093 2.953 1.293c.925.395 1.85.859 2.805 1.185a4.173 4.173 0 004.607-1.224 12.354 12.354 0 002.234-4.482 60.504 60.504 0 001.566-5.715 75.964 75.964 0 001.584-11.845c.219-3.978.235-7.964.05-11.944a62.393 62.393 0 00-1.388-11.795c-1.762-7.295-6.399-13.415-11.379-18.854a76.285 76.285 0 00-15.455-12.95 66.103 66.103 0 00-18.624-8.134 48.326 48.326 0 00-4.843-.987.982.982 0 00-.522 1.895 61.899 61.899 0 0118.595 6.406 72.032 72.032 0 0115.828 11.49 78.401 78.401 0 016.615 7.166 45.585 45.585 0 015.965 9.003 33.422 33.422 0 012.825 10.857c.386 3.834.57 7.686.552 11.54a74.721 74.721 0 01-3.111 22.9 11.126 11.126 0 01-1.841 4.027 2.442 2.442 0 01-1.466.987h-.365a1.89 1.89 0 01-.472-.069 8.213 8.213 0 01-1.27-.473l-11.379-4.936c-3.662-1.589-7.392-3.08-10.916-4.935a34.803 34.803 0 01-8.86-6.703 50.603 50.603 0 01-11.221-17.382 35.918 35.918 0 01-1.723-20.117c.847-3.949 2.126-7.808 2.953-11.786a82.891 82.891 0 001.595-12.052c.105-1.975.144-3.949.118-5.923a.984.984 0 10-1.969 0" fill="#AC8A2F"/><path d="M131.483 441.116a555.66 555.66 0 00-25.672-1.974c-2.264-.119-4.548-.227-6.822-.198-16.31.247-32.021 8.025-43.607 19.555-4.646 4.619-8.741 9.871-14.076 13.661a5.693 5.693 0 002.707 2.221 165.374 165.374 0 0035.043 13.187 57.23 57.23 0 007.392 1.461c4.622.493 9.295.048 13.741-1.309a34.585 34.585 0 0012.138-6.587 89.997 89.997 0 008.072-8.371 149.468 149.468 0 0112.265-11.983c3.051-2.675 6.437-5.636 6.89-9.674a10.647 10.647 0 00-2.697-7.896 31.261 31.261 0 00-6.506-5.469" fill="#FFD32A"/><path d="M131.483 440.129a591.16 591.16 0 00-22.355-1.787c-3.672-.217-7.343-.473-11.015-.365a57.767 57.767 0 00-9.224 1.066 63.254 63.254 0 00-17.314 6.318 71.32 71.32 0 00-15.11 10.808c-4.735 4.403-8.712 9.595-13.722 13.721-.61.513-1.25.987-1.89 1.461a.988.988 0 00-.354 1.342c.984 1.905 3.366 2.744 5.187 3.652a186.652 186.652 0 006.467 3.021c4.37 1.974 8.86 3.682 13.348 5.231a161.261 161.261 0 0013.604 4.028 42.883 42.883 0 0013.476 1.549 35.492 35.492 0 0022.847-10.453c3.317-3.287 6.29-6.91 9.558-10.276a155.405 155.405 0 015.148-5.024c1.752-1.638 3.298-2.961 4.922-4.422 2.953-2.695 5.798-6.08 5.542-10.315-.286-4.649-3.583-8.163-7.098-10.858a99.852 99.852 0 00-2.638-1.895.985.985 0 00-1.308.38.993.993 0 00.324 1.327c3.307 2.3 6.989 4.867 8.328 8.884a7.81 7.81 0 01-.128 5.508 13.888 13.888 0 01-3.18 4.373c-1.457 1.461-3.051 2.784-4.587 4.166a123.436 123.436 0 00-4.922 4.688c-3.238 3.208-6.231 6.643-9.331 9.98a38.422 38.422 0 01-9.706 7.896 33.855 33.855 0 01-11.36 3.791 34.368 34.368 0 01-12.383-.543c-4.498-.987-8.947-2.241-13.328-3.642a158.29 158.29 0 01-12.885-4.729c-4.223-1.767-8.308-3.573-12.275-5.705a4.305 4.305 0 01-1.89-1.639l-.394 1.333c5.335-3.82 9.44-8.963 14.037-13.572a69.792 69.792 0 0114.51-11.204 62.338 62.338 0 0116.802-6.811 53.918 53.918 0 018.86-1.382 84.333 84.333 0 0110.473.099c7.429.415 14.851.974 22.266 1.678.906.079 1.812.168 2.717.267a.987.987 0 000-1.975" fill="#AC8A2F"/><path d="M142.015 406.637a119.026 119.026 0 01-33.793-5.528 49.85 49.85 0 01-13.702-6.268 48.061 48.061 0 01-9.548-9.328c-7.284-8.992-12.974-19.406-15.661-30.669-1.398-5.922-1.97-11.914-3.032-17.866-.866-4.866-2.048-9.673-3.239-14.48a209.424 209.424 0 0141.53 8.804 57.111 57.111 0 0111.96 5.015c13.122 7.837 19.126 23.423 24.215 37.865a61.108 61.108 0 013.583 13.197 61.707 61.707 0 010 10.789c-.196 3.445-.738 7.442-3.711 9.16" fill="#FFD32A"/><path d="M142.015 405.65a118.28 118.28 0 01-25.918-3.356 101.003 101.003 0 01-12.334-3.781 38.396 38.396 0 01-10.444-5.794 54.902 54.902 0 01-8.377-8.805 86.063 86.063 0 01-6.615-9.624 71.48 71.48 0 01-8.623-22.239c-.876-4.383-1.407-8.884-2.126-13.257-.718-4.372-1.713-8.883-2.786-13.266-.255-1.086-.531-2.162-.797-3.238l-.984 1.244a206.432 206.432 0 0129.097 5.222 194.376 194.376 0 0114.077 4.126 45.36 45.36 0 0112.137 5.804c6.162 4.392 10.582 10.779 13.987 17.461a112.654 112.654 0 014.715 10.799c1.507 3.949 2.954 7.897 4.253 11.924a50.121 50.121 0 011.841 7.176c.368 2.416.507 4.862.413 7.305 0 2.27-.128 4.57-.394 6.83a11.192 11.192 0 01-1.486 4.817 4.92 4.92 0 01-1.565 1.481.988.988 0 00.254 1.781.98.98 0 00.73-.073c3.495-2.063 3.997-6.515 4.213-10.177.148-2.547.296-5.103.207-7.65a38.044 38.044 0 00-1.063-7.68 123.871 123.871 0 00-4.331-13.108c-1.398-3.83-2.894-7.64-4.607-11.342-3.288-7.117-7.511-14.036-13.525-19.169a39.82 39.82 0 00-11.33-6.653 138.261 138.261 0 00-14.204-4.511 212.343 212.343 0 00-29.679-5.923c-1.24-.148-2.47-.296-3.71-.424-.66-.079-1.083.681-.985 1.244 1.102 4.471 2.215 8.953 3.061 13.493.847 4.541 1.398 8.884 2.146 13.326a74.089 74.089 0 003.13 12.339 76.435 76.435 0 004.922 10.996 86.06 86.06 0 006.517 10.127 68.29 68.29 0 008.071 9.279 37.982 37.982 0 0010.297 6.801 82.65 82.65 0 0012.235 4.225 120.853 120.853 0 0026.351 4.145c1.073.05 2.146.079 3.219.099a.987.987 0 000-1.974" fill="#AC8A2F"/><path d="M176.763 504.921c-8.643 5.449-17.896 10.858-28.084 11.283a31.338 31.338 0 01-19.992-6.16 16.966 16.966 0 01-2.953-2.694c-2.067-2.458-4.558-6.11-5.129-9.269a40.97 40.97 0 01-.462-14.441c.344-2.043 1.339-4.936.768-5.666-1.408-1.718-4.194.365-5.05 2.428-.857 2.063-.984 4.472-1.644 6.584-1.309-5.755-4.006-16.228-6.89-16.455-1.073 0-1.782 1.52-1.703 2.606.265 2.823 1.25 5.538 1.447 8.311-.985-1.609-2.284-5.004-3.515-6.416-.925-1.056-2.5-2.211-3.396-1.125-.6.731-.157 3.869.237 4.728.984 2.182 1.968 4.353 3.022 6.535a27.36 27.36 0 00-3.938-7.127c-.492-.602-2.126-1.629-2.795-1.224-.384.227-.247.444-.315.888-.365 2.448 1.063 5.202 2.49 7.226a7.895 7.895 0 011.043 2.053c-.846-1.086-3.346-4.254-4.498-4.995-1.152-.74-2.254-.76-2.727.889-.167.602 1.457 3.682 1.87 4.145.985 1.116 5.798 8.371 6.793 9.496 6.654 7.512 7.441 9.753 14.765 15.952 3.288 2.803 6.733 6.455 10.582 8.41a51.574 51.574 0 0011.241 4.185 45.491 45.491 0 0018.506-.109c6.162-1.273 12.236-4.067 18.516-6.228 1.24-.425 1.663-1.56 2.441-2.616a5.16 5.16 0 00.817-2.379 18.172 18.172 0 00-1.801-10.907" fill="#3BB87D"/><path d="M176.478 504.497c-5.907 3.702-11.931 7.354-18.585 9.486a35.107 35.107 0 01-10.041 1.747 30.88 30.88 0 01-9.843-1.431 30.592 30.592 0 01-8.859-4.511 23.243 23.243 0 01-6.408-7.561 14.348 14.348 0 01-1.674-4.274 52.036 52.036 0 01-.778-5.765 38.134 38.134 0 010-5.696c.143-1.663.413-3.313.808-4.935.157-.651.305-1.313.403-1.974a3.45 3.45 0 000-1.52c-.374-1.126-1.831-1.362-2.805-.987a5.801 5.801 0 00-2.953 2.586 15.13 15.13 0 00-1.359 4.767c-.16.808-.367 1.606-.62 2.389h.985a76.124 76.124 0 00-3.505-12.032 11.42 11.42 0 00-2.392-4.097 2.235 2.235 0 00-1.506-.691c-1.033 0-1.703 1.047-1.968 1.974a4.633 4.633 0 00-.06 1.876c.099.819.247 1.629.414 2.448.412 1.694.721 3.411.925 5.143l.916-.257c-.817-1.372-1.428-2.872-2.176-4.294a7.961 7.961 0 00-3.061-3.573 1.968 1.968 0 00-2.146 0 1.976 1.976 0 00-.709 1.55 9.17 9.17 0 00.079 1.974c.064.619.2 1.228.403 1.816.424 1.106.985 2.181 1.497 3.257.512 1.076 1.083 2.33 1.614 3.495.236.503 1.103.138.896-.375a33.024 33.024 0 00-2.363-4.936 8.924 8.924 0 00-2.894-3.386 3.11 3.11 0 00-1.673-.523 1.124 1.124 0 00-1.053 1.155 9.453 9.453 0 000 2.359c.155.823.406 1.625.748 2.389.392.881.86 1.727 1.398 2.527a11.65 11.65 0 011.348 2.448l.817-.484a50.979 50.979 0 00-3.337-3.948c-.984-.987-2.864-2.537-4.124-1.086a2.099 2.099 0 00-.473 2.093c.263.767.593 1.511.985 2.221a21.6 21.6 0 001.712 2.625c1.802 2.498 3.475 5.084 5.306 7.552 1.093 1.48 2.382 2.813 3.564 4.224 1.181 1.412 2.411 2.962 3.632 4.403 1.22 1.441 2.264 2.635 3.484 3.869 1.595 1.609 3.288 3.08 4.991 4.56 1.91 1.649 3.721 3.406 5.67 5.005a34.753 34.753 0 003.002 2.28c1.02.63 2.078 1.194 3.17 1.688a53.885 53.885 0 007.304 2.843 38.135 38.135 0 007.747 1.451c5.47.44 10.976-.075 16.271-1.52 2.687-.731 5.306-1.678 7.875-2.646l3.937-1.51c1.329-.493 2.678-.987 4.007-1.451a4.723 4.723 0 002.205-2.132c.348-.464.651-.959.905-1.481a7.388 7.388 0 00.453-1.786 18.732 18.732 0 00-.492-7.68 18.945 18.945 0 00-1.329-3.543c-.285-.563-1.132-.069-.847.493a17.794 17.794 0 011.91 7.226 16.335 16.335 0 01-.226 3.721 4.636 4.636 0 01-.542 1.609c-.295.474-.62.928-.984 1.392a3.437 3.437 0 01-.935.987c-.584.3-1.198.538-1.831.71-1.29.464-2.579.988-3.859 1.432-2.48.938-4.922 1.895-7.471 2.714a49.12 49.12 0 01-15.553 2.577 37.758 37.758 0 01-14.864-2.893 36.906 36.906 0 01-6.477-3.188 47.123 47.123 0 01-5.679-4.61c-3.121-2.833-6.389-5.488-9.234-8.607-2.451-2.705-4.675-5.617-7.058-8.39-.984-1.116-1.791-2.063-2.628-3.238a177.092 177.092 0 01-2.707-3.948c-.777-1.116-1.545-2.251-2.372-3.346l-.345-.435a2.52 2.52 0 01-.275-.365 16.844 16.844 0 01-1.044-1.974 9.015 9.015 0 01-.403-.987c0-.138-.089-.277-.128-.415v-.148a1.355 1.355 0 01.64-.987 1.22 1.22 0 01.984.158 5.91 5.91 0 011.664 1.392c.64.681 1.23 1.392 1.82 2.102a67.6 67.6 0 011.3 1.639c.305.385.984 0 .827-.474a9.073 9.073 0 00-.906-1.895c-.394-.602-.817-1.195-1.171-1.826a9.892 9.892 0 01-1.477-4.205 5.83 5.83 0 010-.987 3.47 3.47 0 01.07-.652c.245-.247.984.198 1.19.316a7.613 7.613 0 012.51 2.961 31.165 31.165 0 012.274 4.827l.896-.375c-.846-1.856-1.7-3.705-2.559-5.547a8.146 8.146 0 01-.67-1.738 10.853 10.853 0 01-.236-1.786 3.227 3.227 0 01.128-1.56c.266-.533.984-.296 1.359-.059a7.296 7.296 0 012.608 3.159c.748 1.421 1.358 2.961 2.175 4.303.237.395.985.257.916-.247-.236-2.783-1.191-5.448-1.408-8.232-.059-.701.197-1.974.985-2.171a.628.628 0 01.502.079c.189.108.362.245.512.404a11.31 11.31 0 012.116 3.751 56.023 56.023 0 011.9 5.617c.58 2.063 1.092 4.136 1.565 6.218a.494.494 0 00.492.494.494.494 0 00.492-.494c.532-1.638.709-3.356 1.142-5.024a6.092 6.092 0 012.215-3.652 2.741 2.741 0 011.575-.612c.384 0 .896.247.984.622a4.23 4.23 0 01-.138 1.49c-.128.701-.305 1.392-.462 2.083a34.48 34.48 0 00-.679 10.72 52.73 52.73 0 00.787 5.567 15.111 15.111 0 001.673 4.274 24.353 24.353 0 006.133 7.512 31.379 31.379 0 008.682 4.738 32.791 32.791 0 0019.687.622c6.625-1.777 12.698-5.183 18.506-8.766l2.185-1.362c.532-.336 0-1.184-.502-.849" fill="#335137"/><path d="M113.764 488.536a36.028 36.028 0 00-.433 5.547.325.325 0 10.65 0c-.001-1.801.137-3.6.413-5.38.069-.414-.561-.592-.63-.167z" fill="#335137"/><path d="M203.341 493.057c7.668 19.573 19.569 37.242 33.055 53.302 4.213 5.025 8.691 10 14.381 13.237a39.793 39.793 0 015.001 2.961 11.902 11.902 0 013.986 5.854c.233.572.258 1.208.069 1.796-.053.142-.135.27-.241.377a1.062 1.062 0 01-.813.319 1.062 1.062 0 01-.432-.113c-.16-.136-.294-.3-.394-.484-.896-1.471-1.801-2.961-2.697-4.392 1.909 2.744 3.888 6.04 2.884 9.229-.138.424-.394.888-.837.987-.443.099-.846-.415-1.102-.829l-4.341-6.91 2.953 5.923c.434.827.683 1.74.728 2.675a1.747 1.747 0 01-1.397 1.757c-1.123.088-1.91-1.047-2.383-2.073a15.788 15.788 0 00-3.307-5.133c2.047 2.892 4.735 8.785 3.12 9.752-1.457 1.511-7.087-5.814-8.859-9.999-.177 2.093-1.427 5.705-3.386 5.834-.817.148-.866-.474-.984-1.264-.119-.789-.266-1.609-.296-2.448-.138-3.859-.423-7.896-2.342-11.213a29.371 29.371 0 00-5.011-5.824c-7.599-7.59-18.653-18.873-23.27-28.566-2.599-5.459-4.203-6.466-7.334-11.638-2.401-3.948-1.112-9.871-2.953-14.145-.669-1.569-1.102-3.573 0-4.827.916-.987 2.412-1.066 3.711-1.421 1.3-.355 2.688-1.51 2.264-2.794" fill="#3BB87D"/><path d="M202.819 493.185a156.557 156.557 0 008.731 18.528 192.772 192.772 0 0010.828 17.343 265.18 265.18 0 0012.413 16.257c4.351 5.261 8.623 10.286 14.253 13.898 2.816 1.797 6.064 2.962 8.21 5.627a10.42 10.42 0 012.087 4.205 1.434 1.434 0 01-.109 1.155c-.147.207-.472.385-.708.207a3.955 3.955 0 01-.67-1.037l-.807-1.312c-.472-.78-.984-1.56-1.437-2.34l-.847.494c1.694 2.438 3.78 5.587 2.875 8.706-.069.227-.197.74-.512.73-.315-.01-.463-.414-.571-.582-.512-.78-.984-1.57-1.477-2.359l-2.864-4.561a.494.494 0 00-.847.494 1204.9 1204.9 0 012.117 4.264 10.374 10.374 0 011.466 3.801 1.52 1.52 0 01-.57 1.372 1.106 1.106 0 01-1.379-.297 11.883 11.883 0 01-1.762-3.138 12.655 12.655 0 00-2.529-3.495c-.394-.355-1.113.119-.778.602a24.54 24.54 0 012.717 5.054c.34.807.594 1.647.758 2.507.129.478.098.984-.089 1.442a1.105 1.105 0 01-.216.187c.049 0-.079 0 0 0 .078 0-.128 0 0 0h-.118l-.237-.069a4.697 4.697 0 01-1.299-.888 23.153 23.153 0 01-3.357-3.949 27.417 27.417 0 01-2.953-5.093c-.207-.503-.876-.178-.915.247a9.496 9.496 0 01-1.329 4.076 2.82 2.82 0 01-1.25 1.195c-.138.049-.502.168-.63.059-.128-.109-.158-.75-.177-.928-.138-1.076-.266-2.122-.315-3.198a50.914 50.914 0 00-.217-3.07 20.753 20.753 0 00-1.319-5.725c-1.477-3.652-4.518-6.248-7.225-8.973-2.54-2.556-5.06-5.133-7.511-7.778-5.059-5.34-10.05-11.065-13.554-17.58-.847-1.56-1.556-3.188-2.451-4.728a44.164 44.164 0 00-2.511-3.781c-.984-1.372-1.968-2.744-2.834-4.165a11.982 11.982 0 01-1.221-2.438 16.446 16.446 0 01-.571-2.577c-.256-1.776-.305-3.583-.512-5.359a19.905 19.905 0 00-.443-2.646c-.207-.839-.561-1.619-.837-2.438-.531-1.569-.649-3.504 1.142-4.254a22 22 0 012.55-.662 4.243 4.243 0 002.077-1.263 2.3 2.3 0 00.541-2.132.509.509 0 10-.984.266c.246.839-.502 1.501-1.172 1.876-.819.349-1.679.594-2.559.73a4.087 4.087 0 00-2.195 1.214 3.481 3.481 0 00-.778 2.3c0 1.807.985 3.406 1.359 5.143.307 1.826.511 3.668.61 5.518.09 1.797.449 3.57 1.063 5.261a25.317 25.317 0 002.953 4.768c.866 1.224 1.772 2.438 2.589 3.701a45.429 45.429 0 012.658 4.857 56.777 56.777 0 005.788 9.071c2.362 3.129 4.922 6.11 7.56 9.012s5.128 5.469 7.776 8.124c1.28 1.303 2.599 2.576 3.869 3.889a17.495 17.495 0 013.691 5.074 19.583 19.583 0 011.437 6.001c.099 1.037.158 2.093.207 3.139.049 1.046.197 2.112.335 3.178.078.632.167 1.422.905 1.619a2.287 2.287 0 001.831-.474 7.097 7.097 0 002.185-3.76c.195-.678.327-1.372.394-2.073l-.915.247a27.196 27.196 0 002.864 4.935 23.668 23.668 0 003.672 4.304c.787.691 1.968 1.678 3.041.878a2.034 2.034 0 00.67-1.569 8.019 8.019 0 00-.492-2.527 24.91 24.91 0 00-3.18-6.298l-.778.602a12.423 12.423 0 012.57 3.672c.6 1.165 1.043 2.586 2.195 3.337a1.965 1.965 0 002.953-1.086c.502-1.313-.207-2.873-.788-4.047l-2.776-5.577-.846.493 2.677 4.274 1.29 2.063a3.842 3.842 0 001.26 1.511c1.437.75 2.047-1.224 2.175-2.241a8.265 8.265 0 00-.63-4.106 22.358 22.358 0 00-2.53-4.423c-.354-.513-1.181-.049-.846.494l1.526 2.487.767 1.244c.2.377.43.737.69 1.076a1.396 1.396 0 001.821.188 1.978 1.978 0 00.797-1.974 10.161 10.161 0 00-1.87-4.413 12.822 12.822 0 00-3.515-3.356c-1.486-.987-3.11-1.708-4.626-2.616a34.7 34.7 0 01-4.184-2.961 62.54 62.54 0 01-7.274-7.265c-4.626-5.301-8.997-10.858-13.141-16.544a203.77 203.77 0 01-11.556-17.728 161.406 161.406 0 01-9.401-18.952c-.335-.809-.66-1.628-.984-2.448-.227-.582-1.182-.335-.985.257" fill="#335137"/><path d="M272.462 424.316a85.832 85.832 0 01-14.398 47.595 85.482 85.482 0 01-38.341 31.553 85.208 85.208 0 01-49.36 4.875 85.365 85.365 0 01-43.743-23.446 85.747 85.747 0 01-23.381-43.864 85.892 85.892 0 014.862-49.497 85.623 85.623 0 0131.465-38.448 85.27 85.27 0 0147.464-14.438 85.314 85.314 0 0160.41 25.092 85.795 85.795 0 0125.022 60.578z" fill="#D4AC2A"/><path d="M189.924 597.007s-.049 1.619-.128 4.343c0 1.106-.069 2.399-.118 3.84-.483 17.017-1.575 54.201-1.575 54.181 0 1.807.384 2.063-.768 4.373-1.467 2.961-5.335 6.268-15.327 6.268-13.082 0-20.021-.079-22.906-2.339a2.966 2.966 0 01.571-4.857c5.424-2.783 18.27-11.223 19.018-25.566.61-11.667 1.053-25.457 1.29-33.689 0-1.481.088-2.774.118-3.84v-.937c0-1.57.059-2.458.059-2.458a58.078 58.078 0 0019.687.671" fill="#4F745E"/><path d="M172.009 670.555c-13.575 0-20.229-.109-23.221-2.458a3.308 3.308 0 01-1.241-2.961 3.498 3.498 0 011.89-2.804c16.606-8.528 18.536-21.39 18.703-25.131.453-8.676.886-20.008 1.29-33.669l.118-3.85v-.918c0-1.579.049-2.468.049-2.468v-.513h.659a57.483 57.483 0 0019.52.651l.611-.088-.197 6.524c0 .711 0 1.481-.069 2.29-.236 8.509-.64 22.052-.985 33.472l-.6 20.285v1.392a5.706 5.706 0 01-.807 3.543l-.059.119c-1.487 2.961-5.444 6.564-15.75 6.564l.089.02zm-1.408-73.588v2.814l-.108 3.839c-.414 13.672-.847 25.003-1.3 33.7-.324 6.337-2.953 12.21-7.874 17.441a43.306 43.306 0 01-11.409 8.558 2.45 2.45 0 00-1.319 1.975 2.207 2.207 0 00.837 1.974c2.716 2.132 9.607 2.231 22.581 2.231 9.705 0 13.416-3.179 14.765-5.923v-.109a4.717 4.717 0 00.758-3.109v-.987c0-.118 1.083-36.917 1.575-54.201 0-.819 0-1.579.069-2.29l.157-5.291a59.733 59.733 0 01-18.702-.612" fill="#335137"/><path d="M235.254 666.537c-2.885 2.251-12.797 2.962-25.879 3.485-17.719.72-15.691-8.4-16.094-10.661-.06-.77-2.018-37.43-2.954-54.181l-.206-3.84-.236-4.333c10.946 1.5 16.625-.563 16.625-.563s.079 1.096.266 3.031c.089 1.036.217 2.329.364 3.82.768 7.472 2.264 20.107 4.725 33.136 4.016 13.879.827 16.633 11.242 17.126 8.465.415 13.781 11.687 12.107 12.98" fill="#4F745E"/><path d="M207.475 670.594c-5.621 0-9.647-1.105-12.009-3.287a9.086 9.086 0 01-2.629-6.909 7.593 7.593 0 00-.068-.988v-.059c-.059-.809-2.127-39.394-2.953-54.191-.079-1.441-.148-2.734-.207-3.849a506.689 506.689 0 00-.236-4.324v-.641l.63.088c10.66 1.461 16.33-.513 16.379-.533l.65-.237v.691s.079 1.096.266 3.021c.088 1.056.216 2.408.364 3.82.827 8.104 2.323 20.423 4.725 33.087 1.053 3.652 1.604 6.535 2.057 8.884 1.191 6.218 1.447 7.512 8.682 7.897 3.19.28 6.162 1.74 8.338 4.096a18.113 18.113 0 014.232 6.732c.345 1.076.601 2.487-.157 3.089-2.865 2.231-11.763 3.011-26.184 3.593-.66 0-1.299.05-1.969.05l.089-.03zm-13.761-11.262c.05.363.076.729.078 1.095.069 1.658.168 4.166 2.294 6.14 2.402 2.221 6.841 3.218 13.18 2.961 11.34-.464 22.641-1.105 25.594-3.366.069-.059.256-.582-.187-1.974-1.241-3.948-5.798-9.812-11.626-10.098-8.061-.385-8.436-2.31-9.666-8.706-.443-2.29-.984-5.143-2.047-8.795-2.412-12.743-3.938-25.102-4.745-33.235-.138-1.412-.276-2.764-.364-3.83-.089-1.066-.168-1.866-.207-2.379-1.752.474-6.979 1.57-15.602.474 0 .701.108 1.974.197 3.701.059 1.106.128 2.399.207 3.84 1.092 20.403 2.835 52.928 2.953 54.152" fill="#335137"/><path d="M206.914 599.445h-.099a89.283 89.283 0 01-16.547 1.875h-.108l-.236-4.333s-.049 1.619-.128 4.343h-2.008a92.74 92.74 0 01-17.719-1.638v-.938c0-.888.059-1.718.079-2.458.059-2.418.089-3.84.089-3.84a57.064 57.064 0 0019.539.662c10.828 1.5 16.449-.563 16.449-.563s.197 2.586.63 6.85" fill="#335137"/><path d="M204.532 486.443c0 35.437 24.107 102.134 21.951 104.464-2.156 2.329-8.466 8.153-39.148 8.153-30.682 0-36.992-5.824-39.148-8.153-2.156-2.33 21.951-69.027 21.951-104.464" fill="#4F745E"/><path d="M187.335 599.583c-31.824 0-37.622-6.268-39.532-8.321-.856-.918.256-5.301 5.011-22.15 6.693-23.69 16.803-59.591 16.803-82.669h1.043c0 23.216-10.139 59.166-16.842 82.916-3.022 10.719-5.631 19.988-5.217 21.182 4.921 5.271 17.954 7.946 38.734 7.946s33.803-2.675 38.734-7.946c.414-1.194-2.195-10.463-5.217-21.173-6.703-23.788-16.842-59.738-16.842-82.964h1.043c0 23.078 10.11 58.939 16.803 82.678 4.755 16.84 5.906 21.223 5.011 22.141-7.708 8.321-31.657 8.321-39.532 8.321" fill="#335137"/><path d="M265.099 424.335a78.036 78.036 0 01-13.084 43.272 77.717 77.717 0 01-34.853 28.688 77.46 77.46 0 01-44.874 4.436 77.595 77.595 0 01-39.769-21.312 77.938 77.938 0 01-21.258-39.876 78.078 78.078 0 014.418-44.999 77.828 77.828 0 0128.605-34.954 77.511 77.511 0 0143.149-13.126 77.473 77.473 0 0129.721 5.925 77.63 77.63 0 0125.197 16.88 77.884 77.884 0 0116.836 25.264 78.063 78.063 0 015.912 29.802z" fill="#AC8A2F"/><path d="M262.904 424.316a76.235 76.235 0 01-12.787 42.27 75.923 75.923 0 01-34.051 28.023 75.686 75.686 0 01-43.839 4.33 75.806 75.806 0 01-38.848-20.823 76.151 76.151 0 01-20.766-38.957 76.285 76.285 0 014.318-43.96 76.044 76.044 0 0127.945-34.145 75.722 75.722 0 0142.154-12.823 75.766 75.766 0 0153.651 22.285 76.191 76.191 0 0122.223 53.8z" fill="#E8D16E"/><path d="M258.524 427.05c0 38.358-32.287 69.452-72.114 69.452-39.827 0-72.114-31.094-72.114-69.452s32.287-69.451 72.114-69.451c39.827 0 72.114 31.093 72.114 69.451z" fill="#F8E876"/><path d="M125.439 403.518s15.238-17.403 36.096-15.498c0 0-22.837-6.07-36.096 15.498zm78.108-13.701s24.609-9.812 40.064 10.098c0 0-11.98-24.677-40.064-10.098zm43.686 26.809l-3.327-.098c-.502.928-12.147 22.012-32.208 20.205a25.197 25.197 0 01-16.429-8.459l-2.264.76s5.571-24.332 27.562-25.398c18.949-.908 26.715 12.971 26.715 12.971m-125.279 3.968l3.327-.099c.502.928 12.147 22.012 32.208 20.206a25.232 25.232 0 0016.429-8.46l2.264.76s-5.571-24.331-27.562-25.397c-18.949-.908-26.715 12.97-26.715 12.97" fill="#AC8A2F"/><path d="M243.916 416.508c-.502.928-12.147 22.012-32.208 20.206a25.247 25.247 0 01-16.429-8.45s7.875-20.008 24.687-21.489c16.813-1.48 23.989 9.733 23.989 9.733m-118.487 4.027l-2.028 4.097c.502.928 14.205 17.945 34.256 16.139a25.207 25.207 0 0016.429-8.46s-7.875-20.008-24.688-21.489c-16.813-1.48-23.988 9.723-23.988 9.723" fill="#fff"/><path d="M228.166 421.582a13.843 13.843 0 01-2.954 7.462 13.781 13.781 0 01-6.593 4.556c-2.598.831-5.385.87-8.005.112a13.777 13.777 0 01-6.717-4.37 13.849 13.849 0 01-1.698-15.271 13.802 13.802 0 015.592-5.746 13.749 13.749 0 017.834-1.658 13.763 13.763 0 019.343 4.859 13.843 13.843 0 013.198 10.056z" fill="#8EC45D"/><path d="M214.484 434.503c-.404 0-.808 0-1.211-.05a14.055 14.055 0 01-9.469-4.835 14.13 14.13 0 01-3.394-10.097 14.116 14.116 0 014.617-9.597 14.04 14.04 0 0119.661.801 14.13 14.13 0 01-.376 19.729 14.05 14.05 0 01-9.828 4.049zm0-27.59a13.505 13.505 0 00-9.123 3.576 13.573 13.573 0 00-4.324 8.812 13.564 13.564 0 003.145 9.873 13.474 13.474 0 0019.029 1.598 13.551 13.551 0 004.739-9.21 13.576 13.576 0 00-3.138-9.864 13.5 13.5 0 00-9.167-4.765 11.648 11.648 0 00-1.152 0" fill="#231F20"/><path d="M221.699 420.92a7.477 7.477 0 01-1.599 4.026 7.44 7.44 0 01-3.56 2.456 7.42 7.42 0 01-7.945-2.3 7.478 7.478 0 01-.92-8.242 7.428 7.428 0 0112.297-1.38 7.477 7.477 0 011.727 5.44z" fill="#221011"/><path d="M224.553 419.064c-2.795.83-5.512 0-6.044-1.826-.531-1.826 1.29-3.948 4.095-4.827 2.806-.878 5.503 0 6.044 1.836.542 1.836-1.289 3.949-4.095 4.817z" fill="#fff"/><path d="M139.791 427.119a13.835 13.835 0 003.824 7.057 13.769 13.769 0 007.092 3.732 13.74 13.74 0 007.964-.853 13.792 13.792 0 006.146-5.15 13.845 13.845 0 00-.151-15.369 13.783 13.783 0 00-6.246-5.028 13.747 13.747 0 00-7.979-.696 13.785 13.785 0 00-8.685 5.953 13.849 13.849 0 00-1.965 10.364" fill="#8EC45D"/><path d="M153.227 438.372a14.038 14.038 0 01-9.684-3.86 14.122 14.122 0 01-1.029-19.384 14.03 14.03 0 0119.25-2.035 14.1 14.1 0 015.328 8.981 14.128 14.128 0 01-2.303 10.191 14.055 14.055 0 01-11.562 6.107zm-13.18-11.302a13.541 13.541 0 003.757 6.894 13.469 13.469 0 0014.734 2.797 13.507 13.507 0 006.01-5.041 13.555 13.555 0 00-.14-15.037 13.503 13.503 0 00-6.103-4.927 13.462 13.462 0 00-7.805-.697 13.38 13.38 0 00-8.567 5.812 13.461 13.461 0 00-1.886 10.199z" fill="#231F20"/><path d="M146.14 425.678a7.455 7.455 0 002.072 3.794 7.41 7.41 0 008.113 1.534 7.43 7.43 0 003.307-2.776 7.465 7.465 0 00-3.437-10.992 7.422 7.422 0 00-9 2.831 7.461 7.461 0 00-1.055 5.609z" fill="#221011"/><path d="M142.655 424.089c2.796.839 5.503 0 6.054-1.797.551-1.796-1.28-4.007-4.075-4.846-2.796-.839-5.503 0-6.054 1.806-.551 1.806 1.28 3.948 4.075 4.837z" fill="#fff"/><path d="M122.279 427.307s11.812 14.579 29.166 14.924c17.354.346 24.176-11.953 24.176-11.953l-2.343-.484a25.295 25.295 0 01-15.297 10.384c-19.687 4.225-33.793-15.3-34.403-16.158l-1.299 3.287z" fill="#E8D16E"/><path d="M189.678 605.19c-.483 17.017-1.565 54.181-1.575 54.181a7.3 7.3 0 01-.768 4.373c.896-8.884.482-62.374.482-62.374h1.969c0 1.105-.069 2.398-.118 3.84" fill="#335137"/><path d="M181.36 434.502a16.894 16.894 0 01-2.953 8.223c-.827 1.234-2.028 2.359-2.195 3.948a4.363 4.363 0 001.673 3.643 10.268 10.268 0 004.696 1.786.67.67 0 00.807-.454.66.66 0 00-.453-.809 10.22 10.22 0 01-3.937-1.323 3.067 3.067 0 01-1.467-2.862c.182-.663.52-1.272.984-1.777.433-.563.857-1.135 1.24-1.737a20.858 20.858 0 001.969-3.85c.558-1.538.877-3.153.945-4.788.059-.839-1.25-.839-1.309 0z" fill="#AC8A2F"/><path d="M177.393 464.895c-1.25 0 3.819 8.884 8.692 9.654a5.345 5.345 0 003.071-.306 6.272 6.272 0 002.136-1.974 22.746 22.746 0 004.44-10.661.73.73 0 000-.434c-.178-.356-.719-.227-1.073 0 0 0-12.59 3.701-17.236 3.721" fill="#D3957B"/><path d="M195.259 428.284a39.136 39.136 0 018.082-13.089 27.549 27.549 0 0113.052-8.035 26.062 26.062 0 0115.297.336 26.655 26.655 0 016.891 3.534 19.899 19.899 0 015.354 5.508 18.578 18.578 0 00-2.5-2.962 24.181 24.181 0 00-2.953-2.388 26.56 26.56 0 00-6.89-3.357 25.255 25.255 0 00-7.501-1.224 15.615 15.615 0 00-1.91.06l-.984.049c-.315 0-.63.089-.985.128l-1.88.306-1.85.464a25.28 25.28 0 00-6.979 2.962 31.405 31.405 0 00-3.111 2.23 36.813 36.813 0 00-2.815 2.587 38.852 38.852 0 00-4.755 6.011 41.136 41.136 0 00-3.593 6.801m-21.951 1.56a40.555 40.555 0 00-4.38-6.318 39.125 39.125 0 00-5.444-5.399 38.04 38.04 0 00-3.11-2.231 31.583 31.583 0 00-3.347-1.836 25.248 25.248 0 00-7.294-2.122l-1.9-.247c-.63 0-1.27 0-1.9-.059h-.984l-.984.059a17.09 17.09 0 00-1.89.178 25.107 25.107 0 00-7.304 2.122 26.3 26.3 0 00-6.389 4.165 24.357 24.357 0 00-2.697 2.735 18.373 18.373 0 00-2.047 3.168 20.135 20.135 0 014.656-6.12 26.709 26.709 0 016.398-4.333 25.954 25.954 0 0115.139-2.182 27.421 27.421 0 0113.899 6.377 38.906 38.906 0 019.578 12.023" fill="#010101"/></svg>