<svg width="1920" height="1152" fill="none" xmlns="http://www.w3.org/2000/svg"><mask id="a" maskUnits="userSpaceOnUse" x="0" y="0" width="1920" height="1152"><path d="M0 0h1920v1079.53S1415.5 1152 960 1152 0 1079.53 0 1079.53V0z" fill="#FEF8E5"/></mask><g mask="url(#a)"><path d="M0 0h1920v1047.53S1415.5 1120 960 1120 0 1047.53 0 1047.53V0z" fill="#FEF8E5"/><path fill-rule="evenodd" clip-rule="evenodd" d="M1748.57 251.972c54.48-9.516 114.51-40.377 162.56-13.009 48 27.346 43.57 98.694 71.52 146.343 28.18 48.057 87.67 79.683 93.51 135.082 5.86 55.69-35.92 103.667-63.24 152.554-27.67 49.522-46.18 112.252-97.85 135.699-51.64 23.431-109.79-14.925-166.5-15.759-55.62-.818-117.39 41.742-163.69 10.904-46.98-31.297-26.82-108.288-55.49-156.907-29.05-49.274-104.15-69.784-111.62-126.491-7.32-55.655 38.92-104.761 75.57-147.293 32.7-37.938 77.23-61.068 122.48-82.543 42.35-20.098 86.57-30.512 132.75-38.58zM74.575 330.938c54.473-9.517 114.506-40.378 162.551-13.01 48.007 27.346 43.578 98.694 71.52 146.343 28.181 48.058 87.678 79.684 93.509 135.083 5.862 55.69-35.914 103.666-63.234 152.554-27.675 49.522-46.177 112.252-97.851 135.698-51.642 23.431-109.789-14.924-166.495-15.758-55.627-.818-117.397 41.741-163.691 10.904-46.984-31.297-26.824-108.289-55.493-156.908-29.055-49.273-104.152-69.783-111.618-126.49-7.327-55.655 38.922-104.761 75.572-147.293 32.691-37.938 77.226-61.069 122.477-82.543 42.35-20.098 86.57-30.512 132.753-38.58z" fill="#FAF0D0"/><path d="M1691 181.921c-3.11-12.379-15.22-21.624-29.68-21.624-2.59.006-5.18.31-7.69.905a44.959 44.959 0 00-16.95-17.473 45.667 45.667 0 00-23.69-6.181c-4.54-.005-9.05.619-13.41 1.853a56.095 56.095 0 00-20.47-18.081 56.868 56.868 0 00-26.7-6.367c-23.92 0-44.26 13.857-51.97 33.274a40.641 40.641 0 00-18.44-4.413c-20.97 0-38 15.446-38 34.687 0 1.125 0 2.206.18 3.376l246.82.044zM210 368.84c-3.107-12.379-15.222-21.624-29.685-21.624-2.59.006-5.17.309-7.689.905a44.893 44.893 0 00-16.946-17.473 45.68 45.68 0 00-23.692-6.182 49.108 49.108 0 00-13.412 1.854 56.041 56.041 0 00-20.466-18.081 56.887 56.887 0 00-26.698-6.368c-23.918 0-44.26 13.858-51.97 33.275A40.668 40.668 0 001 330.733c-20.967 0-38 15.446-38 34.687 0 1.125 0 2.206.179 3.376L210 368.84zm1489-30.987c3.64-14.781 17.87-25.806 34.75-25.806 3.01.007 6.01.37 8.93 1.08a53.05 53.05 0 0119.82-20.866 52.5 52.5 0 0127.71-7.369c5.29.004 10.56.761 15.64 2.249a65.868 65.868 0 0124.02-21.676 65.416 65.416 0 0131.36-7.572c27.97 0 51.8 16.559 60.82 39.733a46.782 46.782 0 0121.57-5.22c24.57 0 44.38 18.539 44.38 41.42 0 1.345-.07 2.689-.2 4.027H1699z" fill="#fff"/><path d="M242.797 232.902a34.163 34.163 0 0011.38-6.985 13.656 13.656 0 004.552-6.825 6.35 6.35 0 00-3.073-7.075 6.58 6.58 0 00-7.192 2.047 17.193 17.193 0 00-3.346 7.167 116.431 116.431 0 00-2.549 11.83l.228-.159zm22.009 36.787c5.281.887 10.811 1.752 15.932 0 2.868-.978 5.759-3.481 5.19-6.438a5.074 5.074 0 00-4.552-3.709 11.217 11.217 0 00-6.055 1.456 29.602 29.602 0 00-10.333 8.532l-.182.159zm-40.172 74.622c0 5.346 0 10.943 2.435 15.675 1.412 2.662 4.325 5.142 7.17 4.118a5.12 5.12 0 002.959-5.119 11.018 11.018 0 00-2.276-5.756 29.594 29.594 0 00-10.037-8.873l-.251-.045zm-96.322-111.955a33.76 33.76 0 00-7.284-11.171 13.654 13.654 0 00-6.987-4.277 6.335 6.335 0 00-4.066.478 6.332 6.332 0 00-2.921 2.866 6.546 6.546 0 002.276 7.144 17.66 17.66 0 007.26 3.162c3.869.979 7.966 1.638 11.927 2.275l-.205-.477zm32.866-22.66c.925-4.392.964-8.925.114-13.332a13.42 13.42 0 00-3.483-7.417 6.328 6.328 0 00-7.602-1.16 6.55 6.55 0 00-2.094 7.189 17.519 17.519 0 004.302 6.643c2.686 2.935 5.736 5.756 8.695 8.441l.068-.364zm46.09-5.801c2.686-4.551 5.44-9.51 5.599-14.857 0-3.003-1.229-6.597-4.188-7.098a5.145 5.145 0 00-5.121 2.981 11.375 11.375 0 00-.751 6.211 29.556 29.556 0 004.37 12.649l.091.114zm47.501 105.084a33.382 33.382 0 009.354 9.465 13.66 13.66 0 007.716 2.775 6.349 6.349 0 006.191-4.55 6.531 6.531 0 00-3.596-6.552 17.375 17.375 0 00-7.762-1.638 120.032 120.032 0 00-12.131.227l.228.273zm-67.622 46.138a34.126 34.126 0 00-4.552 12.559 13.649 13.649 0 00.865 8.167 6.373 6.373 0 006.828 3.572 6.574 6.574 0 004.325-6.097 17.288 17.288 0 00-1.889-7.69c-1.571-3.663-3.551-7.326-5.486-10.829l-.091.318zm-36.826-12.171a34.012 34.012 0 00-11.79 6.234 13.652 13.652 0 00-4.893 6.575 6.35 6.35 0 002.617 7.234 6.555 6.555 0 007.306-1.547 17.605 17.605 0 003.824-6.939c1.32-3.754 2.276-7.78 3.3-11.648l-.364.091zm-39.854-70.777a33.453 33.453 0 00-11.38-7.007 13.665 13.665 0 00-8.148-.865A6.35 6.35 0 0086 270.212a6.553 6.553 0 005.053 5.506 17.31 17.31 0 007.92-.25 115.263 115.263 0 0011.722-3.072l-.228-.227zm8.445 41.656c-5.326-.273-10.925-.523-15.773 1.752-2.709 1.297-5.326 4.118-4.416 6.984a5.165 5.165 0 004.985 3.185 11.382 11.382 0 005.872-2.138 29.59 29.59 0 009.286-9.646l.046-.137z" fill="#FFD530"/><path d="M162.52 215.93c21.577-8.873 65.596-8.805 85.58 36.605 19.983 45.41-9.491 74.599-29.111 84.177-19.619 9.578-70.557 16.927-92.157-25.207-21.599-42.134 5.963-83.427 35.688-95.666" fill="#FFE96B"/></g></svg>