<svg width="1920" height="1060" fill="none" xmlns="http://www.w3.org/2000/svg"><mask id="a" maskUnits="userSpaceOnUse" x="0" y="0" width="1920" height="1060"><path d="M0 0h1920v1060s-651.5-40-960-40-960 40-960 40V0z" fill="#E7F2F0"/></mask><g mask="url(#a)"><path fill="#E7F2F0" d="M0 0h1920v1023H0z"/><path d="M2152.25 882.008c-76.31-28.305-156.67-35.027-235.3-19.682-114.8 22.475-225.12 91.876-340.53 73.125-20.2-3.278-40.15-9.347-57.84-20.284-31.54-19.546-53.84-54.489-60.73-92.534-3.21-17.704-3.08-36.611 3.8-53.074 5.22-12.43 14.01-22.726 22.65-32.771 25.37-29.533 51.12-59.667 67.15-95.812 16.03-36.145 21.12-79.95 4.39-115.746-22.16-47.373-75.1-68.858-106-110.375-34.69-46.538-36.79-110.956-35.6-170.332.27-13.826 3.47-28.705 6.87-40.45 0 0 23.39-66.086 66.89-90.594 43.5-24.507 236.41-68.956 382.87-34.15 46.62 11.073 92.81 29.689 128.77 63.042 39.47 36.591 63.85 88.365 79.94 141.303 61.57 202.56 14.62 432.889 96.42 627.227" fill="#D6EEEC"/><path d="M2025.88 1025.38s-77.65-386.272-325.71-394.814c-83.3-2.834-520.67-97.102-766.67 43.398S613.979 991.393 573 1025.38h1452.88z" fill="#9DBEAA"/><path d="M247.975 14.116c26.525 27.44 28.291 37.255 28.891 68.1 1.937 99.99-172.348 140.623-173.04 227.023-.738 91.361 193.459 126.299 194.781 224.918 1.077 80.474-127.619 105.915-126.174 181.814 1.768 97.017 212.833 103.561 288.774 306.609 13.546 36.19 33.074 88.43 16.329 129.33-50.017 122.59-417.5 127.94-594.815-113.06C-324.361 757.434-246.651 174.292-7.895 29.134c87.15-52.987 229.344-42.458 255.87-15.018z" fill="#D6EEEC"/><path d="M-73.608 1084.85s-64.273-452.665 366.766-452.665 544.494-137.666 870.332 0c325.84 137.665 325.84 419.825 325.84 419.825l-1562.938 32.84z" fill="#92B19D"/><path d="M1689.61 827.162c9.54-14.903 11.31-32.885 11.13-45.362-.08-7.998-1-15.965-2.73-23.772l.69-.245a115.422 115.422 0 012.75 23.935c.19 12.6-1.61 30.765-11.25 45.852l-.59-.408z" fill="#49745B"/><path d="M1695.66 755.561a10.17 10.17 0 003.55 7.217 11.713 11.713 0 002.36-8.155 10.276 10.276 0 00-1.02-3.96 10.31 10.31 0 00-2.5-3.237 11.832 11.832 0 00-2.39 8.155m6.45 7.054a11.796 11.796 0 00-1.6 8.278 10.705 10.705 0 006.49-4.975 11.688 11.688 0 001.61-8.277 10.72 10.72 0 00-6.5 4.974zm3.67 8.359a11.45 11.45 0 00-4.88 6.81 9.446 9.446 0 007.69-1.366 11.502 11.502 0 004.87-6.81 9.434 9.434 0 00-7.68 1.366zm-1.04 11.54a8.297 8.297 0 00-2.42 2.602c-.62 1.031-1 2.18-1.13 3.371 1.02.455 2.14.644 3.26.551a6.652 6.652 0 003.12-1.081 8.262 8.262 0 002.43-2.598 8.293 8.293 0 001.14-3.375 6.717 6.717 0 00-3.27-.552c-1.12.093-2.2.465-3.13 1.082z" fill="#49745B"/><path d="M1485.61 943.463s-68.92-72.653-107.97-80.556c-39.06-7.903 1.98 36.489 1.98 36.489s-75.13-65.401-98.9-56.034c-21.79 8.618 5.85 51.319 5.85 51.319s-28.16-22.18-58.86-18.668c-30.7 3.513 34.44 91.061 34.44 91.061l223.46-23.611z" fill="#66A480"/><path d="M1292.66 965.187s-53.4-104.719-102.61-86.279c-39.87 14.927-4.39 66.636-7.19 64.425-2.79-2.212-29.07-37.075-64.68-33.009-35.61 4.065 16.68 49.172 16.68 49.172s-78.6-15.025-81.69 10.537c-2.57 21.237 25.17 19.513 25.17 19.513l214.32-24.359zm69.14-120.46c-14.51-17.821-19.51-40.814-21.08-56.945a150.96 150.96 0 010-31.09l-.94-.228a154.614 154.614 0 000 31.318c1.59 16.261 6.51 39.514 21.3 57.563l.72-.618z" fill="#49745B"/><path d="M1343.42 753.147c.1 1.778-.17 3.556-.77 5.232a13.26 13.26 0 01-2.74 4.524 15.277 15.277 0 01-4.26-10.147c-.11-1.78.14-3.564.74-5.243a13.15 13.15 0 012.77-4.513 15.4 15.4 0 014.26 10.147zm-7.28 10.081a15.181 15.181 0 013.25 10.472 14.034 14.034 0 01-9.11-5.496 15.067 15.067 0 01-3.25-10.472c3.64.565 6.91 2.539 9.11 5.496zm-3.48 11.286a14.855 14.855 0 017.28 8.065 12.143 12.143 0 01-10.14-.618 14.87 14.87 0 01-7.29-8.098c1.64-.619 3.4-.882 5.15-.77 1.74.113 3.45.597 5 1.421zm3.15 14.797c1.38.731 2.58 1.752 3.52 2.993a10.743 10.743 0 011.95 4.194 8.694 8.694 0 01-8.33.26 10.691 10.691 0 01-3.52-2.993 10.724 10.724 0 01-1.94-4.194 8.656 8.656 0 014.13-1.194 8.68 8.68 0 014.19.934zm8.59-18.96a10.68 10.68 0 018.84-1.529 11.108 11.108 0 01-1.54 4.424 11.205 11.205 0 01-3.2 3.414 10.477 10.477 0 01-8.85 1.528c.2-1.565.73-3.071 1.55-4.421.81-1.349 1.9-2.513 3.2-3.416zm.88 10.504a10.622 10.622 0 018.81-1.528 11.114 11.114 0 01-4.75 7.837 10.408 10.408 0 01-4.23 1.76c-1.53.264-3.09.185-4.58-.231.19-1.567.72-3.075 1.54-4.426a11.11 11.11 0 013.21-3.412zm-5.73 24.684c.77.097 1.51.353 2.18.75a5.56 5.56 0 011.69 1.559c-.5.53-1.12.936-1.81 1.184a4.72 4.72 0 01-2.15.247 5.556 5.556 0 01-3.87-2.342 4.577 4.577 0 013.96-1.398zm18.74 53.368c-28.98-3.512-52.85-21.919-67.78-36.717a190.471 190.471 0 01-25.79-31.676l-1.07.716a191.459 191.459 0 0026.01 31.903c15.09 14.96 39.19 33.53 68.53 37.108l.1-1.334z" fill="#49745B"/><path d="M1264.4 784.107a18.91 18.91 0 013.71 6.36c.8 2.345 1.13 4.826.97 7.299-2.4-.074-4.75-.648-6.91-1.684a17.158 17.158 0 01-5.64-4.332 18.734 18.734 0 01-4.72-13.562c2.4.075 4.75.649 6.91 1.685a17.248 17.248 0 015.64 4.332m1.47 17.594c2.37.343 4.66 1.172 6.7 2.437a17.539 17.539 0 015.17 4.913 17.224 17.224 0 01-6.33 3.24c-2.32.627-4.74.764-7.1.402a17.367 17.367 0 01-6.72-2.431 17.459 17.459 0 01-5.19-4.919 17.44 17.44 0 016.35-3.229c2.32-.627 4.74-.767 7.12-.413zm5.75 15.025a17.036 17.036 0 0113.86.878 18.266 18.266 0 01-4.25 5.853 18.32 18.32 0 01-6.19 3.741c-2.24.829-4.63 1.18-7.01 1.029a17 17 0 01-6.81-1.907c.99-2.22 2.43-4.215 4.22-5.864a17.904 17.904 0 016.18-3.73zm12.85 12.814a17.025 17.025 0 0113.82.878c-1 2.22-2.43 4.214-4.22 5.863a17.949 17.949 0 01-6.19 3.731 16.772 16.772 0 01-13.82-.879c1-2.216 2.44-4.209 4.23-5.857a18.09 18.09 0 016.18-3.736zm-6.02-23.058a18.42 18.42 0 012.57-13.009 16.106 16.106 0 016.51 10.83c.79 4.505-.13 9.143-2.57 13.009a15.945 15.945 0 01-4.37-4.746 15.935 15.935 0 01-2.14-6.084zm13.43 13.301c-.84-4.481.01-9.115 2.38-13.009a15.967 15.967 0 014.48 4.651 16.003 16.003 0 012.25 6.049c.86 4.48.01 9.119-2.37 13.009a16.085 16.085 0 01-4.47-4.659 16.013 16.013 0 01-2.27-6.041zm12.23 21.562a6.915 6.915 0 012.67-1.407 6.88 6.88 0 013.02-.122 7.485 7.485 0 01-.79 3.004 7.483 7.483 0 01-1.94 2.427 6.845 6.845 0 01-5.69 1.529 7.508 7.508 0 012.73-5.431zm133.37 48.749l1.21-.195c-5.43-32.066 2.92-63.742 10.92-84.556a216.596 216.596 0 0118.83-38.212l-1-.814a217.711 217.711 0 00-18.96 38.441c-8.04 21.106-16.49 53.108-11 85.467" fill="#49745B"/><path d="M1473.48 764.594a16.944 16.944 0 01-9.76 9.757 23.57 23.57 0 011.37-15.415 16.848 16.848 0 019.75-9.757 23.631 23.631 0 01-1.36 15.415zm-14.25 7.383a23.146 23.146 0 01-2.63 15.122 20.573 20.573 0 01-6.9-13.008 23.315 23.315 0 012.67-15.155 20.614 20.614 0 016.86 13.008m-10.73 11.448a23.233 23.233 0 013.25 15.025 15.977 15.977 0 01-6.35-2.704 16.043 16.043 0 01-4.61-5.134 23.296 23.296 0 01-3.25-15.025 15.928 15.928 0 0110.96 7.838zm-5.3 25.692a9.829 9.829 0 011.79 6.212 6.538 6.538 0 01-4.82-2.927 9.54 9.54 0 01-1.78-6.179c.96.092 1.9.4 2.73.901.83.5 1.54 1.182 2.08 1.993zm-2.5 9.301a9.793 9.793 0 011.78 6.179 6.5 6.5 0 01-2.73-.901 6.596 6.596 0 01-2.08-1.993 9.74 9.74 0 01-1.79-6.179c.97.092 1.9.4 2.74.901a6.596 6.596 0 012.08 1.993zm23.51-31.904c1.99-.2 3.99.069 5.86.787a12.76 12.76 0 014.87 3.344 13.624 13.624 0 01-4.28 4.317 13.673 13.673 0 01-5.74 2.024c-2 .19-4.03-.097-5.91-.837a12.77 12.77 0 01-4.88-3.423 13.68 13.68 0 0110.05-6.342m-5.34 13.464a13.004 13.004 0 0110.8 4.293 13.622 13.622 0 01-4.3 4.303 13.688 13.688 0 01-5.75 2.006c-2.01.174-4.03-.12-5.9-.859a13.074 13.074 0 01-4.9-3.401 13.83 13.83 0 0110.05-6.342zm-9.2 18.407a8.418 8.418 0 017.02 2.797 8.951 8.951 0 01-2.79 2.793 8.996 8.996 0 01-3.71 1.337 8.372 8.372 0 01-3.84-.566 8.51 8.51 0 01-3.19-2.23 9.156 9.156 0 012.79-2.793 9.106 9.106 0 013.72-1.338z" fill="#49745B"/><path d="M1338.35 955.073c-.59-5.366 32.52-2.732 34.41-10.342 1.88-7.61-28.65-4.585-29.79-14.472-1.14-9.886 15.19-4.715 24.29-5.756 9.11-1.041-18.44-2.179-18.86-5.691-.42-3.513 9.3-2.765 8.88-6.505-.43-3.74-50.61-.813-45.83-10.569 4.79-9.757 32.98-1.106 39.81-6.504 6.83-5.399-40.46-5.366-42.28-12.228-1.82-6.863 35.09 2.081 39.58-3.545 4.49-5.627-58.9-16.716-57.82-30.31 1.07-13.594 48.36 11.74 58.96 7.219 10.6-4.52-61.11-43.741-47.84-63.677 13.27-19.936 51.77 55.092 61.53 51.124 9.76-3.968-18.24-48.099-8.91-57.401 9.33-9.301 47.19 61.271 50.77 76.264 3.57 14.992 1.88-33.303 17.33-40.75 15.45-7.447 3.84 29.595 7.87 40.002 4.03 10.406 12.72-29.27 30.67-28.554 17.95.715-27.55 41.432-21.47 51.156 6.09 9.724 39.19-39.221 52.53-28.619 13.33 10.602-40.98 50.473-36.79 59.189 4.2 8.716 37.24-10.829 48.4-1.951 11.15 8.878-35.52 20.651-41.79 21.367-6.28.715-29.27 11.35-6.12 7.122 23.16-4.228-117.08 18.797-117.53 13.431z" fill="#49745B"/><path d="M1431.46 950.715s39.28-2.374 49.82-10.829c10.54-8.456.94-13.009.94-13.009s36.01-4.911 34.93-13.464a8.178 8.178 0 00-1.06-3.185 8.206 8.206 0 00-2.26-2.483 8.167 8.167 0 00-3.08-1.357 8.115 8.115 0 00-3.35 0s16.81-14.472 12.52-21.789c-6.51-11.285-33.89 12.748-33.89 12.748s8.42-12.65.23-14.439c-22.41-4.976-54.8 67.775-54.8 67.775" fill="#66A480"/><path d="M1696.42 768.813a8.188 8.188 0 00-3.39-.964 8.122 8.122 0 00-3.48.556 8.59 8.59 0 001.55 3.251 8.65 8.65 0 002.75 2.335 8.12 8.12 0 003.39.965c1.19.07 2.37-.12 3.48-.557a8.61 8.61 0 00-1.55-3.259 8.526 8.526 0 00-2.75-2.327zm.16 7.992a8.144 8.144 0 00-6.87-.388 8.711 8.711 0 001.56 3.241 8.584 8.584 0 002.74 2.325 8.15 8.15 0 006.89.408 8.623 8.623 0 00-1.57-3.251 8.65 8.65 0 00-2.75-2.335zm6.63 18.451a4.4 4.4 0 00-1.59.739c-.47.35-.87.792-1.17 1.299.44.358.95.61 1.5.738.55.127 1.12.126 1.66-.004a4.4 4.4 0 001.59-.739c.47-.35.87-.792 1.17-1.299a3.69 3.69 0 00-1.5-.738 3.622 3.622 0 00-1.66.004zm-9.67 42.426c21.84-5.219 38.47-21.346 48.59-33.966a146.515 146.515 0 0016.94-26.503l.87.448a145.403 145.403 0 01-17.04 26.647c-10.19 12.742-27.03 29.052-49.11 34.332l-.25-.958z" fill="#49745B"/><path d="M1758.76 772.401a14.532 14.532 0 00-2.42 10.765 13.28 13.28 0 005.14-1.882c1.56-.98 2.9-2.277 3.93-3.806a14.49 14.49 0 002.35-5.128c.43-1.848.49-3.765.18-5.637a13.2 13.2 0 00-5.14 1.885c-1.56.98-2.9 2.275-3.94 3.803m.49 13.578a13.391 13.391 0 00-4.93 2.432 13.409 13.409 0 00-3.53 4.214 13.53 13.53 0 0015.52-.86 13.566 13.566 0 003.53-4.196 13.21 13.21 0 00-10.59-1.59zm-3.24 11.988a12.945 12.945 0 00-10.48 1.876 13.937 13.937 0 008.79 6.422 13.173 13.173 0 0010.5-1.876 13.815 13.815 0 00-3.75-4.114 13.779 13.779 0 00-5.06-2.308z" fill="#49745B"/><path d="M946 1018.56c215.95-14.8 478.52-157.497 667.57-174.786 192.75-17.615 390.87 271.296 390.87 271.296L946 1113.36v-94.8z" fill="#82A890"/><path d="M1747.43 808.854a13.145 13.145 0 00-10.5 1.876c.95 1.61 2.23 3.01 3.74 4.114a13.929 13.929 0 005.06 2.308c1.78.448 3.64.512 5.45.189 1.8-.323 3.52-1.027 5.03-2.065a13.953 13.953 0 00-8.78-6.422zm2.59-18.124c.21-3.508-.9-6.969-3.1-9.705a12.34 12.34 0 00-2.96 3.991 12.255 12.255 0 00-1.12 4.837c-.22 3.514.89 6.983 3.1 9.725a12.359 12.359 0 002.96-4.001c.7-1.522 1.08-3.172 1.12-4.847zm-9.08 11.274c.28-3.511-.78-6.996-2.95-9.766a12.458 12.458 0 00-3.01 3.952 12.386 12.386 0 00-1.21 4.815c-.26 3.512.8 6.995 2.97 9.766a12.099 12.099 0 003.01-3.949 12.2 12.2 0 001.19-4.818zm-7.48 17.615a5.391 5.391 0 00-4.48-.694c.12.799.41 1.562.85 2.24a5.809 5.809 0 001.69 1.695 5.377 5.377 0 004.49.673 5.787 5.787 0 00-.87-2.224 5.734 5.734 0 00-1.68-1.69zm-97.68 48.889h-.93c1.34-24.954-7.81-48.441-15.74-63.752a164.742 164.742 0 00-17.74-27.645l.69-.714a165.956 165.956 0 0117.86 27.707c7.99 15.454 17.23 39.144 15.86 64.363" fill="#49745B"/><path d="M1597.27 775.704a13.202 13.202 0 003.51 4.142 13.176 13.176 0 004.89 2.362 18.23 18.23 0 00-2.4-11.662 13.182 13.182 0 00-3.5-4.139 13.185 13.185 0 00-4.88-2.365c-.53 4.045.31 8.148 2.38 11.662zm11.64 4.363c-.21 4.049.97 8.049 3.35 11.335a15.785 15.785 0 004.07-10.581c.21-4.054-.97-8.057-3.34-11.356a15.903 15.903 0 00-4.08 10.602zm9.1 7.788a17.87 17.87 0 00-1.19 11.764 12.213 12.213 0 004.62-2.622 12.163 12.163 0 003.07-4.331 17.805 17.805 0 001.18-11.743 12.229 12.229 0 00-7.68 6.932zm6.3 19.185c-.82 1.484-1.11 3.203-.82 4.872a5.17 5.17 0 002.01-.934 5.185 5.185 0 001.42-1.696 7.56 7.56 0 00.81-4.893 5.06 5.06 0 00-2.01.94 4.975 4.975 0 00-1.41 1.711zm2.73 6.87a7.638 7.638 0 00-.84 4.893 4.933 4.933 0 002.02-.933 5.082 5.082 0 001.41-1.717 7.32 7.32 0 00.83-4.873c-.73.157-1.41.475-2.01.929a5.045 5.045 0 00-1.41 1.701zm-20.74-22.324a9.873 9.873 0 00-4.43 1.162 9.962 9.962 0 00-3.44 3.038 10.536 10.536 0 008.16 3.975 9.867 9.867 0 004.43-1.164 9.868 9.868 0 003.44-3.036 10.582 10.582 0 00-3.63-2.91 10.565 10.565 0 00-4.53-1.065zm5.24 9.725a9.911 9.911 0 00-4.44 1.171 10.015 10.015 0 00-3.45 3.049 10.692 10.692 0 003.64 2.895 10.56 10.56 0 004.52 1.06 9.859 9.859 0 004.44-1.158 9.911 9.911 0 003.43-3.042 10.567 10.567 0 00-8.16-3.975m8.67 13.272a6.432 6.432 0 00-2.9.751 6.433 6.433 0 00-2.24 1.981 6.792 6.792 0 002.39 1.898c.93.445 1.94.675 2.97.671 1.01-.016 2-.271 2.89-.747a6.306 6.306 0 002.23-1.985 6.774 6.774 0 00-2.38-1.9 6.746 6.746 0 00-2.96-.669z" fill="#49745B"/><path d="M1717.15 909.426c0-4.077-25.08.754-27.18-4.913-2.1-5.668 21.49-5.974 21.49-13.64 0-7.665-12-2.283-19.06-2.283-7.05 0 13.93-3.282 13.93-5.994 0-2.712-7.36-1.284-7.36-4.077 0-2.794 38.61-5.057 34.08-12.09-4.52-7.034-25.28 2.038-30.96-1.591-5.69-3.629 30.43-7.625 31.33-13.048.9-5.423-26.63 4.649-30.58.755-3.96-3.894 43.53-17.921 41.53-28.217-2-10.295-35.94 13.191-44.43 10.663-8.48-2.528 42.82-38.736 30.89-52.763-11.93-14.027-34.66 46.626-42.47 44.445-7.8-2.182 9.75-38.349 1.8-44.649-7.95-6.3-30.71 50.969-32.15 62.712-1.45 11.744-4.33-25.28-16.78-29.623-12.46-4.342-.37 22.957-2.53 31.254-2.16 8.298-12.23-21.305-25.93-19.144-13.7 2.161 24.67 29.277 20.87 37.208-3.79 7.93-33.37-26.504-42.65-17.269-9.27 9.236 35.64 34.985 33.17 42.04-2.46 7.054-29.37-5.036-37.14 2.732-7.77 7.767 28.95 12.66 33.8 12.66 4.85 0 23.47 6.117 5.3 4.914-18.16-1.203 90.97 4.077 90.97 0" fill="#49745B"/><path d="M1645.61 914.238s-30.21 1.61-39-3.915-1.86-9.847-1.86-9.847-27.95-.612-27.87-7.238c.09-6.626 6.83-6.238 6.83-6.238s-14.08-9.582-11.45-15.556c4.07-9.174 27.01 6.809 27.01 6.809s-7.54-8.95-1.45-11.029c16.7-5.75 47.79 47.014 47.79 47.014z" fill="#66A480"/><path d="M1572.22 871.444c-2.63 5.974 11.45 15.556 11.45 15.556s-10.19-.143-8.52 6.299c1.67 6.443 27.24 8.584 27.24 8.584s-8.93 1.753-.14 7.278c8.78 5.525 43.36 5.077 43.36 5.077l-73.39-42.794z" fill="#9DBEAA"/><path d="M1403.14 302.56a15.428 15.428 0 00-5.68-8.215 15.4 15.4 0 00-9.53-2.998c-1.33-.001-2.66.156-3.95.469a23.188 23.188 0 00-8.69-9.046 23.134 23.134 0 00-12.13-3.187 25.14 25.14 0 00-6.85.959 28.894 28.894 0 00-24.28-12.702 28.34 28.34 0 00-15.97 4.56 28.374 28.374 0 00-10.68 12.729 20.746 20.746 0 00-9.46-2.263c-10.72 0-19.43 8.155-19.43 18.022-.03.578-.03 1.156 0 1.733l126.65-.061zm-182.26-93.599c-2.84-11.438-13.89-19.96-27.08-19.96-2.37-.004-4.73.277-7.03.836a41.18 41.18 0 00-15.45-16.145 41.189 41.189 0 00-21.6-5.71c-4.13-.016-8.25.56-12.23 1.712a51.266 51.266 0 00-18.7-16.795 51.322 51.322 0 00-24.44-5.896c-21.79 0-40.35 12.824-47.4 30.765a36.586 36.586 0 00-16.82-4.078c-19.1 0-34.659 14.272-34.659 32.05a26.09 26.09 0 00.163 3.099l225.246.122z" fill="#fff"/><path d="M1921.44 832.058l8.83-18.145c6.28-13.558 1.02-29.358-11.75-35.271-32.19-14.903-71.13.734-86.95 34.924l-11.58 25.016a31.713 31.713 0 01-26.01 18.593 27.968 27.968 0 00-13.64 5.177 28.023 28.023 0 00-9.18 11.337l-6.11 13.171a52.76 52.76 0 00-4.93 22.137 52.97 52.97 0 004.8 22.165 31.929 31.929 0 012.83 13.473 32.107 32.107 0 01-3.07 13.418l-8.64 18.655c-9.57 20.632-1.55 44.652 17.88 53.642l11.07 5.14c19.43 8.99 42.81-.45 52.45-21.09 8.89-27.539 23.57-38.997 36.46-43.482a75.414 75.414 0 0025.8-15.371 75.236 75.236 0 0017.76-24.222l1.23-2.65a74.852 74.852 0 007-30.76 74.728 74.728 0 00-6.29-30.913c-3.77-8.522-4.75-20.041 2.04-34.903" fill="#49745B"/><path d="M1617.07 1056.97s64.1-85.137 104.44-98.186c40.35-13.048 2.33 38.737 2.33 38.737s69.64-95.027 95.82-87.973c24.08 6.484 14.27 54.456 14.27 54.456s14.74-9.521 47.61-9.521c32.86 0-25.41 100.567-25.41 100.567l-239.06 1.92z" fill="#66A480"/><path d="M1771.89 1056.42s31.44-84.098 70.38-74.373c31.56 7.89 9.13 50.193 11.05 48.273 1.92-1.91 18.86-30.577 46.24-30.577 27.38 0-8.4 38.737-8.4 38.737s58.35-18.23 62.92.92c3.79 15.88-17.42 17.06-17.42 17.06l-164.77-.04zm-203.75-25.83c-.3-1.72-.45-3.46-.45-5.2 0-19.73 18.51-35.739 41.33-35.739 22.81 0 41.3 16.009 41.3 35.739 0 1.74-.14 3.48-.43 5.2h-81.75z" fill="#49745B"/><path d="M1521.25 1021.76c-.29-2.44-.43-4.9-.43-7.36 0-27.827 18.49-50.396 41.3-50.396 22.82 0 41.33 22.569 41.33 50.396 0 2.46-.14 4.92-.43 7.36h-81.77z" fill="#66A480"/><path d="M1536.46 1052.69c.3-1.72.45-3.46.44-5.2 0-19.73-18.49-35.74-41.32-35.74-22.83 0-41.31 16.01-41.31 35.74 0 1.74.14 3.48.43 5.2h81.76z" fill="#66A480"/><path d="M1602.59 1052.69c.37-2.43.56-4.88.55-7.34 0-27.83-23.44-50.398-52.37-50.398-28.93 0-52.38 22.568-52.38 50.398 0 2.46.18 4.91.55 7.34h103.65z" fill="#49745B"/><path d="M1562.37 994.952c7 .062 13.88 1.752 20.12 4.937a45.094 45.094 0 0115.78 13.411c4.5-1.06 9.1-1.6 13.72-1.59 25.67 0 46.49 16 46.49 35.74 0 1.74-.17 3.49-.49 5.2h-141.6c-.32-2.43-.49-4.89-.48-7.34 0-27.83 20.79-50.399 46.46-50.399" fill="#66A480"/><path d="M55.786 886.877l-7.156-14.699c-5.097-10.989-.836-23.792 9.521-28.543 26.096-12.069 57.636.592 70.46 28.298l9.378 20.266a25.737 25.737 0 0021.101 15.066 22.711 22.711 0 0118.471 13.395l4.955 10.683a42.814 42.814 0 010 35.882 26.101 26.101 0 00.203 21.794l7.014 15.131c7.727 16.71 1.243 36.16-14.496 43.44l-8.97 4.08c-15.74 7.3-34.782-.35-42.508-17.06-7.197-22.43-19.104-31.63-29.563-35.234a61.156 61.156 0 01-35.29-32.11l-1-2.039a60.77 60.77 0 01-.489-50.072c3.058-6.911 3.853-16.31-1.712-28.278" fill="#9DBEAA"/><path d="M383.476 1055.91s-51.927-68.99-84.629-79.51c-32.702-10.52-1.876 31.44-1.876 31.44s-57.982-63.551-79.267-57.741c-19.51 5.24 0 44.547 0 44.547s-21.977-21.814-48.604-21.814c-26.626 0 20.592 81.548 20.592 81.548l193.784 1.53z" fill="#66A480"/><path d="M216.033 1055.52s-35.515-94.921-79.491-83.973c-35.618 8.909-10.194 56.673-12.457 54.513-2.263-2.16-21.285-34.655-52.213-34.655s9.48 43.755 9.48 43.755-65.872-20.57-71.03 1.04c-4.282 17.94 19.654 19.26 19.654 19.26l186.057.06zm71.03-96.43c-10.683-16.717-12.681-36.881-12.477-50.969a130.79 130.79 0 013.017-26.544l-.775-.286a132.387 132.387 0 00-3.078 26.851c-.224 14.108 1.794 34.496 12.62 51.417l.693-.469z" fill="#49745B"/><path d="M280.274 878.804a11.366 11.366 0 01-4.077 8.155 13.27 13.27 0 01-2.651-9.093 11.47 11.47 0 014.078-8.155 13.193 13.193 0 012.65 9.113m-7.217 7.911a13.15 13.15 0 011.794 9.276 11.944 11.944 0 01-7.279-5.566 13.112 13.112 0 01-1.794-9.358 11.995 11.995 0 017.279 5.586m-4.098 9.379a12.927 12.927 0 015.464 7.645 10.543 10.543 0 01-8.644-1.529 12.925 12.925 0 01-5.464-7.645 10.63 10.63 0 014.487-.171c1.491.264 2.908.844 4.157 1.7zm1.264 12.987a9.52 9.52 0 014.078 6.707 7.468 7.468 0 01-7.177-.591 9.44 9.44 0 01-4.077-6.687 7.533 7.533 0 013.661-.629c1.253.1 2.462.513 3.515 1.2zm9.215-15.393a9.16 9.16 0 017.707-.448 9.672 9.672 0 01-4.832 6.238 9.017 9.017 0 01-7.707.449 9.711 9.711 0 014.832-6.259m-.285 8.991a9.185 9.185 0 017.727-.449 9.777 9.777 0 01-4.832 6.279 9.13 9.13 0 01-7.727.429 9.709 9.709 0 014.832-6.259zm-7.319 20.713a4.917 4.917 0 013.098 2.365 4.074 4.074 0 01-3.547.816 4.907 4.907 0 01-3.099-2.365 3.959 3.959 0 013.548-.816zm10.826 47.565c-24.465-5.852-43.141-23.956-54.476-38.105a164.31 164.31 0 01-19.001-29.664l-.979.51a163.6 163.6 0 0019.103 29.868c11.458 14.271 30.317 32.62 55.047 38.512l.306-1.121z" fill="#49745B"/><path d="M209.529 897.683a16.308 16.308 0 012.712 12.069 14.812 14.812 0 01-10.194-6.381 16.128 16.128 0 01-2.691-12.09 14.869 14.869 0 0110.194 6.381m-.673 15.23a14.956 14.956 0 019.46 7.462 14.876 14.876 0 01-11.866 1.794 15.044 15.044 0 01-9.48-7.462 14.92 14.92 0 0111.886-1.794zm3.629 13.456a14.595 14.595 0 0111.763 2.039 15.616 15.616 0 01-9.867 7.258 14.673 14.673 0 01-11.764-2.039 15.622 15.622 0 019.888-7.197m9.725 12.151a14.656 14.656 0 0111.764 2.039 15.61 15.61 0 01-9.868 7.217 14.55 14.55 0 01-11.764-2.039 15.594 15.594 0 014.199-4.606 15.592 15.592 0 015.669-2.591" fill="#49745B"/><path d="M219.336 918.254a15.818 15.818 0 013.486-10.907 13.854 13.854 0 014.567 9.908 15.862 15.862 0 01-3.487 10.907 13.922 13.922 0 01-4.566-9.908zm10.173 12.64a15.96 15.96 0 013.242-10.968 13.8 13.8 0 014.729 9.826 15.874 15.874 0 01-3.323 10.969 13.784 13.784 0 01-4.709-9.827m8.46 19.735a5.985 5.985 0 015.036-.774 6.48 6.48 0 01-2.854 4.403 5.969 5.969 0 01-5.036.755 6.433 6.433 0 012.854-4.384zm109.523 54.821h1.06c-1.529-27.99 8.746-54.331 17.635-71.498a185.94 185.94 0 0119.899-30.887l-.775-.795a186.52 186.52 0 00-19.98 31.01c-8.971 17.309-19.327 43.894-17.798 72.17" fill="#49745B"/><path d="M390.612 901.475a14.682 14.682 0 01-9.419 7.299 20.591 20.591 0 012.691-13.089 14.714 14.714 0 019.399-7.279c.6 4.533-.341 9.135-2.671 13.069zm-12.926 4.791a19.982 19.982 0 01-3.751 12.722 17.857 17.857 0 01-4.628-11.866 20.104 20.104 0 013.771-12.721 17.834 17.834 0 014.608 11.865zm-10.377 8.746a19.947 19.947 0 011.325 13.191 13.769 13.769 0 01-5.173-2.941 13.763 13.763 0 01-3.451-4.847 20.2 20.2 0 01-1.325-13.191 13.743 13.743 0 018.624 7.788zm-7.014 21.509a8.36 8.36 0 01.938 5.464 5.628 5.628 0 01-3.853-2.956 8.36 8.36 0 01-.918-5.464 5.606 5.606 0 013.833 2.956zm-3.058 7.768a8.393 8.393 0 01.938 5.484 5.628 5.628 0 01-3.853-2.956 8.401 8.401 0 01-.918-5.484 5.659 5.659 0 013.833 2.956zm23.242-25.097a11.11 11.11 0 018.828 4.709 11.848 11.848 0 01-9.215 4.465 11.136 11.136 0 01-8.828-4.73 11.825 11.825 0 019.215-4.444zm-5.851 10.826a11.064 11.064 0 018.828 4.73 11.87 11.87 0 01-9.236 4.444 11.11 11.11 0 01-8.828-4.71 11.888 11.888 0 019.236-4.464zm-9.704 14.964a7.283 7.283 0 015.749 3.058 7.629 7.629 0 01-2.665 2.134 7.63 7.63 0 01-3.329.761 7.182 7.182 0 01-5.749-3.058 7.615 7.615 0 015.994-2.895z" fill="#49745B"/><path d="M256.176 1051.34c0-4.64 28.135.86 30.581-5.5 2.447-6.36-24.098-6.71-24.098-15.29 0-8.58 13.477-2.57 21.387-2.57s-15.617-3.69-15.617-6.73c0-3.04 8.155-1.43 8.155-4.67s-43.303-5.64-38.227-13.55c5.077-7.915 28.339 2.3 34.659-1.8 6.32-4.096-34.149-8.541-35.087-14.616-.938-6.076 29.888 5.219 34.251.835 4.363-4.383-48.808-20.081-46.585-31.621 2.222-11.539 40.306 14.781 49.827 11.947 9.521-2.833-48.013-43.364-34.659-59.124 13.354-15.759 38.879 52.233 47.625 49.909 8.747-2.324-10.907-43.018-2.038-50.072 8.868-7.054 34.434 57.086 36.045 70.317 1.611 13.232 4.852-28.359 18.838-33.211 13.986-4.853.387 25.729 2.834 35.046 2.446 9.317 13.762-23.894 29.073-21.468 15.311 2.426-27.666 32.824-23.405 41.738 4.261 8.9 37.411-29.771 47.809-19.373 10.397 10.398-39.94 39.223-37.187 47.113 2.752 7.89 32.946-5.62 41.652 3.08 8.705 8.71-32.458 14.27-37.901 14.27-5.443 0-26.3 6.85-5.953 5.51 20.347-1.35-101.938 4.67-101.938 0" fill="#49745B"/><path d="M336.381 1056.73s33.884 1.81 43.751-4.39c9.868-6.19 2.039-11.05 2.039-11.05s31.336-.67 31.254-8.15c-.081-7.48-7.665-6.99-7.665-6.99s15.8-10.75 12.864-17.44c-4.546-10.19-30.296 7.63-30.296 7.63s8.441-10.03 1.611-12.38c-18.716-6.439-53.599 52.73-53.599 52.73" fill="#66A480"/><path d="M418.665 1008.75c2.936 6.69-12.864 17.44-12.864 17.44s11.417-.15 9.561 7.07c-1.855 7.22-30.581 9.62-30.581 9.62s10.031 2.04.163 8.16c-9.868 6.11-48.584 5.67-48.584 5.67l82.305-47.96z" fill="#49745B"/><path d="M1874.99 802.738c0-1.631-2.3-2.895-3.5-1.448-1.21 1.448-1.15.469-2.31 3.588a101.498 101.498 0 01-13.92 25.24c-10.93 14.537-21.76 21.856-34.03 29.114a97.847 97.847 0 008.89-35.842c.42-4.488-.21-9.013-1.86-13.211a1.501 1.501 0 00-.64-.6 1.53 1.53 0 00-.87-.142c-.3.039-.58.165-.81.362-.23.198-.39.457-.47.747-1.04 6.32.49 11.111-1.57 22.427-4.89 27.054-24.24 55.739-42.94 75.841 3.59-34.026 5.33-72.681-1.08-106.994-1.06-5.627-2.73-10.989-4.28-16.473a1.046 1.046 0 00-1.28-.754c-.27.07-.5.245-.65.486a1.06 1.06 0 00-.11.798c.33 1.835 3.39 25.444 3.57 27.075 2.96 26.137 2.37 55.047 0 81.55a163.113 163.113 0 01-28.72-66.545c-1.35-7.095-1.7-14.393-3.57-21.346-.27-.958-1.86-1.06-2.04 0-2.04 10.419 1.92 28.828 4.75 38.839a160.052 160.052 0 0027.32 54.741c.49.632-20.04 159.389-19.49 161.409.92 3.38 6.83 5.77 7.75-.25.36-2.44 11.66-98.977 16.75-143.708 1.92-1.06 3.16-2.935 8.16-8.501a215.086 215.086 0 0030.34-44.017c4.54-.265 37.37-16.31 53.64-52.58.46-1.04 2.58-5.973 2.87-7.054.14-.891.14-1.8 0-2.691" fill="#1C3A37"/><path d="M1769.61 751.259c.38-4.893.57-9.881.57-14.964 0-56.719-24.06-102.693-53.76-102.693-29.71 0-53.76 45.974-53.76 102.733 0 5.077.2 10.072.57 14.965l106.38-.041z" fill="#49745B"/><path d="M1830.47 726.019c.36-6.891.55-13.924.55-21.101 0-79.98-24.06-144.752-53.75-144.752-29.68 0-53.76 64.833-53.76 144.752 0 7.177.19 14.21.57 21.101h106.39z" fill="#66A480"/><path d="M1810.75 814.767c-.37-4.893-.57-9.888-.57-14.985 0-56.698 24.08-102.672 53.76-102.672 29.69 0 53.76 45.974 53.76 102.672 0 5.097-.2 10.092-.57 14.985h-106.38z" fill="#66A480"/><path d="M1724.74 814.766c-.47-6.891-.72-13.945-.72-21.121 0-79.981 30.58-144.752 68.14-144.752 37.55 0 68.15 64.833 68.15 144.752 0 7.176-.24 14.271-.71 21.121h-134.86z" fill="#49745B"/><path d="M1777.07 648.832c-18.82 0-35.62 20.571-46.71 52.824a38.312 38.312 0 00-17.88-4.546c-33.39 0-60.47 45.974-60.47 102.672 0 5.096.23 10.091.64 14.984h184.24c.43-6.891.65-13.945.65-21.121 0-79.981-27.07-144.752-60.47-144.752" fill="#66A480"/><path d="M130.834 912.627a557.293 557.293 0 01-19.96-58.716c-16.31-61.816-12.232-106.893-11.723-128.565 0-2.854-4.505-3.629-4.913-.693a238.643 238.643 0 00-1.753 30.765 387.227 387.227 0 003.16 52.029c-11.907 3.099-23.181-1.549-32.396-9.949-15.882-14.393-21.57-33.558-24.058-54.802-.265-2.181-.346-4.22-2.038-5.484a1.22 1.22 0 00-1.306-.997 1.22 1.22 0 00-1.12 1.201c-2.528 2.589-1.305 7.788-.918 11.132 5.179 45.301 32.681 67.299 54.822 67.034 2.698.051 5.39-.244 8.013-.877a406.337 406.337 0 006.116 32.192 470 470 0 0018.879 59.124c25.24 66.219 33.293 100.039 40.469 119.209.259.72.782 1.31 1.463 1.66a3.011 3.011 0 003.962-1.13c.395-.65.525-1.44.365-2.18-.346-1.39-20.041-66.63-37.105-111.014m101.204-174.029c-.245-1.427-1.081-2.385-1.386-3.71-.428-1.754-3.303-1.937-3.609 0-.163 1.101-.775 1.794-1.019 2.915-.775 3.67 1.101 24.282-3.772 55.801a137.698 137.698 0 01-5.505 24.73c-4.505 12.926-12.722 26.871-22.956 35.678a538.848 538.848 0 00-3.649-55.27 578.3 578.3 0 00-5.016-32.784c-.999-5.28-2.039-10.56-3.221-15.82a60.695 60.695 0 00-5.036-15.78 1.692 1.692 0 00-3.14.876c.167 4.783.85 9.534 2.039 14.17a529.46 529.46 0 012.855 14.271 532.45 532.45 0 019.011 102.04A214.79 214.79 0 01143.8 758.66a198.285 198.285 0 01-1.182-17.737c0-3.059-.143-6.117-.204-9.195 0-1.59-.632-6.341-3.282-4.954-2.651 1.386-2.223 4.077-2.427 6.646-.203 2.569-.244 5.443-.203 8.155 0 5.219.346 10.459.835 15.678a220.773 220.773 0 0039.491 105.71 109.52 109.52 0 0010.724 13.741c-.938 60.47-10.194 141.086-10.194 147.176 0 1.35 0 1 .49 1.51 2.038 2.04 4.261 2.61 5.015.49 1.386-3.98 1.162-7.71 3.221-29.766 3.711-39.328 7.87-129.441 7.849-133.09 12.865-9.256 21.978-23.487 27.931-38.329a115.37 115.37 0 006.402-24.465c4.73-28.543 4.587-57.085 3.813-61.754" fill="#304852"/><path d="M143.535 689.179c.493-4.427.739-8.879.734-13.334 0-50.561-31.417-91.56-70.174-91.56-38.757 0-70.195 40.999-70.195 91.56.006 4.455.251 8.906.734 13.334h138.901z" fill="#5C806A"/><path d="M222.945 666.691c.489-6.116.754-12.436.754-18.838 0-71.356-31.417-129.115-70.194-129.115-38.778 0-70.174 57.82-70.174 129.115 0 6.402.244 12.681.733 18.838h138.881z" fill="#66A480"/><path d="M84.941 745.816a184.443 184.443 0 01-.937-18.838c0-71.357 39.817-129.115 88.971-129.115 49.155 0 88.951 57.819 88.951 129.115a184.329 184.329 0 01-.938 18.838H84.941z" fill="#5C806A"/><path d="M153.24 597.863c-24.466 0-46.484 18.349-60.96 47.095a69.314 69.314 0 00-23.343-4.077c-43.589 0-78.94 40.999-78.94 91.56-.002 4.458.277 8.911.835 13.334h240.574c.557-6.13.836-12.403.836-18.818 0-71.357-35.353-129.115-78.962-129.115" fill="#66A480"/><path d="M1564.67 334.773c3.33-13.395 16.31-23.385 31.73-23.385 2.74.006 5.48.335 8.15.979a48.192 48.192 0 0118.09-18.909 48.205 48.205 0 0125.3-6.678c4.83.004 9.63.69 14.27 2.039a59.974 59.974 0 0121.93-19.643 60.022 60.022 0 0128.63-6.861c25.52 0 47.28 15.005 55.51 36.005a43.012 43.012 0 0119.7-4.73c22.42 0 40.51 16.799 40.51 37.533 0 1.219-.06 2.437-.19 3.65h-263.63zM335.447 169.86c-2.834-11.417-13.884-19.959-27.075-19.959a30.581 30.581 0 00-7.034.835 41.198 41.198 0 00-37.044-21.855 44.091 44.091 0 00-12.233 1.713 51.335 51.335 0 00-43.181-22.59c-21.814 0-40.367 12.803-47.401 30.745a36.695 36.695 0 00-16.819-4.078c-19.124 0-34.659 14.271-34.659 32.049a25.87 25.87 0 00.163 3.099l225.283.041zM-88 413.462c3.323-13.374 16.31-23.364 31.723-23.364a35.105 35.105 0 018.155.958 48.261 48.261 0 0143.446-25.587 51.89 51.89 0 0114.271 2.039 60.153 60.153 0 0150.582-26.504c25.525 0 47.279 15.006 55.516 36.005a42.814 42.814 0 0119.633-4.71c22.426 0 40.51 16.8 40.51 37.534a35.192 35.192 0 01-.184 3.629H-88z" fill="#fff"/></g><path d="M1569.45 358.267s-16.18 26.267-40.17 29.667c-23.98 3.4-35.47-12.407-35.47-12.407l3.16-1.055a35.176 35.176 0 0022.9 11.749c27.96 2.508 44.2-26.775 44.9-28.064l4.68.11z" fill="#E8D16E"/><path d="M1392.47 369.221l4.58-.686c.85 1.193 20.58 28.311 48.03 22.443a35.284 35.284 0 0021.32-14.423l3.26.672s-11.78-32.601-42.35-30.38c-26.43 1.974-34.84 22.374-34.84 22.374z" fill="#AC8A2F"/><path d="M1397.04 368.494c.85 1.193 20.58 28.31 48.02 22.443a35.278 35.278 0 0021.33-14.423s-14.27-26.267-37.77-25.486c-23.49.782-31.55 17.452-31.55 17.452" fill="#fff"/><path d="M1450.95 316.384c-4.63-6.197-17.77.658-24.23-3.605-8.57-5.649-13.59-27.845-21.07-34.864-7.47-7.019-13.8-15.629-16.56-25.513-3.32-11.928-1.22-24.678 1.65-36.701a293.531 293.531 0 0117.84-52.549 218.394 218.394 0 0144.99 43.515c9.44 12.215 17.84 26.569 17.03 41.978-.36 6.334-1.02 19.852-2.93 25.898-5.17 16.451-11.59 25.431-16.76 41.841" fill="#FFD32A"/><path d="M1452.13 315.699c-3.14-4.113-8.7-3.565-13.28-3.154-2.51.329-5.05.425-7.58.288-.99-.085-1.96-.316-2.88-.685a7.496 7.496 0 01-2.21-1.522c-3.31-3.043-5.4-7.417-7.35-11.461-2.28-4.716-4.27-9.597-6.69-14.203a40.553 40.553 0 00-3.52-5.744c-1.65-2.139-3.73-3.88-5.57-5.854a55.567 55.567 0 01-10.98-16.452c-5.87-14.23-2.83-29.846.78-44.227a291.6 291.6 0 0114.63-43.542c.75-1.782 1.54-3.537 2.32-5.305l-1.87.493a216.317 216.317 0 0128.27 24.39c4.36 4.469 8.53 9.121 12.5 13.956 3.93 4.714 7.56 9.668 10.88 14.834a68.925 68.925 0 017.77 16.355c.88 2.79 1.47 5.66 1.78 8.569.2 2.633.2 5.277 0 7.91-.27 4.771-.56 9.597-1.08 14.313-.25 2.248-.55 4.497-1.01 6.718a53.788 53.788 0 01-2.25 7.444c-3.96 11.091-9.7 21.455-13.72 32.56-.55 1.536-1.05 3.085-1.55 4.648-.49 1.563 2.1 2.399 2.64.726a159.872 159.872 0 016.84-17.287c2.42-5.347 4.92-10.653 7.06-16.123 1.13-2.906 2.23-5.854 3.11-8.856a43.49 43.49 0 001.22-6.293c.7-5.031 1.07-10.09 1.37-15.163.14-2.234.32-4.483.31-6.731a45.619 45.619 0 00-1.03-9.172 62.602 62.602 0 00-6.86-17.123c-3.1-5.388-6.61-10.53-10.5-15.382a191.445 191.445 0 00-12.38-14.519 220.88 220.88 0 00-28.19-25.335c-1.26-.914-2.52-1.828-3.79-2.742a1.376 1.376 0 00-1.88.48 299.36 299.36 0 00-15.74 43.871 177.203 177.203 0 00-4.98 23.004 59.418 59.418 0 00.9 22.854 51.938 51.938 0 009.38 18.261 70.627 70.627 0 006.77 7.527 24.275 24.275 0 014.01 4.826c2.58 4.454 4.87 9.07 6.86 13.819 1.9 4.632 4.3 9.041 7.16 13.147a16.291 16.291 0 004.57 4.387 13.746 13.746 0 007.08 1.467c2.58 0 5.14-.37 7.7-.548 2.23-.31 4.5-.123 6.64.548.76.292 1.44.763 1.98 1.371.18.311.48.538.83.63.35.093.72.044 1.03-.136.32-.183.54-.482.64-.831.09-.349.04-.721-.14-1.034" fill="#AC8A2F"/><path d="M1505.86 402.288c7.21 2.742 14.72-9.953 22.46-9.761 10.27.26 26.28 16.451 36.35 18.453 10.07 2.002 19.98 5.964 27.55 12.901 9.14 8.363 14.11 20.262 18.06 31.998a294.057 294.057 0 0112.65 54.057 218.637 218.637 0 01-61.15-13.189c-14.49-5.374-29.27-13.079-36.71-26.61-3.04-5.566-9.6-17.384-11.22-23.526-4.31-16.657-3.63-27.707-7.93-44.364" fill="#FFD32A"/><path d="M1505.52 403.563c4.72 1.782 9.34-1.96 12.86-4.62a38.167 38.167 0 016.25-4.113l.36-.164.18-.083c.29-.123.56-.219.85-.315l.73-.192.41-.096h.19c.2 0-.22 0 0 0a6.93 6.93 0 011.51 0h.45c.25.028.49.069.73.124 1.06.216 2.09.523 3.1.918.25.082.49.178.74.288 0 0 .23.096 0 0l.18.082.44.192c.56.247 1.1.507 1.64.795a76.974 76.974 0 016.87 4.113c4.61 2.962 9.05 6.197 13.85 8.843a31.123 31.123 0 006.34 2.742c1.37.384 2.75.603 4.12.932 1.66.398 3.31.85 4.94 1.371a50.985 50.985 0 0117.77 9.46 51.602 51.602 0 0112.11 15.834c3.03 6.14 5.57 12.513 7.58 19.056a299.112 299.112 0 016.42 22.731c1.84 7.65 3.38 15.396 4.58 23.183.3 1.892.58 3.784.84 5.676l1.37-1.728a218.37 218.37 0 01-39.57-6.416 218.087 218.087 0 01-19.21-5.909c-5.31-1.86-10.5-4.072-15.52-6.621a65.152 65.152 0 01-13.36-8.967c-2-1.766-3.84-3.707-5.49-5.799a43.755 43.755 0 01-4.12-6.279c-2.26-4.113-4.51-8.225-6.57-12.462-1.04-2.125-2.03-4.25-2.86-6.333a50.752 50.752 0 01-2.08-7.253c-2.68-11.804-3.28-23.937-5.86-35.768-.36-1.618-.74-3.236-1.15-4.84a1.39 1.39 0 00-.66-.739 1.383 1.383 0 00-1.79.492c-.18.29-.25.637-.19.974a161.837 161.837 0 013.52 18.782c.78 5.882 1.49 11.777 2.6 17.603a86.335 86.335 0 002.09 8.98 55.223 55.223 0 002.52 6.334c2.07 4.551 4.44 8.952 6.86 13.339 1.07 1.947 2.1 3.935 3.32 5.799a44.943 44.943 0 005.23 6.512 60.433 60.433 0 0013.17 10.091 107.345 107.345 0 0015.33 7.183 206.104 206.104 0 0018.77 6.238 220.7 220.7 0 0040.04 7.403c1.66.138 3.32.275 4.98.384.99.069 1.37-.918 1.37-1.727a308.715 308.715 0 00-4.11-23.375 278.104 278.104 0 00-6.01-22.95 176.836 176.836 0 00-7.43-20.564 62.54 62.54 0 00-10.97-17.233 49.433 49.433 0 00-17.14-11.667 68.098 68.098 0 00-10-3.29c-1.47-.37-2.97-.617-4.44-1.001-.48-.123-.96-.274-1.37-.439l-.72-.287-.35-.138h-.14a93.704 93.704 0 01-13.61-8.225 73.893 73.893 0 00-13.99-7.952 14.861 14.861 0 00-6.29-1.234c-2.48.273-4.84 1.19-6.86 2.66-2.17 1.371-4.11 3.071-6.27 4.565-.98.715-2.01 1.361-3.09 1.933l-.7.329c-.23.11.11 0-.13 0l-.46.179c-.48.161-.98.289-1.49.383h-.47c-.24.014-.49.014-.74 0h-.09l-.35-.082a4.19 4.19 0 01-.79-.247 1.396 1.396 0 00-1.04.136 1.4 1.4 0 00-.64.824c-.09.349-.05.722.13 1.038.18.316.47.549.82.648" fill="#AC8A2F"/><path d="M1422.79 383.684l-35.67 11.599c-7.26 2.358-14.66 4.743-22.3 4.894-17.1.329-32.11-10.227-45.79-20.345-15.31-11.31-30.99-23.018-41.01-39.237-1.37-2.18-2.54-5.168-.87-7.101a6.376 6.376 0 013.34-1.604c26.81-7.225 54.46-11.708 82.23-11.928 7.53 0 15.48.316 21.95 4.278 3.9 2.658 7.26 6.02 9.91 9.912 5.41 7.225 10.11 14.943 14.81 22.648l9.89 16.232c2.15 3.537 4.4 7.595 3.35 11.598" fill="#FFD32A"/><path d="M1422.42 382.368l-36.28 11.763a89.296 89.296 0 01-17.44 4.401c-5.39.582-10.85.117-16.06-1.371-10.41-2.811-19.63-8.884-28.24-15.136-8.62-6.251-17.46-12.64-25.51-19.714a125.389 125.389 0 01-11.38-11.242c-1.74-1.988-3.41-4.03-4.96-6.169a41.137 41.137 0 01-4.2-6.512 5.262 5.262 0 01-.61-2.961c.13-.476.38-.908.74-1.246.35-.337.8-.566 1.28-.66 2.75-.932 5.72-1.549 8.56-2.262a379.878 379.878 0 0118.02-4.003 318.65 318.65 0 0136.4-5.045 274.87 274.87 0 0118.42-.864c5.42-.273 10.85.188 16.15 1.371 2.56.649 5 1.72 7.21 3.167a29.503 29.503 0 015.84 5.333c3.72 4.47 7.12 9.198 10.18 14.148 3.3 5.1 6.45 10.31 9.6 15.506 1.62 2.668 3.24 5.333 4.87 7.992 1.58 2.619 3.3 5.182 4.7 7.897a10.98 10.98 0 011.49 7.568c-.41 1.713 2.22 2.44 2.65.726 1.49-6.101-2.96-11.804-5.96-16.698-3.33-5.484-6.65-10.968-10.01-16.451-3.36-5.484-6.56-10.557-10.17-15.616-3.32-4.647-6.86-9.404-11.61-12.654-4.75-3.249-10.3-4.387-15.85-4.798-5.98-.336-11.99-.308-17.97.082a310.234 310.234 0 00-37.83 4.113 342.351 342.351 0 00-18.5 3.647c-3.11.699-6.23 1.371-9.31 2.221-1.55.384-3.11.781-4.64 1.193-1.38.3-2.73.713-4.04 1.233a5.316 5.316 0 00-2.65 2.758 5.256 5.256 0 00-.09 3.823c.9 2.48 2.2 4.796 3.86 6.855a97.27 97.27 0 0010.6 12.667 216.87 216.87 0 0025.56 21.291c8.92 6.622 17.84 13.449 28.12 17.987a53.91 53.91 0 0016.01 4.552c5.94.548 11.93.013 17.68-1.577 6.21-1.576 12.28-3.742 18.37-5.717l18.55-6.032 9.14-2.961c1.67-.548.96-3.181-.73-2.632" fill="#AC8A2F"/><path d="M1446.52 405.811c-14.36 7.993-32.14 6.732-47.4 12.846a104.413 104.413 0 00-15.09 8.144c-7.82 4.798-15.82 9.788-21.38 17.082-8.92 11.708-10.17 27.419-10.19 42.116-.03 14.696.68 30.01-5.24 43.473l38.42-2.454c5.95-.384 12.06-.795 17.52-3.181 5.23-2.276 9.6-6.21 13.4-10.405 12.53-13.71 21.05-30.655 26.51-48.368 5.46-17.713 7.99-36.193 9.61-54.66a6.417 6.417 0 00-.83-4.702c-1.02-1.248-3.6-1.083-3.82.534" fill="#FFD32A"/><path d="M1445.87 404.633c-10.3 5.703-22.32 6.621-33.66 8.911a73.08 73.08 0 00-17.09 5.415 155.76 155.76 0 00-16.33 9.487 75.139 75.139 0 00-14.01 10.858 43.586 43.586 0 00-9.13 14.464c-4.18 10.762-4.59 22.607-4.58 34.013 0 12.339.44 24.965-3.46 36.796-.46 1.371-1 2.838-1.6 4.209-.37.864 0 2.125 1.18 2.057l21.68-1.371c7-.453 14.01-.782 21-1.371 3.33-.221 6.63-.753 9.86-1.591 3-.837 5.86-2.141 8.46-3.866a61.161 61.161 0 0013.31-12.859 124.58 124.58 0 0018.49-31.971 186.824 186.824 0 0010.46-38.51c1.17-6.855 2.06-13.71 2.75-20.564.18-1.728.36-3.469.52-5.21.21-1.591.34-3.193.37-4.798a5.716 5.716 0 00-1.48-4.113 4.104 4.104 0 00-1.65-.889 4.07 4.07 0 00-1.86-.071c-.59.096-1.14.365-1.57.773-.43.408-.73.936-.86 1.517-.05.173-.06.355-.04.534.02.178.08.351.17.508.09.156.21.294.35.404.14.111.3.192.48.24.17.048.35.061.53.039a1.409 1.409 0 00.92-.52c.11-.142.19-.305.24-.479 0 0 .09-.438 0-.151.09-.287 0 0 0 0l.08-.082c-.13.082-.13.082 0 0 .12-.082-.13 0 0 0 .29-.099.6-.099.89 0 .37.11-.16-.123.18.069l.22.137c-.21-.151.09.137.11.151.01.013.09.178.15.26.22.486.34 1.014.34 1.549a36.014 36.014 0 01-.31 4.524c-.17 1.659-.32 3.304-.5 4.963-.68 6.581-1.52 13.148-2.6 19.674a190.977 190.977 0 01-9.68 37.18 124.216 124.216 0 01-17.03 30.887 73.03 73.03 0 01-11.95 12.737 28.395 28.395 0 01-7.27 4.332 36.623 36.623 0 01-8.95 2.125c-3.19.397-6.4.562-9.6.768l-10.35.658-20.69 1.371-5.17.342 1.19 2.057c5.08-11.585 5.49-24.362 5.49-36.81 0-11.489-.25-23.197 2.96-34.343a42.634 42.634 0 017.21-14.655 55.458 55.458 0 0112.94-11.434c2.44-1.645 4.94-3.194 7.43-4.73 2.75-1.672 5.49-3.345 8.24-4.881a60.28 60.28 0 018.46-3.934c2.7-.971 5.45-1.781 8.24-2.427 11.34-2.659 23.21-3.359 34-8.047 1.37-.576 2.62-1.22 3.89-1.92 1.54-.85.17-3.221-1.37-2.358" fill="#AC8A2F"/><path d="M1494.29 317.591a54 54 0 01-5.84-8.116c-4.57-7.312-9.13-14.578-13.65-21.799a75.512 75.512 0 01-7.08-13.133c-2.67-7.033-3.2-14.656-3.65-22.169-.37-5.84-.7-11.68-1.01-17.521a87.41 87.41 0 01.27-16.808c1.85-12.955 9.33-24.677 18.85-33.615 9.52-8.939 21.05-15.561 32.7-21.538a3.19 3.19 0 011.93-.521c.76.216 1.41.704 1.83 1.371 6.12 7.924 9.23 17.685 12.24 27.227 4.5 14.327 9.04 28.79 10.01 43.775a45.61 45.61 0 01-1.55 17c-1.27 3.962-3.36 7.608-4.86 11.502-1.82 4.73-2.74 9.775-5.02 14.326a56.027 56.027 0 01-5.69 8.692c-8.3 11.105-16.89 22.47-28.68 29.764" fill="#FFD32A"/><path d="M1495.27 316.631a47.319 47.319 0 01-5.04-6.855c-1.71-2.742-3.41-5.484-5.12-8.226-3.4-5.41-6.8-10.835-10.2-16.273a56.167 56.167 0 01-7.39-15.971 97.457 97.457 0 01-2.14-17.686c-.38-6.375-.78-12.763-1.07-19.193a66.597 66.597 0 011.05-17.823c2.34-10.145 8.08-19.193 15.27-26.692 7.89-8.157 17.51-14.381 27.44-19.824 2.48-1.371 5-2.742 7.53-3.99.4-.192.83-.479 1.25-.246.49.376.9.841 1.21 1.371.81 1.11 1.58 2.262 2.3 3.441a75.936 75.936 0 016.78 15.162c1.92 5.594 3.65 11.242 5.35 16.904 1.79 5.909 3.45 11.873 4.74 17.905 1.33 5.984 2.14 12.07 2.44 18.193a40.884 40.884 0 01-2.74 17.507c-1.14 2.742-2.49 5.333-3.57 8.061-1.08 2.728-1.89 5.607-2.75 8.431a38.912 38.912 0 01-3.3 7.952 76.06 76.06 0 01-5.02 7.252c-6.48 8.665-13.11 17.384-21.51 24.294a59.718 59.718 0 01-6.36 4.565c-1.5.932-.13 3.304 1.37 2.358 9.6-5.978 17.14-14.546 24-23.416 1.74-2.262 3.46-4.538 5.17-6.855a65.516 65.516 0 005.05-7.444c2.94-5.319 3.91-11.379 6.23-16.945 1.17-2.742 2.55-5.484 3.66-8.322a36.426 36.426 0 002.21-9.021c.57-6.312.32-12.671-.74-18.919-1.82-12.531-5.68-24.677-9.48-36.714a138.37 138.37 0 00-5.97-16.273 59.179 59.179 0 00-4.11-7.486c-1.38-2.152-3.37-5.785-6.51-4.688a31.272 31.272 0 00-3.95 1.96l-3.88 2.07c-2.58 1.371-5.13 2.865-7.66 4.387a118.79 118.79 0 00-14.52 10.214 68.844 68.844 0 00-19.92 25.829 50.181 50.181 0 00-3.84 16.451c-.22 6.521-.05 13.049.51 19.55.35 6.334.6 12.709 1.26 19.029a54.295 54.295 0 004.57 17.74 161.935 161.935 0 009.75 16.451c3.47 5.484 6.93 11.133 10.44 16.658a49.854 49.854 0 005.25 7.115c1.19 1.288 3.12-.645 1.93-1.933" fill="#AC8A2F"/><path d="M1522.7 322.348c-8.47-32.739-.94-68.959 20.02-96.296a53.36 53.36 0 019.52-10.008 95.739 95.739 0 0110.91-6.677c4.77-2.742 9.38-5.744 14.31-8.225 9.6-4.799 20.14-7.458 30.61-10.077 1.92-.48 4.12-.932 5.76.123 1.65 1.056 2.04 2.989 2.32 4.785 4.74 30.257-2.27 61.693-16.54 89.112-2.52 4.84-5.31 9.679-9.44 13.381a49.018 49.018 0 01-13.19 7.732 219.418 219.418 0 01-54.45 15.848" fill="#FFD32A"/><path d="M1524.01 321.978a108.2 108.2 0 01-3.21-32.506 113.6 113.6 0 016.47-32.149 112.455 112.455 0 0115.58-29.146 51.587 51.587 0 0112.35-12.572c2.62-1.727 5.38-3.208 8.11-4.771 2.73-1.563 5.57-3.304 8.37-4.949a94.965 94.965 0 0117.21-7.979c5.98-2.043 12.12-3.619 18.25-5.155 2.07-.521 5.38-1.755 6.74.631.48 1.022.78 2.122.87 3.249.24 1.494.44 2.989.61 4.483.66 5.967.91 11.973.72 17.973a141.82 141.82 0 01-5.8 35.714 166.166 166.166 0 01-6.11 17.192 144.227 144.227 0 01-7.89 16.245 40.99 40.99 0 01-4.96 7.088 29.787 29.787 0 01-6.71 5.484 104.242 104.242 0 01-16.69 7.636 218.569 218.569 0 01-36.67 10.68c-3.05.603-6.11 1.147-9.2 1.631-.34.1-.64.33-.81.643-.18.313-.23.683-.13 1.03.09.348.32.644.64.824.31.179.68.228 1.03.136a221.566 221.566 0 0038.06-9.432c6.1-2.112 12.1-4.47 17.98-7.116 5.61-2.522 10.97-5.484 15.09-10.309a72.856 72.856 0 009.35-15.794 171.093 171.093 0 007.2-17.425 151.639 151.639 0 007.96-36.508c.54-6.136.66-12.302.34-18.453-.16-3.099-.45-6.183-.85-9.254-.34-2.674-.45-5.84-2.22-8.02-2.08-2.523-5.49-1.961-8.24-1.262-3.15.796-6.29 1.577-9.44 2.441a124.417 124.417 0 00-18.4 6.361c-5.99 2.742-11.48 6.306-17.16 9.597-2.75 1.59-5.63 3.112-8.32 4.88a42.53 42.53 0 00-7.27 6.046 88.962 88.962 0 00-10.81 14.176 113.153 113.153 0 00-8.03 14.971 116.809 116.809 0 00-9.14 32.779 111.782 111.782 0 00.8 33.616 98.153 98.153 0 001.76 8.048c.12.32.35.583.66.739a1.374 1.374 0 001.97-1.466" fill="#AC8A2F"/><path d="M1542.11 325.254c3.05-11.53 8.76-22.154 14.42-32.642a94.815 94.815 0 015.49-9.405 59.53 59.53 0 018.37-9.391c12.35-11.406 27.97-18.864 44.31-22.703 16.34-3.839 33.34-4.113 50.04-2.536a2.81 2.81 0 011.51.452c.49.525.75 1.219.73 1.933.93 11.859-6.05 22.731-12.74 32.574l-10.22 15.08c-6.86 10.091-14.05 20.565-24.52 26.789a69.237 69.237 0 01-14.56 6.21 200.544 200.544 0 01-29.28 7.184c-8.23 1.371-16.83 2.221-24.7-.534a14.243 14.243 0 01-7.27-4.977 7.336 7.336 0 01-1.4-4.164c-.03-1.5.41-2.971 1.25-4.213" fill="#FFD32A"/><path d="M1543.43 325.611c2.94-10.968 8.23-21.195 13.72-31.19a77.31 77.31 0 019.06-14.23 73.944 73.944 0 0111.63-10.762 96.814 96.814 0 0127.45-14.19 124.94 124.94 0 0133.22-6.018c5.91-.293 11.84-.27 17.75.069 1.47 0 2.95.178 4.42.287 1.47.11 2.95.151 4.39.384.41 0 .49.124.58.466.12.559.17 1.13.15 1.7.05 1.304 0 2.61-.13 3.908-.7 5.15-2.38 10.12-4.95 14.641a146.178 146.178 0 01-8.73 13.874c-3.37 4.972-6.75 9.944-10.14 14.916-2.86 4.209-5.79 8.404-9.05 12.339a60.926 60.926 0 01-10.77 10.378 56.048 56.048 0 01-14.67 7.239 192.709 192.709 0 01-34.51 8.5 51.676 51.676 0 01-16.63.315 24.701 24.701 0 01-7.4-2.358 9.625 9.625 0 01-4.61-4.551 5.72 5.72 0 01-.48-2.914c.1-.997.46-1.951 1.05-2.762.18-.313.23-.686.14-1.039a1.344 1.344 0 00-.63-.839 1.294 1.294 0 00-.5-.176 1.378 1.378 0 00-1.02.267c-.14.11-.26.246-.35.402a7.976 7.976 0 00-1.38 3.467 7.946 7.946 0 00.32 3.717 11.217 11.217 0 004.75 5.991 22.71 22.71 0 007.39 3.016c2.85.678 5.77 1.023 8.7 1.028a90.571 90.571 0 0017.92-2.042 202.45 202.45 0 0017.84-4.209 124.95 124.95 0 0017.19-5.95 49.883 49.883 0 0013.54-9.117c7.99-7.458 13.88-16.89 19.98-25.87 3.41-5.004 6.86-9.967 10.17-15.081a71.066 71.066 0 007.63-14.861 36.42 36.42 0 001.82-8.047c.16-1.334.21-2.676.17-4.017a6.1 6.1 0 00-.96-3.921c-1.02-1.179-2.75-1.111-4.12-1.248s-3.03-.26-4.54-.356c-3.07-.206-6.16-.343-9.23-.411-12.23-.318-24.45.944-36.35 3.756a105.056 105.056 0 00-29.83 12.243c-9.43 5.771-18.31 13.271-24.19 22.73-1.58 2.454-2.95 5.059-4.32 7.65-1.38 2.591-2.75 5.155-4.12 7.76a149.666 149.666 0 00-7.4 16.287 91.609 91.609 0 00-2.59 8.102c-.06.337.01.684.19.974.18.289.46.5.79.591.33.091.69.056.99-.099.31-.156.54-.419.66-.739" fill="#AC8A2F"/><path d="M1548.48 344.598a33.833 33.833 0 0112.14-12.338c5.01-2.907 10.58-4.223 15.76-6.718 3.92-1.892 7.6-4.442 11.51-6.361 12.68-6.224 27.28-5.484 40.56-1.165 13.28 4.318 25.49 12.05 37.58 19.714l21.6 13.709c-5.01 8.925-15.1 11.462-23.44 16.054a126.359 126.359 0 00-11.39 7.623 204.704 204.704 0 01-11.67 7.787 59.311 59.311 0 01-12.53 6.347 47.43 47.43 0 01-13.04 2.057c-12.66.535-25.66-1.522-36.89-8.226a72.939 72.939 0 01-17.92-15.971c-6.15-7.335-11.6-15.986-13.24-26.049" fill="#FFD32A"/><path d="M1549.66 345.284a33.1 33.1 0 018.96-10.104c3.98-2.893 8.58-4.483 13.12-6.224a62.035 62.035 0 007.16-3.167c2.28-1.22 4.47-2.591 6.72-3.853 4.27-2.442 8.9-4.17 13.72-5.113 9.61-1.837 19.57-.494 28.82 2.509 9.8 3.194 18.88 8.225 27.65 13.572 9.31 5.676 18.48 11.612 27.69 17.452 1.18.741 2.36 1.481 3.52 2.235l-.49-1.878c-4.82 8.472-14.75 11.077-22.76 15.464-5.49 3.016-10.4 6.978-15.58 10.502-5.06 3.612-10.4 6.82-15.97 9.596a44.185 44.185 0 01-17.84 3.62 75.59 75.59 0 01-17.04-1.371 56.71 56.71 0 01-16.2-5.813 61.481 61.481 0 01-13.46-10.296c-7.78-7.705-14.97-17.055-17.91-27.762a46.623 46.623 0 01-.91-4.113c-.1-.348-.33-.643-.64-.821a1.379 1.379 0 00-1.04-.125 1.371 1.371 0 00-.95 1.673c1.92 11.475 8.74 21.428 16.47 29.873a72.691 72.691 0 0013.33 11.639 56.472 56.472 0 0016.34 7.349 72.615 72.615 0 0017.61 2.563c6.23.327 12.47-.349 18.48-2.001 6.05-1.878 11.49-5.402 16.76-8.815 2.74-1.769 5.4-3.592 8.05-5.484 2.65-1.892 5.3-3.839 8.03-5.621 4.42-2.636 9.01-5.003 13.72-7.088 4.43-1.939 8.4-4.81 11.62-8.418a24.18 24.18 0 002.18-3.167c.09-.155.15-.327.18-.506a1.38 1.38 0 00-.04-.535 1.257 1.257 0 00-.23-.482 1.47 1.47 0 00-.4-.355c-9.48-5.991-18.91-12.064-28.45-17.973-8.98-5.58-18.23-10.968-28.19-14.56a64.073 64.073 0 00-29.66-4.03 46.623 46.623 0 00-14.5 4.181c-4.72 2.262-8.99 5.374-13.82 7.417s-9.73 3.386-14.16 6.046a35.22 35.22 0 00-10.36 9.665c-.67.946-1.37 1.933-1.9 2.934-.17.313-.2.678-.11 1.018.1.339.33.628.64.805.3.177.66.228 1.01.144.34-.084.64-.297.83-.596" fill="#AC8A2F"/><path d="M1530.02 394.296a152.901 152.901 0 0154.15-25.062 46.022 46.022 0 0112.12-1.645c3.15.147 6.27.649 9.31 1.495a206.384 206.384 0 0126.87 9.514c8.59 3.51 17.29 7.074 24.6 12.777 5.8 4.538 10.54 10.283 15.22 15.986 3.41 4.14 6.82 8.29 10.23 12.448a33.279 33.279 0 00-10.9 2.893c-16.47 6.484-32.94 13.38-50.18 17.301a69.652 69.652 0 01-19.21 2.112c-13.49-.727-25.87-7.349-37.7-13.875-14.72-8.143-30.18-17.232-37.72-32.286" fill="#FFD32A"/><path d="M1530.71 395.433a152.001 152.001 0 0143.69-22.072 105.006 105.006 0 0116.47-4.113c2.9-.411 5.85-.411 8.76 0 2.93.46 5.81 1.119 8.65 1.974 5.7 1.673 11.31 3.631 16.82 5.868 5.32 2.111 10.65 4.223 15.86 6.567a77.112 77.112 0 0114.34 8.089 72.568 72.568 0 0111.92 11.639c3.89 4.538 7.62 9.199 11.42 13.806.97 1.206 1.96 2.399 2.95 3.591.32-.767.65-1.549.96-2.33-3.03.199-6 .874-8.82 2.001-2.86 1.056-5.67 2.208-8.5 3.332-5.62 2.234-11.26 4.469-16.94 6.567-11.4 4.209-23.18 8.143-35.25 9.871-5.93.898-11.96.764-17.84-.398a74.117 74.117 0 01-16.08-5.552c-5.2-2.413-10.22-5.183-15.23-7.966-4.38-2.44-8.73-4.921-12.94-7.663-8.23-5.306-15.99-11.695-21.12-20.112a40.381 40.381 0 01-1.79-3.249c-.8-1.577-3.16-.192-2.36 1.371 4.55 9.062 12.06 16.108 20.25 21.935 4.2 2.961 8.61 5.607 13.07 8.226 4.81 2.742 9.61 5.415 14.55 7.896 10.61 5.361 21.95 9.515 34.01 8.898a96.18 96.18 0 0018.61-3.194c5.94-1.536 11.81-3.387 17.6-5.416 5.79-2.029 11.56-4.25 17.29-6.512l8.51-3.372a78.802 78.802 0 018.67-3.126c1.42-.39 2.88-.62 4.35-.686.27.002.54-.078.77-.228.23-.151.4-.365.51-.617.1-.251.13-.528.08-.795a1.45 1.45 0 00-.38-.704c-3.96-4.798-7.88-9.597-11.85-14.395a101.156 101.156 0 00-11.67-12.435c-8.71-7.485-19.53-11.639-30.04-15.903-5.6-2.262-11.22-4.483-16.98-6.333-5.77-1.851-11.7-3.62-17.72-3.565-6.02.055-11.76 1.673-17.38 3.263a156.032 156.032 0 00-45.19 21.277c-1.12.768-2.24 1.563-3.33 2.372-.31.183-.54.482-.63.831-.1.349-.05.72.13 1.033.19.312.49.538.83.631.35.092.73.043 1.04-.137" fill="#AC8A2F"/><path d="M1466.67 417.89c-6.2 10.967-14.39 20.687-21.4 31.189-7.01 10.501-12.97 22.182-13.72 34.781-.18 4.347-.03 8.701.46 13.024a590.67 590.67 0 002.75 24.677 71.818 71.818 0 001.97 10.79c2.56 8.856 8.35 16.931 8.52 26.144 1.38-6.101 5.99-10.968 11.08-14.546 5.09-3.578 10.81-6.279 15.75-10.076a81.135 81.135 0 009.28-8.747 89.782 89.782 0 009.7-11.612c7.38-11.064 9.83-24.595 12.13-37.688a71.228 71.228 0 001.55-15.615c-.39-7.568-3.17-14.82-6.51-21.634-2.92-5.977-6.39-11.858-11.5-16.136a29.184 29.184 0 00-19.82-6.676" fill="#FFD32A"/><path d="M1465.49 417.19c-4.94 8.72-11.1 16.644-16.93 24.76-5.65 7.869-10.98 16.04-14.53 25.088a57.14 57.14 0 00-3.59 13.847 72.52 72.52 0 00.15 15.725 784.2 784.2 0 001.64 16.095c.61 5.319 1.13 10.693 2.14 15.944a65.783 65.783 0 004.7 13.71c2 4.096 3.49 8.424 4.43 12.887.17 1.056.27 2.124.29 3.194 0 1.494 2.34 1.919 2.74.356 1.19-5.278 4.91-9.5 9.11-12.736 4.89-3.756 10.53-6.375 15.55-9.925a89.666 89.666 0 0013.75-13.066 64.243 64.243 0 0010.77-15.217c5.34-10.968 7.37-23.375 9.31-35.357.59-3.343.94-6.725 1.03-10.118.02-3.306-.37-6.603-1.15-9.816a74.52 74.52 0 00-7.01-17.548 43.51 43.51 0 00-10.65-13.915 30.7 30.7 0 00-20.43-6.787c-1.76.083-1.76 2.811 0 2.742a28.07 28.07 0 0116.05 4.25 35.05 35.05 0 0111.21 12.449 77.533 77.533 0 017.33 16.52 40.696 40.696 0 011.79 9.075 48.48 48.48 0 01-.47 9.926c-.85 6.115-1.99 12.243-3.31 18.275a88.597 88.597 0 01-5.09 16.698 57.45 57.45 0 01-9.6 15.012 176.245 176.245 0 01-6.41 6.855 68.57 68.57 0 01-6.86 6.361c-8.87 6.951-21.26 10.707-26.26 21.675a19.033 19.033 0 00-1.38 3.866l2.75.37c-.24-9.391-5.81-17.288-8.44-26.048a90.75 90.75 0 01-2.61-15.355 700.968 700.968 0 01-1.74-15.944c-.66-5.343-.97-10.725-.92-16.109.23-4.71 1.11-9.366 2.62-13.833 3.01-9.062 8.07-17.274 13.52-25.047 5.69-8.116 11.88-15.903 17.05-24.375.63-1.042 1.25-2.098 1.84-3.154.14-.309.16-.659.06-.982a1.414 1.414 0 00-.62-.767 1.363 1.363 0 00-.97-.157c-.33.07-.63.261-.83.535" fill="#AC8A2F"/><path d="M1498.18 415.038c.14 9.958-1.03 19.892-3.49 29.544-1.23 4.853-2.74 9.597-3.55 14.573-2.65 17.288 5.02 34.891 17.01 48.135a54.685 54.685 0 009.91 8.829 82.684 82.684 0 0013.39 6.854l22.75 9.844c.86.438 1.79.708 2.75.795 2.92 0 4.7-2.989 5.64-5.607 4.95-13.847 5.64-28.79 4.95-43.295-.34-7.156-1.04-14.409-3.8-21.072a55.695 55.695 0 00-7.95-12.914c-14.4-18.426-35.36-32.903-59.25-37.016" fill="#FFD32A"/><path d="M1496.81 415.038c.09 5.694-.26 11.387-1.05 17.027a132.586 132.586 0 01-3.65 16.836 66.526 66.526 0 00-2.85 15.889c-.1 4.896.48 9.782 1.73 14.519a69.169 69.169 0 0013.83 26.212 62.505 62.505 0 0011.39 10.968 75.822 75.822 0 0014.56 7.595l16.17 7.074 4.12 1.796c1.29.548 2.58 1.193 3.91 1.645a5.84 5.84 0 003.48.153 5.85 5.85 0 002.94-1.853 17.332 17.332 0 003.12-6.224c.86-2.605 1.57-5.264 2.18-7.938a104.802 104.802 0 002.21-16.451c.3-5.525.32-11.062.07-16.589a86.013 86.013 0 00-1.94-16.383c-2.46-10.131-8.92-18.631-15.86-26.185a106.287 106.287 0 00-21.54-17.987 92.384 92.384 0 00-25.96-11.297c-2.24-.562-4.49-1.042-6.75-1.371a1.4 1.4 0 00-1.04.131 1.35 1.35 0 00-.51 1.854c.17.316.47.549.82.648a86.448 86.448 0 0125.92 8.897 100.393 100.393 0 0122.06 15.958c3.28 3.123 6.36 6.448 9.22 9.953a63.47 63.47 0 018.32 12.503 46.676 46.676 0 013.94 15.081c.53 5.325.79 10.674.76 16.026a103.45 103.45 0 01-4.33 31.807 15.468 15.468 0 01-2.57 5.593 3.409 3.409 0 01-2.04 1.371h-.51a2.784 2.784 0 01-.66-.096c-.61-.17-1.2-.39-1.77-.658l-15.86-6.855c-5.11-2.207-10.31-4.277-15.22-6.855a48.427 48.427 0 01-12.35-9.308 70.284 70.284 0 01-15.64-24.143 49.735 49.735 0 01-2.4-27.94c1.18-5.484 2.96-10.844 4.12-16.369a115.061 115.061 0 002.22-16.74c.15-2.742.2-5.483.16-8.225a1.366 1.366 0 00-1.37-1.371c-.36 0-.71.144-.97.401s-.4.606-.4.97" fill="#AC8A2F"/><path d="M1408.1 392.28a777.43 777.43 0 00-35.79-2.742c-3.15-.164-6.34-.315-9.51-.274-22.73.343-44.63 11.146-60.78 27.159-6.48 6.416-12.19 13.709-19.62 18.974a7.91 7.91 0 003.77 3.084 230.882 230.882 0 0048.85 18.316c3.38.902 6.83 1.579 10.3 2.029a48.315 48.315 0 0036.08-10.967c3.99-3.629 7.75-7.512 11.25-11.626a207.793 207.793 0 0117.09-16.643c4.26-3.716 8.98-7.828 9.61-13.436.14-1.987-.11-3.982-.76-5.867a14.893 14.893 0 00-3-5.1 43.545 43.545 0 00-9.07-7.595" fill="#FFD32A"/><path d="M1408.1 390.909a828.095 828.095 0 00-31.16-2.481c-5.12-.302-10.24-.658-15.36-.507a80.89 80.89 0 00-12.86 1.48 88.316 88.316 0 00-24.13 8.774 99.131 99.131 0 00-21.06 15.012c-6.6 6.115-12.15 13.326-19.13 19.057-.85.712-1.74 1.371-2.64 2.029-.31.183-.53.481-.63.83-.09.349-.04.721.14 1.034 1.37 2.646 4.69 3.811 7.23 5.073 2.97 1.453 5.98 2.851 9.02 4.195 6.09 2.742 12.35 5.113 18.6 7.266a225.427 225.427 0 0018.97 5.593 59.946 59.946 0 0018.78 2.153 49.579 49.579 0 0031.85-14.519c4.62-4.565 8.77-9.596 13.32-14.271 2.33-2.386 4.73-4.703 7.18-6.979 2.44-2.275 4.59-4.112 6.86-6.141 4.11-3.743 8.08-8.445 7.72-14.327-.39-6.457-4.99-11.338-9.89-15.08-1.21-.905-2.44-1.769-3.68-2.633a1.366 1.366 0 00-1.82.529c-.18.306-.23.669-.15 1.012.09.344.3.641.6.831 4.61 3.194 9.74 6.759 11.61 12.339a10.84 10.84 0 01-.18 7.65 19.247 19.247 0 01-4.43 6.073c-2.03 2.029-4.26 3.866-6.4 5.785a177.722 177.722 0 00-6.86 6.512c-4.51 4.456-8.68 9.227-13 13.861a53.467 53.467 0 01-13.53 10.967 47.377 47.377 0 01-15.84 5.265c-5.75.793-11.6.538-17.26-.754-6.27-1.371-12.47-3.112-18.58-5.059a222.425 222.425 0 01-17.96-6.567c-5.89-2.454-11.58-4.963-17.11-7.924a5.98 5.98 0 01-2.63-2.276l-.55 1.851c7.43-5.305 13.16-12.448 19.56-18.851a97.288 97.288 0 0120.23-15.56 86.89 86.89 0 0123.42-9.459 75.457 75.457 0 0112.35-1.92c4.86-.256 9.74-.21 14.6.137 10.35.576 20.7 1.353 31.04 2.331 1.26.11 2.52.233 3.78.37.37 0 .72-.144.97-.401.26-.258.41-.606.41-.97 0-.363-.15-.712-.41-.969a1.35 1.35 0 00-.97-.402" fill="#AC8A2F"/><path d="M1422.78 344.393a166.526 166.526 0 01-47.11-7.678 69.635 69.635 0 01-19.1-8.705 67.324 67.324 0 01-13.31-12.956c-10.15-12.489-18.08-26.953-21.83-42.595-1.95-8.226-2.74-16.548-4.22-24.815-1.21-6.758-2.86-13.435-4.52-20.112a292.836 292.836 0 0157.89 12.229 79.521 79.521 0 0116.67 6.965c18.29 10.885 26.66 32.533 33.76 52.59a84.411 84.411 0 014.99 18.329c.44 4.986.44 10 0 14.985-.27 4.785-1.03 10.337-5.17 12.722" fill="#FFD32A"/><path d="M1422.78 343.022a165.447 165.447 0 01-36.13-4.661 141.026 141.026 0 01-17.19-5.251 53.58 53.58 0 01-14.56-8.048 76.64 76.64 0 01-11.68-12.229 120.325 120.325 0 01-9.22-13.366 99.31 99.31 0 01-12.02-30.888c-1.22-6.087-1.96-12.339-2.96-18.412-1-6.073-2.39-12.339-3.89-18.426-.35-1.508-.74-3.002-1.11-4.496l-1.37 1.727a288.587 288.587 0 0140.56 7.252c6.6 1.673 13.16 3.565 19.62 5.731a63.366 63.366 0 0116.92 8.061c8.59 6.101 14.75 14.971 19.5 24.252a157.41 157.41 0 016.57 14.999c2.1 5.483 4.12 10.967 5.93 16.561a69.862 69.862 0 012.57 9.967 53.8 53.8 0 01.57 10.145c0 3.153-.18 6.347-.55 9.487a15.513 15.513 0 01-2.07 6.69 6.884 6.884 0 01-2.18 2.056c-.3.19-.51.488-.6.831-.08.344-.03.706.15 1.012.17.307.46.533.8.631.34.099.71.062 1.02-.102 4.87-2.865 5.57-9.048 5.87-14.134.21-3.537.42-7.088.29-10.625a52.576 52.576 0 00-1.48-10.666 171.384 171.384 0 00-6.04-18.207c-1.95-5.319-4.03-10.611-6.42-15.752-4.58-9.885-10.47-19.495-18.85-26.624a55.714 55.714 0 00-15.79-9.24 194.092 194.092 0 00-19.8-6.265 296.985 296.985 0 00-41.37-8.226c-1.73-.206-3.45-.411-5.18-.59-.92-.109-1.51.946-1.37 1.728 1.54 6.21 3.09 12.434 4.27 18.741 1.18 6.306 1.95 12.338 2.99 18.508.96 5.827 2.42 11.56 4.36 17.137 1.88 5.263 4.18 10.37 6.86 15.272a119.33 119.33 0 009.09 14.066 94.7 94.7 0 0011.25 12.887 52.933 52.933 0 0014.35 9.446 115.411 115.411 0 0017.06 5.868 168.976 168.976 0 0036.73 5.758c1.49.068 2.99.109 4.49.137.36 0 .71-.145.97-.402a1.4 1.4 0 00.4-.969 1.4 1.4 0 00-.4-.97 1.384 1.384 0 00-.97-.401" fill="#AC8A2F"/><path d="M1471.22 480.899c-12.05 7.568-24.95 15.08-39.15 15.67a43.794 43.794 0 01-27.87-8.555 23.794 23.794 0 01-4.12-3.743c-2.88-3.413-6.35-8.486-7.15-12.873a56.817 56.817 0 01-.64-20.057c.48-2.838 1.87-6.855 1.07-7.869-1.96-2.386-5.85.507-7.04 3.372-1.19 2.866-1.37 6.211-2.29 9.145-1.83-7.993-5.58-22.539-9.61-22.854-1.49 0-2.48 2.111-2.37 3.619.37 3.921 1.74 7.691 2.02 11.544-1.37-2.235-3.19-6.951-4.9-8.912-1.29-1.467-3.49-3.071-4.73-1.563-.84 1.015-.22 5.375.33 6.567 1.37 3.03 2.74 6.046 4.21 9.076a38.243 38.243 0 00-5.49-9.898c-.69-.837-2.96-2.262-3.9-1.7-.53.315-.34.617-.44 1.234-.5 3.4 1.48 7.225 3.47 10.035.63.874 1.12 1.835 1.46 2.852-1.18-1.508-4.67-5.909-6.27-6.937-1.61-1.029-3.14-1.056-3.8 1.233-.24.837 2.03 5.114 2.6 5.758 1.38 1.55 8.09 11.626 9.47 13.189 9.28 10.433 10.38 13.545 20.58 22.155 4.59 3.893 9.39 8.966 14.75 11.68a72.057 72.057 0 0015.67 5.813 63.642 63.642 0 0025.8-.151c8.59-1.768 17.06-5.648 25.81-8.65 1.73-.59 2.32-2.167 3.4-3.634a7.11 7.11 0 001.14-3.304 25.142 25.142 0 00-2.51-15.149" fill="#3BB87D"/><path d="M1470.82 480.309c-8.24 5.141-16.63 10.214-25.91 13.175a49.086 49.086 0 01-13.99 2.427c-4.66.08-9.29-.591-13.73-1.988a42.747 42.747 0 01-12.35-6.265 32.452 32.452 0 01-8.93-10.502 19.857 19.857 0 01-2.33-5.936c-.51-2.647-.87-5.32-1.08-8.007-.2-2.633-.2-5.277 0-7.91.19-2.31.57-4.602 1.12-6.855.22-.905.43-1.823.56-2.742.16-.695.16-1.416 0-2.111-.52-1.563-2.55-1.892-3.91-1.371a8.047 8.047 0 00-4.11 3.592c-1 2.088-1.64 4.325-1.9 6.622a29.208 29.208 0 01-.86 3.317h1.37a105.575 105.575 0 00-4.88-16.711 15.838 15.838 0 00-3.34-5.69c-.55-.577-1.3-.92-2.1-.96-1.44 0-2.37 1.454-2.74 2.742-.21.854-.24 1.74-.08 2.605.13 1.138.34 2.262.57 3.4a57.739 57.739 0 011.29 7.143l1.28-.357c-1.14-1.905-1.99-3.989-3.03-5.963a11.075 11.075 0 00-4.27-4.963 2.776 2.776 0 00-1.5-.443c-.53 0-1.05.154-1.49.443-.32.262-.57.591-.74.964-.17.372-.26.778-.25 1.188-.06.915-.03 1.835.11 2.742.09.86.28 1.706.56 2.523.59 1.535 1.37 3.029 2.09 4.524.71 1.494 1.51 3.235 2.25 4.853.33.699 1.53.192 1.25-.521a45.87 45.87 0 00-3.3-6.855 12.357 12.357 0 00-4.03-4.702 4.327 4.327 0 00-2.33-.727c-.41.025-.79.206-1.06.506a1.54 1.54 0 00-.41 1.098 12.837 12.837 0 000 3.277c.21 1.143.56 2.256 1.04 3.318.55 1.224 1.2 2.398 1.95 3.509a16.323 16.323 0 011.88 3.4l1.14-.672a72.183 72.183 0 00-4.65-5.483c-1.38-1.371-4-3.524-5.75-1.508-.37.38-.62.85-.73 1.362-.12.512-.09 1.045.07 1.544.37 1.066.82 2.098 1.37 3.085.71 1.272 1.5 2.49 2.39 3.646 2.51 3.469 4.84 7.061 7.39 10.488 1.53 2.057 3.32 3.907 4.97 5.868 1.65 1.96 3.36 4.113 5.06 6.114 1.71 2.002 3.16 3.661 4.86 5.374 2.22 2.235 4.58 4.278 6.96 6.334 2.66 2.29 5.18 4.73 7.9 6.951a49.263 49.263 0 004.19 3.167c1.42.875 2.89 1.658 4.41 2.344 3.3 1.562 6.7 2.881 10.19 3.949a53.458 53.458 0 0010.79 2.015c7.63.611 15.3-.104 22.69-2.111 3.74-1.015 7.39-2.331 10.97-3.674l5.49-2.098c1.85-.686 3.73-1.371 5.59-2.015a6.606 6.606 0 003.07-2.962c.48-.644.91-1.332 1.26-2.056.32-.798.53-1.631.63-2.481.52-3.565.28-7.197-.68-10.667a26.2 26.2 0 00-1.85-4.921c-.4-.782-1.58-.096-1.18.685a24.893 24.893 0 012.66 10.036c.09 1.729-.02 3.463-.32 5.168a6.541 6.541 0 01-.75 2.235c-.41.658-.87 1.288-1.38 1.933-.33.54-.78 1.006-1.3 1.371-.81.417-1.67.748-2.55.987-1.8.644-3.6 1.371-5.38 1.988-3.46 1.302-6.86 2.632-10.41 3.77a68.672 68.672 0 01-21.68 3.578 52.767 52.767 0 01-20.72-4.017 51.479 51.479 0 01-9.03-4.428 65.881 65.881 0 01-7.92-6.402c-4.35-3.935-8.9-7.623-12.87-11.955-3.42-3.757-6.52-7.801-9.84-11.653-1.37-1.549-2.5-2.866-3.66-4.497-1.17-1.631-2.51-3.606-3.77-5.484-1.09-1.549-2.16-3.126-3.31-4.647l-.48-.604a3.558 3.558 0 01-.39-.507c-.54-.88-1.03-1.796-1.45-2.742-.21-.438-.4-.877-.56-1.371 0-.192-.13-.384-.18-.575v-.206c.03-.281.13-.55.29-.788.15-.237.36-.436.6-.583a1.714 1.714 0 011.37.219 8.228 8.228 0 012.32 1.933c.89.946 1.72 1.933 2.54 2.92.62.755 1.22 1.509 1.81 2.276.43.535 1.37 0 1.15-.658-.31-.923-.74-1.807-1.26-2.632-.55-.836-1.14-1.659-1.63-2.536a13.726 13.726 0 01-2.06-5.841 7.847 7.847 0 010-1.371c0-.303.04-.606.1-.904.34-.343 1.37.274 1.66.438 1.5 1.047 2.7 2.464 3.5 4.113 1.24 2.14 2.3 4.383 3.17 6.704l1.24-.521c-1.18-2.577-2.37-5.145-3.56-7.705-.41-.765-.72-1.575-.94-2.412-.18-.817-.29-1.647-.33-2.482-.12-.726-.06-1.47.18-2.166.37-.74 1.37-.411 1.9-.082a10.192 10.192 0 013.63 4.387c1.04 1.974 1.9 4.113 3.03 5.977.33.549 1.38.357 1.28-.343-.33-3.866-1.66-7.567-1.96-11.433-.08-.974.27-2.742 1.37-3.016a.886.886 0 01.7.109c.26.151.51.341.71.562 1.31 1.532 2.31 3.3 2.95 5.21a76.661 76.661 0 012.65 7.801c.81 2.865 1.53 5.744 2.18 8.637 0 .182.08.356.2.484.13.129.31.201.49.201s.36-.072.48-.201a.686.686 0 00.21-.484c.74-2.276.98-4.661 1.59-6.978a8.481 8.481 0 013.08-5.073c.63-.507 1.4-.804 2.2-.85.54 0 1.25.343 1.37.864.06.696 0 1.397-.19 2.07-.18.973-.43 1.933-.64 2.893a47.451 47.451 0 00-.95 14.888 71.97 71.97 0 001.1 7.732 20.819 20.819 0 002.33 5.937 33.873 33.873 0 008.55 10.433 43.696 43.696 0 0012.1 6.58 45.844 45.844 0 0027.44.864c9.24-2.468 17.7-7.198 25.8-12.174l3.04-1.892c.75-.466 0-1.645-.7-1.179" fill="#335137"/><path d="M1383.4 458.141c-.4 2.549-.6 5.125-.61 7.705 0 .12.05.235.14.32.08.084.2.132.32.132s.23-.048.32-.132c.08-.085.13-.2.13-.32 0-2.502.19-5 .58-7.472.09-.576-.79-.823-.88-.233z" fill="#335137"/><path d="M1508.26 464.42c10.69 27.186 27.28 51.726 46.08 74.031 5.87 6.979 12.11 13.888 20.05 18.385a55.422 55.422 0 016.97 4.113 16.526 16.526 0 015.55 8.13c.33.794.36 1.678.1 2.495-.07.196-.19.374-.34.524a1.39 1.39 0 01-.52.341c-.19.077-.4.111-.61.101a1.444 1.444 0 01-.6-.157 2.264 2.264 0 01-.55-.672c-1.25-2.043-2.51-4.113-3.76-6.101 2.66 3.811 5.42 8.39 4.02 12.819-.19.589-.55 1.233-1.17 1.37-.61.138-1.18-.575-1.53-1.151l-6.05-9.597 4.11 8.226c.61 1.15.95 2.418 1.02 3.715.01.571-.18 1.129-.53 1.575a2.44 2.44 0 01-1.42.865c-1.57.124-2.66-1.453-3.32-2.879a22.09 22.09 0 00-4.61-7.129c2.85 4.017 6.6 12.202 4.35 13.546-2.03 2.097-9.88-8.075-12.35-13.888-.25 2.906-1.99 7.924-4.72 8.102-1.14.206-1.21-.658-1.37-1.755-.17-1.096-.37-2.234-.42-3.4-.19-5.36-.59-10.967-3.26-15.574a40.49 40.49 0 00-6.99-8.088c-10.59-10.543-26-26.213-32.43-39.676-3.63-7.581-5.86-8.98-10.23-16.163-3.34-5.484-1.55-13.71-4.11-19.646-.93-2.18-1.54-4.963 0-6.704 1.27-1.371 3.36-1.481 5.17-1.974 1.81-.494 3.75-2.098 3.16-3.88" fill="#3BB87D"/><path d="M1507.54 464.598a214.94 214.94 0 0012.17 25.733c4.6 8.291 9.63 16.331 15.09 24.088a370.928 370.928 0 0017.3 22.579c6.07 7.307 12.02 14.286 19.87 19.303 3.93 2.495 8.45 4.113 11.44 7.815 1.41 1.7 2.4 3.697 2.91 5.84.09.263.12.542.1.818-.03.276-.11.544-.25.786-.2.288-.66.535-.99.288a5.5 5.5 0 01-.93-1.44l-1.12-1.823c-.66-1.083-1.38-2.166-2.01-3.249l-1.18.685c2.36 3.387 5.27 7.76 4.01 12.092-.1.316-.27 1.028-.71 1.015-.44-.014-.65-.576-.8-.809-.71-1.083-1.37-2.18-2.06-3.277l-3.99-6.333a.694.694 0 00-.41-.268.697.697 0 00-.49.078.667.667 0 00-.31.384.694.694 0 00.03.491c.99 1.974 1.97 3.948 2.95 5.922a14.364 14.364 0 012.04 5.279c.05.359-.01.723-.15 1.056-.13.334-.36.626-.64.849-.32.167-.69.217-1.04.141-.35-.075-.66-.27-.88-.552a16.325 16.325 0 01-2.46-4.36 17.543 17.543 0 00-3.53-4.853c-.54-.493-1.55.165-1.08.836a34.083 34.083 0 013.79 7.02c.47 1.12.83 2.287 1.05 3.482.18.663.14 1.366-.12 2.002a1.61 1.61 0 01-.3.26c.07 0-.11 0 0 0s-.18 0 0 0h-.17l-.33-.096a6.684 6.684 0 01-1.81-1.234 32.202 32.202 0 01-4.68-5.484c-1.62-2.203-3-4.575-4.11-7.074-.29-.699-1.22-.246-1.28.343a13.099 13.099 0 01-1.85 5.662c-.39.722-1 1.302-1.74 1.659-.2.068-.7.233-.88.082-.18-.151-.22-1.042-.25-1.289-.19-1.494-.37-2.947-.44-4.441-.07-1.495-.15-2.852-.3-4.264a28.629 28.629 0 00-1.84-7.952c-2.06-5.072-6.3-8.678-10.07-12.462-3.54-3.55-7.05-7.129-10.47-10.803-7.05-7.417-14.01-15.368-18.89-24.416-1.18-2.167-2.17-4.429-3.42-6.567a59.13 59.13 0 00-3.5-5.251c-1.37-1.906-2.74-3.811-3.95-5.786a16.515 16.515 0 01-1.7-3.386 23.038 23.038 0 01-.8-3.578c-.35-2.468-.42-4.977-.71-7.444a26.892 26.892 0 00-.62-3.674c-.29-1.166-.78-2.249-1.16-3.387-.75-2.18-.91-4.867 1.59-5.909 1.16-.376 2.35-.683 3.55-.918a5.947 5.947 0 002.9-1.755c.36-.39.62-.866.75-1.384.13-.518.13-1.06 0-1.577a.724.724 0 00-.33-.431.708.708 0 00-.97.262.68.68 0 00-.07.539c.34 1.165-.7 2.084-1.63 2.605-1.15.484-2.35.825-3.57 1.014a5.71 5.71 0 00-3.06 1.687 4.822 4.822 0 00-1.09 3.194c0 2.509 1.38 4.73 1.9 7.143.43 2.536.71 5.095.85 7.663.12 2.496.62 4.959 1.48 7.307a34.698 34.698 0 004.12 6.622c1.2 1.7 2.47 3.386 3.61 5.141a63.932 63.932 0 013.7 6.745 78.785 78.785 0 008.07 12.599c3.29 4.346 6.86 8.487 10.54 12.517 3.67 4.031 7.15 7.595 10.84 11.283 1.78 1.81 3.62 3.578 5.39 5.402a24.106 24.106 0 015.14 7.047 26.948 26.948 0 012.01 8.335c.13 1.439.22 2.906.29 4.36.06 1.453.27 2.933.46 4.414.11.877.24 1.974 1.26 2.248.45.078.91.06 1.35-.054a3.25 3.25 0 001.21-.604 9.876 9.876 0 003.04-5.223c.27-.941.46-1.905.55-2.879l-1.27.343a37.298 37.298 0 003.99 6.855 32.892 32.892 0 005.12 5.977c1.09.96 2.74 2.331 4.24 1.22a2.863 2.863 0 00.93-2.18 11.084 11.084 0 00-.69-3.509 34.265 34.265 0 00-4.43-8.747l-1.08.836a17.243 17.243 0 013.58 5.1c.84 1.618 1.45 3.592 3.06 4.634a2.742 2.742 0 003.48-.42c.3-.309.51-.682.64-1.088.69-1.823-.29-3.99-1.1-5.621l-3.87-7.746-1.18.686 3.73 5.936 1.8 2.865c.39.84 1 1.562 1.75 2.098 2.01 1.042 2.86-1.7 3.04-3.112.2-1.945-.11-3.909-.88-5.704a30.985 30.985 0 00-3.53-6.141c-.49-.713-1.64-.069-1.18.685l2.13 3.455 1.07 1.727c.28.524.6 1.024.96 1.495.32.341.75.555 1.22.603.47.048.93-.074 1.32-.343.43-.303.76-.722.96-1.208.19-.486.25-1.019.15-1.534a14.09 14.09 0 00-2.61-6.128 17.759 17.759 0 00-4.9-4.661c-2.07-1.371-4.33-2.372-6.45-3.633a48.574 48.574 0 01-5.83-4.113 87.442 87.442 0 01-10.14-10.09c-6.45-7.362-12.54-15.081-18.32-22.978a283.911 283.911 0 01-16.1-24.622 224.579 224.579 0 01-13.11-26.322c-.46-1.125-.92-2.262-1.37-3.4-.32-.809-1.65-.466-1.37.356" fill="#335137"/><path d="M1604.61 368.947c0 23.533-6.98 46.537-20.07 66.104a119.03 119.03 0 01-53.44 43.824 119.204 119.204 0 01-68.81 6.771 119.1 119.1 0 01-60.97-32.564 118.879 118.879 0 01-32.59-60.923 118.875 118.875 0 016.77-68.746 119.026 119.026 0 0143.87-53.399 119.133 119.133 0 0166.16-20.053c31.58 0 61.87 12.536 84.2 34.85a118.906 118.906 0 0134.88 84.136z" fill="#D4AC2A"/><path d="M1489.56 608.795s-.07 2.249-.18 6.032c0 1.536-.09 3.332-.16 5.334-.67 23.635-2.2 75.279-2.2 75.251 0 2.509.54 2.866-1.07 6.074-2.04 4.113-7.44 8.705-21.36 8.705-18.24 0-27.91-.109-31.93-3.249-.51-.439-.9-.996-1.14-1.62a4.23 4.23 0 01-.25-1.962 4.128 4.128 0 012.18-3.163c7.56-3.866 25.47-15.588 26.51-35.508.85-16.205 1.47-35.357 1.8-46.791 0-2.056.12-3.852.17-5.333v-1.302c0-2.18.08-3.414.08-3.414a81.235 81.235 0 0027.44.933" fill="#4F745E"/><path d="M1464.59 710.945c-18.92 0-28.2-.151-32.37-3.414a4.516 4.516 0 01-1.4-1.831c-.3-.72-.42-1.505-.33-2.281a4.82 4.82 0 01.81-2.287 4.952 4.952 0 011.82-1.607c23.15-11.845 25.84-29.708 26.08-34.904.63-12.051 1.23-27.79 1.79-46.764l.17-5.346v-1.275c0-2.194.07-3.428.07-3.428v-.713h.92a80.36 80.36 0 0027.2.905l.86-.123-.28 9.062c0 .987 0 2.056-.1 3.18-.32 11.818-.89 30.627-1.37 46.489l-.83 28.174v1.933a7.946 7.946 0 01-1.13 4.921l-.08.165c-2.07 4.113-7.59 9.117-21.96 9.117l.13.027zm-1.96-102.205v3.908l-.16 5.333c-.57 18.987-1.18 34.726-1.81 46.804-.45 8.802-4.11 16.959-10.97 24.225a60.464 60.464 0 01-15.91 11.886 3.443 3.443 0 00-1.84 2.742c-.05.518.03 1.043.23 1.522.21.48.53.9.94 1.22 3.79 2.961 13.39 3.098 31.48 3.098 13.53 0 18.7-4.414 20.58-8.225v-.151a6.535 6.535 0 001.06-4.319v-1.371c0-.164 1.51-51.273 2.19-75.279 0-1.138 0-2.193.1-3.181l.22-7.348a83.57 83.57 0 01-26.07-.85" fill="#335137"/><path d="M1552.75 705.366c-4.02 3.125-17.84 4.112-36.08 4.839-24.69 1.001-21.87-11.667-22.43-14.806-.08-1.07-2.81-51.987-4.12-75.252-.11-2.002-.2-3.798-.29-5.333l-.32-6.019c15.25 2.084 23.17-.781 23.17-.781s.11 1.522.37 4.209c.12 1.439.3 3.235.51 5.305 1.07 10.378 3.16 27.927 6.59 46.023 5.59 19.276 1.15 23.101 15.67 23.786 11.8.576 19.21 16.233 16.87 18.029" fill="#4F745E"/><path d="M1514.03 711c-7.84 0-13.45-1.536-16.74-4.565a12.58 12.58 0 01-3.67-9.597c0-.459-.03-.917-.09-1.371v-.082c-.09-1.124-2.97-54.715-4.12-75.266-.11-2.001-.21-3.797-.29-5.346-.19-3.757-.33-6.005-.33-6.005v-.891l.88.123c14.86 2.029 22.76-.713 22.83-.74l.91-.329v.959s.11 1.522.37 4.196c.12 1.466.3 3.345.51 5.305 1.15 11.256 3.23 28.365 6.58 45.955 1.47 5.072 2.24 9.075 2.87 12.338 1.66 8.637 2.02 10.433 12.1 10.968 4.45.389 8.59 2.417 11.62 5.689a24.997 24.997 0 015.9 9.35c.48 1.494.84 3.455-.21 4.291-4 3.099-16.4 4.182-36.5 4.99-.92 0-1.81.069-2.75.069l.13-.041zm-19.19-15.643c.07.505.11 1.013.11 1.522.1 2.303.24 5.786 3.2 8.527 3.35 3.085 9.54 4.47 18.37 4.113 15.81-.644 31.56-1.535 35.68-4.675.09-.082.36-.809-.26-2.742-1.73-5.483-8.08-13.627-16.21-14.024-11.24-.535-11.76-3.208-13.47-12.092-.62-3.181-1.37-7.143-2.86-12.215-3.36-17.699-5.48-34.864-6.61-46.161-.19-1.96-.38-3.838-.51-5.319-.12-1.48-.23-2.591-.29-3.304-2.44.658-9.72 2.18-21.74.658 0 .974.15 2.742.27 5.141.08 1.536.18 3.332.29 5.333 1.52 28.338 3.95 73.511 4.12 75.211" fill="#335137"/><path d="M1513.24 612.182h-.13a124.961 124.961 0 01-23.07 2.604h-.15l-.33-6.018s-.07 2.248-.18 6.032h-2.8c-8.28.032-16.55-.73-24.7-2.276v-1.302c0-1.234.09-2.386.11-3.414.09-3.359.13-5.333.13-5.333a79.827 79.827 0 0027.23.919c15.1 2.084 22.93-.782 22.93-.782s.28 3.592.88 9.515" fill="#335137"/><path d="M1509.92 455.234c0 49.218 33.61 141.853 30.6 145.089-3 3.235-11.8 11.324-54.57 11.324-42.77 0-51.56-8.089-54.57-11.324-3-3.236 30.6-95.871 30.6-145.089" fill="#4F745E"/><path d="M1485.95 612.373c-44.36 0-52.44-8.705-55.1-11.557-1.2-1.275.35-7.362 6.98-30.764 9.33-32.903 23.42-82.765 23.42-114.817h1.46c0 32.244-14.14 82.175-23.48 115.16-4.21 14.888-7.85 27.762-7.27 29.421 6.86 7.32 25.03 11.036 53.99 11.036 28.97 0 47.12-3.716 54-11.036.57-1.659-3.06-14.533-7.28-29.407-9.34-33.041-23.47-82.971-23.47-115.229h1.45c0 32.053 14.09 81.859 23.42 114.831 6.63 23.388 8.24 29.475 6.99 30.75-10.75 11.558-44.13 11.558-55.11 11.558" fill="#335137"/><path d="M1594.35 368.974a108.08 108.08 0 01-18.24 60.099 108.219 108.219 0 01-48.58 39.845 108.344 108.344 0 01-117.99-23.439 108.162 108.162 0 01-29.63-55.384 108.014 108.014 0 016.16-62.498 108.181 108.181 0 0139.87-48.547 108.333 108.333 0 0160.15-18.231 108.272 108.272 0 0176.55 31.673 108.089 108.089 0 0131.71 76.482z" fill="#AC8A2F"/><path d="M1591.29 368.947c0 20.9-6.2 41.331-17.82 58.708a105.779 105.779 0 01-47.47 38.921 105.853 105.853 0 01-61.11 6.013 105.796 105.796 0 01-54.15-28.92 105.73 105.73 0 01-28.95-54.107 105.638 105.638 0 016.02-61.055 105.696 105.696 0 0138.96-47.425 105.824 105.824 0 0158.76-17.809 105.79 105.79 0 0174.78 30.951 105.608 105.608 0 0130.98 74.723z" fill="#E8D16E"/><path d="M1585.18 372.744c0 53.275-45 96.46-100.52 96.46-55.51 0-100.52-43.185-100.52-96.46 0-53.275 45.01-96.46 100.52-96.46 55.52 0 100.52 43.185 100.52 96.46z" fill="#F8E876"/><path d="M1399.67 340.061s21.24-24.17 50.32-21.524c0 0-31.84-8.432-50.32 21.524zm108.88-19.029s34.3-13.628 55.85 14.025c0 0-16.7-34.274-55.85-14.025zm60.9 37.235l-4.64-.137c-.7 1.288-16.93 30.572-44.9 28.063a35.167 35.167 0 01-22.9-11.749l-3.15 1.056s7.76-33.794 38.42-35.275c26.41-1.261 37.23 18.014 37.23 18.014m-174.63 5.512l4.64-.137c.7 1.288 16.93 30.572 44.9 28.063a35.24 35.24 0 0022.9-11.749l3.15 1.056s-7.76-33.795-38.42-35.275c-26.41-1.261-37.24 18.014-37.24 18.014" fill="#AC8A2F"/><path d="M1564.82 358.102c-.7 1.289-16.93 30.573-44.89 28.064a35.242 35.242 0 01-22.91-11.736s10.98-27.789 34.42-29.845c23.43-2.057 33.44 13.517 33.44 13.517m-165.17 5.594l-2.82 5.689c.7 1.289 19.8 24.924 47.75 22.415a35.2 35.2 0 0022.9-11.749s-10.98-27.789-34.42-29.845c-23.43-2.057-33.43 13.503-33.43 13.503" fill="#fff"/><path d="M1542.87 365.149a19.208 19.208 0 01-24.47 16.848 19.213 19.213 0 01-13.77-16.315c-.42-3.776.29-7.592 2.04-10.964a19.214 19.214 0 017.8-7.98 19.214 19.214 0 0123.94 4.445 19.18 19.18 0 014.46 13.966z" fill="#8EC45D"/><path d="M1523.8 383.095c-.57 0-1.13 0-1.69-.069a19.608 19.608 0 01-13.2-6.716 19.577 19.577 0 01-4.73-14.023 19.612 19.612 0 016.43-13.329 19.624 19.624 0 0127.41 1.113 19.551 19.551 0 015.33 13.807 19.608 19.608 0 01-5.85 13.593 19.634 19.634 0 01-13.7 5.624zm0-38.318a18.854 18.854 0 00-18.75 17.205 18.836 18.836 0 004.38 13.712 18.85 18.85 0 0012.81 6.599 18.83 18.83 0 0013.72-4.379 18.832 18.832 0 006.61-12.792 18.816 18.816 0 00-4.38-13.701 18.835 18.835 0 00-12.78-6.617c-.53-.027-1.07-.027-1.6 0" fill="#231F20"/><path d="M1533.85 364.23a10.342 10.342 0 01-2.23 5.592 10.367 10.367 0 01-16.03.216 10.318 10.318 0 01-2.38-5.529c-.23-2.037.15-4.096 1.09-5.917a10.404 10.404 0 014.21-4.311 10.35 10.35 0 015.89-1.251c2.74.233 5.27 1.545 7.05 3.645 1.77 2.1 2.63 4.818 2.4 7.555z" fill="#221011"/><path d="M1537.83 361.653c-3.89 1.152-7.68 0-8.42-2.536-.74-2.536 1.79-5.484 5.71-6.704 3.91-1.22 7.67 0 8.42 2.55s-1.8 5.484-5.71 6.69z" fill="#fff"/><path d="M1419.68 372.84a19.133 19.133 0 005.33 9.801 19.224 19.224 0 009.88 5.184c3.74.712 7.6.299 11.11-1.185a19.173 19.173 0 008.56-7.153 19.112 19.112 0 003.14-10.705c-.04-3.8-1.2-7.503-3.35-10.641a19.16 19.16 0 00-8.7-6.983 19.247 19.247 0 00-11.13-.966 19.193 19.193 0 00-12.1 8.268 19.18 19.18 0 00-2.74 14.394" fill="#8EC45D"/><path d="M1438.41 388.469a19.593 19.593 0 01-13.5-5.362 19.57 19.57 0 01-6.1-13.174 19.64 19.64 0 014.66-13.747 19.618 19.618 0 0126.84-2.827 19.563 19.563 0 017.42 12.474 19.515 19.515 0 01-3.21 14.154 19.582 19.582 0 01-12.08 8.057c-1.32.283-2.68.426-4.03.425zm-18.38-15.697a18.834 18.834 0 005.24 9.575 18.822 18.822 0 0028.92-3.117 18.727 18.727 0 003.07-10.472 18.72 18.72 0 00-3.27-10.413 18.762 18.762 0 00-8.5-6.843 18.838 18.838 0 00-10.88-.967 18.695 18.695 0 00-6.79 2.837 18.72 18.72 0 00-5.16 5.235 18.716 18.716 0 00-2.73 6.818c-.46 2.432-.42 4.929.1 7.347z" fill="#231F20"/><path d="M1428.53 370.838a10.3 10.3 0 002.89 5.27 10.33 10.33 0 005.33 2.779c2.01.379 4.09.154 5.98-.648a10.425 10.425 0 004.61-3.856 10.352 10.352 0 001.69-5.765 10.381 10.381 0 00-1.8-5.733 10.407 10.407 0 00-4.69-3.768 10.37 10.37 0 00-5.99-.535 10.337 10.337 0 00-6.55 4.466 10.22 10.22 0 00-1.51 3.749c-.26 1.337-.24 2.71.04 4.041z" fill="#221011"/><path d="M1423.67 368.631c3.9 1.166 7.67 0 8.44-2.495.77-2.495-1.78-5.566-5.68-6.731-3.9-1.166-7.67 0-8.44 2.509-.77 2.508 1.78 5.483 5.68 6.717z" fill="#fff"/><path d="M1395.27 373.101s16.46 20.249 40.65 20.728c24.19.48 33.7-16.602 33.7-16.602l-3.26-.672a35.278 35.278 0 01-21.33 14.423c-27.44 5.867-47.1-21.25-47.95-22.443l-1.81 4.566z" fill="#E8D16E"/><path d="M1489.22 620.16c-.67 23.636-2.18 75.252-2.2 75.252.29 2.087-.09 4.21-1.07 6.074 1.25-12.339.67-86.631.67-86.631h2.75c0 1.535-.1 3.331-.17 5.333" fill="#335137"/><path d="M1477.62 383.095a23.388 23.388 0 01-4.11 11.42c-1.16 1.714-2.83 3.276-3.06 5.484-.05.968.14 1.933.55 2.813.4.881 1.01 1.651 1.78 2.246a14.334 14.334 0 006.54 2.481c.24.06.48.028.69-.09a.935.935 0 00.44-.541.927.927 0 00-.09-.691.89.89 0 00-.54-.433 14.257 14.257 0 01-5.49-1.837 4.311 4.311 0 01-1.59-1.699 4.18 4.18 0 01-.45-2.277c.25-.92.72-1.766 1.37-2.467.6-.782 1.19-1.577 1.73-2.413a29.638 29.638 0 002.74-5.347 22.224 22.224 0 001.32-6.649c.08-1.166-1.74-1.166-1.83 0z" fill="#AC8A2F"/><path d="M1472.09 425.307c-1.74 0 5.33 12.338 12.12 13.408 1.44.281 2.93.133 4.28-.426a8.829 8.829 0 002.98-2.741c3.3-4.32 5.44-9.421 6.19-14.807.06-.196.06-.407 0-.603-.25-.494-1.01-.315-1.5 0 0 0-17.55 5.141-24.03 5.169" fill="#D3957B"/><path d="M1497 374.458a54.316 54.316 0 0111.26-18.179 38.443 38.443 0 0118.2-11.16 36.456 36.456 0 0121.32.466 37.413 37.413 0 019.61 4.908 27.76 27.76 0 017.46 7.65 25.7 25.7 0 00-3.49-4.112 33.89 33.89 0 00-4.11-3.318 37.095 37.095 0 00-9.61-4.661 35.23 35.23 0 00-10.45-1.7c-.89-.028-1.78 0-2.66.082l-1.38.068c-.44 0-.87.124-1.37.179l-2.62.425-2.58.644a35.366 35.366 0 00-9.73 4.113c-1.5.944-2.95 1.978-4.33 3.098a50.076 50.076 0 00-3.93 3.592 54.114 54.114 0 00-6.63 8.349 57.135 57.135 0 00-5 9.446m-30.6 2.166a56.153 56.153 0 00-6.11-8.774 54.558 54.558 0 00-7.59-7.499 53.439 53.439 0 00-4.33-3.098 43.212 43.212 0 00-4.67-2.55 35.316 35.316 0 00-10.16-2.948l-2.65-.343c-.88 0-1.77 0-2.65-.082h-1.37l-1.38.082c-.88.034-1.76.117-2.63.247a35.101 35.101 0 00-10.18 2.948 36.73 36.73 0 00-8.91 5.785 34.758 34.758 0 00-3.76 3.798 25.67 25.67 0 00-2.85 4.4c1.6-3.223 3.8-6.109 6.49-8.499a37.287 37.287 0 018.92-6.019 36.282 36.282 0 0121.1-3.03 38.303 38.303 0 0119.38 8.857 54.278 54.278 0 0113.35 16.698" fill="#010101"/></svg>