<svg width="1920" height="1120" fill="none" xmlns="http://www.w3.org/2000/svg"><mask id="a" maskUnits="userSpaceOnUse" x="0" y="0" width="1920" height="1120"><path d="M0 0h1920v1120s-504.5-37.5-960-37.5S0 1120 0 1120V0z" fill="#E7F2F0"/></mask><g mask="url(#a)"><path d="M0 0h1920v1120s-504.5-37.5-960-37.5S0 1120 0 1120V0z" fill="#E7F2F0"/><path d="M1682 234c-3.11-12.384-15.22-21.633-29.68-21.633-2.59.006-5.18.309-7.69.905a44.98 44.98 0 00-16.95-17.481 45.67 45.67 0 00-23.69-6.184 49.03 49.03 0 00-13.41 1.855 56.098 56.098 0 00-20.47-18.089 56.848 56.848 0 00-26.7-6.371c-23.92 0-44.26 13.864-51.97 33.29a40.605 40.605 0 00-18.44-4.415c-20.97 0-38 15.452-38 34.701 0 1.126 0 2.208.18 3.378L1682 234zM201 421c-3.107-12.384-15.222-21.633-29.685-21.633-2.59.006-5.17.309-7.689.905a44.914 44.914 0 00-16.946-17.481 45.672 45.672 0 00-23.692-6.184 49.07 49.07 0 00-13.412 1.855 56.045 56.045 0 00-20.466-18.089 56.854 56.854 0 00-26.698-6.371c-23.918 0-44.26 13.864-51.97 33.29A40.632 40.632 0 00-8 382.877c-20.967 0-38 15.452-38 34.701 0 1.126 0 2.208.179 3.378L201 421zm1489-31c3.64-14.788 17.87-25.817 34.75-25.817 3.01.007 6.01.369 8.93 1.08a53.06 53.06 0 0119.82-20.875 52.486 52.486 0 0127.71-7.373c5.29.004 10.56.762 15.64 2.251a65.886 65.886 0 0124.02-21.686 65.396 65.396 0 0131.36-7.575c27.97 0 51.8 16.566 60.82 39.75a46.771 46.771 0 0121.57-5.222c24.57 0 44.38 18.547 44.38 41.438 0 1.346-.07 2.69-.2 4.029H1690z" fill="#fff"/></g></svg>