<svg width="1920" height="1120" fill="none" xmlns="http://www.w3.org/2000/svg"><mask id="a" maskUnits="userSpaceOnUse" x="0" y="0" width="1920" height="1120"><path d="M0 0h1920v1120s-603-50-960-50-960 50-960 50V0z" fill="#E7F2F0"/></mask><g mask="url(#a)"><path d="M0 0h1920v1120s-603-50-960-50-960 50-960 50V0z" fill="#E7F2F0"/><path fill-rule="evenodd" clip-rule="evenodd" d="M14.244 298.751c52.944 6.428 111.15-9.54 156.107 19.109 44.643 28.449 46.359 93.617 82.068 132.668 49.071 53.666 148.137 66.555 164.785 137.295 15.659 66.534-37.204 136.915-90.018 180.395-49.266 40.558-126.311 14.976-182.981 44.353-52.842 27.393-71.433 106.957-129.961 117.872-57.827 10.784-108.882-37.036-161.38-63.539-55.391-27.964-114.052-50.28-155.481-96.427-46.665-51.979-110.362-114.541-95.066-182.654 16.256-72.386 123.263-81.33 167.699-140.784 36.921-49.398 11.799-137.925 64.544-169.95 52.44-31.841 118.757 14.264 179.684 21.662z" fill="#D6EEEC"/><path fill-rule="evenodd" clip-rule="evenodd" d="M14.244 298.751c52.944 6.428 111.15-9.54 156.107 19.109 44.643 28.449 46.359 93.617 82.068 132.668 49.071 53.666 148.137 66.555 164.785 137.295 15.659 66.534-37.204 136.915-90.018 180.395-49.266 40.558-126.311 14.976-182.981 44.353-52.842 27.393-71.433 106.957-129.961 117.872-57.827 10.784-108.882-37.036-161.38-63.539-55.391-27.964-114.052-50.28-155.481-96.427-46.665-51.979-110.362-114.541-95.066-182.654 16.256-72.386 123.263-81.33 167.699-140.784 36.921-49.398 11.799-137.925 64.544-169.95 52.44-31.841 118.757 14.264 179.684 21.662zm1772.996 76c52.95 6.428 111.15-9.54 156.11 19.109 44.64 28.449 46.36 93.617 82.07 132.668 49.07 53.666 148.14 66.555 164.78 137.295 15.66 66.534-37.2 136.915-90.01 180.395-49.27 40.558-126.31 14.976-182.98 44.353-52.85 27.393-71.44 106.957-129.97 117.869-57.82 10.79-108.88-37.033-161.38-63.536-55.39-27.964-114.05-50.28-155.48-96.427-46.66-51.979-110.36-114.541-95.06-182.654 16.25-72.386 123.26-81.33 167.7-140.784 36.92-49.398 11.79-137.925 64.54-169.95 52.44-31.841 118.76 14.264 179.68 21.662z" fill="#D6EEEC"/><path d="M1920 324c-3.22-12.939-15.78-22.602-30.77-22.602a34.75 34.75 0 00-7.97.945 46.723 46.723 0 00-17.56-18.263 47.033 47.033 0 00-24.55-6.461c-4.71-.004-9.39.648-13.9 1.938a58.311 58.311 0 00-21.22-18.899 58.523 58.523 0 00-27.67-6.655c-24.79 0-45.87 14.483-53.86 34.779a41.876 41.876 0 00-19.12-4.612c-21.73 0-39.38 16.144-39.38 36.255 0 1.176 0 2.307.19 3.529L1920 324zM288 217c-2.616-10.536-12.819-18.405-24.998-18.405a28.238 28.238 0 00-6.475.77 38.021 38.021 0 00-14.271-14.871 38.145 38.145 0 00-19.95-5.261 40.89 40.89 0 00-11.294 1.578 47.367 47.367 0 00-17.235-15.39 47.495 47.495 0 00-22.483-5.419c-20.141 0-37.27 11.794-43.765 28.321A33.923 33.923 0 00112 184.567c-17.656 0-32 13.146-32 29.522 0 .958 0 1.878.15 2.873L288 217z" fill="#fff"/></g></svg>