<svg width="1920" height="900" fill="none" xmlns="http://www.w3.org/2000/svg"><mask id="a" maskUnits="userSpaceOnUse" x="0" y="0" width="1920" height="900"><path d="M0 0h1920v840s-603 60-960 60S0 840 0 840V0z" fill="#FEF8E4"/></mask><g mask="url(#a)"><path d="M0-10h1920v840s-603 60-960 60S0 830 0 830V-10z" fill="#FEF8E4"/><path fill-rule="evenodd" clip-rule="evenodd" d="M119.316 95.311c54.816 3.047 114.307 4.878 157.043 39.324 41.579 33.513 45.14 93.756 67.956 142.028 20.758 43.92 63.519 81.351 60.537 129.834-2.973 48.331-55.188 77.19-75.96 120.935-23.185 48.824-18.26 108.828-52.863 150.357-40.485 48.59-93.471 102.869-156.713 101.172-63.488-1.704-108.161-63.458-151.93-109.455-35.506-37.314-45.329-90.263-76.863-130.985-38.003-49.078-118.388-70.537-126.799-132.024-8.168-59.707 54.773-104.093 87.583-154.653 31.109-47.938 51.186-106.42 100.545-135.249C1.278 87.728 62.158 92.134 119.316 95.311z" fill="#FAF0D0"/><path d="M289 409c-3.22-12.939-15.777-22.602-30.766-22.602a34.724 34.724 0 00-7.97.945A46.747 46.747 0 00232.7 369.08a47.034 47.034 0 00-24.554-6.461 50.496 50.496 0 00-13.901 1.938 58.239 58.239 0 00-21.212-18.899 58.543 58.543 0 00-27.671-6.655c-24.789 0-45.871 14.483-53.864 34.779a41.852 41.852 0 00-19.113-4.612C50.654 369.17 33 385.314 33 405.425c0 1.176 0 2.307.185 3.529L289 409z" fill="#fff"/><path fill-rule="evenodd" clip-rule="evenodd" d="M2016.34 210.146c50.97 2.83 106.3 4.53 146.04 36.515 38.66 31.12 41.97 87.059 63.19 131.883 19.3 40.783 59.06 75.541 56.29 120.561-2.76 44.878-51.32 71.676-70.63 112.296-21.56 45.337-16.98 101.055-49.16 139.618-37.65 45.119-86.92 95.521-145.73 93.945-59.04-1.582-100.58-58.926-141.28-101.637-33.02-34.648-42.15-83.815-71.48-121.629-35.33-45.573-110.09-65.498-117.91-122.593-7.59-55.443 50.94-96.659 81.45-143.607 28.93-44.514 47.6-98.819 93.49-125.588 45.97-26.806 102.58-22.715 155.73-19.764z" fill="#FAF0D0"/><path d="M1920 377c-3.22-12.939-15.78-22.602-30.77-22.602a34.75 34.75 0 00-7.97.945 46.723 46.723 0 00-17.56-18.263 47.033 47.033 0 00-24.55-6.461c-4.71-.004-9.39.648-13.9 1.938a58.311 58.311 0 00-21.22-18.899 58.523 58.523 0 00-27.67-6.655c-24.79 0-45.87 14.483-53.86 34.779a41.876 41.876 0 00-19.12-4.612c-21.73 0-39.38 16.144-39.38 36.255 0 1.176 0 2.307.19 3.529L1920 377z" fill="#fff"/></g></svg>