<svg width="1920" height="900" fill="none" xmlns="http://www.w3.org/2000/svg"><mask id="a" maskUnits="userSpaceOnUse" x="0" y="0" width="1920" height="900"><path d="M0 0h1920v840s-603 60-960 60S0 840 0 840V0z" fill="#FEF8E4"/></mask><g mask="url(#a)"><path d="M0 0h1920v840s-603 60-960 60S0 840 0 840V0z" fill="#FEF8E4"/><path fill-rule="evenodd" clip-rule="evenodd" d="M54.34 163.146c50.974 2.83 106.295 4.53 146.036 36.515 38.665 31.12 41.976 87.059 63.192 131.883 19.304 40.783 59.067 75.541 56.294 120.561-2.764 44.878-51.32 71.676-70.636 112.296-21.559 45.337-16.979 101.055-49.157 139.618-37.647 45.119-86.919 95.521-145.729 93.945-59.037-1.582-100.58-58.926-141.28-101.637-33.017-34.648-42.151-83.815-71.475-121.629-35.34-45.573-110.09-65.498-117.912-122.593-7.595-55.443 50.934-96.659 81.444-143.607 28.929-44.514 47.598-98.819 93.498-125.588 45.96-26.806 102.574-22.715 155.725-19.764zm1820 0c50.97 2.83 106.3 4.53 146.04 36.515 38.66 31.12 41.97 87.059 63.19 131.883 19.3 40.783 59.06 75.541 56.29 120.561-2.76 44.878-51.32 71.676-70.63 112.296-21.56 45.337-16.98 101.055-49.16 139.618-37.65 45.119-86.92 95.521-145.73 93.945-59.04-1.582-100.58-58.926-141.28-101.637-33.02-34.648-42.15-83.815-71.48-121.629-35.33-45.573-110.09-65.498-117.91-122.593-7.59-55.443 50.94-96.659 81.45-143.607 28.93-44.514 47.6-98.819 93.49-125.588 45.97-26.806 102.58-22.715 155.73-19.764z" fill="#FAF0D0"/></g></svg>