<svg width="722" height="549" fill="none" xmlns="http://www.w3.org/2000/svg"><g clip-path="url(#clip0)"><path opacity=".47" d="M671.407 279.753c-3.154-36.261-18.314-72.56-44.57-98.504-40.923-40.434-102.801-50.637-157.042-41.287-22.798 3.926-45.254 10.848-68.509 8.667-33.931-3.186-63.816-24.996-94.707-41.003-42.044-21.771-90.243-33.492-134.889-24.028-50.745 10.753-92.295 51.338-97.254 105.18-2.26 24.408 20.576 67.383 13.3 90.52-7.315 23.441-60.663 95.28-59.352 149.824 1.31 54.543 13.603 71.365 30.967 99.035h513.72c43.602 0 74.512-43.923 60.358-86.158-.133-.379-.247-.74-.38-1.1-10.107-29.415 17.365-53.652 28.004-81.019 9.594-24.199 12.653-53.576 10.354-80.127z" fill="#FAF0D0"/><path d="M27.947 287.795c-6.08-13.447-1.35-29.927 10.582-36.793 11.93-6.865 34.805-6.353 40.904 7.15 6.098 13.503-12.273 24.939-19.778 37.437-10.449 17.448-25.61 5.652-31.708-7.794zM535.549 26.551c2.507-12.138 13.849-21.032 25.363-19.837 11.513 1.194 26.787 12.82 24.242 24.977-2.546 12.156-20.652 10.923-31.937 15.74-15.674 6.733-20.157-8.761-17.668-20.88zM681.02 455.805a18.086 18.086 0 013.021 23.29c-4.883 7.377-17.516 14.015-24.052 8.515-6.535-5.5.741-17.334 1.9-26.437 1.501-12.707 12.558-10.867 19.131-5.368zm13.299-321.267a20.179 20.179 0 01-13.342 4.012 20.175 20.175 0 01-12.762-5.586c-7.048-6.846-11.684-22-4.312-27.993 7.371-5.993 18.808 4.438 28.497 7.587 13.622 4.286 9.291 16.006 1.919 21.98z" fill="#FAF0D0"/><path opacity=".41" d="M432.919 98.334c5.3-9.085 15.939-11.72 23.767-5.88 7.827 5.842 15.351 21.981 10.069 31.065s-17.859.436-27.263-.284c-13.147-1.006-11.855-15.817-6.573-24.901z" fill="#FAF0D0"/><path d="M586.104 490.36c5.3-31.349-3.211-58.09-5.32-88.832-2.014-29.093 6.688-53.577 11.513-81.284 4.294-24.655 2.869-52.61-2.527-76.847-7.371-33.113-24.318-63.76-48.769-82.441-37.997-29.111-88.856-25.679-130.918-5.689-17.612 8.382-34.673 19.534-53.538 22.359-27.529 4.154-54.298-9.918-81.067-18.32-36.496-11.493-76.564-12.346-110.989 5.803-39.099 20.521-66.818 67.004-63.588 118.172 1.482 23.194 8.986 46.085 6.327 69.127-2.698 23.365-14.382 42.918-20.576 64.918-8.435 30.04-9.214 74.191 4.37 104.668l451.176 6.258c21.336.285 39.992-15.494 43.849-37.551l.057-.341z" fill="#FAF0D0"/><path opacity=".22" d="M721.943 203.4v-16.613c0-3.547-3.8-6.429-8.378-6.41l-140.779.208a11.02 11.02 0 00-2.128-.208l-181.189.265c-4.616 0-8.359 2.902-8.359 6.448v227.182a26.057 26.057 0 007.725 18.4 26.15 26.15 0 0018.493 7.564h288.454a26.147 26.147 0 0018.456-7.585 26.051 26.051 0 007.705-18.379V203.4z" fill="#5957C1"/><path d="M690.082 432.649H401.533a26.143 26.143 0 01-18.493-7.564 26.053 26.053 0 01-7.725-18.399V195.814h340.928v210.872a26.053 26.053 0 01-7.705 18.379 26.146 26.146 0 01-18.456 7.584z" fill="#fff"/><path d="M383.77 173.056l181.302-.265c.721.001 1.44.071 2.147.208l140.76-.208c4.617 0 8.378 2.863 8.378 6.41v18.965l-142.906-.38v.38l-198.06-.531v-18.131c-.076-3.546 3.667-6.429 8.379-6.448z" fill="#EA7D8A"/><path d="M701.291 190.029a3.915 3.915 0 01-2.767-1.144 3.902 3.902 0 010-5.525 3.917 3.917 0 015.535 0 3.903 3.903 0 011.146 2.763 3.95 3.95 0 01-3.914 3.906zm-15.236.019a3.917 3.917 0 01-2.768-1.144 3.9 3.9 0 010-5.525 3.917 3.917 0 016.681 2.763 3.9 3.9 0 01-1.146 2.762 3.915 3.915 0 01-2.767 1.144zm-14.933.02a3.899 3.899 0 01-3.636-2.395 3.885 3.885 0 01.862-4.262 3.82 3.82 0 011.261-.85 3.825 3.825 0 011.494-.288 3.923 3.923 0 013.862 2.34 3.9 3.9 0 01-.92 4.415 3.929 3.929 0 01-2.942 1.04h.019z" fill="#fff"/><path opacity=".83" d="M694.585 220.089H406.492v185.896h288.093V220.089z" fill="#F7E0DE"/><path d="M546.625 237.291h-61.632v61.522h61.632v-61.522z" fill="#fff"/><path opacity=".83" d="M535.112 248.783h-38.605v38.537h38.605v-38.537z" fill="#F7E0DE"/><path d="M443.197 229.192v30.629h30.72v-30.629h-30.72zm7.276 7.264h16.168v16.139h-16.168v-16.139zm-21.354 38.859v61.276h39.422v-61.276h-39.422zm5.168 8.023h29.105v45.25h-29.105v-45.25z" fill="#fff"/><path d="M569.537 457.171l106.392-25.906 22.076-99.718a61.357 61.357 0 00-6.87-44.224 61.534 61.534 0 00-35.098-27.843l-54.45-16.728.931 11.379-31.499 69.697-36.458-65.373-.19-2.199-35.888 15.684a73.155 73.155 0 00-30.716 25.202 72.975 72.975 0 00-12.981 37.515l-8.834 107.228 80.173 15.172h43.412v.114z" fill="#39374A"/><path d="M606.489 123.633c-4.028-8.003-14.382-11.379-22.475-13.579-1.159-.304-9.822-1.29-10.164-1.897a16.928 16.928 0 00-1.387-2.408 23.215 23.215 0 00-7.145-6.572 23.264 23.264 0 00-9.213-3.081c-16.187-2.087-23.083 6.03-32.088 14.015a17.276 17.276 0 00-13.223 2.399 17.228 17.228 0 00-7.486 11.142 19.69 19.69 0 001.254 17.618 17.047 17.047 0 002.559 22.179 17.133 17.133 0 0015.088 4.137 17.107 17.107 0 0012.143-9.851 17.058 17.058 0 001.406-7.911 16.379 16.379 0 00-.665-3.793 22.974 22.974 0 001.653-1.65 14.179 14.179 0 007.96 1.896 14.312 14.312 0 009.062-3.793c2.47-.152 4.75-.398 6.821-.721a14.206 14.206 0 0018.295-1.043 16.147 16.147 0 012.47 4.59c1.52 4.741 1.026 10.013 1.273 14.925.114 2.257.152 4.533.285 6.79a77.912 77.912 0 002.888 9.786c2.792 4.115 11.247-3.338 11.247-3.338s2.28-3.034 3.116-2.94c8.853 1.062 8.948-27.499 8.967-32.695a31.367 31.367 0 00-2.641-14.205z" fill="#211B38"/><path opacity=".19" d="M608.997 142.237l-27.643 3.035c.57 1.9.914 3.86 1.026 5.841l26.408-2.826c.076-2.162.152-4.153.209-6.05zm-26.541 13.276c0 1.612 0 3.205.095 4.779v1.195l24.907-2.655c.361-1.897.627-4.04.836-6.088l-25.838 2.769z" fill="#fff"/><path opacity=".46" d="M512.256 146.561v-.019l.361 23.915-.361-23.896z" fill="#DF6969"/><path d="M595.432 167.935a2.699 2.699 0 00-2.679 2.048c-.855 3.414-2.964 9.483-6.498 4.324a50.106 50.106 0 01-2.469-8.136c-.133-2.389-.171-4.779-.304-7.169-.247-5.177.247-10.715-1.349-15.722a15.768 15.768 0 00-1.9-4.02 14.308 14.308 0 01-11.94 5.305 14.32 14.32 0 01-11.276-6.595 14.315 14.315 0 01-4.032 5.168 14.363 14.363 0 01-18.31-.256 20.91 20.91 0 01-10.431 5.946 20.936 20.936 0 01-11.988-.768l.304 19.704v2.693l.608 40.908v2.162a29.296 29.296 0 007.897 19.56 29.393 29.393 0 0019.005 9.21l2.527 15.494a21.9 21.9 0 008.836 14.293 21.996 21.996 0 0016.375 3.857l15.313-2.466a22.02 22.02 0 0014.318-8.835 21.948 21.948 0 003.882-16.35l-7.599-47.147v-4.552a14.535 14.535 0 009.48-3.66 14.489 14.489 0 004.75-8.971l.228-1.896a12.197 12.197 0 00-2.99-10.107 12.216 12.216 0 00-4.422-3.116 12.26 12.26 0 00-5.336-.906z" fill="#E8A396"/><path opacity=".5" d="M540.165 242.297s24.489-1.593 34.787-11.872c0 0-.228 20.084-31.918 29.434l-2.869-17.562z" fill="#DF6969"/><path d="M542.388 223.787a.815.815 0 00.38-1.403 7.893 7.893 0 00-8.929-1.024.853.853 0 00-.304 1.119.81.81 0 00.497.385.822.822 0 00.624-.082 6.276 6.276 0 017.029.816.865.865 0 00.703.189z" fill="#DF6969"/><path d="M542.236 159.306a11.433 11.433 0 014.712-.208c1.652.151 3.343.265 4.806.303 1.463.038 3.135 0 4.807 0a11.224 11.224 0 014.673.474c1.235.569 1.71 2.105.171 3.926a12.98 12.98 0 01-10.012 3.527 12.588 12.588 0 01-9.67-4.096c-1.368-1.878-.76-3.376.513-3.926zm-29.638 5.14a9.316 9.316 0 003.8.208 81.702 81.702 0 013.99-.227c1.197-.038 2.621 0 4.008 0a9.364 9.364 0 003.8-.38c1.045-.455 1.444-1.725.171-3.243a10.792 10.792 0 00-8.283-2.977 10.491 10.491 0 00-7.904 3.376c-1.121 1.574-.646 2.825.418 3.243z" fill="#211B38"/><path d="M598.586 187.279a.837.837 0 00.589-.474.817.817 0 00-.418-1.081l-4.104-1.764 3.135-6.903a.823.823 0 00.073-.661.814.814 0 00-.776-.567.829.829 0 00-.609.27.804.804 0 00-.17.294l-3.8 8.402 5.586 2.446c.159.053.329.066.494.038z" fill="#DF6969"/><path d="M524.568 176.868a2.88 2.88 0 01-1.443 4.213 2.897 2.897 0 01-3.121-.727 2.88 2.88 0 011.632-4.816 2.905 2.905 0 012.16.503c.309.222.572.503.772.827zm29.295-1.593a2.876 2.876 0 01-.113 3.197 2.887 2.887 0 01-3 1.124 2.884 2.884 0 01-1.977-3.991 2.883 2.883 0 012.158-1.66 2.891 2.891 0 012.932 1.33z" fill="#211B38"/><path d="M512.959 187.507a6.24 6.24 0 01-4.302-1.713 6.217 6.217 0 01-1.929-4.204l-.399-7.89a6.23 6.23 0 011.614-4.484 6.256 6.256 0 014.313-2.04l12.083-.606a6.289 6.289 0 016.01 3.619c.351.752.549 1.565.583 2.393l.399 7.87a6.231 6.231 0 01-1.607 4.497 6.256 6.256 0 01-4.321 2.046l-12.083.607-.361-.095zm11.684-19.041h-.209l-12.083.607a4.327 4.327 0 00-3.003 1.413 4.32 4.32 0 00-1.119 3.12l.399 7.889a4.298 4.298 0 001.416 3.011 4.317 4.317 0 003.143 1.105l12.064-.607a4.34 4.34 0 003.011-1.42 4.32 4.32 0 001.112-3.132l-.38-7.87a4.343 4.343 0 00-4.294-4.116h-.057z" fill="#fff"/><path d="M542.122 193.538a.592.592 0 00.494-.569.61.61 0 00-.34-.585.612.612 0 00-.23-.06l-5.699-.247a7.256 7.256 0 01-4.759-2.687 7.234 7.234 0 01-1.53-5.24v-.588a2.977 2.977 0 012.888-3.053 6.072 6.072 0 004.654-1.897 7.44 7.44 0 002.071-4.912l.342-8.591a.605.605 0 00-.589-.645.628.628 0 00-.627.588l-.342 8.591a6.253 6.253 0 01-1.728 4.116 4.77 4.77 0 01-3.8 1.536 4.238 4.238 0 00-4.18 4.229v.588a8.431 8.431 0 001.894 6.168 8.462 8.462 0 005.706 3.03l5.699.247s.038-.019.076-.019z" fill="#DF6969"/><path d="M541.932 194.486l-5.605-.247a9.507 9.507 0 01-6.347-3.405 9.477 9.477 0 01-2.126-6.874v-.569a5.072 5.072 0 01.391-1.975 5.109 5.109 0 014.796-3.145 4.032 4.032 0 002.982-1.252 5.4 5.4 0 001.463-3.508l.361-8.516a1.573 1.573 0 011.577-1.498 1.569 1.569 0 011.105.496 1.554 1.554 0 01.415 1.135l-.342 8.591a8.36 8.36 0 01-2.337 5.538 7.018 7.018 0 01-5.376 2.2 1.598 1.598 0 00-1.159.436 2.483 2.483 0 00-.741 1.707v.588a6.303 6.303 0 001.325 4.59 6.327 6.327 0 004.165 2.351l5.7.247a1.574 1.574 0 011.397 1.031c.068.192.097.396.085.6a1.54 1.54 0 01-1.254 1.46l-.475.019z" fill="#DF6969"/><path d="M531.084 175.919a.938.938 0 01-.373-.025.96.96 0 01-.701-.8.957.957 0 01.827-1.071l.475-.133a25.847 25.847 0 0110.848-.436.97.97 0 01.779 1.1.973.973 0 01-1.102.778 24.262 24.262 0 00-10.05.398l-.475.133-.228.056z" fill="#fff"/><path d="M547.822 185.857a6.277 6.277 0 01-4.305-1.717 6.253 6.253 0 01-1.946-4.2l-.38-7.889a6.225 6.225 0 011.592-4.559 6.252 6.252 0 014.374-2.06l14.287-.702a6.246 6.246 0 014.559 1.59 6.224 6.224 0 012.052 4.365l.399 7.871a6.25 6.25 0 01-3.694 5.957 6.291 6.291 0 01-2.405.548v-.949.949l-14.305.72-.228.076zm13.907-19.173h-.228l-14.287.701a4.34 4.34 0 00-3.011 1.42 4.32 4.32 0 00-1.112 3.132l.38 7.889a4.326 4.326 0 004.56 4.116l14.305-.721a4.25 4.25 0 003.002-1.422 4.3 4.3 0 001.121-3.13l-.304-7.984a4.305 4.305 0 00-1.425-2.996 4.24 4.24 0 00-3.001-1.081v.076z" fill="#fff"/><path d="M567.029 172.164a.96.96 0 01-.694-.224.956.956 0 01-.289-1.017.96.96 0 01.473-.554.955.955 0 01.358-.101l23.216-3.945a.948.948 0 011.083.777.95.95 0 01-.43.968.932.932 0 01-.349.132l-23.197 3.926-.171.038z" fill="#fff"/><path d="M546.036 202.148a.929.929 0 01-.95-.853.969.969 0 01.874-1.043l11.399-.986a3.941 3.941 0 002.754-1.5 3.916 3.916 0 00.78-3.033.908.908 0 01.779-1.081.918.918 0 01.705.161.92.92 0 01.377.616 5.784 5.784 0 01-1.139 4.506 5.816 5.816 0 01-4.085 2.227l-11.494.986z" fill="#DF6969"/><path d="M536.784 283.754l26.598 62.206a7.266 7.266 0 002.737 2.979 7.286 7.286 0 0010.41-3.207l22.912-62.205-62.657.227z" fill="#fff"/><path d="M553.578 292.972l17.099 23.099 12.786-26.134-17.46-17.429-12.425 20.464z" fill="#EA7D8A"/><path d="M562.736 306.095l-6.802 66.15a5.224 5.224 0 00.646 3.111l16.966 30.685a5.328 5.328 0 007.902 1.638 5.314 5.314 0 001.768-2.434l11.874-33.531a5.264 5.264 0 00.114-3.243l-18.429-63.76a5.293 5.293 0 00-2.153-2.939 5.306 5.306 0 00-3.546-.854l-3.648.398a5.34 5.34 0 00-4.692 4.779z" fill="#EA7D8A"/><path d="M530.21 250.338l-5.263 18.965a6.232 6.232 0 001.767 6.202l20.443 19.022a3.214 3.214 0 005.699-.228l13.907-21.203-30.815-26.228c-2.47-2.125-5.89-.114-5.738 3.47z" fill="#F4F4F4"/><path d="M600.865 236.039l-37.674 37.626 26.598 21.336a6.294 6.294 0 008.474-1.46l19.929-29.112a6.463 6.463 0 00.171-7.074l-13.014-20.994a2.985 2.985 0 00-3.419-1.001 2.992 2.992 0 00-1.065.679z" fill="#F4F4F4"/><path d="M375.999 298.415l32.298 116.123a7.59 7.59 0 003.327 4.397 7.617 7.617 0 005.431.989l60.795-12.081a7.597 7.597 0 005.956-6.137 7.58 7.58 0 00-.085-3.004l-28.156-118.266a7.586 7.586 0 00-3.329-4.677 7.613 7.613 0 00-5.657-1.013l-64.88 14.243a7.607 7.607 0 00-4.879 3.49 7.576 7.576 0 00-.821 5.936z" fill="#5C7460"/><path opacity=".45" d="M417.264 412.508a7.61 7.61 0 01-4.606-1.543 7.586 7.586 0 01-2.727-4.013L381.623 304.92a7.573 7.573 0 01.795-5.972 7.584 7.584 0 014.904-3.511l56.996-12.517a7.613 7.613 0 015.669 1.005 7.583 7.583 0 013.336 4.685l24.698 103.909a7.577 7.577 0 01-3.116 8.008 7.585 7.585 0 01-2.792 1.171l-53.443 10.621a7.843 7.843 0 01-1.406.189zm28.669-127.786a5.407 5.407 0 00-1.216.133l-56.996 12.498a5.695 5.695 0 00-4.427 4.783 5.662 5.662 0 00.153 2.291l28.307 102.012a5.705 5.705 0 006.593 4.059l53.462-10.62a5.686 5.686 0 004.426-6.885l-24.698-103.909a5.687 5.687 0 00-2.038-3.16 5.707 5.707 0 00-3.566-1.202z" fill="#78987E"/><path d="M380.882 413.608l-11.133-21.544a12.875 12.875 0 01.171-12.157l12.33-22.265a8.975 8.975 0 015.601-4.345 9.003 9.003 0 017.014 1.064l4.54 2.826-12.178 11.626 17.365-16.595a3.933 3.933 0 013.447-1.026 3.936 3.936 0 012.842 2.202 6.927 6.927 0 01.65 3.413 6.926 6.926 0 01-1.087 3.301l-13.736 21.089 18.656-21.81a2.346 2.346 0 012.48-.711 2.331 2.331 0 011.624 2.001 34.091 34.091 0 01-5.301 22.151l-3.799 5.689a38.625 38.625 0 0112.46 9.851 38.542 38.542 0 017.431 14.026 10.753 10.753 0 01-2.793 10.526c-7.485 7.377-24.698 17.922-46.584-9.312z" fill="#E79A9A"/><path d="M398.076 356.315a1.027 1.027 0 00-1.064.265l-12.159 12.574a1.061 1.061 0 000 1.479 1.039 1.039 0 001.142.228c.127-.053.242-.13.34-.228l12.159-12.573a1.017 1.017 0 00.306-.731 1.017 1.017 0 00-.306-.73.874.874 0 00-.418-.284zm-2.223 20.766a1.06 1.06 0 00-1.467 1.291c.091.265.284.483.536.606 0 0 1.71 1.252 3.666 2.598a1.043 1.043 0 001.178-1.707l-3.628-2.579a1.008 1.008 0 00-.285-.209z" fill="#DF6969"/><path d="M383.903 368.396a1.01 1.01 0 00-1.159.379 1.014 1.014 0 00-.188.768 1.01 1.01 0 00.416.673s1.71 1.233 3.666 2.58a1.046 1.046 0 00.774.179 1.01 1.01 0 00.378-.146c.115-.073.215-.168.292-.28a1.042 1.042 0 00-.266-1.441l-3.628-2.579a.662.662 0 00-.285-.133zm26.863 17.864a1.052 1.052 0 00-1.216.437 15.453 15.453 0 01-2.526 2.807 1.038 1.038 0 00-.026 1.384 1.051 1.051 0 001.375.19 17.072 17.072 0 002.944-3.281 1.04 1.04 0 00-.323-1.423l-.228-.114z" fill="#DF6969"/><path opacity=".36" d="M495.272 386.526l-3.496 7.321a11.232 11.232 0 005.263 14.944l81.351 39.22 12.33-31.482-95.448-30.003z" fill="#262535"/><path opacity=".5" d="M511.99 341.769l1.444-4.305a7.583 7.583 0 014.194-4.609 7.602 7.602 0 016.237.076l93.795 42.577 27.13-72.068-18.581 87.714-114.219-49.385z" fill="#262535"/><path d="M454.805 334.941l7.77 1.081-5.699-.796a6.058 6.058 0 01-5.187-6.828 7.585 7.585 0 012.834-5.034 7.607 7.607 0 015.564-1.584 65.08 65.08 0 0113.831 2.901c4.54-1.024 16.87-3.414 24.489-.777 9.499 3.281 15.027 15.172 15.027 15.172l16.681 8.667-19.492 50.523-47.06-23.479a8.033 8.033 0 01-2.972-1.016 8.031 8.031 0 01-2.352-2.079 7.99 7.99 0 01-1.553-5.952 2.333 2.333 0 011.725-1.956c.299-.078.61-.096.916-.054l2.203.304-5.699-.778a7.393 7.393 0 01-6.14-5.45 7.357 7.357 0 01-.168-2.876l.114-.834a5.445 5.445 0 016.137-4.665l7.922 1.081-10.905-1.48a6.52 6.52 0 01-4.288-2.517 6.498 6.498 0 01-1.259-4.803l.152-1.1a6.612 6.612 0 012.535-4.358 6.64 6.64 0 014.874-1.313z" fill="#E79A9A"/><path opacity=".57" d="M465.007 337.881a1.426 1.426 0 001.558-1.233 1.406 1.406 0 00-.272-1.07 1.41 1.41 0 00-.963-.542l-10.354-1.385a1.444 1.444 0 00-1.487 1.25 1.44 1.44 0 001.107 1.595l10.354 1.385h.057zm-12.311 12.839l13.166 1.081a1.44 1.44 0 001.539-1.327 1.477 1.477 0 00-1.311-1.537l-13.147-1.1a1.462 1.462 0 00-1.558 1.328 1.443 1.443 0 001.311 1.555zm14.667 15.153a1.421 1.421 0 001.055-.302 1.427 1.427 0 00.531-.959 1.41 1.41 0 00-.303-1.053 1.424 1.424 0 00-.96-.53l-9.727-1.29a1.447 1.447 0 00-1.756 1.214 1.431 1.431 0 00.797 1.485c.181.089.378.138.579.146l9.727 1.289h.057zm33.02-30.628l-26.807-10.507s25.743 5.254 26.807 10.507z" fill="#DF6969"/><path d="M483.284 328.399l14.477-25.451a1.768 1.768 0 012.203-.683l4.75 2.086a1.68 1.68 0 011.039 1.65 1.657 1.657 0 01-.184.664l-14.021 24.787-8.264-3.053z" fill="#705FCF"/><path d="M648.799 452.335c22.893-12.801 46.774-82.991 40.904-108.84l-42.614-47.887-25.553 87.486-100.445-45.839a5.03 5.03 0 00-4.11-.18 5.006 5.006 0 00-2.863 2.949l-18.371 50.732a7.895 7.895 0 00.086 5.638 7.92 7.92 0 003.828 4.148c20.347 9.975 82.947 40.698 88.761 43.24 12.71 5.519 45.501 16.879 60.377 8.553z" fill="#373449"/><path opacity=".5" d="M526.98 407.976h-.285a.949.949 0 01-.627-1.176l11.285-38.234a.983.983 0 01.467-.592.987.987 0 011.463.74.989.989 0 01-.03.383l-11.285 38.234a.965.965 0 01-.988.645z" fill="#262535"/><path d="M515.809 392.785a4.886 4.886 0 01-4.511-3.009 4.874 4.874 0 01-.278-2.816 4.876 4.876 0 013.837-3.83 4.891 4.891 0 015.012 2.073c.536.801.823 1.744.823 2.708a4.888 4.888 0 01-1.436 3.441 4.904 4.904 0 01-3.447 1.433zm0-7.852a2.989 2.989 0 00-2.756 1.838 2.981 2.981 0 00.647 3.245 2.99 2.99 0 003.251.646 2.984 2.984 0 001.841-2.751 2.985 2.985 0 00-2.983-2.921v-.057z" fill="#262535"/><path d="M625.241 96.494h46.926a21.753 21.753 0 0015.311-6.355 21.677 21.677 0 006.366-15.284 21.677 21.677 0 00-6.366-15.285 21.753 21.753 0 00-15.311-6.354h-46.926a21.775 21.775 0 00-15.307 6.36 21.7 21.7 0 00-6.371 15.279 21.677 21.677 0 006.366 15.284 21.754 21.754 0 0015.312 6.355z" fill="#79A182"/><path d="M635.709 93.782l-21.944 13.579V90.387l21.944 3.395z" fill="#79A182"/><path d="M672.775 81.322a5.382 5.382 0 01-4.981-3.3 5.36 5.36 0 011.153-5.855 5.378 5.378 0 015.862-1.172 5.365 5.365 0 01-2.034 10.328zm0-8.819a3.482 3.482 0 00-3.228 2.134 3.465 3.465 0 00.75 3.791 3.482 3.482 0 005.357-.538 3.465 3.465 0 00-.44-4.37 3.48 3.48 0 00-2.439-1.017zm-24.071 8.819a5.382 5.382 0 01-4.968-3.313 5.362 5.362 0 013.919-7.318 5.384 5.384 0 015.519 2.282 5.359 5.359 0 01-.668 6.777 5.383 5.383 0 01-3.802 1.572zm0-8.819a3.48 3.48 0 00-3.214 2.147 3.468 3.468 0 002.547 4.73 3.481 3.481 0 003.567-1.492 3.465 3.465 0 00-.449-4.375 3.477 3.477 0 00-2.451-1.01zm-23.976 8.819a5.382 5.382 0 01-4.968-3.313 5.362 5.362 0 013.919-7.318 5.384 5.384 0 015.519 2.282 5.359 5.359 0 01-.669 6.777 5.379 5.379 0 01-3.801 1.572zm0-8.819a3.48 3.48 0 00-3.214 2.147 3.46 3.46 0 00.762 3.785 3.477 3.477 0 003.795.74 3.47 3.47 0 00-1.343-6.671z" fill="#fff"/><path d="M403.851 215.86a45.677 45.677 0 0014.113 18.274 45.816 45.816 0 0044.243 6.577 45.748 45.748 0 0018.835-13.377l16.396 2.503-8.702-15.722a45.548 45.548 0 002.543-21.885 45.582 45.582 0 00-8.027-20.524 45.692 45.692 0 00-16.725-14.377 45.773 45.773 0 00-42.827.88 45.678 45.678 0 00-16.118 15.052 45.564 45.564 0 00-3.731 42.599z" fill="#79A182"/><path d="M467.363 182.33h-43.468a.95.95 0 01-.95-.948.948.948 0 01.95-.948h43.468a.95.95 0 01.95.948.946.946 0 01-.95.948zm0 14.584h-43.468a.95.95 0 01-.95-.948.948.948 0 01.95-.948h43.468a.95.95 0 01.95.948.946.946 0 01-.95.948zm0 15.816h-43.468a.95.95 0 01-.95-.948.948.948 0 01.95-.948h43.468a.95.95 0 01.95.948.948.948 0 01-.95.948z" fill="#fff"/><path opacity=".74" d="M500.458 48.816l-1.025-4.969a4.926 4.926 0 013.799-5.822l7.809-1.593a4.947 4.947 0 013.699.697 4.93 4.93 0 012.133 3.096l1.026 4.969c.069.337.101.68.095 1.024v19.268a4.923 4.923 0 01-1.11 3.105 4.945 4.945 0 01-2.823 1.712 4.957 4.957 0 01-5.528-2.864l-7.714-17.675a4.12 4.12 0 01-.361-.948zm12.501 24.408l3.002-.607a5.878 5.878 0 014.313 1.23 5.858 5.858 0 012.185 3.91 5.85 5.85 0 01-.441 4.37 5.867 5.867 0 01-3.359 2.836l-2.983.626a5.877 5.877 0 01-4.27-1.244 5.857 5.857 0 01-2.17-3.876 5.829 5.829 0 01.389-4.377 5.847 5.847 0 013.334-2.868zm48.96-14.774l.798-3.167a3.176 3.176 0 013.799-2.314l4.978 1.252a3.168 3.168 0 012.318 3.793l-.798 3.186a4.21 4.21 0 01-.228.626l-5.472 11.17a3.188 3.188 0 01-3.628 1.688 3.211 3.211 0 01-1.771-1.18 3.198 3.198 0 01-.642-2.025l.494-12.44c.026-.202.077-.4.152-.589zm.437 17.714l1.899.474a3.794 3.794 0 012.299 4.779 3.792 3.792 0 01-1.478 2.39 3.804 3.804 0 01-2.72.72l-1.9-.474a3.789 3.789 0 01-2.318-4.78 3.79 3.79 0 011.485-2.397 3.806 3.806 0 012.733-.712z" fill="#EA7D8A"/><path d="M457.275 73.262a60.934 60.934 0 01-13.663 27.709 61.084 61.084 0 01-25.512 17.471 61.182 61.182 0 01-30.816 2.751 61.124 61.124 0 01-28.212-12.675l-20.899 7.586 7.277-22.872a60.9 60.9 0 01-3.97-57.019 61 61 0 0118.137-23.226A61.146 61.146 0 01386.541.95a61.202 61.202 0 0129.436 1.961 61.113 61.113 0 0125.084 15.5 60.97 60.97 0 0114.885 25.427 60.88 60.88 0 011.215 29.424h.114z" fill="#F6D445"/><path d="M399.5 97.366h-4.331c-4.75 0-8.588-4.457-8.588-9.9 0-5.442 3.8-9.9 8.588-9.9h4.407c4.75 0 8.607 4.438 8.607 9.9 0 5.462-3.933 9.9-8.683 9.9zm-4.331-17.903c-3.686 0-6.688 3.585-6.688 8.004 0 4.418 2.888 8.003 6.688 8.003h4.407c3.705 0 6.707-3.604 6.707-8.004 0-4.4-3.002-8.003-6.707-8.003h-4.407zm5.357-3.793h-5.908a5.706 5.706 0 01-3.658-1.355 5.688 5.688 0 01-1.928-3.386l-1.9-12.252a2.915 2.915 0 01.817-2.54 2.97 2.97 0 011.691-.816c10.943-1.536 12.349-3.926 12.349-5.841 0-1.916-1.9-3.035-4.92-3.035a21.343 21.343 0 00-9.937 3.566 5.706 5.706 0 01-7.599-1.67l-5.7-8.572a5.681 5.681 0 011.482-7.775 40.993 40.993 0 0123.9-7.34c15.636 0 26.598 9.066 26.598 22.038v.208c0 10.64-5.3 17.202-17.212 21.241a3.798 3.798 0 00-2.527 2.902 5.691 5.691 0 01-5.624 4.627h.076zm-11.304-18.206a1.093 1.093 0 00-.304.91l1.995 12.252a3.801 3.801 0 003.705 3.148h5.908a3.794 3.794 0 003.705-3.072 5.698 5.698 0 013.8-4.362c11.019-3.794 15.92-9.749 15.92-19.459v-.208c0-11.854-10.126-20.141-24.698-20.141a39.056 39.056 0 00-23.083 6.998 3.792 3.792 0 00-1.007 5.158l5.7 8.573a3.8 3.8 0 005.072 1.118 22.679 22.679 0 0110.925-3.792c4.141 0 6.82 1.896 6.82 4.836 0 4.134-4.18 6.429-13.983 7.813a.97.97 0 00-.608.285l.133-.057z" fill="#fff"/><path d="M207.54 35.749l6.003 20.577c.152.493.817.986 1.102.796l3.686-2.37c.209-.114.589 0 .874.36l9.67 11.265c.475.55 1.102.531.931 0l-5.89-20.52c-.152-.493-.817-.986-1.102-.796l-3.685 2.351c-.209.114-.589 0-.874-.36l-9.785-11.227c-.475-.645-1.101-.626-.93-.076zm100.027 3.755l-6.004 20.558c-.152.512-.817.986-1.121.797l-3.685-2.352c-.19-.133-.589 0-.855.36l-9.671 11.17c-.494.55-1.121.532-.95 0l5.89-20.52c.152-.511.817-.986 1.121-.796l3.686 2.37c.19.115.57 0 .855-.379l9.784-11.208c.494-.588 1.159-.569.95 0zM263.946 7.833L252.775 34.8c-.285.664 0 1.726.494 1.783l5.927.625c.323 0 .589.55.608 1.138l.741 20.065c0 1.005.703 1.518 1.007.797l11.266-26.798c.266-.664 0-1.745-.513-1.801l-5.927-.626c-.304 0-.57-.531-.589-1.12l-.817-20.254c-.038-1.024-.722-1.498-1.026-.777z" fill="#CAE2EF"/><path d="M51.296 103.795a45.57 45.57 0 006.96 21.991 45.666 45.666 0 0016.846 15.784 45.778 45.778 0 0044.703-.565l14.533 7.984-2.773-17.751a45.58 45.58 0 009.927-19.676 45.53 45.53 0 00-.469-22.025A45.582 45.582 0 00130.267 70.3a45.695 45.695 0 00-18.534-11.96 45.767 45.767 0 00-42.3 6.721 45.627 45.627 0 00-13.897 17.114 45.542 45.542 0 00-4.24 21.62z" fill="#F6D445"/><path d="M92.922 134.785c-7.239 0-14.344-5.349-20.652-15.59a4.316 4.316 0 01-.74-1.896 20.343 20.343 0 00-3.572 1.896l-1.672 1.176a.95.95 0 01-1.491-.897.946.946 0 01.351-.62 26.9 26.9 0 011.748-1.233 196.458 196.458 0 0011.55-8.989 119.49 119.49 0 00-6.895-.266 5.011 5.011 0 01-3.8-1.251 3.8 3.8 0 01-.95-2.807 14.165 14.165 0 01-6.593-.645.965.965 0 01-.788-1.109.963.963 0 011.111-.788h6.479a46.51 46.51 0 012.033-8.837l-.361-.304a.928.928 0 01-.152-1.327.912.912 0 011.197-.266 32.512 32.512 0 0111.228-14.906 9.068 9.068 0 015.091-2.655 4.855 4.855 0 011.35-2.162 2.84 2.84 0 01.303-1.499c.76-1.479 2.66-1.896 5.073-1.08 2.847.938 5.6 2.138 8.226 3.584l1.33.53c.228-.454.589-1.004 1.311-.815.722.19.798.835.798 1.764a40.251 40.251 0 0116.852 15.343 17.631 17.631 0 011.595 3.28c.475.683 1.178 1.423 1.767 1.233.589-.19.684-.569.969-.929l3.8-5.102a.947.947 0 011.178-.284.984.984 0 01.494 1.119 58.198 58.198 0 01-6.08 14.907 6.833 6.833 0 01-2.736 5.689 6.115 6.115 0 01-2.659 1.1 29.284 29.284 0 014.369 3.926.975.975 0 01.228.815.952.952 0 01-.513.683c-1.899.948-3.799 1.897-5.908 2.864l-.418.55a8.39 8.39 0 01-6.061 2.389l-.551.74a.95.95 0 01-1.007.322 8.698 8.698 0 01-1.576-.607 31.624 31.624 0 01-4.218.759 24.78 24.78 0 01-7.334-.284 11.59 11.59 0 012.261 8.23 4.873 4.873 0 01-1.482 3.073 5.351 5.351 0 01-3.001 1.081c-.492.06-.987.091-1.482.095zm-19.17-18.169a.816.816 0 00-.323.36c0 .323.266.93.456 1.214 4.408 7.169 11.608 15.533 20.329 14.565a3.408 3.408 0 001.9-.644 2.963 2.963 0 00.855-1.897c.474-3.186-1.121-5.955-3.25-8.705a18.297 18.297 0 01-8.473-5.538 30.443 30.443 0 00-11.494.645zm21.24 3.357a22.84 22.84 0 008.854.74h.209l-1.102-.304a18.583 18.583 0 01-6.08-1.441 44.664 44.664 0 00-3.8-1.252l.229.266a36.87 36.87 0 001.69 1.991zm12.768-.493c.608 0 1.197.095 1.899.114l.798-.247a14.31 14.31 0 001.52-6.751c-.646.113-1.311.189-1.9.246a17.286 17.286 0 01-.892 2.845 7.59 7.59 0 01-1.9 3.205c.146.205.305.401.475.588zm-16.567-9.198a24.06 24.06 0 0011.988 8.231c.253.019.507.019.76 0a28.116 28.116 0 01-3.8-6.335c-1.786-.322-3.59-.701-5.376-1.081l-2.66-.569-.912-.246zm-2.717 6.277c.84.722 1.75 1.358 2.717 1.897l-1.254-1.555-1.463-.342zm25.325-4.457a17.343 17.343 0 01-.969 6.335 68.633 68.633 0 003.686-1.536c.66-1.748.843-3.64.532-5.481v-.531a16.82 16.82 0 01-3.268 1.213h.019zm-11.399.361a22.105 22.105 0 003.363 5.12l.19-.151a5.832 5.832 0 001.425-2.428c.26-.715.457-1.451.589-2.2a40.554 40.554 0 01-5.605-.341h.038zm-11.4 2.731c1.198.284 2.338.607 3.402.948a24.915 24.915 0 01-5.11-5.234l-.742.265.133.285a21.927 21.927 0 002.337 3.736h-.02zm27.986-3.3a16.268 16.268 0 01-.133 3.793c.969-.455 1.9-.929 2.888-1.423a27.867 27.867 0 00-2.755-2.37zm-32.678 2.332c.665 0 1.311.19 1.9.304a16.398 16.398 0 01-1.31-2.314 4.865 4.865 0 01-.21-.455l-1.596.588c.304.55.627 1.1.988 1.631l.228.246zm-5.205-5.48a109.555 109.555 0 01-6.688 5.537l8.17-2.958a24.565 24.565 0 01-.893-2.447l-.59-.132zm0 5.063c.93 0 1.9 0 2.754.133a9.159 9.159 0 01-.512-.948l-2.242.815zm20.271-3.47c2.252.392 4.535.583 6.821.569a27.324 27.324 0 000-3.528 18.858 18.858 0 00-8.17 0l1.349 2.959zm8.815-2.238c0 .948 0 1.896-.095 2.845.57 0 1.121-.133 1.672-.228 0-.721-.152-1.441-.266-2.162l-1.311-.455zm-26.407 1.1c.151.531.341 1.043.55 1.574l1.71-.626c0-.228-.133-.455-.19-.664-.646-.208-1.349-.303-2.032-.379l-.038.095zm29.732 0c.057.32.095.643.114.967.475-.152.95-.322 1.406-.512l-1.52-.455zm-18.998-.171l.57.133 4.046.834c-.304-.701-.608-1.384-.893-2.086a73.391 73.391 0 00-3.704 1.119h-.02zm-4.845-.929l1.235.227c2.28-.815 4.484-1.574 6.65-2.143-.305-.72-.57-1.441-.837-2.181H87.09c.57.873 1.121 1.783 1.653 2.655l.931 1.442zm26.921 0h.19a216.295 216.295 0 00-.494-4.798c-1.246.32-2.517.53-3.8.625.209.759.399 1.537.57 2.314 1.197.588 2.394 1.176 3.534 1.859zm1.539-5.348c.209 1.631.361 3.281.513 4.931a19.993 19.993 0 004.502-4.855 13.245 13.245 0 00-.627-3.585 8.566 8.566 0 01-4.388 3.49v.019zm-34.862 4.381l2.203.265c-.133-.721-.209-1.479-.285-2.219l-1.9 1.783a.55.55 0 00-.019.171zm-14.553-3.262c-.12.655.008 1.331.36 1.896a3.404 3.404 0 002.49.607c2.963 0 5.946.171 8.91.436l.646-.569c-.095-.398-.171-.796-.247-1.176-.076-.379-.171-.834-.247-1.251H69.06l-.342.057zm30.074.113c.21.569.437 1.138.665 1.707a25.764 25.764 0 014.921-.569 95.928 95.928 0 00-4.142-1.119l-1.444-.019zm11.399 1.062l.741.304c-.114-.436-.228-.873-.361-1.29h-.437l.057.986zm-27.566-1.175l.17.853v.095l1.064-.948h-1.234zm24.698.189l.969.247v-.304l-.969.057zm-6.878-1.896h7.6a41.284 41.284 0 010-4.874c-1.653-4.57-3.553-8.876-5.719-13.427a42.778 42.778 0 01-6.725 10.772 99.785 99.785 0 002.222 6.827l2.622.702zm9.651-5.102l.57 1.517a59.534 59.534 0 011.254 3.566 20.937 20.937 0 004.142-.645 46.046 46.046 0 00-2.964-11.265l-.285-.664c-.228.474-.494.91-.741 1.346-.247.437-.418.74-.608 1.12a14.574 14.574 0 00-1.387 4.968l.019.057zm-21.468 5.007h3.382l-2.717-.702-.589.569-.076.133zm-6.364 0h.969a11.288 11.288 0 00-1.14-1.024l.17 1.024zm-9.31 0h7.372c-.114-.702-.21-1.404-.323-2.086a4.873 4.873 0 00-1.748-.209c-1.803.25-3.514.948-4.978 2.029l-.323.266zm-2.298-7.795a43.29 43.29 0 00-1.71 7.7c.343-.119.68-.259 1.007-.417.771-.455 1.52-.949 2.241-1.479a15.544 15.544 0 014.58-2.143 27.633 27.633 0 01-6.138-3.831l.02.17zm13.09 5.69c.48.41.925.861 1.33 1.346v-.948l-1.33-.398zm3.248.929v.171l.152-.133-.152-.038zm3.8-.967l4.256 1.005.513.133a144.744 144.744 0 01-1.501-4.609c-.97 1.1-2.11 2.257-3.211 3.357l-.057.114zm22.798-13.01c.477.859.903 1.745 1.273 2.655a46.446 46.446 0 013.04 11.379 5.89 5.89 0 003.572-3.793v-.284a49.626 49.626 0 00-8.113-12.157c.15.685.214 1.386.19 2.086l.038.114zm9.898 9.482a17.757 17.757 0 011.273 3.793 48.677 48.677 0 002.945-7.055l-.532.74a4.16 4.16 0 01-1.9 1.574 2.588 2.588 0 01-1.767 0c.01.291.003.582-.019.873v.075zm-36.496 2.428l1.71.455c1.596-1.593 3.23-3.28 4.788-5.102l-.304-1.043a69.136 69.136 0 01-1.083-4.551 12.026 12.026 0 01-1.596 6.505 8.298 8.298 0 01-3.496 2.996l-.019.74zm-5.3-1.65a10.237 10.237 0 003.438-.455l.38-19.345c0-.606 0-1.213.114-1.896-.812.358-1.599.77-2.356 1.233l-.987.645a8.788 8.788 0 00-1.14 4.57 91.02 91.02 0 00.418 15.172l.133.076zm-10.335-5.045a40.602 40.602 0 008.264 4.286 89.8 89.8 0 01-.323-14.47c0-.74.095-1.498.209-2.257a32.369 32.369 0 00-8.189 12.441h.039zm16.3-17.068a17.29 17.29 0 00-.266 2.39l-.36 18.433a6.093 6.093 0 001.9-1.896 11.684 11.684 0 001.291-6.619 53.014 53.014 0 00-1.9-12.593l-.665.285zm15.636 6.39c1.9 4.25 3.8 8.232 5.51 12.366.247-.889.578-1.752.987-2.58.209-.416.418-.815.646-1.213a9.99 9.99 0 001.14-2.484v-.266a23.863 23.863 0 00-7.599-8.344c-.247.72-.475 1.593-.722 2.427l.038.095zm-6.403-5.139a2.475 2.475 0 00-.835.114c-1.33.455-1.9 2.2-2.147 3.205a26.507 26.507 0 001.083 12.764 37.91 37.91 0 006.212-10.848c-.665-1.423-1.368-2.864-2.09-4.362a.93.93 0 01-.266-.342v-.19l-.627-.132a5.708 5.708 0 00-1.33-.209zm10.165 2.466a23.278 23.278 0 013.419 3.413 13.756 13.756 0 00-1.121-1.706l-1.177-1.005c-.399-.266-.76-.493-1.14-.702h.019zm-16.776-4.135a54.56 54.56 0 011.387 7.017c.076-.83.209-1.653.399-2.465a5.95 5.95 0 013.097-4.457 24.738 24.738 0 00-4.902-.094h.019zm11.152 2.864l.57 1.214c0-.285.133-.569.19-.853l-.76-.36zM89.559 72.2v.17a25.888 25.888 0 012.432-.36 5.423 5.423 0 00-2.45.19h.018z" fill="#fff"/><path d="M351.32 225.039l-2.014-2.105-1.9-2.124c-10.373-17.714-.36-31.805-1.367-50.959-.399-7.586.418-14.528-3.667-22.474-25.686-49.67-66.894-41.533-67.502-42.368-5.946-9.482-22.798-12.232-40.125-8.951a32.352 32.352 0 00-8.166-11.615 32.434 32.434 0 00-12.36-7.009 32.466 32.466 0 00-27.441 4.047 32.374 32.374 0 00-9.802 10.276 32.311 32.311 0 004.916 39.538c-11.799 7.946-21.203 19.154-23.236 32.24-1.557 10.109-12.976 16.462-21.525 23.1a220.04 220.04 0 00-7.979 6.505 63.49 63.49 0 00-24.698 36.033c-5.377 21.734 1.748 44.056 17.25 61.295 18.999 21.07 37.199 42.766 51.6 66.188 12.045 19.61 33.799 35.124 60.795 40.453 39.004 7.586 77.533-9.483 90.965-40.453a59.006 59.006 0 004.902-25.185 12.248 12.248 0 011.75-6.392 12.282 12.282 0 014.823-4.551 56.679 56.679 0 003.382-2.124l7.163-4.836c24.793-16.671 31.537-59.721 4.236-88.529z" fill="#211B38"/><path d="M276.941 338.583a155.878 155.878 0 00-35.774-18.852c-9.252-3.432-18.505-6.884-27.548-10.696-6.592-2.769-12.558-6.277-19.587-8.269a162.595 162.595 0 00-22.571-4.381c-24.413-3.375-51.296-6.106-75.044 1.707a106.265 106.265 0 00-48.294 33.606 126.84 126.84 0 00-21.411 37.93 165.096 165.096 0 00-4.37 14.073 4.07 4.07 0 00.232 2.734 4.08 4.08 0 001.915 1.969l62.904 31.615-23.653 87.846 201.384 14.129 5.282-27.462c8.055-12.061 27.148-34.876 32.772-102.411 1.71-20.084-9.879-41.723-26.237-53.538z" fill="#EA7D8A"/><path d="M213.144 358.8a70.682 70.682 0 01-11.931-1.025c-15.674-2.655-27.814-8.989-35.09-18.282-8.132-10.412-11.399-26.304-8.721-42.538a2.87 2.87 0 012.181-2.348 2.9 2.9 0 012.181.349 2.895 2.895 0 011.296 1.786c.087.368.102.749.042 1.123-2.413 14.698.437 28.941 7.599 38.12 8.075 10.317 21.602 14.508 31.538 16.196 18.599 3.148 41.303-1.081 49.244-22.417a2.85 2.85 0 115.339 1.991c-7.524 20.027-25.857 27.045-43.678 27.045z" fill="#E5657B"/><path opacity=".52" d="M130.121 383.302l-3.268 49.859a9.205 9.205 0 01-3.484 6.615 9.236 9.236 0 01-7.25 1.863l-3.059-.512a7.892 7.892 0 00-5.296.987 7.875 7.875 0 00-3.424 4.152l-6.897 19.477-6.098-2.56 12.254-35.18 6.896 1.896a4.49 4.49 0 003.282-.401 4.48 4.48 0 002.114-2.538l14.23-43.658z" fill="#E5657B"/><path d="M120.279 413.722a2.65 2.65 0 01-1.254-.284l-87.564-42.994a2.85 2.85 0 01-1.717-2.758 2.844 2.844 0 013.131-2.684c.384.038.756.154 1.094.341l87.621 42.993a2.848 2.848 0 011.496 3.186 2.85 2.85 0 01-2.75 2.2h-.057z" fill="#E5657B"/><path d="M111.198 432.403a7.604 7.604 0 01-3.021-.626l-4.407-1.897a2.844 2.844 0 01.099-5.256 2.857 2.857 0 012.181.041l4.388 1.897a1.91 1.91 0 001.539 0 1.903 1.903 0 001.007-1.138l14.629-44.227a2.85 2.85 0 013.638-1.735 2.848 2.848 0 011.739 3.632l-14.61 44.207a7.6 7.6 0 01-4.104 4.533 7.365 7.365 0 01-3.078.569z" fill="#E5657B"/><path d="M354.303 474.676l-14.23-170.079-.209-4.95a47.036 47.036 0 00-7.766-23.98 47.155 47.155 0 00-19.041-16.548l-13.109-6.258a49.114 49.114 0 00-32.886-3.452 9.768 9.768 0 00-2.071.664c-4.522 3.489-3.42 12.536 2.09 14.015a29.203 29.203 0 005.946-.645 19.489 19.489 0 00-4.654 2.522 13.485 13.485 0 00-4.541 14.945l.665 2.01.608-.55a21.964 21.964 0 0114.002-5.519l5.927-.151s-20.442.512-21.753 10.487c-1.311 9.976 3.135 9.881 3.135 9.881s9.499-6.922 18.713-3.224c0 0-27.491-1.157-24.185 14.527 1.9 9.293 12.805 14.015 21.297 16.31l.76.19-12.007 162.815c2.09 19.477 12.083 29.471 24.831 34.137 30.417 10.886 61.746-14.926 58.478-47.147zM288.397 313.34l-1.235.209-2.337-2.39 3.572 2.181z" fill="#FFB1A5"/><path opacity=".5" d="M307.776 266.307l2.013-8.648-3.533-1.764-1.767 7.586a48.865 48.865 0 01-8.142 17.869 48.98 48.98 0 01-14.523 13.234c1.11.177 2.195.489 3.229.929a48.403 48.403 0 00-5.053.114 48.836 48.836 0 01-16.282 5.348 9.67 9.67 0 00-2.413 3.357 48.956 48.956 0 0029.776-11.048 48.807 48.807 0 0016.695-26.977z" fill="#DF6969"/><path opacity=".5" d="M291.095 317.531l1.007 1.025a5.453 5.453 0 011.368 5.253 3.46 3.46 0 01-3.8 2.484 71.997 71.997 0 01-7.466-1.612l-.437 16.519 26.009-16.083-13.299-8.136-3.382.55z" fill="#ED9996"/><path d="M315.869 190.428s-10.734 2.541-34.083-4.988c-18.904-6.107-21.222-19.344-25.648-28.96-4.123 28.96-20.899 38.405-33.932 40.775l-12.615-3.982-.76-.399v.152l-8.625-2.731a22.303 22.303 0 00-16.955 1.506 22.238 22.238 0 00-10.935 13.021l-.152.474a22.175 22.175 0 001.489 16.885 22.238 22.238 0 0012.988 10.918l8.492 2.674-25.591 65.449c-6.573 18.965 8.322 36.185 27.586 42.861l.798.265a36.972 36.972 0 0028.103-1.469 36.872 36.872 0 0018.899-20.815l7.752-22.416c24.584 2.484 47.61-12.536 53.329-36.034l11.855-48.778c-10.544-13.579-1.995-24.408-1.995-24.408z" fill="#FFB1A5"/><path opacity=".5" d="M252.68 300.008s-41.797-12.327-43.583-29.32c0 0-9.613 21.639 35.984 50.447l7.599-21.127z" fill="#ED9996"/><path d="M189.187 218.534a1.917 1.917 0 01-2.128-1.669 1.913 1.913 0 011.672-2.124l6.25-1.517-3.571-8.629a1.887 1.887 0 01.418-2.066 1.884 1.884 0 011.345-.551 1.886 1.886 0 011.341.559c.176.177.316.386.41.616l4.408 10.678a1.888 1.888 0 01-.067 1.58 1.89 1.89 0 01-1.244.98l-8.397 2.029-.437.114z" fill="#DF6969"/><path d="M302.247 240.382a4.296 4.296 0 01-7.917.465 4.28 4.28 0 01.647-4.715 4.3 4.3 0 017.076.967 4.265 4.265 0 01.194 3.283zm-39.897-15.684a4.29 4.29 0 01-3.796 2.875 4.297 4.297 0 01-4.117-2.393 4.284 4.284 0 012.746-6.026 4.305 4.305 0 012.488.082 4.307 4.307 0 012.679 5.462z" fill="#211B38"/><path d="M258.246 232.322a1.904 1.904 0 01-1.899-1.328 3.684 3.684 0 00-1.577-1.896 2.836 2.836 0 00-2.223 0 1.926 1.926 0 01-.756.155 1.91 1.91 0 01-1.786-1.26 1.905 1.905 0 01.101-1.505 1.9 1.9 0 011.168-.956 6.444 6.444 0 015.206.133 7.402 7.402 0 013.495 4.172 1.893 1.893 0 01-1.254 2.371 1.926 1.926 0 01-.475.114zm40.866 15.229a1.908 1.908 0 01-1.115-.362 1.91 1.91 0 01-.69-.947 3.603 3.603 0 00-1.576-1.897 2.852 2.852 0 00-2.223 0 1.906 1.906 0 01-2.432-1.156 1.905 1.905 0 011.159-2.428 6.529 6.529 0 015.205.133 7.455 7.455 0 013.477 4.172 1.884 1.884 0 01-.12 1.451 1.887 1.887 0 01-1.115.939c-.184.06-.376.092-.57.095z" fill="#DF6969"/><path d="M282.565 216.638l-5.415 13.029a3.792 3.792 0 002.546 4.646l3.553 1.043a5.09 5.09 0 013.642 4.351 5.08 5.08 0 01-.185 1.984 12.614 12.614 0 01-6.08 7.5 12.652 12.652 0 01-9.612 1.015l-5.586-1.65" fill="#FFB1A5"/><path d="M274.604 252.633a14.64 14.64 0 01-4.122-.607l-5.7-1.65a1.893 1.893 0 01-1.273-2.351 1.897 1.897 0 012.356-1.29l5.586 1.65a10.73 10.73 0 008.152-.874 10.694 10.694 0 005.146-6.371 3.18 3.18 0 00-.246-2.427 3.229 3.229 0 00-1.9-1.536l-3.572-1.062a5.701 5.701 0 01-3.363-2.694 5.681 5.681 0 01-.456-4.286v-.189l5.396-13.029a1.904 1.904 0 012.489-1.024 1.897 1.897 0 011.026 2.465l-5.358 12.915c-.118.448-.057.924.171 1.328.238.428.633.747 1.102.891l3.572 1.043a7.006 7.006 0 014.164 3.367 6.983 6.983 0 01.566 5.319 14.563 14.563 0 01-5.238 7.505 14.61 14.61 0 01-8.688 2.907h.19z" fill="#DF6969"/><path d="M263.148 286.884a1.067 1.067 0 01-.57-.228 7.598 7.598 0 00-4.124-1.771 7.602 7.602 0 00-4.406.861.91.91 0 01-1.235-.323.893.893 0 01.323-1.213 9.505 9.505 0 0110.62 1.1.861.861 0 01.196.965.854.854 0 01-.196.286.966.966 0 01-.608.323z" fill="#E8A396"/><path d="M274.509 205.486a11.08 11.08 0 00-4.408-.797c-1.576 0-3.172-.208-4.559-.36a81.323 81.323 0 01-4.541-.645 10.91 10.91 0 00-4.465-.17c-1.234.379-1.899 1.763-.664 3.679a12.277 12.277 0 008.967 4.627 11.942 11.942 0 009.632-2.579c1.558-1.612 1.178-3.11.038-3.755zm24.052 9.255a10.752 10.752 0 013.914 2.162c1.292.929 2.603 1.897 3.8 2.598 1.197.702 2.545 1.574 3.932 2.352 1.36.64 2.57 1.558 3.553 2.693.741 1.081.361 2.56-1.805 3.281a12.45 12.45 0 01-9.879-2.143 11.946 11.946 0 01-5.833-8.079c-.209-2.162 1.026-3.092 2.318-2.864z" fill="#211B38"/><path d="M262.502 267.407a2.866 2.866 0 01-2.793-2.257l-.342-1.65a4.533 4.533 0 00-1.857-2.792 4.55 4.55 0 00-3.272-.754 2.883 2.883 0 01-3.277-2.418 2.872 2.872 0 01.532-2.137 2.887 2.887 0 011.89-1.135c2.583-.4 5.222.206 7.372 1.691a10.187 10.187 0 014.179 6.294l.361 1.65a2.832 2.832 0 01-.4 2.144 2.849 2.849 0 01-1.804 1.231 3.044 3.044 0 01-.589.133z" fill="#DF6969"/><path d="M271.74 411.31l-49.532 1.856c-5.117.192-9.109 4.488-8.917 9.596l3.599 95.687c.192 5.108 4.496 9.093 9.612 8.901l49.533-1.856c5.116-.192 9.109-4.488 8.917-9.595l-3.599-95.688c-.192-5.107-4.496-9.093-9.613-8.901z" fill="#373449"/><path opacity=".47" d="M222.78 420.727l15.889-.637a3.09 3.09 0 012.21.812 3.057 3.057 0 01.989 2.135l.003.094a3.088 3.088 0 01-2.97 3.213l-15.889.637a3.086 3.086 0 01-2.917-1.781 3.052 3.052 0 01-.281-1.165l-.004-.095a3.09 3.09 0 012.97-3.213z" fill="#DFE0FC"/><path d="M225.512 423.755a1.728 1.728 0 11-2.816-1.274 1.724 1.724 0 011.613-.304 1.73 1.73 0 011.203 1.578z" fill="#373449"/><path d="M280.817 488.577a5.947 5.947 0 00-6.973-2.105l4.522-2.826a6.649 6.649 0 002.128-9.16 6.615 6.615 0 00-3.705-2.807 6.65 6.65 0 002.312-9.081 6.676 6.676 0 00-9.075-2.392l-18.258 10.734 15.332-9.009a6.65 6.65 0 001.717-8.709 6.67 6.67 0 00-3.73-2.952 6.683 6.683 0 00-4.751.282l-32.791 19.288-6.137-3.319a11.652 11.652 0 01-6.079-8.819l-.95-7.377a27.229 27.229 0 00-8.606 5.158 68.838 68.838 0 00-13.945 17.581l-3.743 6.751s-64.918-11.929-96.36-17.599l10.221-35.636-77.001-37.93S2.812 457.19 2.793 457.228c-12.425 42.937 18.333 72.731 58.553 77.946 37.446 4.855 75.443 12.233 113.307 13.636 40.923 1.536 51.543-6.827 51.543-6.827 12.425-3.945 27.719-18.7 37.294-29.548 3.895-4.4 15.883-15.627 15.883-15.627a5.912 5.912 0 002.434-3.816 5.895 5.895 0 00-.99-4.415z" fill="#FFB1A5"/><path d="M245.404 475.89a1.426 1.426 0 01-1.346-1.938c.114-.291.319-.536.586-.698l23.273-14.414a1.424 1.424 0 011.9.455 1.444 1.444 0 01-.456 1.897l-23.255 14.394a1.417 1.417 0 01-.702.304zm6.06 11.606a1.42 1.42 0 01-1.355-1.984 1.42 1.42 0 01.633-.69l26.123-14.831a1.411 1.411 0 011.9.531 1.42 1.42 0 01-.532 1.897l-26.066 14.982a1.407 1.407 0 01-.703.095zm1.976 13.541a1.43 1.43 0 01-1.216-.682 1.42 1.42 0 01.475-1.897l22.532-13.56a1.43 1.43 0 012.116 1.572 1.433 1.433 0 01-.653.875l-22.513 13.541a1.371 1.371 0 01-.741.151z" fill="#DF6969"/><path opacity=".5" d="M97.576 424.513l-17.478 33.948 11 5.348 10.81-37.304-4.332-1.992z" fill="#ED9996"/><path d="M108.747 466.654h-.304l-31.632-6.6a1.413 1.413 0 01-.902-.616 1.413 1.413 0 01-.2-1.072 1.4 1.4 0 011.118-1.106c.183-.035.371-.033.554.006l31.651 6.6a1.425 1.425 0 011.194 1.547 1.422 1.422 0 01-1.479 1.279v-.038z" fill="#DF6969"/></g><defs><clipPath id="clip0"><path fill="#fff" d="M0 0h722v549H0z"/></clipPath></defs></svg>