<svg width="58" height="56" fill="none" xmlns="http://www.w3.org/2000/svg"><path d="M24.657 21.787c-.648-.868-2.489.092-3.394-.505-1.2-.792-1.903-3.904-2.95-4.887-1.047-.984-1.933-2.191-2.32-3.577-.465-1.672-.17-3.46.231-5.145A41.184 41.184 0 0118.722.307a30.585 30.585 0 016.302 6.1c1.322 1.712 2.498 3.724 2.385 5.884-.05.888-.142 2.783-.41 3.63-.724 2.307-1.623 3.566-2.348 5.866" fill="#FFD32A"/><path d="M24.822 21.69c-.44-.576-1.218-.499-1.86-.441a5.76 5.76 0 01-1.061.04 1.412 1.412 0 01-.404-.096 1.043 1.043 0 01-.309-.213c-.463-.427-.757-1.04-1.03-1.607-.32-.66-.598-1.345-.936-1.99a5.756 5.756 0 00-.494-.806c-.23-.3-.523-.544-.78-.82a7.798 7.798 0 01-1.538-2.307c-.822-1.995-.396-4.184.11-6.2a40.87 40.87 0 012.049-6.103c.105-.25.215-.496.324-.744l-.261.069a30.583 30.583 0 015.71 5.375 20.81 20.81 0 011.524 2.08 9.682 9.682 0 011.087 2.293c.124.39.207.793.25 1.2.028.37.028.74 0 1.11a38.475 38.475 0 01-.152 2.006c-.034.315-.076.63-.14.942a7.59 7.59 0 01-.315 1.043c-.555 1.555-1.359 3.008-1.922 4.565-.077.215-.148.432-.217.651-.07.22.294.336.369.102.272-.826.592-1.635.959-2.423.338-.75.688-1.494.988-2.26.16-.408.313-.821.436-1.242.078-.29.135-.584.171-.882.098-.706.15-1.415.192-2.126.02-.313.044-.628.043-.943a6.304 6.304 0 00-.145-1.286 8.744 8.744 0 00-.96-2.4 17.065 17.065 0 00-1.47-2.157 26.797 26.797 0 00-1.734-2.035 30.907 30.907 0 00-3.95-3.551 97.583 97.583 0 00-.53-.385.192.192 0 00-.263.067 41.913 41.913 0 00-2.205 6.15 24.968 24.968 0 00-.697 3.225 8.326 8.326 0 00.127 3.204 7.269 7.269 0 001.312 2.56c.291.374.608.726.95 1.055.215.2.404.428.56.676.362.625.683 1.272.962 1.937.265.65.602 1.268 1.003 1.843.17.246.388.455.64.616.306.155.648.226.991.205.362 0 .72-.052 1.079-.077.312-.043.63-.017.93.077a.712.712 0 01.277.192.192.192 0 00.26.07.192.192 0 00.07-.262" fill="#AC8A2F"/><path d="M32.348 33.83c1.01.384 2.062-1.396 3.146-1.37 1.438.037 3.68 2.307 5.091 2.588 1.41.28 2.798.836 3.86 1.808 1.28 1.172 1.975 2.84 2.528 4.486a41.293 41.293 0 011.772 7.577 30.61 30.61 0 01-8.565-1.848c-2.03-.754-4.1-1.834-5.141-3.73-.427-.78-1.346-2.438-1.572-3.299-.604-2.334-.508-3.884-1.111-6.219" fill="#FFD32A"/><path d="M32.3 34.008c.661.25 1.309-.275 1.8-.648a5.35 5.35 0 01.877-.576l.05-.023.025-.012c.04-.017.079-.03.12-.044l.101-.027.058-.013h.027c.029 0-.031 0 0 0a.97.97 0 01.211 0h.063a2.619 2.619 0 01.536.146c.035.011.07.025.105.04 0 0 .032.014 0 0l.024.012.062.027c.079.034.154.07.23.111.33.175.651.368.962.577.645.415 1.268.868 1.94 1.24.281.16.58.289.888.384.193.053.385.084.577.13.232.056.463.12.692.192.91.272 1.756.723 2.489 1.326a7.24 7.24 0 011.697 2.22c.424.86.779 1.754 1.06 2.672a41.684 41.684 0 011.659 7.231l.192-.242a30.558 30.558 0 01-8.233-1.727 17.778 17.778 0 01-2.174-.929 9.172 9.172 0 01-1.871-1.257 6.146 6.146 0 01-1.345-1.693 38.65 38.65 0 01-.921-1.747 12.3 12.3 0 01-.4-.888 7.15 7.15 0 01-.292-1.016c-.375-1.655-.46-3.356-.82-5.014-.05-.227-.105-.454-.162-.679a.192.192 0 00-.37.102c.217.867.38 1.746.493 2.633.11.825.21 1.65.365 2.468.075.424.173.844.292 1.258.1.304.217.6.354.888.29.638.62 1.255.96 1.87.15.273.295.552.466.813.214.327.46.633.732.913a8.426 8.426 0 001.845 1.415c.688.392 1.405.728 2.147 1.007a30.887 30.887 0 008.934 1.966c.139.01.192-.13.192-.242-.15-1.1-.342-2.192-.576-3.277a38.547 38.547 0 00-.842-3.217 25.064 25.064 0 00-1.04-2.883 8.773 8.773 0 00-1.537-2.416 6.918 6.918 0 00-2.4-1.635 9.53 9.53 0 00-1.401-.462c-.206-.051-.416-.086-.621-.14a1.631 1.631 0 01-.193-.061l-.101-.04-.048-.02h-.02a13.046 13.046 0 01-1.906-1.153 10.355 10.355 0 00-1.96-1.115 2.076 2.076 0 00-.88-.173 2 2 0 00-.961.373c-.304.192-.577.43-.879.64-.137.1-.282.19-.432.271l-.098.046c-.033.016.015 0-.02 0l-.063.025c-.068.023-.138.04-.21.054h-.065a.944.944 0 01-.103 0h-.014l-.048-.011a.613.613 0 01-.111-.035.193.193 0 00-.102.37" fill="#AC8A2F"/><path d="M20.713 31.221l-4.996 1.626c-1.017.33-2.053.665-3.123.686-2.395.046-4.497-1.433-6.414-2.852-2.144-1.585-4.341-3.226-5.744-5.5-.192-.306-.355-.725-.121-.995a.891.891 0 01.467-.225c3.755-1.013 7.628-1.642 11.518-1.672 1.055 0 2.167.044 3.074.6a5.3 5.3 0 011.388 1.389c.757 1.013 1.416 2.095 2.074 3.175l1.385 2.275c.302.496.617 1.065.47 1.626" fill="#FFD32A"/><path d="M20.661 31.037l-5.081 1.649c-.791.287-1.61.494-2.443.617a5.893 5.893 0 01-2.25-.192c-1.457-.394-2.748-1.246-3.955-2.122-1.207-.877-2.445-1.772-3.573-2.764a17.62 17.62 0 01-1.593-1.576 12.015 12.015 0 01-.696-.864 5.766 5.766 0 01-.588-.913.746.746 0 01-.084-.415.363.363 0 01.282-.268c.384-.13.802-.217 1.2-.317a53.077 53.077 0 012.523-.56 44.625 44.625 0 015.098-.708 38.55 38.55 0 012.58-.121 8.43 8.43 0 012.261.192c.36.091.701.241 1.011.444.305.211.58.463.817.748.522.626.998 1.289 1.426 1.983.463.715.903 1.445 1.345 2.173.227.375.454.748.683 1.12.22.368.46.727.657 1.108.196.316.27.693.21 1.06-.058.241.31.343.37.103.21-.856-.415-1.655-.834-2.341-.467-.769-.932-1.538-1.403-2.306-.47-.77-.918-1.48-1.424-2.19-.465-.65-.96-1.318-1.626-1.773-.665-.456-1.443-.615-2.22-.673a20.753 20.753 0 00-2.517.012 43.42 43.42 0 00-5.298.576c-.867.146-1.73.317-2.591.511-.436.098-.873.193-1.305.312-.217.054-.434.11-.65.167-.192.042-.381.1-.565.173a.74.74 0 00-.384.922c.126.348.309.673.54.961.444.633.941 1.227 1.486 1.776a30.381 30.381 0 003.58 2.985c1.25.928 2.498 1.885 3.938 2.521.71.328 1.466.543 2.243.638.831.077 1.67.002 2.475-.22.87-.222 1.72-.526 2.573-.802l2.598-.846 1.28-.415c.235-.077.135-.446-.101-.369" fill="#AC8A2F"/><path d="M24.036 34.323c-2.01 1.12-4.5.944-6.638 1.801-.735.322-1.442.704-2.114 1.142-1.095.672-2.216 1.372-2.994 2.394-1.25 1.642-1.424 3.844-1.428 5.904-.004 2.06.096 4.207-.734 6.094l5.381-.344c.834-.054 1.69-.111 2.454-.446.732-.319 1.345-.87 1.878-1.458 1.755-1.922 2.948-4.297 3.713-6.78.765-2.483 1.118-5.074 1.345-7.663a.901.901 0 00-.115-.659c-.144-.175-.506-.152-.536.075" fill="#FFD32A"/><path d="M23.946 34.158c-1.444.8-3.127.928-4.714 1.25a10.21 10.21 0 00-2.395.758c-.788.397-1.552.841-2.287 1.33-.712.428-1.37.94-1.962 1.522a6.096 6.096 0 00-1.278 2.028c-.586 1.508-.644 3.169-.642 4.768 0 1.73.061 3.5-.484 5.158a7.49 7.49 0 01-.225.59c-.052.121 0 .298.165.288l3.037-.192c.98-.063 1.962-.11 2.942-.192a7.492 7.492 0 001.38-.223c.42-.117.821-.3 1.186-.542a8.595 8.595 0 001.864-1.803 17.492 17.492 0 002.588-4.481 26.214 26.214 0 001.467-5.399c.163-.96.288-1.922.384-2.883.025-.242.05-.486.073-.73.03-.223.047-.447.052-.672a.803.803 0 00-.208-.577.577.577 0 00-.492-.134.418.418 0 00-.34.32.191.191 0 00.135.237.191.191 0 00.236-.135s.014-.061 0-.02c.014-.041 0 0 0 0l.012-.012c-.018.011-.018.011 0 0 .017-.012-.018 0 0 0a.192.192 0 01.125 0c.051.015-.023-.018.025.01l.03.019c-.029-.022.014.019.016.02l.02.037a.52.52 0 01.049.217 4.984 4.984 0 01-.044.634c-.023.233-.045.464-.07.696a45.806 45.806 0 01-.365 2.758 26.761 26.761 0 01-1.354 5.212 17.43 17.43 0 01-2.386 4.33c-.484.66-1.046 1.26-1.673 1.785a4 4 0 01-1.019.608 5.12 5.12 0 01-1.253.297c-.448.056-.898.08-1.345.108l-1.45.092-2.897.193-.725.047.167.289c.711-1.624.769-3.415.769-5.16 0-1.61-.035-3.252.415-4.815a5.98 5.98 0 011.009-2.054 7.797 7.797 0 011.812-1.603c.342-.23.692-.447 1.042-.663.384-.234.769-.469 1.153-.684.38-.214.777-.398 1.186-.551.377-.137.762-.25 1.153-.34 1.59-.373 3.252-.471 4.762-1.129.192-.08.367-.17.546-.269.215-.119.023-.451-.192-.33" fill="#AC8A2F"/><path d="M30.728 21.956a7.504 7.504 0 01-.819-1.137c-.64-1.025-1.278-2.044-1.912-3.056-.39-.58-.722-1.197-.992-1.841-.373-.986-.448-2.055-.511-3.108-.051-.819-.098-1.637-.14-2.456a12.204 12.204 0 01.036-2.356c.26-1.816 1.307-3.46 2.64-4.712 1.334-1.253 2.949-2.182 4.58-3.02a.447.447 0 01.271-.073c.106.03.197.1.256.193.857 1.11 1.293 2.479 1.714 3.816.63 2.009 1.267 4.036 1.403 6.137.078.8.004 1.609-.217 2.383-.179.555-.47 1.066-.68 1.612-.256.663-.385 1.37-.704 2.008-.227.43-.494.838-.797 1.219-1.163 1.557-2.366 3.15-4.017 4.172" fill="#FFD32A"/><path d="M30.864 21.822a6.56 6.56 0 01-.705-.961c-.24-.384-.478-.769-.717-1.153l-1.43-2.281a7.89 7.89 0 01-1.034-2.24 13.613 13.613 0 01-.3-2.478c-.053-.894-.109-1.79-.15-2.691a9.363 9.363 0 01.147-2.498c.328-1.423 1.132-2.691 2.139-3.742 1.105-1.144 2.452-2.016 3.843-2.78.348-.191.7-.384 1.056-.558.055-.027.115-.068.175-.035a.676.676 0 01.169.192c.113.156.22.317.322.483a10.7 10.7 0 01.95 2.125c.269.784.511 1.576.75 2.37.25.828.482 1.664.662 2.51.186.838.3 1.692.343 2.55a5.738 5.738 0 01-.385 2.454c-.16.384-.348.748-.5 1.13-.151.383-.265.786-.384 1.182a5.546 5.546 0 01-.463 1.115c-.215.352-.45.691-.703 1.016-.908 1.215-1.836 2.437-3.012 3.406-.283.232-.58.446-.892.64-.21.13-.017.463.192.33 1.346-.838 2.4-2.039 3.362-3.282.244-.317.484-.636.724-.961.26-.331.496-.68.707-1.044.412-.745.548-1.595.873-2.375.163-.384.358-.769.513-1.167a5.12 5.12 0 00.31-1.264c.08-.885.044-1.776-.104-2.652-.256-1.757-.796-3.46-1.328-5.147-.23-.777-.51-1.539-.836-2.281a8.257 8.257 0 00-.577-1.05c-.192-.301-.47-.81-.91-.657-.191.079-.376.17-.554.275l-.544.29c-.361.192-.719.402-1.072.615-.713.426-1.393.905-2.034 1.432a9.65 9.65 0 00-2.79 3.62 7.076 7.076 0 00-.538 2.307 22.98 22.98 0 00.07 2.74c.05.888.085 1.782.178 2.668.07.86.287 1.7.64 2.487.41.795.866 1.565 1.366 2.306.486.769.97 1.56 1.462 2.335.215.354.46.688.735.997.167.181.438-.09.27-.27" fill="#AC8A2F"/><path d="M34.706 22.623c-1.186-4.589-.13-9.666 2.804-13.499.382-.523.83-.994 1.334-1.402.488-.346.998-.659 1.528-.936.668-.385 1.314-.806 2.004-1.154 1.345-.672 2.821-1.045 4.288-1.412.269-.067.576-.13.807.017.23.148.284.42.325.67.663 4.242-.32 8.65-2.318 12.493-.352.678-.744 1.357-1.322 1.876a6.826 6.826 0 01-1.847 1.083 30.707 30.707 0 01-7.626 2.222" fill="#FFD32A"/><path d="M34.89 22.571a15.163 15.163 0 01-.45-4.556 15.91 15.91 0 01.906-4.507 15.745 15.745 0 012.183-4.086 7.207 7.207 0 011.73-1.762c.367-.242.753-.45 1.136-.669.382-.219.78-.463 1.172-.694a13.26 13.26 0 012.41-1.118c.838-.287 1.697-.508 2.556-.723.29-.073.753-.246.943.089.068.143.11.297.123.455.033.21.062.419.085.629.093.836.128 1.678.102 2.519a19.991 19.991 0 01-.813 5.006c-.24.819-.526 1.623-.855 2.41-.321.782-.69 1.542-1.105 2.278-.197.355-.43.688-.696.993-.274.301-.59.56-.94.769-.746.425-1.528.783-2.337 1.07a30.59 30.59 0 01-6.425 1.726.192.192 0 00-.132.235.192.192 0 00.234.134 31.017 31.017 0 005.331-1.322 30.167 30.167 0 002.518-.997c.786-.354 1.538-.77 2.114-1.446.529-.68.968-1.423 1.309-2.213.381-.796.718-1.611 1.009-2.443a21.214 21.214 0 001.114-5.118c.077-.86.093-1.724.049-2.587a16.886 16.886 0 00-.12-1.297c-.048-.375-.063-.819-.31-1.124-.291-.354-.77-.275-1.154-.177-.442.111-.882.221-1.322.342-.881.23-1.743.528-2.577.892-.84.384-1.609.884-2.405 1.345-.384.223-.788.436-1.164.684-.37.244-.712.528-1.019.848-.57.61-1.077 1.275-1.514 1.987a16.356 16.356 0 00-2.404 6.694c-.2 1.567-.163 3.156.111 4.712.068.384.15.76.246 1.128a.191.191 0 00.231.118.192.192 0 00.138-.22" fill="#AC8A2F"/><path d="M37.425 23.03c.427-1.616 1.226-3.105 2.02-4.575.231-.454.488-.894.769-1.319.343-.479.736-.92 1.172-1.316 1.73-1.599 3.917-2.644 6.206-3.183 2.289-.538 4.67-.576 7.009-.355.075 0 .148.023.211.063a.384.384 0 01.102.271c.13 1.663-.848 3.187-1.784 4.567l-1.43 2.114c-.961 1.414-1.968 2.882-3.435 3.755a9.71 9.71 0 01-2.039.87 28.2 28.2 0 01-4.1 1.008c-1.154.192-2.359.31-3.46-.075a1.993 1.993 0 01-1.019-.698 1.02 1.02 0 01-.02-1.174" fill="#FFD32A"/><path d="M37.61 23.08c.411-1.537 1.153-2.97 1.922-4.372a10.85 10.85 0 011.268-1.994 10.36 10.36 0 011.63-1.51 13.542 13.542 0 013.843-1.988 17.505 17.505 0 014.653-.844 23.31 23.31 0 012.487.01c.206 0 .413.025.619.04.206.015.413.021.615.054.058 0 .07.017.08.065a.983.983 0 01.022.239 3.99 3.99 0 01-.018.547 5.73 5.73 0 01-.693 2.053c-.371.67-.78 1.32-1.223 1.945-.472.697-.946 1.394-1.42 2.09-.402.59-.81 1.179-1.268 1.73a8.513 8.513 0 01-1.509 1.455 7.843 7.843 0 01-2.054 1.015 26.948 26.948 0 01-4.834 1.191 7.234 7.234 0 01-2.329.045 3.46 3.46 0 01-1.036-.331 1.345 1.345 0 01-.646-.638.795.795 0 01.08-.796.192.192 0 10-.331-.194 1.135 1.135 0 00-.148 1.007c.117.35.352.646.665.84.317.2.668.344 1.035.423.4.095.809.143 1.219.144a12.687 12.687 0 002.51-.286 28.317 28.317 0 002.498-.59c.822-.22 1.627-.498 2.408-.834a7.006 7.006 0 001.897-1.278c1.119-1.046 1.943-2.368 2.798-3.627.477-.701.961-1.397 1.424-2.114.437-.65.795-1.35 1.069-2.083.127-.365.213-.744.255-1.128.022-.187.03-.375.024-.563a.853.853 0 00-.135-.55c-.142-.165-.384-.156-.577-.175a29.133 29.133 0 00-1.93-.108 19.875 19.875 0 00-5.09.527 14.72 14.72 0 00-4.178 1.716c-1.32.81-2.564 1.86-3.388 3.187-.221.344-.413.709-.606 1.072-.192.363-.384.723-.576 1.088-.39.74-.736 1.502-1.036 2.283-.138.373-.261.751-.363 1.136a.193.193 0 00.369.102" fill="#AC8A2F"/><path d="M38.317 25.742a4.74 4.74 0 011.7-1.73c.702-.407 1.483-.591 2.207-.941.55-.265 1.065-.623 1.613-.892 1.775-.872 3.82-.768 5.68-.163 1.86.605 3.571 1.69 5.264 2.763l3.025 1.922c-.701 1.251-2.114 1.607-3.282 2.25-.551.327-1.084.684-1.595 1.07-.536.384-1.08.747-1.636 1.09a8.29 8.29 0 01-1.754.89 6.634 6.634 0 01-1.826.289c-1.774.075-3.594-.213-5.168-1.153a10.237 10.237 0 01-2.51-2.24c-.86-1.027-1.624-2.24-1.854-3.65" fill="#FFD32A"/><path d="M38.483 25.838a4.64 4.64 0 011.255-1.416c.557-.406 1.2-.628 1.837-.873a8.65 8.65 0 001.003-.444c.319-.17.627-.363.942-.54a6.293 6.293 0 011.921-.716c1.346-.258 2.741-.07 4.036.351 1.373.448 2.645 1.153 3.873 1.903 1.305.795 2.589 1.628 3.878 2.446.165.104.33.208.494.314l-.07-.264c-.674 1.188-2.065 1.553-3.188 2.168-.768.423-1.456.978-2.18 1.472a16.7 16.7 0 01-2.238 1.346c-.788.34-1.64.513-2.498.507-.8.026-1.601-.038-2.387-.192a7.936 7.936 0 01-2.27-.815 8.606 8.606 0 01-1.885-1.443c-1.09-1.08-2.097-2.391-2.508-3.892a6.2 6.2 0 01-.127-.577.192.192 0 00-.369.102c.27 1.609 1.224 3.004 2.306 4.188a10.201 10.201 0 001.868 1.631 7.876 7.876 0 002.29 1.03c.803.221 1.631.342 2.465.36a8.158 8.158 0 002.589-.28c.847-.264 1.608-.758 2.346-1.236a28.37 28.37 0 001.128-.77c.371-.264.742-.537 1.125-.787a17.97 17.97 0 011.921-.994 4.72 4.72 0 001.628-1.18 3.57 3.57 0 00.306-.444.193.193 0 00-.07-.263c-1.327-.84-2.648-1.691-3.983-2.52-1.26-.782-2.554-1.537-3.95-2.04a8.961 8.961 0 00-4.153-.565 6.523 6.523 0 00-2.031.586c-.661.317-1.259.753-1.935 1.04-.677.286-1.363.474-1.984.847a4.93 4.93 0 00-1.45 1.355 3.955 3.955 0 00-.268.411.192.192 0 00.333.192" fill="#AC8A2F"/><path d="M35.732 32.709a21.394 21.394 0 017.584-3.513 6.439 6.439 0 011.697-.23c.441.02.88.09 1.305.209 1.283.357 2.54.803 3.763 1.333 1.203.492 2.421.992 3.446 1.792.813.636 1.476 1.44 2.13 2.24.479.58.957 1.163 1.435 1.745a4.666 4.666 0 00-1.528.406c-2.306.909-4.613 1.876-7.028 2.425a9.742 9.742 0 01-2.69.296c-1.89-.102-3.624-1.03-5.28-1.945-2.062-1.141-4.228-2.415-5.283-4.526" fill="#FFD32A"/><path d="M35.828 32.868a21.28 21.28 0 016.12-3.094 14.717 14.717 0 012.306-.576c.407-.058.82-.058 1.228 0 .41.064.814.157 1.21.276.8.235 1.586.51 2.357.823.745.296 1.491.592 2.221.92a10.81 10.81 0 012.009 1.134 10.243 10.243 0 011.67 1.632c.544.636 1.066 1.29 1.599 1.935.136.17.275.337.413.504l.135-.327a4.032 4.032 0 00-1.236.28c-.4.149-.794.31-1.19.468-.788.313-1.578.626-2.373.92-1.597.59-3.246 1.142-4.938 1.384a7.258 7.258 0 01-2.498-.056 10.383 10.383 0 01-2.252-.778 33.145 33.145 0 01-2.134-1.117 30.78 30.78 0 01-1.812-1.074c-1.153-.744-2.239-1.64-2.957-2.82-.09-.147-.175-.3-.252-.455-.112-.22-.442-.027-.33.192.637 1.27 1.688 2.259 2.836 3.075a26.12 26.12 0 001.831 1.154c.673.384 1.346.759 2.038 1.106 1.485.752 3.074 1.334 4.764 1.248a13.466 13.466 0 002.606-.448 30.681 30.681 0 002.465-.76 67.015 67.015 0 002.422-.912l1.191-.473c.396-.17.802-.316 1.215-.438.199-.055.403-.087.61-.096a.192.192 0 00.136-.329c-.554-.672-1.103-1.345-1.659-2.018a14.179 14.179 0 00-1.635-1.743c-1.22-1.05-2.735-1.631-4.207-2.23a34.627 34.627 0 00-2.38-.887c-.807-.26-1.637-.507-2.48-.5-.844.008-1.648.235-2.436.458a21.846 21.846 0 00-6.795 3.315.192.192 0 00-.07.261.192.192 0 00.262.07" fill="#AC8A2F"/><path d="M26.86 36.017c-.87 1.537-2.017 2.9-2.999 4.372-.982 1.472-1.816 3.11-1.922 4.875-.025.61-.003 1.22.066 1.826.104 1.153.232 2.306.384 3.46.054.51.146 1.016.277 1.512.357 1.241 1.168 2.373 1.193 3.665.192-.855.838-1.538 1.551-2.04.713-.5 1.515-.88 2.206-1.412a11.35 11.35 0 001.3-1.226c.498-.503.953-1.047 1.358-1.628 1.034-1.55 1.378-3.447 1.7-5.283.153-.72.226-1.453.216-2.189-.053-1.06-.443-2.077-.91-3.032-.41-.838-.896-1.663-1.611-2.262a4.088 4.088 0 00-2.777-.936" fill="#FFD32A"/><path d="M26.694 35.918c-.692 1.223-1.555 2.333-2.371 3.471-.792 1.103-1.538 2.249-2.036 3.517a7.997 7.997 0 00-.503 1.941c-.072.733-.065 1.472.021 2.204.07.754.146 1.506.23 2.257.085.745.158 1.499.3 2.235a9.19 9.19 0 00.658 1.922c.28.574.489 1.18.62 1.806.024.148.038.298.04.448 0 .21.33.269.385.05.167-.74.688-1.332 1.276-1.786.684-.526 1.474-.893 2.178-1.391.705-.54 1.35-1.154 1.925-1.831a9 9 0 001.509-2.134c.748-1.537 1.032-3.276 1.305-4.956.082-.469.13-.943.144-1.418a5.715 5.715 0 00-.161-1.376 10.464 10.464 0 00-.982-2.46 6.105 6.105 0 00-1.492-1.951 4.305 4.305 0 00-2.861-.951c-.246.011-.246.394 0 .384a3.931 3.931 0 012.248.596 4.93 4.93 0 011.57 1.745c.43.73.775 1.507 1.027 2.316.13.413.214.84.25 1.272a6.74 6.74 0 01-.066 1.391c-.12.857-.279 1.716-.463 2.562-.16.802-.4 1.586-.713 2.34a8.029 8.029 0 01-1.345 2.105c-.29.33-.592.65-.898.961-.3.319-.62.617-.96.892-1.242.974-2.978 1.5-3.68 3.038a2.741 2.741 0 00-.191.542l.384.052c-.033-1.316-.813-2.423-1.182-3.651a12.717 12.717 0 01-.365-2.153 99.618 99.618 0 01-.244-2.235 17.08 17.08 0 01-.129-2.258 7.11 7.11 0 01.367-1.94c.421-1.27 1.13-2.42 1.893-3.51.798-1.138 1.665-2.23 2.389-3.417.088-.146.175-.294.258-.442a.192.192 0 00-.331-.192" fill="#AC8A2F"/><path d="M31.272 35.617a15.868 15.868 0 01-.489 4.141c-.173.68-.384 1.345-.497 2.043-.371 2.424.703 4.891 2.383 6.748.41.467.876.883 1.387 1.237.595.377 1.223.699 1.876.961l3.186 1.38c.12.061.25.1.385.112.41 0 .659-.42.79-.786.693-1.942.79-4.036.693-6.07-.048-1.003-.146-2.02-.532-2.953a7.838 7.838 0 00-1.113-1.81c-2.018-2.584-4.952-4.613-8.298-5.19" fill="#FFD32A"/><path d="M31.08 35.617a15.48 15.48 0 01-.147 2.387 18.63 18.63 0 01-.51 2.36 9.368 9.368 0 00-.4 2.227 7.424 7.424 0 00.242 2.035 9.712 9.712 0 001.937 3.675 8.73 8.73 0 001.595 1.537c.64.428 1.323.784 2.039 1.065l2.266.991.576.252c.181.077.362.167.548.23a.817.817 0 00.9-.237c.203-.259.352-.556.436-.873.12-.365.22-.738.305-1.113.164-.76.268-1.53.31-2.306.042-.774.046-1.55.01-2.325a12.11 12.11 0 00-.272-2.297c-.344-1.42-1.249-2.612-2.221-3.67a14.878 14.878 0 00-3.018-2.522 12.928 12.928 0 00-3.636-1.584 9.466 9.466 0 00-.945-.192.192.192 0 00-.217.278.193.193 0 00.115.091c1.269.22 2.494.641 3.63 1.247a14.057 14.057 0 013.09 2.237c.46.438.891.904 1.292 1.396a8.875 8.875 0 011.165 1.752c.302.669.488 1.384.551 2.114.076.747.112 1.497.108 2.247a14.507 14.507 0 01-.607 4.459 2.17 2.17 0 01-.36.784.478.478 0 01-.286.192h-.071a.384.384 0 01-.093-.014 1.602 1.602 0 01-.247-.092l-2.222-.96c-.715-.31-1.443-.6-2.131-.962a6.792 6.792 0 01-1.73-1.305 9.85 9.85 0 01-2.19-3.384 6.974 6.974 0 01-.337-3.917c.165-.768.415-1.52.576-2.294a16.08 16.08 0 00.312-2.347c.02-.384.028-.769.023-1.153a.192.192 0 00-.385 0" fill="#AC8A2F"/><path d="M18.655 32.426a108.755 108.755 0 00-5.012-.384 20.519 20.519 0 00-1.332-.038c-3.184.048-6.251 1.562-8.513 3.807-.908.9-1.707 1.922-2.749 2.66.127.196.312.347.529.432A32.338 32.338 0 008.42 41.47c.474.127.956.222 1.443.285a6.76 6.76 0 005.052-1.538 17.546 17.546 0 001.576-1.63 29.197 29.197 0 012.395-2.332c.596-.521 1.257-1.098 1.345-1.884a2.071 2.071 0 00-.527-1.537c-.373-.411-.8-.77-1.27-1.065" fill="#FFD32A"/><path d="M18.655 32.234c-1.453-.143-2.908-.26-4.365-.348-.717-.042-1.433-.092-2.15-.07-.605.02-1.207.09-1.801.207-1.18.243-2.32.657-3.38 1.23a13.921 13.921 0 00-2.95 2.104c-.925.857-1.701 1.868-2.68 2.672-.119.1-.244.192-.369.284a.192.192 0 00-.069.261c.192.371.658.535 1.013.712.416.203.837.4 1.263.587.853.385 1.73.717 2.606 1.02.876.3 1.76.56 2.656.783.855.24 1.743.341 2.63.302a6.938 6.938 0 004.461-2.035c.648-.64 1.228-1.346 1.866-2 .327-.335.663-.66 1.005-.98.343-.318.644-.576.961-.86.577-.525 1.132-1.184 1.082-2.008-.055-.906-.7-1.59-1.385-2.114-.17-.127-.342-.248-.515-.37a.192.192 0 00-.193.333c.646.448 1.365.948 1.626 1.73.123.348.114.73-.025 1.072-.149.322-.36.611-.62.851-.285.285-.596.542-.896.811-.329.297-.651.602-.96.913-.633.625-1.217 1.294-1.823 1.943a7.493 7.493 0 01-1.895 1.538c-.69.375-1.44.625-2.217.738a6.727 6.727 0 01-2.418-.106 28.908 28.908 0 01-2.602-.71 30.945 30.945 0 01-2.516-.92 27.183 27.183 0 01-2.397-1.11.84.84 0 01-.369-.32l-.076.26c1.041-.744 1.843-1.745 2.74-2.642a13.624 13.624 0 012.833-2.182 12.187 12.187 0 013.28-1.326 10.552 10.552 0 011.73-.269c.681-.036 1.364-.03 2.045.02a112.255 112.255 0 014.878.378.192.192 0 000-.385" fill="#AC8A2F"/><path d="M20.711 25.713a23.297 23.297 0 01-6.597-1.076 9.75 9.75 0 01-2.676-1.22A9.372 9.372 0 019.574 21.6c-1.422-1.751-2.533-3.779-3.057-5.971-.273-1.154-.385-2.32-.592-3.479-.17-.947-.4-1.883-.633-2.82 2.754.297 5.47.871 8.109 1.715.813.236 1.596.563 2.335.976 2.561 1.526 3.734 4.56 4.727 7.372.329.828.564 1.69.7 2.57.061.699.061 1.402 0 2.1-.038.671-.144 1.45-.725 1.784" fill="#FFD32A"/><path d="M20.711 25.521a23.155 23.155 0 01-5.06-.653 19.771 19.771 0 01-2.408-.736 7.503 7.503 0 01-2.039-1.128 10.701 10.701 0 01-1.635-1.715 16.763 16.763 0 01-1.292-1.873 13.896 13.896 0 01-1.683-4.33c-.171-.854-.275-1.73-.415-2.581a34.51 34.51 0 00-.544-2.583c-.05-.212-.104-.421-.156-.63l-.192.242a40.393 40.393 0 018.429 1.82 8.87 8.87 0 012.37 1.13c1.203.855 2.066 2.098 2.73 3.4.344.684.651 1.385.921 2.102a46.4 46.4 0 01.83 2.321c.154.457.275.924.36 1.398.072.47.099.946.08 1.422 0 .442-.025.89-.077 1.33a2.18 2.18 0 01-.29.938.96.96 0 01-.305.288.192.192 0 00.192.332c.682-.401.78-1.268.822-1.981.03-.496.058-.994.04-1.49a7.395 7.395 0 00-.207-1.495 24.071 24.071 0 00-.845-2.552 28.556 28.556 0 00-.9-2.208c-.642-1.386-1.466-2.733-2.64-3.732a7.779 7.779 0 00-2.212-1.296 27.014 27.014 0 00-2.774-.878A41.528 41.528 0 006.017 9.23c-.242-.029-.482-.058-.724-.083-.13-.015-.212.133-.193.242.216.871.433 1.744.598 2.628.165.884.273 1.73.42 2.594.133.817.338 1.62.61 2.402.264.738.585 1.454.961 2.141a16.74 16.74 0 001.272 1.972 13.3 13.3 0 001.576 1.807 7.413 7.413 0 002.01 1.324c.774.336 1.573.61 2.39.822a23.667 23.667 0 005.772.827.192.192 0 000-.385" fill="#AC8A2F"/><path d="M46.18 29.156a16.68 16.68 0 11-33.36 0 16.68 16.68 0 0133.36 0z" fill="#D4AC2A"/><path d="M44.742 29.16a15.163 15.163 0 11-30.327.003 15.163 15.163 0 0130.327-.004z" fill="#AC8A2F"/><path d="M44.313 29.156a14.813 14.813 0 11-29.627 0 14.813 14.813 0 0129.627 0z" fill="#E8D16E"/><path d="M43.458 29.688c0 7.468-6.304 13.522-14.08 13.522-7.775 0-14.079-6.054-14.079-13.522s6.304-13.522 14.08-13.522c7.775 0 14.079 6.053 14.079 13.522z" fill="#F8E876"/></svg>