<svg width="650" height="650" fill="none" xmlns="http://www.w3.org/2000/svg"><path d="M349.61 563.72h.091c2.454.07 4.459-.448 4.529-2.902l3.029-70.706-8.967-.266-3.021 70.685c-.07 2.446 1.9 3.084 4.346 3.161" fill="#503B29"/><path d="M349.61 563.72h.091c2.454.07 3.085-.448 3.155-2.902l3.028-70.706-5.608-.266-3.028 70.713c-.07 2.446-.105 3.084 2.341 3.161" fill="#60462C"/><path d="M345.825 541.475a12.14 12.14 0 005.019-1.479 17.14 17.14 0 01-.701 6.015 7.922 7.922 0 01-4.522 1.318c0-.393.176-5.854.176-5.854" fill="#503B29"/><path d="M367.865 568.992a3.231 3.231 0 002.65-5.076l-15.85-22.748a3.227 3.227 0 00-4.494-.806 3.228 3.228 0 00-.806 4.493l15.85 22.756a3.232 3.232 0 002.65 1.402" fill="#503B29"/><path d="M367.865 568.992a3.21 3.21 0 001.844-.582c1.465-1.017 1.255-2.566.238-4.031l-15.85-22.755c-1.017-1.459-2.468-2.279-3.926-1.262-1.458 1.016-.105 2.103.911 3.568l15.851 22.755c.624.898-.084 2.307.932 2.307z" fill="#60462C"/><path d="M368.854 598.946h-.106c-2.86.084-5.194-.526-5.278-3.379l-3.506-87.818 10.453-.302 3.505 87.811c.084 2.854-2.215 3.604-5.068 3.688z" fill="#503B29"/><path d="M368.853 598.946h-.105c-2.86.084-3.112-.526-3.196-3.379l-3.505-87.818 6.673-.302 3.505 87.811c.085 2.854-.525 3.604-3.379 3.688" fill="#60462C"/><path d="M241.848 563.72h-.091c-2.454.07-4.452-.448-4.529-2.902l-3.028-70.706 8.966-.266 3.028 70.713c.07 2.446-1.9 3.084-4.346 3.161z" fill="#503B29"/><path d="M241.848 563.72h-.091c-2.454.07-3.078-.448-3.155-2.902l-3.028-70.706 5.608-.266 3.028 70.713c.07 2.446.105 3.084-2.341 3.161" fill="#60462C"/><path d="M223.593 568.992a3.237 3.237 0 01-2.855-1.739 3.239 3.239 0 01.212-3.337l15.843-22.748a3.244 3.244 0 012.08-1.334 3.22 3.22 0 012.414.527 3.244 3.244 0 011.334 2.08 3.22 3.22 0 01-.528 2.414l-15.85 22.756a3.216 3.216 0 01-2.65 1.402" fill="#503B29"/><path d="M223.593 568.992a3.21 3.21 0 01-1.844-.582c-1.465-1.017-1.255-2.566-.238-4.031l15.85-22.755c1.024-1.459 2.468-2.279 3.926-1.262 1.458 1.016.112 2.103-.911 3.568l-15.851 22.755c-.624.898.091 2.307-.932 2.307z" fill="#60462C"/><path d="M222.591 598.946h.098c2.86.084 5.194-.526 5.278-3.379l3.506-87.818-10.453-.302-3.505 87.811c-.084 2.854 2.215 3.604 5.076 3.688z" fill="#503B29"/><path d="M222.59 598.946h.099c2.86.084 3.112-.526 3.196-3.379l3.505-87.818-6.68-.302-3.485 87.818c-.084 2.854.526 3.604 3.386 3.688" fill="#60462C"/><path d="M365.432 512.088c-4.051 0-5.341.792-5.341.792l-.155-5.131 10.453-.302.168 5.658s-.806-1.017-5.125-1.017zm-139.456 0c4.052 0 5.335.792 5.335.792l.154-5.131-10.452-.302-.168 5.658s.806-1.017 5.131-1.017z" fill="#453224"/><path d="M255.539 351.014h-8.819v116.329h8.819V351.014z" fill="#503B29"/><path d="M254.018 351.014h-5.777v116.329h5.777V351.014z" fill="#60462C"/><path d="M345.257 351.014h-8.812v116.329h8.812V351.014z" fill="#503B29"/><path d="M343.602 351.014h-5.496v116.329h5.496V351.014z" fill="#60462C"/><path d="M255.539 349.73h-8.819v22.903s1.717-.883 4.907-.442a8.337 8.337 0 013.905 1.36l.007-23.821zm89.732 0h-8.826v23.836a11.697 11.697 0 014.521-1.346c3.239-.421 4.298.427 4.298.427l.007-22.917z" fill="#453224"/><path d="M307.485 351.014v55.227a4.951 4.951 0 01-4.949 4.949h-13.263a4.95 4.95 0 01-4.95-4.949v-55.227h-8.819v116.329h8.819v-40.828a4.95 4.95 0 014.95-4.95h13.235a4.952 4.952 0 014.949 4.95v40.828h8.812V351.014h-8.784z" fill="#503B29"/><path d="M308.747 353.922v54.309c0 2.601-3.021 4.704-5.608 4.704h-14.462c-2.594 0-5.609-2.103-5.609-4.704v-54.309h-6.526v110.51h6.526v-39.706c0-2.594 3.029-4.704 5.609-4.704h14.448c2.601 0 5.608 2.103 5.608 4.704v39.706h6.534v-110.51h-6.52z" fill="#60462C"/><path d="M316.297 351.574h-8.812v23.835a11.837 11.837 0 014.578-.883c1.416-.03 2.83.123 4.206.456l.028-23.408zm-40.793 0h8.819v23.835a10.412 10.412 0 00-4.493-.883 16.536 16.536 0 00-4.326.456v-23.408z" fill="#453224"/><path d="M295.904 372.815c-19.39 0-37.729-1.452-51.645-4.087-4.704-.891-12.618-2.398-19.257-5.798-6.246-3.211-6.695-8.118-6.695-15.787 0-6.877.961-12.457 7.838-12.457 4.69 0 37.911 7.459 69.759 7.459s65.07-7.459 69.753-7.459c6.877 0 7.844 5.608 7.844 12.457 0 8.076-.995 13.081-7.711 16.278-6.393 3.056-13.789 4.458-18.227 5.307-13.915 2.635-32.247 4.087-51.645 4.087" fill="#503B29"/><path d="M295.904 369.436c-47.824 0-64.291-7.711-70.902-11.069-6.246-3.211-5.77-9.478-5.77-11.216 0-6.877.036-12.458 6.913-12.458 4.69 0 37.911 7.459 69.759 7.459s65.07-7.459 69.753-7.459c6.877 0 6.919 5.609 6.919 12.458 0 1.255-.07 8.517-6.772 11.714-6.393 3.056-22.075 10.578-69.9 10.578" fill="#60462C"/><path d="M375.219 494.654H216.59c-4.263 0-.049-7.207 7.711-14.512l7.774-7.311c5.132-4.816 9.387-8.188 13.6-8.188h100.444c4.557 0 8.468 3.372 13.593 8.188l7.781 7.311c7.775 7.305 11.988 14.512 7.712 14.512" fill="#503B29"/><path d="M359.193 485.743H232.615c-7.711 0-4.697-4.613.133-9.562l5.132-5.251c3.561-3.645 6.772-6.309 10.74-6.309h94.548c4.29 0 7.178 2.643 10.732 6.309l5.132 5.251c4.837 4.949 7.88 9.562.14 9.562m11.553 24.229H221.083a7.273 7.273 0 01-7.276-7.241v-4.999a14.9 14.9 0 014.101-10.515c-1.024 1.255-.309 3.26 2.25 3.26h151.486c2.558 0 3.505-1.297 2.257-3.26.743 1.135 4.101 4.844 4.101 10.515v4.999a7.279 7.279 0 01-7.277 7.276" fill="#60462C"/><path d="M370.725 509.972H221.083a7.276 7.276 0 01-7.276-7.241v-4.999c0 4.999 3.792 6.878 6.351 6.878h151.486c2.558 0 6.358-3.225 6.358-6.878v4.999a7.277 7.277 0 01-7.277 7.276" fill="#503B29"/><path d="M276.331 193.766c-4.136-5.538-15.871.582-21.64-3.225-7.656-5.047-12.135-24.894-18.816-31.175-6.681-6.281-12.331-13.964-14.792-22.804-2.965-10.67-1.1-22.048 1.465-32.816a263.715 263.715 0 0115.977-46.969 195.21 195.21 0 0140.183 38.9c8.412 10.923 15.983 23.758 15.212 37.541-.315 5.65-.904 17.743-2.608 23.134-4.619 14.672-10.361 22.727-14.981 37.407" fill="#FFD22B"/><path d="M277.383 193.148c-2.804-3.667-7.76-3.183-11.861-2.804a37.692 37.692 0 01-6.758.245 8.752 8.752 0 01-2.58-.61 6.778 6.778 0 01-1.977-1.36c-2.951-2.72-4.823-6.625-6.569-10.242-2.026-4.206-3.799-8.552-5.965-12.703a35.58 35.58 0 00-3.148-5.124c-1.465-1.928-3.337-3.505-4.984-5.244a49.778 49.778 0 01-9.78-14.721c-5.244-12.724-2.517-26.675.701-39.539a261.463 261.463 0 0113.046-38.92c.701-1.592 1.402-3.17 2.103-4.747l-1.675.442a192.736 192.736 0 0125.237 21.809 189.834 189.834 0 0111.161 12.47 129.251 129.251 0 019.723 13.264 61.759 61.759 0 016.94 14.623 39.63 39.63 0 011.577 7.691 45.54 45.54 0 01.042 7.066c-.238 4.269-.497 8.545-.967 12.794-.217 2.012-.484 4.024-.883 6.008a49.452 49.452 0 01-2.019 6.652c-3.547 9.899-8.672 19.167-12.177 29.093a130.125 130.125 0 00-1.402 4.143c-.477 1.507 1.879 2.152 2.355.652a141.424 141.424 0 016.022-15.422c2.152-4.782 4.389-9.527 6.309-14.414 1.017-2.601 1.998-5.243 2.805-7.921a39.612 39.612 0 001.093-5.609c.624-4.493.954-9.022 1.22-13.55.119-1.998.287-4.01.273-6.015a39.353 39.353 0 00-.925-8.202 55.571 55.571 0 00-6.057-15.304 108.341 108.341 0 00-9.38-13.754 194.45 194.45 0 00-11.118-12.99 196.905 196.905 0 00-28.574-25.146 1.217 1.217 0 00-1.353.077 1.217 1.217 0 00-.316.357 266.088 266.088 0 00-14.062 39.258 158.52 158.52 0 00-4.445 20.554c-.897 6.793-.946 13.776.806 20.435a46.087 46.087 0 008.371 16.334 64.545 64.545 0 006.05 6.73 21.947 21.947 0 013.589 4.312c2.432 3.897 4.206 8.181 6.12 12.352 1.844 4.038 3.701 8.195 6.393 11.749a14.555 14.555 0 004.087 3.926c1.893 1.1 4.206 1.332 6.31 1.311 2.292 0 4.577-.337 6.87-.484 2.012-.14 4.073-.245 5.937.484a4.463 4.463 0 011.753 1.283 1.269 1.269 0 001.675.434c.278-.165.479-.432.56-.745a1.22 1.22 0 00-.125-.923" fill="#AB892F"/><path d="M325.383 270.513c6.435 2.509 13.151-8.889 20.063-8.714 9.17.231 23.471 14.722 32.465 16.495 8.994 1.774 17.848 5.328 24.613 11.525 8.16 7.48 12.618 18.122 16.124 28.616a263.316 263.316 0 0111.3 48.294 195.208 195.208 0 01-54.68-11.742c-12.934-4.809-26.135-11.7-32.773-23.8-2.72-4.963-8.616-15.542-10.032-21.031-3.849-14.897-3.239-24.767-7.08-39.671" fill="#FFD22B"/><path d="M325.053 271.699c4.206 1.591 8.342-1.746 11.483-4.129a34.118 34.118 0 015.608-3.723l.323-.168.161-.07s-.154.063 0 0c.252-.098.505-.196.757-.273.252-.077.428-.134.645-.183l.379-.077h.161c.189-.042-.189 0 0 0 .45-.038.903-.038 1.353 0h.287c.105 0 .365.042.119 0l.645.112c.956.195 1.894.47 2.804.821l.659.259.169.07.385.175c.498.225.982.463 1.465.701a70.859 70.859 0 016.134 3.653c4.115 2.643 8.09 5.538 12.381 7.9a26.92 26.92 0 005.664 2.482c1.213.337 2.468.533 3.687.827a61.89 61.89 0 014.41 1.227 42.082 42.082 0 0115.812 8.403 42.075 42.075 0 0110.883 14.219 112.97 112.97 0 016.765 17.035 267.546 267.546 0 015.742 20.33 257.04 257.04 0 014.087 20.716c.266 1.689.511 3.386.743 5.075l1.177-1.542a193.867 193.867 0 01-35.346-5.735 194.32 194.32 0 01-17.14-5.285 111.327 111.327 0 01-13.859-5.924 58.219 58.219 0 01-11.918-8.013 41.454 41.454 0 01-4.907-5.173 40.212 40.212 0 01-3.624-5.609c-2.019-3.68-4.031-7.367-5.875-11.139-.925-1.9-1.816-3.793-2.545-5.664a43.988 43.988 0 01-1.857-6.485c-2.391-10.55-2.938-21.402-5.237-31.967a104.086 104.086 0 00-1.031-4.332c-.392-1.521-2.748-.877-2.355.652a145.164 145.164 0 013.134 16.789c.701 5.258 1.331 10.516 2.341 15.739a73.208 73.208 0 001.858 8.033 49.75 49.75 0 002.25 5.658c1.851 4.059 3.954 8.005 6.092 11.917.953 1.746 1.879 3.505 2.972 5.188a39.547 39.547 0 004.662 5.825 53.711 53.711 0 0011.735 8.988 95.641 95.641 0 0013.692 6.435 207.832 207.832 0 0016.761 5.608A197.38 197.38 0 00429.941 368a1.242 1.242 0 001.185-1.543 269.177 269.177 0 00-3.715-20.897 260.15 260.15 0 00-5.377-20.527 159.32 159.32 0 00-6.618-18.402 56.27 56.27 0 00-9.772-15.422 44.017 44.017 0 00-15.318-10.432 60.247 60.247 0 00-8.84-2.923c-1.311-.329-2.657-.554-3.961-.89a19.48 19.48 0 01-1.276-.4l-.652-.245-.308-.126s-.182-.078-.063 0l-.112-.049c-4.326-1.914-8.237-4.704-12.156-7.312-3.919-2.608-8.02-5.384-12.507-7.109a13.459 13.459 0 00-5.608-1.107 13.01 13.01 0 00-6.099 2.376c-1.935 1.269-3.715 2.755-5.608 4.087a22.943 22.943 0 01-2.755 1.725l-.624.301c-.21.098.091-.035-.119.049s-.274.112-.414.154a7.945 7.945 0 01-1.332.344c.246-.042-.042 0-.14 0h-1.002c-.26 0 .154.042-.078 0l-.308-.063a5.197 5.197 0 01-.701-.224 1.223 1.223 0 00-1.5.855 1.254 1.254 0 00.848 1.507" fill="#AB892F"/><path d="M251.178 253.927l-31.903 10.369c-6.492 2.103-13.096 4.241-19.917 4.374-15.191.294-28.637-9.155-40.856-18.185-13.677-10.116-27.683-20.582-36.636-35.051-1.205-1.949-2.264-4.613-.771-6.345a5.611 5.611 0 012.952-1.472c23.954-6.456 48.644-10.466 73.447-10.662 6.736-.057 13.831.273 19.558 3.82 3.576 2.208 6.31 5.503 8.847 8.868 4.83 6.457 9.037 13.355 13.229 20.239l8.833 14.511c1.928 3.162 3.926 6.793 2.986 10.369" fill="#FFD22B"/><path d="M250.856 252.748l-32.381 10.516c-5.075 1.647-10.235 3.323-15.562 3.933a37.738 37.738 0 01-14.358-1.178c-9.309-2.566-17.56-7.999-25.321-13.586-7.76-5.587-15.528-11.301-22.727-17.624-3.6-3.125-6.994-6.48-10.158-10.046a75.88 75.88 0 01-4.438-5.517 36.05 36.05 0 01-3.743-5.818 4.813 4.813 0 01-.554-2.657 2.316 2.316 0 011.802-1.697c2.488-.834 5.103-1.402 7.648-2.019a347.95 347.95 0 0116.082-3.582 283.949 283.949 0 0132.527-4.515 251.051 251.051 0 0116.44-.764c4.816-.07 9.73-.077 14.427 1.164a21.47 21.47 0 016.449 2.804 26.5 26.5 0 015.209 4.767 111.453 111.453 0 019.113 12.619c2.952 4.563 5.756 9.225 8.581 13.873l4.353 7.143c1.402 2.335 2.945 4.634 4.206 7.06 1.073 2.103 1.921 4.416 1.346 6.765-.378 1.528 1.977 2.18 2.356.652 1.346-5.461-2.65-10.558-5.314-14.939-2.977-4.893-5.959-9.787-8.945-14.68-2.902-4.732-5.868-9.436-9.113-13.957-2.966-4.157-6.092-8.413-10.362-11.315-4.269-2.902-9.211-3.919-14.16-4.29a134.776 134.776 0 00-16.054.07 278.802 278.802 0 00-33.783 3.687 303.59 303.59 0 00-16.537 3.267 327.628 327.628 0 00-12.457 3.05 22.16 22.16 0 00-3.597 1.1c-2.362 1.073-3.084 3.505-2.418 5.889.638 2.264 2.103 4.276 3.442 6.183a87.068 87.068 0 009.478 11.315c6.968 7.073 14.876 13.13 22.825 19.033 7.95 5.902 16.005 12.022 25.118 16.088a48.311 48.311 0 0014.301 4.066 44.004 44.004 0 0015.795-1.402c5.545-1.402 10.964-3.337 16.404-5.103l16.572-5.391 8.167-2.65c1.486-.484.848-2.846-.652-2.356" fill="#AB892F"/><path d="M272.42 273.703c-12.829 7.151-28.743 6.015-42.343 11.49-4.753 1.914-9.155 4.599-13.522 7.284-7.011 4.29-14.14 8.749-19.104 15.275-7.963 10.467-9.078 24.536-9.113 37.646-.035 13.109.617 26.828-4.69 38.865l34.351-2.195c5.321-.343 10.768-.701 15.654-2.804 4.669-2.033 8.524-5.552 11.966-9.302 11.217-12.212 18.802-27.411 23.681-43.247 4.879-15.836 7.137-32.359 8.602-48.869.126-1.451.203-3.07-.701-4.206-.905-1.136-3.232-.967-3.421.484" fill="#FFD22B"/><path d="M271.803 272.652c-9.205 5.097-19.944 5.917-30.074 7.971a65.143 65.143 0 00-15.262 4.837 140.033 140.033 0 00-14.581 8.483c-4.459 2.804-8.84 5.895-12.521 9.709a38.778 38.778 0 00-8.153 12.92c-3.736 9.625-4.101 20.218-4.094 30.418 0 10.992.386 22.32-3.091 32.899a52.672 52.672 0 01-1.402 3.757c-.344.772.035 1.907 1.051 1.837l19.342-1.227c6.246-.399 12.513-.701 18.759-1.226a47.942 47.942 0 008.798-1.402 26.865 26.865 0 007.564-3.45c4.613-3.049 8.413-7.234 11.918-11.503a111.04 111.04 0 0016.502-28.581c4.403-11.077 7.34-22.7 9.31-34.456 1.037-6.113 1.837-12.275 2.488-18.444.162-1.55.323-3.099.463-4.648.19-1.425.3-2.86.33-4.297a5.148 5.148 0 00-1.318-3.695 3.639 3.639 0 00-3.134-.848 2.665 2.665 0 00-1.4.686 2.665 2.665 0 00-.773 1.354 1.263 1.263 0 00.855 1.507 1.242 1.242 0 001.507-.855s.092-.393 0-.133c.085-.26.042 0 0 0l.07-.077c-.112.077-.112.077 0 0 .239-.183-.105 0 .057-.035.258-.091.54-.091.799 0 .329.098-.147-.106.154.063.063.042.133.077.196.126-.182-.14.091.119.098.126.049.077.093.157.134.238.203.44.308.918.308 1.402a31.162 31.162 0 01-.287 4.038 353.847 353.847 0 01-.435 4.445c-.617 5.881-1.36 11.756-2.327 17.589a170.105 170.105 0 01-8.735 33.306 111.08 111.08 0 01-15.199 27.613 65.222 65.222 0 01-10.662 11.343 25.463 25.463 0 01-6.492 3.884 32.34 32.34 0 01-7.992 1.934c-2.853.358-5.72.505-8.58.702l-9.24.588-18.479 1.185-4.62.295c.358.609.701 1.226 1.059 1.836 4.535-10.361 4.872-21.774 4.865-32.906 0-10.27-.231-20.73 2.636-30.705a38.148 38.148 0 016.442-13.095c3.197-4.08 7.284-7.34 11.553-10.229 2.18-1.465 4.41-2.846 6.639-4.206 2.44-1.493 4.907-2.993 7.389-4.367a55.489 55.489 0 017.557-3.505 64.028 64.028 0 017.396-2.166c10.13-2.377 20.729-3.001 30.369-7.2a46.361 46.361 0 003.505-1.711c1.402-.764.14-2.874-1.234-2.103" fill="#AB892F"/><path d="M315.056 194.838a46.412 46.412 0 01-5.222-7.256l-12.198-19.488c-2.363-3.772-4.739-7.579-6.309-11.736-2.384-6.309-2.854-13.109-3.267-19.818-.323-5.215-.62-10.436-.891-15.661-.252-5.012-.476-10.067.232-15.03 1.654-11.588 8.328-22.02 16.824-30.053 8.497-8.034 18.802-13.909 29.212-19.25a2.877 2.877 0 011.725-.47c.679.194 1.26.637 1.626 1.24 5.468 7.081 8.251 15.809 10.936 24.34 4.024 12.801 8.076 25.749 8.946 39.139.329 5.104.182 10.319-1.402 15.184-1.143 3.548-3.001 6.814-4.34 10.292-1.633 4.206-2.489 8.741-4.486 12.807a50.063 50.063 0 01-5.09 7.768c-7.41 9.926-15.079 20.091-25.609 26.639" fill="#FFD22B"/><path d="M315.919 193.975a41.303 41.303 0 01-4.501-6.169c-1.528-2.43-3.052-4.863-4.571-7.298-3.035-4.858-6.092-9.695-9.113-14.56-2.804-4.515-5.307-9.114-6.597-14.287-1.29-5.174-1.584-10.516-1.914-15.808-.343-5.707-.701-11.413-.946-17.127-.245-5.341-.28-10.732.932-15.976 2.103-9.078 7.214-17.217 13.635-23.87 7.011-7.29 15.633-12.85 24.473-17.715a213.85 213.85 0 016.737-3.569c.344-.175.701-.427 1.115-.224a4.13 4.13 0 011.066 1.234 64.916 64.916 0 012.061 3.063 68.467 68.467 0 016.064 13.566c1.71 4.99 3.252 10.052 4.781 15.107 1.591 5.285 3.077 10.613 4.206 16.011a96.372 96.372 0 012.173 16.257c.217 5.377-.33 10.656-2.405 15.661-1.009 2.426-2.208 4.76-3.182 7.2-.975 2.439-1.683 5.012-2.475 7.536a35.115 35.115 0 01-2.958 7.115 67.68 67.68 0 01-4.48 6.485c-5.783 7.711-11.7 15.542-19.201 21.732a54.473 54.473 0 01-5.693 4.087c-1.338.827-.112 2.944 1.234 2.103 8.581-5.349 15.297-13.004 21.424-20.94a445.21 445.21 0 004.627-6.113 58.376 58.376 0 004.507-6.653c2.622-4.76 3.505-10.179 5.566-15.156 1.038-2.503 2.286-4.907 3.274-7.438a32.55 32.55 0 001.97-8.062c.701-5.608.14-11.342-.666-16.909-1.619-11.216-5.075-22.054-8.468-32.829a123.13 123.13 0 00-5.314-14.504 50.68 50.68 0 00-3.659-6.681c-1.269-1.935-3.001-5.18-5.798-4.206a27.151 27.151 0 00-3.505 1.76 200.785 200.785 0 00-3.47 1.85 167.966 167.966 0 00-6.835 3.912 106.98 106.98 0 00-12.976 9.113c-7.529 6.26-13.965 14.02-17.786 23.092a44.89 44.89 0 00-3.449 14.687c-.364 5.811.134 11.672.456 17.469.316 5.672.54 11.371 1.136 17.021.575 5.49 1.696 10.845 4.073 15.858 2.439 5.124 5.706 9.863 8.714 14.658 3.105 4.971 6.197 9.948 9.323 14.897a44.275 44.275 0 004.683 6.352c1.073 1.156 2.804-.575 1.732-1.732z" fill="#AB892F"/><path d="M340.42 199.092c-7.564-29.269-.835-61.656 17.883-86.087a47.73 47.73 0 018.496-8.945c2.994-2.314 6.401-4.08 9.703-5.973 4.262-2.454 8.412-5.139 12.786-7.347 8.56-4.283 17.996-6.66 27.341-9.001 1.717-.435 3.68-.827 5.152.105 1.472.933 1.823 2.671 2.103 4.276 4.207 27.053-2.026 55.094-14.77 79.687-2.244 4.325-4.746 8.643-8.413 11.959-3.372 3.022-7.571 5.062-11.77 6.905a195.122 195.122 0 01-48.638 14.168" fill="#FFD22B"/><path d="M341.597 198.764a96.666 96.666 0 01-2.867-29.065 101.214 101.214 0 0119.699-54.849c3.148-4.248 6.653-8.272 11.083-11.216 2.328-1.556 4.803-2.881 7.228-4.27 2.426-1.388 4.984-2.965 7.487-4.43a84.398 84.398 0 0115.36-7.13c5.349-1.83 10.831-3.238 16.306-4.612 1.85-.47 4.809-1.57 6.022.568.429.914.695 1.896.785 2.902.203 1.332.385 2.67.532 4.01.603 5.333.821 10.703.652 16.067a127.48 127.48 0 01-5.187 31.932 145.51 145.51 0 01-5.426 15.353 129.583 129.583 0 01-7.053 14.525 36.87 36.87 0 01-4.43 6.345 26.607 26.607 0 01-6.001 4.907c-4.648 2.839-9.814 4.865-14.897 6.835a195.826 195.826 0 01-40.968 10.992c-.311.09-.575.298-.734.58-.16.281-.204.614-.121.927a1.253 1.253 0 001.5.855 197.507 197.507 0 0033.993-8.412 186.162 186.162 0 0016.067-6.365c5.013-2.251 9.815-4.964 13.418-9.212 3.604-4.248 6.008-9.204 8.357-14.119a153.528 153.528 0 006.428-15.576 135.332 135.332 0 007.094-32.647 117.91 117.91 0 00.295-16.503c-.15-2.766-.4-5.526-.75-8.279-.316-2.376-.4-5.223-1.991-7.164-1.851-2.258-4.907-1.753-7.389-1.13-2.804.702-5.608 1.403-8.412 2.181a111.333 111.333 0 00-16.454 5.693c-5.349 2.411-10.249 5.608-15.324 8.545-2.489 1.402-5.034 2.804-7.431 4.368a38.051 38.051 0 00-6.499 5.404 80.652 80.652 0 00-9.688 12.703 101.371 101.371 0 00-7.164 13.383 104.75 104.75 0 00-8.167 29.31 100.354 100.354 0 00.701 30.039 96.55 96.55 0 001.563 7.207c.392 1.521 2.748.876 2.355-.652" fill="#AB892F"/><path d="M357.756 201.686c2.727-10.305 7.831-19.797 12.885-29.177a83.467 83.467 0 014.956-8.413 53.872 53.872 0 017.473-8.412c10.986-10.193 24.978-16.825 39.574-20.281 14.595-3.456 29.786-3.736 44.704-2.278.48.004.948.147 1.346.414a2.343 2.343 0 01.652 1.717c.835 10.607-5.405 20.33-11.377 29.128l-9.114 13.439c-6.134 9.029-12.555 18.332-21.9 23.954a62.27 62.27 0 01-12.983 5.566 181.138 181.138 0 01-26.163 6.421c-7.332 1.234-15.037 1.984-22.054-.476-2.524-.884-4.991-2.251-6.499-4.459-1.507-2.208-1.794-5.391-.133-7.48" fill="#FFD22B"/><path d="M358.941 201.987c2.622-9.877 7.403-18.927 12.219-27.894 2.39-4.444 4.781-8.875 8.083-12.716a65.625 65.625 0 0110.403-9.618 86.148 86.148 0 0124.48-12.689 111.535 111.535 0 0129.675-5.384 151.396 151.396 0 0115.857.063c1.318.07 2.636.157 3.954.259 1.297.099 2.636.134 3.912.344.371.063.441.105.525.421.101.5.146 1.01.133 1.521.042 1.17.002 2.341-.119 3.505-.469 4.592-2.229 8.987-4.36 13.032a132.674 132.674 0 01-7.789 12.408c-3.023 4.445-6.045 8.885-9.064 13.32-2.566 3.757-5.166 7.501-8.083 10.999a53.608 53.608 0 01-9.625 9.275 49.793 49.793 0 01-13.067 6.512 171.409 171.409 0 01-30.845 7.6c-4.908.701-9.962 1.142-14.855.287a22.245 22.245 0 01-6.604-2.103c-1.711-.911-3.379-2.222-4.129-4.073a5.074 5.074 0 01.512-5.083 1.216 1.216 0 00-.085-1.353 1.197 1.197 0 00-.357-.315 1.248 1.248 0 00-1.668.435 7.255 7.255 0 00-.947 6.421 10.128 10.128 0 004.206 5.363 20.527 20.527 0 006.604 2.699c2.552.593 5.162.901 7.782.918 5.376.063 10.739-.841 16.004-1.836a181.139 181.139 0 0015.941-3.765 109.51 109.51 0 0015.353-5.314 44.774 44.774 0 0012.128-8.146c7.129-6.674 12.394-15.107 17.841-23.134 3.043-4.479 6.155-8.91 9.078-13.467a63.056 63.056 0 006.814-13.319 32.51 32.51 0 001.641-7.193c.131-1.189.177-2.386.14-3.582-.035-1.192-.035-2.559-.855-3.505-.82-.947-2.44-.996-3.709-1.108a259.385 259.385 0 00-4.059-.329 169.183 169.183 0 00-8.244-.358 126.648 126.648 0 00-32.45 3.365 93.829 93.829 0 00-26.64 10.943c-8.412 5.16-16.362 11.869-21.612 20.33-1.402 2.229-2.622 4.557-3.863 6.87-1.241 2.314-2.482 4.613-3.68 6.94a133.78 133.78 0 00-6.611 14.561 77.273 77.273 0 00-2.328 7.248c-.399 1.522 1.956 2.174 2.363.652" fill="#AB892F"/><path d="M363.441 218.981a30.343 30.343 0 0110.852-11.027c4.473-2.594 9.457-3.779 14.077-6.008 3.505-1.689 6.779-3.968 10.277-5.685 11.322-5.566 24.368-4.907 36.223-1.045 11.854 3.863 22.776 10.782 33.579 17.624l19.292 12.226c-4.479 7.985-13.495 10.242-20.933 14.35a109.455 109.455 0 00-10.171 6.814 216.53 216.53 0 01-10.439 6.961c-3.582 2.244-7.256 4.382-11.216 5.679a42.785 42.785 0 01-11.651 1.836c-11.308.477-22.917-1.352-32.949-7.402-6.008-3.618-11.308-8.658-16.011-14.28-5.489-6.562-10.355-14.294-11.827-23.24" fill="#FFD22B"/><path d="M364.5 219.597a29.592 29.592 0 018.013-9.029c3.547-2.587 7.648-4.017 11.714-5.566a54.784 54.784 0 006.394-2.804c2.033-1.094 3.995-2.314 6.007-3.449a39.981 39.981 0 0112.219-4.564c8.56-1.647 17.484-.449 25.7 2.236 8.756 2.861 16.867 7.354 24.705 12.135 8.314 5.076 16.495 10.382 24.732 15.605l3.14 1.991c-.14-.561-.287-1.115-.434-1.675-4.304 7.571-13.173 9.905-20.33 13.831-4.907 2.685-9.289 6.239-13.901 9.38-4.613 3.14-9.247 6.309-14.266 8.636-5.02 2.328-10.418 3.071-15.893 3.232a67.62 67.62 0 01-15.226-1.192 50.7 50.7 0 01-14.498-5.201 55.323 55.323 0 01-12.015-9.198c-6.954-6.891-13.376-15.254-15.998-24.83a34.792 34.792 0 01-.806-3.653 1.228 1.228 0 00-.573-.738 1.227 1.227 0 00-.927-.117 1.211 1.211 0 00-.738.573 1.209 1.209 0 00-.117.927c1.717 10.256 7.809 19.16 14.721 26.703a65.026 65.026 0 0011.918 10.41 50.602 50.602 0 0014.602 6.569 64.86 64.86 0 0015.78 2.194c5.504.119 11.217-.147 16.51-1.795 5.405-1.682 10.256-4.823 14.967-7.879a183.481 183.481 0 007.192-4.908c2.363-1.696 4.725-3.428 7.172-5.019 3.884-2.524 8.118-4.304 12.254-6.344 3.849-1.9 7.648-4.207 10.375-7.55a20.091 20.091 0 001.949-2.805 1.243 1.243 0 00-.442-1.668c-8.531-5.384-16.944-10.831-25.44-16.096-8.034-4.991-16.285-9.744-25.188-13.011-8.412-3.084-17.526-4.718-26.485-3.61a41.55 41.55 0 00-12.955 3.743c-4.206 2.026-8.027 4.802-12.352 6.632-4.326 1.83-8.686 3.029-12.619 5.405a31.297 31.297 0 00-9.239 8.637 32.635 32.635 0 00-1.704 2.629 1.219 1.219 0 002.103 1.233" fill="#AB892F"/><path d="M346.967 263.413a136.707 136.707 0 0148.371-22.433 41.423 41.423 0 0110.831-1.472c2.815.137 5.606.587 8.322 1.339 8.237 2.103 16.123 5.3 23.996 8.51 7.662 3.127 15.423 6.31 21.963 11.42 5.195 4.059 9.422 9.198 13.607 14.287l9.114 11.132c-3.379.106-6.604 1.346-9.745 2.58-14.721 5.798-29.394 11.974-44.866 15.472-5.608 1.283-11.406 2.201-17.182 1.886-12.051-.652-23.134-6.562-33.649-12.408-13.152-7.27-26.983-15.423-33.692-28.848" fill="#FFD22B"/><path d="M347.584 264.464a137.28 137.28 0 0125.293-14.588 134.633 134.633 0 0113.755-5.174 93.745 93.745 0 0114.679-3.652c2.593-.386 5.227-.4 7.824-.042a59.902 59.902 0 017.711 1.766 158.897 158.897 0 0115.023 5.251c4.746 1.886 9.506 3.771 14.161 5.868a68.768 68.768 0 0112.808 7.227 65.537 65.537 0 0110.641 10.403c3.471 4.059 6.807 8.231 10.2 12.353l2.636 3.21.863-2.103a25.898 25.898 0 00-7.873 1.83c-2.552.939-5.068 1.977-7.592 2.979-5.027 1.998-10.06 3.989-15.135 5.868-10.186 3.764-20.709 7.291-31.491 8.826a46.07 46.07 0 01-15.962-.351 66.071 66.071 0 01-14.371-4.97c-4.641-2.152-9.114-4.634-13.6-7.115-3.912-2.181-7.803-4.41-11.553-6.849-7.312-4.753-14.28-10.453-18.865-17.982a38.807 38.807 0 01-1.612-2.902c-.701-1.402-2.805-.175-2.104 1.234 4.073 8.097 10.775 14.399 18.101 19.558 3.751 2.65 7.711 5.02 11.679 7.291 4.284 2.44 8.595 4.837 12.99 7.067 9.471 4.788 19.629 8.496 30.376 7.942a84.6 84.6 0 0016.621-2.853c5.314-1.36 10.516-3.021 15.732-4.837 5.215-1.816 10.319-3.8 15.422-5.819l7.606-3.014a68.903 68.903 0 017.747-2.804 18.232 18.232 0 013.884-.617 1.244 1.244 0 001.118-.77 1.24 1.24 0 00-.256-1.333 11058.94 11058.94 0 00-10.572-12.871 90.889 90.889 0 00-10.424-11.125c-7.781-6.688-17.442-10.397-26.828-14.21-5.006-2.033-10.025-4.017-15.171-5.665-5.145-1.647-10.445-3.231-15.829-3.189-5.258.049-10.516 1.493-15.521 2.923a136.285 136.285 0 00-14.168 4.907 138.205 138.205 0 00-26.197 14.119c-1 .696-1.994 1.397-2.98 2.103a1.26 1.26 0 00-.441 1.675 1.232 1.232 0 001.675.435z" fill="#AB892F"/><path d="M290.38 284.5c-5.538 9.814-12.864 18.507-19.124 27.887-6.26 9.38-11.574 19.839-12.282 31.091a77.077 77.077 0 00.421 11.658 581.368 581.368 0 002.397 22.005c.34 3.253.928 6.476 1.76 9.639 2.278 7.922 7.452 15.135 7.606 23.373 1.192-5.447 5.349-9.815 9.898-12.991 4.55-3.175 9.654-5.608 14.07-9.022a72.658 72.658 0 008.279-7.816 80.088 80.088 0 008.672-10.376c6.583-9.898 8.777-21.984 10.824-33.698.806-4.613 1.619-9.275 1.402-13.958-.336-6.765-2.804-13.249-5.812-19.334-2.614-5.342-5.706-10.614-10.27-14.427a26.022 26.022 0 00-17.708-5.973" fill="#FFD22B"/><path d="M289.329 283.883c-4.41 7.795-9.92 14.875-15.129 22.138-5.054 7.01-9.814 14.329-12.976 22.433a51.548 51.548 0 00-3.217 12.38c-.589 4.676-.274 9.38.14 14.056.434 4.8.925 9.595 1.472 14.385.54 4.753 1.002 9.562 1.907 14.259.827 4.29 2.453 8.265 4.206 12.254 1.626 3.716 3.288 7.487 3.961 11.525.156.941.243 1.892.259 2.846 0 1.339 2.103 1.718 2.405.33 1.058-4.725 4.381-8.497 8.132-11.385 4.36-3.365 9.393-5.713 13.887-8.882 4.648-3.288 8.553-7.494 12.373-11.679a57.073 57.073 0 009.583-13.579c4.76-9.85 6.576-20.898 8.314-31.603.534-2.991.841-6.019.919-9.057a36.582 36.582 0 00-1.038-8.749 67.097 67.097 0 00-6.26-15.689c-2.439-4.62-5.419-9.113-9.52-12.443a27.602 27.602 0 00-14.427-5.945 25.794 25.794 0 00-3.821-.112c-1.563.063-1.57 2.51 0 2.446a24.96 24.96 0 0114.343 3.807c4.312 2.699 7.48 6.737 10.004 11.111a70.58 70.58 0 016.59 14.722 37.29 37.29 0 011.584 8.125 42.65 42.65 0 01-.414 8.868c-.757 5.468-1.78 10.943-2.951 16.334a79.888 79.888 0 01-4.528 14.96 51.586 51.586 0 01-8.637 13.404c-1.844 2.103-3.772 4.143-5.721 6.148a61.85 61.85 0 01-6.141 5.685c-7.914 6.211-18.984 9.583-23.456 19.377a17.72 17.72 0 00-1.192 3.463l2.405.322c-.211-8.412-5.181-15.458-7.536-23.281-1.339-4.452-1.781-9.113-2.335-13.726a581.966 581.966 0 01-1.549-14.252c-.456-4.781-1.003-9.597-.82-14.399.202-4.214.99-8.378 2.341-12.374 2.678-8.096 7.2-15.422 12.065-22.39 5.089-7.263 10.62-14.217 15.233-21.796a143.53 143.53 0 001.655-2.804c.778-1.367-1.339-2.6-2.103-1.233" fill="#AB892F"/><path d="M318.512 281.962a100.594 100.594 0 01-3.112 26.407c-1.101 4.333-2.496 8.616-3.169 13.026-2.369 15.422 4.494 31.195 15.199 43.036a48.948 48.948 0 008.847 7.908c3.694 2.481 7.837 4.283 11.959 6.07l20.33 8.798c.78.397 1.63.635 2.503.701 2.615.049 4.206-2.671 5.04-5.012 4.424-12.38 5.041-25.672 4.417-38.704-.309-6.4-.926-12.885-3.386-18.837a50.382 50.382 0 00-7.102-11.553c-12.864-16.467-31.588-29.443-52.928-33.046" fill="#FFD22B"/><path d="M317.293 281.961a99.658 99.658 0 01-.933 15.226 118.513 118.513 0 01-3.267 15.044c-1.275 4.662-2.404 9.345-2.537 14.203a46.521 46.521 0 001.542 12.976c2.25 8.623 6.709 16.58 12.352 23.436a55.3 55.3 0 0010.179 9.814c3.982 2.881 8.504 4.844 12.99 6.786l14.477 6.267 3.715 1.606c1.15.497 2.292 1.065 3.505 1.472a5.208 5.208 0 005.735-1.521c1.402-1.578 2.103-3.583 2.804-5.567a72.81 72.81 0 001.949-7.094 94.203 94.203 0 001.976-14.722c.279-4.94.297-9.891.057-14.834a75.63 75.63 0 00-1.732-14.644c-2.187-9.057-7.957-16.65-14.161-23.407a94.917 94.917 0 00-19.271-16.047 82.273 82.273 0 00-23.197-10.102 80.8 80.8 0 00-6.022-1.283 1.271 1.271 0 00-1.507.855c-.083.314-.039.646.121.928.159.282.423.49.734.58a77.11 77.11 0 0123.134 7.956 89.541 89.541 0 0119.706 14.266 97.802 97.802 0 018.237 8.889 57.292 57.292 0 017.431 11.217 41.352 41.352 0 013.505 13.488c.486 4.76.72 9.543.701 14.329 0 9.597-.925 19.264-3.87 28.434-.56 1.752-1.107 3.652-2.299 5.005a3.063 3.063 0 01-1.816 1.171c-.217.042.141 0-.091 0a3.157 3.157 0 01-.96-.091 9.68 9.68 0 01-1.577-.582l-14.168-6.141c-4.557-1.97-9.198-3.807-13.593-6.106a43.473 43.473 0 01-11.07-8.329 62.571 62.571 0 01-13.985-21.577 44.512 44.512 0 01-2.138-24.978c1.058-4.907 2.65-9.702 3.673-14.631a103.292 103.292 0 001.97-14.967c.14-2.439.189-4.907.154-7.325 0-1.571-2.46-1.578-2.439 0" fill="#AB892F"/><path d="M238.104 261.609a716.749 716.749 0 00-31.96-2.454c-2.804-.147-5.664-.28-8.496-.238-20.33.302-39.868 9.962-54.295 24.27-5.777 5.734-10.88 12.254-17.526 16.965.659 1.325 2.054 2.103 3.372 2.762a206.799 206.799 0 0043.618 16.376 69.678 69.678 0 009.198 1.809 43.067 43.067 0 0032.247-9.759c3.681-3.112 6.807-6.814 10.046-10.382a187.625 187.625 0 0115.219-14.932c3.807-3.323 8.027-7.01 8.623-12.016.428-3.505-1.101-7.01-3.358-9.751-2.257-2.741-5.202-4.774-8.104-6.8" fill="#FFD22B"/><path d="M238.104 260.391a667.2 667.2 0 00-27.838-2.222c-4.563-.267-9.113-.596-13.712-.449a71.121 71.121 0 00-11.49 1.325 79.115 79.115 0 00-21.598 7.781 89.123 89.123 0 00-18.809 13.425c-5.903 5.468-10.852 11.918-17.084 17.042a48.573 48.573 0 01-2.363 1.809 1.255 1.255 0 00-.441 1.668c1.262 2.37 4.206 3.414 6.463 4.529a198.46 198.46 0 008.048 3.75 213.678 213.678 0 0016.628 6.506 198.354 198.354 0 0016.909 4.998c5.51 1.402 11.077 2.328 16.769 1.928a44.396 44.396 0 0028.448-12.976c4.136-4.094 7.83-8.616 11.917-12.766a187.785 187.785 0 016.415-6.239c2.019-1.865 4.108-3.645 6.134-5.496 3.652-3.337 7.227-7.536 6.905-12.808-.351-5.769-4.466-10.13-8.833-13.439-1.08-.806-2.187-1.577-3.288-2.348a1.217 1.217 0 00-1.379.053 1.217 1.217 0 00-.227 1.738c.102.128.229.234.372.312 4.115 2.867 8.693 6.043 10.362 11.034a9.651 9.651 0 01-.155 6.835 17.247 17.247 0 01-3.954 5.433c-1.822 1.816-3.813 3.456-5.72 5.174a149.662 149.662 0 00-6.169 5.819c-4.038 3.988-7.76 8.244-11.623 12.401a48.22 48.22 0 01-12.093 9.814 42.415 42.415 0 01-14.14 4.704 43.383 43.383 0 01-15.422-.701c-5.609-1.192-11.14-2.804-16.594-4.536a202.483 202.483 0 01-16.039-5.867 167.802 167.802 0 01-15.269-7.088 5.26 5.26 0 01-2.355-2.026c-.14.561-.288 1.115-.435 1.676 6.646-4.739 11.749-11.125 17.477-16.86a87.607 87.607 0 0118.058-13.908 78.405 78.405 0 0120.919-8.413 67.904 67.904 0 0111.062-1.717c4.343-.232 8.695-.19 13.033.126 9.253.509 18.495 1.21 27.725 2.103l3.386.329a1.22 1.22 0 001.22-1.219 1.243 1.243 0 00-1.22-1.22" fill="#AB892F"/><path d="M251.171 218.813a148.558 148.558 0 01-42.061-6.871c-5.987-1.892-11.918-4.206-17.057-7.781-4.556-3.169-8.412-7.27-11.917-11.581-9.071-11.16-16.124-24.094-19.503-38.087-1.745-7.291-2.46-14.792-3.771-22.174-1.08-6.05-2.559-12.015-4.031-17.981a261.603 261.603 0 0151.708 10.929c5.131 1.647 10.256 3.47 14.89 6.225 16.341 9.737 23.835 29.086 30.144 47.011 1.893 5.349 3.8 10.754 4.459 16.39.525 4.438.259 8.938 0 13.404-.253 4.269-.919 9.24-4.62 11.371" fill="#FFD22B"/><path d="M251.171 217.579a147.364 147.364 0 01-32.247-4.172 125.962 125.962 0 01-15.353-4.689 48.188 48.188 0 01-13.004-7.2 68.813 68.813 0 01-10.438-10.936 107.351 107.351 0 01-8.244-12.009 88.973 88.973 0 01-10.733-27.606c-1.094-5.447-1.76-10.972-2.643-16.461-.883-5.489-2.166-11.034-3.498-16.481l-.988-4.017-1.178 1.543a260.554 260.554 0 0136.236 6.519c5.896 1.507 11.756 3.197 17.526 5.132 5.321 1.78 10.515 3.939 15.107 7.206 7.676 5.454 13.179 13.376 17.414 21.683 2.2 4.368 4.168 8.849 5.895 13.425 1.879 4.907 3.681 9.814 5.3 14.806a62.851 62.851 0 012.279 8.91c.462 3 .638 6.038.525 9.071-.07 2.804-.168 5.678-.49 8.483a13.738 13.738 0 01-1.865 5.986 6.098 6.098 0 01-1.942 1.837 1.22 1.22 0 001.234 2.103c4.339-2.559 4.963-8.083 5.236-12.618.183-3.162.365-6.31.26-9.492a46.473 46.473 0 00-1.332-9.527c-1.353-5.546-3.414-10.929-5.384-16.285-1.746-4.753-3.603-9.478-5.734-14.084-4.094-8.84-9.352-17.428-16.825-23.8a49.773 49.773 0 00-14.098-8.258 172.104 172.104 0 00-17.736-5.657 263.81 263.81 0 00-41.606-7.866 1.223 1.223 0 00-.967.482 1.232 1.232 0 00-.211 1.06c1.402 5.566 2.748 11.126 3.807 16.762 1.023 5.503 1.682 11.069 2.622 16.586a91.264 91.264 0 003.897 15.311 94.426 94.426 0 006.141 13.656 106.21 106.21 0 008.111 12.576 84.534 84.534 0 0010.053 11.525 47.04 47.04 0 0012.822 8.413 103.368 103.368 0 0015.233 5.257 150.596 150.596 0 0032.773 5.146c1.337.061 2.676.103 4.017.126 1.578 0 1.578-2.418 0-2.446" fill="#AB892F"/><path opacity=".5" d="M413.593 240.755a106.372 106.372 0 01-127.127 104.331 106.38 106.38 0 01-83.578-83.578 106.379 106.379 0 0145.232-109.2 106.375 106.375 0 01165.473 88.447z" fill="#D3AA2A"/><path d="M289.49 340.791a75.563 75.563 0 01-2.531 17.21c-.75 2.804-1.661 5.559-2.566 8.322-1.752 5.299-3.505 10.606-5.257 15.92-1.403 4.248-2.805 8.489-4.382 12.682a153.697 153.697 0 01-4.241 10.143l-1.199-.28a165.024 165.024 0 01-12.618-3.505 2004.806 2004.806 0 0115.366-41.298 43.15 43.15 0 013.351-7.291c3-4.823 7.753-8.216 12.506-11.363l1.227-.813.344.273z" fill="#39B87C"/><path d="M289.111 340.792a75.644 75.644 0 01-1.542 13.04c-.94 4.139-2.11 8.223-3.505 12.233-2.804 8.412-5.447 16.824-8.413 25.237-1.633 4.619-3.442 9.162-5.496 13.614l.428-.176a177.605 177.605 0 01-13.852-3.75l.259.463a2772.427 2772.427 0 019.948-27.032c1.668-4.44 3.351-8.88 5.047-13.32 1.605-4.171 3.232-8.223 6.309-11.574 3.162-3.47 7.116-6.071 11.007-8.644h-.379l.372.246c.399.266.778-.386.378-.652l-.371-.238a.366.366 0 00-.379 0c-3.463 2.285-6.961 4.591-9.941 7.501a29.108 29.108 0 00-6.617 10.34c-3.625 9.113-7.011 18.283-10.369 27.452a1859.463 1859.463 0 00-5.706 15.647.383.383 0 00.035.285c.049.086.129.15.224.178 4.571 1.402 9.191 2.692 13.853 3.75a.383.383 0 00.427-.168c3.667-7.964 6.457-16.257 9.198-24.536l4.276-12.941c1.367-4.15 2.769-8.3 3.73-12.569a77.207 77.207 0 001.857-14.386.38.38 0 00-.375-.327.38.38 0 00-.375.327" fill="#325136"/><path d="M360.266 403.185a171.95 171.95 0 01-7.711 1.927c-2.04.463-4.094.898-6.163 1.29-1.801-3.771-3.421-7.627-4.907-11.539-1.57-4.206-2.972-8.412-4.374-12.681-1.757-5.309-3.512-10.616-5.265-15.921-.904-2.762-1.823-5.517-2.566-8.321a74.867 74.867 0 01-2.53-17.21l.371-.246c5.153 3.386 10.467 6.941 13.733 12.177a43.04 43.04 0 013.344 7.291 2062.35 2062.35 0 0116.075 43.233" fill="#39B87C"/><path d="M360.168 402.848a183.712 183.712 0 01-13.902 3.218l.428.168c-3.863-8.118-6.744-16.594-9.562-25.118l-4.269-12.941c-1.403-4.164-2.805-8.314-3.807-12.619a76.59 76.59 0 01-1.942-14.763l-.182.322.371-.245h-.378c3.505 2.313 7.073 4.662 10.067 7.655a24.635 24.635 0 013.862 4.907 44.675 44.675 0 012.924 6.499 2048.201 2048.201 0 0110.438 27.733 1995.099 1995.099 0 015.685 15.647c.162.448.891.252.701-.204a2082.01 2082.01 0 00-15.934-42.903c-1.577-4.101-3.267-8.027-6.274-11.307-3.19-3.506-7.179-6.127-11.105-8.707a.36.36 0 00-.378 0c-.575.371-.568.511-.533 1.22.049 1.219.126 2.439.231 3.652.19 2.208.484 4.416.87 6.604a96.785 96.785 0 003.568 13.445c2.958 9.002 5.804 18.052 8.994 26.969a156.388 156.388 0 005.987 14.532.378.378 0 00.185.159.382.382 0 00.243.017 179.228 179.228 0 0013.894-3.218.374.374 0 00.188-.431.37.37 0 00-.384-.27" fill="#325136"/><path d="M352.534 405.14c-2.04.463-4.094.897-6.162 1.283a186.02 186.02 0 01-75.859-1.402l-1.199-.281a747.848 747.848 0 0018.578-63.429l.378-1.549s5.223-13.222 29.759-2.419c3.112 1.367 6.12 3.134 8.335 5.707.182.217.365.427.533.652 1.851 2.376 3.049 5.222 4.206 8.012a1960.501 1960.501 0 0121.304 53.075c.046.11.084.222.113.337" fill="#4E735E"/><path d="M352.435 404.776a185.652 185.652 0 01-65.132 2.909 173.978 173.978 0 01-17.891-3.295l.267.463a764.263 764.263 0 0013.018-42.16 784.375 784.375 0 005.559-21.269 6.962 6.962 0 011.584-3.4c3.961-4.718 10.775-5.076 16.411-4.059a47.15 47.15 0 018.273 2.355 35.406 35.406 0 018.889 4.515 19.975 19.975 0 015.923 7.711c1.557 3.316 2.882 6.751 4.284 10.13a1979.713 1979.713 0 0116.691 41.669c.624 1.613 1.339 3.218 1.865 4.866.147.462.869.266.701-.197-.561-1.759-1.325-3.47-1.991-5.194-.666-1.725-1.402-3.555-2.103-5.328a1421.776 1421.776 0 00-4.255-10.803 2239.525 2239.525 0 00-8.651-21.368c-1.472-3.575-2.956-7.15-4.452-10.725-1.226-2.931-2.481-5.889-4.486-8.413a21.28 21.28 0 00-7.571-5.65 56.795 56.795 0 00-9.114-3.456c-6.4-1.802-14.504-2.573-19.86 2.222a9.507 9.507 0 00-2.51 3.323 21.624 21.624 0 00-.546 2.215l-.701 2.98-2.805 10.887a727.496 727.496 0 01-13.081 43.625c-.596 1.773-1.192 3.554-1.794 5.328a.375.375 0 00.259.462 184.476 184.476 0 0065.406 3.506 180.768 180.768 0 0018.017-3.134c.469-.105.266-.834-.204-.701" fill="#325136"/><path d="M278.035 326.449a12.519 12.519 0 001.101 11.476c1.913 2.909 4.991 4.907 8.195 6.239 11.216 4.795 25.3 5.679 36.825 1.62a35.432 35.432 0 009.814-6.022 13.07 13.07 0 003.632-13.86l-59.357.652" fill="#4E735E"/><path d="M277.67 326.351a13.088 13.088 0 004.27 15.142 26.896 26.896 0 007.431 3.912 53.235 53.235 0 009.057 2.461 53.89 53.89 0 0018.227.217 37.865 37.865 0 008.489-2.271 34.648 34.648 0 007.585-4.529 14.499 14.499 0 005.209-6.821 13.324 13.324 0 000-8.637.377.377 0 00-.357-.28l-46.268.512-13.096.14a.38.38 0 00-.327.375.38.38 0 00.327.375l46.268-.505 13.096-.147-.365-.273a12.79 12.79 0 01-3.961 13.859 35.695 35.695 0 01-7.185 4.669 32.307 32.307 0 01-7.635 2.439 52.008 52.008 0 01-17.315.547c-5.538-.701-11.371-2.187-16.264-4.949-2.699-1.528-5.118-3.659-6.386-6.541a12.297 12.297 0 01-.134-9.478c.183-.441-.546-.638-.701-.196" fill="#325136"/><path d="M404.417 240.775a96.692 96.692 0 01-165.066 68.373 96.693 96.693 0 11165.066-68.373z" fill="#AB892F"/><path d="M401.69 240.754a94.472 94.472 0 11-188.944 0 94.472 94.472 0 01188.944 0z" fill="#E7D16D"/><path d="M399.299 244.149c0 48.574-40.996 87.951-91.575 87.951-50.58 0-91.569-39.377-91.569-87.951 0-48.575 40.996-87.952 91.569-87.952 50.572 0 91.575 39.377 91.575 87.952z" fill="#F8E774"/><path d="M244.554 198.946s22.713-22.58 42.805-6.912c0 0-19.629-26.148-42.805 6.912zm112.137-9.822s-26.78-17.568-43.324 1.809c0 0 14.021-29.556 43.324-1.809zm28.3 38.731l-4.136-.119c-.624 1.149-15.128 27.34-40.106 25.089a31.46 31.46 0 01-20.456-10.515l-2.804.946s6.933-30.214 34.287-31.546c23.59-1.136 33.264 16.124 33.264 16.124" fill="#AB892F"/><path d="M380.862 227.701v.042c-.624 1.149-15.128 27.34-40.106 25.089a31.46 31.46 0 01-20.456-10.515s9.815-24.845 30.74-26.681c20.926-1.837 29.864 12.079 29.864 12.079" fill="#fff"/><path d="M361.023 243.784a17.359 17.359 0 01-1.241 5.11l.449-.238a17.616 17.616 0 00.603-10.789c-.084.105-.168.218-.26.323a17.24 17.24 0 01.449 5.594zm-34.14-2.903a17.127 17.127 0 0130.768-8.833c.147 0 .302.035.449.064-.26-.351-.519-.701-.806-1.031a17.46 17.46 0 00-22.151-3.803 17.466 17.466 0 00-7.552 21.168l.47.28a16.963 16.963 0 01-1.178-7.845z" fill="#231F20"/><path d="M356.487 240.656a9.265 9.265 0 01-3.596.351c.081.646.095 1.299.042 1.949a9.28 9.28 0 01-13.825 7.312 9.285 9.285 0 01-.836-15.617 9.282 9.282 0 0111.485.523 8.415 8.415 0 014.298-2.804 9.454 9.454 0 013.119-.385 16.779 16.779 0 00-11.826-6.429 19.728 19.728 0 00-1.402-.056 16.83 16.83 0 00-14.018 7.581 16.828 16.828 0 00-1.405 15.875 30.249 30.249 0 0012.226 3.849 33.76 33.76 0 0018.591-3.708 16.546 16.546 0 001.403-5.37 16.737 16.737 0 00-.386-5.279 8.799 8.799 0 01-3.87 2.208z" fill="#8DC35C"/><path d="M327.205 240.909a16.828 16.828 0 0116.734-15.38c.477 0 .953 0 1.402.056a16.779 16.779 0 0111.847 6.428l.449.035a17.126 17.126 0 00-29.59 16.678l.448.259a16.722 16.722 0 01-1.29-8.076zm33.369-2.72a4.849 4.849 0 01-.266.288c.408 1.728.538 3.51.385 5.279a16.519 16.519 0 01-1.402 5.37l.456-.232a17.149 17.149 0 00.792-10.705h.035z" fill="#8DC35C"/><path d="M320.279 242.332l-2.804.946s3.947 5.44 12.065 8.84a17.137 17.137 0 01-1.914-3.68 30.23 30.23 0 01-7.347-6.106zm64.712-14.477l-4.136-.119c-.441.807-7.711 13.916-20.61 20.912a16.855 16.855 0 01-1.451 2.888c15.976-7.08 26.197-23.681 26.197-23.681z" fill="#E7D16D"/><path d="M359.782 248.895a17.19 17.19 0 01-1.535 2.881c.182-.077.357-.147.533-.232a16.855 16.855 0 001.451-2.888l-.449.239zm-31.721-.169l-.47-.281a17.145 17.145 0 001.914 3.681l.56.231a17.099 17.099 0 01-2.004-3.631zm12.674 4.108a30.268 30.268 0 01-12.226-3.877 16.905 16.905 0 002.103 3.589 36.886 36.886 0 0018.487 1.802 36.274 36.274 0 008.594-2.377 16.813 16.813 0 001.62-2.874 33.755 33.755 0 01-18.578 3.737z" fill="#E7D16D"/><path d="M328.509 248.957l-.448-.26a17.106 17.106 0 002.004 3.632l.561.217a16.92 16.92 0 01-2.117-3.589zM357.707 252l.54-.224a17.19 17.19 0 001.535-2.881l-.456.231a16.778 16.778 0 01-1.619 2.874z" fill="#E7D16D"/><path d="M334.503 241.394a9.274 9.274 0 008.458 10.021 9.27 9.27 0 009.979-10.407c-1.963-.224-3.505-1.157-3.933-2.615a3.64 3.64 0 01.799-3.217 9.253 9.253 0 00-15.282 6.218h-.021z" fill="#211011"/><path d="M361.619 234.67c-.4-1.353-1.76-2.257-3.505-2.559a17.34 17.34 0 012.734 5.756 3.616 3.616 0 00.771-3.197z" fill="#fff"/><path d="M360.574 238.188c.091-.105.176-.217.26-.323a17.336 17.336 0 00-2.734-5.755c-.148 0-.302-.049-.449-.063a17.209 17.209 0 012.923 6.141z" fill="#fff"/><path d="M354.083 232.398a8.408 8.408 0 00-4.297 2.804 9.29 9.29 0 013.133 5.833c1.21.12 2.432.001 3.596-.351a8.806 8.806 0 003.793-2.18 16.973 16.973 0 00-3.106-6.464 9.474 9.474 0 00-3.119.358z" fill="#fff"/><path d="M360.308 238.477c.091-.091.182-.189.266-.287a17.209 17.209 0 00-2.923-6.141l-.449-.035a16.962 16.962 0 013.106 6.463zm-11.322-.085c.435 1.458 1.97 2.39 3.933 2.614a9.287 9.287 0 00-3.134-5.832 3.647 3.647 0 00-.799 3.218z" fill="#fff"/><path d="M226.902 237.642l4.101-.603c.757 1.065 18.318 25.307 42.84 20.063a31.46 31.46 0 0019.04-12.892l2.909.603s-10.515-29.156-37.856-27.165c-23.554 1.725-31.083 20.001-31.083 20.001" fill="#AB892F"/><path d="M231.003 236.996v.035c.757 1.066 18.318 25.308 42.84 20.064a31.46 31.46 0 0019.04-12.892s-12.752-23.478-33.734-22.784c-20.982.694-28.146 15.577-28.146 15.577z" fill="#fff"/><path d="M273.857 257.094a29.72 29.72 0 008.111-3.022 17.15 17.15 0 00-1.316-16.143 17.15 17.15 0 00-14.174-7.84 17.148 17.148 0 00-14.375 7.466 17.146 17.146 0 00-1.738 16.104c6.576 3.351 14.582 5.342 23.492 3.435z" fill="#8DC35C"/><path d="M250.077 240.743a17.45 17.45 0 00-.91 10.091 17.48 17.48 0 001.575 4.431l.591-.231a16.814 16.814 0 01-1.528-4.305 16.702 16.702 0 012.354-12.66 16.71 16.71 0 0110.657-7.228 16.827 16.827 0 0117.354 6.974 16.82 16.82 0 01.187 18.702h.719a17.46 17.46 0 001.251-16.048 17.456 17.456 0 00-32.25.274z" fill="#000"/><path d="M295.827 244.806l-2.909-.603a31.555 31.555 0 01-10.95 9.871 17.011 17.011 0 01-1.816 3.203c11.069-4.192 15.675-12.471 15.675-12.471zm-64.824-7.767l-4.101.617s10.298 12.913 24.984 18.928a16.894 16.894 0 01-1.521-2.938c-11.567-5.86-18.865-15.906-19.362-16.607z" fill="#E7D16D"/><path d="M273.857 257.093c-8.91 1.907-16.895-.084-23.492-3.435.41 1.027.92 2.011 1.522 2.938a38.24 38.24 0 0028.265.701 17.02 17.02 0 001.816-3.204 29.757 29.757 0 01-8.111 3z" fill="#E7D16D"/><path d="M304.043 254.703a20.873 20.873 0 01-4.031 10.088c-1.072 1.507-2.601 2.867-2.867 4.781a5.395 5.395 0 001.956 4.578c1.626 1.402 3.743 1.927 5.79 2.383a.815.815 0 00.958-1.16.819.819 0 00-.481-.396c-1.675-.379-3.435-.75-4.851-1.774-1.094-.785-2.012-2.222-1.732-3.61a5.337 5.337 0 011.248-2.173 59.936 59.936 0 001.606-2.103 26.05 26.05 0 002.579-4.711 20.033 20.033 0 001.452-5.854c.098-1.045-1.529-1.087-1.627-.042" fill="#AB892F"/><path d="M320.279 242.331a48.662 48.662 0 0110.032-16.257 34.405 34.405 0 0116.264-9.976 32.487 32.487 0 0119.047.421 33.07 33.07 0 018.545 4.395 25.007 25.007 0 016.674 6.842 22.596 22.596 0 00-3.12-3.617 30.433 30.433 0 00-3.736-2.958 32.389 32.389 0 00-8.525-4.171 30.886 30.886 0 00-9.337-1.522 19.132 19.132 0 00-2.37.071l-1.184.07c-.4 0-.786.105-1.178.154-.785.126-1.571.238-2.349.371l-2.299.582a31.542 31.542 0 00-8.7 3.716 41.242 41.242 0 00-3.87 2.762 54.505 54.505 0 00-3.505 3.218 48.672 48.672 0 00-5.916 7.465 50.439 50.439 0 00-4.473 8.448m-27.368 1.817a50.619 50.619 0 00-5.454-7.824 49.072 49.072 0 00-6.779-6.702 62.34 62.34 0 00-3.87-2.804 40.037 40.037 0 00-4.171-2.271 31.242 31.242 0 00-9.113-2.643l-2.356-.301-2.369-.085c-.4 0-.792-.042-1.192 0l-1.185.078c-.791.024-1.58.094-2.362.21a31.248 31.248 0 00-9.114 2.643 32.446 32.446 0 00-7.956 5.166 29.499 29.499 0 00-3.351 3.393 22.492 22.492 0 00-2.664 3.961 25 25 0 015.797-7.592 33.054 33.054 0 017.964-5.384 32.44 32.44 0 0118.858-2.713 34.43 34.43 0 0117.343 7.936 48.667 48.667 0 0111.918 14.932" fill="#000"/><path d="M314.425 299.43c-.427.14-.841.26-1.24.351-9.766 2.292-13.047-8.287-13.047-8.287s12.282-.785 18.227-9.043c.561 2.208.89 4.468.982 6.744.133 4.122-.701 8.847-4.908 10.235" fill="#C67A64"/><path d="M314.426 299.43c-.428.14-.842.26-1.241.351a6.58 6.58 0 01-.762-6.946 6.571 6.571 0 015.921-3.71c.329.002.656.025.982.07.133 4.122-.701 8.847-4.908 10.235" fill="#D2937A"/><path d="M218.98 477.905s-1.661 2.215 12.521 3.056c14.181.842 22.713 3.155 22.713 3.155l-9.345-15.97-25.889 9.759zm137.802 5.195s.862-3.204 9.232-3.204c8.371 0 10.474-.189 10.614-1.29.14-1.1-22.889-26.197-22.889-26.197l-26.695-3.716 15.423 11.413 14.315 22.994z" fill="#325136"/><path d="M277.138 486.604s-8.805 7.501-4.564 20.863l-2.608 80.184s-25.63 3.259-24.389 13.039c1.241 9.779 36.72 11.083 52.879-7.824 0 0-.701-5.706 0-8.798.701-3.091 10.158-38.914 10.298-56.391.14-17.476.098-27.382 11.623-28.686 11.525-1.304 37.596-8.798 39.552-22.818 1.956-14.021-37.484-22.489-42.062-22.489-4.577 0-40.743 17.925-40.743 32.948" fill="#4E735E"/><path d="M277.138 486.604s-8.805 7.501-4.564 20.863l-2.608 80.184s-25.63 3.259-24.389 13.039c1.241 9.779 36.72 11.083 52.879-7.824 0 0-.701-5.706 0-8.798.701-3.091 10.158-38.914 10.298-56.391.14-17.476.098-27.382 11.623-28.686 11.525-1.304 37.596-8.798 39.552-22.818 1.956-14.021-37.484-22.489-42.062-22.489-4.577 0-40.729 17.932-40.729 32.92z" stroke="#325136" stroke-width="2.14" stroke-miterlimit="10"/><path d="M237.754 474.196s6.309 12.009 29.036 14.21c22.728 2.201 31.666 6.113 31.666 6.113l30.915 46.45s-1.71 10.516 8.56 18.332c10.27 7.817 21.031 11.981 35.935 11.735 14.904-.245 20.288-6.617 19.776-12.226-.512-5.608-14.175-19.797-32.023-15.647l-35.914-70.159s-1.22-11.216-13.936-16.376c-12.717-5.159-76.153 7.01-74.015 17.568z" fill="#4E735E"/><path d="M237.754 474.197s6.309 12.009 29.036 14.21c22.728 2.201 31.666 6.113 31.666 6.113l30.915 46.45s-1.71 10.516 8.56 18.332c10.27 7.817 21.031 11.981 35.935 11.735 14.904-.245 20.288-6.617 19.776-12.226-.512-5.608-14.175-19.797-32.023-15.647l-35.914-70.159s-1.22-11.216-13.936-16.376c-12.717-5.159-76.153 7.024-74.015 17.568z" stroke="#325136" stroke-width="2.14" stroke-miterlimit="10"/><path d="M232.131 454.357c-3.357 7.179-7.627 13.208-12.415 19.517-.701.961-1.353 3.029-.701 4.059.652 1.031 2.229.946 3.456.652 19.938-4.781 38.781-13.432 58.705-18.227a158.796 158.796 0 0160.87-2.657s11.217 3.863 21.991 14.624c10.775 10.761 14.343 5.867 14.182 3.743-.161-2.124-1.829-15.892-7.711-21.711H232.131z" fill="#4E735E"/><path d="M231.487 453.951a90.9 90.9 0 01-8.027 13.544 178.953 178.953 0 01-2.384 3.302c-.701.988-1.598 1.949-2.236 3.007-.862 1.444-1.472 3.975.105 5.16s4.325.175 6.099-.273c2.72-.702 5.426-1.466 8.111-2.272 5.384-1.626 10.712-3.435 16.026-5.272 10.515-3.638 21.03-7.395 31.84-10.038a157.656 157.656 0 0133.776-4.438 159.68 159.68 0 0117.07.533c2.804.238 5.622.556 8.455.953a9.32 9.32 0 012.271.512 62.331 62.331 0 0118.591 11.953c3.26 2.965 6.26 6.484 10.389 8.3 1.753.771 3.996 1.29 5.721.147a3.564 3.564 0 001.626-3.183 49.348 49.348 0 00-1.121-7.087 42.428 42.428 0 00-3.555-10.473 18.57 18.57 0 00-2.916-4.249 1.327 1.327 0 00-.925-.497c-1.311-.092-2.664 0-3.982 0h-134.29a.754.754 0 00-.75.75.749.749 0 00.75.75H364.9c1.773 0 3.638.168 5.412 0h.196l-.533-.218a21.037 21.037 0 014.473 7.712 53.35 53.35 0 012.264 8.517c.336 1.641.57 3.301.701 4.971a2.05 2.05 0 01-.995 1.787c-1.227.757-2.952.309-4.263-.28-3.323-1.472-5.916-4.164-8.482-6.639a67.79 67.79 0 00-17.526-12.289 24.864 24.864 0 00-3.877-1.668 30.157 30.157 0 00-4.437-.631 166.149 166.149 0 00-6.828-.701 159.397 159.397 0 00-28.104.252 161.22 161.22 0 00-27.109 5.026c-8.931 2.447-17.666 5.546-26.415 8.574-8.644 2.993-17.316 5.931-26.205 8.118a7.815 7.815 0 01-2.601.406c-1.051-.112-1.219-.918-1.058-1.843.35-1.921 1.991-3.505 3.113-4.999a115.882 115.882 0 007.136-10.732 80.065 80.065 0 002.993-5.728c.407-.869-.883-1.633-1.297-.757" fill="#325136"/><path d="M405.517 427.775a15.068 15.068 0 00-4.493-7.711c-1.809-1.655-3.989-2.804-6.022-4.207-6.877-4.605-12.065-11.293-16.909-18.009a361.86 361.86 0 01-5.776-8.258v22.945a24.981 24.981 0 013.435 5.082c2.103 4.389 2.103 9.464 1.914 14.329-.043 1.059.091 2.054.147 3.113.056 1.058.042 1.787 1.1 1.682 2.475 0 4.389-4.409 4.809-7.01 1.83 5.426 8.237 15.177 10.221 13.418 2.103-1.073-.701-8.735-3.014-12.577 1.696 1.767 2.804 4.48 3.687 6.779.498 1.332 1.402 2.804 2.805 2.804a2.2 2.2 0 001.927-2.103 8.19 8.19 0 00-.666-3.428l-3.14-7.711a4207.35 4207.35 0 014.823 9.113c.287.547.701 1.164 1.318 1.143.617-.021.932-.589 1.135-1.108.982-2.453.498-5.068-.532-7.571l.757 1.458c.103.246.258.466.455.645a1.34 1.34 0 001.096.136 1.336 1.336 0 00.832-.725 3.31 3.31 0 00.084-2.271" fill="#39B87C"/><path d="M404.284 423.064a16.255 16.255 0 00-4.123-4.55c-1.787-1.36-3.764-2.433-5.608-3.73a44.709 44.709 0 01-5.005-4.136 79.909 79.909 0 01-8.504-9.814 292.293 292.293 0 01-8.741-12.324v2.166c1.289 1.893 2.6 3.776 3.932 5.65 4.858 6.828 9.92 13.754 16.692 18.823 3.379 2.531 7.375 4.276 9.814 7.858a13.186 13.186 0 012.251 5.483 1.876 1.876 0 01-.246 1.451c-.217.245-.645.441-.918.196a5.06 5.06 0 01-.75-1.367l-.274-.54a33.735 33.735 0 00-2.215-4.276c-.399-.701-1.486-.175-1.115.547l1.697 3.273.659 1.276c.862 2.174 1.276 4.473.456 6.674-.106.281-.323.919-.701.876-.379-.042-.554-.567-.701-.792-.568-1.023-1.101-2.068-1.648-3.098l-3.176-6.015a.62.62 0 00-.804-.231.626.626 0 00-.31.778l2.271 5.552c.631 1.549 1.514 3.211 1.486 4.907a1.903 1.903 0 01-.841 1.676 1.406 1.406 0 01-1.717-.498c-.996-1.122-1.339-2.804-1.935-4.122a15.92 15.92 0 00-2.86-4.634c-.463-.484-1.403.042-1.031.701a31.26 31.26 0 012.951 6.618c.345 1.05.58 2.133.701 3.231.119.609.033 1.24-.245 1.795a1.212 1.212 0 01-.294.224c.077-.049-.106 0-.056 0a1.003 1.003 0 01-.155 0 1.862 1.862 0 01-.287-.105 5.926 5.926 0 01-1.563-1.241 29.403 29.403 0 01-3.863-5.229 34.598 34.598 0 01-3.267-6.695c-.217-.645-1.087-.302-1.178.231a11.963 11.963 0 01-2.04 5.006 3.504 3.504 0 01-1.682 1.402c-.182.056-.652.168-.806 0-.154-.169-.126-.961-.14-1.192-.078-1.36-.134-2.692-.092-4.052.042-1.36.056-2.587 0-3.877a26.536 26.536 0 00-1.121-7.34c-.989-3.063-2.846-5.608-4.907-8.068v1.963a20.778 20.778 0 013.505 5.958 24.645 24.645 0 011.247 7.712c.036 1.325 0 2.649 0 3.974 0 1.325.057 2.678.127 4.024.049.814.084 1.816.995 2.103a2.92 2.92 0 002.356-.427c1.556-.989 2.488-2.86 3.105-4.529.07-.189.133-.378.196-.568a38.966 38.966 0 002.475 4.732 30.375 30.375 0 004.206 5.756c.94.953 2.398 2.299 3.772 1.402a2.573 2.573 0 00.981-1.9 7.83 7.83 0 00-.147-2.138c.197.233.418.444.659.631a2.538 2.538 0 002.214.428 2.533 2.533 0 001.677-1.508 4.3 4.3 0 00.217-2.594c.219.425.539.788.932 1.059 1.746 1.073 2.699-1.353 2.959-2.629a9.246 9.246 0 000-3.54c.44.089.898.017 1.29-.203a2.517 2.517 0 001.191-2.433 12.786 12.786 0 00-2.005-5.727" fill="#325136"/><path d="M374.581 457.723c-3.169 4.445-140.907 2.229-143.978 0-3.07-2.229-11.385-96.224-6.036-101.439 5.349-5.216 151.893-3.94 156.092 0 4.199 3.94-2.881 96.966-6.078 101.439z" fill="#C3C3BC"/><path d="M374.581 457.722c-3.169 4.445-140.907 2.23-143.978 0-.82-.596-.519-9.113-1.15-19.965 0 0 99.764 7.711 122.267-7.01 16.474-10.74 28.939-74.464 28.939-74.464 4.206 3.919-2.881 96.967-6.078 101.439z" fill="#999990"/><path d="M234.922 357.468c-3.891.14-11.406.42-10.355-1.185 5.398-5.258 151.893-3.94 156.092 0 .42 3.715-52.802-2.194-145.737 1.185z" fill="#F3F6F2"/><path d="M315.456 409.667c0 1.304-2.152 2.25-2.538 3.421-.385 1.171.778 3.253.042 4.269-.736 1.017-3.042.526-4.066 1.269-1.023.743-1.255 3.085-2.474 3.505-1.22.421-2.734-1.402-4.038-1.402-1.304 0-2.867 1.746-4.045 1.402-1.178-.343-1.451-2.741-2.468-3.505-1.016-.764-3.323-.245-4.066-1.269-.743-1.023.435-3.049.042-4.269-.392-1.22-2.544-2.103-2.544-3.421 0-1.318 2.159-2.25 2.544-3.428.386-1.178-.785-3.246-.042-4.262.743-1.017 3.043-.526 4.066-1.276 1.024-.75 1.255-3.078 2.468-3.505 1.213-.428 2.741 1.402 4.045 1.402 1.304 0 2.867-1.746 4.038-1.402 1.17.343 1.458 2.741 2.474 3.505 1.017.764 3.323.252 4.066 1.276.743 1.023-.434 3.049-.042 4.262.393 1.213 2.538 2.103 2.538 3.428z" fill="#F2F1F1"/><path d="M223.887 447.22c-.294-.049-.582-.091-.883-.154-.301-.063-.498-.084-.75-.14h-.084l-.526-.119-.301-.07a12.344 12.344 0 01-2.3-.596c-1.402-.582-1.865-1.683-2.054-3.008a11.526 11.526 0 01-.105-.757.984.984 0 010-.133 45.816 45.816 0 01-.182-4.816v-10.249c0-1.192.07-2.377.147-3.561 0-.344 0-.701.056-1.066.056-.364.049-.575.091-.862a4.732 4.732 0 01.575-1.746c.042-.049.084-.112.126-.168.145-.16.302-.307.47-.442.24-.194.498-.365.771-.511a19.21 19.21 0 012.608-.835l.126-.042a.684.684 0 00.273-.168l.568-.119a50.822 50.822 0 0111.007-.96 16.912 16.912 0 015.671.967 5.61 5.61 0 012.299 1.451c.241.3.398.658.456 1.038a.838.838 0 000 .245 1.58 1.58 0 01-.33 1.073l-.126.126a.705.705 0 00-.161.203 2.849 2.849 0 01-1.087.701c-.946.235-1.909.395-2.881.477a71.197 71.197 0 01-5.608.434c-1.879.077-3.751.099-5.608.099a35.136 35.136 0 01-4.256 0v1.85l.035.631a53.86 53.86 0 0111.603-1.192 24.758 24.758 0 016.386.617 9.93 9.93 0 013.007 1.178c.87.561 1.942 1.809.778 2.706a.707.707 0 00-.252.701c-.154.14-.315.266-.442.365-.771.532-1.983.546-2.874.701a76.08 76.08 0 01-6.05.518 141.68 141.68 0 01-6.309.141c-1.846.08-3.695.059-5.538-.063v1.437c.981-.077 1.984-.042 2.951-.042 1.977 0 3.954 0 5.938.056 2.243.07 4.494.196 6.723.441 1.09.083 2.173.247 3.239.491.439.14.84.38 1.17.701a.472.472 0 00.162.603 1.398 1.398 0 01.631 1.03.255.255 0 000 .078c-.05 1.128-1.935 2.103-2.882 2.481a17.139 17.139 0 01-5.293.954 53.404 53.404 0 01-11.623-.842l-.701-.133v2.243c1.094-.056 2.223 0 3.274 0 2.019 0 4.031 0 6.05.106 2.348.101 4.689.335 7.01.701.975.154 1.879.231 2.321 1.226.308.619.469 1.3.469 1.991a1.912 1.912 0 01-.588.786c-1.402 1.254-3.625 1.696-5.44 1.906a42.989 42.989 0 01-11.918-.582" fill="#39B87C"/><path d="M225.1 424.172h-1.332c-.617 0-1.227 0-1.844-.049v-.617c1.426.102 2.857.116 4.284.042 1.879 0 3.757 0 5.608-.098 1.851-.098 3.744-.21 5.608-.434a18.261 18.261 0 002.882-.477 2.807 2.807 0 001.086-.701.705.705 0 01.161-.203l.127-.127a1.58 1.58 0 00.329-1.072.838.838 0 010-.245 2.165 2.165 0 00-.456-1.038 5.603 5.603 0 00-2.299-1.451 16.933 16.933 0 00-5.671-.968 50.885 50.885 0 00-11.007.961l-.567.119a.65.65 0 01-.274.168l-.126.042a19.21 19.21 0 00-2.608.835 4.884 4.884 0 00-.771.511 4.091 4.091 0 00-.47.442c-.042.056-.084.119-.126.168a4.732 4.732 0 00-.575 1.746 1.78 1.78 0 01-.392-.961 1.35 1.35 0 010-.336c.035-.112.077-.231.126-.351.097-.213.227-.409.386-.581a4.877 4.877 0 011.367-1.129l.217-.112a12.05 12.05 0 013.337-1.101c.252-.063.504-.112.75-.154a57.11 57.11 0 018.693-.883c2.909-.078 5.937.091 8.496 1.254a4.826 4.826 0 012.307 1.872c.097.189.17.389.217.596.061.281.08.569.056.855 0 .119-.035.232-.056.351a.082.082 0 010 .049 1.624 1.624 0 01-.617.995 7.846 7.846 0 01-.407.435l-.238.21c-.46.322-.997.518-1.556.568a39.61 39.61 0 01-2.713.386c-3.98.408-7.981.574-11.981.497" fill="#39B87C"/><path d="M225.156 424.831h-2.376c-.274 0-.54 0-.82-.049h-.057.05v-1.22c1.425.102 2.856.116 4.283.042 1.879 0 3.757 0 5.608-.098 1.851-.098 3.744-.21 5.608-.435.972-.081 1.935-.24 2.882-.476a2.807 2.807 0 001.086-.701.723.723 0 01.161-.204l.127-.126c.237-.305.354-.687.329-1.072a.845.845 0 010-.246 2.165 2.165 0 00-.456-1.037 5.593 5.593 0 00-2.299-1.451 17.14 17.14 0 00-5.671-.968 50.885 50.885 0 00-11.007.961l-.567.119-.407.091a9.366 9.366 0 00-2.601.953 4.96 4.96 0 00-.771.512 4.006 4.006 0 00-.47.442c-.042.056-.084.119-.126.168a1.268 1.268 0 00-.196.386c-.194.431-.321.89-.379 1.36-.042.287-.063.581-.091.862a3.1 3.1 0 01-.526-.701c-.701-1.241-.203-2.524 1.087-3.505.256-.198.523-.38.799-.547 1.5-.758 3.12-1.251 4.788-1.458 4.592-.799 9.632-1.402 14.245-.456 1.816.365 3.982 1.024 5.188 2.517.932 1.149 1.058 3.028-.063 4.08-.15.172-.309.336-.477.49a4.575 4.575 0 01-2.657 1.038l-.596.091-1.703.231a77.986 77.986 0 01-6.66.442c-1.746.049-3.505.084-5.258.077" fill="#325136"/><path d="M216.786 428.363v.856a1.354 1.354 0 01-.077-.372 1.273 1.273 0 01.084-.484m7.571 3.933a20.119 20.119 0 01-2.054-.07v-.624c1.844.123 3.692.144 5.538.063 2.103 0 4.206-.042 6.309-.14a73.064 73.064 0 006.05-.519c.891-.119 2.103-.133 2.875-.701.126-.098.287-.224.441-.365a.7.7 0 01.253-.701c1.163-.897.091-2.145-.779-2.705a9.886 9.886 0 00-2.937-1.171 24.714 24.714 0 00-6.386-.617 53.787 53.787 0 00-11.602 1.192l-.035-1.276c.483-.112 1.016-.204 1.5-.288.484-.084 1.037-.189 1.612-.266 2.545-.358 5.181.077 7.768 0a33.742 33.742 0 014.206.119c1.717.123 3.405.509 5.005 1.143a5.22 5.22 0 012.51 1.865c.183.327.277.697.273 1.072l.084-.154c.183.652-.455 1.584-1.1 2.222-.133.133-.281.26-.414.372a3.519 3.519 0 01-1.689.568 63.744 63.744 0 01-5.679.637c-3.876.267-7.795.267-11.7.26" fill="#39B87C"/><path d="M216.779 429.219v1.094a2.982 2.982 0 01-.589-1.255 1.724 1.724 0 010-.701c.09-.449.304-.864.617-1.199v2.04m7.557 3.722c-.676.008-1.353-.02-2.026-.084v-1.234c1.844.123 3.692.144 5.538.064 2.103 0 4.206-.042 6.309-.141a73.068 73.068 0 006.05-.518c.891-.12 2.103-.134 2.875-.701a5.22 5.22 0 00.441-.358c.126-.266.316-.329.4-.624a2.159 2.159 0 00-1.031-2.727 9.924 9.924 0 00-2.937-1.171 24.714 24.714 0 00-6.386-.616c-3.849 0-7.859-.624-11.63.245v-.631.315h-.078v-.953c.232-.049.477.855.701.813a79.593 79.593 0 012.475-.42 48.705 48.705 0 0111.981-.498l1.093.126c.384.052.783.115 1.199.189 1.83.337 3.772.94 5.097 2.202.452.417.771.958.918 1.556a.539.539 0 01.161.315c.309 2.103-1.851 3.632-3.638 3.94a56.83 56.83 0 01-2.44.351 67.14 67.14 0 01-3.505.315c-1.016.07-2.033.119-3.049.154-2.84.098-5.686.098-8.532.091" fill="#325136"/><path d="M216.716 435.682v.133a.739.739 0 010-.133zm15.521 4.787a59.769 59.769 0 01-7.522-.651c-.512-.078-1.024-.148-1.522-.239l-.546-.105v-.631l.701.133c3.832.704 7.729.986 11.623.842a17.138 17.138 0 005.292-.954c.947-.35 2.805-1.353 2.882-2.482a.33.33 0 000-.077 1.405 1.405 0 00-.631-1.03.472.472 0 01-.162-.603 2.975 2.975 0 00-1.17-.701 22.008 22.008 0 00-3.239-.491c-2.229-.245-4.48-.371-6.723-.441-1.984-.056-3.961-.056-5.938-.056-.967 0-1.97 0-2.951.042v-.617c.575-.056 1.157-.056 1.746-.056 3.953 0 7.942 0 11.875.315 1.619.133 3.232.316 4.83.582.58.044 1.139.24 1.62.568.156.13.302.273.434.427.575.624 1.101 1.515.933 2.145a1.642 1.642 0 01-.12.596 2.008 2.008 0 01-.14.323 5.017 5.017 0 01-2.411 1.865c-1.39.576-2.857.946-4.354 1.1a32.048 32.048 0 01-4.5.161" fill="#39B87C"/><path d="M216.709 436.033v1.402a3.137 3.137 0 01-.435-.736 1.804 1.804 0 01-.161-.603 3.68 3.68 0 010-.393.249.249 0 010-.077c.086-.484.304-.936.631-1.304v1.725l-.035-.014zm11.181 4.808c-1.051-.105-2.103-.21-3.196-.364-.701-.091-1.297.406-1.963.273l-.07-.904v.231-.631l.736.134c3.799.701 7.711.42 11.567.238a17.137 17.137 0 005.292-.953c.947-.351 2.805-1.354 2.882-2.482a.273.273 0 000-.07 1.532 1.532 0 00-.218-.982 2.5 2.5 0 00-.778-.82 1.907 1.907 0 00-.967-.505 22.14 22.14 0 00-3.239-.49c-2.229-.246-4.48-.372-6.723-.442-1.984-.056-3.961-.056-5.938-.056-.967 0-1.969 0-2.951.042v-1.248c1.129-.084 2.278-.049 3.421-.049 2.804 0 5.608 0 8.412.182l1.97.113c1.141.048 2.278.155 3.407.322.744.101 1.479.253 2.202.456 1.528.42 2.923 2.152 2.692 3.778a.672.672 0 01-.071.218 3.702 3.702 0 01-1.486 2.152 10.171 10.171 0 01-3.862 1.626c-.722.161-1.452.278-2.188.351-.413.049-.827.084-1.226.105a48.758 48.758 0 01-7.642-.204" fill="#325136"/><path d="M231.634 448.574a57.514 57.514 0 01-7.999-.771l-.603-.098h-.091l-.701-.134h-.112a10.571 10.571 0 00-.933-.21 7.505 7.505 0 01-3.946-2.103 1.934 1.934 0 01-.547-1.276c.011-.301.109-.593.28-.841.189 1.325.624 2.425 2.054 3.007.746.273 1.516.472 2.3.596l.301.07.526.119h.084c.252.057.505.099.75.141.245.042.589.105.883.154a43.03 43.03 0 0011.918.582c1.816-.211 4.024-.652 5.44-1.907.263-.204.467-.475.589-.785a4.565 4.565 0 00-.463-1.991c-.449-.996-1.353-1.073-2.327-1.227a62.199 62.199 0 00-7.011-.701 145.33 145.33 0 00-6.05-.105c-1.051 0-2.18-.077-3.273 0v-.589h1.991c4.029-.071 8.059.084 12.071.463 1.024.112 2.047.252 3.064.427.354.05.701.137 1.037.26.192.075.369.182.526.315.827.589 1.514 2.678 1.066 3.505a2.323 2.323 0 01-.344.484 5.431 5.431 0 01-1.977 1.402c-2.559 1.164-5.608 1.339-8.503 1.255" fill="#39B87C"/><path d="M228.851 449.065a53.092 53.092 0 01-5.538-.652c-.407-.07-.807-.147-1.22-.238l-.211-.049-.595-.134a.45.45 0 00-.127 0c-1.78-.455-3.995-1.275-4.851-3.042a2.116 2.116 0 010-1.886c.14-.291.322-.561.54-.799a.984.984 0 000 .133c0 .26.063.519.105.757.189 1.325.624 2.426 2.054 3.008.746.272 1.516.471 2.3.596l.301.07.526.119h.084c.252.056.505.098.75.14.245.042.589.105.883.154 3.927.747 7.938.943 11.918.582 1.816-.21 4.024-.652 5.44-1.907.261-.206.464-.476.589-.785a4.483 4.483 0 00-.47-1.991c-.442-.995-1.346-1.072-2.32-1.227a62.666 62.666 0 00-7.011-.701 145.33 145.33 0 00-6.05-.105c-1.051 0-2.18-.077-3.273 0v-1.241a16.757 16.757 0 012.054 0c.687.043 1.269 0 1.885 0 2.762 0 5.511.057 8.266.274.624.049 1.254.112 1.871.189s1.402.154 2.103.26h.134c.96.14 2.159.224 2.888.911a3.988 3.988 0 011.248 3.898c.006.074.006.149 0 .224a.51.51 0 01-.218.357c-.056.092-.105.176-.168.26-1.402 1.815-4.15 2.46-6.309 2.755-2.5.29-5.024.313-7.529.07" fill="#325136"/><path d="M223.039 447.825a6.275 6.275 0 00-.799-.274h-.112a10.185 10.185 0 00-.94-.21c-.469-.098-.96-.189-1.402-.309a4.431 4.431 0 01-2.804-1.738 5.028 5.028 0 01-.589-1.942c0-.098 0-.203-.035-.301a45.579 45.579 0 01-.245-5.945v-1.402a.249.249 0 010-.077c0-2.181.042-4.368.07-6.548v-1.795c.002-1.824.096-3.646.28-5.461v-.238c.044-.404.124-.802.239-1.192.034-.119.076-.237.126-.35.096-.253.231-.49.4-.701.373-.428.835-.77 1.353-1.003l.217-.112c.701-.336 2.061-.624 2.804-.883v.652c-.888.215-1.76.494-2.608.834a4.89 4.89 0 00-.771.512 4.082 4.082 0 00-.47.441c-.042.056-.084.119-.126.169a4.732 4.732 0 00-.575 1.745c-.042.288-.063.575-.091.862-.028.288 0 .701-.056 1.066a85.986 85.986 0 00-.147 3.561v10.249a45.805 45.805 0 00.182 4.816.999.999 0 000 .134c0 .259.063.518.105.757.19 1.325.624 2.425 2.054 3 .745.278 1.515.48 2.3.603l.301.07.526.119h.084c.252.056.505.098.75.14v.638l-.021.113z" fill="#39B87C"/><path d="M222.871 448.428a6.037 6.037 0 00-.778-.253l-.204-.049a4.975 4.975 0 00-.602-.133.45.45 0 00-.127 0 11.508 11.508 0 01-3.168-.946 4.15 4.15 0 01-2.166-3.176c-.61-3.547-.372-7.249-.33-10.831.042-3.785-.105-7.662.379-11.42.189-1.479.616-2.692 1.927-3.505.19-.119.372-.217.561-.315a26.398 26.398 0 013.078-1.017.55.55 0 01.603.185c.046.06.079.128.098.201a.696.696 0 01-.126.659.65.65 0 01-.274.168l-.126.042c-.888.215-1.76.494-2.608.834a4.005 4.005 0 00-.462.246 2.718 2.718 0 00-.779.701c-.042.056-.084.119-.126.168a4.723 4.723 0 00-.575 1.746c-.042.287-.063.574-.091.862-.028.287 0 .701-.056 1.065a86.034 86.034 0 00-.147 3.562v10.249a45.816 45.816 0 00.182 4.816.984.984 0 000 .133c0 .259.063.519.105.757.19 1.325.624 2.426 2.054 3.008.746.272 1.516.471 2.3.595l.301.07.526.12h.084c.254.058.504.131.75.217.07.017.138.04.203.07a.63.63 0 01.428.589.705.705 0 01-.315.61.545.545 0 01-.449 0m101.719 23.468c-1.009 4.017-5.874 4.585-9.288 4.908-.954.077-.968 1.584 0 1.5 2.348-.196 4.767-.407 6.898-1.486a7.19 7.19 0 003.835-4.487c.231-.939-1.213-1.339-1.445-.399m36.931 70.468a25.389 25.389 0 00-8.847 4.788.756.756 0 000 1.066.766.766 0 001.058 0 23.38 23.38 0 018.188-4.41c.919-.28.526-1.731-.399-1.444zm-89.564-35.101c1.402 2.86 4.746 3.463 7.571 3.841a.76.76 0 00.75-.757.77.77 0 00-.75-.75c-2.306-.308-5.145-.75-6.309-3.091a.75.75 0 00-1.024-.267.76.76 0 00-.266 1.024m-1.703 81.033a9.592 9.592 0 016.863 3.505.742.742 0 00.539.255.749.749 0 00.555-.22.758.758 0 00.219-.555.761.761 0 00-.071-.296.767.767 0 00-.184-.243 11.074 11.074 0 00-7.921-3.975c-.968-.049-.961 1.451 0 1.507" fill="#325136"/><path d="M257.39 248.956a9.26 9.26 0 1018.129-3.795 9.26 9.26 0 00-18.129 3.795z" fill="#211011"/><path d="M253.05 247.001c3.505 1.045 6.856.042 7.543-2.236.687-2.278-1.591-4.97-5.075-6.015-3.484-1.044-6.856-.035-7.536 2.244-.68 2.278 1.584 4.963 5.068 6.007z" fill="#fff"/></svg>