<svg width="650" height="650" fill="none" xmlns="http://www.w3.org/2000/svg"><path d="M415.5 544.586c-168.731-40.559-336.114 5.997-368.24 48.979-32.125 42.982 90.392 51.132 164.274 51.132 73.881 0 149.414-13.433 244.758 0 95.345 13.433 162.623-1.734 175.831-34.232 13.208-32.499-5.709-15.181-216.623-65.879z" fill="#9DBEAA"/><path d="M210.577 551.332h1.09c-1.563-28.983 9.069-56.261 18.28-74.044a190.7 190.7 0 0120.601-32.109l-.805-.829A193.05 193.05 0 00229 476.53c-9.283 17.949-20.009 45.464-18.423 74.755" fill="#49745B"/><path d="M255.307 443.544a15.199 15.199 0 01-9.755 7.554c-.612-4.7.372-9.47 2.794-13.544a15.195 15.195 0 019.732-7.554 21.311 21.311 0 01-2.771 13.544zm-13.52 5.068a20.651 20.651 0 01-3.884 13.165 18.351 18.351 0 01-4.736-12.289 20.86 20.86 0 013.884-13.189 18.427 18.427 0 014.736 12.313zm-10.561 9.045a20.79 20.79 0 011.373 13.663 14.211 14.211 0 01-8.927-8.074 20.722 20.722 0 01-1.373-13.64 14.215 14.215 0 018.927 8.051zm-7.317 22.283a8.667 8.667 0 01.947 5.659 5.915 5.915 0 01-3.978-3.055 8.763 8.763 0 01-.947-5.683 5.883 5.883 0 013.978 3.079zm-3.173 7.98a8.907 8.907 0 01.971 5.683 5.783 5.783 0 01-3.978-3.079 8.517 8.517 0 01-.971-5.659 5.849 5.849 0 013.978 3.055zm24.082-25.929a11.484 11.484 0 019.14 4.878 12.252 12.252 0 01-9.472 4.617 11.508 11.508 0 01-9.14-4.878 12.249 12.249 0 019.472-4.617zm-6.086 11.295a11.533 11.533 0 019.164 4.901 12.286 12.286 0 01-9.472 4.594 11.432 11.432 0 01-9.14-4.878 12.262 12.262 0 019.471-4.617m-10.063 15.415a7.46 7.46 0 015.967 3.173 7.93 7.93 0 01-6.227 2.984 7.361 7.361 0 01-5.944-3.173 7.865 7.865 0 016.204-2.984zm-17.974 56.249c-.719-5.317-4.478-11.467-15.483-9.091-.079-.022-.108-.017-.074.016l.074-.016c.949.267 9.233 4.471 6.84 11.252-.864-2.593-3.889-7.087-9.075-4.322 2.737.577 3.457 1.297 6.482 9.508 3.025 8.21 11.236 10.371 18.15 1.728 6.914-8.643 3.457-11.236 12.964-11.668 0-.432-6.05-4.753-10.371-1.728-3.457 2.42-4.898 4.465-5.186 5.185.288-3.169-.345-9.68-5.185-10.371 0 .432 2.16 4.322.864 9.507z" fill="#49745B"/><path d="M371.288 211.93c-2.515-6.59-15.75-3.852-20.354-9.196-6.115-7.102-4.978-27.842-9.792-35.876-4.815-8.035-8.216-17.165-8.167-26.53.06-11.309 5.067-21.962 10.586-31.826a269.116 269.116 0 0128.805-41.696 199.69 199.69 0 0128.624 49.424c5.236 13.084 9.076 27.799 4.472 41.118-1.884 5.465-5.838 17.183-9.028 22.016-8.631 13.126-16.521 19.44-25.158 32.566" fill="#FFD240"/><path d="M372.498 211.617c-1.739-4.381-6.741-5.284-10.869-6.066a38.244 38.244 0 01-6.711-1.643 8.935 8.935 0 01-2.359-1.318 7.023 7.023 0 01-1.565-1.884c-2.137-3.497-2.889-7.86-3.611-11.899-.819-4.706-1.354-9.461-2.323-14.143a36.05 36.05 0 00-1.661-5.917c-.903-2.299-2.305-4.345-3.431-6.536a50.5 50.5 0 01-5.483-17.164c-1.607-13.963 4.959-26.909 11.712-38.645a266.64 266.64 0 0127.029-38.681l-1.763-.037a197.87 197.87 0 0118.724 28.468 196.01 196.01 0 017.481 15.365 131.075 131.075 0 015.856 15.751 62.951 62.951 0 012.726 16.28 40.204 40.204 0 01-.602 7.974 46.497 46.497 0 01-1.926 6.952c-1.426 4.129-2.871 8.257-4.52 12.302-.776 1.914-1.595 3.815-2.546 5.651a49.244 49.244 0 01-3.839 5.97c-6.248 8.763-13.843 16.437-20.102 25.2a99.682 99.682 0 00-2.528 3.683c-.885 1.348 1.252 2.636 2.137 1.3 3.142-4.695 6.558-9.2 10.231-13.493 3.449-4.099 6.964-8.137 10.232-12.404 1.727-2.269 3.43-4.593 4.941-7.006a40.635 40.635 0 002.648-5.224c1.866-4.243 3.449-8.6 4.977-12.97.674-1.932 1.397-3.864 1.95-5.832a40.585 40.585 0 001.354-8.323 56.902 56.902 0 00-1.685-16.72 110.112 110.112 0 00-5.38-16.124 196.86 196.86 0 00-7.295-15.864 201.606 201.606 0 00-18.422-29.274 197.701 197.701 0 00-2.637-3.4 1.24 1.24 0 00-1.353-.3c-.153.06-.292.15-.41.263a271.72 271.72 0 00-24.754 34.631 161.465 161.465 0 00-10.105 18.952c-2.775 6.416-4.773 13.241-4.905 20.3a47.01 47.01 0 003.665 18.375 64.983 64.983 0 004.068 8.299 22.455 22.455 0 012.318 5.237c1.312 4.507 1.859 9.22 2.569 13.842.687 4.472 1.349 9.082 3.01 13.325a14.81 14.81 0 002.919 4.989c1.558 1.613 3.731 2.48 5.856 3.058 2.263.602 4.592.951 6.885 1.438 2.01.428 4.068.897 5.693 2.137a4.654 4.654 0 011.373 1.745c.09.315.297.584.58.75.282.167.617.22.936.147a1.253 1.253 0 00.897-1.523" fill="#AB8935"/><path d="M398.065 301.016c5.627 4.261 15.407-5.067 22.142-2.967 8.943 2.787 18.958 20.987 27.294 25.278 8.336 4.291 16.051 10.231 20.968 18.188 5.929 9.63 7.325 21.317 7.861 32.608a269.117 269.117 0 01-2.408 50.616 199.278 199.278 0 01-50.441-26.788c-11.369-8.33-22.413-18.784-25.555-32.5-1.294-5.634-4.134-17.665-3.996-23.473.373-15.708 3.732-25.235 4.105-40.926" fill="#FFD240"/><path d="M397.421 302.082c3.689 2.738 8.679.602 12.428-.849a35.67 35.67 0 016.524-2.106l.361-.055.181-.03h-.03c.277-.03.548-.054.818-.06h.686l.398.03h.162c.199 0-.192-.036 0 0a7.9 7.9 0 011.336.355l.277.109c.102.042.343.144.108.042.205.09.41.186.602.289.874.457 1.71.984 2.498 1.577l.602.439s.186.15 0 .03l.144.114.337.277c.422.361.837.728 1.246 1.108 1.806 1.655 3.443 3.46 5.056 5.284 3.304 3.749 6.403 7.698 9.954 11.224a27.82 27.82 0 004.875 4.009c1.096.674 2.275 1.203 3.395 1.847a82.552 82.552 0 013.984 2.408c5.122 3.388 9.81 7.607 13.241 12.735 3.43 5.128 5.453 10.942 6.674 16.93 1.246 6.133 1.655 12.386 1.896 18.657.277 7.187.277 14.375 0 21.565a250.712 250.712 0 01-1.757 21.498 309.071 309.071 0 01-.686 5.188l1.588-1.204a197.976 197.976 0 01-33.161-15.437 198.208 198.208 0 01-15.372-9.979 114.033 114.033 0 01-11.959-9.678 59.542 59.542 0 01-9.503-11.206 42.607 42.607 0 01-3.394-6.464 40.461 40.461 0 01-1.992-6.53c-.957-4.177-1.902-8.36-2.661-12.579-.385-2.124-.728-4.213-.926-6.271a45.29 45.29 0 010-6.891c.601-11.032 3.087-21.848 3.773-32.868.096-1.516.163-3.009.199-4.544.036-1.534-2.456-1.625-2.498 0a147.172 147.172 0 01-1.607 17.334c-.77 5.362-1.625 10.719-2.094 16.117a75.52 75.52 0 00-.41 8.426c.071 2.071.272 4.136.602 6.181.68 4.508 1.649 8.974 2.661 13.416.451 1.98.86 3.978 1.468 5.922a40.822 40.822 0 002.955 7.023 55.366 55.366 0 009.028 12.134 98.761 98.761 0 0011.652 10.141c4.815 3.611 9.798 7 14.92 10.153a200.864 200.864 0 0033.288 16.467 213.95 213.95 0 004.267 1.589c.855.301 1.487-.458 1.595-1.204a273.785 273.785 0 002.179-21.564c.441-7.218.59-14.441.445-21.667a162.156 162.156 0 00-1.372-19.927c-.891-6.163-2.468-12.284-5.302-17.851a44.843 44.843 0 00-12.08-14.523 62.117 62.117 0 00-7.872-5.344c-1.203-.686-2.455-1.276-3.647-1.98a19.382 19.382 0 01-1.137-.741l-.572-.427-.271-.205s-.157-.126-.048-.042l-.103-.084c-3.713-3.081-6.776-6.915-9.906-10.569-3.13-3.653-6.374-7.529-10.298-10.472a13.71 13.71 0 00-5.206-2.654c-2.227-.469-4.514 0-6.62.638-2.257.704-4.418 1.667-6.62 2.456-1.04.382-2.106.69-3.19.92-.229.049-.458.085-.692.121-.235.036.102 0-.133 0l-.451.036a8.415 8.415 0 01-1.402-.036h-.139l-.307-.072c-.217-.055-.427-.133-.644-.205-.217-.072.139.084-.078-.03l-.277-.151a5.445 5.445 0 01-.638-.415 1.265 1.265 0 00-1.715.421 1.285 1.285 0 00.421 1.716" fill="#AB8935"/><path d="M329.815 264.02l-34.24 1.288c-6.963.259-14.047.512-20.781-1.264-15.011-3.942-25.579-16.978-35.064-29.262-10.611-13.746-21.456-27.938-26.211-44.639-.644-2.251-.939-5.164 1.011-6.452.951-.602 2.167-.638 3.304-.602 25.332.343 50.706 3.292 75.129 10.021 6.621 1.806 13.512 4.129 18.146 9.202 2.895 3.166 4.683 7.181 6.217 11.183 2.949 7.692 5.152 15.648 7.349 23.574l4.634 16.72c1.011 3.641 1.962 7.764.042 11.02" fill="#FFD240"/><path d="M329.815 262.769c-11.58.437-23.162.872-34.745 1.306-5.417.204-10.984.415-16.389-.476a38.504 38.504 0 01-13.776-5.158c-8.426-5.121-15.016-12.759-21.065-20.415-6.048-7.655-12.127-15.431-17.429-23.646a112.959 112.959 0 01-7.18-12.705 80.384 80.384 0 01-2.823-6.657 37.005 37.005 0 01-2.052-6.759 4.901 4.901 0 01.198-2.762c.421-.891 1.33-1.132 2.245-1.174 2.672-.126 5.417.066 8.077.157 5.603.186 11.206.499 16.798.969a289.594 289.594 0 0133.21 4.634 263.004 263.004 0 0116.364 3.834c4.755 1.276 9.582 2.642 13.843 5.164a21.991 21.991 0 015.549 4.58 26.805 26.805 0 013.785 6.133c2.245 4.814 3.864 9.912 5.417 14.962 1.625 5.308 3.082 10.67 4.562 16.021a6311.22 6311.22 0 002.281 8.233c.746 2.685 1.601 5.369 2.155 8.107.475 2.335.65 4.875-.602 7.018-.795 1.396 1.342 2.696 2.136 1.294 2.841-4.984.344-11.104-1.059-16.154-1.559-5.639-3.105-11.279-4.688-16.912-1.529-5.459-3.13-10.905-5.038-16.25-1.757-4.911-3.611-9.961-7.023-14.011-3.304-3.948-7.957-6.416-12.717-8.161-5.116-1.878-10.485-3.16-15.787-4.406a283.872 283.872 0 00-34.221-5.802 302.151 302.151 0 00-17.117-1.372c-2.905-.16-5.814-.287-8.727-.379-1.456-.04-2.911-.074-4.363-.102a23.413 23.413 0 00-3.846.078c-2.612.391-4.008 2.594-4.014 5.116 0 2.407.89 4.815 1.655 7.023a88.598 88.598 0 006.157 13.771c4.869 8.859 10.923 17.008 17.11 25.049 6.187 8.041 12.368 16.25 20.192 22.81a49.31 49.31 0 0012.91 7.981c5.056 2.07 10.478 2.864 15.913 3.009 5.838.162 11.706-.223 17.544-.44l17.779-.668 8.757-.331c1.601-.06 1.637-2.558 0-2.497" fill="#AB8935"/><path d="M345.15 289.37c-14.595 3.449-29.888-2.094-44.796-.517-5.206.548-10.279 1.962-15.323 3.376-8.065 2.269-16.328 4.653-23.027 9.678-10.737 8.047-15.75 21.54-19.458 34.45-3.707 12.91-6.879 26.524-15.443 36.87l34.305 7.414c5.321 1.15 10.774 2.305 16.166 1.577 5.152-.698 9.925-3.075 14.348-5.802 14.445-8.877 26.121-21.666 35.329-35.876 9.208-14.21 16.069-29.804 22.112-45.633.53-1.39 1.059-2.967.457-4.327-.601-1.36-2.907-1.854-3.496-.481" fill="#FFD240"/><path d="M344.861 288.161c-10.466 2.443-21.239.258-31.76-.554a66.404 66.404 0 00-16.352.499c-5.651.963-11.2 2.624-16.689 4.262-5.164 1.534-10.328 3.328-15.004 6.048a39.383 39.383 0 00-11.61 10.424c-6.362 8.426-9.672 18.706-12.507 28.733-3.057 10.833-5.85 22.033-12.217 31.458a42.18 42.18 0 01-2.45 3.293c-.548.668-.493 1.883.524 2.1l19.361 4.213c6.254 1.354 12.495 2.805 18.772 4.032 2.97.632 5.992.985 9.028 1.054 2.848.013 5.68-.417 8.396-1.276 5.38-1.709 10.291-4.761 14.884-7.987a113.352 113.352 0 0024.182-23.472c7.463-9.63 13.56-20.222 18.79-31.194 2.726-5.718 5.23-11.544 7.589-17.424.598-1.48 1.184-2.961 1.758-4.441a39.613 39.613 0 001.516-4.129c.343-1.288.452-2.805-.265-3.996a3.707 3.707 0 00-2.84-1.71 2.71 2.71 0 00-2.703 1.403 1.282 1.282 0 00.422 1.715 1.258 1.258 0 001.715-.421s.198-.361.042-.127c.156-.234.042 0 0 0l.09-.054c-.132.042-.132.042 0 0 .289-.114-.114 0 .066 0 .281-.022.559.055.789.217.295.192-.12-.145.126.102.054.06.115.12.163.181-.139-.193.054.138.06.156.028.087.051.175.066.265.078.484.048.98-.09 1.45a32.23 32.23 0 01-1.402 3.888 435.089 435.089 0 01-1.668 4.243c-2.244 5.61-4.616 11.171-7.222 16.63-5.007 10.61-10.833 20.89-17.869 30.285a113.083 113.083 0 01-22.629 22.87c-4.213 3.16-8.787 6.145-13.674 8.203a26.064 26.064 0 01-7.463 2.005 33.21 33.21 0 01-8.36-.374c-2.895-.445-5.754-1.101-8.619-1.721l-9.238-1.992-18.483-3.996-4.616-.999.523 2.1c7.343-8.907 10.834-20.023 13.951-30.965 2.859-10.093 5.562-20.433 11.159-29.431a39.084 39.084 0 019.984-11.068c4.274-3.111 9.203-5.182 14.204-6.819 2.546-.836 5.122-1.571 7.698-2.299 2.81-.788 5.627-1.583 8.474-2.233a56.72 56.72 0 018.426-1.342 64.815 64.815 0 017.872-.072c10.617.493 21.203 2.835 31.838 1.402a40.846 40.846 0 003.894-.716c1.565-.361.945-2.781-.602-2.407" fill="#AB8935"/><path d="M409.03 223.793a47.91 47.91 0 01-3.099-8.589l-6.554-22.551c-1.264-4.363-2.54-8.763-2.931-13.289-.602-6.843.848-13.674 2.317-20.379a1656.805 1656.805 0 013.497-15.648c1.143-4.995 2.335-10.015 4.417-14.703 4.857-10.918 14.324-19.301 24.923-24.82 10.599-5.52 22.347-8.426 34.065-10.768a2.917 2.917 0 011.805 0c.609.383 1.054.98 1.246 1.674 3.401 8.48 3.702 17.832 3.954 26.963.386 13.692.759 27.54-2.124 40.925-1.102 5.104-2.703 10.19-5.597 14.535-2.107 3.166-4.845 5.856-7.132 8.896-2.781 3.695-4.881 7.896-7.975 11.332a51.553 51.553 0 01-7.168 6.218c-10.051 7.679-20.421 15.521-32.584 18.994" fill="#FFD240"/><path d="M410.12 223.185a42.43 42.43 0 01-2.666-7.319c-.825-2.81-1.637-5.633-2.456-8.426-1.631-5.615-3.28-11.224-4.887-16.851-1.493-5.212-2.684-10.418-2.498-15.877.187-5.459 1.373-10.767 2.528-16.058 1.252-5.705 2.504-11.435 3.846-17.092 1.252-5.321 2.72-10.623 5.368-15.432 4.593-8.335 11.893-14.902 20.06-19.644 8.95-5.206 18.941-8.27 28.979-10.58a174.893 174.893 0 017.614-1.626c.391-.078.842-.216 1.155.085.333.452.575.965.711 1.51.441 1.18.83 2.383 1.167 3.611a69.88 69.88 0 012.173 15.016c.283 5.381.391 10.786.481 16.178.091 5.634.06 11.279-.313 16.906a98.685 98.685 0 01-2.407 16.581c-1.294 5.345-3.298 10.37-6.735 14.71-1.667 2.1-3.497 4.062-5.134 6.187-1.637 2.124-3.051 4.453-4.538 6.71a35.228 35.228 0 01-4.887 6.163 67.203 67.203 0 01-6.211 5.122c-7.824 5.988-15.828 12.007-24.916 15.973a54.848 54.848 0 01-6.735 2.408c-1.541.445-.927 2.864.602 2.407 9.918-2.859 18.657-8.51 26.884-14.589a369.975 369.975 0 006.248-4.718 58.112 58.112 0 006.289-5.285c3.9-3.942 6.271-9.027 9.696-13.337 1.715-2.166 3.611-4.213 5.29-6.391a32.86 32.86 0 004.189-7.397c2.221-5.327 3.304-11.104 4.063-16.798 1.534-11.435 1.167-23.081.836-34.612a124.816 124.816 0 00-1.173-15.727 51.904 51.904 0 00-1.728-7.59c-.71-2.25-1.504-5.921-4.526-5.74-1.336.15-2.659.397-3.96.74a308.76 308.76 0 00-3.93.854c-2.612.602-5.218 1.204-7.824 1.938a108.033 108.033 0 00-15.293 5.351c-9.148 4.05-17.634 9.87-23.918 17.724a45.794 45.794 0 00-7.475 13.457c-1.974 5.604-3.123 11.496-4.423 17.292-1.276 5.657-2.642 11.315-3.611 17.032-.963 5.555-1.355 11.128-.416 16.714.963 5.717 2.853 11.278 4.466 16.851 1.667 5.742 3.31 11.496 5.007 17.231a44.767 44.767 0 002.829 7.548c.728 1.438 2.907.216 2.179-1.204" fill="#AB8935"/><path d="M432.768 235.041c.734-30.857 16.376-60.787 41.576-79.583a48.796 48.796 0 0110.833-6.409c3.611-1.439 7.427-2.227 11.194-3.166 4.869-1.204 9.672-2.708 14.613-3.647 9.63-1.806 19.536-1.523 29.365-1.204 1.805.054 3.845.211 5.031 1.541 1.186 1.33 1.041 3.135.843 4.778-3.389 27.758-17.364 53.565-36.743 74.161-3.413 3.611-7.072 7.168-11.628 9.395-4.153 2.028-8.847 2.858-13.494 3.502a199.678 199.678 0 01-51.729.355" fill="#FFD240"/><path d="M434.013 235.053a98.795 98.795 0 015.291-29.358 103.638 103.638 0 0113.686-26.62 102.414 102.414 0 0120.962-21.763c4.279-3.292 8.842-6.277 14.017-7.938 2.727-.879 5.525-1.493 8.3-2.179 2.871-.71 5.724-1.517 8.588-2.263a85.87 85.87 0 0117.075-2.714c5.766-.313 11.543-.163 17.309 0 1.944.06 5.164-.199 5.754 2.239a8.79 8.79 0 01-.036 3.069 87.638 87.638 0 01-.602 4.087 114.8 114.8 0 01-3.84 15.973 130.389 130.389 0 01-14.005 29.918 148.624 148.624 0 01-9.63 13.566 132.283 132.283 0 01-10.983 12.307 38.045 38.045 0 01-6.115 4.99 27.091 27.091 0 01-7.277 3.184c-5.356 1.492-11.02 2.034-16.545 2.557a199.809 199.809 0 01-34.841.241 198.827 198.827 0 01-8.468-.867 1.253 1.253 0 00-1.258 1.24 1.277 1.277 0 001.24 1.258 200.924 200.924 0 0035.744 1.204 194.775 194.775 0 0017.55-1.77c5.555-.812 11.044-2.13 15.757-5.308 4.712-3.178 8.474-7.367 12.151-11.537a158.039 158.039 0 0010.659-13.512 138.214 138.214 0 0016.087-30.093 119.563 119.563 0 004.899-16.075 112.886 112.886 0 001.565-8.342c.361-2.407 1.065-5.248.042-7.595-1.203-2.739-4.327-3.088-6.939-3.172-2.961-.09-5.928-.18-8.889-.204a113.626 113.626 0 00-17.749.999c-5.928.878-11.64 2.672-17.454 4.122-2.846.71-5.717 1.33-8.51 2.215a39.042 39.042 0 00-7.872 3.473 82.513 82.513 0 00-13.03 9.756 103.48 103.48 0 00-10.773 11.146 107.039 107.039 0 00-16.196 26.518 102.425 102.425 0 00-7.686 29.695 99.889 99.889 0 00-.475 7.517c-.036 1.601 2.461 1.625 2.497 0" fill="#AB8935"/><path d="M449.078 242.432c5.549-9.365 13.205-17.267 20.794-25.079a86.266 86.266 0 017.222-6.867 54.57 54.57 0 019.684-6.169c13.638-6.952 29.244-9.594 44.537-8.896 15.293.698 30.309 4.641 44.537 10.232.467.138.885.407 1.204.776a2.417 2.417 0 01.156 1.872c-2.136 10.653-10.972 18.465-19.301 25.44L545.194 244.4c-8.535 7.156-17.454 14.511-28.191 17.454-4.658 1.264-9.503 1.643-14.324 1.805-9.176.35-18.366.018-27.493-.993-7.547-.83-15.329-2.245-21.534-6.62-2.233-1.571-4.273-3.611-5.14-6.187s-.259-5.796 1.962-7.385" fill="#FFD240"/><path d="M450.143 243.076c5.333-8.955 12.555-16.545 19.783-24.002 3.611-3.695 7.174-7.378 11.495-10.231a66.814 66.814 0 0112.898-6.548 87.899 87.899 0 0127.583-5.634 113.72 113.72 0 0130.658 3.01 151.337 151.337 0 0115.588 4.465c1.276.442 2.548.895 3.816 1.36 1.24.458 2.552.867 3.749 1.433.344.162.404.223.398.56a7.573 7.573 0 01-.295 1.528 25.046 25.046 0 01-1.096 3.401c-1.739 4.375-4.688 8.203-7.914 11.585a134.625 134.625 0 01-11.116 10.009c-4.209 3.527-8.422 7.054-12.639 10.581-3.569 3.009-7.168 5.928-11.014 8.552A54.857 54.857 0 01520 259.573c-4.718 1.721-9.678 2.407-14.673 2.714-10.813.621-21.661.24-32.404-1.137-4.995-.644-10.105-1.655-14.667-3.864a22.684 22.684 0 01-5.904-3.912c-1.426-1.372-2.696-3.13-2.913-5.152a5.16 5.16 0 011.914-4.851 1.255 1.255 0 00.036-1.763 1.273 1.273 0 00-1.763-.037 7.386 7.386 0 00-2.721 6.019 10.331 10.331 0 002.678 6.476 21.042 21.042 0 005.736 4.49 35.576 35.576 0 007.385 3.069c5.26 1.565 10.779 2.173 16.25 2.666 5.557.502 11.128.753 16.713.753 5.519.088 11.037-.227 16.509-.945a45.824 45.824 0 0014.162-4.622c8.865-4.569 16.388-11.387 23.977-17.749 4.213-3.551 8.529-7.036 12.669-10.695 3.816-3.364 7.475-6.969 10.406-11.146a33.678 33.678 0 003.611-6.621 26.35 26.35 0 001.138-3.484c.295-1.204.68-2.522.138-3.684-.601-1.288-2.118-1.661-3.334-2.124a183.134 183.134 0 00-3.894-1.451 166.352 166.352 0 00-7.998-2.654 129.244 129.244 0 00-32.819-5.736 95.952 95.952 0 00-29.226 3.317c-9.714 2.72-19.38 7.096-26.897 13.939-1.986 1.805-3.846 3.743-5.718 5.669a463.975 463.975 0 00-5.549 5.79 136.886 136.886 0 00-10.526 12.476c-1.541 2.089-3.009 4.249-4.309 6.476-.819 1.384 1.312 2.678 2.136 1.294" fill="#AB8935"/><path d="M449.836 261.005a30.97 30.97 0 0113.734-7.824c5.116-1.294 10.34-1.071 15.498-1.968 3.918-.68 7.77-2.004 11.688-2.72 12.675-2.311 25.314 1.962 35.877 9.076 10.562 7.113 19.367 16.942 28.07 26.68l15.546 17.393c-6.621 6.59-16.112 6.296-24.568 8.258-4.02.938-7.95 2.455-11.898 3.857a219.857 219.857 0 01-12.194 3.925c-4.087 1.185-8.348 2.281-12.567 2.455a43.693 43.693 0 01-11.958-1.438c-11.237-2.691-22.137-7.728-30.304-16.467-4.893-5.23-8.696-11.658-11.748-18.495-3.563-7.974-6.181-16.93-5.134-26.126" fill="#FFD240"/><path d="M450.703 261.902a30.328 30.328 0 0110.388-6.62c4.213-1.553 8.636-1.806 13.06-2.197a56.02 56.02 0 007.072-1.005c2.305-.5 4.568-1.156 6.861-1.71a40.962 40.962 0 0113.259-1.089c8.865.777 17.297 4.436 24.621 9.365 7.824 5.254 14.517 11.935 20.879 18.814 6.758 7.306 13.313 14.805 19.945 22.226l2.534 2.835.036-1.763c-6.338 6.235-15.702 6.018-23.839 7.908-5.568 1.27-10.864 3.539-16.25 5.338-5.387 1.8-10.834 3.611-16.425 4.502-5.591.891-11.086.115-16.515-1.258a68.792 68.792 0 01-14.625-5.416 51.707 51.707 0 01-12.777-9.143 56.41 56.41 0 01-9.239-12.386c-4.911-8.714-8.883-18.711-8.793-28.852 0-1.276.077-2.55.229-3.822a1.262 1.262 0 00-.368-.872 1.262 1.262 0 00-.872-.368 1.289 1.289 0 00-1.258 1.24c-1.167 10.556 2.33 20.998 6.988 30.327a66.301 66.301 0 008.793 13.554 51.824 51.824 0 0012.512 10.526 66.255 66.255 0 0014.89 6.554c5.375 1.656 11.068 3.01 16.72 2.847 5.777-.15 11.435-1.884 16.906-3.575a226.864 226.864 0 008.426-2.786c2.81-.993 5.597-2.047 8.426-2.925 4.519-1.397 9.172-1.962 13.806-2.817 4.303-.795 8.679-1.968 12.302-4.52a21.366 21.366 0 002.702-2.239 1.265 1.265 0 00.03-1.763c-6.813-7.632-13.583-15.305-20.463-22.871-6.5-7.144-13.283-14.113-21.113-19.807-7.396-5.374-15.913-9.533-25.007-10.935a42.651 42.651 0 00-13.776.06c-4.712.818-9.226 2.48-13.981 3.069-4.646.602-9.383.56-13.933 1.806a31.999 31.999 0 00-11.465 5.862 31.718 31.718 0 00-2.408 2.106c-1.161 1.114.572 2.913 1.734 1.806" fill="#AB8935"/><path d="M421.254 300.053a139.643 139.643 0 0153.757-8.522c3.726.151 7.488.458 11.05 1.577a39.415 39.415 0 017.825 3.611c7.511 4.345 14.366 9.714 21.197 15.046 6.662 5.212 13.409 10.515 18.398 17.346 3.967 5.416 6.687 11.658 9.377 17.827 1.958 4.497 3.918 8.993 5.88 13.487-3.352-.836-6.867-.524-10.297-.18-16.082 1.582-32.217 3.556-48.353 2.696-5.898-.319-11.82-1.023-17.406-2.943-11.658-4.003-20.866-12.892-29.611-21.583-10.887-10.833-22.214-22.659-25.055-37.736" fill="#FFD240"/><path d="M421.567 301.263a140.007 140.007 0 0128.889-7.276 137.717 137.717 0 0114.932-1.252 95.295 95.295 0 0115.443.505 28.253 28.253 0 017.692 2.143 60.125 60.125 0 017.102 3.888 160.69 160.69 0 0113.295 9.353c4.141 3.171 8.287 6.355 12.284 9.714a70.284 70.284 0 0110.568 10.67c3.106 4.021 5.417 8.589 7.553 13.193 2.275 4.953 4.394 9.979 6.573 14.974.565 1.3 1.131 2.594 1.691 3.894.481-.602.957-1.204 1.432-1.806a26.48 26.48 0 00-8.239-.445c-2.769.217-5.525.53-8.288.813-5.494.559-10.995 1.113-16.508 1.54-11.05.861-22.371 1.385-33.391-.108a47.083 47.083 0 01-15.588-4.815 67.497 67.497 0 01-12.735-8.889c-3.954-3.413-7.674-7.096-11.369-10.785-3.238-3.232-6.44-6.5-9.443-9.949-5.856-6.705-11.116-14.252-13.518-22.925a44.765 44.765 0 01-.77-3.304c-.301-1.577-2.715-.951-2.408.602 1.734 9.094 6.561 17.153 12.32 24.267 2.949 3.647 6.157 7.078 9.437 10.418 3.527 3.611 7.096 7.156 10.798 10.568 7.968 7.349 16.888 13.843 27.625 16.25 5.603 1.282 11.387 1.68 17.116 1.806 5.603.144 11.213 0 16.804-.367 5.591-.367 11.2-.855 16.792-1.409l8.311-.842a71.129 71.129 0 018.39-.602 18.55 18.55 0 013.99.476 1.27 1.27 0 001.3-.44 1.271 1.271 0 00.133-1.366c-2.269-5.2-4.52-10.406-6.801-15.6-2.089-4.749-4.279-9.485-7.144-13.843-5.778-8.745-14.234-15.082-22.395-21.45-4.346-3.388-8.727-6.74-13.319-9.792-4.592-3.051-9.341-5.97-14.637-7.433-5.176-1.42-10.731-1.468-16.064-1.462a141.346 141.346 0 00-44.958 7.421c-1.204.403-2.347.818-3.521 1.246a1.293 1.293 0 00-.897 1.522 1.259 1.259 0 001.523.897z" fill="#AB8935"/><path d="M359.787 304.988c-8.185 8.107-17.803 14.589-26.572 22.058-8.769 7.469-16.9 16.25-20.733 27.126a78.813 78.813 0 00-2.841 11.561 625.58 625.58 0 00-3.786 22.269 65.962 65.962 0 00-.957 9.967c0 8.426 3.094 16.942.957 25.079 2.684-5.02 7.975-8.113 13.343-10.003 5.369-1.89 11.05-2.835 16.34-4.941a73.779 73.779 0 0010.31-5.369c3.96-2.359 7.909-4.778 11.435-7.77 9.227-7.884 14.758-19.151 20.036-30.092 2.076-4.31 4.177-8.661 5.254-13.325 1.559-6.741.909-13.807-.319-20.62-1.071-5.976-2.648-12.037-6.06-17.032a26.596 26.596 0 00-15.733-10.834" fill="#FFD240"/><path d="M358.92 304.092c-6.506 6.427-13.89 11.844-21.064 17.52-6.922 5.506-13.626 11.35-19.007 18.416a52.81 52.81 0 00-6.62 11.267c-1.884 4.43-2.883 9.13-3.774 13.842a561.688 561.688 0 00-2.576 14.547c-.794 4.815-1.679 9.672-2.1 14.541-.379 4.442.102 8.799.704 13.205.56 4.104 1.143 8.275.674 12.428a20.149 20.149 0 01-.542 2.871c-.337 1.318 1.577 2.263 2.269.987 2.36-4.346 6.681-7.12 11.171-8.914 5.218-2.088 10.833-3.009 16.117-4.857 5.477-1.926 10.497-4.971 15.414-8.016 4.917-3.046 9.395-6.386 13.198-10.665 7.421-8.348 12.296-18.694 16.985-28.727a62.11 62.11 0 003.43-8.642 37.497 37.497 0 001.439-8.902c.258-5.747-.602-11.549-1.776-17.158-1.101-5.218-2.78-10.479-5.88-14.878a28.146 28.146 0 00-12.512-9.864 27.026 27.026 0 00-3.72-1.204c-1.559-.373-2.251 2.028-.68 2.407a25.541 25.541 0 0113.078 7.764c3.479 3.858 5.459 8.733 6.729 13.71a71.895 71.895 0 012.353 16.347 38.056 38.056 0 01-.704 8.426 43.81 43.81 0 01-2.877 8.6c-2.275 5.158-4.815 10.232-7.457 15.221a81.714 81.714 0 01-8.636 13.409 52.59 52.59 0 01-12.218 10.773c-2.407 1.553-4.857 3.01-7.331 4.448a63.89 63.89 0 01-7.637 3.858c-9.509 3.894-21.318 4.117-28.45 12.494a17.708 17.708 0 00-2.13 3.07l2.263.987c2.142-8.306-.771-16.629-.903-24.977-.072-4.743.801-9.467 1.535-14.132a605.698 605.698 0 012.455-14.444c.879-4.815 1.686-9.702 3.208-14.372a46.344 46.344 0 015.748-11.502c4.887-7.222 11.381-13.162 18.104-18.657 7.017-5.712 14.396-11.002 21.064-17.159a97.266 97.266 0 002.408-2.305c1.149-1.131-.602-2.931-1.727-1.806" fill="#AB8935"/><path d="M388.128 310.339a102.85 102.85 0 01-10.424 25.079c-2.293 3.948-4.851 7.764-6.747 11.911-6.62 14.522-4.291 31.898 2.925 46.511a49.902 49.902 0 006.488 10.231c2.937 3.473 6.512 6.398 10.063 9.305l17.508 14.312a6.847 6.847 0 002.263 1.396c2.552.783 4.869-1.45 6.344-3.521 7.824-10.917 12.115-23.815 15.136-36.791 1.481-6.367 2.684-12.909 1.926-19.446-.523-4.568-1.998-9.027-3.755-13.325-8.047-19.764-22.817-37.724-42.774-47.233" fill="#FFD240"/><path d="M386.931 310.002a101.9 101.9 0 01-5.158 14.697 122.741 122.741 0 01-7.409 13.843c-2.558 4.213-4.971 8.51-6.458 13.24a47.447 47.447 0 00-2.1 13.175c-.199 9.106 1.962 18.164 5.597 26.481a56.754 56.754 0 007.258 12.483c3.106 3.942 7.006 7.132 10.87 10.291l12.458 10.19c1.071.866 2.139 1.737 3.202 2.612.993.812 1.962 1.685 3.009 2.407.88.632 1.931.981 3.014 1.001a5.333 5.333 0 003.047-.892c1.835-1.162 3.093-2.925 4.291-4.695a72.451 72.451 0 003.888-6.428 95.765 95.765 0 006.018-13.878 145.837 145.837 0 004.213-14.559c1.156-4.881 2.185-9.84 2.408-14.872.373-9.509-3.178-18.579-7.385-26.939a96.597 96.597 0 00-14.444-21.167 83.988 83.988 0 00-19.97-16.388 75.756 75.756 0 00-5.561-2.937 1.28 1.28 0 00-1.715.415 1.25 1.25 0 00.421 1.715 79.063 79.063 0 0120.523 14.276 91.567 91.567 0 0115.378 19.512 99.886 99.886 0 015.609 11.032 58.088 58.088 0 014.195 13.114c.812 4.707.499 9.546-.301 14.234-.859 4.81-1.97 9.571-3.328 14.264-2.667 9.437-6.284 18.658-11.737 26.861-1.041 1.559-2.1 3.274-3.647 4.273a3.19 3.19 0 01-2.112.644h-.097l-.361-.09a2.731 2.731 0 01-.559-.253c-.49-.302-.955-.642-1.391-1.017l-12.205-9.979c-3.924-3.208-7.969-6.313-11.652-9.798a44.653 44.653 0 01-8.583-11.297 64.12 64.12 0 01-7.715-25.103c-.704-8.697.758-17.394 4.869-25.133 2.407-4.538 5.308-8.788 7.685-13.35 2.38-4.561 4.423-9.29 6.115-14.149a124.507 124.507 0 002.197-7.156c.415-1.553-1.986-2.239-2.407-.68" fill="#AB8935"/><path d="M314.811 267.92a704.344 704.344 0 00-30.695-11.32c-2.738-.939-5.483-1.86-8.281-2.607-20.042-5.368-41.943-1.336-60.107 8.697-7.283 4.027-14.114 9.028-21.956 11.778.283 1.487 1.439 2.625 2.546 3.654a211.509 211.509 0 0038.29 28.257 72.646 72.646 0 008.54 4.345 43.933 43.933 0 0034.372-.602c4.49-2.028 8.588-4.815 12.771-7.397a191.493 191.493 0 0119.115-10.418c4.664-2.208 9.834-4.64 11.826-9.401 1.391-3.328.873-7.222-.601-10.52-1.475-3.298-3.78-6.145-6.067-8.937" fill="#FFD240"/><path d="M315.154 266.717a704.818 704.818 0 00-26.729-9.937c-4.405-1.541-8.817-3.136-13.343-4.273a73.429 73.429 0 00-11.658-1.902 80.662 80.662 0 00-23.393 1.625 91.113 91.113 0 00-22.215 7.932c-7.324 3.732-13.993 8.691-21.54 11.977-.933.41-1.872.777-2.823 1.12a1.282 1.282 0 00-.897 1.522c.572 2.673 3.16 4.52 5.08 6.248a209.413 209.413 0 006.861 5.934 219.919 219.919 0 0014.523 11.02 201.857 201.857 0 0015.245 9.629c5.025 2.883 10.231 5.375 15.937 6.567a45.295 45.295 0 0031.567-4.815c5.206-2.859 10.093-6.271 15.257-9.215a195.92 195.92 0 018.035-4.339c2.503-1.27 5.055-2.407 7.559-3.689 4.52-2.257 9.202-5.417 10.358-10.659 1.264-5.766-1.559-11.194-4.935-15.648a96.35 96.35 0 00-2.57-3.226 1.25 1.25 0 00-1.806 1.727c3.244 3.966 6.855 8.366 7.102 13.729a9.91 9.91 0 01-2.058 6.674 17.555 17.555 0 01-5.417 4.213c-2.293 1.282-4.701 2.329-7.054 3.485a188.548 188.548 0 00-7.691 4.002c-5.08 2.787-9.925 5.934-14.872 8.938-4.592 2.786-9.359 5.061-14.613 6.259a43.525 43.525 0 01-15.209.674 44.165 44.165 0 01-14.92-4.941 174.218 174.218 0 01-15.046-9.082 207.113 207.113 0 01-14.12-10.232 169.22 169.22 0 01-13.036-11.23 5.334 5.334 0 01-1.751-2.642l-.897 1.522c7.824-2.804 14.643-7.655 21.871-11.688a89.461 89.461 0 0121.625-8.624 79.791 79.791 0 0122.87-2.444c3.814.154 7.608.621 11.345 1.397 4.33.984 8.594 2.24 12.766 3.761a718.387 718.387 0 0126.662 9.774l3.232 1.27a1.254 1.254 0 001.54-.861 1.283 1.283 0 00-.86-1.546" fill="#AB8935"/><path d="M339.595 229.51a151.419 151.419 0 01-39.421-18.483c-5.351-3.527-10.533-7.445-14.589-12.398-3.611-4.387-6.217-9.485-8.426-14.691-5.796-13.5-9.148-28.179-8.535-42.858.325-7.649 1.71-15.215 2.48-22.84.602-6.241.843-12.513 1.053-18.784a266.468 266.468 0 0147.751 25.163c4.586 3.046 9.112 6.26 12.892 10.262 13.337 14.126 15.275 35.214 16.509 54.6.367 5.778.728 11.616-.193 17.339-.722 4.508-2.233 8.854-3.737 13.169-1.439 4.123-3.479 8.823-7.716 9.882" fill="#FFD240"/><path d="M339.932 228.312a150.854 150.854 0 01-30.544-13.102 128.926 128.926 0 01-13.776-8.889 49.198 49.198 0 01-10.762-10.719 70.006 70.006 0 01-7.222-13.656 109.51 109.51 0 01-4.748-14.096 90.841 90.841 0 01-2.847-30.092c.445-5.664 1.336-11.273 1.992-16.912.656-5.64.981-11.435 1.204-17.153.054-1.408.102-2.823.15-4.213l-1.589 1.204a265.551 265.551 0 0133.77 16.533c5.375 3.123 10.659 6.415 15.793 9.924 4.724 3.238 9.226 6.807 12.831 11.297 6.019 7.499 9.209 16.852 11.062 26.156a142.68 142.68 0 012.023 14.758c.487 5.326.878 10.683 1.077 16.021.151 3.131.071 6.27-.241 9.389a48.74 48.74 0 01-2.016 9.058c-.855 2.75-1.751 5.531-2.847 8.197-.794 1.92-1.884 3.978-3.503 5.363a6.108 6.108 0 01-2.407 1.257c-1.553.41-.933 2.829.602 2.408 4.983-1.306 7.138-6.548 8.672-10.954 1.066-3.051 2.125-6.115 2.901-9.256a47.386 47.386 0 001.373-9.69c.216-5.826-.313-11.694-.747-17.496-.391-5.164-.896-10.322-1.709-15.437-1.559-9.829-4.327-19.735-9.906-28.083a50.714 50.714 0 00-11.55-12.037 176.191 176.191 0 00-15.847-10.508 268.61 268.61 0 00-34.269-17.514c-1.457-.602-2.919-1.204-4.388-1.806a1.259 1.259 0 00-1.589 1.204c-.198 5.85-.397 11.7-.932 17.526-.524 5.693-1.433 11.345-2.047 17.026a93.867 93.867 0 00-.445 16.13 95.868 95.868 0 002.227 15.131 107.672 107.672 0 004.459 14.612 86.136 86.136 0 006.657 14.126 48.333 48.333 0 0010.231 11.868 105.74 105.74 0 0013.512 9.383 153.447 153.447 0 0034.697 15.444c1.535.469 2.221-1.932.68-2.408" fill="#AB8935"/><path opacity=".5" d="M493.025 296.382A108.63 108.63 0 01339.04 363.41a108.624 108.624 0 01-58.79-105.414 108.623 108.623 0 0174.891-94.657 108.63 108.63 0 0163.056-1.128c57.711 16.389 91.216 76.435 74.828 134.171z" fill="#D3AA34"/><path d="M348.665 346.805c-3.383 10.304-11.628 18.164-19.452 25.663-11.116 10.647-22.178 21.667-30.093 34.865-.92 1.535-1.805 3.184-1.805 4.972 0 2.172 1.33 4.092 2.612 5.844a696.734 696.734 0 0026.204 33.733c2.185 2.63 4.484 5.495 4.743 8.902.488 6.494-6.494 11.435-7.084 17.905a4 4 0 00.602 2.835c.927 1.203 2.775 1.294 4.135.644 1.36-.65 2.341-1.878 3.28-3.058-.241 1.384 1.095 2.654 2.492 2.811 1.396.156 2.75-.5 3.93-1.27 5.362-3.497 8.69-9.552 9.99-15.823 1.3-6.271.747-12.783-.325-19.103-.674-4.002-1.667-8.185-4.453-11.134-1.613-1.709-3.714-2.871-5.694-4.135a55.871 55.871 0 01-8.492-6.62c-3.479-3.292-6.735-7.74-5.862-12.452.602-3.316 3.136-5.898 5.513-8.294a391.337 391.337 0 0016.852-17.905c1.805-2.046 3.611-4.147 4.761-6.62 1.233-2.721 1.576-5.742 1.907-8.715l1.463-13.078c.229-2.065.451-4.213-.133-6.193-.583-1.98-2.196-3.84-4.267-4.045" fill="#40B87E"/><path d="M347.792 346.565c-3.611 10.893-12.512 18.831-20.553 26.559-8.775 8.426-17.412 17.123-24.489 27.084a80.738 80.738 0 00-4.894 7.577 10.203 10.203 0 00-1.39 4.032 7.565 7.565 0 00.927 4.039 27.729 27.729 0 002.468 3.707c.975 1.328 1.952 2.654 2.931 3.978a1685.93 1685.93 0 006.018 8.005 664.984 664.984 0 0012.278 15.594c1.986 2.45 4.08 4.815 5.976 7.337 1.613 2.136 3.046 4.562 2.937 7.33-.096 2.287-1.203 4.4-2.329 6.332-1.204 2.064-2.6 4.038-3.575 6.235-.921 2.07-1.805 4.845-.812 7.041 1.125 2.408 4.327 2.51 6.331 1.204a12.65 12.65 0 002.847-2.847l-1.541-.638a3.3 3.3 0 001.475 3.01c.538.36 1.15.597 1.791.692a4.373 4.373 0 001.916-.139c2.408-.632 4.622-2.545 6.302-4.309a27.277 27.277 0 006.698-13.283c1.27-6.139.825-12.446-.156-18.591-.831-5.218-2.107-10.58-6.488-13.987-2.263-1.757-4.815-3.1-7.138-4.815a48.204 48.204 0 01-6.548-5.633c-1.806-1.908-3.515-4.135-4.249-6.711a8.644 8.644 0 011.293-7.312c1.529-2.317 3.678-4.213 5.616-6.181a427.11 427.11 0 006.584-6.867 466.314 466.314 0 006.434-7.006c1.986-2.215 4.086-4.412 5.705-6.927a20.027 20.027 0 002.775-8.035c.463-3.13.74-6.289 1.089-9.437.349-3.148.849-6.265.981-9.395.109-2.594-.409-5.368-2.407-7.168a5.53 5.53 0 00-3.094-1.396c-1.149-.145-1.137 1.667 0 1.805 2.468.313 3.611 3.106 3.714 5.266.174 2.865-.416 5.826-.728 8.667-.338 3.039-.669 6.079-1.012 9.118-.313 2.739-.698 5.567-1.938 8.065-1.239 2.498-3.141 4.568-4.977 6.62a383.629 383.629 0 01-6.097 6.717 461.507 461.507 0 01-6.139 6.482c-1.974 2.034-4.038 3.996-5.94 6.097-1.619 1.805-3.123 3.815-3.701 6.205a10.827 10.827 0 00.909 7.156c2.196 4.718 6.62 8.348 10.749 11.345 2.184 1.595 4.574 2.871 6.74 4.478a12.96 12.96 0 014.442 6.018 37.227 37.227 0 011.745 7.421c.477 2.899.758 5.826.843 8.763.12 5.314-.638 10.725-3.009 15.528a23.025 23.025 0 01-4.075 5.844 19.03 19.03 0 01-2.702 2.311c-1.065.74-2.341 1.571-3.689 1.486a1.795 1.795 0 01-1.353-.552 1.809 1.809 0 01-.501-1.374.914.914 0 00-1.079-.877.907.907 0 00-.462.239c-.83 1.042-1.691 2.173-2.889 2.805-.902.481-2.263.602-3.045-.162-.782-.765-.602-2.342-.397-3.389a13.366 13.366 0 011.107-3.111c1.974-4.039 5.314-7.602 5.796-12.236.602-5.664-4.213-10.159-7.469-14.168a646.999 646.999 0 01-12.037-15.172 800.63 800.63 0 01-11.586-15.444 14.298 14.298 0 01-2.106-3.611 5.5 5.5 0 01.229-4.044 26.457 26.457 0 012.124-3.762 101.14 101.14 0 012.486-3.786c6.734-9.768 15.046-18.296 23.58-26.523 7.824-7.548 16.497-15.017 21.065-25.098a36.346 36.346 0 001.475-3.743c.367-1.107-1.373-1.583-1.74-.482" fill="#335137"/><path d="M332.704 479.736a51.93 51.93 0 005.272-10.153.911.911 0 00-.602-1.114.922.922 0 00-1.107.602 50.242 50.242 0 01-5.092 9.726c-.65.969.909 1.872 1.559.909" fill="#335137"/><path d="M486.369 593.149c-1.463 3.009-4.532 4.911-7.734 5.778s-6.566.806-9.883.746l-20.427-.397c-5.874-.114-12.35-.469-16.556-4.574-1.776-1.727-2.95-3.966-4.051-6.181-11.507-23.207-18.092-48.497-27.384-72.686-.193-.505-.385-1.011-.602-1.516-1.005-2.576-2.101-5.218-4.093-7.126-1.384-1.324-4.14-1.926-4.851-.151a3.477 3.477 0 00.061 2.083c.565 2.407 1.133 4.814 1.703 7.222 5.774 24.503 11.543 48.993 17.309 73.468 1.162 4.941 1.806 11.224-2.371 14.059-1.427.963-3.172 1.294-4.875 1.565-13.843 2.185-27.908 1.469-41.883.746-1.577-.078-3.28-.21-4.478-1.246-1.95-1.679-1.535-4.881-.235-7.101 4.171-7.138 14.71-9.227 17.599-16.973 1.005-2.684.884-5.645.71-8.504a365.244 365.244 0 00-10.184-66.661h-.066c-.83-1.378-1.589-3.202-1.462-4.7a2.618 2.618 0 011.119-2.059 4.691 4.691 0 011.926-.638 60.62 60.62 0 0110.129-.547h3.01a134.06 134.06 0 0029.298-3.377c1.139-.257 2.271-.529 3.394-.818 1.703-.434 3.581-.885 5.146-.097a4.058 4.058 0 011.396 1.204 11.565 11.565 0 011.607 3.365 277.349 277.349 0 006.422 16.851 233.594 233.594 0 0034.907 58.518c3.136 3.822 6.512 7.156 11.357 8.143 3.238.663 9.479.783 12.194 2.673 2.714 1.89 3.316 5.964 1.86 8.943" fill="#4F735F"/><path d="M485.586 592.692c-3.208 6.337-11.357 6.187-17.454 6.067-7.372-.145-14.769-.157-22.136-.452a30.427 30.427 0 01-8.763-1.354 12.98 12.98 0 01-6.909-5.507c-1.805-2.889-3.19-6.103-4.61-9.202a239.707 239.707 0 01-4.213-9.823c-5.362-13.276-9.72-26.926-14.39-40.456-2.293-6.62-4.544-13.379-7.301-19.861-1.107-2.588-2.666-5.682-5.465-6.741a3.959 3.959 0 00-3.31.072c-1.324.777-1.396 2.323-1.113 3.666 1.595 7.457 3.497 14.859 5.242 22.268 1.745 7.409 3.509 14.926 5.266 22.389 1.758 7.463 3.509 14.932 5.266 22.395.887 3.756 1.77 7.511 2.648 11.267.669 2.828 1.415 5.657 1.469 8.582.042 2.371-.379 4.953-2.215 6.62-1.167 1.06-2.714 1.475-4.213 1.758a64.206 64.206 0 01-5.579.788 163.785 163.785 0 01-22.401.735 461.517 461.517 0 01-11.164-.452 48.213 48.213 0 01-5.194-.325c-1.409-.223-2.69-.854-3.094-2.311-.692-2.474.885-5.007 2.48-6.759a30.63 30.63 0 015.615-4.562c3.912-2.66 8.306-5.326 10.232-9.876 1.33-3.172 1.113-6.621.908-10.003a367.876 367.876 0 00-7.715-55.629 338.178 338.178 0 00-2.456-10.539.92.92 0 00-.632-.632h-.066l.536.416c-.723-1.234-1.493-2.763-1.336-4.243.18-1.704 2.082-1.806 3.436-1.98a76.94 76.94 0 0110.069-.356 139.85 139.85 0 0020.385-1.378 146.888 146.888 0 0010.075-1.805c1.667-.374 3.322-.807 4.989-1.204 1.366-.319 3.009-.602 4.213.307 1.204.909 1.637 2.407 2.089 3.707.601 1.655 1.161 3.31 1.763 4.96a265.713 265.713 0 003.665 9.485 248.958 248.958 0 0016.678 33.631 225.65 225.65 0 0010.171 15.564c1.838 2.568 3.725 5.1 5.663 7.596 1.86 2.407 3.72 4.814 5.796 7.023a20.805 20.805 0 006.296 4.815c2.208 1.017 4.525 1.33 6.915 1.625 2.389.295 4.815.518 7.029 1.372a5.484 5.484 0 013.491 4.978 7 7 0 01-.638 3.412c-.487 1.047 1.066 1.962 1.559.915a8.807 8.807 0 00.132-7.421c-1.041-2.269-3.081-3.437-5.416-4.05a61.101 61.101 0 00-7.535-1.204 15.645 15.645 0 01-7.162-2.666c-2.372-1.674-4.274-3.924-6.091-6.163a217.916 217.916 0 01-6.211-7.999 223.137 223.137 0 01-11.014-16.316 244.749 244.749 0 01-17.755-35.209 271.33 271.33 0 01-3.882-10.02l-1.805-5.062a10.505 10.505 0 00-2.131-3.96c-2.407-2.474-6.018-1.132-8.883-.44a142.888 142.888 0 01-10.749 2.131 136.03 136.03 0 01-21.504 1.577 77.485 77.485 0 00-10.641.409c-1.493.205-3.094.403-4.075 1.679-.981 1.276-.86 2.805-.481 4.213.2.698.466 1.375.794 2.023.259.529.518 1.251 1.144 1.426l-.602-.632a362.988 362.988 0 018.185 44.724c.891 7.463 1.577 14.962 1.98 22.467.169 3.184.109 6.44-1.613 9.238a18.301 18.301 0 01-5.031 5.014c-3.96 2.87-8.571 5.254-11.291 9.479-1.39 2.154-2.209 5.242-.819 7.595 1.71 2.883 5.622 2.576 8.505 2.721 7.583.385 15.172.722 22.762.541 3.755-.09 7.517-.307 11.254-.704 1.878-.205 3.75-.445 5.616-.74a13.773 13.773 0 004.652-1.384c4.983-2.823 4.466-9.474 3.467-14.258-.753-3.611-1.674-7.174-2.516-10.755a3704 3704 0 01-2.684-11.436l-10.635-45.223c-.879-3.739-1.76-7.481-2.642-11.224-.217-.915-.434-1.806-.644-2.751-.151-.602-.572-1.703 0-2.233.716-.662 2.148 0 2.804.44 1.204.836 2.041 2.281 2.709 3.551.745 1.5 1.4 3.043 1.962 4.622a444.188 444.188 0 013.743 10.123c4.869 13.662 9.203 27.517 14.366 41.082 2.552 6.705 5.303 13.337 8.426 19.807 1.445 3.01 2.859 6.26 5.297 8.631a16.11 16.11 0 007.715 3.942c2.892.589 5.836.886 8.787.885 3.834.09 7.668.15 11.502.222 3.834.073 7.74.193 11.61.217 3.394 0 6.891-.156 10.063-1.474a12.119 12.119 0 006.337-5.525c.53-1.036-1.029-1.95-1.559-.915" fill="#335137"/><path d="M426.051 514.872c-8.576.259-17.159.476-25.717.963-.193-.505-.385-1.011-.602-1.516-1.005-2.576-2.101-5.218-4.093-7.126-1.384-1.324-4.14-1.926-4.851-.151a3.477 3.477 0 00.061 2.083c.565 2.407 1.133 4.814 1.703 7.222-8.078.6-16.116 1.657-24.074 3.166-.388.077-.78.129-1.174.156a358.554 358.554 0 00-3.19-13.975h-.066c-.83-1.378-1.589-3.202-1.462-4.7 4.068-1.878 8.588-2.564 13.024-3.22h.15c10.713-1.583 21.486-3.16 32.308-3.371 1.717-.036 3.436-.036 5.157 0 1.595.042 3.19.115 4.779.271a11.565 11.565 0 011.607 3.365 277.349 277.349 0 006.422 16.851" fill="#335137"/><path d="M397.036 357.771a148.317 148.317 0 0127.414 22.052c1.944 1.986 4.014 4.134 6.735 4.718a2.22 2.22 0 001.372-.048c1.149-.524.945-2.203.53-3.394a108.7 108.7 0 00-12.669-25.314c-1.65-2.408-3.557-4.929-6.32-5.941-1.709-.601-3.611-.601-5.278-1.306-1.667-.704-3.154-2.557-2.456-4.213.554-1.324 1.553-2.1 2.48-2.1 1.077 0-2.107-1.144-1.077-3.816.463-1.203 1.944-1.745 4.327-2.016 1.059-.12-.602-1.721-.187-2.714.849-2.125 3.672-2.311 5.086-2.311 1.414 0 2.829.343 4.213.156a2.119 2.119 0 001.402-.602c.921-1.101-.355-2.648-1.516-3.491l-3.244-2.341a3.808 3.808 0 01-1.517-1.637c-.475-1.336.752-2.804 2.143-3.069 1.39-.265 2.798.313 4.044.981 10.466 5.615 15.823 17.351 20.463 28.287l9.912 23.328c3.557 8.365 7.181 17.104 6.621 26.18-.151 2.54-.674 5.152-2.167 7.222-2.257 3.094-6.211 4.328-9.9 5.339-2.666.734-5.417 1.456-8.161 1.137-2.745-.319-5.164-1.595-7.56-2.865a1378.142 1378.142 0 01-26.481-14.366 8.688 8.688 0 01-2.708-2.004c-.867-1.089-1.162-2.516-1.433-3.882a952.67 952.67 0 01-5.573-31.507" fill="#40B87E"/><path d="M396.578 358.553a149.62 149.62 0 0127.487 22.161c1.805 1.805 3.701 3.719 6.193 4.513 1.143.368 2.509.524 3.4-.445.746-.812.734-1.998.542-3.009a22.495 22.495 0 00-1.264-3.738 112.33 112.33 0 00-5.447-12.163 110.802 110.802 0 00-4.423-7.686c-1.427-2.257-2.871-4.622-4.749-6.542a11.125 11.125 0 00-3.009-2.263 15.532 15.532 0 00-3.991-1.101c-1.245-.241-2.527-.518-3.436-1.469a2.089 2.089 0 01-.726-1.445 2.082 2.082 0 01.527-1.528 1.801 1.801 0 011.084-.734c.349-.066.656 0 .939-.307.571-.602.15-1.234-.301-1.691a2.693 2.693 0 01-.921-1.451 1.646 1.646 0 011.041-1.805 6.07 6.07 0 011.481-.434 5.807 5.807 0 001.805-.361c.897-.523.536-1.516.229-2.275a1.694 1.694 0 01-.235-.872c.173-.433.496-.79.909-1.006a5.543 5.543 0 012.51-.662c1.206-.01 2.411.049 3.611.175 1.27.06 2.877 0 3.647-1.204 1.571-2.407-1.703-4.496-3.286-5.645-.602-.446-1.24-.885-1.854-1.336-.433-.319-1.047-.722-1.155-1.294-.235-1.204 1.294-1.848 2.238-1.806 1.385.078 2.691.891 3.852 1.589a27.26 27.26 0 012.925 2.028c7.782 6.236 12.037 15.787 15.823 24.73a9060.59 9060.59 0 017.565 17.815c2.408 5.712 5.044 11.387 6.928 17.31a46.922 46.922 0 011.992 8.799 25.914 25.914 0 01-.229 8.594 9.391 9.391 0 01-4.261 6.133c-2.101 1.306-4.52 1.986-6.885 2.636-2.98.819-6.055 1.577-9.13.8-2.931-.74-5.592-2.407-8.24-3.791a1426.542 1426.542 0 01-17.026-9.196c-2.708-1.487-5.537-2.865-8.137-4.532a5.056 5.056 0 01-2.251-3.22c-.379-1.439-.602-2.925-.885-4.388a1153.244 1153.244 0 01-3.454-19.127 717.182 717.182 0 01-1.553-9.443c-.181-1.143-1.92-.656-1.74.482a916.612 916.612 0 003.359 19.752c.59 3.234 1.191 6.466 1.805 9.696.21 1.509.546 2.996 1.005 4.448a6.549 6.549 0 002.486 3.16 43.226 43.226 0 003.912 2.239l4.273 2.353a1526.529 1526.529 0 0017.418 9.407c2.66 1.414 5.344 3.009 8.275 3.834 3.088.842 6.199.361 9.245-.434a35.735 35.735 0 007.451-2.57 11.12 11.12 0 005.254-5.326c1.149-2.606 1.372-5.531 1.318-8.348-.133-6.169-1.98-12.145-4.213-17.845-2.347-6.018-4.977-11.898-7.499-17.826-2.408-5.616-4.701-11.279-7.222-16.852a74.995 74.995 0 00-7.457-13.422c-2.913-4.002-6.482-7.565-10.834-9.972-2.269-1.252-5.416-2.245-7.294.228a2.958 2.958 0 00-.283 3.232c.668 1.204 2.119 1.968 3.202 2.745 1.083.776 2.455 1.48 3.009 2.672.656 1.45-2.233 1.065-2.943.999-2.034-.18-4.297-.301-6.139.758a3.726 3.726 0 00-1.86 2.354c-.062.468.003.943.187 1.378.084.223.193.439.277.662.132.331 0 .397.325 0s.211-.217-.054-.223c-.166.007-.332.03-.494.066-.305.041-.612.095-.921.163-.557.115-1.1.293-1.619.53a3.409 3.409 0 00-1.847 2.052 3.922 3.922 0 001.456 4.213c.482.343 1.102-1.174.56-1.252a2.03 2.03 0 00-.734.102 3.513 3.513 0 00-1.511.921 4.12 4.12 0 00-1.282 3.274c.343 2.757 3.112 3.966 5.507 4.424 1.413.167 2.787.574 4.063 1.204a11.085 11.085 0 012.858 2.485 52.902 52.902 0 014.815 7.144 108.046 108.046 0 014.339 7.89 105.984 105.984 0 013.732 8.384c.548 1.397 1.089 2.799 1.565 4.213.204.602.74 2.311-.337 2.408-1.204.084-2.6-.837-3.521-1.505a23.96 23.96 0 01-2.937-2.696 163.867 163.867 0 00-6.584-6.362 150.96 150.96 0 00-14.018-11.279 159.382 159.382 0 00-7.336-4.887c-.987-.601-1.896.945-.909 1.559" fill="#335137"/><path d="M351.403 356.423a389.81 389.81 0 00-.951 146.852c.301 1.625.644 3.316 1.625 4.646 2.023 2.726 5.923 3.039 9.317 3.009a207.431 207.431 0 0085.722-19.079c2.221-1.023 4.634-2.323 5.416-4.646.993-3.009-1.3-6.073-3.358-8.516-26.83-31.838-38.693-73.366-48.636-113.792-.601-2.51-1.354-5.224-3.406-6.795-1.39-1.071-3.184-1.439-4.911-1.746a151.082 151.082 0 00-36.797-1.986c-1.722.115-3.93.735-4.009 2.456" fill="#4F735F"/><path d="M350.531 356.182a390.646 390.646 0 00-1.698 143.174c.331 1.902.602 3.828 1.066 5.7a8.42 8.42 0 002.263 4.309c2.208 2.065 5.416 2.408 8.335 2.48 7.556.059 15.109-.361 22.612-1.258a209.416 209.416 0 0044.729-10.009 210.385 210.385 0 0010.792-4.05c3.382-1.372 6.807-2.757 10.063-4.418 2.672-1.36 5.212-3.563 4.941-6.855-.283-3.509-3.076-6.235-5.182-8.811-8.799-10.737-16.003-22.708-21.986-35.214-6.078-12.718-10.893-25.994-15.046-39.452-2.052-6.686-3.942-13.421-5.736-20.18a988.954 988.954 0 01-2.642-10.231c-.433-1.71-.854-3.419-1.276-5.128a40.083 40.083 0 00-1.324-4.737 9.201 9.201 0 00-2.51-3.846 10.282 10.282 0 00-4.718-1.98c-3.924-.77-7.92-1.294-11.899-1.703a151.214 151.214 0 00-24.074-.602c-2.473.139-6.434.229-6.74 3.473-.109 1.155 1.697 1.149 1.805 0 .108-1.15 1.932-1.432 2.811-1.529 1.914-.216 3.864-.241 5.784-.301 3.912-.126 7.824-.096 11.748.085 3.924.18 7.824.511 11.712.993 1.986.246 3.972.541 5.952.866 1.739.289 3.611.488 5.236 1.258 2.931 1.409 3.611 4.815 4.297 7.704.803 3.338 1.639 6.67 2.51 9.997a605.713 605.713 0 005.357 19.722 327.998 327.998 0 0013.565 38.519 191.18 191.18 0 0019.548 35.286 152.514 152.514 0 006.097 8.005c1.096 1.342 2.281 2.63 3.262 4.063.903 1.318 1.764 2.858 1.661 4.507-.21 3.202-4.032 4.587-6.494 5.7a203.26 203.26 0 01-10.147 4.273 208.198 208.198 0 01-43.056 11.61 204.929 204.929 0 01-22.112 2.245c-3.503.168-7.06.367-10.563.186-2.829-.138-5.988-.818-7.27-3.659-.728-1.619-.921-3.509-1.234-5.242a349.835 349.835 0 01-.999-5.79c-.63-3.84-1.204-7.688-1.721-11.543a403.394 403.394 0 01-2.408-23.087 389.177 389.177 0 014.358-92.902 374.384 374.384 0 012.046-11.117c.223-1.137-1.517-1.625-1.745-.481" fill="#335137"/><path d="M350.633 352.282a26.848 26.848 0 00-.114 7.674 14.758 14.758 0 001.54 5.23c1.397 2.533 3.828 4.363 6.404 5.675 7.493 3.822 16.382 3.822 24.676 2.456 5.76-.951 12.001-2.943 14.914-8.005 1.679-2.913 1.968-6.398 2.215-9.756a3.859 3.859 0 00-.163-1.806c-.523-1.203-2.034-1.51-3.328-1.673l-37.122-4.658c-2.016-.253-4.129-.5-6.049.193-1.92.692-3.551 2.624-3.178 4.628" fill="#4F735F"/><path d="M349.76 352.041c-.389 2.43-.46 4.9-.211 7.349a16.11 16.11 0 001.848 6.452c2.089 3.611 6.019 5.783 9.792 7.18a36.715 36.715 0 0013.241 2.022 55.071 55.071 0 0012.639-1.613c3.611-.915 7.222-2.407 9.87-5.122 3.094-3.178 3.846-7.463 4.213-11.718.084-1.089.283-2.287-.21-3.31a3.45 3.45 0 00-1.914-1.637 10.897 10.897 0 00-2.636-.536l-3.858-.481-15.444-1.944-15.443-1.938c-3.912-.488-9.54-1.487-11.646 2.955a4.613 4.613 0 00-.385 2.762c.174 1.15 1.914.662 1.745-.475-.277-1.806 1.493-3.25 3.051-3.677 2.005-.554 4.171-.145 6.193.108l13.957 1.757 13.843 1.734 6.981.872c1.379.175 4.003.103 4.099 1.981 0 .96-.067 1.919-.199 2.87a29.052 29.052 0 01-.469 3.232 12.775 12.775 0 01-2.269 5.224c-2.064 2.667-5.248 4.213-8.426 5.182a48.345 48.345 0 01-10.96 1.878 40.132 40.132 0 01-12.169-.83c-4.032-.975-8.384-2.745-11.104-6.019a12.034 12.034 0 01-2.408-6.018 25.878 25.878 0 01.049-7.71c.174-1.138-1.565-1.631-1.746-.482m58.591-8.666a11.87 11.87 0 014.495-.969 8.842 8.842 0 014.171.776.92.92 0 001.204-.325.907.907 0 00-.325-1.204 10.72 10.72 0 00-5.05-1.053 14.304 14.304 0 00-5.416 1.204.922.922 0 00-.325 1.24.94.94 0 001.24.325m3.725-6.145c.993-.078 1.986-.157 2.979-.157 1.09 0 2.173.091 3.256.157a.902.902 0 00.903-.903.928.928 0 00-.903-.903c-1.083-.066-2.166-.15-3.256-.156-.993 0-1.986.078-2.979.156a.928.928 0 00-.903.903c0 .24.095.469.265.638a.9.9 0 00.638.265z" fill="#335137"/><path d="M397.222 274.445a49.572 49.572 0 0114.39-13.175 35.109 35.109 0 0118.76-5.266 33.137 33.137 0 0118.609 5.699 33.7 33.7 0 017.18 6.687 25.558 25.558 0 014.647 8.582 23.065 23.065 0 00-2.059-4.423 32.101 32.101 0 00-2.84-3.954 33.48 33.48 0 00-7.223-6.47 31.771 31.771 0 00-8.732-4.099 19.665 19.665 0 00-2.354-.602l-1.203-.258c-.398-.097-.801-.115-1.204-.175-.8-.096-1.601-.205-2.407-.289l-2.408-.072a32.04 32.04 0 00-9.581 1.204 41.11 41.11 0 00-4.574 1.631 48.904 48.904 0 00-4.34 2.184 49.048 49.048 0 00-7.896 5.682 51.61 51.61 0 00-6.765 7.114zm-27.396-5.869a51.409 51.409 0 00-3.178-9.232 49.858 49.858 0 00-4.815-8.468 53.704 53.704 0 00-3.009-3.804 40.023 40.023 0 00-3.461-3.394 31.889 31.889 0 00-8.185-5.128l-2.233-.951c-.764-.265-1.54-.499-2.305-.746-.391-.115-.764-.265-1.161-.349l-1.204-.253a20.118 20.118 0 00-2.407-.451 31.669 31.669 0 00-9.66.06 33.185 33.185 0 00-9.227 2.853 31.338 31.338 0 00-4.213 2.407c-1.324.945 1.24 9.9.139 11.11 2.136-2.485 1.047-12.308 3.954-13.794a32.793 32.793 0 0128.606-.482 35.188 35.188 0 0114.824 12.639 49.665 49.665 0 017.547 17.995" fill="#000"/><path d="M484.009 293.848a98.744 98.744 0 01-139.98 60.924 98.751 98.751 0 01-53.436-95.83 98.746 98.746 0 11193.416 34.906z" fill="#AB8935"/><path d="M481.337 293.06a96.48 96.48 0 01-136.761 59.524 96.478 96.478 0 11136.761-59.524z" fill="#E7D173"/><path d="M475.03 294.871c-13.283 46.794-63.55 73.511-112.264 59.674-48.714-13.837-77.434-62.972-64.151-109.76 13.283-46.788 63.549-73.51 112.263-59.679 48.714 13.83 77.435 62.977 64.152 109.765z" fill="#F8E77D"/><path d="M335.731 217.184s23.268-22.87 42.352-4.002c0 0-12.94-27.083-42.352 4.002zm77.386 3.004s23.4-16.208 44.501 16.063c0 0-17.706-39.855-44.501-16.063z" fill="#AB8935"/><path d="M368.58 312.74c-1.733-.144 4.466 11.755 11.164 13.289a8.001 8.001 0 004.298 0 8.247 8.247 0 003.141-2.184 26.981 26.981 0 007.174-12.94.857.857 0 000-.548c-.216-.475-.981-.373-1.492-.187 0 0-17.833 3.118-24.291 2.576" fill="#D2947C"/><path d="M408.82 348.539c1.679.692 3.575.686 5.278 1.306 2.763 1.011 4.67 3.502 6.32 5.94a108.915 108.915 0 017.667 13.295h23.202l-8.282-19.494c-4.646-10.924-10.003-22.66-20.463-28.287-1.252-.668-2.66-1.252-4.05-.981-1.391.271-2.618 1.733-2.143 3.069a3.85 3.85 0 001.517 1.637l3.244 2.342c1.161.842 2.407 2.407 1.516 3.49a2.119 2.119 0 01-1.402.602c-1.402.187-2.817-.162-4.213-.156-1.396.006-4.213.186-5.086 2.311-.397.993 1.246 2.594.187 2.714-2.407.271-3.864.807-4.327 2.016-1.03 2.673 2.154 3.816 1.077 3.816-.927 0-1.926.776-2.474 2.101-.704 1.679.771 3.544 2.45 4.212" fill="#40B87E"/><path d="M410.824 350.019c1.413.167 2.787.574 4.063 1.204a11.085 11.085 0 012.858 2.485 53.405 53.405 0 014.815 7.144 108.248 108.248 0 014.34 7.891l.168.349h2.052a103.032 103.032 0 00-1.601-3.208 109.479 109.479 0 00-4.423-7.686c-1.427-2.263-2.871-4.622-4.749-6.548a11.234 11.234 0 00-3.009-2.257 15.535 15.535 0 00-3.99-1.101c-1.246-.241-2.528-.518-3.437-1.463a2.08 2.08 0 01-.741-1.462 2.086 2.086 0 01.542-1.547 1.804 1.804 0 011.084-.734c.349-.066.656 0 .939-.307.571-.602.15-1.234-.301-1.691a2.703 2.703 0 01-.921-1.451 1.646 1.646 0 011.041-1.805 6.07 6.07 0 011.481-.434 5.836 5.836 0 001.805-.361c.897-.523.536-1.517.229-2.275a1.695 1.695 0 01-.235-.873c.078-.415.572-.8.909-1.005a5.547 5.547 0 012.51-.662c1.206-.01 2.411.048 3.611.175 1.27.06 2.877 0 3.647-1.204 1.571-2.407-1.703-4.502-3.286-5.645-.602-.446-1.24-.885-1.854-1.336-.433-.319-1.047-.723-1.155-1.294-.235-1.204 1.294-1.848 2.239-1.806 1.384.078 2.69.891 3.851 1.589a27.16 27.16 0 012.925 2.028c7.782 6.235 12.038 15.787 15.823 24.73a8493.33 8493.33 0 017.565 17.815c.253.602.5 1.162.753 1.746h1.974c-1.168-2.721-2.341-5.417-3.497-8.15-2.407-5.615-4.7-11.272-7.222-16.851a74.995 74.995 0 00-7.457-13.422c-2.913-4.002-6.482-7.565-10.833-9.972-2.269-1.252-5.417-2.245-7.295.228a2.958 2.958 0 00-.283 3.232c.668 1.204 2.119 1.968 3.202 2.745 1.083.776 2.456 1.48 3.009 2.672.656 1.45-2.233 1.065-2.943.999-2.034-.181-4.297-.301-6.139.758a3.726 3.726 0 00-1.859 2.354c-.062.467.002.943.186 1.378.066.168.139.331.211.493l-.157.03a11.32 11.32 0 00-.92.163 7.256 7.256 0 00-1.619.536 3.378 3.378 0 00-1.848 2.046 3.874 3.874 0 00.602 3.358 4.254 4.254 0 00-2.119 3.906c.343 2.757 3.112 3.966 5.507 4.424" fill="#335137"/><path d="M408.375 343.423a11.87 11.87 0 014.495-.969 8.842 8.842 0 014.171.776.92.92 0 001.204-.325.907.907 0 00-.325-1.204 10.72 10.72 0 00-5.05-1.053 14.304 14.304 0 00-5.416 1.204.922.922 0 00-.325 1.24.94.94 0 001.24.325m3.725-6.145c.993-.078 1.986-.157 2.979-.157 1.09 0 2.173.091 3.256.157a.902.902 0 00.903-.903.928.928 0 00-.903-.903c-1.083-.066-2.166-.15-3.256-.156-.993 0-1.986.078-2.979.156a.928.928 0 00-.903.903c0 .24.095.469.265.638a.9.9 0 00.638.265z" fill="#335137"/><path d="M186.111 97.326c-1.836-2.624-.825-5.586 2.696-7.463 7.975-4.261 11.351-10.834 10.021-19.783-.602-4.075-1.806-5.983-3.918-5.664-1.595.235-2.245 4.406-4.352 9.154-1.751 4.063-5.037 7.542-9.027 8.132-4.34.644-7.662-2.215-8.18-6.302-.872-7.12 5.224-13.638 17.544-15.461 14.619-2.167 23.87 2.166 25.236 11.38 1.655 11.171-7.529 23.124-20.577 26.783-4.171 1.162-8.059 1.204-9.443-.776zm12.38 4.688c5.14-.764 8.979 1.926 9.702 6.801.722 4.875-2.161 8.649-7.301 9.413-5.14.764-9.064-1.914-9.804-6.885-.722-4.875 2.173-8.565 7.403-9.335m-4.984 114.37c-2.13-2.407-1.468-5.453 1.806-7.728 7.427-5.146 10.027-12.037 7.68-20.794-1.066-3.984-2.468-5.741-4.544-5.182-1.559.416-1.722 4.634-3.269 9.594-1.275 4.213-4.14 8.071-8.034 9.112-4.243 1.137-7.872-1.318-8.847-5.321-1.686-6.969 3.611-14.143 15.648-17.369 14.276-3.834 23.959-.602 26.373 8.426 2.925 10.905-4.815 23.839-17.364 28.961-4.014 1.637-7.872 2.113-9.467.319l.018-.018zm12.814 3.25c5.019-1.348 9.142.885 10.418 5.645 1.276 4.761-1.132 8.848-6.151 10.172-5.02 1.324-9.226-.861-10.532-5.706-1.307-4.845 1.203-8.757 6.283-10.129m63.826-126.076c-2.853-1.463-3.34-4.55-1.101-7.86 5.061-7.487 4.977-14.872-.373-22.167-2.438-3.322-4.382-4.453-6.115-3.183-1.3.95.072 4.947.433 10.129.343 4.411-.939 9.028-4.213 11.405-3.539 2.594-7.824 1.619-10.177-1.758-4.093-5.886-1.745-14.492 8.293-21.859 11.917-8.745 22.118-9.226 27.631-1.715 6.675 9.1 4.135 23.966-5.693 33.282-3.148 2.98-6.572 4.815-8.709 3.726h.024zm13.109-1.637c4.213-3.07 8.841-2.486 11.754 1.486 2.913 3.973 2.13 8.661-2.059 11.736-4.189 3.076-8.913 2.54-11.88-1.504-2.967-4.045-2.077-8.589 2.185-11.718zm-160.623 15.564c-1.974-2.522-1.119-5.531 2.305-7.59 7.74-4.67 10.768-11.405 8.98-20.276-.818-4.038-2.1-5.88-4.213-5.459-1.577.32-2.01 4.52-3.864 9.377-1.54 4.147-4.64 7.788-8.594 8.588-4.303.867-7.77-1.805-8.498-5.874-1.24-7.06 4.514-13.884 16.719-16.346 14.487-2.925 23.948.921 25.789 10.057 2.233 11.062-6.319 23.472-19.156 27.806-4.111 1.378-7.993 1.613-9.468-.283zm12.603 4.038c5.092-1.029 9.064 1.463 10.039 6.29.975 4.826-1.703 8.756-6.795 9.78-5.182 1.047-9.16-1.439-10.153-6.362-.969-4.815 1.727-8.661 6.909-9.708zm49.665 48.287c-3.202-.103-4.965-2.685-4.357-6.621 1.366-8.937-1.872-15.57-9.829-19.861-3.611-1.962-5.868-2.148-6.891-.259-.764 1.421 2.185 4.436 4.731 8.968 2.202 3.84 3.009 8.552 1.095 12.097-2.082 3.864-6.362 4.815-9.949 2.775-6.217-3.563-7.782-12.35-1.865-23.31 7.029-13.006 16.039-17.809 24.236-13.379 9.931 5.362 13.999 19.861 9.106 32.5-1.571 4.038-3.87 7.168-6.277 7.096v-.006zm11.17-7.096c2.468-4.574 6.928-6.019 11.261-3.695 4.333 2.323 5.633 6.915 3.166 11.489-2.468 4.574-6.97 6.109-11.387 3.725-4.418-2.383-5.549-6.873-3.04-11.519zm38.699-10.653c-2.323-2.209-1.913-5.308 1.168-7.824 6.969-5.76 8.974-12.861 5.904-21.372-1.396-3.876-2.943-5.513-4.965-4.778-1.517.541-1.324 4.76-2.45 9.834-.908 4.327-3.448 8.39-7.222 9.756-4.129 1.493-7.95-.656-9.262-4.562-2.269-6.801 2.407-14.396 14.131-18.621 13.903-5.02 23.827-2.606 26.987 6.163 3.834 10.616-2.798 24.152-14.86 30.315-3.863 1.968-7.673 2.768-9.412 1.113l-.019-.024zm13.079 2.167c4.887-1.764 9.184.114 10.833 4.748 1.649 4.635-.403 8.908-5.29 10.671-4.887 1.764-9.269-.084-10.972-4.815-1.703-4.73.433-8.823 5.417-10.616" fill="#4F735F"/><path d="M458.804 283.743l-3.738-1.312c-.909.867-21.558 14.884-43.646 5.573a30.09 30.09 0 01-15.57-15.515l-2.847.036s15.113-25.489 40.402-18.73c21.812 5.838 25.429 29.948 25.429 29.948" fill="#AB8935"/><path d="M455.078 282.401c-.909.867-21.558 14.884-43.646 5.573a30.088 30.088 0 01-15.57-15.516.076.076 0 000-.03s16.178-19.765 35.756-15.353c19.578 4.412 23.472 25.278 23.472 25.278" fill="#fff"/><path d="M432.395 282.082c-6.169 6.47-18.616 5.844-24.183-.259-5.567-6.103-6.554-16.936-.385-23.406 6.169-6.47 25.278-7.078 30.845-.975 5.567 6.103-.109 18.176-6.277 24.64z" fill="#91C361"/><path d="M432.395 282.082c-6.169 6.47-18.616 5.844-24.183-.259-5.567-6.103-6.554-16.936-.385-23.406 6.169-6.47 25.278-7.078 30.845-.975 5.567 6.103-.109 18.206-6.277 24.64z" stroke="#211011" stroke-width="2" stroke-miterlimit="10"/><path d="M426.918 271.074c-1.637 3.942-7.614 7.987-11.688 6.295-4.075-1.691-7.036-6.584-3.894-13.156 1.841-3.852 8.173-7.65 12.295-6.079 6.019 2.287 4.93 9.028 3.287 12.94z" fill="#211011"/><path d="M433.935 274.691c-4.508-.102-9.485-1.571-9.172-7.824.193-3.942 4.64-6.018 9.148-5.898 4.508.12 8.565 2.817 8.318 8.318-.133 3.081-3.78 5.501-8.294 5.416" fill="#fff"/><path d="M458.804 283.743s-17.285 14.553-37.682 11.086c-20.397-3.466-28.149-22.304-28.149-22.304l2.847-.036a30.09 30.09 0 0015.57 15.515c22.088 9.311 42.731-4.706 43.646-5.573l3.768 1.312z" fill="#E7D173"/><path d="M314.028 253.741l3.858.493c.409 1.162 6.205 19.615 29.702 21.174a29.585 29.585 0 0020.517-6.771l2.479 1.282s-2.034-29.04-27.221-34.246c-21.733-4.49-29.359 18.056-29.359 18.056" fill="#AB8935"/><path d="M317.886 254.204v.036c.409 1.162 6.205 19.615 29.702 21.173a29.549 29.549 0 0020.511-6.77s-5.501-24.49-24.64-29.238c-19.139-4.749-25.609 14.817-25.609 14.817" fill="#fff"/><path d="M328.063 246.308c-3.009 8.426.867 19.897 9.233 22.269 9.028 2.557 19.024-2.745 22.16-11.135 3.136-8.39.162-17.791-7.222-20.391-7.385-2.6-18.694-6.337-24.201 9.257" fill="#91C361"/><path d="M328.063 246.308c-3.009 8.426.867 19.897 9.233 22.269 9.028 2.557 19.024-2.745 22.16-11.135 3.136-8.39.162-17.791-7.222-20.391-7.385-2.6-18.664-6.337-24.171 9.257z" stroke="#211011" stroke-width="2" stroke-miterlimit="10"/><path d="M334.028 246.344c-2.353 4.574-.71 11.778 3.135 13.764 3.846 1.986 9.269.506 12.278-6.09 2.137-4.677.404-10.78-3.436-12.76-3.84-1.98-9.63.518-11.977 5.086z" fill="#211011"/><path d="M351.644 259.097c3.19 1.577 7.493 0 8.986-2.829 1.962-3.725-.337-8.046-3.612-9.479-3.274-1.432-7.775-1.005-9.737 2.618-1.529 2.817-.133 7.481 4.345 9.69" fill="#fff"/><path d="M314.028 253.741s3.611 16.424 23.075 22.365c19.464 5.94 33.505-6.169 33.505-6.169l-2.479-1.282a29.58 29.58 0 01-20.517 6.77c-23.473-1.558-29.293-20.011-29.702-21.173l-3.882-.511z" fill="#E7D173"/><path d="M378.198 273.078a18.527 18.527 0 01-4.929 9.63c-.602.602-1.331 1.143-1.92 1.805a3.176 3.176 0 00-.801 2.612c.217 1.866 1.348 3.467 2.558 4.815.638.728 1.703-.337 1.065-1.059a10.952 10.952 0 01-1.546-2.173c-.386-.734-.837-1.847-.524-2.678.313-.831 1.246-1.3 1.806-1.842a19.516 19.516 0 001.679-1.841 19.968 19.968 0 004.056-8.896c.169-.951-1.282-1.354-1.45-.403" fill="#AB8935"/></svg>