<svg width="650" height="650" fill="none" xmlns="http://www.w3.org/2000/svg"><path d="M602.759 558.998s-47.688-63.359-77.72-73.02c-30.032-9.661-1.722 28.871-1.722 28.871s-53.249-58.36-72.796-53.024c-17.918 4.812 0 40.91 0 40.91s-20.183-20.034-44.636-20.034c-24.452 0 18.91 74.893 18.91 74.893l177.964 1.404z" fill="#66A480"/><path d="M514.217 470.082c-9.811-15.353-11.646-33.87-11.459-46.808a120.192 120.192 0 012.772-24.377l-.712-.262a121.458 121.458 0 00-2.827 24.658c-.206 12.957 1.647 31.68 11.589 47.22l.637-.431z" fill="#49745B"/><path d="M507.983 396.351a10.44 10.44 0 01-3.745 7.489 12.19 12.19 0 01-2.434-8.351 10.517 10.517 0 013.745-7.489 12.117 12.117 0 012.434 8.369m-6.628 7.265a12.08 12.08 0 011.647 8.519 10.991 10.991 0 01-6.684-5.112 12.038 12.038 0 01-1.648-8.594 11.012 11.012 0 016.685 5.13m-3.764 8.613a11.87 11.87 0 015.018 7.021 9.67 9.67 0 01-7.939-1.404 11.868 11.868 0 01-5.017-7.021 9.744 9.744 0 017.938 1.404zm1.161 11.927a8.735 8.735 0 013.745 6.159 6.856 6.856 0 01-6.591-.542 8.677 8.677 0 01-3.745-6.142 6.91 6.91 0 016.591.525zm8.463-14.136a8.4 8.4 0 017.077-.412 8.885 8.885 0 01-4.437 5.729 8.272 8.272 0 01-7.078.412 8.92 8.92 0 014.438-5.748m-.262 8.257a8.448 8.448 0 017.096-.412 8.984 8.984 0 01-1.607 3.354 8.988 8.988 0 01-2.83 2.413 8.388 8.388 0 01-7.096.393 8.914 8.914 0 014.437-5.748zm-6.722 19.023a4.504 4.504 0 012.846 2.172 3.753 3.753 0 01-3.257.749 4.504 4.504 0 01-2.846-2.172 3.631 3.631 0 013.257-.749zm9.942 43.681c-22.468-5.374-39.618-22-50.028-34.994a150.912 150.912 0 01-17.45-27.242l-.899.468a150.215 150.215 0 0017.544 27.43c10.522 13.106 27.841 29.957 50.552 35.368l.281-1.03z" fill="#49745B"/><path d="M443.013 413.688a14.979 14.979 0 012.49 11.084 13.6 13.6 0 01-9.361-5.86 14.816 14.816 0 01-2.472-11.103 13.655 13.655 0 019.362 5.86m-.618 13.986a13.759 13.759 0 015.064 2.513 13.752 13.752 0 013.623 4.34 13.642 13.642 0 01-10.897 1.647 13.82 13.82 0 01-8.706-6.852 13.7 13.7 0 0110.916-1.648zm3.333 12.357a13.412 13.412 0 0110.803 1.873 14.34 14.34 0 01-9.062 6.665 13.461 13.461 0 01-10.803-1.872 14.349 14.349 0 013.866-4.231 14.35 14.35 0 015.214-2.378m8.931 11.159A13.462 13.462 0 01465.5 453.1a14.366 14.366 0 01-3.856 4.238 14.365 14.365 0 01-5.206 2.39 13.372 13.372 0 01-10.804-1.872 14.312 14.312 0 019.062-6.61" fill="#49745B"/><path d="M452.019 432.579a14.53 14.53 0 013.202-10.017 12.713 12.713 0 014.194 9.1 14.57 14.57 0 01-3.202 10.017 12.794 12.794 0 01-4.194-9.1zm9.343 11.609a14.656 14.656 0 012.977-10.073 12.67 12.67 0 014.344 9.024 14.59 14.59 0 01-3.052 10.073 12.658 12.658 0 01-4.325-9.024m108.35 68.471h.974c-1.404-25.707 8.032-49.897 16.196-65.662a170.674 170.674 0 0118.273-28.366l-.711-.73a171.343 171.343 0 00-18.349 28.478c-8.238 15.896-17.749 40.311-16.345 66.28" fill="#49745B"/><path d="M609.312 417.17a13.472 13.472 0 01-8.65 6.703 18.913 18.913 0 012.471-12.02 13.522 13.522 0 018.632-6.684 18.724 18.724 0 01-2.453 12.001zm-11.87 4.4c.215 4.173-1 8.295-3.445 11.683a16.395 16.395 0 01-4.25-10.896 18.46 18.46 0 013.464-11.684 16.389 16.389 0 014.231 10.897zm-9.531 8.033a18.307 18.307 0 011.217 12.114 12.656 12.656 0 01-7.92-7.152 18.562 18.562 0 01-1.217-12.114 12.623 12.623 0 017.92 7.152zm-6.44 19.753a7.677 7.677 0 01.861 5.017 5.169 5.169 0 01-3.539-2.715 7.674 7.674 0 01-.842-5.017 5.145 5.145 0 013.52 2.715zm-2.808 7.133a7.72 7.72 0 01.861 5.036 5.155 5.155 0 01-2.077-.956 5.15 5.15 0 01-1.462-1.759 7.715 7.715 0 01-.842-5.036c.75.164 1.455.493 2.064.963a5.192 5.192 0 011.456 1.752zm21.344-23.049a10.211 10.211 0 018.107 4.325 10.875 10.875 0 01-8.463 4.101 10.236 10.236 0 01-8.107-4.344 10.855 10.855 0 018.463-4.082zm-5.374 9.943a10.173 10.173 0 018.108 4.344 10.893 10.893 0 01-8.482 4.081 10.21 10.21 0 01-8.107-4.325 10.914 10.914 0 018.481-4.1zm-8.912 13.743a6.688 6.688 0 015.28 2.808 7.03 7.03 0 01-5.505 2.659 6.592 6.592 0 01-5.279-2.809 6.97 6.97 0 012.446-1.963 6.963 6.963 0 013.058-.695z" fill="#49745B"/><path d="M485.852 554.804c0-4.269 25.838.786 28.084-5.055 2.247-5.842-22.13-6.16-22.13-14.043 0-7.882 12.376-2.359 19.64-2.359 7.265 0-14.342-3.389-14.342-6.178 0-2.79 7.489-1.311 7.489-4.288 0-2.977-39.768-5.186-35.105-12.451 4.662-7.265 26.025 2.116 31.829-1.648 5.804-3.763-31.361-7.845-32.223-13.424-.861-5.58 27.449 4.793 31.455.767 4.007-4.025-44.823-18.442-42.782-29.039 2.041-10.597 37.016 13.574 45.759 10.972 8.744-2.603-44.093-39.824-31.829-54.297 12.264-14.473 35.705 47.968 43.737 45.834 8.032-2.135-10.017-39.506-1.872-45.984 8.144-6.478 31.623 52.425 33.102 64.576 1.48 12.151 4.457-26.044 17.301-30.5 12.844-4.456.355 23.629 2.602 32.185 2.247 8.556 12.638-21.944 26.699-19.716 14.061 2.229-25.407 30.145-21.494 38.327 3.913 8.182 34.357-27.336 43.906-17.787s-36.679 36.023-34.151 43.269c2.528 7.246 30.257-5.168 38.251 2.827 7.995 7.995-29.807 13.106-34.806 13.106-4.999 0-24.153 6.291-5.467 5.056 18.686-1.236-93.616 4.287-93.616 0" fill="#49745B"/><path d="M559.509 559.748s31.118 1.666 40.18-4.026c9.062-5.692 1.872-10.148 1.872-10.148s28.777-.618 28.702-7.489c-.074-6.871-7.039-6.422-7.039-6.422s14.51-9.867 11.814-16.008c-4.175-9.362-27.823 7.002-27.823 7.002s7.752-9.212 1.479-11.365c-17.187-5.916-49.223 48.418-49.223 48.418" fill="#66A480"/><path d="M635.075 515.691c2.697 6.142-11.814 16.009-11.814 16.009s10.485-.131 8.781 6.497c-1.704 6.628-28.085 8.837-28.085 8.837s9.212 1.872.15 7.489-44.617 5.205-44.617 5.205l75.585-44.037z" fill="#49745B"/><path d="M377.679 510.076c-176.66-40.448-315.536 7.695-349.171 50.561-33.636 42.866 94.639 50.993 171.993 50.993 77.353 0 156.435-13.396 256.261 0 99.825 13.397 170.264-1.728 184.093-34.139 13.828-32.411-42.35-16.854-263.176-67.415z" fill="#9DBEAA"/><path d="M200.137 526.714h-1.089c1.563-28.983-9.069-56.262-18.28-74.045a190.843 190.843 0 00-20.601-32.109l.805-.829a193.114 193.114 0 0120.743 32.18c9.282 17.949 20.009 45.464 18.422 74.756" fill="#49745B"/><path d="M155.407 418.926a15.199 15.199 0 009.756 7.554c.611-4.7-.373-9.47-2.794-13.545a15.199 15.199 0 00-9.732-7.553 21.31 21.31 0 002.77 13.544zm13.521 5.068a20.65 20.65 0 003.883 13.165 18.347 18.347 0 004.736-12.289 20.858 20.858 0 00-3.883-13.189 18.422 18.422 0 00-4.736 12.313zm10.561 9.045a20.796 20.796 0 00-1.374 13.663 14.212 14.212 0 008.928-8.074 20.722 20.722 0 001.373-13.64 14.207 14.207 0 00-8.927 8.051zm7.317 22.282a8.665 8.665 0 00-.948 5.66 5.927 5.927 0 003.979-3.055 8.763 8.763 0 00.947-5.683 5.873 5.873 0 00-3.978 3.078zm3.173 7.98a8.901 8.901 0 00-.971 5.683 5.777 5.777 0 003.978-3.078 8.53 8.53 0 00.971-5.659 5.849 5.849 0 00-3.978 3.054zm-24.082-25.928a11.483 11.483 0 00-9.14 4.877 12.237 12.237 0 009.472 4.618 11.515 11.515 0 009.14-4.878 12.252 12.252 0 00-9.472-4.617zm6.086 11.294a11.54 11.54 0 00-9.164 4.902 12.277 12.277 0 004.219 3.362 12.277 12.277 0 005.253 1.232 11.434 11.434 0 009.14-4.878 12.28 12.28 0 00-4.215-3.378 12.281 12.281 0 00-5.257-1.24m10.063 15.416a7.465 7.465 0 00-5.967 3.173 7.934 7.934 0 006.228 2.984 7.368 7.368 0 005.943-3.173 7.854 7.854 0 00-6.204-2.984zm17.975 56.249c.718-5.318 4.477-11.468 15.483-9.091.079-.022.107-.017.074.016l-.074-.016c-.95.267-9.234 4.471-6.84 11.252.864-2.593 3.889-7.087 9.075-4.322-2.737.576-3.458 1.297-6.483 9.507-3.025 8.211-11.235 10.372-18.15 1.729-6.914-8.643-3.457-11.236-12.964-11.668 0-.432 6.05-4.753 10.372-1.728 3.457 2.42 4.897 4.465 5.185 5.185-.288-3.169.346-9.68 5.186-10.371 0 .432-2.161 4.321-.864 9.507z" fill="#49745B"/><path d="M307.664 254.205c-3.934-5.271-15.109.552-20.589-3.068-7.293-4.806-11.553-23.692-17.916-29.672-6.363-5.98-11.732-13.29-14.068-21.704-2.825-10.146-1.052-20.978 1.389-31.223a250.762 250.762 0 0115.207-44.711 185.635 185.635 0 0138.237 37.023c8.031 10.396 15.214 22.611 14.481 35.72-.302 5.381-.86 16.893-2.481 22.03-4.399 13.947-9.879 21.635-14.26 35.605z" fill="#FFD240"/><path d="M308.669 253.612c-2.673-3.487-7.392-3.022-11.297-2.673a35.4 35.4 0 01-6.427.238 8.52 8.52 0 01-2.452-.581 6.426 6.426 0 01-1.883-1.296c-2.807-2.586-4.591-6.305-6.247-9.745-1.935-4.01-3.626-8.136-5.683-12.087a33.053 33.053 0 00-2.999-4.882c-1.394-1.83-3.172-3.312-4.736-4.991a47.18 47.18 0 01-9.297-13.999c-4.992-12.105-2.4-25.383.668-37.621a248.043 248.043 0 0112.412-37.046 312.836 312.836 0 011.976-4.515l-1.592.418a184.468 184.468 0 0124.017 20.775c3.708 3.8 7.249 7.756 10.623 11.866a124.688 124.688 0 019.257 12.628 58.911 58.911 0 016.601 13.911 37.744 37.744 0 011.511 7.293 42.52 42.52 0 01.041 6.724c-.227 4.068-.471 8.135-.918 12.203-.21 1.912-.459 3.824-.843 5.707a46.366 46.366 0 01-1.923 6.334c-3.371 9.443-8.241 18.264-11.623 27.707a124.27 124.27 0 00-1.325 3.946c-.453 1.435 1.796 2.045 2.244.621a135.659 135.659 0 015.729-14.702c2.052-4.55 4.178-9.065 5.997-13.714.965-2.475 1.901-4.986 2.644-7.554a38.067 38.067 0 001.041-5.352c.581-4.277.906-8.589 1.162-12.895.116-1.906.273-3.818.261-5.73a37.529 37.529 0 00-.877-7.827 52.716 52.716 0 00-5.765-14.563 103.363 103.363 0 00-8.926-13.087 190.23 190.23 0 00-10.576-12.366 188.274 188.274 0 00-23.971-21.553 267.92 267.92 0 00-3.225-2.382 1.156 1.156 0 00-1.291.077 1.17 1.17 0 00-.301.341 253.398 253.398 0 00-13.365 37.348 150.917 150.917 0 00-4.225 19.566c-.86 6.456-.907 13.104.767 19.444a43.826 43.826 0 007.967 15.544 60.74 60.74 0 005.753 6.393 20.64 20.64 0 013.411 4.102c2.324 3.708 4.016 7.787 5.811 11.756 1.743 3.841 3.522 7.804 6.084 11.181a13.96 13.96 0 003.888 3.736c1.807 1.052 3.975 1.273 6.026 1.25 2.185 0 4.358-.32 6.538-.465 1.911-.128 3.881-.233 5.654.465a4.312 4.312 0 011.668 1.22 1.202 1.202 0 001.592.412 1.15 1.15 0 00.539-.709 1.154 1.154 0 00-.121-.883" fill="#AB8935"/><path d="M354.367 327.25c6.125 2.388 12.523-8.467 19.095-8.298 8.717.22 22.338 13.993 30.898 15.69 8.56 1.696 16.992 5.073 23.425 10.971 7.769 7.119 11.994 17.247 15.347 27.231a251.266 251.266 0 0110.756 45.983 185.9 185.9 0 01-52.062-11.14c-12.313-4.573-24.877-11.134-31.194-22.663-2.591-4.725-8.205-14.789-9.547-20.008-3.661-14.179-3.08-23.57-6.741-37.772" fill="#FFD240"/><path d="M354.036 328.371c4.004 1.517 7.938-1.662 10.925-3.928a32.842 32.842 0 015.317-3.545l.308-.145.151-.07s-.145.058 0 0c.238-.099.477-.186.721-.261.244-.076.406-.122.616-.175l.36-.075h.151c.18 0-.18 0 0 0a7.245 7.245 0 011.284 0h.279c.099 0 .343.04.111 0 .203.029.412.064.616.104.9.186 1.783.448 2.638.785.209.075.418.157.622.244h.04l.157.064.372.168c.471.209.936.436 1.395.674a66.304 66.304 0 015.881 3.452c3.916 2.516 7.699 5.271 11.784 7.555a25.671 25.671 0 005.387 2.324c1.163.325 2.325.511 3.487.79a66.01 66.01 0 014.196 1.163 43.573 43.573 0 0115.108 8.048c4.359 3.707 7.677 8.414 10.298 13.476 2.673 5.178 4.649 10.686 6.438 16.213a250.657 250.657 0 019.356 39.062c.248 1.608.485 3.217.709 4.829.372-.488.744-.982 1.122-1.47a184.48 184.48 0 01-33.641-5.457 182.207 182.207 0 01-16.317-5.032 107.307 107.307 0 01-13.191-5.631 56.125 56.125 0 01-11.361-7.607 39.635 39.635 0 01-4.69-4.934 37.436 37.436 0 01-3.446-5.346c-1.923-3.486-3.835-7.014-5.59-10.599-.883-1.807-1.743-3.615-2.423-5.387a42.955 42.955 0 01-1.772-6.171c-2.273-10.048-2.796-20.374-4.981-30.433a118.328 118.328 0 00-.982-4.12c-.372-1.447-2.615-.831-2.243.622a136.626 136.626 0 012.987 15.974c.674 5.009 1.267 10.024 2.226 14.987a71.547 71.547 0 001.743 7.636 46.968 46.968 0 002.144 5.387c1.744 3.864 3.766 7.618 5.812 11.343.906 1.662 1.784 3.353 2.824 4.939a38.031 38.031 0 004.439 5.544 51.448 51.448 0 0011.204 8.577 92.204 92.204 0 0013.029 6.119 177.299 177.299 0 0015.951 5.306 187.135 187.135 0 0034.036 6.288c1.412.127 2.824.244 4.236.337.837.058 1.214-.785 1.121-1.471a251.136 251.136 0 00-8.652-39.416 150.541 150.541 0 00-6.299-17.521c-2.366-5.299-5.341-10.378-9.298-14.649a41.844 41.844 0 00-14.574-9.932 57.115 57.115 0 00-8.415-2.783c-1.249-.314-2.528-.523-3.771-.849-.413-.11-.814-.238-1.209-.377l-.628-.233-.29-.122h-.058l-.111-.046c-4.114-1.819-7.839-4.475-11.57-6.973-3.73-2.499-7.624-5.103-11.912-6.776a12.878 12.878 0 00-5.341-1.046c-2.115.139-4.067 1.115-5.811 2.26-1.743 1.145-3.533 2.621-5.323 3.894a23.038 23.038 0 01-2.626 1.638l-.581.285c-.198.087.087-.035-.117.047l-.389.151c-.415.141-.841.25-1.273.325.239-.046-.04 0-.127 0a2.355 2.355 0 01-.291 0h-.628c-.209 0 .14.035-.081 0l-.291-.058a6.909 6.909 0 01-.674-.209 1.16 1.16 0 00-1.435.779 1.188 1.188 0 00.814 1.435" fill="#AB8935"/><path d="M283.728 311.455l-30.363 9.879c-6.178 2.005-12.465 4.033-18.956 4.161-14.458.279-27.254-8.717-38.882-17.311-13.011-9.623-26.348-19.584-34.867-33.344-1.162-1.854-2.156-4.393-.738-6.044.698-.802 1.784-1.121 2.807-1.4 22.797-6.143 46.297-9.955 69.902-10.146 6.392-.047 13.162.267 18.595 3.637 3.4 2.098 6.02 5.23 8.42 8.438 4.649 6.142 8.618 12.709 12.611 19.235 2.8 4.61 5.603 9.214 8.408 13.813 1.831 3.01 3.737 6.456 2.842 9.879" fill="#FFD240"/><path d="M283.42 310.333l-30.799 10.019c-4.835 1.569-9.745 3.161-14.818 3.742a36.018 36.018 0 01-13.662-1.116c-8.874-2.458-16.725-7.618-24.105-12.918-7.38-5.299-14.771-10.773-21.634-16.788a106.394 106.394 0 01-9.67-9.559 78.453 78.453 0 01-4.225-5.23 34.525 34.525 0 01-3.556-5.538 4.581 4.581 0 01-.529-2.528c.151-.906.907-1.348 1.714-1.621 2.366-.796 4.859-1.314 7.282-1.918a315.982 315.982 0 0115.306-3.411 272.06 272.06 0 0130.95-4.3 280.63 280.63 0 0115.649-.727c4.585-.064 9.263-.069 13.726 1.11a20.438 20.438 0 016.142 2.691 25.167 25.167 0 014.957 4.538c3.231 3.719 5.986 7.898 8.659 12.035 2.807 4.341 5.474 8.781 8.164 13.203l4.144 6.799c1.348 2.22 2.801 4.405 3.992 6.718 1.017 1.969 1.825 4.201 1.278 6.438-.36 1.453 1.883 2.069 2.243.616 1.279-5.195-2.522-10.047-5.061-14.214l-8.507-13.946c-2.767-4.504-5.585-8.979-8.653-13.285-2.824-3.957-5.811-8.001-9.879-10.773-3.963-2.697-8.763-3.725-13.476-4.068a126.105 126.105 0 00-15.271.07 265.224 265.224 0 00-32.153 3.486 302.885 302.885 0 00-15.737 3.103 269.143 269.143 0 00-7.914 1.889c-1.318.333-2.631.672-3.94 1.017a21.387 21.387 0 00-3.429 1.052c-2.243 1.017-2.905 3.341-2.295 5.602.581 2.156 2.016 4.067 3.277 5.881a82.257 82.257 0 009.031 10.738c6.624 6.73 14.155 12.488 21.722 18.114 7.566 5.625 15.23 11.442 23.901 15.306a45.981 45.981 0 0013.609 3.87c5.062.581 10.117-.099 15.033-1.342 5.277-1.343 10.46-3.185 15.615-4.864l15.771-5.125 7.781-2.522c1.418-.46.814-2.708-.616-2.244" fill="#AB8935"/><path d="M303.939 330.283c-12.203 6.799-27.312 5.724-40.288 10.931-4.527 1.819-8.717 4.382-12.878 6.933-6.654 4.067-13.453 8.321-18.177 14.527-7.554 9.966-8.641 23.32-8.67 35.832-.029 12.511.581 25.534-4.457 36.987l32.658-2.086c5.062-.325 10.245-.68 14.894-2.708 4.44-1.935 8.135-5.282 11.39-8.85 10.657-11.622 17.892-26.086 22.535-41.154 4.643-15.069 6.793-30.799 8.188-46.489.122-1.383.192-2.906-.692-3.992-.883-1.087-3.079-.924-3.254.453" fill="#FFD240"/><path d="M303.352 329.278c-8.758 4.853-18.974 5.637-28.614 7.555a62.155 62.155 0 00-14.528 4.608c-4.817 2.324-9.373 5.23-13.871 8.071-4.242 2.691-8.414 5.614-11.913 9.24a36.785 36.785 0 00-7.763 12.325c-3.562 9.165-3.911 19.241-3.899 28.951 0 10.46.366 21.24-2.941 31.31a41.217 41.217 0 01-1.36 3.574c-.319.738.035 1.813 1.006 1.744l18.421-1.163c5.95-.377 11.913-.662 17.851-1.162a45.346 45.346 0 008.38-1.354 25.573 25.573 0 007.2-3.283c4.387-2.906 8.019-6.886 11.314-10.948a105.698 105.698 0 0015.69-27.196c4.242-10.518 7.008-21.577 8.903-32.74.988-5.811 1.743-11.686 2.371-17.555.151-1.476.302-2.952.441-4.428.178-1.349.28-2.707.308-4.068 0-1.243-.308-2.632-1.255-3.487a3.44 3.44 0 00-2.981-.807 2.51 2.51 0 00-2.063 1.941 1.163 1.163 0 001.275 1.465 1.166 1.166 0 00.986-.89c0-.029.087-.378 0-.128.081-.25.04 0 0 0l.069-.07c-.11.07-.104.07 0 0 .227-.174-.104 0 .053-.035.245-.09.515-.09.761 0 .314.088-.14-.104.139.059.067.033.132.072.192.116-.174-.134.087.11.093.122l.128.221c.192.415.291.867.29 1.325a30.385 30.385 0 01-.267 3.847 548.635 548.635 0 01-.418 4.224c-.581 5.602-1.29 11.187-2.214 16.742-1.79 10.785-4.376 21.501-8.31 31.694a105.627 105.627 0 01-14.464 26.277c-2.993 3.911-6.317 7.747-10.169 10.838a24.427 24.427 0 01-6.154 3.661 30.85 30.85 0 01-7.601 1.842c-2.714.337-5.445.477-8.171.651l-8.792.581-17.584 1.122-4.393.284 1.005 1.744c4.312-9.879 4.649-20.717 4.649-31.316 0-9.774-.215-19.758 2.51-29.218a36.408 36.408 0 016.131-12.465c3.045-3.882 6.933-6.973 11-9.734 2.069-1.394 4.19-2.708 6.317-4.015 2.324-1.424 4.649-2.853 7.031-4.161a52.838 52.838 0 017.189-3.347 60.638 60.638 0 017.037-2.063c9.641-2.261 19.729-2.859 28.904-6.851a37.157 37.157 0 003.307-1.633c1.313-.721.139-2.731-1.162-2.005" fill="#AB8935"/><path d="M344.518 255.227a44.195 44.195 0 01-4.969-6.909l-11.622-18.549c-2.249-3.591-4.509-7.206-6.015-11.169-2.272-5.98-2.719-12.471-3.108-18.857-.31-4.967-.593-9.935-.849-14.905-.238-4.771-.453-9.577.221-14.307 1.575-11.041 7.926-20.949 16.027-28.597 8.101-7.647 17.892-13.237 27.794-18.322a2.791 2.791 0 011.645-.448 2.708 2.708 0 011.546 1.163c5.23 6.735 7.856 15.045 10.407 23.163 3.83 12.203 7.688 24.505 8.514 37.243.319 4.858.174 9.821-1.314 14.452-1.086 3.376-2.853 6.485-4.131 9.792-1.546 4.021-2.366 8.321-4.266 12.203a47.529 47.529 0 01-4.846 7.398c-7.055 9.443-14.348 19.112-24.372 25.324" fill="#FFD240"/><path d="M345.343 254.408a39.378 39.378 0 01-4.289-5.875 3595.37 3595.37 0 01-4.347-6.973c-2.905-4.614-5.811-9.223-8.67-13.854-2.667-4.289-5.055-8.659-6.282-13.598-1.226-4.939-1.511-10.001-1.819-15.039-.331-5.433-.656-10.867-.906-16.3-.227-5.091-.262-10.216.889-15.202 1.993-8.641 6.869-16.387 12.982-22.716 6.7-6.973 14.876-12.238 23.285-16.852 2.121-1.162 4.254-2.324 6.392-3.393.332-.169.703-.413 1.064-.221.409.32.754.714 1.017 1.162.697.945 1.35 1.914 1.958 2.906a64.691 64.691 0 015.765 12.947c1.627 4.753 3.097 9.57 4.55 14.376 1.516 5.033 2.905 10.1 4.027 15.243a92.55 92.55 0 012.069 15.469c.203 5.119-.314 10.14-2.29 14.9-.959 2.324-2.104 4.532-3.028 6.857-.924 2.324-1.603 4.771-2.359 7.171a33.527 33.527 0 01-2.812 6.769 65.2 65.2 0 01-4.225 6.172c-5.503 7.362-11.134 14.789-18.276 20.664a51.098 51.098 0 01-5.416 3.888c-1.273.79-.105 2.801 1.162 2.01 8.171-5.09 14.528-12.377 20.391-19.926a447.505 447.505 0 004.399-5.811 54.786 54.786 0 004.295-6.34c2.493-4.527 3.324-9.681 5.294-14.423.988-2.383 2.173-4.649 3.114-7.078a30.778 30.778 0 001.889-7.676c.633-5.335.134-10.797-.633-16.091-1.546-10.675-4.829-20.99-8.06-31.241a116.574 116.574 0 00-5.056-13.807 48.893 48.893 0 00-3.487-6.357c-1.208-1.842-2.853-4.928-5.52-3.998a25.897 25.897 0 00-3.365 1.673c-1.104.581-2.204 1.163-3.301 1.744a160.6 160.6 0 00-6.502 3.719 101.99 101.99 0 00-12.349 8.716c-7.176 5.957-13.325 13.337-16.939 21.978a42.53 42.53 0 00-3.272 13.947c-.348 5.532.122 11.105.43 16.625.302 5.399.517 10.82 1.081 16.196.546 5.23 1.616 10.326 3.882 15.108 2.324 4.882 5.428 9.385 8.287 13.947 2.957 4.73 5.898 9.466 8.873 14.179a42.006 42.006 0 004.457 6.044c1.023 1.098 2.662-.547 1.651-1.645" fill="#AB8935"/><path d="M368.657 259.272c-7.194-27.847-.796-58.692 17.02-81.936a45.075 45.075 0 018.089-8.485c2.848-2.196 6.09-3.881 9.228-5.683 4.068-2.324 7.979-4.893 12.204-6.973 8.135-4.068 17.119-6.34 26.01-8.572 1.633-.406 3.487-.784 4.905.105 1.418.889 1.743 2.545 1.97 4.068 4.027 25.743-1.935 52.433-14.063 75.835-2.133 4.12-4.515 8.228-8.031 11.383-3.208 2.877-7.206 4.818-11.204 6.573a186.123 186.123 0 01-46.285 13.487" fill="#FFD240"/><path d="M369.778 258.964a92.055 92.055 0 01-2.725-27.661 96.36 96.36 0 0118.747-52.201c2.998-4.039 6.328-7.874 10.541-10.687 2.22-1.476 4.573-2.737 6.886-4.067 2.313-1.331 4.742-2.825 7.124-4.219a79.99 79.99 0 0114.615-6.782c5.091-1.743 10.303-3.085 15.522-4.393 1.743-.442 4.573-1.493 5.724.54a8.09 8.09 0 01.749 2.761c.198 1.267.368 2.539.512 3.818.57 5.077.778 10.188.621 15.294a121.637 121.637 0 01-4.939 30.387 139.804 139.804 0 01-5.184 14.614 124.206 124.206 0 01-6.717 13.831 35.544 35.544 0 01-4.213 6.061 25.26 25.26 0 01-5.712 4.701c-4.423 2.702-9.362 4.649-14.18 6.508a186.178 186.178 0 01-31.176 9.083c-2.592.515-5.195.976-7.81 1.383a1.162 1.162 0 00-.814 1.43 1.2 1.2 0 001.43.813 187.177 187.177 0 0032.35-8.031 182.39 182.39 0 0015.289-6.049c4.771-2.144 9.356-4.724 12.785-8.775 3.428-4.05 5.718-8.757 7.955-13.435a146.35 146.35 0 006.119-14.841 128.615 128.615 0 006.77-31.055c.463-5.217.558-10.46.285-15.69-.14-2.632-.378-5.265-.721-7.88-.29-2.266-.378-4.968-1.894-6.822-1.744-2.15-4.649-1.662-7.032-1.069a386.585 386.585 0 00-8.019 2.074 106.342 106.342 0 00-15.655 5.416c-5.091 2.325-9.757 5.358-14.586 8.136-2.371 1.36-4.788 2.644-7.072 4.149a36.336 36.336 0 00-6.183 5.149 76.654 76.654 0 00-9.234 12.046 97.18 97.18 0 00-6.822 12.738 99.943 99.943 0 00-7.769 27.893 95.507 95.507 0 00.685 28.591c.407 2.324.907 4.59 1.488 6.851.378 1.453 2.621.837 2.243-.616" fill="#AB8935"/><path d="M385.166 261.742c2.592-9.804 7.444-18.84 12.261-27.772a78.348 78.348 0 014.719-7.99 50.847 50.847 0 017.107-8.002c10.46-9.704 23.773-16.038 37.656-19.304 13.883-3.266 28.352-3.557 42.549-2.162.457-.002.905.134 1.284.389a2.26 2.26 0 01.616 1.633c.796 10.094-5.143 19.345-10.826 27.719l-8.717 12.785c-5.811 8.588-11.942 17.433-20.844 22.797-3.847 2.324-8.101 3.887-12.372 5.282a173.185 173.185 0 01-24.895 6.113c-6.973 1.162-14.318 1.883-20.995-.459-2.4-.837-4.748-2.138-6.183-4.236-1.436-2.098-1.703-5.131-.122-7.125" fill="#FFD240"/><path d="M386.282 262.056c2.499-9.397 7.043-18.015 11.622-26.545 2.278-4.231 4.55-8.444 7.7-12.105a62.576 62.576 0 019.878-9.152 81.982 81.982 0 0123.297-12.07 105.878 105.878 0 0128.242-5.125 143.403 143.403 0 0115.109.052c1.259.07 2.514.153 3.765.25 1.232.093 2.511.128 3.725.331.355.058.419.099.5.401.096.476.139.961.128 1.447.04 1.109.001 2.22-.116 3.324-.448 4.364-2.115 8.548-4.149 12.401a124.976 124.976 0 01-7.415 11.802 6265.79 6265.79 0 01-8.624 12.697c-2.435 3.58-4.916 7.142-7.694 10.46a51.408 51.408 0 01-9.152 8.827 47.446 47.446 0 01-12.471 6.166 163.414 163.414 0 01-29.311 7.241c-4.649.691-9.478 1.086-14.133.273a21.09 21.09 0 01-6.287-2.011c-1.627-.86-3.214-2.115-3.929-3.87a4.838 4.838 0 01.489-4.841 1.172 1.172 0 00.121-.883 1.175 1.175 0 00-.54-.709 1.196 1.196 0 00-1.592.418 6.9 6.9 0 00-.895 6.114 9.6 9.6 0 004.027 5.102 19.584 19.584 0 006.265 2.562c2.425.566 4.906.858 7.397.872 5.12.064 10.222-.796 15.231-1.743a173.988 173.988 0 0015.178-3.58 104.64 104.64 0 0014.61-5.067 42.542 42.542 0 0011.517-7.746c6.787-6.352 11.797-14.377 16.986-22.013 2.905-4.259 5.852-8.484 8.635-12.813 2.563-3.987 4.928-8.136 6.485-12.645a31.085 31.085 0 001.558-6.846c.127-1.132.174-2.272.139-3.411-.035-1.127-.035-2.434-.813-3.341-.86-1-2.325-.941-3.528-1.052-1.203-.11-2.574-.221-3.864-.308a152.457 152.457 0 00-7.851-.343 120.592 120.592 0 00-30.88 3.196 89.298 89.298 0 00-25.354 10.42c-8.013 4.904-15.568 11.291-20.565 19.339-1.319 2.127-2.493 4.335-3.679 6.538-1.185 2.202-2.365 4.393-3.486 6.607a127 127 0 00-6.294 13.853 75.287 75.287 0 00-2.208 6.898c-.383 1.447 1.86 2.069 2.243.622" fill="#AB8935"/><path d="M390.57 278.198a28.853 28.853 0 0110.321-10.494c4.259-2.464 9.001-3.597 13.395-5.713 3.341-1.609 6.456-3.777 9.785-5.41 10.774-5.3 23.193-4.689 34.478-.994 11.285 3.696 21.669 10.257 31.961 16.771l18.369 11.622c-4.272 7.59-12.843 9.74-19.927 13.657-3.364 1.859-6.502 4.224-9.681 6.479a210.7 210.7 0 01-9.931 6.625c-3.359 2.103-6.91 4.172-10.64 5.404a40.672 40.672 0 01-11.094 1.743c-10.756.453-21.809-1.29-31.38-7.043-5.718-3.446-10.762-8.24-15.236-13.598-5.23-6.241-9.879-13.598-11.256-22.111" fill="#FFD240"/><path d="M391.558 278.792a28.151 28.151 0 017.624-8.595c3.377-2.464 7.282-3.824 11.152-5.3a51.65 51.65 0 006.078-2.696c1.941-1.035 3.807-2.197 5.718-3.278a38.108 38.108 0 0111.623-4.346c8.135-1.563 16.637-.425 24.453 2.132 8.333 2.72 16.056 6.974 23.511 11.541 7.915 4.835 15.69 9.879 23.535 14.853l2.999 1.895-.418-1.587c-4.068 7.2-12.541 9.42-19.363 13.157-4.649 2.557-8.839 5.939-13.232 8.926-4.393 2.986-8.798 5.985-13.575 8.222-4.776 2.237-9.908 2.906-15.108 3.074a64.366 64.366 0 01-14.488-1.162 48.233 48.233 0 01-13.778-4.916 52.289 52.289 0 01-11.43-8.752c-6.625-6.56-12.732-14.527-15.231-23.628a34.279 34.279 0 01-.767-3.486 1.149 1.149 0 00-.546-.703 1.175 1.175 0 00-1.29.092 1.173 1.173 0 00-.407 1.227c1.639 9.762 7.432 18.235 13.981 25.412a61.813 61.813 0 0011.332 9.879 48.12 48.12 0 0013.9 6.281 61.577 61.577 0 0015.022 2.087c5.23.116 10.681-.14 15.69-1.709 5.143-1.598 9.757-4.591 14.243-7.502a173.832 173.832 0 006.845-4.649c2.267-1.604 4.498-3.26 6.822-4.771 3.702-2.406 7.723-4.068 11.669-6.043 3.655-1.802 7.27-3.975 9.879-7.183a20.35 20.35 0 001.848-2.69 1.175 1.175 0 00.124-.882 1.177 1.177 0 00-.537-.711c-8.054-5.108-16.079-10.262-24.18-15.294-7.641-4.754-15.498-9.298-23.97-12.384-7.996-2.935-16.69-4.498-25.197-3.44a39.67 39.67 0 00-12.32 3.574c-4.015 1.929-7.636 4.573-11.75 6.311-4.021 1.696-8.269 2.905-12.035 5.142a29.72 29.72 0 00-8.798 8.223 31.823 31.823 0 00-1.621 2.499c-.761 1.296 1.249 2.47 2.011 1.162" fill="#AB8935"/><path d="M374.886 320.486a130.005 130.005 0 0146.024-21.321c3.376-.819 6.828-1.499 10.303-1.401 2.68.128 5.338.549 7.926 1.256 7.834 1.981 15.348 5.044 22.832 8.1 7.299 2.976 14.696 6.015 20.92 10.867 4.94 3.864 8.961 8.752 12.941 13.592l8.717 10.6c-3.213.098-6.288 1.278-9.298 2.458-14.016 5.52-27.974 11.407-42.676 14.742-5.364 1.215-10.855 2.092-16.353 1.796-11.465-.628-21.989-6.253-32.036-11.814-12.512-6.921-25.679-14.661-32.066-27.457" fill="#FFD240"/><path d="M375.473 321.491a130.181 130.181 0 0124.076-13.882 128.01 128.01 0 0113.063-4.928 87.953 87.953 0 0113.947-3.487 26.185 26.185 0 017.444-.04c2.487.394 4.945.955 7.356 1.679a151.086 151.086 0 0114.296 4.998c4.521 1.795 9.053 3.591 13.481 5.584a65.771 65.771 0 0112.204 6.874c3.806 2.819 7.066 6.317 10.128 9.879 3.295 3.865 6.48 7.834 9.699 11.756l2.511 3.057c.279-.663.552-1.325.825-1.988-2.575.17-5.107.745-7.502 1.703-2.424.895-4.818 1.877-7.224 2.836-4.788 1.9-9.576 3.795-14.405 5.584-9.687 3.58-19.706 6.933-29.962 8.403a44.05 44.05 0 01-15.196-.337 63.035 63.035 0 01-13.668-4.695c-4.416-2.052-8.688-4.411-12.941-6.776-3.725-2.075-7.427-4.19-10.995-6.514-6.973-4.527-13.592-9.949-17.956-17.114a38.268 38.268 0 01-1.528-2.766c-.674-1.336-2.679-.163-2.011 1.162 3.876 7.712 10.251 13.709 17.224 18.596 3.568 2.522 7.316 4.777 11.117 6.938 4.067 2.325 8.176 4.603 12.366 6.724 9.013 4.556 18.653 8.089 28.91 7.554 5.346-.273 10.634-1.389 15.812-2.714 5.061-1.301 10.041-2.876 14.969-4.608 4.928-1.732 9.821-3.614 14.691-5.538l7.24-2.871a66.417 66.417 0 017.363-2.62 16.875 16.875 0 013.696-.581 1.168 1.168 0 001.08-.717 1.17 1.17 0 00-.255-1.271c-3.359-4.068-6.7-8.176-10.071-12.25-3.08-3.73-6.252-7.42-9.925-10.582-7.403-6.392-16.597-9.878-25.534-13.522-4.759-1.935-9.542-3.824-14.435-5.393-4.893-1.569-9.943-3.08-15.062-3.033-5.003.041-9.989 1.418-14.772 2.778a132.049 132.049 0 00-38.411 18.095c-.959.663-1.9 1.331-2.842 2.017a1.201 1.201 0 00-.418 1.592 1.17 1.17 0 00.709.54 1.158 1.158 0 00.883-.122" fill="#AB8935"/><path d="M321.035 340.557c-5.271 9.344-12.244 17.608-18.2 26.534-5.957 8.925-11.012 18.886-11.686 29.595a72.81 72.81 0 00.395 11.088 577.563 577.563 0 002.283 20.92 61.383 61.383 0 001.674 9.211c2.168 7.554 7.09 14.405 7.241 22.244 1.133-5.183 5.09-9.297 9.419-12.366 4.33-3.068 9.188-5.352 13.366-8.583a69.19 69.19 0 007.921-7.455c2.952-3.121 5.875-6.294 8.251-9.879 6.27-9.414 8.357-20.92 10.303-32.066.773-4.393 1.54-8.833 1.319-13.284-.319-6.444-2.696-12.61-5.532-18.404-2.481-5.084-5.427-10.093-9.768-13.725a24.777 24.777 0 00-16.852-5.684" fill="#FFD240"/><path d="M320.035 339.971c-4.201 7.414-9.443 14.155-14.399 21.065-4.806 6.694-9.327 13.638-12.349 21.344a49.146 49.146 0 00-3.062 11.785c-.582 4.445-.262 8.92.139 13.365.387 4.568.852 9.133 1.395 13.697.517 4.521.953 9.094 1.819 13.569.784 4.068 2.324 7.862 3.986 11.657 1.551 3.539 3.132 7.13 3.771 10.966.145.897.227 1.804.244 2.713.035 1.273 1.988 1.633 2.29.308 1.005-4.492 4.172-8.083 7.74-10.832 4.149-3.202 8.944-5.433 13.215-8.455 4.422-3.126 8.135-7.13 11.779-11.111 3.643-3.98 6.793-8.135 9.117-12.923 4.527-9.374 6.259-19.886 7.909-30.079a57.15 57.15 0 00.878-8.617 34.852 34.852 0 00-.976-8.345c-1.232-5.23-3.487-10.204-5.957-14.929-2.324-4.399-5.16-8.716-9.059-11.843a26.26 26.26 0 00-13.732-5.66 24.334 24.334 0 00-3.632-.104c-1.493.058-1.499 2.388 0 2.324a23.786 23.786 0 0113.65 3.626c4.068 2.574 7.113 6.439 9.519 10.582a66.968 66.968 0 016.276 14.051 35.402 35.402 0 011.505 7.729 40.245 40.245 0 01-.389 8.438c-.721 5.23-1.691 10.413-2.807 15.55a76.335 76.335 0 01-4.329 14.237 48.886 48.886 0 01-8.211 12.785c-1.744 2.005-3.586 3.946-5.44 5.857a58.278 58.278 0 01-5.846 5.405c-7.554 5.915-18.066 9.117-22.326 18.444a17.062 17.062 0 00-1.133 3.295l2.29.308c-.198-7.99-4.928-14.708-7.171-22.158-1.273-4.236-1.691-8.716-2.22-13.063a583.68 583.68 0 01-1.476-13.604c-.436-4.544-.959-9.123-.779-13.697.197-4.01.954-7.973 2.249-11.773 2.545-7.711 6.851-14.702 11.483-21.315 4.84-6.909 10.105-13.528 14.499-20.74a94.14 94.14 0 001.568-2.679c.738-1.307-1.266-2.481-2.004-1.162" fill="#AB8935"/><path d="M347.807 338.14a95.915 95.915 0 01-2.958 25.133c-1.052 4.126-2.377 8.2-3.022 12.395-2.249 14.714 4.277 29.689 14.47 40.957a46.493 46.493 0 008.414 7.514c3.516 2.365 7.467 4.067 11.39 5.776l19.339 8.374c.742.38 1.552.611 2.383.68 2.487.046 3.998-2.54 4.794-4.771 4.213-11.779 4.794-24.407 4.201-36.837-.29-6.084-.877-12.261-3.219-17.927-1.639-3.957-4.068-7.554-6.764-10.989-12.244-15.69-30.055-28.009-50.365-31.455" fill="#FFD240"/><path d="M346.644 338.14a94.338 94.338 0 01-.883 14.487 112.688 112.688 0 01-3.109 14.325c-1.214 4.433-2.289 8.891-2.417 13.51a44.462 44.462 0 001.47 12.349c2.138 8.211 6.392 15.783 11.756 22.309a52.82 52.82 0 009.687 9.338c3.789 2.743 8.095 4.614 12.366 6.462l13.76 5.956 3.534 1.535c1.092.47 2.185 1.011 3.312 1.4a4.965 4.965 0 005.462-1.447c1.349-1.505 2.028-3.411 2.65-5.3a69.493 69.493 0 001.854-6.752 89.286 89.286 0 001.883-13.976c.261-4.703.279-9.416.052-14.121-.203-4.649-.546-9.379-1.645-13.946-2.091-8.624-7.554-15.847-13.481-22.274a90.107 90.107 0 00-18.311-15.324 78.218 78.218 0 00-22.082-9.606 70.7 70.7 0 00-5.73-1.22 1.195 1.195 0 00-1.429.813 1.156 1.156 0 00.11.884 1.157 1.157 0 00.703.546 73.358 73.358 0 0122.03 7.554 85.24 85.24 0 0118.752 13.581 92.402 92.402 0 017.84 8.461 54.272 54.272 0 017.072 10.646c1.923 4.009 2.87 8.432 3.347 12.836.456 4.532.671 9.085.645 13.639 0 9.135-.878 18.328-3.684 27.062-.529 1.662-1.046 3.487-2.18 4.76a2.95 2.95 0 01-1.743 1.11c-.209.04.134 0-.087 0h-.343a2.651 2.651 0 01-.581-.082 10.282 10.282 0 01-1.505-.581l-13.459-5.747c-4.335-1.877-8.751-3.632-12.935-5.811a41.54 41.54 0 01-10.53-7.95 59.72 59.72 0 01-13.307-20.542c-2.842-7.618-3.754-15.783-2.034-23.767 1.005-4.684 2.516-9.234 3.487-13.947a98.978 98.978 0 001.877-14.243c.135-2.324.186-4.649.151-6.973 0-1.5-2.325-1.5-2.325 0" fill="#AB8935"/><path d="M271.269 318.777a652.975 652.975 0 00-30.41-2.324c-2.69-.146-5.387-.273-8.083-.233-19.339.291-37.946 9.478-51.672 23.099-5.503 5.457-10.361 11.663-16.684 16.144.628 1.261 1.953 1.993 3.208 2.632a197.04 197.04 0 0041.52 15.579 67.346 67.346 0 008.763 1.744 40.964 40.964 0 0030.66-9.298c3.486-2.964 6.479-6.491 9.565-9.879a179.63 179.63 0 0114.498-14.219c3.621-3.168 7.636-6.66 8.206-11.437.401-3.341-1.052-6.688-3.202-9.297-2.15-2.61-4.946-4.545-7.712-6.468" fill="#FFD240"/><path d="M271.269 317.616a678.412 678.412 0 00-26.487-2.11c-4.341-.261-8.717-.581-13.052-.43-3.672.12-7.328.542-10.931 1.261a75.133 75.133 0 00-20.559 7.409 84.838 84.838 0 00-17.898 12.785c-5.614 5.23-10.333 11.349-16.272 16.224a45.13 45.13 0 01-2.243 1.744 1.195 1.195 0 00-.418 1.592c1.197 2.254 3.986 3.248 6.148 4.312a209.43 209.43 0 007.659 3.573 206.983 206.983 0 0015.824 6.183 187.42 187.42 0 0016.12 4.76c5.23 1.307 10.541 2.214 15.963 1.836a42.21 42.21 0 0027.068-12.354c3.94-3.894 7.455-8.194 11.337-12.146a170.051 170.051 0 016.102-5.938c1.918-1.744 3.905-3.487 5.811-5.23 3.487-3.173 6.88-7.177 6.572-12.204-.337-5.485-4.248-9.64-8.408-12.784a92.958 92.958 0 00-3.132-2.237 1.162 1.162 0 00-1.737.846c-.021.152-.012.306.026.454a1.18 1.18 0 00.537.71c3.922 2.726 8.28 5.753 9.879 10.495a9.202 9.202 0 01-.152 6.508 16.35 16.35 0 01-3.765 5.172c-1.743 1.744-3.62 3.284-5.439 4.922a180.67 180.67 0 00-5.875 5.538c-3.841 3.795-7.386 7.851-11.041 11.803-3.406 3.666-7.096 6.921-11.506 9.326a40.599 40.599 0 01-13.459 4.481c-4.89.666-9.859.449-14.673-.639a162.96 162.96 0 01-15.8-4.353 197.813 197.813 0 01-15.266-5.584c-4.922-2.04-9.844-4.225-14.528-6.747a5.035 5.035 0 01-2.237-1.929l-.418 1.592c6.322-4.51 11.18-10.588 16.631-16.039a83.168 83.168 0 0117.189-13.237 74.39 74.39 0 0119.909-8.02 64.389 64.389 0 0110.53-1.638 99.255 99.255 0 0112.401.127 676.91 676.91 0 0126.382 1.97l3.208.32a1.163 1.163 0 000-2.324z" fill="#AB8935"/><path d="M283.722 278.03a141.33 141.33 0 01-40.044-6.538c-5.695-1.795-11.332-3.992-16.236-7.403-4.336-3.016-7.985-6.915-11.315-11.041-8.629-10.623-15.376-22.931-18.554-36.244-1.662-6.944-2.325-14.08-3.598-21.112-1.022-5.753-2.429-11.436-3.835-17.108a248.507 248.507 0 0149.214 10.402c4.887 1.564 9.763 3.301 14.168 5.922 15.55 9.269 22.663 27.678 28.695 44.745 1.801 5.091 3.614 10.228 4.248 15.591.494 4.231.244 8.508 0 12.785-.239 4.068-.872 8.798-4.393 10.826" fill="#FFD240"/><path d="M283.722 276.868a140.093 140.093 0 01-30.718-3.998 119.763 119.763 0 01-14.614-4.457 45.909 45.909 0 01-12.372-6.857 64.835 64.835 0 01-9.955-10.385 100.94 100.94 0 01-7.821-11.425 84.58 84.58 0 01-10.193-26.271c-1.046-5.19-1.674-10.46-2.522-15.69-.848-5.23-2.028-10.489-3.295-15.69-.314-1.273-.628-2.551-.947-3.824-.372.488-.744.982-1.122 1.47a247.787 247.787 0 0134.489 6.224c5.614 1.429 11.187 3.039 16.678 4.881 5.067 1.697 10.007 3.748 14.377 6.857 7.31 5.195 12.546 12.732 16.579 20.635a132.32 132.32 0 015.59 12.785c1.79 4.649 3.487 9.35 5.044 14.092a59.08 59.08 0 012.15 8.478c.44 2.856.606 5.748.494 8.635-.064 2.685-.157 5.405-.465 8.078-.221 1.917-.674 4.039-1.743 5.695a5.743 5.743 0 01-1.854 1.743c-1.29.761-.122 2.772 1.162 2.011 4.132-2.435 4.731-7.688 4.986-12.024.175-3.01.343-6.026.244-9.042a44.228 44.228 0 00-1.261-9.065c-1.29-5.276-3.26-10.396-5.125-15.492-1.662-4.527-3.429-9.025-5.463-13.406-3.893-8.409-8.896-16.591-16.027-22.664a47.125 47.125 0 00-13.423-7.856 162.8 162.8 0 00-16.852-5.387 250.62 250.62 0 00-35.175-6.973 199.743 199.743 0 00-4.393-.512c-.779-.087-1.284.808-1.122 1.47 1.314 5.294 2.621 10.588 3.627 15.946.976 5.23 1.603 10.535 2.498 15.789a87.486 87.486 0 003.673 14.58 89.486 89.486 0 005.846 12.993 101.134 101.134 0 007.717 11.994 80.996 80.996 0 009.565 10.966 45.16 45.16 0 0012.203 8.031 98.72 98.72 0 0014.528 4.997 142.853 142.853 0 0031.211 4.893c1.273.058 2.552.099 3.824.117 1.499.029 1.499-2.296 0-2.325" fill="#AB8935"/><path opacity=".5" d="M438.291 298.921a101.235 101.235 0 11-202.472.013 101.235 101.235 0 01202.472-.013z" fill="#D3AA34"/><path d="M423.113 496.44c0 23.018-41.724 26.632-66.648 22.553-39.364-6.445-28.567 6.206-69.018 3.097-19.287-1.482-42.805-7.275-42.805-25.65 0-7.938 3.836-12.662 7.415-15.364 5.137 3.01 4.132 1.743 15.928 2.62 9.647.733 17.364-3.422 23.774-10.274 9.326 0 26.934-31.699 27.98-56.088.395-9.228.581-18.119.715-25.261.157-9.495.133-15.905.133-15.905l34.484-2.766s-.262 6.038-.465 15.167c-.14 6.177-.25 13.766-.221 21.867.064 27.614 18.595 61.109 25.662 64.335 6.037 2.76 3.486 2.365 9.878 1.592.291.029-.279 0 0 0 17.753.994 33.211 4.875 33.211 20.095" fill="#4F735F"/><path d="M423.113 496.44c0 23.018-41.724 26.632-66.648 22.553-39.364-6.445-28.567 6.206-69.018 3.097-19.287-1.482-42.805-7.275-42.805-25.65 0-7.938 3.836-12.662 7.415-15.364 5.137 3.01 4.132 1.743 15.928 2.62 9.647.733 17.364-3.422 23.774-10.274 9.326 0 26.934-31.699 27.98-56.088.395-9.228.581-18.119.715-25.261.157-9.495.133-15.905.133-15.905l34.483-2.766s-.261 6.038-.464 15.167c-.14 6.177-.25 13.766-.221 21.867.064 27.614 18.595 61.109 25.662 64.335 6.037 2.76 3.486 2.365 9.878 1.592.291.029-.279 0 0 0 17.73.976 33.188 4.858 33.188 20.077z" stroke="#335137" stroke-width="2" stroke-miterlimit="10"/><path d="M385.288 476.165a16.005 16.005 0 004.777 4.581 16.013 16.013 0 006.223 2.253c7.665 1.162 18.207-1.232 18.207-1.232s-7.927-6.166-29.207-5.602z" fill="#335137"/><path d="M324.551 518.72s22.157-6.782 22.157-22.542c0-21.774-14.458-16.027-30.653-5.573-16.196 10.455-26.999 4.004-26.999 4.004" stroke="#335137" stroke-width="2" stroke-miterlimit="10"/><path d="M252.057 481.076s3.621 5.892 19.851 5.055c18.014-.93 19.851-12.709 19.851-12.709l-39.702 7.654zm36.761 14.01c-.581-.517-.97-.744-.697-2.394.244-1.464 2.574-2.325 3.876-3.016 6.909-3.766 14.899-5.23 22.768-5.311 4.033-.053 8.135.226 12.058-.622 2.51-.541 4.904-1.528 7.409-2.092 2.504-.564 5.23-.663 7.525.5 1.162.581 2.156 1.481 3.289 2.132 3.295 1.877 7.351 1.523 11.129 1.209a211.71 211.71 0 0126.115-.529c.894.041 1.882.122 2.498.773.721.755.581 2.04 0 2.906a6.837 6.837 0 01-2.429 2.272c-5.23 2.371-11.186 2.574-16.904 2.161-5.718-.412-11.303-1.859-16.777-3.55a5.285 5.285 0 01-2.156-1.064c-.825-.79-1.057-1.999-1.545-3.033-1.25-2.627-4.219-4.068-7.113-4.37-3.83-.395-7.659.866-11.041 2.656-3.382 1.79-6.503 4.108-9.815 6.067-5.346 3.149-8.264 5.392-14.371 6.485-2.772.494-11.093-.087-13.796-1.163" fill="#335137"/><path d="M306.763 417.275c6.072-11.68 9.449-19.897 13.691-25.202a943.969 943.969 0 01-.715 25.266c-7.461 17.678-15.109 42.323-27.98 56.083-6.393 6.851-14.127 11.006-23.774 10.274-11.796-.895-19.937-2.905-24.842-6.27-13.83-9.524-10.076-17.253-5.352-18.346 6.038-1.4 17.677 7.404 31.38 2.296 13.702-5.108 25.516-20.874 37.592-44.101z" fill="#40B87E"/><path d="M306.763 417.275c6.072-11.68 9.449-19.897 13.691-25.202a943.969 943.969 0 01-.715 25.266c-7.461 17.678-15.109 42.323-27.98 56.083-6.393 6.851-14.127 11.006-23.774 10.274-11.796-.895-19.937-2.905-24.842-6.27-13.83-9.524-10.076-17.253-5.352-18.346 6.038-1.4 17.677 7.404 31.38 2.296 13.702-5.108 25.516-20.874 37.592-44.101z" stroke="#335137" stroke-width="2" stroke-miterlimit="10"/><path d="M406.865 480.558h-.041l-.86-.047c-40.445 0-34.46-43.426-51.579-65.874 0-8.101.081-15.69.221-21.867a23 23 0 018.135 10.843c6.503 16.951 13.947 55.554 40.405 54.572 26.458-.982 27.405-9.751 32.542-3.713 5.137 6.037-6.788 26.231-28.794 26.086" fill="#40B87E"/><path d="M406.865 480.558h-.041l-.86-.047c-40.445 0-34.46-43.426-51.579-65.874 0-8.101.081-15.69.221-21.867a23 23 0 018.135 10.843c6.503 16.951 13.947 55.554 40.405 54.572 26.458-.982 27.405-9.751 32.542-3.713 5.137 6.037-6.817 26.231-28.823 26.086z" stroke="#335137" stroke-width="2" stroke-miterlimit="10"/><path d="M429.563 298.944a92.02 92.02 0 01-56.806 85.024 92.02 92.02 0 01-125.475-67.067 92.018 92.018 0 0139.134-94.469 92.02 92.02 0 0186.342-8.502 92.013 92.013 0 0156.805 85.014z" fill="#AB8935"/><path d="M426.971 298.921a89.914 89.914 0 01-55.502 83.065 89.914 89.914 0 01-97.983-19.49 89.906 89.906 0 0113.625-138.332 89.91 89.91 0 01139.86 74.757z" fill="#E7D173"/><path d="M421.776 302.152c0 45.326-38.26 82.075-85.423 82.075-47.163 0-85.481-36.749-85.481-82.075 0-45.327 38.26-82.076 85.481-82.076s85.423 36.749 85.423 82.076z" fill="#F8E77D"/><path d="M373.724 296.504a43.177 43.177 0 005.55-1.238l1.301-.459.651-.221.622-.273c.418-.186.831-.366 1.249-.541l1.163-.633.581-.32c.197-.11.383-.238.581-.36l1.162-.732c.372-.256.727-.535 1.093-.796.371-.259.728-.539 1.069-.837l1.052-.866c.331-.308.651-.633.993-.935.343-.304.669-.626.977-.965.308-.337.662-.639.953-.994a46.419 46.419 0 003.521-4.364 56.535 56.535 0 003.144-4.881 22.08 22.08 0 01-1.296 6.131 25.539 25.539 0 01-2.667 5.468 3.423 3.423 0 01-.151.232c.54.18 1.063.384 1.575.61.831.361 1.638.779 2.423 1.209l1.162.68 1.162.709-1.226-.291-1.214-.238a23.683 23.683 0 00-2.389-.296 12.25 12.25 0 00-2.225.035c-.33.038-.657.102-.977.191l-.354.134-.523.61-1.069 1.064c-.355.35-.729.68-1.122.988.581.488 1.162.982 1.743 1.505a42.791 42.791 0 012.185 2.202c.698.761 1.354 1.54 1.988 2.324a35.558 35.558 0 00-2.487-1.609 40.515 40.515 0 00-2.534-1.372 47.742 47.742 0 00-2.563-1.162l-.581-.221-.168.111c-.215.139-.413.29-.64.412l-.685.361-1.383.709c-.477.197-.965.377-1.453.581l-.384.145c.192.442.384.877.581 1.325.477 1.162.901 2.324 1.331 3.487-.802-.994-1.61-1.999-2.429-2.958a91.644 91.644 0 00-1.22-1.366c-.285.076-.581.157-.86.227a31.33 31.33 0 01-6.317.656 34.203 34.203 0 01-12.871-2.574 68.068 68.068 0 0012.063-.639" fill="#090907"/><path d="M259.728 295.109s12.819-24.168 37.394-27.696c0 0-27.992-.72-37.394 27.696zm86.312-37.128s25.668-18.014 48.947.651c0 0-20.554-25.092-48.947-.651z" fill="#AB8935"/><path d="M307.815 312.676a56.413 56.413 0 01-6.241 2.324l-1.593.419-.79.221-.802.151c-.534.104-1.063.209-1.598.325l-1.61.203-.801.099c-.268.035-.547.041-.82.058l-1.639.105h-3.3l-1.662-.064c-.546-.047-1.099-.105-1.656-.145a27.478 27.478 0 01-1.662-.18c-.558-.076-1.11-.117-1.662-.227a66.373 66.373 0 01-6.642-1.348 87.858 87.858 0 01-6.683-2.005 26.943 26.943 0 005.852 4.114 35.313 35.313 0 006.642 2.766c.11.041.215.064.325.099-.377.457-.726.937-1.046 1.435a26.993 26.993 0 00-1.412 2.424l-.581 1.243-.552 1.255.953-.97.982-.93a25.221 25.221 0 012.063-1.668 13.867 13.867 0 012.156-1.313c.347-.17.707-.316 1.075-.436.151-.04.302-.081.436-.104l.964.168 1.825.209c.581.076 1.209.093 1.813.117a29.434 29.434 0 00-.5 2.231 32.773 32.773 0 00-.43 3.074 42.007 42.007 0 00-.145 3.057 32.5 32.5 0 011.162-2.784c.436-.9.889-1.772 1.383-2.621a30.984 30.984 0 011.598-2.452c.128-.186.268-.36.407-.54h.244c.308 0 .61 0 .924-.053l.924-.127 1.854-.268c.581-.128 1.209-.279 1.813-.424l.482-.116c.145.471.297.935.459 1.4.43 1.232.907 2.424 1.377 3.615 0-1.284.03-2.569.099-3.83.029-.581.076-1.214.128-1.83.331-.111.668-.215.994-.331a38.664 38.664 0 006.537-3.284 36.065 36.065 0 0010.367-9.809 82.466 82.466 0 01-12.017 6.758" fill="#090907"/><path d="M344.564 348.187c-9.17-.511-11.587-6.439-11.692-6.712a1.069 1.069 0 011.993-.778c.099.249 2.441 5.741 11.884 5.369 9.443-.372 11.483-7.293 11.564-7.589a1.074 1.074 0 112.069.581c0 .087-2.458 8.716-13.546 9.164-.802.035-1.557 0-2.272 0m-1.209-46.808a20.25 20.25 0 006.974 7.926c1.464 1.029 3.306 1.778 4.166 3.44a5.234 5.234 0 01-.308 4.824c-1.034 1.807-2.795 2.969-4.521 4.067a.806.806 0 01-1.104-.162.794.794 0 01.163-1.11c1.412-.884 2.905-1.796 3.864-3.191.744-1.069 1.116-2.679.413-3.858a5.238 5.238 0 00-1.842-1.581 34.735 34.735 0 01-2.15-1.412 24.438 24.438 0 01-3.882-3.487 19.53 19.53 0 01-3.225-4.881c-.425-.924 1.052-1.488 1.476-.581" fill="#AB8935"/><path d="M267.666 491.797s1.941 14.272-9.083 13.296l9.083-13.296z" fill="#4F735F"/><path d="M267.666 491.797s1.941 14.272-9.083 13.296" stroke="#335137" stroke-width="2" stroke-miterlimit="10" stroke-linecap="round"/><path d="M409.166 503.413c-1.389 1.035-10.146-2.533-10.071-7.432l10.071 7.432z" fill="#4F735F"/><path d="M409.166 503.413c-1.389 1.035-10.146-2.533-10.071-7.432" stroke="#335137" stroke-width="2" stroke-miterlimit="10" stroke-linecap="round"/></svg>