<svg width="273" height="109" fill="none" xmlns="http://www.w3.org/2000/svg"><path d="M37.171 27.11c-15.079 0-27.346 14.093-27.346 31.41 0 17.319 12.267 31.417 27.346 31.417s27.346-14.09 27.346-31.416c0-17.327-12.267-31.414-27.346-31.414" fill="#003DA6"/><path d="M37.17 82.687c-5.154 0-10.055-2.394-13.8-6.733-3.97-4.615-6.159-10.804-6.159-17.433S19.4 45.704 23.371 41.1c3.744-4.348 8.645-6.742 13.8-6.742 5.155 0 10.056 2.394 13.8 6.742 3.971 4.608 6.16 10.795 6.16 17.421 0 6.626-2.191 12.818-6.16 17.427-3.744 4.345-8.645 6.732-13.8 6.732v.007zm0-55.072c-14.795 0-26.83 13.864-26.83 30.905 0 17.04 12.035 30.904 26.83 30.904 14.797 0 26.831-13.857 26.831-30.903s-12.034-30.905-26.83-30.905" fill="#FFD100"/><path d="M59.189 61.654l2.856-.956c.22-.07.286-.094.289-.15.002-.056-.066-.094-.325-.228-.22-.111-.706-.352-1.355-.678-.545-.277-.783-.41-1.203-.614-.286-.136-.358-.208-.392-.27a.385.385 0 01-.043-.222c0-.045 0-.071-.035-.075-.035-.004-.043.036-.047.092-.009.136-.009.346-.013.423 0 .056-.029.245-.043.467-.007.085 0 .129.037.129.036 0 .039-.034.043-.075a.614.614 0 01.032-.176.09.09 0 01.093-.053.602.602 0 01.164.049c.295.13 1.73.799 2.219 1.02v.02l-2.12.64c-.116.042-.236.07-.358.08a.11.11 0 01-.093-.051.32.32 0 01-.024-.176c0-.039 0-.065-.035-.069-.035-.004-.043.046-.047.101-.015.222-.013.438-.022.548-.006.157-.036.412-.052.647 0 .069 0 .118.033.12.032.003.041-.008.045-.051a.716.716 0 01.03-.174c.055-.155.109-.23.368-.316l-.002-.002zm.078 5.57c-1.108-.268-1.253-.907-1.128-1.406.174-.711.93-1.122 1.923-.883 1.285.31 1.263 1.05 1.187 1.356-.203.834-1.058 1.158-1.982.933zm-.01.633c.782.189 1.863-.082 2.17-1.331.272-1.103-.362-1.993-1.378-2.237-1.017-.245-1.827.27-2.088 1.352-.32 1.306.541 2.033 1.305 2.216h-.01zm-6.255 8.449c.115-.101.194-.084.325 0 .13.084.224.154.783.562l.652.475c.338.245.628.461.769.59.099.092.164.17.13.252a.646.646 0 01-.08.14c-.032.042-.032.066-.015.078.017.013.056 0 .091-.042.109-.147.261-.38.327-.463.216-.29.413-.517.8-1.035.14-.19.131-.22.07-.3a3.641 3.641 0 00-.384-.363c-.043-.032-.066-.043-.082-.02-.015.024-.006.052.022.082a.53.53 0 01.152.259c.032.162-.066.305-.208.495-.21.28-.305.356-.403.379-.13.026-.378-.16-.848-.506l-.653-.473c-.558-.408-.66-.483-.772-.577-.112-.095-.165-.176-.112-.288a.965.965 0 01.092-.146c.033-.043.043-.071.016-.088-.028-.017-.052 0-.089.05-.104.139-.288.41-.355.498-.066.088-.25.317-.377.486-.04.052-.05.085-.023.101.026.017.05 0 .078-.036a.629.629 0 01.099-.111l-.005.001zm-2.983 3.198c.552-.482 1.41-.389 2.087.369.875.981.431 1.576.194 1.784-.653.567-1.535.348-2.167-.359-.751-.845-.505-1.451-.114-1.794zm-.261 2.31c.535.6 1.577.988 2.547.137.857-.754.85-1.844.158-2.62-.693-.775-1.657-.811-2.498-.074-1.013.89-.727 1.973-.207 2.557zm-16.83 5.49c0 .033.022.052.078.063.181.028.46.062.562.077.102.016.392.082.693.13.05.006.086 0 .093-.03.006-.03-.017-.043-.066-.05a1.543 1.543 0 01-.224-.053c-.13-.04-.148-.13-.141-.252.017-.193.076-.549.147-.982l.13-.786c.116-.681.138-.806.172-.945.034-.14.082-.226.206-.228a.62.62 0 01.13.009c.046.006.072 0 .079-.032.006-.033-.03-.043-.085-.052-.17-.03-.434-.06-.547-.08-.112-.019-.407-.08-.574-.11-.073-.01-.11 0-.112.02-.003.02.017.048.063.054a.659.659 0 01.157.047c.092.039.124.12.109.273-.016.153-.037.27-.156.953l-.13.786c-.076.434-.13.786-.188.972-.037.13-.076.198-.167.202a1.004 1.004 0 01-.164-.01c-.054-.01-.074 0-.076.023l.01.002zm-13.154-7.748c-.022.02-.009.052.03.094.13.13.33.326.401.398.253.259.437.496.885.962.16.17.194.17.286.12a3.56 3.56 0 00.428-.312c.039-.036.052-.056.032-.079-.02-.023-.053-.013-.086.01a.542.542 0 01-.28.104c-.166 0-.291-.116-.456-.29-.243-.251-.299-.359-.303-.46-.006-.13.225-.343.653-.74l.582-.552c.504-.475.595-.563.707-.657.112-.095.204-.13.306-.06.045.037.089.076.13.118.037.039.063.052.085.03.022-.022 0-.05-.035-.095-.122-.13-.36-.356-.435-.431-.076-.075-.269-.303-.414-.453-.05-.05-.075-.065-.099-.043-.023.022-.013.045.024.082a.807.807 0 01.091.117c.08.13.054.205-.055.316-.108.112-.19.196-.694.672l-.585.552c-.302.286-.566.535-.72.647-.108.08-.197.13-.273.08a.824.824 0 01-.13-.106c-.035-.038-.059-.042-.076-.026l.001.002zm-2.22-4.015l.914-.584a.03.03 0 01.01-.007.027.027 0 01.032.007c.034.056.06.094.1.163.076.11.114.24.111.372a1.076 1.076 0 01-.522.854c-.4.26-.677.03-.783-.137a.807.807 0 01-.13-.303c-.03-.153.03-.206.283-.369l-.014.004zm1.24-.506a1.058 1.058 0 01-.104-.183c0-.016 0-.032.026-.052l.937-.613c.043-.026.063-.03.089 0a.776.776 0 01.088.117c.21.323-.032.685-.288.851a.604.604 0 01-.506.108.449.449 0 01-.25-.226l.008-.002zm-2.277.075c-.026.02-.023.052.01.1.098.15.262.379.322.467.073.111.274.47.332.558.45.691 1.078.73 1.49.466.45-.287.476-.838.39-1.216.302.097.605.153.914-.049.204-.13.496-.49.053-1.165-.083-.13-.187-.268-.308-.453-.05-.075-.192-.318-.323-.518-.036-.06-.062-.08-.088-.062-.027.016-.02.045 0 .084a.96.96 0 01.084.156c.052.142.013.21-.114.3-.128.091-.224.157-.81.533l-.673.434c-.355.225-.652.42-.831.504-.119.056-.218.093-.28.026a.725.725 0 01-.105-.123c-.03-.046-.05-.053-.07-.042h.007zm-3.932-10.652c-.028.007-.039.04-.026.099.04.173.112.446.13.547.019.101.072.389.131.683.01.045.03.077.063.07.032-.006.03-.029.02-.077a1.726 1.726 0 01-.03-.225c-.01-.13.083-.183.204-.222.187-.062.542-.137.953-.225l1.794-.373c.049-.01.079 0 .092.016a.664.664 0 01-.026.642.884.884 0 01-.615.401c-.457.095-.812-.185-.865-.43-.02-.092-.04-.121-.076-.115-.037.007-.029.04-.029.062s.013.073.016.095a1.054 1.054 0 00.471.708 1.073 1.073 0 00.844.137.79.79 0 00.483-.33c.054-.084.197-.322.08-.867-.043-.202-.109-.453-.149-.632-.026-.13-.072-.401-.121-.633-.016-.065-.03-.095-.063-.088-.033.006-.033.036-.022.081.012.058.02.117.022.176 0 .15-.065.2-.213.241-.147.042-.26.066-.947.21l-.783.166c-.411.088-.764.163-.957.18-.13.009-.237.009-.274-.075a.751.751 0 01-.048-.155c-.013-.051-.03-.068-.053-.062l-.006-.005zm-.556-4.965c.01.18.04.46.046.562.016.259.007.564.046 1.239.01.17.013.208.13.234.17.02.34.03.51.027.046 0 .083 0 .079-.04-.004-.04-.02-.038-.07-.045-.19-.02-.288-.069-.35-.18a1.167 1.167 0 01-.08-.417c-.026-.457.037-.532.352-.558.13-.013.552-.032.708-.041l.361-.024c.026 0 .046 0 .046.026 0 .105.03.548.023.633-.008.166-.073.235-.162.26a1.176 1.176 0 01-.164.03c-.022 0-.04.008-.04.042s.053.035.092.035c.04 0 .214-.007.307 0 .233 0 .31.02.335.015.026-.004.035-.013.033-.032-.003-.02-.024-.039-.063-.069-.039-.03-.065-.103-.082-.208a13.56 13.56 0 01-.05-.715c0-.026.017-.032.046-.035l1.155-.068c.033 0 .048.006.048.03 0 .087.024.556.021.635-.014.225-.066.273-.149.31a.61.61 0 01-.16.036c-.043 0-.063.013-.063.043s.03.038.052.041h.303c.21 0 .261.022.299.02.038-.003.043 0 .04-.03a.3.3 0 00-.023-.072 1.624 1.624 0 01-.037-.189 64.74 64.74 0 01-.071-1.116c-.007-.143-.01-.407-.028-.647 0-.065-.013-.095-.045-.095-.033 0-.04.03-.036.08.005.058.005.117 0 .175-.023.15-.095.19-.249.206-.154.017-.274.026-.967.068l-.802.046c-.42.026-.783.046-.973.035-.13-.009-.237-.026-.26-.114a.72.72 0 01-.03-.159c0-.052-.018-.072-.04-.069-.022.004-.043.033-.039.091l.001.004zm1.957-4.644l1.38.13c.037 0 .056.016.063.045.01.079.01.159 0 .238-.024.259-.25.665-.898.603-.372-.032-.569-.182-.652-.325a.449.449 0 01-.046-.323c.008-.115.034-.228.075-.336.016-.03.037-.036.09-.03l-.012-.002zm.418-.49l-.8-.075c-.418-.04-.784-.075-.968-.114-.13-.03-.227-.062-.236-.154a.607.607 0 010-.159c0-.056 0-.075-.03-.075s-.048.026-.055.084c-.017.176-.03.46-.036.545-.007.065-.053.389-.076.648 0 .058 0 .09.037.094.036.004.039-.017.041-.053a1.57 1.57 0 01.04-.215c.03-.13.131-.15.262-.15.193 0 .552.03.976.069l.062.006c.027 0 .036.017.033.039l-.046.388a.092.092 0 01-.04.078c-.072.053-.4.23-.67.382-.371.219-.601.365-.726.548a.939.939 0 00-.13.47l-.04.423c0 .053 0 .085.04.088.038.002.036-.016.038-.052a.871.871 0 01.361-.596c.309-.238.743-.508 1.289-.857.331.486.627.648.963.685a.806.806 0 00.652-.244c.171-.234.266-.514.273-.803.013-.137.03-.477.047-.63.01-.091.048-.37.072-.606 0-.07 0-.101-.033-.104-.032-.003-.043.022-.05.071a.859.859 0 01-.03.174c-.045.146-.12.172-.275.17-.154-.003-.276-.018-.967-.082l.022.008zm2.02-6.957l.585.335-.575.317.181.648-.632-.183-.323.592-.316-.578-.652.18.184-.629-.585-.337.574-.316-.18-.647.632.183.331-.588.316.577.652-.178-.193.624zm1.107.339l-.808-.46.261-.875-.894.245-.44-.799-.457.81-.875-.26.247.897-.799.438.81.46-.262.874.898-.245.434.799.46-.81.874.26-.246-.898.797-.436zm.55 23.046s-.098-.27-.184-.483c-.024-.058-.043-.084-.072-.071-.029.013-.03.038-.01.085.02.05.037.102.049.155.026.148-.03.21-.171.275-.141.065-.25.111-.894.369l-.529.221c-.437.176-.824.317-1.15.183a.868.868 0 01-.46-.48.813.813 0 01-.039-.59c.089-.27.295-.495.913-.74l.596-.237c.644-.26.763-.307.9-.352.137-.046.237-.05.307.054a.752.752 0 01.058.118c.02.039.037.062.066.05.028-.014.027-.044 0-.108-.063-.148-.182-.406-.22-.503-.053-.13-.146-.388-.237-.613-.024-.063-.046-.088-.076-.076-.03.014-.026.04-.006.086.022.055.04.112.052.17.026.146-.029.208-.171.273-.142.065-.25.111-.894.369l-.619.247c-.614.249-.863.532-.972.822-.158.415 0 .816.082 1.036.116.32.349.584.653.74.446.226.966.07 1.435-.12l.455-.18c.644-.259.762-.307.9-.352.138-.045.238-.05.305.056a.597.597 0 01.06.114c.02.051.04.072.07.062.03-.01.026-.046 0-.105-.066-.16-.184-.417-.204-.466l.006-.01zm3.777-31.045l-.391-.313c-.181-.141-.322-.259-.428-.343-.106-.084-.154-.185-.095-.293a.623.623 0 01.066-.105c.02-.026.029-.051.007-.068-.022-.017-.056 0-.093.043-.093.113-.23.309-.318.416-.09.108-.273.318-.418.496-.04.05-.053.082-.023.105.03.023.045 0 .069-.032.037-.046.077-.09.121-.13.119-.094.201-.081.326.013.126.095.243.19.424.33l.335.267c.06.05.096.099.08.17a1.002 1.002 0 01-.202.33c-.595.736-1.554.76-2.324.15-.437-.35-.604-.685-.615-1.015a1.28 1.28 0 01.336-.867c.22-.297.547-.497.913-.559a.64.64 0 01.392.116c.032.02.056.028.075 0 .02-.029.014-.052-.043-.097a6.58 6.58 0 01-.567-.49c-.024-.02-.043-.023-.082.016a3.55 3.55 0 01-.261.245c-.2.175-.386.366-.556.57a2.144 2.144 0 00-.522 1.125 1.69 1.69 0 00.677 1.533c.986.784 2.01.353 2.701-.502.218-.273.454-.647.522-.968.01-.063.007-.072-.092-.147l-.014.004zm4.059-3.64c.102-.486-.188-.943-.497-1.344l-.295-.389c-.422-.547-.5-.647-.582-.77-.082-.123-.106-.215-.024-.306a.541.541 0 01.096-.088c.043-.033.06-.055.039-.081-.021-.026-.049-.013-.102.022-.137.107-.355.287-.392.32 0 0-.24.163-.421.303-.052.04-.07.066-.052.087.017.023.05.017.088-.012a.86.86 0 01.131-.085c.138-.066.21-.03.312.088.102.118.175.213.595.757l.348.453c.287.373.522.705.48 1.05a.87.87 0 01-.344.57.83.83 0 01-.562.19c-.286-.01-.559-.15-.963-.675l-.392-.502a18.607 18.607 0 01-.58-.77c-.082-.12-.108-.215-.026-.306a.708.708 0 01.096-.092c.036-.026.052-.048.032-.075-.02-.027-.048-.013-.104.027-.13.097-.346.28-.43.346-.109.08-.342.24-.533.388-.053.043-.073.069-.053.095.019.026.046.015.086-.017.047-.035.096-.066.147-.095.138-.064.21-.028.313.088.103.117.174.213.594.76l.405.529c.401.518.743.684 1.055.71.444.043.796-.208.987-.352.282-.195.477-.49.545-.825h.003zm.622 44.947c.017-.02-.006-.05-.054-.086-.139-.097-.363-.24-.454-.305-.092-.065-.325-.26-.468-.353-.056-.042-.091-.06-.108-.036-.017.023 0 .052.033.078a.65.65 0 01.118.111c.07.075.06.163-.026.294-.085.13-.151.224-.562.777l-.47.647c-.261.356-.474.648-.605.787-.09.098-.157.143-.24.108a.6.6 0 01-.142-.082c-.045-.03-.065-.03-.082-.01-.017.02 0 .052.046.088.149.105.385.259.471.32.086.06.318.247.561.42.04.03.076.04.095.013.02-.025 0-.042-.035-.07a2.054 2.054 0 01-.177-.148c-.1-.095-.076-.179-.013-.286.101-.168.311-.457.571-.816l.474-.647c.407-.558.483-.66.578-.777.095-.118.175-.163.286-.112a.716.716 0 01.119.069c.036.027.062.034.084 0v.016zm3.725-50.723c-.013-.03-.049-.026-.105 0-.13.053-.313.147-.391.176-.052.023-.234.082-.441.167-.081.032-.115.058-.102.09.013.033.05.021.086 0a.667.667 0 01.178-.049.086.086 0 01.084.059.557.557 0 01.03.17c.017.319.044 1.892.057 2.427l-.017.006-1.515-1.605a1.295 1.295 0 01-.23-.284.105.105 0 010-.103.324.324 0 01.151-.099c.037-.016.059-.032.046-.062-.013-.03-.061-.02-.111 0-.208.088-.405.183-.506.228-.145.06-.392.144-.608.236-.063.026-.109.049-.093.081.016.033.026.033.066.02a.552.552 0 01.168-.052c.168-.02.26 0 .45.189l2.124 2.123c.163.163.213.211.261.19.049-.023.055-.102.062-.39 0-.244.006-.776.016-1.502.007-.61.024-.88.02-1.344 0-.312.033-.41.073-.469a.382.382 0 01.18-.13c.043-.019.066-.038.053-.064l.014-.01zm.995 53.211c.014-.026 0-.052-.04-.079-.117-.065-.232-.155-.381-.247a4.648 4.648 0 00-.582-.297c-.617-.259-1.084-.268-1.502-.12a1.836 1.836 0 00-1 .985 1.81 1.81 0 00-.002 1.398c.233.49.652.819 1.223 1.063.247.115.511.19.782.222a.167.167 0 00.161-.074c.123-.165.234-.338.333-.518.013-.032.02-.065-.01-.078-.03-.013-.049 0-.092.063a.764.764 0 01-.261.214c-.25.12-.49.066-.859-.094-.554-.234-1.087-1.05-.652-2.038.173-.405.427-.766.85-.917a1.168 1.168 0 01.888.076c.381.163.652.414.73.616a.643.643 0 01-.007.453c-.026.058-.033.094 0 .111s.059-.017.089-.075c.045-.081.14-.31.21-.444.069-.133.105-.189.119-.221l.003.001zm4.26-50.883c.007-.17.002-.34-.017-.51-.007-.04-.01-.077-.046-.073-.036.004-.036.022-.039.074 0 .19-.047.291-.151.362-.13.064-.27.103-.415.114-.453.066-.535 0-.587-.303-.024-.13-.08-.54-.104-.695l-.052-.355c0-.026 0-.045.024-.049.104-.013.548-.071.634-.075.167-.006.24.052.277.137.02.059.028.118.039.16a.037.037 0 00.014.03.037.037 0 00.032.006c.042-.007.032-.056.03-.09-.003-.036-.024-.213-.027-.305-.02-.232-.01-.307-.014-.333-.004-.026-.016-.035-.035-.032-.02.002-.037.03-.063.069-.026.038-.099.075-.203.098-.105.023-.615.097-.714.11-.026.006-.033-.013-.04-.043l-.164-1.138c0-.028 0-.045.026-.048.089-.013.559-.068.635-.072.227-.007.279.042.322.118.026.05.044.103.052.159 0 .039.017.062.05.056.032-.007.036-.033.036-.056 0-.056-.02-.26-.02-.3a2.276 2.276 0 010-.297c0-.02-.01-.039-.032-.035a.366.366 0 00-.07.028 2.552 2.552 0 01-.187.054c-.082.02-.974.142-1.117.165-.144.024-.409.046-.645.08-.065.008-.095.021-.093.051.003.03.034.039.083.032a.838.838 0 01.177-.013c.152.01.198.078.227.228.029.15.05.268.149.953l.115.789c.059.411.11.766.115.96 0 .129-.007.233-.093.258a.658.658 0 01-.158.043c-.052.006-.068.022-.065.045.002.023.036.039.095.032.178-.026.457-.081.559-.094.26-.039.569-.052 1.243-.15.167-.022.206-.029.224-.15l-.007.005zm2.898 51.638c-.17 0-.437.03-.548.032-.13 0-.415 0-.586.008-.072 0-.108.015-.108.041 0 .026.03.047.073.043.055-.004.11 0 .165.013.097.017.147.094.164.249.017.154.016.27.042.958l.03.799c.017.44.03.798.017.989-.01.13-.034.21-.13.23a.634.634 0 01-.161.027c-.054 0-.07.016-.07.04 0 .022.033.042.092.038.181 0 .463-.03.565-.032.122 0 .408 0 .703-.013.05 0 .086-.017.086-.05 0-.032-.023-.036-.075-.032a1.958 1.958 0 01-.23-.01c-.13-.013-.17-.095-.188-.215-.026-.196-.039-.552-.056-.992l-.029-.799c-.027-.689-.03-.815-.027-.962.002-.146.036-.234.158-.259a.659.659 0 01.13-.016c.042 0 .072-.013.07-.05-.003-.036-.037-.035-.097-.032l.01-.005zm1.4-53.11a.46.46 0 01-.328.041 1.249 1.249 0 01-.336-.085c-.028-.017-.035-.037-.028-.085l.16-1.37c0-.036.017-.052.046-.059a.96.96 0 01.24.01c.26.03.664.26.589.907-.044.367-.198.56-.342.647v-.005zm1.681 1.864c0-.023-.013-.04-.05-.043a.58.58 0 01-.123-.03c-.067-.019-.247-.07-.467-.36-.23-.311-.494-.748-.832-1.295.496-.316.671-.606.71-.943a.772.772 0 00-.233-.647 1.443 1.443 0 00-.799-.286c-.14-.017-.483-.043-.634-.063-.096-.01-.375-.055-.612-.081-.07-.01-.098 0-.105.03-.006.03.023.041.072.047a.905.905 0 01.174.033c.145.05.17.13.162.28-.01.152-.024.271-.102.956l-.096.793c-.026.32-.07.64-.13.955-.033.13-.065.225-.157.236a.718.718 0 01-.164 0c-.054 0-.073.006-.076.03-.002.023.026.049.085.055.178.02.463.04.546.048.082.01.398.06.652.092.059 0 .093 0 .095-.036.003-.036-.013-.039-.05-.042a2.35 2.35 0 01-.216-.042c-.13-.036-.147-.137-.145-.268 0-.192.04-.548.089-.969l.01-.062c0-.026.016-.035.04-.032l.391.055a.08.08 0 01.076.04c.053.074.22.403.372.675.21.374.355.606.536.73.14.091.303.14.47.14l.424.05c.056 0 .085 0 .091-.033l-.004-.013zm6.31-1.067c.017-.032-.026-.055-.078-.079-.204-.086-.366-.14-.411-.159-.087-.039-.28-.137-.498-.228-.061-.026-.108-.043-.121-.01-.013.032 0 .045.05.068a.653.653 0 01.207.118c.082.084.085.179-.023.434l-.769 1.888-.023-.007c-.04-.097-.339-.936-.496-1.34a58.635 58.635 0 01-.704-1.889c-.036-.103-.05-.172-.095-.191-.046-.02-.08.036-.116.117l-1.11 2.443c-.161.363-.23.477-.353.464a1.03 1.03 0 01-.197-.058c-.04-.021-.07-.021-.078 0-.01.02.02.058.071.081.214.092.415.163.455.18.078.033.236.117.506.232.059.026.098.032.115 0s-.013-.047-.056-.066a.609.609 0 01-.204-.12c-.07-.065-.076-.196.056-.526l.717-1.767h.009c.043.11.276.828.53 1.47.246.614.536 1.387.69 1.746.026.064.056.13.099.152.043.024.072-.013.11-.107l1.191-2.606c.106-.23.175-.306.305-.29a.644.644 0 01.13.039c.053.023.083.02.092 0l-.001.011zm.784 52.665c-.013-.022-.043-.016-.08 0a1 1 0 01-.272.075c-.141.02-.236-.081-.392-.324l-1.566-2.364c-.054-.081-.097-.11-.13-.094-.033.015-.046.062-.043.14l-.007 2.86-2.205-1.796c-.106-.082-.138-.092-.171-.08-.033.014-.04.067-.02.142l.858 2.866c.047.147.089.323-.013.4a.632.632 0 01-.118.07c-.04.02-.062.04-.053.059.009.02.056.028.095.013.13-.063.322-.167.402-.202.08-.035.261-.11.433-.187.06-.03.093-.052.076-.09-.017-.04-.043-.015-.076 0a.745.745 0 01-.18.058.15.15 0 01-.184-.075 1.733 1.733 0 01-.08-.2l-.558-1.73h.016c.29.24.783.647.854.713.106.092.725.57.914.714.121.091.203.157.24.138.036-.02.04-.063.043-.297l.01-2.28h.016l1.098 1.692c.069.108.082.167.062.187-.02.02-.032.045-.022.064.01.02.042.026.137-.01.171-.06.74-.312.842-.358.06-.026.102-.061.086-.095l-.012-.01zm4.58-48.801c.019-.024 0-.052-.05-.092-.13-.11-.364-.277-.405-.312 0 0-.216-.19-.391-.337-.05-.039-.078-.05-.098-.026-.02.023-.007.05.032.082a.75.75 0 01.118.111c.093.117.076.196-.016.322-.091.127-.168.215-.605.75l-.362.44c-.299.36-.569.67-.92.705a.872.872 0 01-.638-.198.834.834 0 01-.318-.5c-.056-.28.02-.574.44-1.085l.404-.49c.441-.534.522-.633.621-.74.1-.108.184-.153.294-.095a.55.55 0 01.11.072c.033.025.06.036.08.012.02-.023 0-.051-.05-.094-.13-.104-.354-.27-.436-.34-.106-.084-.316-.273-.504-.423-.052-.042-.082-.051-.102-.03-.02.023-.006.05.034.082.047.037.09.077.13.12.096.118.076.197-.016.32-.093.123-.165.22-.605.754l-.421.518c-.42.508-.502.876-.457 1.183.063.438.392.717.576.867.254.23.59.351.933.337.503-.014.88-.399 1.203-.787l.31-.378c.44-.53.521-.632.62-.737.1-.105.184-.156.293-.098.039.022.076.046.112.072.039.037.069.046.089.02l-.006-.005zm2.707 3.227c.026-.02.013-.049-.027-.098a16.919 16.919 0 00-.392-.466c-.066-.078-.244-.327-.374-.49-.04-.051-.07-.07-.093-.051-.023.019-.017.045.013.084.033.04.06.083.082.13.07.129.033.208-.082.309-.115.1-.21.176-.755.607l-.632.496c-.329.259-.61.479-.775.58-.116.068-.208.114-.28.056a.842.842 0 01-.116-.118c-.032-.043-.054-.046-.071-.033-.017.013-.017.052.02.099.111.14.298.352.365.433.225.284.391.531.792 1.036.145.183.177.185.273.143.157-.078.309-.169.452-.271.043-.032.06-.052.04-.075-.019-.023-.049-.02-.085 0a.574.574 0 01-.286.078c-.167-.013-.28-.147-.43-.333-.217-.273-.262-.389-.262-.486.007-.13.253-.316.714-.678l.63-.496c.543-.427.645-.509.766-.59.122-.082.214-.11.306-.033a1.5 1.5 0 01.122.13c.033.042.055.055.083.036l.002.001zm1.151 31.662a1.578 1.578 0 011.216.095c.425.2.763.457.868.822.098.346.05.659-.145 1.07-.154.32-.315.437-.417.454a1.101 1.101 0 01-.336-.102c-.082-.033-.4-.18-.841-.389l-.522-.245-.825-.388a.084.084 0 01-.059-.088c.022-.096.054-.188.096-.277.15-.313.42-.754.963-.953l.002.001zm.115-.604c-.68.219-1.002.894-1.242 1.4-.115.244-.227.504-.286.628-.059.125-.187.363-.29.578-.029.062-.032.092 0 .107.033.016.046 0 .07-.051a.814.814 0 01.088-.155c.092-.116.171-.12.316-.06s.253.107.88.4l.726.343c.383.178.708.333.872.434.112.07.194.137.171.225a.868.868 0 01-.052.153c-.024.045-.02.068 0 .079.02.01.052-.007.08-.063.078-.16.186-.42.23-.517.094-.202.318-.542.46-.84.355-.745.26-1.303.158-1.58a1.837 1.837 0 00-.944-.983 1.662 1.662 0 00-1.237-.1v.002zm2.337-22.717l.586.335-.571.317.177.648-.632-.183-.332.587-.315-.578-.652.18.184-.63-.585-.336.574-.316-.18-.647.632.183.331-.588.316.577.653-.178-.186.629zm1.108.339l-.822-.465.261-.875-.894.245-.437-.8-.46.81-.875-.259.247.897-.799.438.81.46-.262.873.898-.244.437.799.457-.81.874.26-.246-.898.811-.431zm.261 8.277c0 .016-.013.022-.029.02l-1.157-.314c-.02 0-.043-.009-.046-.022-.002-.013.023-.02.04-.027l1.09-.498a.023.023 0 01.02.002.023.023 0 01.008.007.023.023 0 01.002.01l.072.822zm1.51 1.07c-.02-.232-.056-.477-.06-.525-.013-.137-.016-.33-.029-.474 0-.048-.017-.075-.053-.071-.037.004-.033.016-.029.069l.007.068c.013.136-.043.183-.13.19a.821.821 0 01-.287-.043l-.67-.183c-.03 0-.04-.017-.04-.039l-.088-.995a.041.041 0 01.026-.046l.937-.44a.075.075 0 01.108.03c.007.045.02.062.046.062s.026-.06.023-.137c-.02-.359-.05-.685-.062-.846-.014-.16-.03-.204-.066-.202-.035.003-.034.026-.03.063a.933.933 0 010 .188c-.013.095-.065.232-.459.434-.67.346-2.466 1.22-2.705 1.35-.103.052-.142.082-.139.13.004.048.06.065.194.108l2.958.87c.237.072.402.14.445.343.01.046.018.092.022.14 0 .036.013.053.04.049.025-.004.046-.03.04-.088" fill="#003DA6"/><path d="M46.256 67.96a1.13 1.13 0 00-.088.19.66.66 0 00-.033.495.82.82 0 00.073.19.443.443 0 00-.365.486.049.049 0 01-.017 0c-.306-.142-.795-.048-1.044-.195a.802.802 0 01-.154-.163c-.083-.101-.16-.203-.253-.297-.297-.365-.671-.861-.96-1.23l.261.053c-.287-.528-.612-1.054-.69-1.66l-.02-.117a5.37 5.37 0 001.51-1.214c.051 1.289.652 2.783 1.77 3.474l.01-.012zM35.05 42.652c-.374-.102-.965-.267-1.244-.13v-.372c.44-.146.989.294 1.245.505v-.004zm-3.644 23.063l-.017.116c-.082.605-.407 1.127-.69 1.66l.26-.052c-.287.367-.664.863-.956 1.228a3.34 3.34 0 00-.261.297.684.684 0 01-.154.163c-.244.148-.733.053-1.044.197a.426.426 0 00-.08.045l-.052.039a.274.274 0 01-.01-.026l-.194-.388.24.016c0 .016.014.035.02.052a.296.296 0 00.292.162.301.301 0 00.113-.032.302.302 0 00-.261-.541.279.279 0 00-.13.129l-.228-.013a2.203 2.203 0 00.799-1.781 4.64 4.64 0 00.818-2.489c.432.494.95.907 1.53 1.22l.005-.002zm-7.619-5.633l-.592-1.194.24.016.02.053a.3.3 0 00.332.16v.965zm29.43-3.562a.927.927 0 01-.67.31.641.641 0 00.032.225.386.386 0 00-.302.147.378.378 0 00-.069.326 1.38 1.38 0 00-1.111.33c.627.44-.085 1.598-.358 1.878.048.08.107.153.174.218a.436.436 0 00-.207.225.47.47 0 01-.062.378l-.08.15v-12.05c-.032-2.238-.903-4.208-3.076-5.18a20.907 20.907 0 00-2.74 1.943l-.231.199c.142.343.365 1.286.207 1.964-.023.097-.036.117-.065.209-1.174.122-2.218.942-3.313 1.37a5.56 5.56 0 01-.881.266c-.458-.48-.608-1.157-.711-1.703-.118-.618-.09-1.294-.118-2.02.167-.76.302-1.413.158-1.943a.86.86 0 01.342.206 2.478 2.478 0 00-.415-.989c.16.004.318.036.467.095-.102-.463-.188-.544-.49-.83a.801.801 0 00.451-.4c-.694.016-1.15-.276-1.746-.737a3.345 3.345 0 00-1.495-.57c-.671-.068-1.966-.042-1.799.92-.299-.105-.72-.2-.94-.14a.996.996 0 00-.374.176v-.709h.444a.812.812 0 01.522.196.792.792 0 00.143-.496.807.807 0 00-.143-.498.8.8 0 01-.522.2h-.444v-.439a.802.802 0 01.197-.517.918.918 0 00-.993 0 .801.801 0 01.197.517v.448h-.444a.799.799 0 01-.522-.199.784.784 0 00-.144.498.772.772 0 00.145.496.807.807 0 01.521-.195h.444v2.6c0 .114-.119.238-.198.316.213.168.383.383.497.629.12-.243.29-.457.5-.63-.08-.077-.197-.201-.197-.315v-.715c.453.238 1.491.9 1.63 1.334.13.472-.017 1.115-.033 1.803-.017.867-.612 2.825-1.614 3.625-1.41-.238-2.647-1.486-4.1-1.64l-.032-.114c-.205-.678.02-1.683.178-2.061l-.231-.2a20.912 20.912 0 00-2.74-1.942c-2.174.969-3.044 2.94-3.077 5.18v9.856a.293.293 0 00-.325.152l-.391-.023c.43-.526.608-1.102.13-2.166a2.52 2.52 0 00-.48.704c-.312-.618-1.056-.964-1.13-.983a2.93 2.93 0 00.109 1.457 2.534 2.534 0 00-.833 0c.566.969.977 1.166 1.815 1.19l-.216.313a.294.294 0 00-.184.026.306.306 0 00-.131.408.3.3 0 00.292.164.304.304 0 00.264-.206.297.297 0 00-.017-.228.219.219 0 00-.026-.05l.13-.202.602 1.211a1.54 1.54 0 00-1.316-.363c.12.225.26.438.418.636a2.041 2.041 0 00-.697.088c.619.975 1.305 1.383 1.993 1.424v.606a.301.301 0 000 .23v.534a2.767 2.767 0 00-.392.062c.111.204.242.396.392.574v.166a2.39 2.39 0 00-.333.085c.1.153.211.298.333.434v6.603c0 .35-.01 1.135-.162 1.487 1-.517 2.036-1.432 2.426-2.478v.355c.345-.204.914-1.157 1.232-1.608.108-.004.215-.019.32-.045l-.13.186a.337.337 0 00-.185.029.308.308 0 00-.13.407.302.302 0 00.404.13.305.305 0 00.137-.405l-.028-.05.13-.201.253.502-.226.18c-.23.166-.32.346-.283.528-.23.24.007.747.223.939a.6.6 0 01.033-.15c-.055.117.158.424.27.411-.052.222.296.535.418.477-.02.13.26.413.44.296h.006l.31-.259c.079.33.083.671.012 1.002.35.069.678.213.963.424.005-.36.09-.713.247-1.036a1.77 1.77 0 01-.799-.63l-.043-.08.015-.011a.78.78 0 00.42-.606c.095-.324.207-.399.348-.603.612-.8 1.282-1.554 1.937-2.313l.082.251c.332-.603.96-1.197 1.492-1.624.19.072.381.147.573.225.223.092.45.186.67.294-.41 2.791-2.48 4.983-4.177 7.083a16.95 16.95 0 012.348 1.007 17.38 17.38 0 002.156-3.199c-.4 1.23-.894 2.427-1.479 3.581 1.318.79 2.528 1.856 3.169 2.811.64-.955 1.85-2.021 3.168-2.81a25.094 25.094 0 01-1.478-3.582 17.38 17.38 0 002.155 3.2 16.993 16.993 0 012.335-1.001c-1.657-2.072-3.774-4.338-4.176-7.097.201-.094.405-.18.612-.259.208-.079.44-.172.66-.259.533.428 1.16 1.018 1.492 1.625l.082-.251c.653.763 1.326 1.512 1.94 2.312.131.205.25.28.345.604a.774.774 0 00.398.593.422.422 0 00-.292.196.414.414 0 00-.037.349.307.307 0 00-.247.274.303.303 0 00.018.13 1.6 1.6 0 01.041.835c.193-.208.44-.358.714-.434a.304.304 0 00.2-.16.298.298 0 00.004-.254.42.42 0 00.308-.336l.02.013c.177.13.465-.154.446-.29.121.061.47-.26.421-.476.109.013.323-.294.261-.408a.376.376 0 01.033.15c.22-.195.454-.701.223-.94.037-.185-.052-.36-.28-.528a.47.47 0 00.399-.238.454.454 0 000-.408.921.921 0 00.13-.013c.325.447.9 1.35 1.22 1.54v-.355c.39 1.046 1.462 1.982 2.425 2.478-.121-.335-.162-1.138-.162-1.488v-9.059l.75-1.411a.46.46 0 01.28-.26.419.419 0 00.07-.297c.091.018.185.025.278.023.079-.388.637-1.623 1.355-1.35a1.368 1.368 0 00-.349-1.106.393.393 0 00.227-.244.386.386 0 00-.047-.33.666.666 0 00.208-.097.956.956 0 01-.119-.73" fill="#231F20"/><path d="M26.612 69.08a1.89 1.89 0 01-.344.372v-.466c.061.026.279.075.344.094zm-.774-3.532v.209l-.06.092a.304.304 0 00-.155.582c.071.027.15.026.22-.002v.587a2.81 2.81 0 00-.81.089c.142.263.322.504.537.713-.17.03-.337.073-.5.13.206.315.469.59.775.811v.604c0 .699-.575 1.389-1.541 2.084v-6.215a2.03 2.03 0 001.534.316zm.425 1.533v-1.004l.669 1.35a1.78 1.78 0 00-.67-.346zm3.101-3.486c.015.776.015 1.631-.416 2.694a8.911 8.911 0 00-.076-.245 3.068 3.068 0 00-.401.324 2.857 2.857 0 00-.243-.858c-.046.036-.089.075-.13.11V51.17l.631.822.522-.675V62.84c0 .255.04.509.117.752l-.003.003zm-1.692-12.252v14.76c-.23.329-.345.722-.329 1.122l-.825-1.668.24.017.02.05a.302.302 0 00.293.167.307.307 0 00.114-.03.307.307 0 00.13-.406.3.3 0 00-.267-.168.305.305 0 00-.271.162l-.383-.026v-.01c.71-.587 1.03-1.474.586-2.736a2.669 2.669 0 00-.368.307 3.145 3.145 0 00-.253-.852l-.089.079V51.345c.233.202.466.648.7.846l.702-.848zm-1.827-.056v11.321a1.779 1.779 0 00-.273 1.046l-.72-1.445.243.017a.3.3 0 00.574.01.3.3 0 00-.02-.229.296.296 0 00-.403-.137.307.307 0 00-.13.13l-.382-.024-.069-.13c.63-.574.877-1.474.385-2.805-.192.14-.36.31-.493.506a4.14 4.14 0 00-.253-.717v-7.543l.768.907.773-.907zm-1.539 12.17v-.474a.307.307 0 00.007-.374l.13-.202.72 1.444a1.78 1.78 0 00-.86-.388l.003-.006zM40.882 49.74c.082.055.165.103.238.15h1.174a1.68 1.68 0 00-.532-.447 3.924 3.924 0 01-.882.297h.002zm1.125-.45c.162.071.306.177.422.31a1.29 1.29 0 00.292-.656l-.714.345zm1.852.6a2.645 2.645 0 00-.792-.79c-.04.193-.214.473-.48.79h1.272zm-.7-1.106c.372.12.691.365.9.694a3.3 3.3 0 00.493-1.138 3.74 3.74 0 00-1.394.444zm6.892.777l-.63-.86v2.491l.63-.545V49.56zm-1.545.163v.92l.632.548v-2.36l-.632.892zm-.979 1.468l.563-.485v-.979l-.563-.76v2.224zm-.842-.485l.563.485v-2.298l-.563.606v1.207zm-.913.365l.492-.425v-1.138l-.492-.54v2.103zm.492-2.211v-2.015a3.93 3.93 0 01-.76.93c.224.259.438.708.765 1.096l-.005-.011zm.355-1.63v1.7l.634-.874a6.442 6.442 0 01-.634-.825zm1.896-.388v2.003l.608-.77a3.85 3.85 0 00-.608-1.233zm-3.413-1.05c.146.599.188 1.218.122 1.83.76-.61.852-1 .891-1.572 0-.045-.026-.215.046-.23.072-.013.151.178.211.37.166.516.475.976.89 1.327.463-.874.58-1.523.411-2.139a.808.808 0 01-.02-.111c0-.029.03-.13.093-.13s.197.223.217.26c.427.665 1.035 1.444 1.348 2.142.15-.401.241-.822.269-1.25-.47-.834-1.078-1.767-2.045-2.164a20.165 20.165 0 00-2.432 1.673v-.006zm4.324 2.336l.628.541c0-.818-.04-1.477-.251-1.865-.029.306-.164.71-.377 1.324zm-1.933-.114l.67.926-.122-2.233c-.088.328-.288.936-.548 1.307zm-2.384 2.652l.359.329v-2.33l-.277-.596c-.26.674-.66 1.408-1.074 1.835H45.4l-.096.16c-.114.18-.181.387-.194.6v.002zm3.409 1.897v-1.26l.766.906.772-.906v10.39l-.584 1.099c-.083.15-.261.186-.346.326a.373.373 0 00-.029.277.44.44 0 00-.34.225.429.429 0 00-.015.366.391.391 0 00-.224.189V52.563zm0 12.069v-.101l.03.049-.03.052zm0 1.533v3.192c0 .7.575 1.39 1.54 2.085v-7.824a.35.35 0 01-.203.163.434.434 0 01-.292.627.355.355 0 01-.03.29.39.39 0 01-.351.208l-.664 1.259zm-.937 2.668c.13.242.307.456.522.63v-2.515l-.195.365c-.076.171-.12.355-.13.541-.029.314-.059.689-.197.966v.013zm-.888-16.326v-1.165l.7.845c.237-.203.47-.647.704-.845v14.073l-.828 1.563c-.102.155-.23.292-.379.404-.062.051-.13.105-.194.163l-.003-15.038zm-1.588-1.2l.522.682.632-.822v15.899c-1.253-.797-1.28-2.33-1.266-3.496.072-.235.109-.48.108-.726l.004-11.537zM33.48 49.739c-.086.055-.168.103-.24.15h-1.181c.135-.196.322-.35.54-.447.286.12.58.22.881.297zm-1.127-.45a.877.877 0 00-.422.31 1.297 1.297 0 01-.296-.656l.718.345zm-1.852.6c.202-.318.473-.588.793-.79.04.193.213.473.48.79H30.5zm.7-1.106a1.663 1.663 0 00-.9.694 3.222 3.222 0 01-.493-1.138c.49.055.963.206 1.394.444zm-6.892.777l.63-.86v2.491l-.63-.545V49.56zm1.54.163v.92l-.63.548v-2.36l.63.892zm.983 1.468l-.56-.485v-.979l.56-.76v2.224zm.834-.477l-.562.485v-2.306l.562.606v1.215zm.914.365l-.49-.425v-1.138l.49-.541v2.104zm-.49-2.212v-2.022c.206.345.463.657.763.926-.22.259-.438.708-.762 1.096zm-.352-1.64v1.699l-.631-.874c.232-.258.443-.534.631-.825zm-1.896-.388v2.003l-.606-.77a4.49 4.49 0 01.606-1.233zm3.415-1.05a5.326 5.326 0 00-.121 1.829c-.764-.61-.852-1-.895-1.572 0-.045.03-.215-.042-.229-.072-.014-.151.177-.214.369a2.93 2.93 0 01-.888 1.327c-.467-.874-.582-1.523-.415-2.139a.468.468 0 00.021-.111c0-.029-.027-.13-.088-.13-.062 0-.201.223-.218.26-.431.665-1.044 1.444-1.347 2.142a4.358 4.358 0 01-.27-1.25c.47-.834 1.075-1.766 2.04-2.164a19.957 19.957 0 012.437 1.673v-.005zm-4.323 2.335l-.63.541c0-.818.039-1.477.253-1.865.028.307.164.71.377 1.324zm1.934-.114l-.675.926.13-2.233c.09.328.286.936.55 1.307h-.005zm2.381 2.658l-.355.323v-2.33l.28-.596c.26.674.66 1.408 1.071 1.836H28.96l.095.159c.115.183.181.392.194.607v.001zm6.055-.767c.158-.234.275-.492.345-.764-.336.365-.767.63-1.246.764h.901zm3.725 0a3.565 3.565 0 01-1.151-.915c-.05.402-.283.657-.552.915h1.703zm-1.707 0a2.922 2.922 0 01-.559-.907c-.248.372-.58.682-.97.907h1.529zm2.164 0a2.823 2.823 0 01-.254-.562c.257.243.56.434.89.562h-.636zm-5.398-.22c.944-.32 1.788-.942 1.9-2.2.042-.763.033-1.327.059-1.784.035-.096.081-.187.138-.271a.985.985 0 01.124.27c-.059.81-.028 1.905-.15 2.65a3.338 3.338 0 01-.346 1.114c.53-.348.894-.75.881-1.187 0-.283 0-1.554.02-1.83.02-.275 0-.45.017-.746.03-.1.08-.191.147-.271.06.084.109.175.145.27 0 .967-.07 1.909-.026 2.867.02.42.138.728.329.906a1.191 1.191 0 00.355-.906v-2.882c.03-.1.083-.19.154-.268.068.08.12.172.155.27 0 .357 0 .636.007.98.006.343.015 1.232.015 1.571-.006.689.504.998.967 1.276-.158-.303-.361-.54-.361-1.237 0-.818-.102-2.162-.102-2.59a1.25 1.25 0 01.138-.27c.06.085.11.175.15.27 0 .34.007.608.021.928.015.32.066 1.395.079 1.722.13.647.841 1.165 1.335 1.314-1.013-1.048-.888-2.316-.941-3.689a1.4 1.4 0 01.062-.623c.19-.483.277-1.444.112-1.917.108.02.214.046.319.078a4.894 4.894 0 00-.474-.777c.17-.008.339.006.504.042a2.277 2.277 0 00-.621-.622.723.723 0 00.364-.105 5.363 5.363 0 01-1.41-.74 2.95 2.95 0 00-1.1-.46c-.76-.16-1.892-.13-1.648.624.377-.073.617.17 1.044.159.23-.012.458-.04.684-.084.244-.046.497-.028.732.052.227.118.426.284.582.485a.036.036 0 010 .05.04.04 0 01-.05.006c-.22-.13-.367-.284-.624-.356-.356-.074-.752.108-.983.18.189.065.36.173.5.316-.261.137-.381.382-.678.356-.296-.026-.45-.26-.64-.333.11-.139.249-.253.407-.335a1.848 1.848 0 01-.368-.157c-.23-.085-.5-.118-.535-.043.23.541.502.917 1.015 1.474a1 1 0 01-.545-.091c-.261-.13-.552-.026-.645.316.536.336.513 1.26.444 1.977l-.02.313c-.072.977-.25 1.738-.535 2.283-.316.6-.662 1.269-1.101 1.647l-.002.009zm-2.452 16.164a4.266 4.266 0 01-.407 1.194l.598-.244.08.6.554-.232.07.518 1.064-.94a16.66 16.66 0 01-.392-.163 17.748 17.748 0 01-1.565-.734h-.002zm11.086-.001c.076.415.213.817.407 1.193l-.598-.243-.08.6-.56-.231-.066.518-1.064-.94c.13-.052.26-.108.391-.163.48-.205 1.032-.443 1.566-.734h.004zm-5.544 3.384a4.786 4.786 0 011.66-1.683c.398 2.486 2.37 5.071 3.843 6.765-.305.103-.989.335-1.535.58-1.483-1.602-2.751-4.119-3.263-5.278.105 1.6 1.175 4.805 1.65 5.999-.77.44-1.453 1.02-2.35 1.75-.897-.73-1.581-1.31-2.348-1.75.47-1.194 1.545-4.402 1.65-5.999-.523 1.166-1.785 3.676-3.263 5.278a18.79 18.79 0 00-1.536-.58c1.473-1.694 3.445-4.273 3.843-6.765a4.786 4.786 0 011.66 1.683" fill="#FFD100"/><path d="M40.64 62.466c-.315.606-.096 1.48.75 2.03-.13-.57-.13-1.166.098-1.632a1.981 1.981 0 011.229-1.005c-1.024-.397-1.751-.013-2.078.607zm-1.035-.72c-.214.01-.427.019-.638.025l-.115 1.49c-.02.26.042.518.177.74a.047.047 0 00.054.02.051.051 0 00.035-.041c.009-.111.024-.221.046-.33.13-.632.296-1.295.44-1.905zm-.653-1.002l.313.314.312-.314-.312-.313-.313.313zm-3.451 2.517l-.115-1.49a35.37 35.37 0 01-.635-.026c.141.61.303 1.273.438 1.905.023.108.038.219.045.33a.055.055 0 00.037.041c.01.003.02.003.03 0a.046.046 0 00.022-.02c.136-.222.198-.48.178-.74zm-.414-2.2l.312-.314-.312-.313-.312.313.312.313zm-1.113 1.473c-.188-.58-.68-.535-.98-.088a.77.77 0 01.24.736c.503.187.93-.067.74-.647v-.001zm-1.089-.172c.332-.424.224-.907-.385-.907-.608 0-.72.483-.391.907a.75.75 0 01.776 0zm.06 1.262a.741.741 0 01-.376.143c-.023.538.352.864.845.505.493-.358.296-.814-.22-.962a.779.779 0 01-.25.314zm-.262-.056a.584.584 0 10-.368-1.112.59.59 0 00-.404.512.581.581 0 00.322.566.594.594 0 00.45.034zm-1.103.704c.494.36.864.033.842-.505a.731.731 0 01-.372-.143.754.754 0 01-.253-.314c-.515.148-.71.604-.217.962zm-.562-1.738c-.187.581.237.835.74.647a.805.805 0 01.02-.4.754.754 0 01.22-.337c-.299-.446-.792-.492-.98.088v.002zm2.46-4.145c-.494-.28-.95-.502-1.361-.893l-.015-.012-.015.017c-.411.389-.868.613-1.361.894l-.04.019.04.023c.493.277.95.499 1.36.894l.016.012.017-.013c.411-.388.868-.616 1.361-.893l.036-.023-.038-.025zm5-5.103l-.56-.32.178-.6-.621.17-.303-.549-.318.558-.6-.176.172.623-.55.303.56.317-.177.603.62-.17.304.548.318-.56.604.176-.167-.62.54-.303zm.352 12.206c0 .17-.72.291-.855.291a.24.24 0 01-.24-.237.24.24 0 01.239-.237c.131 0 .856.01.856.183zm-2.203.053a.245.245 0 01-.247.238c-.13 0-.855-.121-.855-.291 0-.17.72-.183.855-.183a.24.24 0 01.247.236zm5.49-10.42a2.98 2.98 0 00-.576-2.234c-.365-.51-.887-1.063-1.435-1.364-.042-.022-.105.02-.07.066.14.195.288.381.418.583.385.567.74 1.239.783 1.942.056.968-.522 1.706-1.249 2.267a1.144 1.144 0 01-.352.185c-.089.03-.184.047-.273.073a.615.615 0 00-.342.244c-.253.327-.783.26-1-.075-.054-.092-.229-.075-.298-.01-.151.13-.335.324-.546.324-.21 0-.391-.193-.549-.324-.07-.065-.243-.082-.299.01-.217.33-.746.402-1 .075a.615.615 0 00-.341-.244c-.09-.026-.18-.043-.273-.073a1.14 1.14 0 01-.349-.185c-.736-.56-1.304-1.295-1.251-2.267.055-.923.652-1.806 1.21-2.517.032-.047-.03-.088-.073-.066-.552.3-1.076.855-1.436 1.363a2.999 2.999 0 00-.583 2.227c.214 1.33 1.305 2.339 2.488 2.856l.024.01-.586 1.145c1.101.209 2.035.864 2.065 2.087.019.845.045 1.693.071 2.538a.974.974 0 01-.391.838c-.273.231-.555.453-.835.678-.13.105-.092.365-.033.5.033.074.316.103.385.123.32.08.616.234.864.45a1.487 1.487 0 001.765 0 2.07 2.07 0 01.866-.45c.069-.02.355-.05.383-.123.06-.13.096-.395-.032-.5-.28-.225-.563-.447-.832-.678a.969.969 0 01-.391-.838c.022-.845.052-1.693.068-2.538.03-1.223.964-1.878 2.064-2.087l-.584-1.144.023-.01c1.182-.518 2.277-1.527 2.489-2.857h.013zm1.508 3.307l.04-.023-.04-.02c-.493-.28-.95-.502-1.36-.893l-.018-.017-.015.017c-.411.388-.868.612-1.361.893l-.037.02.036.023c.494.277.95.498 1.362.893l.015.013.017-.013c.411-.388.868-.616 1.361-.893zm.914-7.984c0 4.126-.002 8.257-.007 12.392 0 .2-.03.398-.092.588-.431 1.314-2.35 2.137-3.524 2.642-.757.323-1.525.622-2.261.995-.653.329-1.14.664-1.493 1.304-.355-.64-.849-.975-1.496-1.304-.736-.373-1.506-.672-2.261-.995-1.175-.505-3.094-1.328-3.524-2.642a1.872 1.872 0 01-.092-.587V50.447h14.75zm.652-.45h-16.05c.156.25.231.542.214.835v12.008c0 1.96 2.374 2.99 3.89 3.643.426.182.863.346 1.294.518.394.152.777.334 1.144.544.558.322 1.03.772 1.378 1.312l.115.172.108-.178a3.712 3.712 0 011.247-1.243 7.494 7.494 0 011.216-.587c.453-.182.913-.345 1.361-.538 1.327-.571 3.283-1.424 3.77-2.916a2.29 2.29 0 00.119-.727V50.832a1.435 1.435 0 01.212-.835h-.018zM33.504 44.02c.074-.126.174-.235.292-.322a.628.628 0 01-.13-.317v-1.203a.9.9 0 00-.306.16v1.043a.598.598 0 01-.13.317c.118.086.217.196.29.322h-.016zm1.248-3.236a.757.757 0 00.049-.294.771.771 0 00-.05-.293c-.117.117-.403.144-.521.137h-.552v-.551c-.007-.12.019-.408.138-.526a.823.823 0 00-.296-.048.807.807 0 00-.293.048c.118.118.144.405.137.526v.551h-.552c-.117.007-.404-.02-.522-.137a.77.77 0 00-.05.293c-.003.1.014.2.05.294.118-.118.405-.144.522-.138h.552v1.338c.072-.15.176-.283.306-.389v-.947h.552c.118-.007.404.02.522.137" fill="#FFD100"/><path d="M43.466 62.047C41.9 62 41.1 63.375 41.9 65.009c-1.558-.536-2.088-1.739-1.551-2.8.627-1.234 2.333-.893 3.119-.162h-.002zm-3.541-1.301l-.653.656-.652-.657.652-.655.653.655zm-1.312 2.498l.13-1.706c.392-.013.773-.035 1.175-.048l-.572 2.42a1.695 1.695 0 00-.065.577c-.365-.163-.71-.647-.664-1.243h-.004zM34.45 61.49c.398.013.773.035 1.174.048l.13 1.706c.047.59-.298 1.08-.666 1.243a1.576 1.576 0 00-.065-.577c-.188-.806-.378-1.612-.57-2.42h-.003zm1.302-.745l-.652.657-.653-.657.653-.655.652.655zm-2.088 2.646c.381.267.366.832-.058 1.138-.424.305-.963.15-1.1-.293-.136.443-.675.603-1.1.293-.423-.311-.436-.87-.06-1.138-.463.006-.782-.456-.616-.956.165-.5.69-.687 1.06-.41-.15-.438.19-.887.717-.887.526 0 .865.449.718.887.37-.277.9-.092 1.06.41.161.502-.154.962-.62.956zm10.793-4.98a6.99 6.99 0 00-2.186 1.46 6.812 6.812 0 00-2.14-1.46l.473.923-.322.058c-.993.18-1.855.741-1.877 1.83-.02.848-.05 1.692-.073 2.54a.735.735 0 00.293.633c.272.232.552.45.828.675.234.19.22.564.113.815-.093.209-.366.22-.56.275a1.85 1.85 0 00-.759.423 1.74 1.74 0 01-2.117 0 1.852 1.852 0 00-.764-.423c-.198-.056-.467-.066-.56-.275-.11-.25-.121-.625.112-.815.277-.224.556-.443.825-.675a.736.736 0 00.296-.633c-.026-.848-.056-1.692-.073-2.54-.022-1.089-.883-1.65-1.876-1.83l-.323-.058.474-.923c-.8.346-1.526.842-2.137 1.46-.606-.631-1.418-1.118-2.19-1.46v4.432c0 .188.03.375.089.554.417 1.273 2.324 2.087 3.464 2.577.76.326 1.528.622 2.268.998.563.287 1.128.61 1.446 1.18.316-.57.882-.893 1.447-1.18.736-.376 1.509-.672 2.268-.998 1.138-.49 3.048-1.304 3.465-2.577a1.83 1.83 0 00.085-.554V58.41" fill="#214E9E"/><path d="M34.637 41.835c.086-.013.391 0 .413.105.023.104-.022.137-.067.1a2.396 2.396 0 00-.346-.205zm-1.075.18c.138-.06.284-.097.434-.112.673.04 1.357.578 1.76.852-.165-.366-.523-.647-.58-.992a2.105 2.105 0 00-.653-.221.645.645 0 00-.627.101 1.62 1.62 0 00-.336.372h.002zm.489.577c.374.168.721.39 1.028.662a.487.487 0 01.319-.288 3.787 3.787 0 00-1.346-.37l-.001-.004zm3.127 8.9l.417.764.855-.236-.243.835.769.438-.762.42.236.855-.835-.245-.437.777-.418-.764-.855.236.243-.842-.77-.44.76-.418-.234-.855.835.245.439-.77zm7.27-.935H29.91v7.856a6.97 6.97 0 002.192-1.461 6.837 6.837 0 002.138 1.458l.151-.292c-2.1-1.052-3.254-3.225-1.94-5.179.652-.985 1.519-1.474 2.523-2.002-.34.495-.684.98-1.004 1.487-.783 1.25-.913 2.742.552 3.734.398.274.664.098 1.023.56.141.183.45.118.565-.058a.482.482 0 01.537-.158.484.484 0 01.17.1c.072.065.261.251.364.251.104 0 .29-.186.366-.25a.481.481 0 01.703.057c.119.176.427.241.57.059.357-.463.62-.287 1.021-.561 1.463-.992 1.331-2.485.55-3.734-.316-.506-.662-.992-1-1.487 1.002.528 1.86 1.017 2.521 2.002 1.316 1.957.16 4.13-1.94 5.18l.152.29a6.79 6.79 0 002.14-1.457 7.079 7.079 0 002.186 1.458v-7.857l-.001.004zm-1.393 16.768c.392.481.747.981 1.134 1.46.29.284.368.601.76.56.271.015.54.058.802.13.23.108.414.398.585.47.1.02.303.164.322.271a.188.188 0 01-.049.155.19.19 0 01-.152.061 1.198 1.198 0 00-.592-.339 6.996 6.996 0 01-.998-.232c.253.174.459.242.62.46a2.753 2.753 0 00-.585-.02c.04.171.126.329.246.457a1.119 1.119 0 00-.43-.038c.028.17.071.339.13.502-.158-.079-.227-.13-.369-.079a1.562 1.562 0 00-.319-.747c-.652-.857-1.37-1.653-2.073-2.482l.042-.332.556.231.08-.6.29.112zm3.488 3.25c.085.16.121.34.105.519a.644.644 0 00.11-.505c-.018-.065-.037-.099-.067-.088a.226.226 0 01-.148.075zm-1.147-.117a.505.505 0 00-.309-.05.355.355 0 00.19.25.257.257 0 01.12-.2zm-.237.444a.587.587 0 00-.308-.085.47.47 0 00.163.298.332.332 0 01.145-.213zm-.288.453a.437.437 0 00-.33-.092.455.455 0 00.228.279.221.221 0 01.102-.187zm1.498-.094l-.072.088a.132.132 0 01-.091.046.132.132 0 01-.097-.033l-.637-.567c-.145-.13.007-.34.178-.213.225.166.472.3.69.486a.149.149 0 01.029.193zm-.282.447l-.076.091a.143.143 0 01-.197.01l-.595-.546a.152.152 0 01-.027-.217.154.154 0 01.22-.017l.64.48a.148.148 0 01.035.198zm-.413.357l-.072.088a.141.141 0 01-.19.009l-.478-.45a.14.14 0 01.077-.25.144.144 0 01.105.032l.522.388a.132.132 0 01.057.082.128.128 0 01-.018.098l-.003.003zm.368-1.467c.115.11.261.24.375.352a.878.878 0 00-.303-.476 1.054 1.054 0 00-.072.13v-.006zm-14.716-3.259c-.391.482-.745.978-1.134 1.46-.288.281-.368.601-.758.561-.272.014-.54.057-.803.13-.23.107-.413.397-.584.47-.1.019-.303.163-.323.27a.188.188 0 00.116.2.188.188 0 00.081.015c.16-.168.365-.286.591-.34.339-.052.673-.13 1-.23-.253.173-.46.241-.621.46.193-.03.39-.037.585-.02-.041.17-.125.327-.243.456.138-.042.283-.055.427-.038-.027.17-.071.339-.13.502.16-.08.226-.13.367-.08.04-.272.15-.53.32-.749.652-.854 1.37-1.653 2.073-2.475l-.043-.335-.554.23-.08-.6-.287.113zM27.84 70.59a.949.949 0 00-.105.518.65.65 0 01-.109-.506c.017-.069.037-.097.067-.088a.22.22 0 00.147.075v.001zm1.147-.119a.478.478 0 01.31-.048.356.356 0 01-.191.247.257.257 0 00-.119-.199zm.236.444a.57.57 0 01.31-.085.472.472 0 01-.165.297.33.33 0 00-.145-.212zm.29.453a.431.431 0 01.329-.09.46.46 0 01-.227.277.23.23 0 00-.102-.187zm-1.5-.094l.074.088a.133.133 0 00.09.045.132.132 0 00.096-.032l.636-.567c.147-.13 0-.337-.175-.213-.227.167-.474.3-.69.486a.15.15 0 00-.03.193zm.284.446l.076.092a.141.141 0 00.197.01l.595-.548a.15.15 0 00-.027-.25.153.153 0 00-.168.018l-.64.479a.147.147 0 00-.033.2zm.414.356l.075.089a.14.14 0 00.188.009l.477-.45a.14.14 0 00-.023-.234.142.142 0 00-.108-.01.145.145 0 00-.05.025l-.522.389a.131.131 0 00-.058.081.127.127 0 00.018.099l.003.002zm-.233-1.608c-.114.112-.391.389-.506.494.04-.236.25-.464.43-.633.033.051.05.092.076.14z" fill="#CE0E2D"/><path d="M53.098 56.772a.614.614 0 01-.335.214.257.257 0 00.142.155.246.246 0 00.204.028.652.652 0 01-.01-.397zm-.476.9a.253.253 0 00.348-.055.257.257 0 00-.147-.324.252.252 0 00-.349.056.257.257 0 00.148.322zm-2.696 5.362a.315.315 0 00-.033.163.668.668 0 00-.325-.173.505.505 0 00.118-.118l1.183-2.231a.731.731 0 00.109-.466c.03-.052.155-.039.28.026.125.065.206.167.178.219a.756.756 0 00-.327.35l-1.183 2.23zm-.414.482c.141.075.296.066.342-.022.046-.088-.03-.22-.17-.294-.142-.075-.293-.065-.34.023-.047.088.03.218.168.293zm-.314.607c.184.098.383.075.45-.046.066-.12-.03-.304-.214-.4-.184-.098-.392-.08-.45.044-.06.125.03.303.214.402zm-.261.49c.16.083.335.074.391-.027.056-.1-.033-.25-.197-.336-.164-.086-.335-.078-.391.023-.056.101.033.251.198.34h-.001zm-1.243 2.589c-.223.42-.11 1.154-.295 1.46l-.01.02a.539.539 0 01-.534.293.545.545 0 01-.41-.837c.162-.318.816-.633 1.044-1.048l1.292-2.429a.5.5 0 00.21.11l-1.297 2.43zm-1.393 2.368c.174.09.371.064.437-.06.065-.124-.022-.299-.197-.388-.175-.09-.368-.068-.433.06-.066.126.019.3.193.394v-.006zm-.392.99a.522.522 0 00-.207-.11l.118-.225c.075.029.145.066.21.111l-.12.224zm-1.12 1.863c.147.078.318.056.374-.053.056-.109-.017-.259-.169-.342-.151-.083-.318-.058-.374.052-.056.11.017.259.168.343zm-.416.777c.184-.193.323-.219.484-.31.162-.093-.103-.229-.175-.267-.071-.04-.315-.18-.318 0 .028.19.031.383.01.574v.003zm7.893-15.393a.827.827 0 00-.477.26c.19.388-.114.968-.575 1.767a.207.207 0 01-.165-.089c.471-.674.717-1.597.362-1.82.224-.211.55-.191.846-.146 0 .01.006.013.009.023v.005zm-.858 2.153a.37.37 0 00.115.037c.234-.552.71-1.441 1.071-1.514.106-.215-.028-.44-.104-.558-.142 0-.404.017-.522.223.145.342-.329 1.232-.652 1.737a.37.37 0 00.092.075zm1.305-1.92a.854.854 0 01.05.544c-.43.062-.74.636-1.14 1.464a.194.194 0 00.164.088c.295-.766.922-1.486 1.305-1.316.052-.304-.145-.565-.349-.784h-.026l-.004.004zm-27.88 4.458l.426.862c.163.292.29.601.381.922a4.348 4.348 0 01-.515-.863l-.424-.852c-.106-.211-.208-.342-.204-.583.174.146.232.312.335.518v-.004zm-.816.115a.171.171 0 01.227.075.17.17 0 01-.076.228.166.166 0 01-.227-.075.167.167 0 01.023-.187.17.17 0 01.053-.04zm1.255-.619a.173.173 0 01.23.078.17.17 0 01-.078.228.169.169 0 01-.188-.025.166.166 0 01-.04-.053.168.168 0 01.024-.187.172.172 0 01.052-.04zm-1.991-2.62l.299.603c.147.27.261.556.342.852a3.999 3.999 0 01-.48-.796l-.3-.6c-.112-.229-.21-.379-.233-.637.157.17.283.365.372.578zm-.914-.078a.173.173 0 01.226.08.17.17 0 01-.074.227.17.17 0 01-.152-.307zm1.256-.616a.169.169 0 01.227.075.166.166 0 01.01.13.167.167 0 01-.086.098.167.167 0 01-.227-.075.17.17 0 01.076-.228zm4.982 11.752l-.082-.17.145-.042.062.13-.125.082zm.957 1.554c.163.267.41.475.703.59a1.23 1.23 0 00-.154.672 1.628 1.628 0 00-.638-.279 1.81 1.81 0 00-.056-.915l-.029-.06.117-.12.057.112zm-1.375-2.4l-.292-.591a.446.446 0 00.139-.062l.27.545-.116.107zm-.783-.205a.17.17 0 01.188.025.17.17 0 01-.07.292.172.172 0 01-.214-.155.169.169 0 01.096-.162zm1.239-.618a.172.172 0 01.227.075.169.169 0 01-.075.229.173.173 0 01-.23-.075.173.173 0 01.078-.229zm-1.935-2.504l.269.548c.178.318.32.655.424 1.004a4.726 4.726 0 01-.546-.919l-.286-.57a2.37 2.37 0 01-.272-.732c.17.201.308.427.41.67zm-1.003-.294a.168.168 0 01.187.023.17.17 0 11-.262.205.168.168 0 01.075-.228zm1.239-.619a.173.173 0 01.188.023.17.17 0 01-.099.298.172.172 0 01-.165-.093.17.17 0 01.076-.228z" fill="#FFD100"/><path d="M25.514 68.054c.664-.095 1.521.043 2.11.704a1.868 1.868 0 01-2.11-.704zm0-.767c.642-.178 1.473.292 1.707.657-.504.136-1.322-.066-1.707-.657zm2.62-1.307c-.53.407-.652 1.354-.506 1.76.41-.322.742-1.097.506-1.76zm.608.466c-.476.474-.885 1.243-.71 2.11a1.865 1.865 0 00.71-2.11zm-1.896-3.434a2.244 2.244 0 00-.56 2.035c.57-.446.826-1.154.56-2.035zm-.573-.478c-.463.359-.545 1.272-.402 1.684.363-.284.638-1.018.402-1.684zm-2.392 1.195c.565-.152 1.344.33 1.582.692-.444.118-1.197-.104-1.582-.692zm.037.737a2.234 2.234 0 011.957.783c-.697.183-1.415-.036-1.957-.783zm-1.628-3.6c.591-.136 1.292.11 1.827.845-.612.196-1.305-.056-1.827-.846zm.165-.727c.45-.094.995.335 1.229.7-.45.093-.914-.129-1.23-.7zm1.811-.906c-.346.303-.329.998-.177 1.402.341-.303.45-.801.177-1.402zm.68.303c-.463.395-.687 1.103-.427 1.97.522-.371.743-1.08.427-1.97zm-3.744-1.703c.487-.051 1 .122 1.387.8-.48.065-.993-.13-1.387-.8zm.556-1.294c.44.258.733.532.9.848-.036.365-.001.733.102 1.086-.253-.3-.493-.574-.85-.75-.152-.326-.204-.676-.152-1.184zm1.394.317c-.323.332-.483.841-.201 1.58.332-.332.493-.84.2-1.58z" fill="#3F873F"/><path d="M36.623 42.512a.23.23 0 01-.254-.227.226.226 0 01.159-.217.232.232 0 01.095-.01.217.217 0 00-.138.228c0 .118.062.215.138.226zm.026-.453a.235.235 0 01.254.129.231.231 0 01-.254.326c.082 0 .145-.103.145-.228 0-.124-.063-.225-.145-.227z" fill="#E7E7E7"/><path d="M77.907 42.034c.028-.151.081-.232.154-.232s.13.044.243.276l2.459 4.968 2.448-5.03c.073-.142.117-.214.198-.214.08 0 .13.09.162.276l.82 5.468c.08.563.17.822.44.906.18.059.37.089.559.09.08 0 .145.008.145.061s-.109.099-.235.099c-.225 0-1.468-.017-1.827-.044-.206-.018-.261-.046-.261-.099 0-.053.036-.07.1-.098.062-.027.08-.13.045-.389l-.54-3.884h-.037l-1.957 3.984c-.208.421-.252.501-.333.501-.081 0-.171-.178-.316-.446-.215-.412-.928-1.778-1.035-2.03-.08-.187-.621-1.24-.937-1.91h-.037l-.475 3.488a3.671 3.671 0 00-.027.42c0 .169.118.25.27.285.124.028.251.043.379.044.072 0 .13.018.13.064 0 .08-.08.098-.215.098-.379 0-.783-.027-.946-.027-.163 0-.603.027-.892.027-.09 0-.161-.018-.161-.098 0-.046.053-.064.143-.064.09.002.182-.007.27-.026.252-.054.325-.402.37-.705l.896-5.759zm9.779 2.483c0-1.358 0-1.608-.019-1.894-.018-.286-.108-.455-.306-.5a1.265 1.265 0 00-.324-.036c-.09 0-.145-.017-.145-.089 0-.053.073-.071.217-.071.342 0 .913.027 1.174.027.225 0 .757-.027 1.099-.027.117 0 .19.018.19.071 0 .073-.056.09-.146.09s-.18.01-.27.026c-.243.046-.314.197-.333.51-.018.285-.018.535-.018 1.893v1.575c0 .866 0 1.572.037 1.956.027.24.09.401.36.438.152.02.305.033.46.035.098 0 .143.027.143.072s-.072.09-.171.09c-.594 0-1.162-.028-1.404-.028-.208 0-.776.027-1.136.027-.117 0-.18-.027-.18-.089s.037-.072.145-.072c.109 0 .218-.012.324-.035.18-.036.233-.188.26-.447.046-.375.046-1.081.046-1.942l-.003-1.58zm5.294 2.948c.018.697.13.93.314.992.152.046.31.067.469.062.099 0 .152.018.152.073 0 .054-.08.089-.206.089-.586 0-.946-.027-1.117-.027-.08 0-.504.027-.972.027-.118 0-.199-.009-.199-.09 0-.054.054-.072.144-.072a1.65 1.65 0 00.406-.044c.233-.071.27-.33.28-1.108l.08-5.262c0-.178.028-.303.117-.303.09 0 .18.115.333.276.109.116 1.477 1.546 2.792 2.842.612.607 1.827 1.893 1.98 2.036h.045l-.09-4.013c-.008-.545-.09-.715-.305-.804a1.459 1.459 0 00-.478-.055c-.108 0-.144-.025-.144-.08 0-.054.1-.08.234-.08.469 0 .9.027 1.09.027.099 0 .44-.027.882-.027.117 0 .207.009.207.08 0 .071-.053.08-.162.08a.975.975 0 00-.27.028c-.251.07-.325.259-.334.76l-.094 5.638c0 .197-.036.277-.117.277-.081 0-.208-.098-.307-.195-.566-.536-1.72-1.707-2.655-2.627-.982-.965-1.981-2.055-2.143-2.225h-.028l.096 3.725zm8.743-2.948c0-1.358 0-1.608-.018-1.894-.018-.286-.108-.455-.307-.5a1.26 1.26 0 00-.323-.036c-.091 0-.145-.017-.145-.089 0-.053.073-.071.216-.071.342 0 .914.027 1.175.027.224 0 .757-.027 1.098-.027.118 0 .19.018.19.071 0 .073-.055.09-.145.09-.091 0-.181.01-.27.026-.243.046-.315.197-.333.51-.018.285-.018.535-.018 1.893v1.575c0 .866 0 1.572.036 1.956.028.24.09.401.36.438.153.02.306.033.46.035.099 0 .143.027.143.072s-.072.09-.171.09c-.593 0-1.161-.028-1.404-.028-.207 0-.775.027-1.135.027-.116 0-.18-.027-.18-.089s.036-.072.145-.072c.109 0 .217-.012.323-.035.18-.036.234-.188.261-.447.046-.375.046-1.081.046-1.942l-.004-1.58zm4.295 4.057c-.145-.064-.171-.108-.171-.305 0-.49.035-1.026.044-1.165.009-.139.037-.232.108-.232.072 0 .09.08.09.152.009.154.036.307.081.456.199.661.73.906 1.288.906.811 0 1.206-.545 1.206-1.02 0-.437-.13-.847-.882-1.423l-.414-.322c-.99-.767-1.332-1.393-1.332-2.116 0-.983.827-1.683 2.08-1.683a4.4 4.4 0 011.197.151c.081.018.13.044.13.108 0 .115-.036.374-.036 1.072 0 .195-.027.267-.1.267-.073 0-.09-.054-.09-.161a1.071 1.071 0 00-.233-.59c-.131-.169-.392-.437-.982-.437-.666 0-1.071.388-1.071.92 0 .411.208.724.954 1.286l.252.188c1.09.813 1.477 1.424 1.477 2.279a1.795 1.795 0 01-.847 1.553 2.614 2.614 0 01-1.435.367 3.15 3.15 0 01-1.314-.252zm7.653-6.146l-1.341.035c-.522.018-.739.062-.875.258a1.077 1.077 0 00-.152.314c-.019.071-.045.107-.099.107-.055 0-.081-.045-.081-.143 0-.143.171-.956.189-1.027.027-.117.053-.17.108-.17s.162.09.392.106c.261.028.604.046.901.046h3.56c.208 0 .416-.016.622-.046.08-.018.161-.033.242-.044.064 0 .073.053.073.188 0 .188-.027.804-.027 1.036-.009.09-.027.144-.081.144-.053 0-.09-.046-.099-.18l-.009-.097c-.018-.233-.261-.483-1.062-.502l-1.136-.025v3.664c0 .82 0 1.526.046 1.91.026.25.081.447.351.483.152.022.306.033.459.035.099 0 .144.028.144.073s-.072.09-.171.09c-.594 0-1.162-.028-1.413-.028-.208 0-.776.027-1.136.027-.116 0-.18-.027-.18-.089s.037-.073.145-.073c.109 0 .217-.01.324-.035.18-.036.235-.233.261-.492.045-.375.045-1.08.045-1.901v-3.664zm5.916 2.089c0-1.358 0-1.608-.018-1.894-.019-.286-.09-.446-.392-.509a1.86 1.86 0 00-.352-.027c-.098 0-.153-.017-.153-.08s.063-.08.198-.08c.243 0 .504.009.73.009.226 0 .441.018.568.018.287 0 2.078 0 2.251-.01.172-.008.314-.035.391-.052a.854.854 0 01.145-.037c.044 0 .054.037.054.08 0 .045-.045.17-.072.582-.009.09-.028.482-.046.59-.009.043-.026.098-.09.098s-.081-.046-.081-.13a.949.949 0 00-.053-.321c-.063-.16-.153-.268-.603-.322a31.173 31.173 0 00-1.279-.035c-.046 0-.064.027-.064.089v2.26c0 .063.009.098.064.098.198 0 1.233 0 1.435-.017.203-.017.351-.045.432-.13.081-.084.099-.116.144-.116.044 0 .064.018.064.072 0 .055-.037.196-.073.648-.008.178-.036.536-.036.6 0 .063 0 .169-.08.169a.072.072 0 01-.062-.02.076.076 0 01-.017-.028 2.328 2.328 0 00-.039-.355c-.044-.179-.171-.312-.504-.348a28.603 28.603 0 00-1.278-.027c-.046 0-.055.036-.055.089v.71c0 .304-.008 1.126 0 1.385.018.616.163.75 1.08.75.235 0 .614 0 .847-.107.234-.107.342-.295.406-.661.017-.099.035-.13.098-.13s.073.071.073.16a7.038 7.038 0 01-.118.992c-.062.232-.143.232-.486.232-.675 0-1.175-.018-1.557-.026-.382-.007-.667-.027-.937-.027-.099 0-.298 0-.513.01-.215.008-.441.017-.621.017-.118 0-.18-.027-.18-.089s.035-.072.143-.072c.109 0 .218-.012.324-.035.18-.037.226-.233.261-.492.044-.376.044-1.081.044-1.902l.007-1.579zm6.411 0c0-1.358 0-1.608-.018-1.894-.018-.286-.09-.446-.392-.508a1.827 1.827 0 00-.351-.028c-.099 0-.152-.017-.152-.08s.062-.08.198-.08c.476 0 1.044.027 1.233.027.307 0 .991-.027 1.27-.027.568 0 1.174.054 1.656.388a1.542 1.542 0 01.613 1.224c0 .661-.279 1.268-1.188 2.001.801 1.001 1.422 1.796 1.957 2.349.505.518.873.581 1.009.608.083.016.167.025.252.026.071 0 .108.027.108.073 0 .071-.063.09-.171.09h-.856c-.504 0-.73-.046-.963-.172-.392-.204-.73-.625-1.233-1.313-.361-.49-.776-1.099-.892-1.232a.191.191 0 00-.163-.062l-.783-.018a.061.061 0 00-.054.017.06.06 0 00-.015.025c-.003.01-.004.02-.003.029v.13c0 .83 0 1.535.045 1.91.027.26.082.456.352.492.146.02.294.032.441.035.072 0 .107.027.107.073 0 .045-.062.089-.18.089-.522 0-1.187-.027-1.323-.027-.171 0-.739.027-1.099.027-.116 0-.18-.027-.18-.09 0-.061.037-.072.145-.072.109 0 .217-.011.324-.035.18-.036.225-.233.261-.492.045-.375.045-1.08.045-1.902v-1.58zm1.062.706c0 .099.019.13.081.16.223.064.453.094.684.09.36 0 .478-.035.64-.151.27-.197.531-.608.531-1.34 0-1.27-.846-1.636-1.377-1.636a1.97 1.97 0 00-.478.037c-.062.018-.081.053-.081.129v2.711zm6.024-.706c0-1.358 0-1.608-.018-1.894-.018-.286-.09-.446-.392-.508a1.86 1.86 0 00-.352-.028c-.098 0-.153-.017-.153-.08s.064-.08.199-.08c.477 0 1.044.027 1.314.027.217 0 .783-.027 1.108-.027.13 0 .198.018.198.08s-.053.08-.145.08c-.087 0-.175.01-.261.027-.242.046-.314.197-.332.51-.019.285-.019.535-.019 1.893v1.251c0 1.295.261 1.841.704 2.201a1.67 1.67 0 001.125.365c.461.008.908-.165 1.242-.481.496-.492.522-1.295.522-2.216V44.52c0-1.358 0-1.608-.017-1.894-.017-.286-.09-.447-.392-.509a1.739 1.739 0 00-.324-.027c-.098 0-.153-.017-.153-.08 0-.064.064-.08.189-.08.459 0 1.027.026 1.036.026.107 0 .675-.027 1.026-.027.13 0 .189.018.189.08 0 .063-.053.08-.162.08-.087.001-.175.01-.261.028-.244.045-.315.197-.332.509-.019.286-.019.536-.019 1.894v.955c0 .992-.099 2.047-.856 2.69-.639.545-1.288.647-1.872.647-.478 0-1.342-.027-2-.616-.459-.41-.801-1.072-.801-2.367l.009-1.312zm9.905 1.575c0 1.143 0 1.76.189 1.92.153.13.392.197 1.09.197.478 0 .829-.01 1.053-.25a1.11 1.11 0 00.234-.536c.009-.08.027-.13.099-.13.072 0 .073.046.073.152a6.976 6.976 0 01-.131 1.028c-.053.197-.099.24-.567.24-.653 0-1.116-.017-1.522-.025-.406-.008-.729-.028-1.099-.028-.098 0-.296 0-.513.01-.216.009-.441.018-.621.018-.117 0-.18-.028-.18-.09s.037-.072.144-.072c.109 0 .218-.011.325-.035.18-.036.224-.233.261-.492.044-.376.044-1.081.044-1.902v-1.58c0-1.358 0-1.608-.017-1.894-.017-.286-.09-.446-.391-.508a1.331 1.331 0 00-.298-.028c-.099 0-.153-.017-.153-.08s.063-.08.199-.08c.423 0 .99.027 1.233.027.217 0 .873-.027 1.224-.027.131 0 .189.018.189.08s-.053.08-.162.08c-.117 0-.234.01-.351.027-.242.046-.314.197-.332.51-.019.285-.019.535-.019 1.893l-.001 1.575zm7.968 2.481c-.143-.063-.171-.107-.171-.304 0-.49.037-1.027.046-1.165.009-.139.035-.232.108-.232s.09.08.09.151c.008.155.035.308.081.456.197.662.73.907 1.287.907.81 0 1.207-.546 1.207-1.02 0-.437-.131-.847-.882-1.424l-.415-.32c-.991-.768-1.333-1.394-1.333-2.117 0-.983.829-1.684 2.081-1.684.401-.012.802.03 1.192.127.081.018.131.044.131.108 0 .115-.036.374-.036 1.072 0 .195-.027.268-.099.268-.071 0-.09-.055-.09-.162a1.073 1.073 0 00-.235-.59c-.13-.169-.391-.437-.981-.437-.665 0-1.071.389-1.071.92 0 .411.207.724.955 1.286l.252.188c1.089.813 1.476 1.424 1.476 2.279a1.799 1.799 0 01-.846 1.554 2.616 2.616 0 01-1.435.366 3.155 3.155 0 01-1.312-.227zm6.815-2.171c-.046 0-.064.018-.081.072l-.487 1.224a1.703 1.703 0 00-.13.544c0 .162.082.277.36.277h.13c.109 0 .131.018.131.073 0 .054-.055.09-.154.09-.289 0-.675-.028-.954-.028-.099 0-.595.027-1.062.027-.118 0-.173-.018-.173-.09 0-.07.037-.072.109-.072.071 0 .207-.009.279-.017.415-.054.586-.357.766-.804l2.26-5.538c.107-.26.162-.358.252-.358s.13.08.224.285c.217.492 1.658 4.066 2.233 5.424.343.804.604.928.794.973.124.024.251.035.378.035.072 0 .116.01.116.073s-.081.09-.413.09c-.333 0-.982 0-1.697-.019-.163-.01-.27-.01-.27-.071 0-.062.035-.073.13-.082a.145.145 0 00.099-.145.156.156 0 00-.018-.06l-.72-1.84a.082.082 0 00-.034-.048.086.086 0 00-.056-.015h-2.012zm.009-6.065l.296-.232c.064-.054.09-.063.118-.063.053 0 .108.116.189.205a.963.963 0 00.828.389c.284-.005.559-.092.793-.251.279-.214.332-.33.391-.33a.07.07 0 01.053.025.068.068 0 01.015.025c.004.01.005.02.004.03 0 .13-.36.527-.568.661a1.541 1.541 0 01-1.863-.018c-.131-.107-.334-.286-.334-.357 0-.071.053-.066.08-.084h-.002zm1.827 5.619c.046 0 .055-.028.046-.053l-.811-2.201c-.009-.035-.018-.08-.046-.08-.027 0-.044.045-.053.08l-.829 2.189c-.009.035 0 .062.037.062l1.656.003zm5.333 1.509c.019.697.131.93.315.992.152.046.31.067.468.062.099 0 .154.018.154.073 0 .054-.081.089-.207.089-.586 0-.946-.027-1.117-.027-.081 0-.504.027-.972.027-.118 0-.199-.009-.199-.09 0-.054.055-.072.145-.072.136.002.272-.012.405-.044.234-.071.27-.33.279-1.108l.081-5.262c0-.178.027-.303.117-.303.09 0 .18.115.333.276.108.116 1.477 1.546 2.791 2.842.612.607 1.827 1.893 1.981 2.036h.046l-.09-4.013c-.009-.545-.09-.715-.307-.804a1.456 1.456 0 00-.477-.055c-.107 0-.144-.025-.144-.08 0-.054.099-.08.234-.08.468 0 .9.027 1.089.027.099 0 .441-.027.884-.027.116 0 .206.009.206.08 0 .071-.054.08-.162.08a.972.972 0 00-.27.028c-.252.07-.324.259-.333.76l-.099 5.636c0 .196-.036.277-.117.277-.081 0-.208-.099-.306-.196-.567-.536-1.72-1.706-2.657-2.627-.981-.964-1.981-2.055-2.142-2.224h-.028l.099 3.727zm9.104-1.063c-.046 0-.063.018-.081.072l-.487 1.224a1.702 1.702 0 00-.13.544c0 .162.081.277.36.277h.13c.109 0 .131.018.131.073 0 .054-.055.09-.154.09-.287 0-.675-.028-.954-.028-.099 0-.594.027-1.062.027-.118 0-.171-.018-.171-.09 0-.07.035-.072.108-.072s.206-.009.278-.017c.415-.054.586-.357.766-.804l2.26-5.538c.109-.26.162-.358.252-.358s.131.08.225.285c.216.492 1.657 4.066 2.234 5.424.342.804.603.928.792.973a2 2 0 00.378.035c.072 0 .116.01.116.073s-.081.09-.413.09c-.333 0-.982 0-1.697-.019-.162-.01-.27-.01-.27-.071 0-.062.037-.073.131-.082a.152.152 0 00.053-.032.136.136 0 00.034-.052.142.142 0 00-.007-.12l-.72-1.841a.081.081 0 00-.034-.047.087.087 0 00-.056-.016h-2.012zm.009-6.065l.298-.232c.062-.054.09-.063.116-.063.054 0 .108.116.189.205a.972.972 0 00.829.389c.283-.005.558-.092.792-.251.279-.214.332-.33.391-.33.01 0 .02.002.029.006.01.005.018.01.024.018a.068.068 0 01.015.026.06.06 0 01.004.03c0 .13-.36.527-.568.661-.279.21-.622.317-.972.303a1.533 1.533 0 01-.891-.32c-.131-.108-.333-.287-.333-.358 0-.071.05-.066.077-.084zm1.827 5.619c.044 0 .053-.028.044-.053l-.81-2.201c-.009-.035-.018-.08-.044-.08-.027 0-.046.045-.055.08l-.829 2.189c-.009.035 0 .062.037.062l1.657.003zm5.439-3.528l-1.341.035c-.522.018-.739.062-.873.258-.068.096-.12.202-.154.314-.017.071-.045.107-.098.107-.054 0-.081-.045-.081-.143 0-.143.171-.956.188-1.027.027-.117.055-.17.108-.17.054 0 .162.09.392.106.261.028.602.046.9.046h3.565c.208 0 .416-.015.621-.046a2.4 2.4 0 01.244-.044c.063 0 .072.053.072.188 0 .188-.027.804-.027 1.036-.009.09-.026.144-.081.144-.055 0-.09-.046-.099-.18l-.009-.097c-.017-.233-.261-.483-1.063-.502l-1.134-.025v3.664c0 .82 0 1.526.045 1.91.027.25.081.447.351.483.152.022.305.033.459.035.099 0 .145.028.145.073s-.073.09-.171.09c-.595 0-1.163-.028-1.415-.028-.206 0-.774.027-1.134.027-.117 0-.18-.027-.18-.089s.035-.073.144-.073c.109 0 .218-.01.325-.035.18-.036.233-.233.261-.492.044-.375.044-1.08.044-1.901l-.004-3.664zm5.737 3.974c-.046 0-.064.018-.082.072l-.486 1.224a1.703 1.703 0 00-.13.544c0 .162.081.277.36.277h.13c.109 0 .131.018.131.073 0 .054-.054.09-.153.09-.288 0-.675-.028-.954-.028-.099 0-.595.027-1.063.027-.117 0-.171-.018-.171-.09 0-.07.036-.072.108-.072.072 0 .207-.009.279-.017.414-.054.586-.357.766-.804l2.259-5.538c.109-.26.163-.358.253-.358s.131.08.225.285c.216.492 1.657 4.066 2.233 5.424.343.804.604.928.793.973.124.023.251.035.377.035.073 0 .118.01.118.073s-.081.09-.414.09c-.333 0-.981 0-1.697-.019-.163-.01-.27-.01-.27-.071 0-.062.036-.073.131-.082a.141.141 0 00.053-.032.143.143 0 00.028-.172l-.721-1.841a.085.085 0 00-.09-.063h-2.013zm.008-6.065l.297-.232c.063-.054.09-.063.118-.063.053 0 .108.116.189.205a.963.963 0 00.828.389c.284-.005.559-.092.793-.251.279-.214.332-.33.391-.33a.069.069 0 01.054.024.086.086 0 01.016.026c.003.01.004.02.003.03 0 .13-.361.527-.567.661a1.545 1.545 0 01-1.864-.018c-.13-.107-.334-.286-.334-.357 0-.071.05-.066.076-.084zm1.827 5.619c.045 0 .054-.028.045-.053l-.81-2.201c-.009-.035-.018-.08-.046-.08-.027 0-.044.045-.053.08l-.829 2.189c-.009.035 0 .062.037.062l1.656.003zm5.44-3.528l-1.341.035c-.522.018-.739.062-.875.258a1.052 1.052 0 00-.152.314c-.019.071-.045.107-.1.107-.054 0-.081-.045-.081-.143 0-.143.171-.956.19-1.027.027-.117.053-.17.108-.17s.162.09.391.106c.261.028.605.046.901.046h3.566c.208 0 .416-.016.622-.046.08-.019.161-.033.242-.044.064 0 .072.053.072.188 0 .188-.026.804-.026 1.036-.009.09-.027.144-.081.144-.073 0-.09-.046-.099-.18l-.009-.097c-.019-.233-.261-.483-1.062-.502l-1.136-.025v3.664c0 .82 0 1.526.046 1.91.026.25.081.447.351.483.152.022.306.033.459.035.099 0 .144.028.144.073s-.072.09-.171.09c-.594 0-1.162-.028-1.413-.028-.208 0-.776.027-1.136.027-.116 0-.18-.027-.18-.089s.037-.073.145-.073c.109 0 .217-.01.324-.035.18-.036.235-.233.261-.492.045-.375.045-1.08.045-1.901l-.005-3.664zm.936 7.655a4.411 4.411 0 01-.612 1.018c-.054.045-.09.09-.131.09-.04 0-.064-.045-.064-.081 0-.036.046-.09.064-.13.133-.2.211-.431.225-.67 0-.438-.324-.554-.324-.66 0-.268.342-.537.576-.537.073 0 .099.044.198.196.09.113.149.246.171.388a1.23 1.23 0 01-.103.386zm4.979-5.566c0-1.358 0-1.608-.018-1.894-.018-.286-.108-.455-.305-.5a1.28 1.28 0 00-.325-.036c-.09 0-.144-.017-.144-.089 0-.053.072-.071.215-.071.344 0 .914.027 1.175.027.226 0 .757-.027 1.099-.027.117 0 .189.018.189.071 0 .073-.053.09-.143.09-.091 0-.182.01-.271.026-.244.046-.315.197-.334.51-.017.285-.017.535-.017 1.893v1.575c0 .866 0 1.572.036 1.956.027.24.09.401.36.438.152.02.305.032.459.035.099 0 .145.027.145.072s-.073.09-.172.09c-.594 0-1.162-.028-1.405-.028-.207 0-.773.027-1.134.027-.117 0-.18-.027-.18-.089s.035-.072.144-.072c.109 0 .217-.012.323-.035.181-.036.235-.188.262-.447.045-.375.045-1.081.045-1.942l-.004-1.58zm4.791 0c0-1.358 0-1.608-.018-1.894-.018-.286-.108-.455-.307-.5a1.26 1.26 0 00-.323-.036c-.091 0-.144-.017-.144-.089 0-.053.072-.071.215-.071.342 0 .914.027 1.175.027.226 0 .757-.027 1.099-.027.117 0 .189.018.189.071 0 .073-.055.09-.145.09-.091 0-.181.01-.27.026-.243.046-.315.197-.333.51-.018.285-.018.535-.018 1.893v1.575c0 .866 0 1.572.036 1.956.028.24.09.401.36.438.153.02.306.032.46.035.099 0 .143.027.143.072s-.071.09-.171.09c-.593 0-1.161-.028-1.404-.028-.207 0-.775.027-1.135.027-.116 0-.18-.027-.18-.089s.036-.072.145-.072c.109 0 .217-.012.323-.035.18-.036.234-.188.261-.447.046-.375.046-1.081.046-1.942l-.004-1.58zm4.565 2.886c.081 0 .108.044.225.223a.88.88 0 01.197.465 1.363 1.363 0 01-.116.428 5.317 5.317 0 01-.711 1.189c-.064.053-.099.107-.154.107a.104.104 0 01-.05-.033.095.095 0 01-.021-.056c0-.045.053-.107.071-.151.155-.232.245-.5.261-.777 0-.51-.377-.648-.377-.777-.001-.315.405-.618.675-.618zm-131.696 7.19c.028-.152.081-.232.154-.232s.13.044.243.276l2.459 4.968 2.448-5.03c.073-.143.117-.214.198-.214.08 0 .13.09.162.276l.82 5.467c.08.563.17.822.44.907.18.058.37.088.559.089.08 0 .145.009.145.062s-.109.098-.235.098a44.82 44.82 0 01-1.827-.044c-.206-.018-.261-.045-.261-.098 0-.053.036-.071.1-.098.062-.028.08-.13.045-.389l-.54-3.884h-.037l-1.957 3.984c-.208.42-.252.5-.333.5-.081 0-.171-.178-.316-.446-.215-.411-.928-1.777-1.035-2.029-.08-.187-.621-1.241-.937-1.91h-.037l-.475 3.487a3.46 3.46 0 00-.027.42c0 .17.118.25.27.286.124.028.251.043.379.044.072 0 .13.018.13.064 0 .08-.08.098-.215.098-.379 0-.783-.027-.946-.027-.163 0-.603.027-.892.027-.09 0-.161-.018-.161-.098 0-.046.053-.064.143-.064.09.002.182-.007.27-.026.252-.054.325-.403.37-.706l.896-5.758zm9.273 2.483c0-1.358 0-1.608-.017-1.894-.017-.286-.09-.447-.391-.509a1.836 1.836 0 00-.351-.027c-.1 0-.154-.017-.154-.08 0-.064.064-.08.198-.08.478 0 1.044.027 1.316.027.215 0 .783-.028 1.106-.028.13 0 .199.019.199.08 0 .063-.054.08-.144.08-.088.001-.175.01-.26.028-.245.044-.317.197-.335.509-.018.286-.018.536-.018 1.894v1.25c0 1.295.26 1.84.703 2.202.317.254.718.384 1.125.365.462.007.908-.166 1.242-.482.496-.492.522-1.294.522-2.215v-1.117c0-1.358 0-1.608-.018-1.895-.018-.286-.09-.446-.392-.508a1.729 1.729 0 00-.323-.028c-.1 0-.154-.016-.154-.08 0-.063.064-.08.19-.08.459 0 1.026.027 1.035.027.109 0 .675-.027 1.026-.027.13 0 .19.018.19.08s-.054.08-.163.08c-.087.001-.175.01-.26.028-.243.044-.315.197-.333.508-.019.287-.019.537-.019 1.895v.955c0 .992-.099 2.047-.856 2.69-.64.544-1.286.647-1.872.647-.477 0-1.342-.028-2-.617-.459-.41-.8-1.072-.8-2.366l.008-1.312zm9.284 2.948c.018.696.13.93.316.992.15.046.309.067.467.062.1 0 .154.018.154.072 0 .055-.081.09-.208.09-.584 0-.944-.028-1.117-.028-.08 0-.503.028-.972.028-.116 0-.198-.01-.198-.09 0-.054.055-.072.145-.072a1.64 1.64 0 00.404-.044c.235-.072.27-.33.28-1.108l.08-5.262c0-.179.028-.303.118-.303s.18.115.332.276c.109.116 1.478 1.545 2.792 2.841.613.608 1.827 1.893 1.981 2.037h.046l-.091-4.014c-.009-.545-.09-.714-.306-.803a1.458 1.458 0 00-.477-.055c-.108 0-.144-.026-.144-.08 0-.055.099-.08.235-.08.467 0 .9.027 1.088.027.099 0 .442-.027.883-.027.117 0 .207.009.207.08 0 .071-.054.08-.162.08a.972.972 0 00-.27.027c-.252.072-.324.26-.333.76l-.099 5.636c0 .197-.037.277-.118.277-.081 0-.206-.098-.305-.195-.568-.536-1.72-1.707-2.657-2.627-.981-.965-1.981-2.055-2.143-2.225h-.027l.099 3.728zm8.788.366c-.883-.767-1.116-1.768-1.116-2.636a3.349 3.349 0 011.053-2.447c.653-.59 1.503-.946 2.846-.946.437-.002.873.027 1.305.09.342.043.631.129.901.15.099.01.13.054.13.108 0 .055-.027.179-.046.491-.018.312-.009.786-.027.964-.009.13-.026.206-.107.206s-.09-.07-.09-.196a1.275 1.275 0 00-.351-.823c-.298-.312-1-.552-1.827-.552-.783 0-1.297.195-1.697.552-.652.6-.828 1.448-.828 2.315 0 2.126 1.63 3.18 2.836 3.18.801 0 1.288-.09 1.648-.5a1.51 1.51 0 00.306-.59c.027-.142.045-.179.117-.179.071 0 .081.063.081.13-.038.4-.104.797-.198 1.187a.32.32 0 01-.234.259c-.361.144-1.044.206-1.621.206-1.226.01-2.262-.263-3.081-.968zm7.789-3.314c0-1.358 0-1.608-.018-1.894-.018-.286-.108-.456-.305-.5a1.285 1.285 0 00-.325-.036c-.09 0-.144-.017-.144-.09 0-.052.072-.07.215-.07.344 0 .914.027 1.175.027.226 0 .757-.028 1.099-.028.117 0 .189.019.189.072 0 .072-.054.089-.144.089s-.181.01-.27.027c-.244.044-.316.197-.334.509-.017.286-.017.536-.017 1.894v1.574c0 .867 0 1.572.035 1.957.028.24.09.401.361.437.152.021.305.033.459.035.099 0 .143.027.143.073 0 .045-.071.09-.171.09-.593 0-1.161-.028-1.404-.028-.207 0-.774.027-1.134.027-.117 0-.18-.027-.18-.09 0-.061.035-.072.144-.072.109 0 .217-.011.323-.035.18-.036.235-.187.261-.446.046-.376.046-1.081.046-1.942l-.004-1.58zm4.791 0c0-1.358 0-1.608-.019-1.894-.018-.286-.108-.456-.306-.5a1.272 1.272 0 00-.324-.036c-.09 0-.145-.017-.145-.09 0-.052.073-.07.217-.07.342 0 .913.027 1.174.027.226 0 .757-.028 1.099-.028.118 0 .189.019.189.072 0 .072-.054.089-.145.089-.09 0-.181.01-.27.027-.242.044-.314.197-.332.509-.019.286-.019.536-.019 1.894v1.574c0 .867 0 1.572.037 1.957.027.24.09.401.36.437.152.021.306.033.459.035.1 0 .144.027.144.073 0 .045-.072.09-.171.09-.594 0-1.161-.028-1.404-.028-.208 0-.775.027-1.136.027-.116 0-.18-.027-.18-.09 0-.061.037-.072.145-.072.109 0 .218-.011.324-.035.18-.036.233-.187.261-.446.046-.376.046-1.081.046-1.942l-.004-1.58zm7.716 4.056c-.145-.063-.171-.107-.171-.304 0-.49.035-1.027.044-1.165.01-.139.037-.232.109-.232.072 0 .09.08.09.151.008.155.035.308.081.456.198.662.729.906 1.288.906.81 0 1.205-.545 1.205-1.019 0-.437-.13-.848-.882-1.424l-.413-.32c-.991-.769-1.333-1.394-1.333-2.118 0-.982.828-1.683 2.079-1.683.405-.005.808.046 1.198.152.081.018.131.044.131.107 0 .115-.037.374-.037 1.072 0 .196-.027.268-.099.268-.072 0-.09-.054-.09-.162a1.072 1.072 0 00-.234-.589c-.13-.17-.391-.437-.981-.437-.667 0-1.072.388-1.072.92 0 .41.207.724.954 1.286l.252.188c1.09.813 1.477 1.424 1.477 2.278.006.31-.069.615-.218.887a1.808 1.808 0 01-.628.667 2.618 2.618 0 01-1.436.366 3.145 3.145 0 01-1.314-.251zm2.016 1.51a4.411 4.411 0 01-.612 1.017c-.053.046-.09.09-.13.09-.041 0-.064-.044-.064-.08 0-.037.045-.09.064-.13.133-.2.21-.431.224-.67 0-.438-.324-.555-.324-.661 0-.268.342-.536.576-.536.073 0 .099.044.198.195.09.113.149.247.171.389a1.18 1.18 0 01-.103.386zm4.44-5.566c0-1.358 0-1.608-.019-1.894-.018-.286-.108-.456-.305-.5a1.275 1.275 0 00-.325-.036c-.09 0-.143-.017-.143-.09 0-.052.071-.07.216-.07.342 0 .914.027 1.175.027.225 0 .757-.028 1.098-.028.118 0 .19.019.19.072 0 .072-.054.089-.144.089-.091 0-.181.01-.27.027-.243.044-.316.197-.334.509-.017.286-.017.536-.017 1.894v1.574c0 .867 0 1.572.035 1.957.028.24.09.401.36.437.153.021.306.033.46.035.099 0 .145.027.145.073 0 .045-.074.09-.173.09-.593 0-1.161-.028-1.404-.028-.207 0-.774.027-1.134.027-.117 0-.18-.027-.18-.09 0-.061.035-.072.144-.072.108 0 .217-.011.323-.035.18-.036.235-.187.261-.446.045-.376.045-1.081.045-1.942l-.004-1.58zm8.212 0c0-1.358 0-1.608-.018-1.894-.019-.286-.09-.447-.392-.509a1.833 1.833 0 00-.351-.027c-.099 0-.153-.017-.153-.08 0-.064.063-.08.199-.08.476 0 1.044.027 1.296.027.369 0 .891-.028 1.305-.028 1.125 0 1.53.376 1.674.51.282.283.443.665.45 1.063 0 1.268-.936 2.161-2.218 2.161a1.322 1.322 0 01-.19-.009c-.045-.008-.108-.017-.108-.08 0-.064.063-.098.252-.098.505 0 1.207-.562 1.207-1.474 0-.295-.027-.893-.531-1.34a1.343 1.343 0 00-.9-.348 1.313 1.313 0 00-.351.035c-.046.018-.074.072-.074.17v3.575c0 .821 0 1.527.046 1.911.028.25.081.447.351.483.152.021.306.033.46.035.099 0 .143.027.143.073 0 .045-.072.09-.171.09-.594 0-1.161-.028-1.395-.028-.207 0-.775.027-1.135.027-.116 0-.18-.027-.18-.09 0-.061.036-.072.145-.072.108 0 .217-.011.323-.035.18-.036.226-.233.261-.492.046-.375.046-1.08.046-1.902l.009-1.574zm6.617 0c0-1.358 0-1.608-.018-1.894-.018-.286-.09-.447-.391-.509a1.84 1.84 0 00-.351-.027c-.099 0-.154-.017-.154-.08 0-.064.064-.08.198-.08.478 0 1.044.027 1.233.027.307 0 .991-.028 1.27-.028.568 0 1.174.055 1.657.389a1.548 1.548 0 01.612 1.223c0 .662-.279 1.27-1.188 2.002.801 1 1.423 1.796 1.957 2.349.504.517.873.58 1.007.608.084.016.169.024.254.026.071 0 .107.027.107.072 0 .072-.063.09-.171.09H152c-.504 0-.73-.046-.963-.171-.392-.205-.73-.626-1.235-1.313-.36-.49-.774-1.1-.891-1.233a.188.188 0 00-.162-.062l-.783-.018c-.045 0-.073.018-.073.071v.13c0 .83 0 1.535.046 1.91.027.26.081.457.351.493.146.02.293.031.441.035.072 0 .108.027.108.072 0 .046-.062.09-.18.09-.522 0-1.189-.028-1.323-.028-.171 0-.739.028-1.099.028-.117 0-.18-.028-.18-.09s.035-.072.144-.072c.109 0 .218-.011.325-.035.18-.036.224-.233.26-.492.045-.376.045-1.081.045-1.902l.002-1.58zm1.063.706c0 .098.018.13.082.16.222.063.453.094.684.09.36 0 .477-.035.639-.152.27-.197.531-.607.531-1.34 0-1.269-.847-1.635-1.378-1.635a1.963 1.963 0 00-.476.036c-.064.018-.082.053-.082.13v2.71zm5.43.08c0-1.528 1.018-3.496 3.719-3.496 2.242 0 3.638 1.295 3.638 3.34 0 2.046-1.435 3.663-3.728 3.663-2.584 0-3.629-1.925-3.629-3.507zm6.097.17c0-2-1.162-3.237-2.639-3.237-1.036 0-2.218.57-2.218 2.795 0 1.86 1.034 3.332 2.763 3.332.635-.005 2.094-.308 2.094-2.89zm4.987-3.046l-1.341.035c-.522.018-.739.062-.873.26a1.031 1.031 0 00-.154.312c-.017.072-.045.107-.098.107-.054 0-.082-.044-.082-.143 0-.142.172-.955.189-1.027.027-.116.055-.17.108-.17.054 0 .162.09.392.107.261.027.603.045.9.045h3.565c.208 0 .416-.015.621-.045a2.4 2.4 0 01.244-.044c.063 0 .072.053.072.188 0 .188-.027.804-.027 1.036-.009.089-.028.143-.081.143-.054 0-.09-.045-.099-.178l-.009-.099c-.019-.233-.261-.483-1.063-.5l-1.134-.027v3.664c0 .821 0 1.527.045 1.911.027.25.081.447.351.483.152.021.305.033.459.035.099 0 .145.027.145.073 0 .045-.073.089-.172.089-.594 0-1.162-.027-1.414-.027-.207 0-.773.027-1.134.027-.117 0-.18-.027-.18-.09 0-.062.035-.072.144-.072.109 0 .218-.011.325-.035.18-.036.233-.233.261-.492.044-.375.044-1.08.044-1.902l-.004-3.664zm5.916 2.09c0-1.358 0-1.608-.017-1.894-.017-.286-.09-.447-.392-.509a1.833 1.833 0 00-.351-.027c-.099 0-.154-.017-.154-.08 0-.064.064-.08.198-.08.244 0 .506.008.73.008.224 0 .441.019.568.019.288 0 2.08 0 2.251-.01.171-.009.314-.036.391-.053a.843.843 0 01.144-.036c.044 0 .053.036.053.08 0 .044-.044.17-.072.58-.009.091-.026.483-.044.59-.009.045-.027.1-.09.1s-.081-.046-.081-.13a.926.926 0 00-.055-.321c-.062-.161-.152-.268-.603-.323a31.022 31.022 0 00-1.278-.035c-.045 0-.063.027-.063.09v2.259c0 .063.009.098.063.098.198 0 1.233 0 1.435-.017.202-.016.351-.045.432-.13.081-.083.099-.116.145-.116.046 0 .062.018.062.073 0 .054-.036.195-.071.647-.009.179-.037.536-.037.6 0 .063 0 .17-.081.17a.069.069 0 01-.032-.004.076.076 0 01-.046-.045 2.183 2.183 0 00-.039-.355c-.045-.178-.171-.311-.504-.348a28.584 28.584 0 00-1.279-.027c-.044 0-.053.036-.053.09v.71c0 .303-.009 1.125 0 1.384.018.617.162.751 1.08.751.234 0 .612 0 .846-.107.233-.108.343-.295.406-.662.018-.098.036-.13.099-.13s.072.072.072.161a6.89 6.89 0 01-.118.992c-.062.232-.143.232-.485.232-.676 0-1.175-.018-1.558-.026-.384-.008-.667-.027-.937-.027-.098 0-.297 0-.513.009-.217.009-.441.018-.621.018-.118 0-.18-.027-.18-.09 0-.062.036-.072.143-.072.109 0 .218-.011.325-.035.18-.036.224-.233.261-.492.044-.375.044-1.08.044-1.902l.006-1.578zm6.547 3.314c-.884-.767-1.117-1.768-1.117-2.636-.002-.457.091-.91.272-1.33.181-.421.447-.801.781-1.117.652-.59 1.504-.946 2.846-.946.437-.002.873.027 1.305.09.342.043.63.129.9.15.099.01.131.054.131.108 0 .055-.028.179-.046.491s-.009.786-.026.964c-.009.13-.027.206-.108.206s-.09-.07-.09-.196a1.28 1.28 0 00-.351-.823c-.298-.312-1-.552-1.827-.552-.783 0-1.297.195-1.697.552-.652.6-.828 1.448-.828 2.315 0 2.126 1.629 3.18 2.835 3.18.803 0 1.288-.09 1.648-.5.145-.171.25-.373.307-.59.026-.142.044-.179.116-.179.072 0 .081.063.081.13a8.35 8.35 0 01-.197 1.187.312.312 0 01-.235.259c-.36.144-1.044.206-1.621.206-1.225.01-2.261-.263-3.079-.968zm8.94-5.404l-1.341.035c-.522.018-.739.062-.873.26-.069.094-.12.2-.153.312-.018.072-.046.107-.099.107-.054 0-.081-.044-.081-.143 0-.142.171-.955.188-1.027.027-.116.055-.17.108-.17.054 0 .163.09.392.107.261.027.602.045.9.045h3.565c.209 0 .417-.015.623-.045a2.31 2.31 0 01.242-.044c.063 0 .072.053.072.188 0 .188-.027.804-.027 1.036-.009.089-.026.143-.081.143-.055 0-.09-.045-.099-.178l-.009-.099c-.017-.233-.261-.483-1.063-.5l-1.134-.027v3.664c0 .821 0 1.527.045 1.911.027.25.081.447.351.483.152.021.305.033.459.035.099 0 .145.027.145.073 0 .045-.072.089-.171.089-.595 0-1.161-.027-1.415-.027-.206 0-.773.027-1.134.027-.117 0-.18-.027-.18-.09 0-.062.035-.072.144-.072.109 0 .218-.011.325-.035.18-.036.233-.233.261-.492.044-.375.044-1.08.044-1.902l-.004-3.664zm.937 7.656a4.41 4.41 0 01-.612 1.017c-.055.046-.09.09-.13.09-.026 0-.063-.044-.063-.08 0-.037.044-.09.063-.13.133-.2.211-.431.225-.67 0-.438-.325-.555-.325-.66 0-.269.342-.537.577-.537.072 0 .099.044.199.196a.848.848 0 01.171.388 1.235 1.235 0 01-.105.386zm4.98-5.566c0-1.358 0-1.608-.018-1.894-.019-.286-.109-.456-.307-.5a1.281 1.281 0 00-.324-.036c-.09 0-.144-.017-.144-.09 0-.052.071-.07.216-.07.342 0 .914.027 1.175.027.224 0 .755-.028 1.098-.028.117 0 .19.019.19.072 0 .072-.055.089-.145.089-.091 0-.181.01-.27.027-.243.044-.315.197-.333.509-.018.286-.018.536-.018 1.894v1.574c0 .867 0 1.572.036 1.957.026.24.09.401.36.437.153.021.306.033.46.035.099 0 .143.027.143.073 0 .045-.072.09-.171.09-.595 0-1.161-.028-1.405-.028-.206 0-.774.027-1.134.027-.118 0-.18-.027-.18-.09 0-.061.036-.072.143-.072.11 0 .219-.011.325-.035.18-.036.234-.187.261-.446.046-.376.046-1.081.046-1.942l-.004-1.58zm4.789 0c0-1.358 0-1.608-.018-1.894-.018-.286-.09-.447-.392-.509a1.827 1.827 0 00-.351-.027c-.099 0-.154-.017-.154-.08 0-.064.064-.08.199-.08.244 0 .505.008.729.008.225 0 .441.019.568.019.288 0 2.08 0 2.251-.01.171-.009.314-.036.391-.053a.808.808 0 01.144-.036c.044 0 .053.036.053.08 0 .044-.044.17-.071.58-.009.091-.028.483-.045.59-.009.045-.027.1-.09.1-.062 0-.082-.046-.082-.13a.948.948 0 00-.053-.321c-.063-.161-.153-.268-.603-.323a31.17 31.17 0 00-1.279-.035c-.045 0-.063.027-.063.09v2.259c0 .063.009.098.063.098.198 0 1.233 0 1.435-.017.203-.016.351-.045.432-.13.081-.083.099-.116.145-.116.046 0 .063.018.063.073 0 .054-.037.195-.072.647-.009.179-.037.536-.037.6 0 .063 0 .17-.08.17a.073.073 0 01-.061-.02.063.063 0 01-.017-.029 2.328 2.328 0 00-.04-.355c-.044-.178-.171-.311-.504-.348a28.584 28.584 0 00-1.279-.027c-.044 0-.053.036-.053.09v.71c0 .303-.009 1.125 0 1.384.018.617.162.751 1.08.751.234 0 .612 0 .846-.107.234-.108.343-.295.406-.662.018-.098.035-.13.099-.13s.072.072.072.161a6.752 6.752 0 01-.118.992c-.062.232-.143.232-.485.232-.676 0-1.174-.018-1.558-.026-.384-.008-.667-.027-.937-.027-.099 0-.296 0-.513.009-.217.009-.441.018-.621.018-.118 0-.18-.027-.18-.09 0-.062.035-.072.143-.072.11 0 .219-.011.325-.035.18-.036.225-.233.261-.492.045-.375.045-1.08.045-1.902l.006-1.578zm6.412 0c0-1.358 0-1.608-.019-1.894-.018-.286-.108-.456-.305-.5a1.28 1.28 0 00-.325-.036c-.09 0-.144-.017-.144-.09 0-.052.072-.07.216-.07.343 0 .913.027 1.174.027.226 0 .757-.028 1.099-.028.117 0 .189.019.189.072 0 .072-.053.089-.143.089-.091 0-.181.01-.27.027-.244.044-.316.197-.335.509-.016.286-.016.536-.016 1.894v1.574c0 .867 0 1.572.035 1.957.027.24.09.401.36.437.152.021.306.033.459.035.099 0 .144.027.144.073 0 .045-.072.09-.171.09-.594 0-1.162-.028-1.404-.028-.208 0-.774.027-1.134.027-.118 0-.18-.027-.18-.09 0-.061.035-.072.143-.072.109 0 .218-.011.324-.035.18-.036.235-.187.261-.446.045-.376.045-1.081.045-1.942l-.003-1.58zm7.716 4.056c-.144-.063-.171-.107-.171-.304 0-.49.036-1.027.046-1.166.009-.138.035-.231.107-.231.071 0 .09.08.09.151.008.155.035.308.081.456.198.662.729.906 1.288.906.81 0 1.207-.545 1.207-1.019 0-.437-.131-.848-.883-1.424l-.414-.32c-.991-.769-1.333-1.394-1.333-2.118 0-.982.829-1.683 2.08-1.683.405-.004.808.047 1.198.152.081.018.131.044.131.107 0 .115-.036.374-.036 1.072 0 .196-.027.268-.099.268-.071 0-.09-.054-.09-.162a1.073 1.073 0 00-.235-.589c-.13-.17-.391-.437-.981-.437-.665 0-1.071.388-1.071.92 0 .41.207.724.954 1.286l.253.188c1.089.813 1.476 1.424 1.476 2.278a1.795 1.795 0 01-.846 1.554 2.618 2.618 0 01-1.435.366 3.146 3.146 0 01-1.317-.251zm5.474-3.27c0-1.528 1.018-3.496 3.719-3.496 2.242 0 3.639 1.295 3.639 3.34 0 2.046-1.436 3.663-3.729 3.663-2.584 0-3.629-1.925-3.629-3.507zm6.097.17c0-2-1.161-3.237-2.639-3.237-1.036 0-2.218.57-2.218 2.795 0 1.86 1.035 3.332 2.764 3.332.634-.005 2.093-.308 2.093-2.89zm4.087 2.358c-.882-.767-1.117-1.768-1.117-2.636a3.335 3.335 0 011.055-2.447c.652-.59 1.503-.946 2.844-.946a8.87 8.87 0 011.305.09c.342.043.631.129.901.15.099.01.13.054.13.108 0 .055-.027.179-.044.49-.017.313-.009.787-.028.965-.009.13-.027.206-.108.206s-.09-.07-.09-.196a1.269 1.269 0 00-.351-.823c-.297-.312-.999-.552-1.827-.552-.783 0-1.296.195-1.696.552-.653.6-.829 1.448-.829 2.315 0 2.126 1.63 3.18 2.837 3.18.801 0 1.288-.09 1.648-.5.145-.171.25-.373.306-.59.027-.142.045-.179.117-.179.072 0 .081.063.081.13-.038.4-.104.797-.198 1.187a.314.314 0 01-.234.259c-.36.144-1.044.206-1.621.206-1.226.01-2.261-.263-3.081-.969zm7.79-3.314c0-1.358 0-1.608-.019-1.894-.018-.286-.108-.456-.306-.5a1.272 1.272 0 00-.324-.036c-.09 0-.145-.017-.145-.09 0-.052.073-.07.217-.07.342 0 .913.027 1.174.027.225 0 .757-.028 1.099-.028.116 0 .189.019.189.072 0 .072-.054.089-.144.089-.091 0-.182.01-.271.027-.242.044-.314.197-.332.509-.019.286-.019.536-.019 1.894v1.574c0 .867 0 1.572.037 1.957.026.24.09.401.36.437.152.021.306.033.459.035.1 0 .144.027.144.073 0 .045-.072.09-.171.09-.594 0-1.161-.028-1.404-.028-.208 0-.775.027-1.135.027-.118 0-.181-.027-.181-.09 0-.061.037-.072.145-.072.109 0 .218-.011.324-.035.18-.036.234-.187.261-.446.046-.376.046-1.081.046-1.942l-.004-1.58zm5.149 1.884c-.044 0-.063.02-.081.072l-.485 1.225a1.731 1.731 0 00-.131.544c0 .161.081.277.36.277h.131c.107 0 .13.018.13.072 0 .055-.053.09-.152.09-.289 0-.676-.028-.956-.028-.099 0-.593.028-1.062.028-.117 0-.171-.019-.171-.09 0-.07.037-.072.109-.072.071 0 .207-.01.279-.017.414-.054.584-.357.765-.804l2.266-5.54c.109-.26.162-.356.252-.356s.131.08.226.285c.215.492 1.656 4.065 2.233 5.423.342.804.603.928.792.974.125.023.251.035.378.035.072 0 .118.009.118.072 0 .064-.081.09-.415.09-.334 0-.982 0-1.697-.019-.162-.009-.27-.009-.27-.07 0-.063.037-.073.131-.082a.153.153 0 00.053-.033.137.137 0 00.034-.051.142.142 0 00.01-.061.154.154 0 00-.016-.06l-.721-1.84a.082.082 0 00-.034-.048.087.087 0 00-.056-.015h-2.02zm1.837-.44c.045 0 .054-.027.045-.052l-.811-2.201c-.009-.035-.017-.08-.044-.08-.027 0-.046.045-.055.08l-.827 2.189c-.009.035 0 .062.035.062l1.657.003zm5.951.13c0 1.144 0 1.76.19 1.92.152.13.391.197 1.088.197.478 0 .829-.009 1.054-.25.124-.155.205-.34.234-.536.009-.08.027-.13.099-.13.072 0 .072.046.072.152a6.974 6.974 0 01-.131 1.028c-.054.197-.099.241-.567.241-.653 0-1.116-.018-1.522-.026-.406-.008-.729-.027-1.099-.027-.099 0-.297 0-.513.01-.215.008-.441.017-.621.017-.117 0-.18-.027-.18-.089s.035-.072.144-.072c.109 0 .218-.012.325-.035.18-.037.224-.233.261-.492.044-.376.044-1.082.044-1.902v-1.58c0-1.358 0-1.608-.018-1.894-.019-.286-.09-.447-.392-.509a1.328 1.328 0 00-.297-.027c-.099 0-.153-.017-.153-.08 0-.064.063-.08.197-.08.424 0 .991.027 1.235.027.215 0 .873-.028 1.224-.028.13 0 .189.019.189.08 0 .063-.054.08-.162.08a2.43 2.43 0 00-.351.028c-.243.044-.316.197-.334.509-.017.286-.017.536-.017 1.894l.001 1.574zm5.044-1.574c0-1.358 0-1.608-.018-1.894-.019-.286-.09-.447-.392-.509a1.833 1.833 0 00-.351-.027c-.099 0-.153-.017-.153-.08 0-.064.063-.08.199-.08.243 0 .504.008.729.008.226 0 .441.019.567.019.288 0 2.08 0 2.251-.01.171-.009.316-.036.391-.053a.843.843 0 01.144-.036c.045 0 .055.036.055.08a5.149 5.149 0 00-.072.58c-.009.091-.028.483-.046.59-.009.045-.027.1-.09.1-.062 0-.081-.046-.081-.13a.949.949 0 00-.053-.321c-.064-.161-.154-.268-.604-.323a31.12 31.12 0 00-1.279-.035c-.045 0-.063.027-.063.09v2.259c0 .063.009.098.063.098.198 0 1.234 0 1.435-.017.201-.016.352-.045.433-.13.081-.083.1-.116.144-.116.044 0 .063.018.063.073 0 .054-.036.195-.072.647-.009.179-.035.536-.035.6 0 .063 0 .17-.083.17a.069.069 0 01-.032-.004.076.076 0 01-.046-.045c-.003-.01-.004-.021-.003-.032a2.328 2.328 0 00-.035-.322c-.045-.179-.171-.312-.505-.349a28.558 28.558 0 00-1.277-.027c-.046 0-.055.036-.055.09v.71c0 .303-.009 1.125 0 1.384.018.617.162.751 1.08.751.235 0 .612 0 .847-.107.235-.108.342-.295.405-.662.018-.098.036-.13.099-.13s.072.072.072.161a7.034 7.034 0 01-.116.992c-.064.232-.145.232-.487.232-.675 0-1.175-.018-1.558-.026-.384-.008-.666-.027-.936-.027-.099 0-.298 0-.514.009-.217.009-.441.018-.621.018-.116 0-.18-.027-.18-.09 0-.062.036-.072.144-.072.109 0 .218-.011.324-.035.18-.036.226-.233.261-.492.046-.375.046-1.08.046-1.902l.005-1.578zM77.933 71.52c-.045 0-.062.018-.08.07l-.487 1.225a1.714 1.714 0 00-.13.544c0 .162.08.277.36.277h.13c.108 0 .13.019.13.072 0 .072-.054.09-.154.09-.287 0-.674-.027-.954-.027-.099 0-.593.027-1.062.027-.117 0-.17-.018-.17-.09 0-.053.034-.072.108-.072.073 0 .206-.009.277-.016.415-.055.586-.358.766-.805l2.26-5.54c.109-.259.162-.356.252-.356s.131.08.225.285c.217.492 1.657 4.066 2.234 5.424.342.804.603.928.792.973.125.024.252.035.379.035.071 0 .116.01.116.072 0 .062-.081.09-.414.09-.333 0-.981 0-1.696-.018-.162-.009-.27-.009-.27-.072 0-.064.036-.072.13-.08a.147.147 0 00.088-.085.143.143 0 00-.007-.12l-.72-1.841a.088.088 0 00-.09-.062h-2.013zm1.838-.44c.044 0 .053-.028.044-.054l-.81-2.2c-.01-.036-.019-.081-.045-.081s-.045.045-.054.08l-.83 2.19c-.008.034 0 .062.037.062l1.658.002zm5.95.129c0 1.143 0 1.76.19 1.92.154.13.391.197 1.09.197.477 0 .828-.01 1.054-.25a1.13 1.13 0 00.233-.536c.01-.08.028-.13.1-.13.071 0 .071.046.071.152a6.88 6.88 0 01-.13 1.028c-.054.197-.098.24-.567.24-.652 0-1.117-.017-1.521-.025-.405-.008-.73-.027-1.1-.027-.098 0-.297 0-.512.009-.215.009-.442.018-.622.018-.117 0-.18-.027-.18-.09 0-.045.036-.072.144-.072.11 0 .218-.011.324-.035.18-.036.226-.233.261-.492.046-.375.046-1.081.046-1.902v-1.58c0-1.358 0-1.607-.019-1.894-.018-.286-.09-.446-.391-.508a1.321 1.321 0 00-.296-.028c-.1 0-.154-.018-.154-.08s.064-.08.198-.08c.424 0 .99.027 1.235.027.215 0 .873-.027 1.224-.027.13 0 .189.018.189.08s-.055.08-.162.08a2.3 2.3 0 00-.352.028c-.243.044-.315.197-.333.508-.018.287-.018.537-.018 1.895l-.002 1.574zm8.464-1.574c0-1.359 0-1.608-.018-1.895-.018-.286-.089-.446-.391-.508a1.836 1.836 0 00-.351-.028c-.1 0-.154-.018-.154-.08s.064-.08.198-.08c.478 0 1.044.027 1.235.027.305 0 .99-.027 1.268-.027.568 0 1.174.054 1.657.388a1.556 1.556 0 01.612 1.224c0 .661-.279 1.269-1.189 2.001.802 1 1.424 1.796 1.958 2.35.504.517.873.58 1.009.608.083.015.167.024.252.026.071 0 .108.027.108.07 0 .073-.064.091-.172.091h-.855c-.504 0-.73-.045-.963-.17-.392-.205-.73-.626-1.235-1.313-.36-.491-.774-1.1-.891-1.233a.187.187 0 00-.162-.062l-.783-.018c-.046 0-.073.018-.073.07v.13c0 .83 0 1.536.046 1.911.027.26.08.456.35.492.147.02.294.032.442.035.072 0 .108.027.108.072 0 .063-.063.09-.18.09-.522 0-1.189-.027-1.323-.027-.171 0-.739.027-1.099.027-.117 0-.18-.027-.18-.09 0-.044.036-.072.143-.072.11 0 .219-.011.325-.035.18-.036.225-.233.261-.492.045-.375.045-1.08.045-1.901l.002-1.581zm1.063.705c0 .099.018.13.082.16.222.064.453.094.684.09.36 0 .477-.035.64-.151.27-.197.53-.608.53-1.34 0-1.27-.847-1.636-1.378-1.636-.16-.007-.32.005-.476.037-.064.018-.082.053-.082.13v2.71zm6.457-.706c0-1.358 0-1.608-.019-1.894-.018-.286-.09-.447-.391-.509a1.833 1.833 0 00-.351-.027c-.099 0-.153-.018-.153-.08 0-.063.063-.08.199-.08.242 0 .503.008.729.008.226 0 .441.019.566.019.289 0 2.081 0 2.252-.01.131-.01.262-.029.391-.054.047-.015.095-.027.144-.035.045 0 .054.035.054.08a5.388 5.388 0 00-.071.58c-.01.091-.028.483-.046.59-.009.045-.027.1-.09.1s-.081-.046-.081-.13a.975.975 0 00-.054-.321c-.063-.16-.153-.268-.604-.323a30.976 30.976 0 00-1.277-.035c-.046 0-.064.027-.064.09v2.259c0 .063.009.098.064.098.197 0 1.233 0 1.435-.016.202-.017.351-.046.432-.13.081-.084.099-.116.144-.116.044 0 .062.018.062.072 0 .054-.035.196-.071.647-.01.179-.036.536-.036.6 0 .063 0 .17-.081.17a.071.071 0 01-.082-.08 2.054 2.054 0 00-.035-.323c-.046-.179-.171-.312-.505-.349a28.57 28.57 0 00-1.278-.027c-.045 0-.054.037-.054.09v.71c0 .303-.01 1.126 0 1.385.018.616.161.75 1.08.75.235 0 .612 0 .847-.107.235-.108.342-.295.405-.662.018-.098.036-.13.099-.13.062 0 .071.072.071.161a7.034 7.034 0 01-.116.992c-.064.232-.144.232-.486.232-.675 0-1.175-.018-1.559-.026-.383-.008-.665-.027-.935-.027-.099 0-.298 0-.513.009a16.13 16.13 0 01-.623.018c-.116 0-.18-.027-.18-.09 0-.045.037-.072.145-.072.109 0 .218-.011.324-.035.18-.036.226-.233.261-.492.046-.375.046-1.08.046-1.902l.005-1.578zm6.411.001c0-1.359 0-1.608-.018-1.895-.018-.286-.09-.446-.392-.508a1.827 1.827 0 00-.351-.028c-.099 0-.152-.018-.152-.08s.062-.08.197-.08c.477 0 1.044.027 1.297.027.369 0 .891-.027 1.305-.027 1.126 0 1.532.375 1.675.509.282.284.444.664.451 1.063 0 1.269-.937 2.162-2.219 2.162a1.315 1.315 0 01-.189-.01c-.046-.007-.108-.016-.108-.08 0-.063.062-.098.251-.098.504 0 1.208-.562 1.208-1.473 0-.295-.028-.894-.532-1.34a1.423 1.423 0 00-1.252-.314c-.045.019-.072.073-.072.17v3.576c0 .82 0 1.526.046 1.911.026.25.08.447.351.483.152.021.305.033.459.035.099 0 .144.027.144.071 0 .063-.072.09-.171.09-.594 0-1.162-.027-1.395-.027-.208 0-.776.028-1.136.028-.117 0-.18-.028-.18-.09 0-.045.037-.072.145-.072.109 0 .217-.012.324-.035.18-.036.224-.233.261-.492.045-.376.045-1.081.045-1.902l.008-1.574zm6.23 0c0-1.359 0-1.608-.017-1.895-.017-.286-.09-.446-.391-.508a1.84 1.84 0 00-.351-.028c-.1 0-.154-.018-.154-.08s.064-.08.198-.08c.478 0 1.044.027 1.315.027.216 0 .783-.027 1.107-.027.131 0 .198.018.198.08s-.053.08-.143.08c-.088.001-.175.01-.261.028-.244.044-.316.197-.334.508-.017.287-.017.537-.017 1.895v1.25c0 1.295.261 1.84.702 2.201a1.67 1.67 0 001.125.367c.462.007.908-.166 1.242-.482.496-.492.522-1.295.522-2.215v-1.118c0-1.358 0-1.608-.018-1.894-.018-.286-.09-.446-.392-.508a1.704 1.704 0 00-.323-.028c-.099 0-.153-.018-.153-.08s.063-.08.188-.08c.459 0 1.027.027 1.036.027.108 0 .675-.027 1.027-.027.131 0 .188.018.188.08s-.054.08-.162.08c-.088 0-.175.01-.261.028-.243.044-.314.196-.333.508-.018.287-.018.536-.018 1.894v.956c0 .992-.099 2.047-.855 2.69-.639.544-1.288.646-1.874.646-.476 0-1.341-.027-1.997-.616-.46-.41-.803-1.072-.803-2.366l.009-1.313zm8.78 0c0-1.359 0-1.608-.018-1.895-.019-.286-.09-.446-.392-.508a1.833 1.833 0 00-.351-.028c-.099 0-.153-.018-.153-.08s.063-.08.199-.08c.476 0 1.044.027 1.224.027.441 0 .792-.027 1.099-.027 1.63 0 1.918.866 1.918 1.34 0 .733-.424 1.165-.914 1.564.739.25 1.64.884 1.64 1.93 0 .955-.748 1.941-2.406 1.941-.108 0-.369-.018-.63-.026s-.54-.027-.675-.027c-.099 0-.297 0-.512.01-.216.008-.443.017-.623.017-.116 0-.18-.027-.18-.09 0-.044.037-.072.145-.072.109 0 .217-.011.324-.034.18-.037.225-.234.261-.492.045-.376.045-1.082.045-1.903l-.001-1.567zm1.08.151c0 .073.027.09.063.099.14.022.281.031.423.027.297 0 .496-.037.652-.17.235-.188.37-.509.37-.948 0-.598-.351-1.384-1.125-1.384-.1-.004-.199.002-.298.019-.062.018-.081.053-.081.15l-.004 2.207zm1.189.715a1.31 1.31 0 00-.748-.214c-.161-.009-.251-.009-.391-.009-.035 0-.054.018-.054.062v2.118c0 .59.027.741.315.858.208.08.43.116.652.107.405 0 1.09-.215 1.09-1.145.009-.551-.18-1.303-.864-1.777zm5.763.708c0 1.143 0 1.76.189 1.92.153.13.392.197 1.089.197.477 0 .828-.01 1.054-.25.124-.155.205-.34.234-.536.009-.08.027-.13.099-.13.072 0 .072.046.072.152a7.115 7.115 0 01-.131 1.028c-.055.197-.099.24-.568.24-.652 0-1.117-.017-1.521-.025-.405-.008-.73-.027-1.099-.027-.099 0-.298 0-.513.009a16.09 16.09 0 01-.621.018c-.117 0-.18-.027-.18-.09 0-.045.035-.072.143-.072.11 0 .219-.011.325-.035.18-.036.225-.233.261-.492.045-.375.045-1.081.045-1.902v-1.58c0-1.358 0-1.607-.019-1.894-.018-.286-.09-.446-.391-.508a1.337 1.337 0 00-.298-.028c-.099 0-.152-.018-.152-.08s.062-.08.197-.08c.424 0 .99.027 1.234.027.216 0 .873-.027 1.224-.027.131 0 .19.018.19.08s-.054.08-.162.08c-.118 0-.235.01-.351.028-.244.044-.316.197-.334.508-.017.287-.017.537-.017 1.895l.001 1.574zm5.043-1.574c0-1.359 0-1.608-.019-1.895-.018-.286-.108-.455-.306-.5a1.272 1.272 0 00-.324-.035c-.09 0-.145-.019-.145-.09s.073-.071.217-.071c.342 0 .913.027 1.174.027.225 0 .757-.027 1.099-.027.117 0 .189.018.189.071 0 .053-.055.09-.145.09s-.181.01-.27.027c-.242.044-.314.197-.333.508-.018.287-.018.537-.018 1.895v1.574c0 .866 0 1.572.037 1.956.027.241.09.402.36.438.152.021.306.033.459.035.099 0 .144.027.144.071 0 .063-.072.09-.171.09-.594 0-1.162-.027-1.404-.027-.208 0-.775.028-1.136.028-.116 0-.18-.028-.18-.09 0-.045.037-.072.145-.072.109 0 .218-.012.324-.035.18-.036.233-.188.261-.447.045-.375.045-1.08.045-1.942l-.003-1.58zm4.834 3.314c-.882-.768-1.117-1.769-1.117-2.636a3.334 3.334 0 011.055-2.447c.652-.59 1.503-.947 2.845-.947.436-.002.872.028 1.304.089.344.045.631.13.901.152.099.01.13.053.13.108 0 .054-.027.178-.044.49-.017.313-.009.786-.027.965-.01.13-.028.206-.109.206s-.09-.071-.09-.197a1.275 1.275 0 00-.351-.822c-.297-.312-.999-.553-1.827-.553-.783 0-1.296.196-1.696.553-.653.6-.829 1.448-.829 2.314 0 2.127 1.63 3.18 2.837 3.18.801 0 1.287-.089 1.647-.5a1.49 1.49 0 00.307-.59c.027-.142.044-.178.117-.178.073 0 .081.062.081.13-.038.4-.104.796-.198 1.187a.316.316 0 01-.234.259c-.36.143-1.044.205-1.621.205-1.221.01-2.265-.262-3.081-.968zm7.789-3.314c0-1.359 0-1.608-.019-1.895-.018-.286-.107-.455-.305-.5a1.28 1.28 0 00-.325-.035c-.09 0-.144-.019-.144-.09s.072-.071.217-.071c.342 0 .913.027 1.174.027.225 0 .756-.027 1.098-.027.117 0 .189.018.189.071 0 .053-.053.09-.143.09-.091 0-.181.01-.27.027-.243.044-.316.197-.333.508-.019.287-.019.537-.019 1.895v1.574c0 .866 0 1.572.036 1.956.027.241.09.402.36.438.152.02.306.032.459.035.099 0 .145.027.145.071 0 .063-.072.09-.171.09-.595 0-1.161-.027-1.405-.027-.207 0-.774.028-1.134.028-.118 0-.18-.028-.18-.09 0-.045.035-.072.143-.072.109 0 .218-.011.325-.035.18-.036.234-.188.261-.447.044-.375.044-1.08.044-1.942l-.003-1.58zm4.79 0c0-1.359 0-1.608-.018-1.895-.018-.286-.108-.455-.305-.5a1.285 1.285 0 00-.325-.035c-.09 0-.144-.019-.144-.09s.072-.071.215-.071c.344 0 .914.027 1.175.027.226 0 .757-.027 1.099-.027.117 0 .189.018.189.071 0 .053-.054.09-.144.09s-.181.01-.27.027c-.244.044-.316.197-.334.508-.017.287-.017.537-.017 1.895v1.574c0 .866 0 1.572.035 1.956.028.241.09.402.361.438.152.02.305.032.459.035.099 0 .145.027.145.071 0 .063-.073.09-.173.09-.593 0-1.161-.027-1.404-.027-.207 0-.774.028-1.134.028-.117 0-.18-.028-.18-.09 0-.045.035-.072.144-.072.109 0 .217-.011.323-.035.18-.036.235-.188.261-.447.045-.375.045-1.08.045-1.942l-.003-1.58zm8.545-2.484c.028-.151.081-.232.153-.232s.13.044.244.276l2.457 4.968 2.45-5.03c.071-.142.117-.214.198-.214s.13.088.162.276l.819 5.468c.081.563.171.822.441.906.181.059.369.089.559.09.081 0 .143.008.143.061 0 .054-.107.099-.233.099a46.66 46.66 0 01-1.827-.044c-.206-.018-.261-.045-.261-.099 0-.053.036-.07.099-.098.063-.027.081-.13.046-.388l-.541-3.884h-.031l-1.957 3.983c-.208.42-.252.501-.334.501-.083 0-.171-.178-.315-.446-.216-.412-.928-1.778-1.036-2.029-.081-.188-.621-1.242-.936-1.911h-.036l-.475 3.488c-.017.14-.026.28-.026.42 0 .169.116.25.27.285.124.029.25.043.377.044.073 0 .13.019.13.064 0 .08-.08.098-.216.098-.377 0-.783-.027-.945-.027-.162 0-.603.027-.891.027-.09 0-.162-.018-.162-.098 0-.045.053-.064.143-.064.091.002.182-.007.271-.025.251-.055.323-.403.369-.707l.891-5.758zm8.753 3.269c0-1.527 1.018-3.495 3.719-3.495 2.242 0 3.637 1.294 3.637 3.34s-1.444 3.663-3.727 3.663c-2.585 0-3.629-1.925-3.629-3.507zm6.095.17c0-2-1.161-3.237-2.638-3.237-1.035 0-2.219.571-2.219 2.796 0 1.859 1.036 3.332 2.764 3.332.634-.005 2.093-.308 2.093-2.89zm4.989.619c0 1.143 0 1.76.189 1.92.153.13.392.197 1.09.197.476 0 .827-.01 1.053-.25.124-.155.205-.34.234-.536.009-.08.027-.13.099-.13.072 0 .072.046.072.152a6.978 6.978 0 01-.131 1.028c-.055.197-.099.24-.568.24-.652 0-1.115-.017-1.521-.025-.406-.008-.73-.027-1.099-.027-.099 0-.296 0-.513.009a16.16 16.16 0 01-.621.018c-.117 0-.18-.027-.18-.09 0-.045.035-.072.143-.072.11 0 .219-.011.325-.035.18-.036.225-.233.261-.492.045-.375.045-1.081.045-1.902v-1.58c0-1.358 0-1.607-.018-1.894-.019-.286-.089-.446-.392-.508a1.331 1.331 0 00-.298-.028c-.099 0-.152-.018-.152-.08s.062-.08.198-.08c.423 0 .991.027 1.233.027.216 0 .873-.027 1.224-.027.131 0 .19.018.19.08s-.054.08-.162.08c-.118 0-.235.01-.351.028-.243.044-.316.197-.333.508-.018.287-.018.537-.018 1.895l.001 1.574zm5.042-1.574c0-1.359 0-1.608-.018-1.895-.018-.286-.09-.446-.391-.508a1.84 1.84 0 00-.351-.028c-.1 0-.153-.018-.153-.08s.063-.08.198-.08c.477 0 1.044.027 1.296.027.279 0 .847-.027 1.387-.027 1.125 0 2.63 0 3.611 1.019.581.612.895 1.427.873 2.268a3.535 3.535 0 01-.981 2.492c-.414.421-1.351 1.056-3.017 1.056-.324 0-.693-.028-1.035-.055-.342-.027-.653-.053-.882-.053-.099 0-.298 0-.514.01-.217.008-.441.017-.622.017-.116 0-.18-.027-.18-.09 0-.044.037-.071.145-.071.109 0 .218-.012.324-.035.18-.037.226-.233.261-.492.046-.376.046-1.081.046-1.902l.003-1.573zm1.125.982c0 .948.009 1.635.019 1.805.009.223.027.58.099.679.117.17.468.357 1.174.357.914 0 1.531-.179 2.071-.647.576-.492.756-1.306.756-2.226 0-1.134-.477-1.867-.864-2.233-.829-.786-1.854-.894-2.558-.894a2.373 2.373 0 00-.584.064.158.158 0 00-.087.07.16.16 0 00-.022.108c-.009.303-.009 1.081-.009 1.787l.005 1.13zm7.042-.197c0-1.527 1.018-3.495 3.719-3.495 2.242 0 3.637 1.294 3.637 3.34s-1.435 3.663-3.727 3.663c-2.585 0-3.629-1.925-3.629-3.507zm6.096.17c0-2-1.162-3.237-2.638-3.237-1.036 0-2.218.571-2.218 2.796 0 1.859 1.036 3.332 2.764 3.332.633-.005 2.092-.308 2.092-2.89zm3.124-2.67c-.206-.492-.36-.59-.684-.68a1.382 1.382 0 00-.351-.035c-.081 0-.108-.026-.108-.08 0-.055.099-.081.235-.081.476 0 .99.027 1.305.027.225 0 .652-.027 1.107-.027.109 0 .207.018.207.08s-.054.08-.131.08a.643.643 0 00-.351.064.212.212 0 00-.09.187 2.6 2.6 0 00.208.688l1.547 4.055h.037c.391-.982 1.558-3.858 1.773-4.448a1.05 1.05 0 00.081-.33.168.168 0 00-.116-.17 1.195 1.195 0 00-.36-.046c-.081 0-.154-.009-.154-.07 0-.063.081-.09.253-.09.45 0 .827.027.945.027.153 0 .577-.027.847-.027.116 0 .189.018.189.08s-.055.08-.145.08a.788.788 0 00-.441.108c-.117.08-.252.233-.495.804-.352.84-.595 1.322-1.08 2.421-.577 1.304-1 2.279-1.198 2.725-.235.518-.288.66-.415.66s-.171-.129-.342-.544l-2.273-5.459zm7.933 3.6c-.045 0-.063.018-.081.07l-.486 1.225a1.73 1.73 0 00-.13.544c0 .162.081.277.36.277h.131c.108 0 .13.019.13.072 0 .072-.053.09-.153.09-.288 0-.676-.027-.954-.027-.099 0-.595.027-1.063.027-.116 0-.171-.018-.171-.09 0-.053.036-.072.108-.072.072 0 .208-.009.279-.016.414-.055.585-.358.765-.805l2.271-5.54c.108-.259.163-.356.252-.356.088 0 .13.08.226.285.216.492 1.657 4.066 2.232 5.424.342.804.603.928.792.973.125.024.252.035.379.035.072 0 .117.01.117.072 0 .062-.081.09-.413.09-.333 0-.983 0-1.703-.018-.162-.009-.27-.009-.27-.072 0-.064.036-.072.13-.08a.144.144 0 00.088-.085.159.159 0 00.01-.06.155.155 0 00-.017-.06l-.72-1.841a.091.091 0 00-.034-.047.089.089 0 00-.056-.016h-2.019zm1.837-.447c.046 0 .054-.027.046-.053l-.811-2.201c-.009-.035-.018-.08-.045-.08-.028 0-.046.045-.054.08l-.828 2.19c-.01.034 0 .061.035.061l1.657.003z" fill="#003DA6"/></svg>