<svg width="350" height="400" fill="none" xmlns="http://www.w3.org/2000/svg"><g clip-path="url(#clip0)"><g clip-path="url(#clip1)"><path d="M341.629 156.495a109.474 109.474 0 00-50.342-52.109c-26.705-22.97-62.318-34.58-95.919-43.291a422.1 422.1 0 00-59.761-11.68c-18.926-2.05-38.276-2.58-56.232 4.718-29.034 11.803-57.89 30.905-68.791 61.721-5.504 15.797-7.162 35.111-3.158 51.473 2.24 9.224 6.403 17.812 9.031 26.894 3.528 12.369 2.046 22.353-3.351 33.873C5.292 244.74-1.764 260.731.388 279.497a61.527 61.527 0 0020.232 38.874c29.21 26.275 72.707 25.515 109.361 22.741a490.527 490.527 0 0065.792-8.747c21.396-4.576 42.016-11.309 62.759-18.164 31.415-10.39 65.74-21.576 80.998-53.788 15.451-32.584 16.968-70.945 2.099-103.918z" fill="#FAF0D0"/><path d="M329.458 38H131.444v266.853h198.014V38z" fill="#282828"/><path d="M319.633 51.235H141.251v240.401h178.382V51.235z" fill="#C98CD2"/><path d="M205.104 75.107a3.2 3.2 0 01-1.975 2.956 3.188 3.188 0 01-3.481-.7 3.198 3.198 0 01-.681-3.492 3.191 3.191 0 012.962-1.962 3.17 3.17 0 012.938 1.975c.159.388.239.804.237 1.223zm38.312 46.826a2.65 2.65 0 01-3.162 2.599 2.653 2.653 0 01.516-5.25 2.653 2.653 0 012.646 2.651zm-31.062 43.115a3.478 3.478 0 003.475-3.481 3.478 3.478 0 00-3.475-3.481 3.478 3.478 0 00-3.475 3.481 3.478 3.478 0 003.475 3.481zm84.983-35.164c-.003.44-.136.869-.383 1.232a2.22 2.22 0 01-4.02-.822 2.23 2.23 0 01.948-2.28 2.218 2.218 0 011.233-.374 2.24 2.24 0 012.222 2.244zm-5.256 63.966c4.072 0 7.373-3.307 7.373-7.386 0-4.08-3.301-7.386-7.373-7.386s-7.373 3.306-7.373 7.386c0 4.079 3.301 7.386 7.373 7.386zm-46.355 12.881a2.535 2.535 0 01-.657 1.922 2.52 2.52 0 01-4.243-.892 2.535 2.535 0 01.679-2.678 2.52 2.52 0 014.221 1.648zm44.291 38.026a2.86 2.86 0 002.858-2.862 2.86 2.86 0 00-2.858-2.863 2.86 2.86 0 00-2.857 2.863 2.86 2.86 0 002.857 2.862zm-22.983 26.17a2.23 2.23 0 01-1.36 2.069 2.219 2.219 0 01-3.041-1.611 2.23 2.23 0 012.178-2.667 2.221 2.221 0 012.223 2.209z" fill="#FFE36E"/><path d="M292.582 90.496c2.003-12.418-6.422-24.112-18.818-26.118-12.396-2.007-24.069 6.433-26.073 18.85-2.003 12.419 6.422 24.113 18.818 26.119 12.396 2.007 24.069-6.433 26.073-18.85z" fill="#E6E5EA"/><path d="M256.962 95.781c1.412 2.244 1.764 4.541.865 5.107-.9.565-2.805-.778-4.198-3.022-1.394-2.244-1.764-4.541-.865-5.124.9-.583 2.805.777 4.198 3.04zm4.851 8.075c1.393.919 2.346 1.944 2.117 2.28-.23.335-1.535-.124-2.928-1.043-1.394-.919-2.346-1.926-2.135-2.262.212-.335 1.535.106 2.946 1.025zm15.116 1.714c1.535-.654 2.911-.901 3.069-.512.159.389-.952 1.219-2.487 1.873-1.534.654-2.91.883-3.069.512-.159-.371.935-1.219 2.487-1.873zm2.029-3.481c1.429-.883 2.752-1.325 2.963-.972.212.354-.758 1.343-2.169 2.227-1.412.883-2.752 1.307-2.964.972-.211-.336.759-1.343 2.17-2.227zm5.538-3.18c1.182-1.184 2.364-1.909 2.664-1.626.3.283-.441 1.484-1.623 2.686-1.182 1.201-2.364 1.908-2.646 1.626-.282-.283.423-1.485 1.605-2.686z" fill="#D2CEDB"/><path d="M184.89 203.975s24.8-5.761 31.856 11.538c7.055 17.299 36.882 109.555 26.987 116.888-5.697 4.276-31.873.3-31.873.3l-34.026-85.576 7.056-43.15z" fill="#ED9996"/><path d="M197.749 297.237l45.667-12.828c-7.267-28.272-22.684-59.336-26.599-68.913-7.056-17.299-31.856-11.539-31.856-11.539l-7.056 43.15 19.844 50.13z" fill="#005784"/><path d="M215.811 222.97a4.466 4.466 0 00-1.482-1.767c-.917-.707-2.046-.901-1.958-1.997.088-1.095 1.552-1.908 1.023-2.915-.529-1.007-1.623-.336-2.24 0-1.764.76-1.87 1.325-4.004.335a3.077 3.077 0 00-1.623-.547.334.334 0 00-.317.335c0 .937.229 2.898.264 3.11.336 1.767-.211 1.379-1.076 2.775a4.372 4.372 0 00-.617 2.933.532.532 0 00.521.503.536.536 0 00.255-.061c2.928-1.361 2.752.653 3.528 2.367a2.539 2.539 0 001.764 1.449.406.406 0 00.494-.282 9.195 9.195 0 00.423-2.58c0-.53-.37-2.651 0-2.934.37-.282 2.011.16 2.47.16a9.346 9.346 0 002.328-.319.352.352 0 00.247-.565zm10.178 41.684c0-.354-.512-.265-.618 0-.935 2.35-4.021 1.767-5.291 0a3.997 3.997 0 01-.124-4.559c.811-1.007 1.764-.972 2.787-1.149a.44.44 0 00.269-.609.438.438 0 00-.163-.186 7.249 7.249 0 00-3.704-1.201 3.376 3.376 0 00-2.087.151 3.392 3.392 0 00-1.6 1.35 8.262 8.262 0 00.529 8.447c1.411 2.138 4.04 3.993 6.668 2.968a5.098 5.098 0 002.545-2.042 5.122 5.122 0 00.789-3.17z" fill="#FFE36E"/><path d="M203.094 290.364c9.648-2.28 28.01-6.468 37.147-8.553a5.609 5.609 0 014.246.723 5.628 5.628 0 012.492 3.518l.282 1.202a5.644 5.644 0 01-.651 4.15 5.626 5.626 0 01-3.335 2.547l-36.336 10.178a5.639 5.639 0 01-6.809-3.534l-1.04-2.828a5.622 5.622 0 014.004-7.403z" fill="#036C8C"/><path d="M128.481 200.193s-59.107 4.223-83.784 54.919c-16.58 34.05-9.296 87.343-9.296 87.343l132.715.583s-9.86-53.487 16.774-74.32c26.635-20.833 3.934-71.193-56.409-68.525z" fill="#005784"/><path d="M171.22 257.321a4.174 4.174 0 00-1.464-1.767c-.917-.707-2.046-.902-1.958-1.997.088-1.096 1.535-1.908 1.023-2.916-.511-1.007-1.623-.335-2.258 0-1.763.778-1.869 1.343-4.004.354a3.005 3.005 0 00-1.605-.548.318.318 0 00-.317.318c0 .954.229 2.916.264 3.128.318 1.767-.229 1.378-1.076 2.774a4.35 4.35 0 00-.617 2.915.512.512 0 00.776.46c2.928-1.361 2.752.654 3.528 2.368a2.548 2.548 0 001.764 1.449.442.442 0 00.494-.283 9.859 9.859 0 00.423-2.58c0-.548-.37-2.651 0-2.933.37-.283 2.011.159 2.469.159a9.345 9.345 0 002.311-.318.334.334 0 00.33-.204.335.335 0 00-.083-.379zM49.089 328.796a4.523 4.523 0 00-1.464-1.767c-.935-.707-2.064-.919-1.958-1.997.106-1.078 1.535-1.926 1.023-2.915-.511-.99-1.623-.354-2.258 0-1.764.777-1.87 1.325-4.004.335a3.078 3.078 0 00-1.622-.53.32.32 0 00-.318.318c.032 1.042.127 2.08.282 3.11.318 1.767-.229 1.379-1.076 2.774a4.284 4.284 0 00-.652 2.845.53.53 0 00.776.46c2.928-1.379 2.752.654 3.528 2.35a2.52 2.52 0 001.764 1.449.382.382 0 00.308-.034.38.38 0 00.185-.249 9.168 9.168 0 00.494-2.562c0-.548-.352-2.668 0-2.951.353-.283 2.029.177 2.47.159a9.39 9.39 0 002.328-.318.34.34 0 00.208-.193.34.34 0 00-.014-.284zm15.487-78.119a4.288 4.288 0 00-1.464-1.767c-.917-.707-2.046-.902-1.958-1.979.088-1.078 1.535-1.926 1.023-2.934-.511-1.007-1.623-.335-2.258 0-1.763.76-1.87 1.326-4.004.336a2.856 2.856 0 00-1.605-.53.32.32 0 00-.317.318c0 .937.229 2.898.264 3.11.318 1.767-.229 1.378-1.076 2.774a4.496 4.496 0 00-.635 2.933.53.53 0 00.794.442c2.928-1.36 2.752.654 3.528 2.368a2.544 2.544 0 001.764 1.449.423.423 0 00.494-.283 9.855 9.855 0 00.423-2.58c0-.53-.37-2.65 0-2.933.37-.283 2.01.159 2.47.159a9.345 9.345 0 002.31-.318.315.315 0 00.344-.186.318.318 0 00-.097-.379zm63.764 7.333c0-.354-.529-.248-.617 0-.953 2.35-4.022 1.767-5.292 0a3.928 3.928 0 01-.123-4.559c.811-1.007 1.764-.972 2.769-1.149a.44.44 0 00.269-.609.438.438 0 00-.163-.186 7.258 7.258 0 00-3.704-1.201 3.386 3.386 0 00-3.687 1.519 8.286 8.286 0 00.547 8.429c1.394 2.138 4.039 3.993 6.668 2.986a5.147 5.147 0 002.539-2.057c.601-.943.88-2.057.794-3.173zm34.219 77.43c0-.353-.511-.247-.617 0-.935 2.35-4.022 1.767-5.292 0a4.003 4.003 0 01-.123-4.559c.811-1.007 1.764-.972 2.787-1.149a.435.435 0 00.307-.363.439.439 0 00-.038-.245.435.435 0 00-.163-.187 7.261 7.261 0 00-3.704-1.201 3.37 3.37 0 00-3.687 1.519 8.228 8.228 0 00.529 8.429c1.411 2.138 4.04 3.993 6.668 2.986a5.112 5.112 0 002.547-2.052 5.13 5.13 0 00.786-3.178z" fill="#FFE36E"/><path d="M142.874 250.147s-14.534 28.89-16.492 44.616c-1.958 15.727 2.17 46.791 2.17 46.791" stroke="#002B56" stroke-linecap="round" stroke-linejoin="round"/><path d="M115.199 203.109c.635 3.94 6.774 44.935 27.605 44.811 13.176 0 27.587-34.297 27.587-34.297l-55.192-10.514z" fill="#ED9996"/><path d="M142.875 247.92l3.139-9.895s16.016-12.369 18.38-19.773c.087-.253.152-.513.194-.777 1.393-7.227.247 7.651.247 7.651s-6.756 22.158-21.96 22.794zm-1.87-.088v-8.835s-16.933-24.632-20.832-33.573c-3.898-8.941-4.974 5.301-4.974 5.301s5.733 35.163 25.806 37.107z" fill="#036C8C"/><path d="M177.835 111.967s-50.712-43.15-87.436-39.934c-36.724 3.216-41.01 69.602-39.246 72.093 1.764 2.492 21.484-21.204 22.93-19.295 1.447 1.908 13.74 41.86 13.74 41.86l90.012-54.724z" fill="#005784"/><path d="M96.22 144.515a4.294 4.294 0 00-1.464-1.767c-.917-.707-2.046-.901-1.958-1.979.088-1.078 1.535-1.926 1.023-2.933-.511-1.007-1.623-.336-2.24 0-1.764.76-1.887 1.325-4.004.335a2.914 2.914 0 00-1.623-.53.317.317 0 00-.317.318c0 .937.229 2.898.264 3.11.318 1.767-.211 1.379-1.076 2.775a4.37 4.37 0 00-.617 2.933.53.53 0 00.776.442c2.928-1.361 2.752.653 3.528 2.367a2.534 2.534 0 001.764 1.449.422.422 0 00.494-.282 9.866 9.866 0 00.423-2.58c0-.53-.37-2.651 0-2.934.37-.282 2.01.16 2.47.16a9.3 9.3 0 002.31-.319.32.32 0 00.204-.033.32.32 0 00.157-.359.316.316 0 00-.114-.173zM71.808 113.84a4.3 4.3 0 00.388-2.297c0-1.149-.653-2.138.229-2.774.882-.637 2.452 0 2.875-1.149.423-1.149-.811-1.449-1.429-1.767-1.763-.813-2.222-.548-2.875-2.81a3.005 3.005 0 00-.652-1.572.351.351 0 00-.459 0c-.706.618-2.029 2.085-2.17 2.244-1.129 1.413-1.181.742-2.787 1.007a4.41 4.41 0 00-2.628 1.449.532.532 0 00.177.884c2.945 1.307 1.305 2.509.547 4.258a2.528 2.528 0 000 2.226.424.424 0 00.546.195 9.77 9.77 0 002.205-1.361c.423-.353 1.764-2.032 2.276-1.873.511.159 1.199 1.626 1.499 1.979a9.663 9.663 0 001.764 1.538.338.338 0 00.415-.05.334.334 0 00.079-.127zm80.785-9.789c0-.354-.511-.248-.617 0-.935 2.35-4.022 1.767-5.292 0a4.003 4.003 0 01-.123-4.56c.811-1.006 1.764-.953 2.787-1.148.37 0 .388-.618 0-.795a7.259 7.259 0 00-3.704-1.201 3.344 3.344 0 00-3.669 1.52 8.226 8.226 0 00.529 8.428c1.411 2.138 4.039 4.011 6.667 2.986a5.128 5.128 0 003.422-5.23zM105.216 78.73c-4.198-3.535-11.695 2.085-9.12 7.067a2.005 2.005 0 000 .46.53.53 0 00.86.311.53.53 0 00.181-.311c0-2.209 3.81-4.117 5.697-3.534 3.264 1.025 1.147 5.3-.97 6.308-.229.106-.088.406.124.424 5.15.566 6.491-7.969 3.228-10.725zm7.443 25.851c-.229-.389-1.128-.513-1.464-.76a5.186 5.186 0 01-1.993-4.86.297.297 0 00-.25-.291.302.302 0 00-.138.009 11.344 11.344 0 00-4.092 2.703c-.335.213-.653.442-.97.672h-4.974a.56.56 0 00-.53.689 33.583 33.583 0 011.764 3.87c.194 1.396-1.217 2.509-1.905 3.534a.565.565 0 00.477.848c1.305 0 2.646-.371 3.933-.371 1.288 0 1.517.159 2.434 1.148a6.03 6.03 0 002.77 2.209.51.51 0 00.617-.336c.847-2.314-.512-5.407 1.764-6.732.723-.406 2.363-.512 2.663-1.413.124-.495.124-.354-.106-.919z" fill="#FFE36E"/><path d="M188.735 124.725s10.125 15.903 5.01 42.832l-25.629-25.869 20.619-16.963z" fill="#282828"/><path d="M167.657 221.503c-.176 6.079 2.17 12.016 7.902 14.631a22.759 22.759 0 008.502 1.891 5.279 5.279 0 002.029-1.255 83.848 83.848 0 0015.116-27.052c2.752-8.235 4.71-18.554.529-26.682-1.764-3.534-5.732-8.058-9.842-4.647a6.683 6.683 0 00-1.923 3.922c-1.446 6.22.618 10.072-2.681 16.592-4.727 9.383-11.783 11.998-19.156 17.936a46.425 46.425 0 00-.476 4.664z" fill="#FFB1A5"/><path d="M188.294 211.166a69.806 69.806 0 007.497-25.762 53.19 53.19 0 00.458-7.987 4.365 4.365 0 00-4.251 1.007 6.684 6.684 0 00-1.922 3.923c-1.447 6.219.617 10.072-2.681 16.592-4.728 9.383-11.783 11.998-19.156 17.935a46.474 46.474 0 00-.476 4.665 18.94 18.94 0 001.287 7.545l.97-.495a44.252 44.252 0 0018.274-17.423z" fill="#ED9996"/><path d="M102.305 182.276c6.244 24.173 29.775 52.339 65.264 42.125 19.949-5.743 28.804-23.254 26.158-56.844-4.921-62.11-24.694-50.219-51.152-46.207-37.8 5.707-48.719 28.307-40.27 60.926z" fill="#FFB1A5"/><path d="M193.269 181.657s-9.419 0-5.433 12.917a15.1 15.1 0 01-2.946 13.588c-5.115 4.948-10.953 7.192-10.953 13.818 0 8.429 7.637 0 7.637 0l14.217-23.483-2.522-16.84zm-4.163-43.044c-3.105-11.008-7.373-17.67-12.524-21.646l-70.555 17.441-.635 1.042 7.056 44.67c.493-1.625 10.583-15.355 11.13-25.604.053 0 53.692 1.873 65.528-15.903z" fill="#ED9996"/><path d="M111.001 202.013s9.807-39.881 8.379-55.325c0 0 36.389 3.799 57.679-3.781s27.551-33.361 16.263-29.156c0 0 3.704-9.718-2.082-13.835-5.785-4.117-10.724 1.625-10.724 1.625s-.653-9.895-9.49-10.602c-5.503-.477-8.361 6.132-9.737 11.186-.758 2.756-3.033 6.113-5.82 5.46-34.414-8.11-70.326 31.629-68.05 56.173 1.022 10.92 6.243 19.401 23.582 38.255z" fill="#282828"/><path d="M193.321 113.751s3.704-9.718-2.081-13.835c-5.786-4.117-10.725 1.625-10.725 1.625s-.652-9.895-9.489-10.602c-5.504-.477-8.361 6.132-9.737 11.186-.758 2.756-3.034 6.113-5.821 5.46-13.599-3.216-27.428 1.077-39.052 8.835a75.578 75.578 0 0117.533-1.273c4.538-.058 9.07.339 13.529 1.184a28.819 28.819 0 007.496 1.255c1.87-.13 3.671-.754 5.221-1.81a10.6 10.6 0 003.599-4.198c1.235-2.703 1.605-6.308 4.321-7.51a5.284 5.284 0 016.297 2.845 12.38 12.38 0 01.653 7.457c1.252-1.767 2.875-3.923 5.098-3.887 2.222.035 4.021 2.632 4.445 5.018a12.869 12.869 0 01-1.764 8.959 6.811 6.811 0 014.396.108 6.828 6.828 0 013.418 2.772 10.613 10.613 0 011.605 4.824c8.273-9.86 8.819-21.328 1.058-18.413z" fill="#424242"/><path d="M119.75 192.083c3.192 9.294.317 18.712-6.403 21.027-6.721 2.315-14.746-3.357-17.939-12.669-3.192-9.312-.317-18.713 6.421-21.081 6.738-2.367 14.746 3.428 17.921 12.723z" fill="#FFB1A5"/><path d="M146.737 171.002c-1.184.397-2.311.95-3.351 1.644a16.915 16.915 0 00-3.722 2.686.425.425 0 00.147.698.418.418 0 00.277.008c.887-.323 1.734-.75 2.522-1.272a3.74 3.74 0 00-.124 1.272c0 1.661 1.094 2.969 2.241 2.898 1.146-.07 2.028-1.449 1.94-3.127a3.26 3.26 0 00-1.376-2.686 8.512 8.512 0 011.764-.707c.988-.124.6-1.626-.318-1.414zm39.317-1.784a25.06 25.06 0 00-7.708-1.926.438.438 0 00-.406.247v.141a.282.282 0 000 .283c.72.609 1.604.99 2.54 1.096a3.642 3.642 0 00-.635 2.35c0 1.661 1.094 2.968 2.258 2.915 1.164-.053 2.028-1.466 1.94-3.145a4.146 4.146 0 00-.247-1.184c.6.177 1.182.336 1.764.46.582.123 1.235-.884.494-1.237zm3.545-12.988c-3.915-4.135-10.583-6.697-16.015-4.417-.265.106-.283.565 0 .548 5.503-.372 10.177 2.862 14.657 5.548a1.08 1.08 0 101.358-1.679zm-41.098-.548c-6.332-1.183-14.217 3.729-16.933 9.436a1.06 1.06 0 001.764 1.078 20.972 20.972 0 016.465-6.234 20.916 20.916 0 018.475-2.954c.723-.089 1.058-1.184.229-1.326z" fill="#282828"/><path d="M143.509 185.916c-.64.082-1.29.022-1.905-.177a5.278 5.278 0 01-1.393-1.007 11.157 11.157 0 01-3.21-6.114c0-.371-.635-.265-.635 0 0 3.746 3.034 9.789 7.549 8.712a.76.76 0 00.565-.743c.158-.512-.53-.636-.971-.671z" fill="#ED9996"/><path d="M140.476 188.195a4.336 4.336 0 01-2.505-1.767 5.553 5.553 0 01-1.57-2.968.203.203 0 00-.406 0c-.458 2.421 1.764 6.008 4.269 6.202.847 0 1.041-1.467.212-1.467zm48.259-15.726a.427.427 0 00-.682-.243.431.431 0 00-.147.243 7.543 7.543 0 01-1.358 5.16 25.553 25.553 0 01-3.281 3.198.69.69 0 00.23 1.121c.14.057.294.067.44.027a8.363 8.363 0 003.951-3.746 9.335 9.335 0 00.847-5.76zm1.764 5.778c-.37 1.149-1.446 1.555-2.416 2.085s-1.341 1.449-.283 1.891c1.059.442 2.011-.671 2.54-1.272a3.543 3.543 0 00.971-2.598.422.422 0 00-.812-.106z" fill="#ED9996"/><path d="M172.331 166.479a.81.81 0 00-1.332-.496.816.816 0 00-.273.496c-.441 5.566 6.315 15.903.124 20.232-1.076.742 0 2.527 1.023 1.767 7.161-5 .988-15.656.458-21.999zm-.335 36.983c-3.527-4.859-8.061-8.464-14.516-7.191-4.163.83-9.737 3.975-9.349 8.835a.374.374 0 00.313.321.37.37 0 00.393-.215c1.093-3.534 5.397-5.867 8.819-6.556 5.292-1.096 9.331 1.926 12.118 6.132.899 1.395 3.192.035 2.222-1.326z" fill="#282828"/><path d="M198.948 213.181a60.172 60.172 0 001.499-15.674c0-1.625-1.323-4.064-1.623-5.672a24.34 24.34 0 00-3.527-7.827c-.794-1.308-2.064-2.81-3.528-2.351a3.09 3.09 0 00-1.094.743 9.18 9.18 0 00-2.645 7.492 48.711 48.711 0 001.499 5.619 14.716 14.716 0 01-2.787 12.492 57.021 57.021 0 01-5.927 5.567 17.997 17.997 0 00-4.903 7.068 10.353 10.353 0 00.494 8.411" fill="#FFB1A5"/><path d="M201.082 196.889a33.987 33.987 0 00-3.933-10.054c0-.177-.371 0-.318.141 1.076 3.817 3.052 7.263 3.369 11.291a58.009 58.009 0 01-.829 11.981c0 .583.953.724 1.059.141a42.89 42.89 0 00.652-13.5z" fill="#282828"/><path d="M172.226 233.077c2.681.972 16.915 85.382 29.227 98.794 20.108 21.928 44.838 4.523 44.097-5.301-2.134-25.286-50.376-103.971-50.376-103.971l-22.948 10.478zM70.08 227.07c10.812-13.394 40.357-15.144 39.669 11.308-.688 26.452-4.304 69.108-4.304 69.108l72.319-13.5 8.149 24.561s-90.945 43.539-111.265 28.272C48.93 327.4 50.87 250.783 70.079 227.07z" fill="#FFB1A5"/><path d="M55.862 296.654c.865 13.182 3.44 25.728 7.938 35.464 9.225-7.987 29.686-18.995 41.68-25.198.212-2.403 1.164-14.136 2.135-28.272a536.11 536.11 0 00-10.354-4.011l-41.399 22.017zm171.679-2.774v.318a5.935 5.935 0 00.797-4.608 5.917 5.917 0 00-2.79-3.75 2.41 2.41 0 000-.318c2.346-3.534-2.364-6.962-2.364-6.962.282-1.767-2.928-3.887-2.928-3.887v6.078l2.999 2.686-12.348-1.484-20.196 25.091a205.036 205.036 0 003.175 9.842 26.297 26.297 0 0014.817-9.966 99.83 99.83 0 0010.83-1.095c6.473-.954 7.055-5.301 7.055-5.301l-2.54-3.534a4.145 4.145 0 003.493-3.11zm-3.528-6.079a2.234 2.234 0 001.305-1.325l1.552 5.301c-1.252-.919-4.392-3.375-2.734-3.976h-.123z" fill="#ED9996"/><path d="M175.824 295.983l12.347-19.013a15.178 15.178 0 016.562-5.92 16.288 16.288 0 016.314-1.166c6.033-.194 12.347.283 17.533 3.34a8.584 8.584 0 012.946 2.615c.723 1.131.97 1.608.388 2.792 3.21 1.484 5.292 5.195 2.822 7.474a5.916 5.916 0 013.193 4.789 5.117 5.117 0 01-3.087 4.311 4.987 4.987 0 012.346 4.064 4.74 4.74 0 01-2.646 3.746 8.803 8.803 0 01-3.528.601c-4.251 0-7.955.901-12.664.937a.884.884 0 00-.529 0 .95.95 0 00-.318.53 9.47 9.47 0 01-3.739 4.47c-5.839 4.382-13.177 8.464-20.391 9.648" fill="#FFB1A5"/><path d="M221.508 275.75a8.595 8.595 0 00-2.946-2.615c-5.291-3.057-11.5-3.534-17.533-3.339a16.288 16.288 0 00-6.314 1.166 15.182 15.182 0 00-6.562 5.919c-2.152 3.322-4.304 6.662-6.473 9.984a50.388 50.388 0 0118.362-11.715 18.593 18.593 0 015.503-1.29 19.304 19.304 0 015.115.601 54.933 54.933 0 0111.324 3.869c.424-1.025.265-1.519-.476-2.58z" fill="#FFCBBD"/><path d="M220.838 277.482c-6.526-2.226-13.335-4.7-20.302-3.64-.635.088-.37 1.06.265.972 7.055-1.096 13.14 2.014 19.861 3.322a.338.338 0 00.381-.496.34.34 0 00-.205-.158zm2.417 7.899a30.883 30.883 0 00-17.78-1.767c-.635.123-.353 1.042.264.954a47.536 47.536 0 0117.427 1.078.17.17 0 00.109-.111.181.181 0 00.008-.08.18.18 0 00-.028-.074zm.211 8.835c-5.644-.672-11.271-2.934-16.862-.831-.583.23-.336 1.166.264.954 5.521-2.014 10.989.477 16.598.424.371 0 .335-.547 0-.547z" fill="#282828"/><path d="M109.749 238.29c.688-26.505-28.857-24.738-39.67-11.309-13.088 16.239-20.443 56.756-16.492 87.449l55.95-14.525c1.023-13.128-.317-41.666.212-61.615z" fill="#036C8C"/><path d="M100.136 239.898c-.33-.71-.84-1.32-1.482-1.767-.917-.707-2.046-.919-1.958-1.997.088-1.078 1.552-1.926 1.023-2.915-.529-.99-1.622-.354-2.24 0-1.764.777-1.87 1.325-4.004.335a3.078 3.078 0 00-1.623-.53.32.32 0 00-.317.318c0 .937.23 2.916.264 3.11.336 1.767-.211 1.396-1.076 2.774a4.374 4.374 0 00-.617 2.934.53.53 0 00.776.459c2.928-1.378 2.752.654 3.528 2.35a2.49 2.49 0 001.764 1.449c.05.016.104.021.158.016a.4.4 0 00.269-.154.39.39 0 00.067-.144 9.18 9.18 0 00.423-2.563c0-.547-.37-2.668 0-2.951.37-.282 2.01.177 2.47.159a9.067 9.067 0 002.31-.318.331.331 0 00.324-.192.33.33 0 00-.059-.373zm-23.954 50.324c0-.353-.529-.247-.635 0-.935 2.35-4.004 1.767-5.291 0a3.997 3.997 0 01-.124-4.559c.83-1.007 1.764-.954 2.787-1.148a.446.446 0 00.307-.364.442.442 0 00-.201-.431 7.259 7.259 0 00-3.704-1.202 3.38 3.38 0 00-3.687 1.52 8.316 8.316 0 00.53 8.428c1.41 2.138 4.056 4.011 6.667 2.987a5.159 5.159 0 003.351-5.231z" fill="#FFE36E"/><path d="M53.799 311.992c7.884-4.435 36.688-13.801 51.805-14.755 3.528-.229 6.191 3.87 5.574 7.316a4.102 4.102 0 01-1.235 1.996c-18.327 6.291-36.724 13.271-55.668 21.787a1.401 1.401 0 01-1.269-.1 1.423 1.423 0 01-.671-1.083l-1.094-11.451a3.962 3.962 0 012.558-3.71z" fill="#0A949B"/></g></g><defs><clipPath id="clip0"><path fill="#fff" d="M0 0h350v400H0z"/></clipPath><clipPath id="clip1"><path fill="#fff" transform="translate(0 38)" d="M0 0h352v312H0z"/></clipPath></defs></svg>