<svg width="350" height="400" fill="none" xmlns="http://www.w3.org/2000/svg"><path d="M.318 234.06C-10.55-30.994 259.967 16.1 323.37 74.062c63.403 57.962-11.473 109.886 0 199.243 11.473 89.358-60.351 99.776-140.057 101.587-79.706 1.812-82.034-9.205-92.903-45.431S9.376 324.625.32 234.06z" fill="#FAF0D0"/><path d="M99.072 98.636c0 26.451-15.553 50.69-38.432 50.69-22.88 0-39.332-24.204-39.332-50.69 0-35.978 15.985-34.042 38.882-34.042s38.882-5.463 38.882 34.042z" fill="#ED506B"/><path d="M87.338 88.141a10.367 10.367 0 01-8.951 1.73c-2.264-.796-3.68-2.853-5.634-4.167a.38.38 0 00-.518.518c3.906 5.81 9.936 7.123 15.898 3.303.847-.571 0-1.937-.794-1.384zM47.42 84.822c-3.3 4.893-8.468 8.264-14.516 6.916a.829.829 0 00-.432 1.59c6.55 1.729 13.012-2.126 15.812-8.04a.502.502 0 00-.864-.466zm-1.314 18.516a4.045 4.045 0 01-6.903 2.878 4.046 4.046 0 012.877-6.906 4.025 4.025 0 014.026 4.028zm35.962 0a4.027 4.027 0 11-8.055.001 4.027 4.027 0 018.055-.001zm-6.774 22.873c-4.597-9.388-26.18-10.373-28.099 1.625a.589.589 0 001.123.294c3.595-8.99 20.91-9.612 25.196-.881.587 1.192 2.367.155 1.78-1.038z" fill="#FEFEFE"/><path d="M133.617 229.737c-3.837 1.85-20.184 12.741-25.922 35.079-3.767 14.712-22.862 111.115-22.862 111.115h29.032s26.768-73.46 27.839-85.874c1.071-12.413 14.447-63.415-8.087-60.32z" fill="#FFB1A5"/><path d="M131.716 324.808c4.424-13.295 8.277-25.657 9.591-32.054l-40.386 15.716 30.795 16.338z" fill="#302D24"/><path d="M133.616 229.737c-3.836 1.849-20.858 14.073-29.515 36.306-1.832 4.685-7.656 23.876-12.823 40.041l43.202 10.373c3.923-12.102 6.913-22.475 7.31-26.504 1.072-12.465 14.361-63.311-8.174-60.216z" fill="#5F1C4F"/><path d="M242.089 229.737c3.819 1.85 20.184 12.741 25.921 35.079 3.767 14.712 22.862 111.115 22.862 111.115h-29.031s-26.82-73.46-27.892-85.874c-1.071-12.413-14.481-63.415 8.14-60.32z" fill="#FFB1A5"/><path d="M243.989 324.808c-4.424-13.295-8.277-25.657-9.591-32.054l40.369 15.716-30.778 16.338z" fill="#302D24"/><path d="M242.088 229.737c3.819 1.849 20.858 14.073 29.516 36.306 1.832 4.685 7.655 23.876 12.822 40.041l-43.202 10.373c-3.923-12.102-6.912-22.475-7.31-26.504-1.071-12.465-14.446-63.311 8.174-60.216z" fill="#5F1C4F"/><path d="M255.585 286.6c-3.681-18.499-2.212-40.837-5.893-49.256-3.681-8.42-31.952-20.712-34.371-22.095l-26.959-10.823v-.398l-.501.208-.484-.208v.398l-27.061 10.823c-2.333 1.383-30.674 13.641-34.372 22.06-3.698 8.42-2.212 30.757-5.893 49.291-3.681 18.533 17.851 89.331 17.851 89.331h101.577s19.735-70.884 16.106-89.331z" fill="#5F1C4F"/><path d="M150.033 83.992c3.992-21.127 40.749-33.28 67.862-10.529a46.302 46.302 0 0115.08 22.12 46.329 46.329 0 01.318 26.773s48.179 12.984 38.017 37.793c-10.161 24.81-27.044 16.338-27.044 16.338s6.912 11.999-11.838 20.297c-17.28 7.659-26.681-5.186-26.681-5.186s-7.897 17.842-20.582 17.582c-22.707-.467-28.254-20.746-28.254-20.746s-10.023 21.939-30.397 7.278c-20.374-14.661-4.51-25.933-4.51-25.933s-22.465 15.231-29.879-3.942c-7.413-19.173 34.769-27.109 34.769-27.109-6.238-5.619-11.267-55.324 23.139-54.736z" fill="#302D24"/><path d="M146.543 147.373c1.296 7.399-1.729 14.107-6.636 14.972-4.908.864-10.006-4.461-11.285-11.877-1.279-7.417 1.728-14.108 6.636-14.955 4.908-.847 10.006 4.443 11.285 11.86zm86.598.842c1.662-7.338-.959-14.187-5.855-15.297-4.896-1.11-10.212 3.938-11.875 11.276-1.662 7.338.959 14.187 5.855 15.297 4.896 1.11 10.213-3.938 11.875-11.276z" fill="#ED9996"/><path d="M165.327 176.418c.535 1.729 2.298 33.817-10.697 41.597 0 0 11.872 32.572 30.639 34.076 20.184 1.625 28.842-37.326 28.842-37.326-10.991-3.787-14.862-12.708-14.015-38.347h-34.769z" fill="#FFB1A5"/><path d="M200.13 189.385c-.19-3.89-.19-8.195 0-12.967h-22.275l-12.096 3.043c.034 1.072 7.327 17.686 34.371 9.924z" fill="#302D24"/><path d="M224.254 133.11c0 29.08-17.073 55.722-42.234 55.722s-43.254-26.712-43.254-55.722c0-29.011 17.765-52.68 42.943-52.68 25.178 0 42.545 23.583 42.545 52.68z" fill="#FFB1A5"/><path d="M152.073 93.069s16.226 22.994 29.602 21.386c13.375-1.608 4.959-14.8 4.959-14.8s48.802 38.97 40.593 14.886c-8.208-24.083-16.659-37.136-45.293-36.894-28.634.242-29.861 15.421-29.861 15.421z" fill="#302D24"/><path d="M157.879 92.861c2.765.623-5.495 37.673-21.739 40.249 0 0-13.445-48.253 21.739-40.249z" fill="#302D24"/><path d="M235.124 109.337a45.775 45.775 0 00-17.281-35.874c-22.897-19.208-52.672-13.537-63.783 1.418a36.935 36.935 0 0110.731-4.098 52.2 52.2 0 0123.329.934 74.027 74.027 0 0147.004 37.62zm5.79 15.56c8.778 6.709 16.244 15.232 20.184 25.484a41.402 41.402 0 012.039 22.562 35.227 35.227 0 008.174-12.742c7.603-18.499-17.281-30.428-30.397-35.304z" fill="#514A47"/><path d="M165.327 144.243a2.65 2.65 0 01-1.532 2.541 2.647 2.647 0 01-2.927-.482 2.648 2.648 0 011.815-4.566 2.58 2.58 0 012.422 1.527c.138.309.213.642.222.98zm40.022-.553a2.63 2.63 0 01-4.437 2.023 2.627 2.627 0 01-.626-2.877 2.63 2.63 0 012.437-1.653 2.579 2.579 0 012.626 2.507zm-19.838-8.748a.605.605 0 00-1.141 0c-1.071 7.331 4.804 16.58-1.417 22.631-.76.744.38 1.885 1.158 1.159 6.653-6.155 2.609-16.165 1.4-23.79zm25.316-13.744c-5.184-3.666-11.301-2.888-16.486.19-.397.242-.138.951.329.778 5.564-1.902 9.971-2.438 15.293.501a.854.854 0 001.167-.302.854.854 0 00-.303-1.167zm-42.251 2.627c-4.614-2.161-13.358-3.544-17.074 1.089a.73.73 0 00.247 1.146c.14.062.295.079.445.047 2.713-.639 4.907-2.022 7.793-2.195a32.331 32.331 0 018.261.691c.432.069.795-.518.328-.778zm22.551 43.966c-4.562-.121-9.625-.83-13.825 1.348-.587.312-.155 1.159.45 1.038 4.476-.882 6.964-.675 11.474-.71.262-.002 2.429.186 2.612 0a.983.983 0 00-.012-1.394.986.986 0 00-.699-.282z" fill="#302D24"/><path d="M158.985 213.987s-2.506 45.953 9.228 61.116c7.275 9.405-.605 100.897-.605 100.897h-43.98s-4.389-70.383-4.665-85.943c-.277-15.56 4.977-52.056 7.137-56.309 1.157-2.352 27.338-21.162 32.885-19.761zm52.136-.485s3.836 46.369-7.915 61.531c-7.275 9.405.605 100.898.605 100.898h43.963s4.389-70.297 4.665-85.943c.277-15.646-6.152-54.339-8.312-58.592-1.157-2.282-27.493-19.139-33.006-17.894z" fill="#FEFEFE"/><path d="M205.453 271.402s19.735-13.831 29.378-8.73c9.642 5.1-9.505-45.228-12.598-48.962-3.093-3.735-11.838-.588-11.838-.588.104 22.216.087 43.36-4.942 58.28zm-38.882 1.643s-19.717-13.831-29.377-8.644c-9.66 5.186 4.268-42.859 7.569-46.317 4.372-4.651 14.222-4.339 14.222-4.339-.104 22.216 2.575 44.397 7.586 59.3z" fill="#E4E8EA"/></svg>