<svg width="350" height="400" fill="none" xmlns="http://www.w3.org/2000/svg"><path d="M343.754 281.788c-2.205-20.035-12.477-40.144-30.686-49.719-9.023-4.751-18.927-7.605-27.949-12.374-9.757-5.156-12.367-11.049-11.117-21.858 1.194-10.165 4.539-19.906 6.468-29.905a123.668 123.668 0 001.158-35.889c-4.962-46.865-37.1-82.736-80.318-99.272-43.788-16.738-93.144-4.86-131.254 20.477C51.68 65.494 35.639 80.87 25.68 100.867c-9.96 19.998-14.94 41.469-17.659 63.253-5.402 43.274-.533 89.991 21.536 128.274a101.914 101.914 0 003.675 5.893c29.547 63.105 113.246 78.039 178.754 76.622 39.304-.866 80.85-9.208 109.81-38.1 14.443-14.473 24.255-34.195 21.958-55.021z" fill="#FAF0D0"/><path d="M126.78 258.217a33.104 33.104 0 00-5.862 5.064c-16.537 17.788-60.454 73.657-60.068 74.762.386 1.104 24.402 31.691 24.402 31.691s6.89.589 27.563-16.463c20.672-17.051 48.566-49.718 48.566-49.718l-34.601-45.336z" fill="#ED9996"/><path d="M126.78 258.217a33.104 33.104 0 00-5.862 5.064c-9.187 9.851-26.736 31.304-40.425 48.797 13.01 11.288 33.296 30.807 44.413 40.088 19.257-17.696 36.566-48.613 36.566-48.613l-34.692-45.336z" fill="#FED353"/><path d="M120.257 264.625c-1.838-1.952 57.11-45.189 109.222-35.392 68.374 12.89 80.759 136.449 80.759 136.449H172.663s-15.784-63.879-52.406-101.057z" fill="#FED353"/><path d="M184.111 214.906c2.701.166 21.425 13.351 21.425 13.351s-13.946 39.977-23.134 41.818c-9.188 1.842-33.535-20.071-33.535-20.071l35.244-35.098zm-72.839.184c4.428 8.821 2.738 18.636-3.675 21.895-6.413 3.259-15.362-1.215-19.79-10.036-4.429-8.82-2.794-18.635 3.693-21.913 6.486-3.277 15.362 1.234 19.772 10.054z" fill="#ED9996"/><path d="M195.54 178.722c8.728 24.491 1.838 64.082-33.167 80.287-18.871 8.765-43.953-3.481-61.502-33.864-25.045-43.403-9.445-65.463 17.53-78.924 26.975-13.461 65.324-.552 77.139 32.501z" fill="#FFB1A5"/><path d="M173.086 150.364a59.477 59.477 0 00-8.673-4.603c-9.464 2.099-27.122 6.408-42.649 10.404l-1.231-5.396-4.778-3.167c-10.566 5.69-19.092 12.89-23.722 22.281v.111a46.218 46.218 0 00-1.048 2.375v.129c-5.071 12.89-3.178 29.813 10.033 52.647 9.519 16.573 21.279 27.621 33.076 32.98-12.422-17.954-4.116-46.865-2.187-54.764 10.749-4.217 18.559-28.69 18.559-28.69a97.52 97.52 0 0031.936 9.52s-6.174-22.778-9.316-33.827z" fill="#ED9996"/><path d="M197.433 194.503c-1.525.479-35.887-14.013-50.22-31.451 0 0-4.097 22.097-15.343 31.783-11.246 9.686-9.188-15.892-9.188-15.892s-28.94 42.353-51.965 35.153c-23.024-7.2 3.896-31.12 3.896-31.12s-37.357 2.688-15.509-18.414c21.848-21.103 78.04-66.494 95.129-31.857 0 0 21.756-12.595 32.267 8.25 10.969 21.784 10.933 53.548 10.933 53.548z" fill="#282828"/><path d="M151.973 128.893c-19.331-27.161-71.903 15.579-92.887 35.761-21.848 21.01 15.509 18.414 15.509 18.414s-24.788 22.097-6.376 30.181a21.052 21.052 0 01-.827-5.672 24.553 24.553 0 017.037-15.928 72.252 72.252 0 0114.002-10.938 11.626 11.626 0 01-6.055.079 11.647 11.647 0 01-5.278-2.977 11.685 11.685 0 01-3.11-11.299c1.103-4.291 4.484-7.55 7.791-10.478 10.309-9.207 21.481-17.53 34.197-22.797a63.054 63.054 0 0135.997-4.346z" fill="#424242"/><path d="M168.988 203.95a29.383 29.383 0 00-8.471 4.824c-1.01.7-2.095 1.4-3.179 2.155.809-1.031 1.599-2.081 2.463-3.057 1.837-2.081 3.528-5.045 5.824-6.574a1.068 1.068 0 00-.826-1.952c-2.61.792-4.208 4.088-5.936 6.114a42.49 42.49 0 00-6.596 9.778.673.673 0 000 .46.644.644 0 00.716.958c3.106-.995 5.697-3.683 8.398-5.414a31.637 31.637 0 018.379-4.862 1.28 1.28 0 00.827-1.602 1.27 1.27 0 00-1.599-.828zm-40.591 21.139a111.003 111.003 0 00-11.944-6.813 1.011 1.011 0 00-1.172 1.644c.112.093.242.16.382.198a44.601 44.601 0 017.056 3.277 66.902 66.902 0 00-3.675-.663c-3.105-.46-6.247-1.473-9.353-1.638-1.01 0-1.231 1.307-.477 1.841a19.2 19.2 0 008.25 2.081c3.473.423 6.964.663 10.455 1.031h.166a.512.512 0 00.541-.353.52.52 0 00-.229-.605zm34.141-34.268c-4.024 1.749-6.817 4.916-9.72 8.083-1.084 1.197-7.846 11.417-8.581 11.233a.417.417 0 00-.436.149.413.413 0 00-.089.223.431.431 0 00.047.236l.312.497a.646.646 0 00.779.293.656.656 0 00.25-.164c5.917-5.69 10.106-15.008 18.063-18.304 1.378-.497.753-2.836-.625-2.246zm-34.968 24.27c-6.155-1.51-11.833-4.181-17.879-6.243-1.268-.423-1.837 1.602-.551 1.989 4.079 1.252 8.085 2.854 12.072 4.346 1.489.57 5.237 2.393 6.56.681a.47.47 0 00.107-.441.476.476 0 00-.309-.332zm12.128 17.861c-6.578-1.51-6.248-10.919-6.836-16.296a.641.641 0 00-1.267 0c-.515 5.671 0 17.88 7.827 18.303a1.024 1.024 0 00.967-.889 1.024 1.024 0 00-.145-.683 1.027 1.027 0 00-.546-.435z" fill="#282828"/><path d="M142.601 245.548v.221c.79 2.651 4.796 3.885 6.468 2.338 3.051-2.78 9.188-6.076 13.065-4.474 2.444.976 4.778-2.394 4.778-3.923.055-11.693-27.527-2.835-24.311 5.838z" fill="#fff"/><path d="M200.312 210.09c7.181-1.174 11.718-10.026 10.132-19.772-1.586-9.746-8.693-16.696-15.874-15.523-7.182 1.174-11.718 10.026-10.133 19.772 1.586 9.746 8.693 16.696 15.875 15.523zm-68.938-26.451a8.521 8.521 0 00-3.528.295c.446-1.598.596-3.265.441-4.917a5.007 5.007 0 00-3.069-3.683 6.284 6.284 0 00-2.554-.295 11.947 11.947 0 00-1.837-3.296c-2.095-2.32-8.398.387-11.595 4.714-1.709 2.321-9.39 12.89-8.875 14.732-1.25-4.143 3.399-16.426 4.263-20.716.863-4.291 3.803-7.845-2.371-7.974-4.704-.11-12.605 20.072-13.616 27.18-2.407 17.143-3.822 34.729-7.625 51.56.863 1.362 0 1.841.955 3.075 8.526 3.572 20.801 8.581 28.996 3.554 7.442-4.567 11.944-14.363 12.238-22.815a51.902 51.902 0 016.615-25.246c1.654-3.002 4.245-8.673 4.116-12.54a3.686 3.686 0 00-2.554-3.628z" fill="#FFB1A5"/><path d="M126.321 184.946c-7.865 4.328-9.555 14.584-12.55 22.282-.294.736.9 1.068 1.194.331 3.105-8.029 4.906-16.297 11.723-22.097.276-.258-.073-.663-.367-.516zm-5.458-9.649c-9.408 5.764-14.7 19.74-16.537 30.071-.166.92 1.249 1.326 1.415.386a56.141 56.141 0 0115.6-29.757.424.424 0 00-.478-.7z" fill="#282828"/><path d="M81.008 241.257c-2.426 8.747-21.573 88.389-24.678 104.078-4.962 24.969 30.447 34.526 45.313 13.644 10.658-14.989 7.791-110.301 7.791-110.301l-28.426-7.421zm163.704-6.979c-6.486-2.523-23.097-4.732-25.56 10.92-3.822 24.251 34.913 85.589 34.913 85.589l-92.684 13.406 3.803 25.54s149.887 18.415 141.949-23.938c-10.493-56.127-30.264-99.087-62.421-111.517z" fill="#FFB1A5"/><path d="M291.661 290.165l-50.734 17.991c4.336 7.992 8.287 14.732 10.694 18.691 16.823.18 33.5-3.15 48.97-9.778a246.65 246.65 0 00-8.93-26.904z" fill="#ED9996"/><path d="M244.712 234.278c-6.486-2.523-23.097-4.732-25.56 10.92-2.958 18.764 17.53 63.363 27.875 81.023 13.47-2.818 38.717-9.65 53.619-15.837-11.484-39.259-30.594-66.254-55.934-76.106z" fill="#FFE36E"/><path d="M181.373 339.111s-2.885-17.034-11.65-18.415c-14.884-2.449-18.063.313-18.283 5.322 0 0-15.123-2.302-16.979 4.051a5.75 5.75 0 002.003 6.648s-5.678.368-4.539 5.874a6.808 6.808 0 004.3 4.419 8.286 8.286 0 00-2.389 6.814 5.092 5.092 0 001.037 3.272 5.07 5.07 0 002.877 1.865s-3.16 4.751 1.948 9.539c4.006 3.683 39.892 2.081 39.892 2.081l1.783-31.47z" fill="#FFB1A5"/><path d="M166.93 326.994c-1.837-.166-3.491-.424-5.237-.663a6.32 6.32 0 013.969-2.762.532.532 0 00.377-.912.532.532 0 00-.377-.156c-2.168 0-3.675 2.154-4.759 3.683a31.47 31.47 0 00-8.214-.221c-.239 0-.404.386-.128.515 1.934.585 3.954.828 5.972.719 2.811.257 5.512.773 8.397 1.049.772.037.772-1.252 0-1.252zm-22.785 10.496c-2.095-.46-4.245 0-6.358-.737-.331-.092-.643.369-.349.608 1.727 1.418 4.447 1.179 6.56 1.308a.608.608 0 00.147-1.179zm-1.93 9.76a12.85 12.85 0 00-4.759.165.374.374 0 00-.253.35.371.371 0 00.253.35c1.56.358 3.16.507 4.759.442a.662.662 0 000-1.307zm.552 11.601a36.357 36.357 0 00-4.502 0c-.368 0-.349.663 0 .736 1.478.337 2.986.528 4.502.571a.66.66 0 00.551-.654.665.665 0 00-.551-.653z" fill="#282828"/><path d="M155.335 314.104c-3.675-6.85-7.589-13.479-10.749-20.55-3.308-7.366-6.156-15.008-9.463-22.411 0-.184-.386 0-.331.129 2.609 7.753 5.09 15.487 8.324 23.018 2.223 5.156 4.961 10.054 7.662 14.971-10.841-6.463-21.719-13.203-29.988-22.889-.239-.276-.698.092-.496.387 7.864 11.269 19.771 18.322 31.366 25.209.188.113.41.152.625.11.533.958 1.047 1.842 1.562 2.91.514 1.068 2.003.055 1.488-.884z" fill="#935221"/><path d="M218.215 141.931c-11.539 5.321.662 19.758 7.222 11.048 1.837-2.375-2.205-4.659-3.988-2.338-2.977.497-3.969-.645-2.94-3.444a6.538 6.538 0 013.344-1.602 7.338 7.338 0 015.311 1.105c3.381 2.357 3.565 7.255 1.617 10.57-4.3 7.255-16.703 5.948-21.315-.24-8.673-11.656 10.768-23.018 20.617-21.434a1.544 1.544 0 001.646-2.215 1.548 1.548 0 00-.819-.75c-17.586-7.365-39.948 20.256-20.085 31.71 8.894 5.119 23.116 2.486 25.615-8.692 2.132-9.391-7.056-17.935-16.225-13.718zM52.618 103.537c-5.366 1.455-18.982 8.655-10.309 14.731.754.534 1.838-.534 1.287-1.307-3.29-4.659 5.715-7.734 8.912-8.728 5.034-1.566 10.639-.737 13.983 3.682 3.822 5.156 2.536 16.205-4.87 17.568a6.881 6.881 0 01-4.91-1.419 6.906 6.906 0 01-2.586-4.419c-.625-3.867 1.654-5.855 5.09-3.535 2.627 1.841 5.09-2.486 2.462-4.254-9.188-6.15-15.656 4.825-10.768 12.89 7.258 11.969 21.536 2.836 22.528-8.342a16.312 16.312 0 00-1.275-7.701 16.274 16.274 0 00-4.707-6.22 16.227 16.227 0 00-14.837-2.946zm56.283-15.523a96.552 96.552 0 00-14.461 3.682 148.697 148.697 0 01-4.282-22.686c-.349-3.683-6.174-3.683-5.825 0a161.78 161.78 0 005.274 27.05c.214.732.705 1.35 1.367 1.726a2.916 2.916 0 002.18.282c4.557-1.27 9.003-2.8 13.56-3.96a57.179 57.179 0 01-.698 17.255.431.431 0 00.827.239 105.962 105.962 0 004.649-20.09c.165-1.583-.753-3.756-2.591-3.498zm66.151-21.619c-.349-3.83-6.119-3.977-6.082 0 0 3.683-3.069 7.016-4.539 10.165a87.27 87.27 0 00-3.822 10.496 58.85 58.85 0 00-12.256-2.486 2.138 2.138 0 00-2.132 2.136c1.066 7.955-.79 15.91.68 23.939.184 1.013 1.838.792 1.838-.24a66.992 66.992 0 011.212-21.194c3.988.865 7.773 2.301 11.724 3.37a2.613 2.613 0 003.142-1.841 143.316 143.316 0 017.57-16.242c1.452-2.578 2.885-5.01 2.665-8.103zm45.166 34.895c-4.998 2.1-7.938 5.525-12.091 8.858a7.951 7.951 0 01-4.612 2.872 24.028 24.028 0 00-2.223-2.081 35.363 35.363 0 00-4.08-2.393c-7.35-2.192-11.576 6.942-15.894 11.214-.827.828.312 2.412 1.286 1.657 2.83-2.154 5.513-6.463 8.857-7.789 6.413-2.541 6.707 3.793 11.025 5.119 2.297.718 4.061-.46 5.917-1.731 4.943-3.37 8.195-8.213 13.763-10.92 2.719-1.289.827-5.966-1.948-4.806zM45.966 181.521c-4.483.774-8.93 2.007-13.377 2.983-3.142.682-8.49.59-10.602 3.26a1.598 1.598 0 00-.422 1.312 1.604 1.604 0 00.752 1.155c3.308 1.676 8.067-.589 11.466-1.418a45.37 45.37 0 0013.212-4.843 1.341 1.341 0 00.534-1.667 1.345 1.345 0 00-1.563-.782zm-.68-30.641a28.727 28.727 0 00-8.949-4.917c-2.296-.792-6.284-3.075-8.636-2.302a1.71 1.71 0 00-1.176 2.081c1.01 2.523 4.098 2.799 6.468 3.462a44.611 44.611 0 0110.603 3.867c1.323.829 2.958-1.16 1.69-2.191z" fill="#BC2445"/></svg>