<svg width="350" height="400" fill="none" xmlns="http://www.w3.org/2000/svg"><g clip-path="url(#clip0)"><path d="M330.486 235.318a1.33 1.33 0 00.494-1.067c.494-37.263-7.13-72.057-25.558-104.66a205.194 205.194 0 00-76.199-77.428c-29.489-16.766-64.863-26.56-98.617-19.649-15.544 3.258-30.693 10.427-41.102 22.532C76.864 69.757 68.784 91.4 64.4 110.06a121.01 121.01 0 002.35 63.567c6.084 20.3 15.801 46.8-2.31 63.783-12.246 11.453-27.099 17.575-36.283 32.425a57.025 57.025 0 00-5.352 47.235c11.672 36.769 50.365 56.576 86.193 62.125 20.916 3.238 42.208 2.962 63.322 2.587 21.726-.375 43.452-1.363 64.744-6.122 19.751-4.463 39.877-12.638 54.789-26.836 12.226-11.651 19.396-26.975 24.926-42.674 7.901-22.295 14.339-45.142 13.826-68.997a29 29 0 01-.119-1.836z" fill="#FAF0D0"/><path d="M173.663 199.872l-20.462 1.224-24.097 180.509h137.804V190.511l-18.744-6.773-2.686.75-71.815 15.384z" fill="#5F1C4F"/><path d="M269.692 138.26s-14.773 11.315-19.751 24.526c-4.977 13.211-23.385 21.722-38.099 20.952-14.715-.77-24.788 2.232-38.179 9.321-13.391 7.089-20.601-12.105-36.322-11.434a90.17 90.17 0 00-24.511 3.792s27.059-32.485 21.054-52.074c-6.004-19.589 0-28.653 0-28.653s53.763-36.216 70.729-21.722c16.966 14.495 50.74 57.938 65.079 55.292z" fill="#36302F"/><path d="M170.365 199.872s-26.862-8.689-36.48 13.823c-9.224 21.722-14.853 60.485-14.853 60.485l37.25 2.864 14.083-77.172z" fill="#5F1C4F"/><path d="M211.802 145.823c4.365 6.695 5.057 36.296 33.577 38.665 0 0-35.394 60.644-44.914 61.217-9.52.572-26.802-45.833-26.802-45.833s20.521.552 9.125-31.142c-8.493-23.558 29.014-22.907 29.014-22.907z" fill="#FEB8B0"/><path d="M209.156 162.332l-25.914 7.721a57.868 57.868 0 012.667 10.624c14.28-2.725 23.247-18.345 23.247-18.345z" fill="#3A2D2E"/><path d="M223.949 114.09c4.602 30.845-16.215 59.459-42.188 63.329-25.973 3.871-47.402-18.444-51.906-49.368-4.503-30.924 12.72-59.004 38.712-62.875 25.993-3.87 50.761 17.99 55.382 48.914zm24.215 69.648s16.295-15.462 30.298-8.59c15.465 7.583 15.445 18.088 15.465 47.729 0 40.975-12.068 124.407-18.862 132.049-6.794 7.643-119.593-8.491-118.743-11.848.849-3.357 5.925-19.49 5.925-19.49s80.683 0 83.586-8.492c2.904-8.491-3.831-127.487 2.331-131.358z" fill="#FFB1A5"/><path d="M293.789 230.519l-41.793 9.637-5.807 27.646 45.427-5.253c1.126-11.532 1.896-22.512 2.173-32.03z" fill="#ED9996"/><path d="M297.739 224.062c0-23.697-3.812-41.331-19.277-48.914-14.004-6.872-30.298 8.59-30.298 8.59-3.753 2.35-2.706 47.393-1.975 84.143l51.55-13.823c.889-11.078 0-21.465 0-29.996z" fill="#5F1C4F"/><path d="M224.502 126.096s-32.312-10.723-39.759-35.96c-7.446-25.236 23.978-37.223 39.759-17.772 15.781 19.451 20.186 51.836 37.231 58.195 17.045 6.359 25.676 0 25.676 0s-18.743 39.06-62.907-4.463z" fill="#36302F"/><path d="M235.128 129.809c.731 8.313-3.456 15.501-9.381 16.034-5.926.534-11.338-5.786-12.088-14.119-.751-8.333 3.456-15.482 9.382-16.015 5.925-.533 11.337 5.786 12.087 14.1z" fill="#ED9996"/><path d="M159.679 323.153c-4.345-.414-8.374.751-12.739-.79-3.832-1.362-6.617-4.522-9.658-7.069-2.548-2.133-4.978-4.167-7.308-6.517-1.185-1.184-2.607-2.705-4.484-2.389-8.117 1.402-.474 18.641 1.284 21.722 2.706 4.779 7.802 6.951 12.601 9.163 5.096 2.369 17.776 6.694 18.171 6.319a18.447 18.447 0 006.992-13.823c.04-3.575-1.165-6.26-4.859-6.616z" fill="#FEB8B0"/><path d="M125.49 306.309a13.169 13.169 0 001.561 4.957c1.461 2.942 5.53 11.433 11.317 14.79a20.548 20.548 0 009.737 1.975c.889-.277-1.619-5.589-1.619-5.589l-20.996-16.133z" fill="#36302F"/><path d="M170.108 190.452l-21.726-2.626s-31.306 103.139-21.865 120.28c9.441 17.14 17.914 20.261 23.84 17.95 5.925-2.31 13.825-14.712 15.583-23.282 1.758-8.57 4.168-112.322 4.168-112.322z" fill="#FFB1A5"/><path d="M178.344 211.522c5.925 13.705 15.801 34.637 22.22 34.222 5.688-.355 20.561-22.077 31.601-39.494-29.843 11.769-46.454 8.412-53.821 5.272z" fill="#FEFEFE"/><path d="M247.137 232.83c0-10.427 0-20.932-.988-31.339a.411.411 0 00-.414-.415.416.416 0 00-.415.415c-1.027 10.407-.948 20.912-.988 31.339 0 9.083-1.086 18.858.553 27.804a.893.893 0 00.86.661.888.888 0 00.859-.661c1.58-8.946.533-18.701.533-27.804zm-3.614 28.989a84.213 84.213 0 01-14.893-16.549.538.538 0 00-.74-.187.538.538 0 00-.188.74 43.728 43.728 0 0014.32 17.931c1.165.79 2.607-1.067 1.501-1.935z" fill="#8A4876"/><path d="M200.07 67.664a75.845 75.845 0 01-37.152 23.4c-24.412 6.833-34.031 28.042-32.036 43.76 0 0-51.827-45.932 16.611-76.599 51.254-22.946 52.577 9.44 52.577 9.44z" fill="#36302F"/><path d="M147.493 58.225c-42.05 18.839-38.613 43.444-29.864 59.617a118.351 118.351 0 018.335-24.408 58.88 58.88 0 0111.614-17.377 71.096 71.096 0 0119.277-12.263 89.307 89.307 0 0123.01-8.274c4.782-.85 9.676-.85 14.458 0-6.281-5.925-19.416-9.578-46.83 2.705z" fill="#514A47"/><path d="M141.034 307.375a3.959 3.959 0 00-3.358 2.646c-1.402 5.628 8.079 10.071 8.809 12.481.731 2.409 0 8.609 3.496 8.037 2.568-.435-.454-15.265-.454-15.265l-8.276-7.444" fill="#36302F"/><path d="M165.032 328.031c.375-4.048-2.41-7.05-5.353-9.518a118.96 118.96 0 00-10.981-8.097c-2.094-1.402-6.715-4.443-9.283-2.31-1.975 1.6-.869 4.325.395 5.924 1.698 2.153 4.365 3.219 6.241 5.174 3.062 3.238 1.817 5.687 2.509 9.202.454 2.31 2.35 2.725 4.444 2.942 2.626.257 11.198.692 11.85-3.12a.21.21 0 00.123-.068.22.22 0 00.055-.129z" fill="#FEB8B0"/><path d="M164.834 325.543a13.997 13.997 0 00-5.155-7.03 118.96 118.96 0 00-10.981-8.097c-2.094-1.402-6.716-4.443-9.283-2.31a2.764 2.764 0 00-.988 1.797 5.715 5.715 0 014.76-.948c3.081.889 15.742 9.518 21.647 16.588z" fill="#FFD1CA"/><path d="M153.201 145.824a3.2 3.2 0 100-6.4 3.2 3.2 0 000 6.4zm31.74-11.849a3.2 3.2 0 100-6.4 3.2 3.2 0 000 6.4zm2.943-22.136c-2.43.73-4.504 2.33-7.071 2.567a12.272 12.272 0 01-6.933-1.481 1.261 1.261 0 00-1.856 1.173c.013.298.132.582.335.801 4.622 4.72 11.693 1.718 16.591-.493 1.501-.672.474-3.022-1.066-2.567zm-39.068 12.796a1.049 1.049 0 00-1.975 0 18.417 18.417 0 01-2.686 6.753 10.937 10.937 0 01-6.478 3.318c-1.047.257-1.126 1.975 0 2.212 6.241 1.086 12.877-6.063 11.139-12.283zm20.364 20.379c-3.062 0-3.674-1.758-3.812-4.443a10 10 0 00-.929-3.752 26.676 26.676 0 00-6.557-8.235c-.277-.276-.652.119-.415.415a21.723 21.723 0 015.056 7.484c.711 2.488-.237 4.799.119 7.267.474 3.397 3.555 4.107 6.538 4.107a1.456 1.456 0 001.124-1.421 1.46 1.46 0 00-1.124-1.422z" fill="#36302F"/><path d="M190.372 151.135c-2.508-6.22-10.349-.237-13.825 1.343-2.884 1.343-8.75 2.172-6.893 6.359a3.51 3.51 0 001.422 2.152c2.291 1.659 4.305.297 6.063-1.264 3.239-2.922 7.111-1.757 10.804-3.534a3.95 3.95 0 002.429-5.056z" fill="#fff"/><path d="M193.197 127.518c-.237-.533-1.146-.158-.948.415.476 1.486.71 3.04.691 4.601 0 .73-.158 4.384-1.501 4.403a.717.717 0 00-.474.119.863.863 0 00-.399.73.868.868 0 00.399.731c1.975.928 3.239-2.468 3.457-3.831a12.98 12.98 0 00-1.225-7.168zm4.286 3.515c-.237-.612-1.205-.395-1.007.276.267.871.407 1.775.414 2.686a9.578 9.578 0 01-.533 2.587.652.652 0 001.086.632c1.403-1.6.751-4.424.04-6.181zm-42.979 20.458a11.205 11.205 0 01-4.937-1.086 13.181 13.181 0 01-3.654-3.199c-.218-.277-.652 0-.474.355a9.873 9.873 0 009.065 5.253.668.668 0 00.557-.662.67.67 0 00-.557-.661zm-2.705 3.772a6.714 6.714 0 00-1.403 0 4.83 4.83 0 01-1.975-.435 11.305 11.305 0 01-3.357-1.974c-.415-.415-.968.177-.632.631a9.36 9.36 0 003.95 2.864c1.066.434 3.002 1.027 3.772-.158a.647.647 0 00.088-.27.643.643 0 00-.198-.516.636.636 0 00-.245-.142zm32.589 12.816c-.217-.237-.573-.297-.83-.494a3.34 3.34 0 01-.77-1.047 12.994 12.994 0 01-1.541-4.66c0-.612-1.027-.434-1.046.138 0 2.607.474 6.537 3.278 7.623a.926.926 0 001.07-.422.93.93 0 00-.161-1.138zm4.977-2.962a4.071 4.071 0 00-.691-.257 4.358 4.358 0 01-1.067-.691 6.29 6.29 0 01-1.56-1.758.475.475 0 00-.849.356c.316 1.066 2.844 4.976 4.305 3.396a.69.69 0 00-.138-1.046z" fill="#EA9898"/><path d="M174.374 177.952v-2.468s3.2-7.761 0-11.118a9.473 9.473 0 00-8.335-2.212 5.042 5.042 0 00-3.011-3.142 5.032 5.032 0 00-4.336.378s-4.918-5.332-9.579-.77c0 0-4.563-3.732-7.446 0l8.69 14.771 24.017 4.561z" fill="#EA9898"/><path d="M174.374 177.952a8.393 8.393 0 00-1.343-2.231c1.797-3.397 3.022-8.63-.237-11.315a7.904 7.904 0 00-7.387-1.087c-.514-2.626-3.121-3.396-5.925-3.001a12.65 12.65 0 00-1.975.415c-1.739-2.903-5.551-2.508-9.303-.81-4.681-4.325-15.268.849-16.295 6.635-.908 4.996.296 11.848 3.713 15.798 3.121 3.554 7.684 5.608 12.009 7.642a.812.812 0 00.573.79c5.135 1.718 11.85 1.659 17.183 1.817a7.9 7.9 0 007.901-4.128 13.26 13.26 0 001.086-10.525z" fill="#FEB8B0"/><path d="M147.434 160.061a12.875 12.875 0 00-6.498 3.792 8.459 8.459 0 00-2.161 3.141 8.455 8.455 0 00-.565 3.77c0 .988 1.62 1.007 1.541 0a7.32 7.32 0 012.844-6.319c1.56-1.343 3.832-1.975 5.194-3.535a.49.49 0 00.113-.546.487.487 0 00-.468-.303zm9.895.474c-5.511.593-8.454 6.556-8.572 11.513a.8.8 0 101.6-.02 11.484 11.484 0 011.975-6.457 14.406 14.406 0 015.412-4.127c.256-.198.098-.968-.415-.909zm7.051 3.022a9.4 9.4 0 00-4.563 4.877 10.585 10.585 0 00-.987 5.924.612.612 0 001.165 0c.454-1.619.336-3.337.928-4.956a9.19 9.19 0 014.049-4.898c.692-.375.079-1.303-.592-.947zm8.888 10.564a.598.598 0 00.015-.238.606.606 0 00-.449-.512.622.622 0 00-.466.062.614.614 0 00-.285.372 10.48 10.48 0 01-.751 1.58 5.283 5.283 0 00-1.797-2.231c-.513-.356-1.106.454-.671.888a6.915 6.915 0 011.422 5.075.887.887 0 00.486 1.256.891.891 0 00.501.028h.158a.902.902 0 00.464-.319.902.902 0 00.188-.53 8.542 8.542 0 00-.316-3.12 2.63 2.63 0 001.501-2.311z" fill="#36302F"/><path d="M110.519 132.395s-24.67 3.792-20.956 15.798c3.713 12.006 9.303-9.044 20.956-15.798zm-12.66-18.167s-29.39-12.085-32.767 4.897c-3.378 16.983 15.8-4.621 32.767-4.897zm7.939-26.856s-10.073-20.399-20.62-10.446c-10.547 9.952 11.08 3.515 20.62 10.446zm141.734 3.574s20.719-13.823 26.111-2.567c5.392 11.256-12.977-.356-26.111 2.567zm-17.855-32.069s7.9-30.767 23.583-23.263c15.682 7.504-13.194 9.854-23.583 23.263zm-37.843-17.003s-12.74-18.799 1.126-23.143c13.865-4.345-2.39 11.433-1.126 23.143z" fill="#FEFEFE"/></g><defs><clipPath id="clip0"><path fill="#fff" transform="translate(20 18)" d="M0 0h311v364H0z"/></clipPath></defs></svg>