<svg width="350" height="400" fill="none" xmlns="http://www.w3.org/2000/svg"><g clip-path="url(#clip0)"><path d="M348.071 176.107c-6.387-34.421-29.877-64.935-57.015-87.39-27.137-22.456-61.311-40.112-97.559-44.182-38.339-4.313-76.29 17.835-84.444 55.126a49.618 49.618 0 002.156 29.184c2.983 8.107 12.353 24.012 3.794 31.292-5.966 5.058-17.184 4.539-24.317 7.069a58.073 58.073 0 00-5.61 2.351c-24.64 4.231-49.46 7.588-61.829 32.021-16.86 33.221-5.415 75.555 19.032 102.501 21.836 24.11 55.799 31.86 87.768 33.578 34.659 1.865 69.448-2.415 103.978-4.62 34.157-2.205 63.84-14.301 83.488-41.993 23.344-32.913 37.934-75.182 30.558-114.937z" fill="#FAF0D0"/><path d="M217.133 211.29c.038-.095.071-.193.097-.292a1.487 1.487 0 00-.243-1.037c-1.929-16.311-17.832-28.082-31.142-35.832a.797.797 0 00-.938.17.796.796 0 00-.099.949c-2.027 19.31-14.412 36.885-30.801 46.905-18.254 11.139-38.68 7.799-58.912 8.188-10.489.194-25.37 5.172-26.748 17.608-.276 2.367.145 5.609 3.242 5.788a5.329 5.329 0 003.582-2.205c-1.037 7.036-1.07 16.878 4.329 19.456 4.993 2.302 10.52-5.107 13.942-7.199 9.499-5.804 24.17-3.113 34.983-3.162 18.724 0 38.405-.794 55.507-9.29 14.801-7.361 29.732-22.099 32.99-38.912.18-.224.267-.508.243-.794a1.558 1.558 0 00-.032-.341z" fill="#282828"/><path d="M193.967 291.757a94.22 94.22 0 002.075 27.644 67.102 67.102 0 008.009 19.164h80.051c9.013-7.571 14.249-41.587 16.697-50.894 5.091-19.229 6.225-39.204 5.836-59-.373-19.051-.681-38.718-6.484-57.007-5.236-16.407-13.99-31.405-24.139-45.235-10.148-13.83-20.993-27.741-33.832-38.653-23.393-20.023-55.119-27.887-83.602-13.733-12.353 6.08-22.501 16.263-21.382 30.984.129 1.784.356 3.567.664 5.367a56.39 56.39 0 006.744 20.559 67.883 67.883 0 005.723 9.403c6.144 9.031 13.407 17.738 19.583 26.866a158.617 158.617 0 0118.594 39.107c4.766 14.495 11.218 30.805 11.348 46.127 0 13.23-5.155 26.039-5.885 39.301z" fill="#282828"/><path d="M202.77 99.888a1.124 1.124 0 00-.844-.49 1.119 1.119 0 00-.907.36 146.552 146.552 0 00-14.396 17.835c-.875.243-1.475 1.362-.567 2.026 5.447 4.005 12.402 4.475 16.941-1.167a15.017 15.017 0 00-.227-18.564zm-34.465 25.73l-.324-.146a.94.94 0 00-1.103-.502 121.753 121.753 0 01-16.389-9.955.91.91 0 00-.795-.016.914.914 0 00-.502.616c-.697 5.415.357 11.495 5.188 14.754 5.56 3.729 10.018.924 13.536-3.826a1.25 1.25 0 00.178-.438c.308.065.503-.373.211-.487zm36.475-1.735c-1.102 1.8-9.937 11.609-13.828 9.437a.873.873 0 00-1.118.356c-1.07 1.622-3.162 6.891-6.598 3.421a.88.88 0 00-1.2 0 21.74 21.74 0 01-1.621 2.173c-2.059 1.394-4.701.892-7.166.73-.664 0-1.621-.86-2.496-.941-.438 0-.859.941-1.119.957a7.028 7.028 0 01-2.804-.584 17.389 17.389 0 01-3.113-3.243.962.962 0 00-.61-.418.964.964 0 00-1.011 1.472c3.518 5.659 6.274 10.328 12.288 12.404 3.242 1.118 4.167 2.464 7.003 2.01 1.443-.243 3.389-1.346 4.653-1.621 2.545-.649 1.864-.098 4.069-1.622 1.621-1.135 3.469-3.129 4.863-4.085.39-.276.843.097 1.265-.308 2.432-2.335 3.404-5.529 4.961-8.496 1.864-3.551 4.701-7.037 5.252-11.074a.905.905 0 00-.612-.939.913.913 0 00-1.058.371z" fill="#fff"/><path d="M119.509 240.182s-34.53-6.874-37.772 11.933c-3.242 18.808-11.558 60.477-15.255 60.914-3.696.438-28.191-39.755-28.191-39.755l-19 9.469s26.1 80.305 55.28 71.647c37.595-11.123 62.9-83.402 44.938-114.208z" fill="#ED9996"/><path d="M81.737 252.132c-1.702 9.841-6.29 28.957-9.386 42.154 11.948 6.729 29.78 17.641 41.128 23.169 10.926-25.649 15.838-60.346 5.966-77.256.064-.017-34.465-6.875-37.708 11.933z" fill="#00857C"/><path d="M135.023 228.995c11.348-6.891 31.304-10.49 40.658-.551 11.494 12.192 36.881 52.223 41.533 110.121H107.367s-5.869-37.761-14.007-51.591c-13.439-22.812 17.298-43.176 41.663-57.979z" fill="#00857C"/><path d="M127.355 204.821c-1.329.924 13.683 22.391 13.683 22.391l-30.429 29.492-13.536-29.492 30.282-22.391z" fill="#FFB1A5"/><path d="M126.772 205.242l-29.7 21.97 6.129 13.376c14.525-6.794 21.625-27.871 23.571-35.346zm-57.777 5.951c2.788 6.372 1.151 13.23-3.631 15.321-4.783 2.092-10.943-1.378-13.715-7.75-2.772-6.371-1.167-13.23 3.631-15.321 4.799-2.092 10.927 1.378 13.715 7.75z" fill="#ED9996"/><path d="M134.942 181.814c1.2 20.153-10.715 47.019-39.928 53.634-17.654 3.988-36.734-12.16-43.575-38.539-7.004-26.947 9.92-51.883 32.973-56.099 23.052-4.215 48.893 13.782 50.53 41.004z" fill="#FFB1A5"/><path d="M115.943 184.668s-34.157-.779-43.462-20.3c0 0-17.622 10.847-21.723 25.845 0 0-5.853-34.859 22.695-38.913 28.548-4.053 45.943 20.786 42.49 33.368z" fill="#ED9996"/><path d="M117.531 185.057s-37.285-6.486-43.38-26.979c0 0-23.62 16.764-23.637 35.556 0 0-49.379-57.055 31.547-57.882 0 0 55.88-34.275 57.129 36.626 0 0 20.847-4.086 26.148 13.489 5.301 17.576-4.863 13.895-2.448 21.256 2.416 7.361-6.208 16.684-15.189 12.193-8.981-4.491-30.17-34.259-30.17-34.259z" fill="#282828"/><path d="M136.45 187.537c1.945 6.68-.519 13.279-5.544 14.755-5.026 1.475-10.667-2.74-12.564-9.42-1.897-6.68.519-13.279 5.528-14.738 5.009-1.46 10.683 2.74 12.58 9.403z" fill="#FFB1A5"/><path d="M82.061 135.687c-80.926.827-31.547 57.882-31.547 57.882.04-2.903.56-5.78 1.54-8.512a58.811 58.811 0 01-3.42-14.074c-.714-7.312.859-15.175 5.852-20.558 5.82-6.291 15.239-8.107 23.733-6.923a19.447 19.447 0 0110.213 3.94 46.337 46.337 0 0133.444-17.251c-16.811-8.61-39.815 5.496-39.815 5.496z" fill="#424242"/><path d="M98.224 193.569a7.148 7.148 0 11-11.15-5.496 7.146 7.146 0 014.017-1.233 6.938 6.938 0 017.133 6.729zm-25.744 7.815a7.15 7.15 0 11-7.148-6.729 6.956 6.956 0 017.149 6.729z" fill="#ED9996"/><path d="M94.512 196.876c1.146 0 2.075-.994 2.075-2.221s-.93-2.221-2.075-2.221c-1.147 0-2.076.994-2.076 2.221s.93 2.221 2.076 2.221zm-25.954 7.945c1.145 0 2.074-.995 2.074-2.221 0-1.227-.928-2.222-2.075-2.222-1.145 0-2.075.995-2.075 2.222 0 1.226.93 2.221 2.076 2.221z" fill="#282828"/><path d="M98.888 193.163c-.308-2.269-1.8-3.518-3.388-5.01-.08 0-.26 0-.178.13a14.103 14.103 0 012.594 3.972c.27.861.314 1.777.13 2.659a7.364 7.364 0 01-1.362 2.205.262.262 0 00.01.297.256.256 0 00.126.09.26.26 0 00.156.003c1.718-.535 2.09-2.822 1.912-4.346zm1.379 0c0-.194-.373-.162-.357 0a6.784 6.784 0 01-.146 2.141 7.803 7.803 0 00-.567 1.621.308.308 0 00.389.292c1.556-.373.924-2.919.681-4.054zm-34.806 13.912c-2.091-.373-3.955-.454-5.447-2.222a5.884 5.884 0 01-.973-5.934c.098-.243-.291-.405-.421-.178-2.432 4.588 1.978 9.501 6.728 9.112.421-.098.583-.697.113-.778zm-1.248 2.48a4.857 4.857 0 01-4.36-1.475h-.098c.826 1.216 3.242 2.578 4.636 1.816.227-.065.049-.373-.178-.341zm.324 1.621a5.328 5.328 0 00-1.848-.291 7.372 7.372 0 01-2.14-.762.159.159 0 00-.111-.002.164.164 0 00-.107.181.16.16 0 00.056.096c.989.665 2.967 1.735 4.15 1.119a.202.202 0 00.073-.071.198.198 0 000-.198.197.197 0 00-.073-.072z" fill="#282828"/><path d="M81.98 180.063a10.524 10.524 0 0011.348 2.416m-30.396 4.361a10.506 10.506 0 01-9.435 6.729m21.755 5.512s-.421 10.539 4.572 11.479m-1.459 13.587a2.932 2.932 0 01-.34-3.242 2.179 2.179 0 011.416-.968 2.188 2.188 0 011.68.351c.535.438.794 1.152 1.362 1.541a2.079 2.079 0 002.788-.714 3.63 3.63 0 00.26-3.096 2.58 2.58 0 01-.195-1.881c.486-.941 1.913-.616 2.82-.081.908.535 2.157 1.118 2.919.389.486-.454.502-1.2.697-1.832a3.591 3.591 0 012.06-1.906 3.613 3.613 0 012.803.155 5.814 5.814 0 012.853 4.864" stroke="#282828" stroke-linecap="round" stroke-linejoin="round"/><path d="M166.976 227.212s-17.022-4.767-23.117 27.238c-6.096 32.005-16.471 59.649-21.902 63.33-4.685 3.242-38.129-19.862-47.142-26.185.324-8.69.34-17.835-4.507-25.325-3.453-5.302-10.602-12.549-17.832-9.193-5.836 2.724 5.609 7.263 7.068 8.106a6.956 6.956 0 012.659 2.319c1.118 2.108.535 1.702-.778 1.281-2.092-.665-4.086-2.254-6.144-3.097-3.016-1.232-6.615-2.189-9.727-.632-2.092 1.037-4.702 3.745-2.48 5.869a9.716 9.716 0 004.23 1.621 14.206 14.206 0 017.377 4.151c-4.377-2.189-11.154-4.54-14.59-.94-1.233 1.28-1.849 3.113-.503 4.491 3.242 3.34 8.333 0 11.17 4.15-3.389-1.54-7.863-2.837-10.975-.583-2.659 1.945-1.46 4.685 1.345 5.658 2.156.746 5.172-.13 7.117 1.022 2.237 1.329 1.621 5.334 2.804 7.571a14.17 14.17 0 008.625 7.329c9.386 10.992 54.259 61.254 77.441 49.905 25.938-12.696 45.553-64.416 47.58-77.744 2.026-13.327 1.329-46.305-17.719-50.342z" fill="#FFB1A5"/><path d="M133.143 295.016c5.965 7.166 18.918 19.278 36.345 22.439a192.85 192.85 0 0012.969-30.967c-12.758-5.497-40.528-15.776-42.344-15.37-2.172 8.82-4.571 16.959-6.97 23.898z" fill="#ED9996"/><path d="M166.975 227.212s-17.021-4.767-23.117 27.238a298.951 298.951 0 01-10.634 40.663c8.511 4.362 31.53 13.474 46.493 16.473a182.166 182.166 0 007.393-32.832c1.945-13.408-1.086-47.505-20.135-51.542z" fill="#079191"/><path d="M33.752 246.165a13.488 13.488 0 00-8.106-6.485c-1.929-.503-5.155-1.038-6.97.097-1.816 1.135-1.152 2.886 0 4.313 1.329 1.751 3.339 2.643 4.863 4.15a13.983 13.983 0 012.577 3.762c.81 1.621 1.849 3.372-.518 2.286-1.8-.811-3.097-2.691-4.767-3.745a14.22 14.22 0 00-6.127-1.767c-3.08-.309-7.522-.487-9.986 1.799-1.784 1.622-1.962 4.086.291 5.318 1.297.525 2.672.827 4.07.892a16.12 16.12 0 017.44 3.129c-4.587-1.816-11.347-4.523-14.509-1.281a3.249 3.249 0 00-1.054 2.554 3.237 3.237 0 001.297 2.44 11.857 11.857 0 003.988 1.621 19.363 19.363 0 017.036 3.34c-4.215-1.329-10.991-3.356-12.969 1.087-2.091 4.75 6.922 5.074 9.403 5.415 1.264.162 3.971.276 4.863 1.313.892 1.038.794 2.87 1.216 3.924a7.522 7.522 0 003.664 4.426c6.095 3.113 11.088-2.562 16.665-3.988a.487.487 0 00.275-.179 3.563 3.563 0 001.346-.697c.26-.211.583-.438.859-.697a.258.258 0 00.286.127.256.256 0 00.2-.241v-.567l.081-.097a.439.439 0 000-.406c1.249-10.636.227-22.52-5.414-31.843z" fill="#ED9996"/><path d="M30.137 257.628c-1.848-1.346-6.566-4.037-8.868-2.011-1.799 1.622.13 4.216 1.168 5.659 1.28 1.848 3.242 3.907 3.031 6.356-.267 1.06-.608 2.1-1.021 3.113-.6 2.496.194 4.28.827 6.712a.468.468 0 00.572.319.471.471 0 00.335-.562c-.583-2.303-1.313-3.648-.762-6.21.527-1.27.924-2.59 1.184-3.94 0-2.205-1.8-4.167-2.967-5.885-.421-.616-1.62-1.719-1.62-2.481-.163-5.026 6.29-1.346 7.618-.405 3.162 2.253 6.566 6.047 7.085 9.987 0 .047.018.093.052.126a.177.177 0 00.252 0 .178.178 0 00.052-.126c.308-4.134-3.826-8.398-6.938-10.652z" fill="#282828"/><path d="M85.06 262.297c3.745 13.506 10.538 31.973 15.758 44.976m-19.486-23.785a65.087 65.087 0 0014.022 9.631" stroke="#024154" stroke-linecap="round" stroke-linejoin="round"/><path d="M272.867 224.504c-2.204-19.813-15.644-35.67-32.049-45.9h-.114c-.146-.681-1.232-.908-1.394-.098-2.626 12.501-4.766 25.488-10.035 37.194-2.837 6.291-6.97 13.409-13.957 15.614-8.22 2.61-16.066-2.919-22.696-6.988-10.894-6.648-24.171-13.976-33.557-1.07-1.816 2.334-7.393 9.809-3.437 12.759.621.385 1.34.582 2.071.567a3.783 3.783 0 002.046-.648c1.443-.632 2.384-2.302 3.697-3.129a24.01 24.01 0 0111.526-3.405c-5.269 6.016-15.141 10.199-9.127 19.457.192.31.496.535.85.626.354.09.729.04 1.047-.14 5.447-3.891 10.65-7.474 16.892-9.501-5.253 6.907-15.677 15.986-6.825 22.942a1.43 1.43 0 001.765.162 1.41 1.41 0 00.439-.454 31.868 31.868 0 013.907-6.615c5.123-5.869 9.549-3.891 14.299.454 2.464 2.254 4.587 4.961 7.489 6.728 7.198 4.346 16.957 3.551 24.56.779 8.754-3.243 16.001-9.388 22.972-15.371 7.603-6.485 16.016-12.727 20.101-22.131a1.504 1.504 0 00-.47-1.832z" fill="#282828"/><path d="M240.996 169.119c-6.484 10.344-6.841 23.769-9.305 35.475-1.427 6.728-3.486 14.219-8.592 19.197a16.933 16.933 0 01-12.969 4.864.693.693 0 00-.47-.13h-1.751a31.338 31.338 0 01-4.523-.989c-8.106-2.837-15.287-10.62-24.317-11.803-5.463-.714-14.071-.925-17.524 4.247-.324.503.421 1.054.827.633 6.922-7.118 22.695-1.411 29.342 2.48 4.604 2.724 10.813 8.691 16.746 7.572a20.066 20.066 0 0020.102-10.068c4.118-6.81 5.431-14.836 6.776-22.553a128.98 128.98 0 017.425-28.05c.519-1.151-1.216-1.799-1.767-.875zm39.977 39.204c-4.199 4.945-6.388 11.917-9.841 17.478a93.454 93.454 0 01-14.055 18.645c-13.698 13.214-33.865 20.948-52.281 14.106-.632-.243-1.086.795-.47 1.103 16.552 8.187 35.065 1.475 49.039-9.096 13.974-10.571 21.156-26.233 28.986-41.182.437-.827-.697-1.848-1.378-1.054z" fill="#fff"/></g><defs><clipPath id="clip0"><path fill="#fff" transform="translate(0 44)" d="M0 0h350v313H0z"/></clipPath></defs></svg>