<svg width="512" height="585" fill="none" xmlns="http://www.w3.org/2000/svg"><path d="M502.863 412.114c-3.225-29.3-18.251-58.709-44.89-72.713-13.198-6.948-27.687-11.122-40.885-18.098-14.273-7.54-18.09-16.158-16.262-31.966 1.747-14.866 6.639-29.113 9.462-43.736a180.8 180.8 0 001.693-52.488c-7.258-68.54-54.271-121-117.494-145.185-64.055-24.48-136.256-7.11-192.005 29.947-26.88 17.91-50.347 40.397-64.916 69.644-14.57 29.247-21.854 60.648-25.832 92.507-7.903 63.288-.78 131.611 31.503 187.601a148.81 148.81 0 005.376 8.617c43.224 92.292 165.664 114.133 261.492 112.06 57.497-1.266 118.273-13.466 160.636-55.72 21.128-21.168 35.482-50.011 32.122-80.47z" fill="#FAF0D0"/><path d="M185.461 377.642a48.438 48.438 0 00-8.574 7.406c-24.193 26.015-88.437 107.723-87.872 109.339.564 1.616 35.697 46.348 35.697 46.348s10.08.862 40.32-24.076c30.241-24.938 71.045-72.713 71.045-72.713l-50.616-66.304z" fill="#ED9996"/><path d="M185.461 377.642a48.438 48.438 0 00-8.574 7.406c-13.441 14.408-39.111 45.782-59.137 71.367 19.031 16.508 48.707 45.055 64.97 58.628 28.17-25.88 53.491-71.097 53.491-71.097l-50.75-66.304z" fill="#FED353"/><path d="M175.919 387.014c-2.688-2.855 83.544-66.089 159.776-51.761C435.717 354.104 453.834 534.81 453.834 534.81H252.581s-23.09-93.423-76.662-147.796z" fill="#FED353"/><path d="M269.328 314.3c3.951.243 31.342 19.525 31.342 19.525s-20.402 58.467-33.842 61.16c-13.44 2.693-49.057-29.354-49.057-29.354l51.557-51.331zm-106.554.27c6.479 12.9 4.006 27.254-5.376 32.021-9.381 4.766-22.472-1.778-28.95-14.678-6.478-12.9-4.085-27.254 5.403-32.047 9.489-4.794 22.472 1.804 28.923 14.704z" fill="#ED9996"/><path d="M286.047 261.381c12.768 35.818 2.688 93.72-48.519 117.419-27.606 12.819-64.297-5.09-89.968-49.526-36.638-63.476-13.816-95.739 25.644-115.426 39.46-19.686 95.559-.808 112.843 47.533z" fill="#FFB1A5"/><path d="M253.2 219.908a86.912 86.912 0 00-12.688-6.733c-13.843 3.07-39.675 9.372-62.389 15.216l-1.801-7.891-6.989-4.632c-15.456 8.322-27.928 18.852-34.702 32.587v.161a66.647 66.647 0 00-1.532 3.474v.189c-7.419 18.851-4.651 43.601 14.676 76.995 13.924 24.238 31.128 40.396 48.385 48.233-18.171-26.257-6.022-68.539-3.199-80.092 15.725-6.167 27.149-41.958 27.149-41.958a142.743 142.743 0 0046.718 13.923s-9.032-33.314-13.628-49.472z" fill="#ED9996"/><path d="M288.816 284.461c-2.231.7-52.497-20.494-73.464-45.998 0 0-5.994 32.317-22.445 46.483-16.451 14.165-13.44-23.242-13.44-23.242s-42.336 61.941-76.017 51.411c-33.681-10.529 5.698-45.513 5.698-45.513s-54.647 3.932-22.687-26.931c31.961-30.862 114.161-97.247 139.159-46.59 0 0 31.827-18.421 47.202 12.065 16.048 31.859 15.994 78.315 15.994 78.315z" fill="#282828"/><path d="M222.314 188.506c-28.278-39.723-105.182 22.784-135.88 52.3-31.96 30.728 22.687 26.931 22.687 26.931s-36.261 32.317-9.327 44.14a30.788 30.788 0 01-1.21-8.295 35.9 35.9 0 0110.295-23.295 105.685 105.685 0 0120.483-15.997 17.018 17.018 0 01-16.578-4.239 17.082 17.082 0 01-4.495-7.649 17.106 17.106 0 01-.055-8.876c1.613-6.275 6.559-11.042 11.397-15.324 15.08-13.465 31.424-25.638 50.025-33.34a92.253 92.253 0 0152.658-6.356z" fill="#424242"/><path d="M247.205 298.277a43.005 43.005 0 00-12.392 7.055c-1.478 1.024-3.064 2.047-4.65 3.151 1.183-1.508 2.339-3.043 3.602-4.47 2.688-3.043 5.161-7.379 8.521-9.615a1.56 1.56 0 00.658-1.964 1.555 1.555 0 00-1.867-.89c-3.817 1.158-6.156 5.978-8.683 8.941a62.161 62.161 0 00-9.65 14.3.997.997 0 000 .673.944.944 0 001.049 1.401c4.542-1.454 8.332-5.386 12.284-7.918a46.266 46.266 0 0112.257-7.11 1.868 1.868 0 00.291-3.434 1.86 1.86 0 00-1.42-.12zm-59.378 30.916a162.57 162.57 0 00-17.472-9.964 1.487 1.487 0 00-1.221-.15 1.481 1.481 0 00.065 2.843 65.237 65.237 0 0110.322 4.794c-1.747-.377-3.495-.674-5.376-.97-4.543-.673-9.14-2.154-13.682-2.397-1.479 0-1.801 1.912-.699 2.693a28.113 28.113 0 0012.069 3.044c5.08.619 10.188.969 15.295 1.508h.242a.752.752 0 00.779-1.017.75.75 0 00-.322-.384zm49.943-50.118c-5.887 2.558-9.972 7.191-14.219 11.823-1.586 1.75-11.478 16.697-12.554 16.427a.614.614 0 00-.637.218.618.618 0 00-.061.671l.457.727a.933.933 0 001.139.428.95.95 0 00.366-.239c8.655-8.322 14.784-21.949 26.423-26.769 2.016-.728 1.102-4.148-.914-3.286zm-51.153 35.495c-9.005-2.209-17.311-6.114-26.155-9.13-1.854-.619-2.688 2.343-.806 2.909 5.968 1.831 11.827 4.174 17.66 6.355 2.178.835 7.661 3.501 9.597.997a.698.698 0 00.156-.645.693.693 0 00-.452-.486zm17.741 26.123c-9.623-2.209-9.139-15.97-9.999-23.834a.943.943 0 00-.927-.784.944.944 0 00-.928.784c-.752 8.295 0 26.15 11.451 26.769a1.506 1.506 0 001.203-2.3 1.503 1.503 0 00-.8-.635z" fill="#282828"/><path d="M208.605 359.114v.323c1.156 3.878 7.016 5.682 9.462 3.42 4.462-4.067 13.44-8.887 19.112-6.544 3.575 1.427 6.989-3.501 6.989-5.737.08-17.101-40.267-4.147-35.563 8.538z" fill="#fff"/><path d="M293.028 307.256c10.506-1.716 17.142-14.662 14.822-28.916-2.32-14.254-12.716-24.418-23.222-22.702-10.506 1.716-17.142 14.663-14.822 28.917 2.32 14.253 12.716 24.417 23.222 22.701zm-100.847-38.684a12.478 12.478 0 00-5.161.431 19.83 19.83 0 00.645-7.191 7.317 7.317 0 00-4.489-5.386 9.173 9.173 0 00-3.736-.431 17.447 17.447 0 00-2.688-4.82c-3.064-3.394-12.284.565-16.961 6.894-2.5 3.393-13.736 18.852-12.984 21.545-1.827-6.06 4.973-24.023 6.237-30.298 1.263-6.274 5.564-11.472-3.468-11.661-6.881-.161-18.44 29.355-19.918 39.75-3.522 25.073-5.591 50.792-11.156 75.407 1.264 1.993 0 2.693 1.398 4.497 12.473 5.225 30.429 12.55 42.417 5.198 10.887-6.679 17.472-21.006 17.903-33.368a75.897 75.897 0 019.676-36.922c2.42-4.389 6.21-12.684 6.022-18.34a5.396 5.396 0 00-.981-3.28 5.38 5.38 0 00-2.756-2.025z" fill="#FFB1A5"/><path d="M184.79 270.484c-11.505 6.329-13.978 21.329-18.36 32.586-.43 1.078 1.317 1.562 1.748.485 4.542-11.742 7.177-23.834 17.149-32.317.403-.377-.107-.969-.537-.754zm-7.984-14.112c-13.763 8.43-21.504 28.87-24.192 43.978-.242 1.347 1.828 1.939 2.07.566a82.101 82.101 0 0122.821-43.52.622.622 0 00-.235-1.122.62.62 0 00-.464.098z" fill="#282828"/><path d="M118.503 352.838c-3.548 12.793-31.558 129.269-36.1 152.214-7.258 36.518 44.54 50.495 66.286 19.955 15.591-21.921 11.398-161.316 11.398-161.316l-41.584-10.853zm239.476-10.206c-9.488-3.69-33.788-6.921-37.39 15.97-5.591 35.468 51.072 125.174 51.072 125.174l-135.584 19.606 5.564 37.353s219.263 26.931 207.651-35.01c-15.349-82.085-44.272-144.915-91.313-163.093z" fill="#FFB1A5"/><path d="M426.658 424.367l-74.216 26.311c6.344 11.688 12.123 21.545 15.644 27.335a177.131 177.131 0 0071.636-14.3 360.487 360.487 0 00-13.064-39.346z" fill="#ED9996"/><path d="M357.979 342.632c-9.488-3.69-33.788-6.921-37.39 15.97-4.328 27.442 25.644 92.669 40.777 118.496 19.703-4.121 56.637-14.112 78.437-23.161-16.8-57.417-44.756-96.897-81.824-111.305z" fill="#FFE36E"/><path d="M265.323 495.949s-4.22-24.911-17.042-26.931c-21.773-3.581-26.423.458-26.746 7.783 0 0-22.123-3.366-24.837 5.925a8.414 8.414 0 002.93 9.722s-8.306.539-6.64 8.591a9.974 9.974 0 002.373 3.986 9.941 9.941 0 003.917 2.477 12.102 12.102 0 00-3.494 9.965 7.44 7.44 0 001.517 4.786 7.418 7.418 0 004.208 2.728s-4.623 6.948 2.849 13.95c5.86 5.386 58.357 3.043 58.357 3.043l2.608-46.025z" fill="#FFB1A5"/><path d="M244.195 478.229c-2.688-.243-5.107-.62-7.661-.97a9.228 9.228 0 015.806-4.039.784.784 0 00.78-.781.783.783 0 00-.228-.553.783.783 0 00-.552-.228c-3.172 0-5.376 3.15-6.962 5.386a46.042 46.042 0 00-12.015-.323c-.35 0-.592.565-.188.754a25.484 25.484 0 008.736 1.05c4.112.377 8.064 1.131 12.284 1.535 1.129.054 1.129-1.831 0-1.831zm-33.332 15.35c-3.064-.673-6.209 0-9.3-1.077-.484-.135-.941.538-.511.889 2.527 2.073 6.505 1.723 9.596 1.912a.886.886 0 00.801-.775.887.887 0 00-.586-.949zm-2.822 14.274a18.787 18.787 0 00-6.962.242.537.537 0 00-.37.512.54.54 0 00.37.511c2.281.524 4.623.742 6.962.647a.97.97 0 000-1.912zm.806 16.966a53.6 53.6 0 00-6.586 0c-.537 0-.51.969 0 1.077 2.163.493 4.369.773 6.586.835a.97.97 0 000-1.912z" fill="#282828"/><path d="M227.233 459.377c-5.376-10.018-11.101-19.713-15.725-30.055-4.838-10.772-9.004-21.948-13.843-32.775 0-.269-.564 0-.484.189 3.817 11.338 7.446 22.649 12.177 33.664 3.253 7.54 7.258 14.704 11.209 21.894-15.859-9.452-31.772-19.309-43.869-33.475-.349-.404-1.021.135-.725.566 11.504 16.481 28.923 26.796 45.884 36.868.274.166.6.223.914.162.78 1.4 1.532 2.693 2.285 4.255.753 1.562 2.93.081 2.177-1.293z" fill="#935221"/><path d="M319.218 207.573c-16.881 7.783.967 28.897 10.564 16.159 2.688-3.474-3.226-6.814-5.833-3.42-4.355.727-5.806-.943-4.301-5.036a9.554 9.554 0 014.892-2.343c2.7-.474 5.479.104 7.768 1.616 4.946 3.447 5.215 10.61 2.366 15.458-6.29 10.611-24.434 8.699-31.181-.35-12.688-17.047 15.752-33.664 30.159-31.348a2.251 2.251 0 001.594-.315 2.264 2.264 0 00-.384-4.021c-25.724-10.772-58.438 29.624-29.38 46.375 13.01 7.487 33.815 3.636 37.471-12.711 3.118-13.735-10.322-26.231-23.735-20.064zm-242.245-56.15c-7.85 2.127-27.767 12.657-15.08 21.544 1.102.781 2.688-.781 1.882-1.912-4.812-6.813 8.36-11.311 13.037-12.765 7.365-2.289 15.563-1.077 20.456 5.386 5.591 7.541 3.709 23.699-7.124 25.692a10.066 10.066 0 01-7.185-2.074 10.102 10.102 0 01-3.782-6.463c-.914-5.655 2.42-8.564 7.446-5.171 3.844 2.693 7.446-3.635 3.602-6.221-13.44-8.995-22.902 7.056-15.752 18.852 10.618 17.505 31.504 4.147 32.955-12.2a23.846 23.846 0 00-1.866-11.263 23.791 23.791 0 00-6.885-9.097 23.72 23.72 0 00-21.704-4.308zm82.334-22.703a141.332 141.332 0 00-21.155 5.386 217.286 217.286 0 01-6.263-33.179c-.511-5.386-9.032-5.386-8.521 0a236.525 236.525 0 007.714 39.562 4.283 4.283 0 002 2.522 4.258 4.258 0 003.188.413c6.667-1.858 13.172-4.093 19.838-5.79a83.62 83.62 0 01-1.022 25.234.634.634 0 00.675.802.622.622 0 00.535-.452 154.894 154.894 0 006.801-29.381c.242-2.316-1.102-5.494-3.79-5.117zm96.769-31.617c-.511-5.602-8.951-5.817-8.897 0 0 5.386-4.489 10.261-6.64 14.866a127.672 127.672 0 00-5.591 15.351 86.079 86.079 0 00-17.929-3.636c-.827 0-1.62.329-2.205.915a3.125 3.125 0 00-.913 2.209c1.559 11.634-1.156 23.268.994 35.01.269 1.481 2.688 1.158 2.688-.35a97.954 97.954 0 011.775-30.998c5.833 1.266 11.37 3.367 17.149 4.929a3.815 3.815 0 004.597-2.693 209.606 209.606 0 0111.074-23.753c2.124-3.771 4.221-7.325 3.898-11.85zm66.072 51.034c-7.312 3.07-11.613 8.079-17.687 12.954a11.635 11.635 0 01-6.747 4.201 34.913 34.913 0 00-3.253-3.043 51.735 51.735 0 00-5.967-3.501c-10.752-3.205-16.935 10.153-23.252 16.401-1.209 1.212.457 3.528 1.882 2.423 4.139-3.15 8.064-9.452 12.956-11.391 9.381-3.717 9.811 5.547 16.128 7.486 3.36 1.051 5.941-.673 8.656-2.531 7.231-4.928 11.988-12.011 20.133-15.97 3.978-1.885 1.21-8.726-2.849-7.029zM67.242 265.475c-6.559 1.131-13.064 2.935-19.569 4.363-4.596.996-12.419.861-15.51 4.766a2.343 2.343 0 00-.617 1.92 2.334 2.334 0 001.1 1.689c4.84 2.451 11.801-.862 16.774-2.073a66.437 66.437 0 0019.327-7.083 1.966 1.966 0 00-1.505-3.582zm-.995-44.813a42.042 42.042 0 00-13.09-7.191c-3.36-1.158-9.193-4.497-12.634-3.366a2.508 2.508 0 00-1.72 3.043c1.478 3.69 5.994 4.094 9.461 5.063a65.197 65.197 0 0115.51 5.656c1.936 1.211 4.328-1.697 2.473-3.205z" fill="#BC2445"/></svg>