<svg width="1920" height="1779" fill="none" xmlns="http://www.w3.org/2000/svg"><path fill="#FEF8E4" d="M0 0h1918v1779H0z"/><path d="M1986 543c-3.22-12.939-15.78-22.602-30.77-22.602a34.75 34.75 0 00-7.97.945 46.723 46.723 0 00-17.56-18.263 47.033 47.033 0 00-24.55-6.461c-4.71-.004-9.39.648-13.9 1.938a58.311 58.311 0 00-21.22-18.899 58.523 58.523 0 00-27.67-6.655c-24.79 0-45.87 14.483-53.86 34.779a41.876 41.876 0 00-19.12-4.612c-21.73 0-39.38 16.144-39.38 36.255 0 1.176 0 2.307.19 3.529L1986 543zM257 1018c-4.705-18.853-23.049-32.935-44.948-32.935a50.94 50.94 0 00-11.643 1.378 68.201 68.201 0 00-25.659-26.612 68.855 68.855 0 00-35.873-9.414 73.89 73.89 0 00-20.308 2.823 85.023 85.023 0 00-30.99-27.539 85.719 85.719 0 00-40.425-9.697c-36.216 0-67.016 21.105-78.692 50.679a61.273 61.273 0 00-27.924-6.722c-31.747 0-57.538 23.525-57.538 52.829 0 1.71 0 3.36.271 5.14L257 1018z" fill="#fff"/><path d="M209.797 181.003a34.155 34.155 0 0011.38-6.988 13.66 13.66 0 004.552-6.828 6.353 6.353 0 00-3.073-7.078 6.57 6.57 0 00-7.192 2.048 17.205 17.205 0 00-3.346 7.17 116.525 116.525 0 00-2.549 11.835l.228-.159zm22.009 36.803c5.281.888 10.811 1.753 15.932 0 2.868-.978 5.759-3.482 5.19-6.441a5.081 5.081 0 00-4.552-3.71 11.209 11.209 0 00-6.055 1.457 29.6 29.6 0 00-10.333 8.535l-.182.159zm-40.172 74.654c0 5.349 0 10.948 2.435 15.682 1.411 2.663 4.325 5.144 7.17 4.12a5.126 5.126 0 002.959-5.122 11.024 11.024 0 00-2.276-5.758 29.6 29.6 0 00-10.038-8.877l-.25-.045zM95.312 180.457a33.77 33.77 0 00-7.284-11.176 13.659 13.659 0 00-6.987-4.279 6.328 6.328 0 00-6.987 3.346 6.555 6.555 0 002.276 7.147 17.666 17.666 0 007.26 3.164c3.87.978 7.966 1.638 11.927 2.276l-.205-.478zm32.866-22.67c.925-4.394.964-8.929.114-13.338a13.426 13.426 0 00-3.483-7.42 6.329 6.329 0 00-7.602-1.161 6.555 6.555 0 00-2.094 7.193 17.545 17.545 0 004.302 6.646c2.686 2.936 5.736 5.758 8.695 8.444l.068-.364zm46.09-5.804c2.686-4.552 5.44-9.514 5.599-14.862 0-3.005-1.229-6.601-4.188-7.102a5.148 5.148 0 00-5.121 2.982 11.383 11.383 0 00-.751 6.213 29.571 29.571 0 004.37 12.655l.091.114zm47.501 105.13a33.396 33.396 0 009.354 9.469 13.655 13.655 0 007.716 2.776 6.349 6.349 0 006.191-4.552 6.539 6.539 0 00-3.596-6.555 17.375 17.375 0 00-7.762-1.638 120.032 120.032 0 00-12.131.227l.228.273zm-67.622 46.159a34.143 34.143 0 00-4.552 12.564c-.557 2.747-.255 5.6.865 8.171a6.373 6.373 0 006.828 3.573 6.576 6.576 0 004.325-6.1 17.3 17.3 0 00-1.889-7.693c-1.571-3.664-3.551-7.329-5.486-10.834l-.091.319zm-36.826-12.177a34.017 34.017 0 00-11.79 6.236 13.66 13.66 0 00-4.893 6.578 6.352 6.352 0 002.617 7.238 6.555 6.555 0 007.306-1.548 17.604 17.604 0 003.824-6.942c1.32-3.755 2.276-7.784 3.3-11.653l-.364.091zm-39.854-70.808a33.454 33.454 0 00-11.38-7.01 13.65 13.65 0 00-8.148-.865A6.346 6.346 0 0053 218.33a6.553 6.553 0 005.053 5.508c2.624.53 5.335.445 7.92-.251a115.263 115.263 0 0011.722-3.072l-.228-.228zm8.445 41.674c-5.326-.273-10.925-.523-15.773 1.753-2.709 1.297-5.326 4.119-4.415 6.987a5.167 5.167 0 004.984 3.187 11.38 11.38 0 005.872-2.14 29.593 29.593 0 009.286-9.65l.046-.137z" fill="#FFD530"/><path d="M129.521 164.023c21.577-8.876 65.595-8.808 85.579 36.622 19.983 45.43-9.491 74.631-29.111 84.213-19.619 9.582-70.557 16.934-92.157-25.218-21.6-42.153 5.964-83.463 35.689-95.708" fill="#FFE96B"/></svg>