<svg width="350" height="400" fill="none" xmlns="http://www.w3.org/2000/svg"><g clip-path="url(#clip0)"><path d="M332.063 206.925c-2.877-72.379-36.761-145.149-106.915-173.904a104.163 104.163 0 00-61.265-5.904 104.115 104.115 0 00-53.892 29.71C93.549 73.905 85.21 93.877 81.236 115.22a43.17 43.17 0 00-1.683 4.147c-3.425 10.036-3.915 21.029-4.757 31.495-1.703 20.149-5.128 37.637-19.848 52.308-25.153 25.02-54.436 63.478-36.33 100.568 34.157 69.953 120.441 69.659 186.916 65.18 37.074-2.504 73.345-10.349 98.518-40.004 28.774-33.96 29.734-79.773 28.011-121.988z" fill="#FAF0D0"/><path d="M214.91 207.707c2.408-1.428 18.831-20.696 26.719-5.32 7.889 15.375 59.448 129.831 40.147 137.5-19.3 7.668-28.226 7.824-40.147-14.261-6.087-11.268-57.235-99.785-26.719-117.919z" fill="#ED9996"/><path d="M262.378 249.354c-9.024-22.222-17.852-41.314-20.749-46.948-7.83-15.375-24.311 3.912-26.719 5.321-16.403 9.781-13.819 40.023-2.721 67.508 11.764-1.487 36.213-13.928 50.189-25.881z" fill="#9E1533"/><path d="M159.084 187.969c-3.387 1.155-62.208 2.798-85.306 73.729-23.097 70.931-12.586 113.361-12.586 113.361h142.052s-13.702-103.228 23.978-133.021c37.681-29.792-68.138-54.069-68.138-54.069z" fill="#9E1533"/><path d="M149.434 187.969s5.167 50.607 26.034 55.106c20.866 4.499 39.442-35.368 39.442-35.368l-65.476-19.738zm99.986-21.302c-.666 9.918-6.577 17.605-13.213 17.175-6.636-.43-11.49-8.862-10.824-18.779.665-9.918 6.577-17.606 13.212-17.156 6.636.45 11.49 8.842 10.825 18.76z" fill="#ED9996"/><path d="M241.277 128.991a.659.659 0 00-.137-.255 1.194 1.194 0 00-.274-1.369c-3.484-3.443-14.779-1.154-17.226 2.876-1.957 3.247.177 9.585.783 12.871 1.625 8.725 3.7 17.352 5.364 26.076a1.248 1.248 0 001.04.884 1.254 1.254 0 001.23-.59c6.871-11.874 10.805-26.722 9.22-40.493z" fill="#282828"/><path d="M237.382 154.304c.215 24.354 0 60.778-40.128 65.825-27.404 3.443-52.166-19.444-58.723-51.643-6.773-32.923 12.449-63.087 40.519-66.686 28.07-3.6 58.038 19.64 58.332 52.504z" fill="#FFB1A5"/><path d="M212.444 195.188c-2.447-3.208-6.382-2.543-9.787-1.565-3.015.841-5.501 1.956-8.672 1.311a11.192 11.192 0 00-6.362-.45 6.52 6.52 0 00-3.817 2.66 3.457 3.457 0 00-1.497 2.214 3.437 3.437 0 00.538 2.618c1.449 2.445 5.246 2.601 7.595 1.584 3.249-1.408 4.287-4.147 8.456-4.382a33.762 33.762 0 015.618.431c2.134.215 6.244 1.056 8.123-.509 1.41-1.134.823-2.504-.195-3.912z" fill="#fff"/><path d="M148.22 159.977a119.549 119.549 0 0015.777-20.54 7.425 7.425 0 008.711.645 5.624 5.624 0 011.37-.782c1.527-.489 2.956.782 4.267 1.702a11.756 11.756 0 0012.039.684 13.224 13.224 0 014.971-2.308c3.132-.196 5.697 3.091 8.828 2.915 2.389-.137 4.209-2.23 6.499-2.895 3.778-1.096 7.399 1.838 11.158 2.934a12.221 12.221 0 0012.527-3.913 5.856 5.856 0 001.507-3.227 6.537 6.537 0 00-.391-2.524 35.105 35.105 0 00-19.77-20.598 46.511 46.511 0 00-15.66-1.957 91.967 91.967 0 00-23.959 2.152 35.003 35.003 0 00-19.927 12.715 47.088 47.088 0 00-6.459 15.846" fill="#ED9996"/><path d="M250.692 117.156c1.527-4.871-1.292-9.781-5.148-12.755-2.173-1.623-6.518-1.819-8.221-3.345-2.31-2.093-.646-5.32-1.958-8.196-2.779-5.653-9.18-6.005-14.348-4.538-4.874 1.408-1.82 1.956-4.854-1.115-3.034-3.072-5.207-5.634-9.337-7.2-7.517-2.836-11.197 0-16.932 4.265-4.071 3.032-1.801 1.663-7.145-.508a20.287 20.287 0 00-10.687-.959c-6.91 1.213-8.3 5.067-12.019 10.035-3.112 4.167-4.287 1.957-9.102 2.406a12.518 12.518 0 00-9.631 5.693 11.736 11.736 0 00-1.566 8.685c.96 5.106 1.586 3.248-3.229 6.221-6.029 3.756-8.809 8.549-7.106 15.356.646 2.621 1.781 4.617 1.625 7.512 0 1.565-.725 3.169-.803 4.792a48.359 48.359 0 001.018 10.329c.646 3.912 1.292 10.524 4.052 14.437 1.077.156 2.838.195 3.249.215.901 0 4.228 2.817 5.109 2.719a64.141 64.141 0 009.905-18.877c1.703-5.282 2.975-8.783 4.541-13.693 2.114-6.71 3.25-3.052 8.926-2.837 4.718.176 1.37-.548 5.148-1.565 6.049-1.643 5.873.939 11.549 1.956 2.617.527 5.33.31 7.83-.626a25.64 25.64 0 002.584-1.447c3.915-2.093 1.409-2.68 5.735-.685 2.584 1.213 3.915 3.11 7.066 3.091 3.152-.02 3.817-1.956 6.44-2.778 5.462-1.584 7.713 4.343 12.528 5.673 3.915 1.056 7.83 0 11.627-.841 4.581-.978 10.061-4.01 10.14-9.566 0-2.504-1.782-3.677-1.155-6.123.274-1.741 3.504-3.638 4.169-5.731z" fill="#282828"/><path d="M140.642 191.641c6.519-1.306 10.216-10.274 8.258-20.03-1.957-9.756-8.829-16.606-15.348-15.299-6.518 1.306-10.216 10.274-8.258 20.03 1.958 9.756 8.829 16.606 15.348 15.299z" fill="#FFB1A5"/><path d="M237.401 138.459c4.581-.979 10.061-4.011 10.14-9.566 0-2.504-1.782-3.678-1.155-6.123.411-1.604 3.641-3.502 4.306-5.595 1.527-4.871-1.292-9.781-5.148-12.754-2.173-1.624-6.518-1.819-8.221-3.345-2.31-2.093-.646-5.32-1.958-8.197-2.779-5.653-9.18-6.005-14.348-4.538-4.874 1.409-1.82 1.956-4.854-1.115-3.034-3.071-5.207-5.634-9.337-7.199-7.517-2.836-11.197 0-16.932 4.265-4.071 3.032-1.801 1.663-7.145-.509a20.287 20.287 0 00-10.687-.958 12.316 12.316 0 00-6.969 3.384c.593-.16 1.194-.284 1.801-.372 9.787-1.33 9.278 3.052 15.503 5.732 3.465 1.487 4.815.802 8.202.176a21.229 21.229 0 0112.684-2.895 15.395 15.395 0 017.301 7.825c.646.469.822 1.545 1.586 1.956 6.714 2.993 8.75-4.832 15.072 6.005 1.272 2.172.842 3.208 2.701 5.399 3.211 3.737 10.277-4.323 6.577 9.957-.372 1.467-2.192 1.956-2.427 3.717-.391 2.915 2.095 3.149 2.936 5.223 1.958 4.656 1.958 7.238-.137 9.781l.509-.254z" fill="#424242"/><path d="M179.696 171.205c0 2.25-1.292 4.069-2.878 4.069-1.585 0-2.858-1.819-2.858-4.069s1.292-4.049 2.858-4.049 2.878 1.819 2.878 4.049zm47.468-4.049c0 2.23-1.292 4.049-2.878 4.049-1.585 0-2.858-1.819-2.858-4.049 0-2.23 1.273-4.069 2.858-4.069 1.586 0 2.878 1.819 2.878 4.069zm2.212-15.728a14.828 14.828 0 01-8.261-1.389 24.916 24.916 0 01-5.109-5.321c-.254-.274-.744 0-.607.411a13.688 13.688 0 004.757 6.827 14.606 14.606 0 009.376 1.741 1.14 1.14 0 001.057-1.213 1.135 1.135 0 00-1.213-1.056zm-49.328-2.093c-4.306 4.656-9.591 7.649-16.129 7.042-1.018 0-1.233 1.565-.235 1.78 5.226 1.115 16.599-2.093 17.362-8.411.059-.509-.685-.763-.998-.411zm27.346 21.577c-.92-4.832-.607-9.781-1.038-14.711a.373.373 0 00-.744 0 59.716 59.716 0 00-.215 12.95c.685 5.869 3.758 12.813-4.463 14.711a.76.76 0 00-.519.824.76.76 0 00.715.662 8.145 8.145 0 007.83-6.729c.293-2.543-1.097-5.282-1.566-7.707z" fill="#282828"/><path d="M174.998 178.775c-5.246-1.623-4.306-6.22-5.109-10.602-.098-.45-.705-.372-.842 0-1.37 4.186.372 11.854 5.873 11.933a.689.689 0 00.565-.634.687.687 0 00-.487-.697zm-3.621 2.524c-2.33-1.722-5.109-3.071-5.148-6.397a.315.315 0 00-.496-.169.308.308 0 00-.111.169c-.235 3.384 2.447 5.869 5.246 7.277a.51.51 0 00.509-.88zm58.899-18.682a.333.333 0 00-.646.098c0 2.895.607 6.064-.803 8.725a12.225 12.225 0 01-5.285 4.558c-.587.352-.195 1.369.49 1.134a10.608 10.608 0 006.029-4.968c1.663-3.13 1.096-6.319.215-9.547zm1.233 11.894a10.434 10.434 0 01-1.84 1.956 7.822 7.822 0 01-2.251 1.213 1.002 1.002 0 00-.458 1.124.997.997 0 00.967.734 5.44 5.44 0 004.483-4.577.502.502 0 00.027-.384.509.509 0 00-.253-.291.498.498 0 00-.554.07.508.508 0 00-.121.155zm-29.714 32.277a10.081 10.081 0 00-1.957-4.245.299.299 0 00-.299-.153.278.278 0 00-.112.036.3.3 0 00-.118.41 10.974 10.974 0 011.37 4.617 32.303 32.303 0 01-.88 4.91.532.532 0 00.381.655.534.534 0 00.656-.381 13.853 13.853 0 00.959-5.849zm5.461 1.076a5.51 5.51 0 00-1.702-2.895c-.451-.489-1.097.137-.862.665.34.743.558 1.535.646 2.347-.048.8-.207 1.59-.47 2.348-.117.782.881 1.662 1.547.88a4.316 4.316 0 00.841-3.345z" fill="#ED9996"/><path d="M216.319 262.461a30.19 30.19 0 00-3.249-5.536 1.446 1.446 0 00-.411-.352c.607 0 1.527 0 1.781-.157a5.091 5.091 0 002.31-.997 4.034 4.034 0 001.292-2.915 5.182 5.182 0 00-1.018-2.954c-.744-1.311-1.39-1.526-1.096-1.78 1.077-.841 3.21-.782 3.563-2.543a5.003 5.003 0 00-1.84-4.03c-4.268-4.284-13.37-5.105-19.086-5.418l-6.674-.333a2.382 2.382 0 011.409-2.308c.932-.508 1.9-.946 2.897-1.311 2.701-1.056 5.618-1.506 8.3-2.602 2.211-.899 4.834-2.347 2.818-4.773-3.915-4.695-13.428-.919-17.91.626-5.873 1.956-16.599 10.759-17.226 11.737a48.541 48.541 0 00-5.363 14.926c-.842 3.795-.49 9.409-1.136 13.322-6.205 3.521-37.504 18.759-40.147 19.933-2.955 1.311 35.019-62.598 30.067-83.49-4.953-20.892-27.639-14.065-38.562-7.433-32.2 19.562-46.058 109.742-46.137 126.33-.078 16.588 8.652 34.761 32.572 32.649 23.92-2.113 82.643-68.193 82.643-68.193l-.176-.176c3.563-2.602 6.616-4.675 8.867-8.92.157-.313 1.664-3.228 2.408-4.304s2.212-7.198 7.693-6.181c1.022.411 1.989.95 2.877 1.604a8.618 8.618 0 005.872 1.565c3.817-.88 3.954-2.837 2.662-5.986z" fill="#FFB1A5"/><path d="M113.064 289.085l12.469-3.913c-.998.431 2.721-6.631 7.83-16.979l-20.299 20.892z" fill="#ED9996"/><path d="M142.191 249.511L88.068 238.85a300.167 300.167 0 00-9.787 34.018c24.409 8.979 41.106 7.335 50.345 4.753 3.25-6.612 8.554-16.96 13.565-28.11z" fill="#ED9996"/><path d="M214.734 246.753c-5.07-2.758-14.387-6.925-20.025-3.463a.442.442 0 00-.268.401.437.437 0 00.435.434.431.431 0 00.166-.033 22.692 22.692 0 0110.061.216c3.269.704 6.127 2.777 9.377 3.227.332-.058.646-.567.254-.782zm-2.643 9.605c-4.13-3.502-11.744-3.913-16.559-1.741-.549.234-.157 1.154.411.958 5.872-1.956 10.178-.411 15.816 1.35.313.098.587-.352.332-.567z" fill="#282828"/><path d="M155.6 201.526c-4.953-20.814-27.639-14.065-38.562-7.434-17.167 10.466-33.276 39.613-40.715 68.31 14.622 7.14 44.121 13.693 56.414 12.715 9.337-18.662 26.543-58.137 22.863-73.591z" fill="#BC2445"/><path d="M269.033 259.977c.725-7.121 1.958-14.594.783-21.636a29.982 29.982 0 00-7.829-15.297v-.137a37.125 37.125 0 00-4.64-5.145 13.124 13.124 0 00-5.128-3.912c-2.799-1.33-4.894-3.482-7.83-3.247-3.288-1.116-6.381-.959-8.006 1.428-2.114 3.09 1.077 6.103 3.367 7.824 1.82 1.389 3.915 2.367 5.735 3.776 2.78 2.171 6.382 9.018 4.13 12.598-3.288 5.203-6.165-.842-7.829-3.737a13.937 13.937 0 00-4.13-5.36c-3.211-1.956-5.618.626-5.873 3.913a11.284 11.284 0 002.251 7.237 31.605 31.605 0 015.618 12.657c1.077 5.692 1.429 12.383 6.44 16.08-.215 7.179-3.093 53.404 1.507 65.551 3.445 9.116 9.788 15.356 28.383 12.95 0 0 14.466-5.868 14.466-19.268-.059-9.781-19.066-59.879-21.415-66.275z" fill="#FFB1A5"/><path d="M267.467 238.928c-2.701-3.912-11.744-22.966-18.576-19.092a4.113 4.113 0 00-1.252 1.115 7.096 7.096 0 01-1.664-4.284c.606-3.913 2.936-3.502 5.069-2.759a18.727 18.727 0 016.108 4.011c4.149 3.795 6.538 9.331 9.513 14.025a.211.211 0 00.256.024.21.21 0 00.088-.103.218.218 0 00.008-.136c-3.758-7.003-7.438-15.532-15.444-18.623-3.289-2.562-8.711-5.262-11.431-1.486-2.721 3.775 3.249 7.824 5.872 9.468a.51.51 0 00.528 0c.178.316.38.617.607.899-.92 3.561 3.915 8.921 5.461 11.072 2.604 3.463 4.268 6.906 1.253 10.975a29.264 29.264 0 00-3.19 4.968c-1.253 2.68-1.958 5.478-.137 8.04.43.665 1.487 0 1.057-.626-4.307-6.964 6.694-11.248 5.422-17.821-.548-2.875-13.272-16.705-7.047-18.212 4.267-1.036 9.396 7.63 11.275 10.329a84.968 84.968 0 005.872 8.509c.196.235.568-.058.352-.293zm-26.229-26.956c2.114-2.543 5.304-1.096 8.103.567-3.914-.293-4.795 3.6-3.523 7.082-2.368-1.605-6.694-5.008-4.522-7.649h-.058z" fill="#282828"/><path d="M113.789 167.801c-6.597-4.988-15.17-12.813-19.575-19.933a2.406 2.406 0 00-3.215-.834c-.358.199-.66.486-.876.834-1.84 2.523-2.544 7.218-5.226 8.666-2.682 1.447-7.086-.548-10.12-1.702-4.992-1.956-11.549-5.869-17.147-5.204-4.091.509-4.992 2.7-6.538 6.104-1.703 3.912-1.958 5.77-6.616 6.827-3.504.802-5.873.274-9.005 2.21a3.253 3.253 0 00-1.513 3.181 3.247 3.247 0 002.277 2.688c4.404 1.584 13.526 1.173 17.5-1.839a14.374 14.374 0 004.286-6.573c.274-.782.411-3.775 1.018-4.245 1.8-1.389 4.698.294 6.42.822 6.382 1.956 12.88 6.866 19.927 5.868 7.047-.997 6.519-6.807 8.143-12.148 7.145 4.245 12.195 12.403 19.575 16.667.783.391 1.389-.763.685-1.389zm6.577-48.904a122.114 122.114 0 01-10.531-24.296 3.643 3.643 0 00-3.406-2.602c-6.127-.489-14.329 3.913-18.146-2.132-1.957-3.208-2.133-7.394-5.441-9.78-5.873-4.128-14.78.195-21.14 3.364-2.154-3.54-2.937-7.492-6.52-10.31-3.581-2.816-9.356 2.368-5.46 5.439 3.895 3.071 4.756 8.744 8.064 12.46a3.915 3.915 0 004.679.607c3.523-1.643 11.118-6.768 14.974-5.282 1.958.783 2.31 3.13 3.093 4.91 1.683 3.913 3.25 8.02 7.419 9.781 4.893 2.093 8.789-1.819 13.349-1.369 7.458.763 12.645 15.219 16.678 20.56 1.057 1.467 3.269.293 2.388-1.35zm35.273-60.877c-4.033-2.308-12.176-1.74-14.27-6.612-2.094-4.87.137-12.07-.724-17.273-.666-4.166-7.83-3.227-7.419 1.018.587 7.061-1.957 16.725 2.995 22.691 3.112 3.697 9.533 5.869 14.896 5.869-.313 5.712-.646 11.952 1.39 17.136a1.234 1.234 0 002.349 0c2.212-6.201.196-13.185 2.114-19.562a2.914 2.914 0 00-1.331-3.267zm176.972 40.963a558.541 558.541 0 00-26.425 9.507c-5.05 1.956-7.125 4.049-13.076-.802-2.094-1.722-3.445-4.773-5.637-6.632a3.665 3.665 0 00-5.109 0c-5.227 5.38-11.745 9.957-17.402 14.848-1.077.919.313 2.66 1.507 1.956a99.053 99.053 0 0111.471-6.788c4.541-1.956 5.05-2.582 8.417.489 3.367 3.071 4.463 7.473 9.454 8.47 4.992.998 10.199-2.777 14.309-4.362 8.124-3.169 16.404-6.045 24.684-8.764 5.089-1.584 2.897-9.526-2.193-7.922zm-4.13 87.402c-10.786-1.643-22.158-1.663-32.513-5.301 1.605-6.221 1.331-14.124-3.915-18.115-6.146-4.694-17.852-2.073-24.566-.156a2.35 2.35 0 00-1.646 2.24 2.346 2.346 0 001.646 2.24c4.463.939 9.024.234 13.546.547 8.632.626 8.475 7.825 5.657 14.554a4.166 4.166 0 001.957 4.715c12.097 5.242 25.799 6.123 38.738 7.335 4.561.45 5.676-7.355 1.096-8.059z" fill="#57DFED"/></g><defs><clipPath id="clip0"><path fill="#fff" transform="translate(13 25)" d="M0 0h324.681v350H0z"/></clipPath></defs></svg>