<svg width="1920" height="600" fill="none" xmlns="http://www.w3.org/2000/svg"><path d="M0 0h1920v600s-598.5-60-960-60S0 600 0 600V0z" fill="#E7F2F0"/><path fill-rule="evenodd" clip-rule="evenodd" d="M56.053 126.555c38.094 4.623 79.974-6.861 112.322 13.744 32.121 20.461 33.355 67.331 59.048 95.417 35.308 38.598 106.586 47.867 118.565 98.745 11.267 47.853-26.768 98.472-64.769 129.744-35.447 29.17-90.882 10.771-131.657 31.899-38.02 19.702-51.397 76.926-93.509 84.776-41.607 7.756-78.342-26.637-116.114-45.698-39.855-20.112-82.062-36.163-111.871-69.353-33.576-37.384-79.406-82.38-68.401-131.368 11.696-52.061 88.69-58.494 120.662-101.254 26.564-35.528 8.489-99.199 46.44-122.232 37.731-22.9 85.447 10.259 129.284 15.58zm1814.917 3.361c37.06 4.498 77.81-6.675 109.28 13.37 31.25 19.906 32.45 65.504 57.44 92.828 34.35 37.55 103.7 46.568 115.35 96.066 10.96 46.553-26.04 95.799-63.01 126.222-34.49 28.378-88.42 10.478-128.09 31.034-36.99 19.166-50 74.837-90.97 82.474-40.48 7.546-76.22-25.913-112.97-44.458-38.77-19.566-79.83-35.181-108.83-67.47-32.67-36.369-77.26-80.144-66.55-127.802 11.38-50.649 86.29-56.907 117.39-98.507 25.85-34.564 8.26-96.506 45.18-118.914 36.71-22.279 83.13 9.981 125.78 15.157z" fill="#D6EEEC"/><path d="M1654.67 417.773c3.33-13.395 16.31-23.385 31.73-23.385 2.74.006 5.48.335 8.15.979a48.199 48.199 0 0118.09-18.909 48.205 48.205 0 0125.3-6.678c4.83.004 9.63.691 14.27 2.039a59.974 59.974 0 0121.93-19.643 60.022 60.022 0 0128.63-6.861c25.52 0 47.28 15.005 55.51 36.005a43.024 43.024 0 0119.7-4.73c22.42 0 40.51 16.799 40.51 37.533 0 1.219-.06 2.437-.19 3.65h-263.63zM295.447 261.86c-2.834-11.417-13.884-19.959-27.075-19.959a30.581 30.581 0 00-7.034.835 41.198 41.198 0 00-37.044-21.855 44.091 44.091 0 00-12.233 1.713 51.335 51.335 0 00-43.181-22.59c-21.814 0-40.367 12.803-47.401 30.745a36.695 36.695 0 00-16.819-4.078c-19.124 0-34.66 14.271-34.66 32.049a26.08 26.08 0 00.164 3.099l225.283.041z" fill="#fff"/></svg>