<svg width="24" height="24" viewBox="0 0 24 24" fill="none" xmlns="http://www.w3.org/2000/svg">
<path d="M12 7.19249C9.33983 7.19249 7.19296 9.33937 7.19296 11.9995C7.19296 14.6597 9.33983 16.8066 12 16.8066C14.6601 16.8066 16.807 14.6597 16.807 11.9995C16.807 9.33937 14.6601 7.19249 12 7.19249ZM12 15.1237C10.2797 15.1237 8.87577 13.7198 8.87577 11.9995C8.87577 10.2792 10.2797 8.87531 12 8.87531C13.7203 8.87531 15.1242 10.2792 15.1242 11.9995C15.1242 13.7198 13.7203 15.1237 12 15.1237ZM17.0039 5.87531C16.3828 5.87531 15.8812 6.37687 15.8812 6.99796C15.8812 7.61906 16.3828 8.12062 17.0039 8.12062C17.625 8.12062 18.1266 7.6214 18.1266 6.99796C18.1267 6.85048 18.0978 6.70441 18.0415 6.56812C17.9851 6.43183 17.9024 6.308 17.7981 6.20371C17.6939 6.09943 17.57 6.01674 17.4337 5.96039C17.2974 5.90403 17.1514 5.87512 17.0039 5.87531V5.87531ZM21.3703 11.9995C21.3703 10.7058 21.382 9.42374 21.3094 8.13234C21.2367 6.63234 20.8945 5.30109 19.7976 4.20421C18.6984 3.10499 17.3695 2.76515 15.8695 2.69249C14.5758 2.61984 13.2937 2.63156 12.0023 2.63156C10.7086 2.63156 9.42655 2.61984 8.13515 2.69249C6.63515 2.76515 5.3039 3.10734 4.20702 4.20421C3.1078 5.30343 2.76796 6.63234 2.6953 8.13234C2.62265 9.42609 2.63436 10.7081 2.63436 11.9995C2.63436 13.2909 2.62265 14.5753 2.6953 15.8667C2.76796 17.3667 3.11015 18.698 4.20702 19.7948C5.30624 20.8941 6.63515 21.2339 8.13515 21.3066C9.4289 21.3792 10.7109 21.3675 12.0023 21.3675C13.2961 21.3675 14.5781 21.3792 15.8695 21.3066C17.3695 21.2339 18.7008 20.8917 19.7976 19.7948C20.8969 18.6956 21.2367 17.3667 21.3094 15.8667C21.3844 14.5753 21.3703 13.2933 21.3703 11.9995V11.9995ZM19.3078 17.5261C19.1367 17.9526 18.9305 18.2714 18.6 18.5995C18.2695 18.93 17.9531 19.1362 17.5266 19.3073C16.2937 19.7972 13.3664 19.687 12 19.687C10.6336 19.687 7.7039 19.7972 6.47108 19.3097C6.04452 19.1386 5.72577 18.9323 5.39765 18.6019C5.06718 18.2714 4.86093 17.955 4.68983 17.5284C4.20233 16.2933 4.31249 13.3659 4.31249 11.9995C4.31249 10.6331 4.20233 7.70343 4.68983 6.47062C4.86093 6.04406 5.06718 5.72531 5.39765 5.39718C5.72811 5.06906 6.04452 4.86046 6.47108 4.68937C7.7039 4.20187 10.6336 4.31203 12 4.31203C13.3664 4.31203 16.2961 4.20187 17.5289 4.68937C17.9555 4.86046 18.2742 5.06671 18.6023 5.39718C18.9328 5.72765 19.1391 6.04406 19.3101 6.47062C19.7976 7.70343 19.6875 10.6331 19.6875 11.9995C19.6875 13.3659 19.7976 16.2933 19.3078 17.5261Z" fill="white"/>
</svg>
