<svg width="350" height="400" viewBox="0 0 350 400" fill="none" xmlns="http://www.w3.org/2000/svg">
<g clip-path="url(#clip0)">
<path d="M330.486 235.318C330.645 235.19 330.773 235.027 330.858 234.842C330.944 234.657 330.986 234.455 330.98 234.251C331.474 196.988 323.85 162.194 305.422 129.591C287.441 97.406 261.119 70.659 229.223 52.1626C199.735 35.3972 164.36 25.6026 130.606 32.5141C115.062 35.7724 99.9127 42.9406 89.5039 55.0457C76.8632 69.7573 68.7851 91.4002 64.4003 110.061C59.501 131.081 60.3125 153.027 66.7507 173.628C72.834 193.928 82.5515 220.428 64.4398 237.411C52.1942 248.864 37.3414 254.986 28.1572 269.836C23.9193 276.861 21.2474 284.718 20.3237 292.869C19.3999 301.021 20.2462 309.276 22.8046 317.071C34.4775 353.84 73.1698 373.647 108.998 379.196C129.915 382.434 151.206 382.158 172.32 381.783C194.046 381.408 215.772 380.42 237.064 375.661C256.815 371.198 276.941 363.023 291.853 348.825C304.079 337.174 311.249 321.85 316.779 306.151C324.68 283.856 331.118 261.009 330.605 237.154C330.546 236.542 330.506 235.93 330.486 235.318Z" fill="#D6EEEC"/>
<path d="M173.663 199.872L153.201 201.096L129.105 381.605H266.908V190.511L248.164 183.738L245.478 184.489L173.663 199.872Z" fill="#5F1C4F"/>
<path d="M269.693 138.26C269.693 138.26 254.919 149.575 249.942 162.786C244.964 175.997 226.556 184.508 211.842 183.738C197.127 182.968 187.054 185.97 173.663 193.059C160.272 200.148 153.063 180.954 137.341 181.625C129.035 181.754 120.787 183.03 112.83 185.417C112.83 185.417 139.889 152.932 133.885 133.343C127.88 113.754 133.885 104.69 133.885 104.69C133.885 104.69 187.647 68.4738 204.613 82.9682C221.579 97.4626 255.353 140.906 269.693 138.26Z" fill="#36302F"/>
<path d="M170.365 199.872C170.365 199.872 143.503 191.183 133.885 213.695C124.661 235.416 119.032 274.18 119.032 274.18L156.282 277.044L170.365 199.872Z" fill="#5F1C4F"/>
<path d="M211.802 145.823C216.167 152.518 216.859 182.119 245.379 184.488C245.379 184.488 209.985 245.132 200.465 245.705C190.945 246.277 173.663 199.872 173.663 199.872C173.663 199.872 194.184 200.424 182.788 168.73C174.295 145.172 211.802 145.823 211.802 145.823Z" fill="#FEB8B0"/>
<path d="M209.156 162.332L183.242 170.053C184.465 173.502 185.358 177.06 185.909 180.677C200.189 177.952 209.156 162.332 209.156 162.332Z" fill="#3A2D2E"/>
<path d="M223.949 114.09C228.551 144.935 207.734 173.549 181.761 177.419C155.788 181.29 134.359 158.975 129.855 128.051C125.352 97.127 142.575 69.0465 168.567 65.1761C194.56 61.3056 219.328 83.1658 223.949 114.09Z" fill="#FFB1A5"/>
<path d="M248.164 183.738C248.164 183.738 264.459 168.276 278.462 175.148C293.927 182.731 293.907 193.236 293.927 222.877C293.927 263.852 281.859 347.284 275.065 354.926C268.271 362.569 155.472 346.435 156.322 343.078C157.171 339.721 162.247 323.588 162.247 323.588C162.247 323.588 242.93 323.588 245.833 315.096C248.737 306.605 242.002 187.609 248.164 183.738Z" fill="#FFB1A5"/>
<path d="M293.789 230.519L251.996 240.156L246.189 267.802L291.616 262.549C292.742 251.017 293.512 240.037 293.789 230.519Z" fill="#ED9996"/>
<path d="M297.739 224.062C297.739 200.365 293.927 182.731 278.462 175.148C264.459 168.276 248.164 183.738 248.164 183.738C244.411 186.088 245.458 231.131 246.189 267.881L297.739 254.058C298.628 242.98 297.739 232.593 297.739 224.062Z" fill="#5F1C4F"/>
<path d="M224.502 126.096C224.502 126.096 192.19 115.373 184.743 90.1365C177.297 64.8996 208.721 52.913 224.502 72.364C240.283 91.815 244.688 124.2 261.733 130.559C278.778 136.918 287.409 130.559 287.409 130.559C287.409 130.559 268.666 169.619 224.502 126.096Z" fill="#36302F"/>
<path d="M235.128 129.809C235.859 138.122 231.672 145.31 225.747 145.843C219.821 146.377 214.409 140.057 213.659 131.724C212.908 123.391 217.115 116.242 223.041 115.709C228.966 115.176 234.378 121.495 235.128 129.809Z" fill="#ED9996"/>
<path d="M159.679 323.153C155.334 322.739 151.305 323.904 146.94 322.363C143.108 321.001 140.323 317.841 137.282 315.294C134.734 313.161 132.304 311.127 129.974 308.777C128.789 307.593 127.367 306.072 125.49 306.388C117.373 307.79 125.016 325.029 126.774 328.11C129.48 332.889 134.576 335.061 139.375 337.273C144.471 339.642 157.151 343.967 157.546 343.592C159.645 341.932 161.357 339.837 162.564 337.45C163.771 335.063 164.445 332.442 164.538 329.769C164.578 326.194 163.373 323.509 159.679 323.153Z" fill="#FEB8B0"/>
<path d="M125.49 306.309C125.676 308.048 126.207 309.733 127.051 311.265C128.512 314.208 132.581 322.699 138.368 326.056C141.403 327.501 144.747 328.179 148.105 328.031C148.994 327.754 146.486 322.442 146.486 322.442L125.49 306.309Z" fill="#36302F"/>
<path d="M170.108 190.452L148.382 187.826C148.382 187.826 117.076 290.965 126.517 308.106C135.958 325.246 144.432 328.367 150.357 326.056C156.282 323.746 164.183 311.344 165.94 302.774C167.698 294.204 170.108 190.452 170.108 190.452Z" fill="#FFB1A5"/>
<path d="M178.344 211.522C184.269 225.227 194.145 246.159 200.564 245.744C206.252 245.389 221.125 223.667 232.166 206.25C202.322 218.019 185.711 214.662 178.344 211.522Z" fill="#FEFEFE"/>
<path d="M247.137 232.83C247.137 222.403 247.137 211.898 246.149 201.491C246.149 201.381 246.106 201.275 246.028 201.198C245.95 201.12 245.845 201.076 245.735 201.076C245.625 201.076 245.519 201.12 245.441 201.198C245.364 201.275 245.32 201.381 245.32 201.491C244.293 211.898 244.372 222.403 244.332 232.83C244.332 241.913 243.246 251.688 244.885 260.634C244.936 260.823 245.047 260.991 245.202 261.11C245.358 261.23 245.548 261.295 245.745 261.295C245.941 261.295 246.131 261.23 246.287 261.11C246.442 260.991 246.554 260.823 246.604 260.634C248.184 251.688 247.137 241.933 247.137 232.83Z" fill="#8A4876"/>
<path d="M243.523 261.818C237.848 256.986 232.84 251.421 228.63 245.27C228.557 245.147 228.438 245.058 228.299 245.023C228.16 244.988 228.013 245.009 227.89 245.083C227.767 245.156 227.678 245.275 227.642 245.414C227.607 245.553 227.629 245.7 227.702 245.823C230.793 252.968 235.737 259.158 242.021 263.754C243.187 264.544 244.629 262.687 243.523 261.818Z" fill="#8A4876"/>
<path d="M200.07 67.6642C190.265 78.9562 177.339 87.0976 162.919 91.0646C138.506 97.8971 128.888 119.106 130.882 134.824C130.882 134.824 79.0557 88.8924 147.493 58.225C198.747 35.2788 200.07 67.6642 200.07 67.6642Z" fill="#36302F"/>
<path d="M147.493 58.2249C105.443 77.0637 108.88 101.669 117.629 117.842C119.51 109.426 122.305 101.242 125.964 93.4342C128.768 86.9956 132.701 81.1105 137.578 76.0566C143.3 70.9567 149.81 66.8156 156.855 63.7936C164.109 59.9937 171.852 57.2096 179.865 55.5195C184.647 54.6704 189.541 54.6704 194.323 55.5195C188.042 49.5954 174.907 45.9422 147.493 58.2249Z" fill="#514A47"/>
<path d="M141.034 307.375C140.28 307.448 139.562 307.736 138.967 308.205C138.371 308.674 137.923 309.305 137.677 310.021C136.274 315.649 145.755 320.092 146.486 322.502C147.216 324.911 146.486 331.111 149.982 330.539C152.549 330.104 149.527 315.274 149.527 315.274L141.252 307.829" fill="#36302F"/>
<path d="M165.032 328.031C165.407 323.983 162.622 320.981 159.679 318.513C156.177 315.606 152.51 312.903 148.698 310.416C146.604 309.014 141.983 305.973 139.415 308.106C137.44 309.705 138.546 312.431 139.81 314.03C141.508 316.183 144.175 317.249 146.051 319.204C149.113 322.442 147.868 324.891 148.56 328.406C149.014 330.716 150.91 331.131 153.004 331.348C155.63 331.605 164.202 332.039 164.854 328.228C164.902 328.22 164.945 328.196 164.977 328.16C165.009 328.124 165.028 328.079 165.032 328.031Z" fill="#FEB8B0"/>
<path d="M164.834 325.543C163.908 322.711 162.102 320.248 159.679 318.513C156.177 315.606 152.51 312.903 148.698 310.416C146.604 309.014 141.982 305.973 139.415 308.106C138.867 308.556 138.514 309.2 138.427 309.903C139.102 309.405 139.879 309.062 140.701 308.898C141.524 308.734 142.373 308.754 143.187 308.955C146.268 309.844 158.929 318.473 164.834 325.543Z" fill="#FFD1CA"/>
<path d="M153.201 145.824C154.968 145.824 156.401 144.391 156.401 142.624C156.401 140.858 154.968 139.425 153.201 139.425C151.434 139.425 150.001 140.858 150.001 142.624C150.001 144.391 151.434 145.824 153.201 145.824Z" fill="#36302F"/>
<path d="M184.941 133.975C186.708 133.975 188.141 132.543 188.141 130.776C188.141 129.009 186.708 127.577 184.941 127.577C183.174 127.577 181.741 129.009 181.741 130.776C181.741 132.543 183.174 133.975 184.941 133.975Z" fill="#36302F"/>
<path d="M187.884 111.839C185.455 112.569 183.381 114.169 180.813 114.406C178.407 114.605 175.995 114.09 173.88 112.925C173.617 112.785 173.312 112.742 173.02 112.805C172.728 112.868 172.468 113.033 172.285 113.27C172.103 113.506 172.011 113.8 172.024 114.098C172.038 114.396 172.157 114.68 172.36 114.9C176.981 119.619 184.052 116.618 188.95 114.406C190.452 113.734 189.424 111.385 187.884 111.839Z" fill="#36302F"/>
<path d="M148.816 124.635C148.744 124.43 148.611 124.253 148.434 124.128C148.257 124.003 148.046 123.935 147.829 123.935C147.612 123.935 147.4 124.003 147.224 124.128C147.047 124.253 146.913 124.43 146.841 124.635C146.403 127.042 145.49 129.338 144.155 131.388C142.438 133.201 140.152 134.372 137.677 134.706C136.63 134.963 136.551 136.681 137.677 136.918C143.918 138.004 150.554 130.855 148.816 124.635Z" fill="#36302F"/>
<path d="M169.18 145.014C166.118 145.014 165.506 143.256 165.368 140.571C165.305 139.272 164.99 137.997 164.439 136.819C162.822 133.666 160.593 130.866 157.882 128.584C157.605 128.308 157.23 128.703 157.467 128.999C159.658 131.112 161.381 133.662 162.523 136.483C163.234 138.971 162.286 141.282 162.642 143.75C163.116 147.147 166.197 147.857 169.18 147.857C169.5 147.781 169.785 147.6 169.989 147.342C170.193 147.084 170.304 146.765 170.304 146.436C170.304 146.107 170.193 145.787 169.989 145.529C169.785 145.271 169.5 145.09 169.18 145.014Z" fill="#36302F"/>
<path d="M190.372 151.136C187.864 144.915 180.023 150.899 176.547 152.478C173.663 153.821 167.797 154.651 169.654 158.837C169.838 159.709 170.346 160.478 171.076 160.989C173.367 162.648 175.381 161.286 177.139 159.726C180.378 156.803 184.25 157.968 187.943 156.191C188.436 156.02 188.89 155.754 189.279 155.407C189.669 155.06 189.985 154.639 190.211 154.169C190.437 153.699 190.568 153.189 190.595 152.668C190.623 152.148 190.547 151.627 190.372 151.136Z" fill="white"/>
<path d="M193.197 127.518C192.96 126.985 192.051 127.36 192.249 127.933C192.725 129.419 192.959 130.973 192.94 132.534C192.94 133.264 192.782 136.918 191.439 136.937C191.272 136.92 191.104 136.962 190.965 137.056C190.843 137.134 190.742 137.243 190.672 137.37C190.603 137.498 190.566 137.641 190.566 137.786C190.566 137.932 190.603 138.075 190.672 138.203C190.742 138.33 190.843 138.438 190.965 138.517C192.94 139.445 194.204 136.049 194.421 134.686C194.705 132.229 194.28 129.742 193.197 127.518Z" fill="#EA9898"/>
<path d="M197.483 131.033C197.246 130.421 196.278 130.638 196.476 131.309C196.743 132.18 196.883 133.084 196.89 133.995C196.833 134.878 196.653 135.748 196.357 136.582C196.321 136.72 196.33 136.866 196.385 136.998C196.44 137.13 196.536 137.24 196.659 137.312C196.783 137.383 196.926 137.413 197.068 137.395C197.21 137.377 197.341 137.314 197.443 137.214C198.846 135.614 198.194 132.79 197.483 131.033Z" fill="#EA9898"/>
<path d="M154.505 151.491C152.797 151.51 151.108 151.138 149.567 150.405C148.161 149.574 146.922 148.489 145.913 147.206C145.696 146.929 145.261 147.206 145.439 147.561C146.305 149.199 147.614 150.56 149.218 151.489C150.821 152.418 152.653 152.877 154.505 152.814C154.661 152.787 154.802 152.706 154.904 152.585C155.006 152.464 155.061 152.311 155.061 152.152C155.061 151.994 155.006 151.841 154.904 151.72C154.802 151.599 154.661 151.518 154.505 151.491Z" fill="#EA9898"/>
<path d="M151.799 155.263C151.333 155.214 150.862 155.214 150.396 155.263C149.715 155.259 149.041 155.111 148.421 154.828C147.196 154.369 146.06 153.701 145.064 152.854C144.649 152.439 144.096 153.031 144.432 153.485C145.472 154.772 146.835 155.76 148.382 156.349C149.448 156.783 151.384 157.376 152.154 156.191C152.203 156.109 152.233 156.016 152.241 155.921C152.25 155.826 152.236 155.73 152.202 155.64C152.168 155.551 152.114 155.471 152.044 155.405C151.974 155.34 151.89 155.291 151.799 155.263Z" fill="#EA9898"/>
<path d="M184.388 168.079C184.171 167.842 183.815 167.782 183.558 167.585C183.235 167.29 182.974 166.934 182.788 166.538C181.983 165.097 181.46 163.515 181.247 161.878C181.247 161.266 180.22 161.444 180.201 162.016C180.201 164.623 180.675 168.553 183.479 169.639C183.679 169.699 183.893 169.69 184.087 169.613C184.281 169.537 184.444 169.397 184.549 169.217C184.654 169.037 184.695 168.826 184.666 168.62C184.637 168.413 184.539 168.223 184.388 168.079Z" fill="#EA9898"/>
<path d="M189.365 165.116C189.143 165.01 188.912 164.925 188.674 164.86C188.286 164.683 187.927 164.45 187.607 164.169C186.982 163.686 186.452 163.09 186.047 162.411C185.984 162.326 185.894 162.264 185.792 162.236C185.69 162.208 185.581 162.215 185.483 162.256C185.385 162.297 185.304 162.369 185.252 162.462C185.2 162.555 185.181 162.662 185.198 162.767C185.514 163.833 188.042 167.743 189.503 166.163C189.571 166.089 189.622 166 189.652 165.905C189.682 165.809 189.69 165.707 189.677 165.608C189.664 165.508 189.629 165.412 189.575 165.328C189.522 165.243 189.45 165.171 189.365 165.116Z" fill="#EA9898"/>
<path d="M174.374 177.952V175.484C174.374 175.484 177.574 167.723 174.374 164.366C173.259 163.365 171.922 162.642 170.473 162.258C169.024 161.874 167.504 161.838 166.039 162.154C165.804 161.439 165.412 160.785 164.891 160.241C164.369 159.698 163.733 159.278 163.028 159.012C162.323 158.747 161.567 158.643 160.817 158.709C160.066 158.774 159.34 159.007 158.692 159.39C158.692 159.39 153.774 154.058 149.113 158.62C149.113 158.62 144.55 154.888 141.666 158.62L150.357 173.391L174.374 177.952Z" fill="#EA9898"/>
<path d="M174.374 177.952C174.045 177.143 173.592 176.39 173.031 175.721C174.828 172.324 176.053 167.091 172.794 164.406C171.748 163.63 170.526 163.125 169.237 162.935C167.948 162.746 166.633 162.878 165.407 163.319C164.894 160.693 162.287 159.923 159.482 160.318C158.814 160.404 158.153 160.542 157.507 160.733C155.769 157.83 151.957 158.225 148.204 159.923C143.523 155.598 132.936 160.772 131.909 166.558C131.001 171.554 132.206 178.406 135.623 182.356C138.743 185.91 143.306 187.964 147.631 189.998C147.628 190.174 147.682 190.346 147.785 190.489C147.889 190.631 148.036 190.736 148.204 190.788C153.339 192.506 160.055 192.447 165.387 192.605C166.967 192.792 168.566 192.498 169.975 191.761C171.385 191.025 172.539 189.88 173.288 188.477C174.181 186.891 174.739 185.138 174.926 183.328C175.113 181.517 174.925 179.687 174.374 177.952Z" fill="#FEB8B0"/>
<path d="M147.434 160.061C144.938 160.65 142.676 161.97 140.936 163.853C139.986 164.722 139.247 165.796 138.775 166.994C138.302 168.191 138.109 169.481 138.21 170.764C138.21 171.752 139.83 171.771 139.751 170.764C139.666 169.558 139.882 168.35 140.378 167.247C140.874 166.145 141.636 165.182 142.595 164.445C144.155 163.102 146.426 162.47 147.789 160.91C147.861 160.841 147.91 160.752 147.93 160.655C147.95 160.557 147.941 160.456 147.902 160.364C147.864 160.272 147.798 160.194 147.715 160.14C147.631 160.086 147.533 160.059 147.434 160.061Z" fill="#36302F"/>
<path d="M157.329 160.535C151.818 161.128 148.876 167.091 148.757 172.048C148.76 172.26 148.846 172.462 148.998 172.61C149.15 172.759 149.355 172.84 149.567 172.838C149.779 172.835 149.981 172.748 150.13 172.596C150.278 172.445 150.36 172.24 150.357 172.028C150.354 169.726 151.042 167.477 152.332 165.571C153.781 163.783 155.636 162.368 157.744 161.444C158.001 161.246 157.843 160.476 157.329 160.535Z" fill="#36302F"/>
<path d="M164.38 163.557C162.313 164.569 160.69 166.305 159.818 168.434C158.923 170.272 158.58 172.33 158.83 174.358C158.87 174.481 158.948 174.589 159.052 174.665C159.157 174.741 159.283 174.782 159.413 174.782C159.542 174.782 159.668 174.741 159.773 174.665C159.878 174.589 159.956 174.481 159.995 174.358C160.45 172.739 160.331 171.021 160.924 169.402C161.647 167.34 163.083 165.603 164.973 164.504C165.664 164.129 165.052 163.201 164.38 163.557Z" fill="#36302F"/>
<path d="M173.268 174.121C173.289 174.043 173.294 173.962 173.283 173.883C173.273 173.803 173.247 173.726 173.206 173.656C173.166 173.586 173.112 173.525 173.048 173.476C172.984 173.427 172.911 173.392 172.834 173.371C172.756 173.35 172.675 173.345 172.595 173.355C172.515 173.366 172.438 173.392 172.368 173.433C172.299 173.473 172.238 173.527 172.189 173.591C172.14 173.655 172.104 173.728 172.083 173.805C171.877 174.352 171.626 174.88 171.332 175.385C170.95 174.49 170.328 173.718 169.535 173.154C169.022 172.798 168.429 173.608 168.864 174.042C169.989 175.48 170.501 177.304 170.286 179.117C170.205 179.268 170.17 179.439 170.184 179.609C170.198 179.78 170.261 179.942 170.365 180.078C170.469 180.213 170.611 180.316 170.772 180.373C170.933 180.43 171.107 180.44 171.273 180.401H171.431C171.616 180.347 171.778 180.235 171.895 180.082C172.013 179.93 172.078 179.744 172.083 179.552C172.171 178.501 172.064 177.443 171.767 176.432C172.207 176.223 172.58 175.897 172.845 175.489C173.11 175.081 173.256 174.608 173.268 174.121Z" fill="#36302F"/>
<path d="M110.519 132.395C110.519 132.395 85.8499 136.187 89.5631 148.193C93.2763 160.199 98.8659 139.149 110.519 132.395Z" fill="#FEFEFE"/>
<path d="M97.8585 114.228C97.8585 114.228 68.469 102.143 65.0916 119.125C61.7141 136.108 80.8924 114.504 97.8585 114.228Z" fill="#FEFEFE"/>
<path d="M105.799 87.3719C105.799 87.3719 95.7255 66.9731 85.1784 76.9256C74.6314 86.8782 96.2588 80.4406 105.799 87.3719Z" fill="#FEFEFE"/>
<path d="M247.532 90.946C247.532 90.946 268.251 77.123 273.643 88.3789C279.035 99.6347 260.666 88.0234 247.532 90.946Z" fill="#FEFEFE"/>
<path d="M229.677 58.8766C229.677 58.8766 237.578 28.1105 253.26 35.6144C268.942 43.1184 240.066 45.4683 229.677 58.8766Z" fill="#FEFEFE"/>
<path d="M191.834 41.8743C191.834 41.8743 179.095 23.075 192.96 18.7306C206.825 14.3862 190.57 30.1642 191.834 41.8743Z" fill="#FEFEFE"/>
</g>
<defs>
<clipPath id="clip0">
<rect width="311" height="364" fill="white" transform="translate(20 18)"/>
</clipPath>
</defs>
</svg>
