<svg width="350" height="400" viewBox="0 0 350 400" fill="none" xmlns="http://www.w3.org/2000/svg">
<g clip-path="url(#clip0)">
<path d="M0.318483 234.06C-10.5505 -30.9941 259.967 16.1006 323.369 74.0622C386.772 132.024 311.896 183.948 323.369 273.305C334.842 362.663 263.018 373.081 183.312 374.892C103.606 376.704 101.278 365.687 90.4091 329.461C79.5401 293.235 9.37598 324.625 0.318483 234.06Z" fill="#D6EEEC" stroke="#D6EEEC"/>
<path d="M99.0722 98.6356C99.0722 125.087 83.5194 149.326 60.6396 149.326C37.7597 149.326 21.3083 125.122 21.3083 98.6356C21.3083 62.6576 37.2931 64.594 60.1903 64.594C83.0874 64.594 99.0722 59.1307 99.0722 98.6356Z" fill="#ED506B"/>
<path d="M87.3385 88.1415C86.0767 89.093 84.6143 89.7434 83.0629 90.0431C81.5114 90.3427 79.9121 90.2836 78.387 89.8704C76.1232 89.0751 74.7062 87.0177 72.7534 85.7038C72.6811 85.6626 72.5972 85.6463 72.5146 85.6575C72.4321 85.6686 72.3555 85.7065 72.2967 85.7655C72.2378 85.8244 72.1999 85.901 72.1887 85.9835C72.1776 86.0661 72.1938 86.15 72.235 86.2225C76.1405 92.0315 82.1715 93.3454 88.1334 89.5246C88.9802 88.9541 88.1334 87.5883 87.3385 88.1415Z" fill="#FEFEFE"/>
<path d="M47.4198 84.8221C44.1192 89.7148 38.9522 93.0861 32.9039 91.7376C32.703 91.7077 32.4981 91.7526 32.3281 91.8638C32.158 91.9749 32.0347 92.1447 31.9814 92.3408C31.9282 92.5369 31.9487 92.7458 32.0391 92.9277C32.1295 93.1097 32.2835 93.2522 32.4719 93.3281C39.0213 95.057 45.4844 91.2016 48.2839 85.2889C48.3173 85.1783 48.3115 85.0595 48.2675 84.9527C48.2234 84.8459 48.1439 84.7576 48.0423 84.7027C47.9407 84.6478 47.8232 84.6297 47.7098 84.6514C47.5964 84.6732 47.4939 84.7335 47.4198 84.8221Z" fill="#FEFEFE"/>
<path d="M46.1064 103.338C46.1099 104.14 45.8752 104.924 45.4322 105.592C44.9892 106.26 44.3578 106.781 43.6182 107.09C42.8786 107.398 42.0641 107.48 41.2781 107.324C40.4921 107.169 39.77 106.783 39.2034 106.216C38.6369 105.649 38.2514 104.927 38.0959 104.141C37.9404 103.354 38.022 102.539 38.3302 101.799C38.6384 101.059 39.1593 100.428 39.827 99.9846C40.4946 99.5414 41.2788 99.3066 42.08 99.31C43.1479 99.31 44.172 99.7344 44.9271 100.49C45.6822 101.245 46.1064 102.27 46.1064 103.338Z" fill="#FEFEFE"/>
<path d="M82.068 103.338C82.068 104.135 81.8319 104.914 81.3894 105.576C80.947 106.239 80.3182 106.755 79.5824 107.06C78.8467 107.365 78.0371 107.445 77.2561 107.289C76.475 107.134 75.7576 106.75 75.1944 106.187C74.6313 105.623 74.2479 104.906 74.0925 104.124C73.9371 103.343 74.0169 102.533 74.3216 101.797C74.6264 101.061 75.1425 100.431 75.8046 99.9888C76.4667 99.5462 77.2452 99.3099 78.0416 99.3099C79.1094 99.3099 80.1336 99.7343 80.8887 100.49C81.6438 101.245 82.068 102.27 82.068 103.338Z" fill="#FEFEFE"/>
<path d="M75.2938 126.211C70.6971 116.823 49.1133 115.838 47.1951 127.836C47.181 127.976 47.2172 128.116 47.2971 128.231C47.377 128.346 47.4955 128.429 47.631 128.464C47.7666 128.5 47.9104 128.486 48.0364 128.424C48.1624 128.363 48.2624 128.259 48.3184 128.13C51.9128 119.14 69.2282 118.518 73.5139 127.249C74.1014 128.442 75.8813 127.404 75.2938 126.211Z" fill="#FEFEFE"/>
<path d="M133.617 229.737C129.78 231.587 113.433 242.479 107.695 264.816C103.928 279.528 84.8328 375.931 84.8328 375.931H113.865C113.865 375.931 140.633 302.471 141.704 290.057C142.775 277.644 156.151 226.642 133.617 229.737Z" fill="#FFB1A5"/>
<path d="M131.716 324.808C136.14 311.513 139.993 299.151 141.307 292.754L100.921 308.47L131.716 324.808Z" fill="#302D24"/>
<path d="M133.616 229.737C129.78 231.587 112.758 243.81 104.101 266.043C102.269 270.728 96.4453 289.919 91.2783 306.084L134.48 316.457C138.403 304.355 141.393 293.982 141.79 289.954C142.862 277.488 156.151 226.642 133.616 229.737Z" fill="#5F1C4F"/>
<path d="M242.088 229.737C245.907 231.587 262.272 242.479 268.01 264.816C271.777 279.528 290.872 375.931 290.872 375.931H261.84C261.84 375.931 235.021 302.471 233.949 290.057C232.878 277.644 219.468 226.642 242.088 229.737Z" fill="#FFB1A5"/>
<path d="M243.989 324.808C239.565 311.513 235.712 299.151 234.398 292.754L274.767 308.47L243.989 324.808Z" fill="#302D24"/>
<path d="M242.088 229.737C245.907 231.587 262.946 243.81 271.604 266.043C273.436 270.728 279.259 289.919 284.426 306.084L241.224 316.457C237.302 304.355 234.312 293.982 233.914 289.954C232.843 277.488 219.468 226.642 242.088 229.737Z" fill="#5F1C4F"/>
<path d="M255.585 286.6C251.904 268.101 253.373 245.763 249.692 237.344C246.011 228.924 217.74 216.632 215.32 215.249L188.362 204.426V204.028L187.861 204.236L187.377 204.028V204.426L160.315 215.249C157.982 216.632 129.642 228.89 125.944 237.309C122.246 245.729 123.732 268.066 120.051 286.6C116.37 305.133 137.902 375.931 137.902 375.931H239.479C239.479 375.931 259.214 305.047 255.585 286.6Z" fill="#5F1C4F"/>
<path d="M150.033 83.9921C154.025 62.8652 190.782 50.7111 217.895 73.4632C224.99 79.1898 230.235 86.885 232.975 95.5831C235.714 104.281 235.824 113.595 233.293 122.356C233.293 122.356 281.472 135.34 271.31 160.149C261.149 184.959 244.266 176.487 244.266 176.487C244.266 176.487 251.178 188.486 232.428 196.784C215.148 204.443 205.747 191.598 205.747 191.598C205.747 191.598 197.85 209.44 185.165 209.18C162.458 208.713 156.911 188.434 156.911 188.434C156.911 188.434 146.888 210.373 126.514 195.712C106.14 181.051 122.004 169.779 122.004 169.779C122.004 169.779 99.5388 185.011 92.1253 165.837C84.7118 146.664 126.894 138.728 126.894 138.728C120.656 133.11 115.627 83.4043 150.033 83.9921Z" fill="#302D24"/>
<path d="M146.543 147.373C147.839 154.773 144.814 161.481 139.907 162.345C134.999 163.209 129.901 157.884 128.622 150.468C127.343 143.051 130.35 136.36 135.258 135.513C140.166 134.666 145.264 139.956 146.543 147.373Z" fill="#ED9996"/>
<path d="M233.141 148.215C234.804 140.877 232.182 134.028 227.286 132.918C222.39 131.808 217.074 136.856 215.412 144.194C213.749 151.532 216.371 158.381 221.267 159.491C226.162 160.601 231.479 155.553 233.141 148.215Z" fill="#ED9996"/>
<path d="M165.327 176.418C165.863 178.147 167.625 210.235 154.63 218.015C154.63 218.015 166.502 250.587 185.269 252.091C205.453 253.716 214.111 214.765 214.111 214.765C203.12 210.979 199.249 202.057 200.096 176.418H165.327Z" fill="#FFB1A5"/>
<path d="M200.131 189.385C199.941 185.495 199.941 181.19 200.131 176.418H177.856L165.759 179.461C165.794 180.533 173.086 197.147 200.131 189.385Z" fill="#302D24"/>
<path d="M224.255 133.11C224.255 162.19 207.181 188.832 182.02 188.832C156.859 188.832 138.766 162.12 138.766 133.11C138.766 104.099 156.531 80.4309 181.709 80.4309C206.887 80.4309 224.255 104.013 224.255 133.11Z" fill="#FFB1A5"/>
<path d="M152.073 93.0686C152.073 93.0686 168.299 116.063 181.675 114.455C195.05 112.847 186.634 99.6556 186.634 99.6556C186.634 99.6556 235.435 138.625 227.227 114.541C219.019 90.458 210.568 77.4049 181.934 77.647C153.299 77.889 152.073 93.0686 152.073 93.0686Z" fill="#302D24"/>
<path d="M157.879 92.8614C160.644 93.4838 152.384 130.534 136.14 133.11C136.14 133.11 122.695 84.8567 157.879 92.8614Z" fill="#302D24"/>
<path d="M235.124 109.337C235.132 102.441 233.581 95.6331 230.589 89.421C227.596 83.2089 223.239 77.7537 217.843 73.463C194.946 54.2552 165.171 59.9259 154.06 74.8807C157.402 72.9638 161.023 71.5813 164.791 70.7833C172.538 69.3291 180.514 69.6482 188.12 71.7169C198.152 74.3435 207.52 79.0497 215.618 85.5306C223.715 92.0114 230.361 100.122 235.124 109.337Z" fill="#514A47"/>
<path d="M240.913 124.897C249.692 131.606 257.157 140.129 261.097 150.381C263.862 157.565 264.568 165.379 263.137 172.943C266.752 169.339 269.541 164.991 271.31 160.201C278.914 141.702 254.03 129.773 240.913 124.897Z" fill="#514A47"/>
<path d="M165.327 144.243C165.355 144.772 165.223 145.296 164.95 145.749C164.677 146.202 164.274 146.562 163.794 146.784C163.314 147.005 162.779 147.078 162.257 146.992C161.736 146.906 161.252 146.666 160.868 146.302C160.484 145.938 160.218 145.467 160.105 144.951C159.991 144.434 160.035 143.895 160.23 143.404C160.425 142.913 160.764 142.491 161.201 142.194C161.638 141.897 162.154 141.737 162.683 141.737C163.021 141.727 163.358 141.785 163.674 141.906C163.99 142.027 164.279 142.209 164.524 142.442C164.77 142.675 164.967 142.954 165.105 143.263C165.243 143.572 165.318 143.905 165.327 144.243Z" fill="#302D24"/>
<path d="M205.349 143.69C205.374 144.215 205.24 144.734 204.967 145.182C204.693 145.63 204.292 145.985 203.815 146.203C203.337 146.42 202.806 146.49 202.289 146.403C201.771 146.315 201.292 146.075 200.913 145.713C200.533 145.351 200.271 144.883 200.159 144.37C200.047 143.857 200.092 143.323 200.287 142.836C200.481 142.348 200.818 141.931 201.252 141.636C201.686 141.342 202.198 141.184 202.723 141.184C203.403 141.17 204.061 141.425 204.553 141.895C205.045 142.365 205.331 143.01 205.349 143.69Z" fill="#302D24"/>
<path d="M185.511 134.942C185.469 134.824 185.392 134.722 185.29 134.65C185.188 134.578 185.066 134.539 184.941 134.539C184.816 134.539 184.694 134.578 184.591 134.65C184.489 134.722 184.412 134.824 184.37 134.942C183.299 142.273 189.174 151.522 182.953 157.573C182.193 158.317 183.334 159.458 184.111 158.732C190.764 152.577 186.721 142.567 185.511 134.942Z" fill="#302D24"/>
<path d="M210.827 121.198C205.643 117.533 199.526 118.311 194.341 121.388C193.944 121.63 194.203 122.339 194.67 122.166C200.234 120.264 204.641 119.728 209.963 122.667C210.158 122.782 210.39 122.815 210.609 122.758C210.828 122.701 211.015 122.56 211.13 122.365C211.244 122.17 211.277 121.937 211.22 121.719C211.163 121.5 211.022 121.312 210.827 121.198Z" fill="#302D24"/>
<path d="M168.576 123.825C163.962 121.664 155.218 120.281 151.502 124.915C151.401 125.029 151.338 125.172 151.323 125.324C151.307 125.476 151.34 125.629 151.417 125.761C151.494 125.893 151.61 125.998 151.749 126.06C151.889 126.122 152.044 126.139 152.193 126.107C154.907 125.468 157.101 124.085 159.987 123.912C162.759 123.787 165.535 124.019 168.247 124.603C168.679 124.672 169.042 124.085 168.576 123.825Z" fill="#302D24"/>
<path d="M191.127 167.791C186.565 167.67 181.502 166.961 177.302 169.139C176.715 169.451 177.147 170.298 177.752 170.177C182.228 169.295 184.716 169.502 189.226 169.467C189.488 169.465 191.655 169.654 191.838 169.467C192.022 169.281 192.123 169.029 192.121 168.768C192.119 168.506 192.013 168.257 191.826 168.073C191.64 167.89 191.388 167.789 191.127 167.791Z" fill="#302D24"/>
<path d="M158.985 213.987C158.985 213.987 156.479 259.94 168.213 275.103C175.488 284.508 167.608 376 167.608 376H123.628C123.628 376 119.239 305.617 118.962 290.057C118.686 274.498 123.939 238.001 126.099 233.748C127.257 231.397 153.438 212.586 158.985 213.987Z" fill="#FEFEFE"/>
<path d="M211.121 213.502C211.121 213.502 214.958 259.871 203.207 275.033C195.931 284.438 203.811 375.931 203.811 375.931H247.774C247.774 375.931 252.163 305.634 252.44 289.988C252.716 274.342 246.288 235.649 244.128 231.396C242.97 229.114 216.634 212.258 211.121 213.502Z" fill="#FEFEFE"/>
<path d="M205.453 271.402C205.453 271.402 225.188 257.571 234.83 262.672C244.473 267.772 225.326 217.444 222.233 213.71C219.139 209.975 210.395 213.122 210.395 213.122C210.499 235.338 210.482 256.482 205.453 271.402Z" fill="#E4E8EA"/>
<path d="M166.571 273.045C166.571 273.045 146.854 259.214 137.194 264.401C127.534 269.587 141.462 221.542 144.763 218.084C149.135 213.433 158.985 213.745 158.985 213.745C158.881 235.961 161.56 258.142 166.571 273.045Z" fill="#E4E8EA"/>
</g>
<defs>
<clipPath id="clip0">
<rect width="350" height="400" fill="white"/>
</clipPath>
</defs>
</svg>
