<svg width="1920" height="1060" viewBox="0 0 1920 1060" fill="none" xmlns="http://www.w3.org/2000/svg">
<mask id="mask0" mask-type="alpha" maskUnits="userSpaceOnUse" x="0" y="0" width="1920" height="1060">
<path d="M0 0H1920V1060C1920 1060 1415.5 1012.5 960 1012.5C504.5 1012.5 0 1060 0 1060V0Z" fill="#E7F2F0"/>
</mask>
<g mask="url(#mask0)">
<path d="M0 0H1920V1060C1920 1060 1415.5 1012.5 960 1012.5C504.5 1012.5 0 1060 0 1060V0Z" fill="#E7F2F0"/>
<path fill-rule="evenodd" clip-rule="evenodd" d="M1785.43 398.352C1826.5 401.931 1866 421.334 1896.55 449.022C1924.77 474.599 1922.49 522.352 1950.59 548.059C1985.86 580.326 2048.53 574.432 2076.22 613.397C2103.22 651.385 2119.17 710.859 2094.3 750.268C2066.2 794.788 1995.34 783.438 1950.99 811.802C1922.86 829.791 1906.49 859.902 1884.1 884.681C1850.6 921.777 1835.27 991.286 1785.43 995.099C1737.52 998.764 1719.91 925.88 1679.2 900.356C1643.94 878.251 1594.27 884.919 1564.06 856.307C1533.31 827.199 1509.33 784.397 1512.11 742.152C1514.96 698.957 1579.99 675.878 1578.78 632.606C1576.98 567.736 1478.95 515.259 1504.13 455.447C1525.43 404.848 1610.77 439.732 1664.57 428.811C1705.8 420.443 1743.51 394.701 1785.43 398.352Z" fill="#D6EEEC"/>
<path fill-rule="evenodd" clip-rule="evenodd" d="M178.425 149.352C219.496 152.931 259.002 172.334 289.548 200.022C317.765 225.599 315.487 273.352 343.587 299.059C378.857 331.326 441.532 325.432 469.225 364.397C496.223 402.385 512.174 461.859 487.297 501.268C459.195 545.788 388.341 534.438 343.987 562.802C315.856 580.791 299.487 610.902 277.105 635.681C243.598 672.777 228.269 742.286 178.425 746.099C130.516 749.764 112.906 676.88 72.1966 651.356C36.9383 629.251 -12.7266 635.919 -42.9449 607.307C-73.6871 578.199 -97.6697 535.397 -94.8884 493.152C-92.0444 449.957 -27.0123 426.878 -28.2166 383.606C-30.022 318.736 -128.045 266.259 -102.868 206.447C-81.5681 155.848 3.76749 190.732 57.5697 179.811C98.8013 171.443 136.512 145.701 178.425 149.352Z" fill="#D6EEEC"/>
<path d="M259 504C255.063 488.289 239.71 476.555 221.383 476.555C218.101 476.562 214.831 476.947 211.639 477.703C206.682 468.497 199.251 460.823 190.165 455.526C181.079 450.229 170.69 447.514 160.143 447.681C154.394 447.675 148.673 448.467 143.147 450.033C136.552 440.384 127.641 432.499 117.212 427.085C106.783 421.67 95.1593 418.893 83.3801 419.003C53.0715 419.003 27.295 436.591 17.5226 461.236C10.2961 457.553 2.2837 455.633 -5.84615 455.634C-32.4157 455.634 -54 475.238 -54 499.659C-54 501.087 -54 502.46 -53.7733 503.944L259 504Z" fill="white"/>
<path d="M1889 249C1885.78 236.061 1873.22 226.398 1858.23 226.398C1855.55 226.404 1852.87 226.721 1850.26 227.343C1846.21 219.762 1840.13 213.443 1832.7 209.08C1825.27 204.718 1816.77 202.482 1808.15 202.619C1803.44 202.615 1798.76 203.267 1794.25 204.557C1788.85 196.61 1781.56 190.117 1773.03 185.658C1764.5 181.199 1755 178.912 1745.36 179.003C1720.57 179.003 1699.49 193.486 1691.5 213.782C1685.59 210.75 1679.03 209.168 1672.38 209.17C1650.65 209.17 1633 225.314 1633 245.425C1633 246.601 1633 247.732 1633.19 248.954L1889 249Z" fill="white"/>
<path d="M1811.8 222.003C1816.01 220.445 1819.88 218.071 1823.18 215.015C1825.36 213.26 1826.95 210.876 1827.73 208.187C1828.07 206.834 1827.95 205.407 1827.39 204.128C1826.84 202.848 1825.87 201.787 1824.66 201.109C1823.39 200.679 1822.03 200.645 1820.74 201.011C1819.46 201.377 1818.31 202.126 1817.46 203.157C1815.81 205.255 1814.66 207.709 1814.12 210.327C1813.06 214.225 1812.21 218.175 1811.57 222.162L1811.8 222.003Z" fill="#FFD530"/>
<path d="M1833.81 258.806C1839.09 259.694 1844.62 260.559 1849.74 258.806C1852.61 257.828 1855.5 255.324 1854.93 252.365C1854.65 251.351 1854.06 250.45 1853.24 249.785C1852.43 249.12 1851.43 248.726 1850.38 248.655C1848.26 248.559 1846.16 249.064 1844.32 250.112C1840.27 252.129 1836.73 255.049 1833.99 258.647L1833.81 258.806Z" fill="#FFD530"/>
<path d="M1793.63 333.46C1793.63 338.809 1793.63 344.408 1796.07 349.142C1797.48 351.805 1800.39 354.286 1803.24 353.262C1804.2 352.819 1805 352.089 1805.53 351.172C1806.06 350.255 1806.29 349.196 1806.2 348.141C1806.01 346.043 1805.22 344.045 1803.92 342.383C1801.3 338.695 1797.87 335.658 1793.88 333.506L1793.63 333.46Z" fill="#FFD530"/>
<path d="M1697.31 221.457C1695.65 217.284 1693.18 213.485 1690.03 210.281C1688.19 208.173 1685.75 206.68 1683.04 206.002C1681.67 205.707 1680.24 205.875 1678.98 206.481C1677.71 207.086 1676.68 208.095 1676.05 209.348C1675.66 210.629 1675.66 212.001 1676.07 213.279C1676.48 214.557 1677.26 215.68 1678.33 216.495C1680.48 218.086 1682.96 219.167 1685.59 219.659C1689.46 220.637 1693.56 221.297 1697.52 221.935L1697.31 221.457Z" fill="#FFD530"/>
<path d="M1730.18 198.787C1731.1 194.393 1731.14 189.859 1730.29 185.45C1729.93 182.674 1728.71 180.08 1726.81 178.03C1725.85 177.028 1724.58 176.372 1723.2 176.162C1721.83 175.952 1720.43 176.201 1719.21 176.869C1718.17 177.71 1717.41 178.851 1717.03 180.136C1716.66 181.422 1716.69 182.792 1717.11 184.061C1718.02 186.576 1719.49 188.849 1721.42 190.707C1724.1 193.643 1727.15 196.466 1730.11 199.151L1730.18 198.787Z" fill="#FFD530"/>
<path d="M1776.27 192.983C1778.95 188.431 1781.71 183.469 1781.87 178.121C1781.87 175.116 1780.64 171.52 1777.68 171.019C1776.62 170.928 1775.56 171.165 1774.65 171.699C1773.73 172.232 1773 173.036 1772.56 174.001C1771.73 175.961 1771.47 178.114 1771.81 180.214C1772.28 184.711 1773.77 189.04 1776.18 192.869L1776.27 192.983Z" fill="#FFD530"/>
<path d="M1823.77 298.113C1826.22 301.865 1829.4 305.085 1833.12 307.582C1835.35 309.276 1838.04 310.245 1840.84 310.358C1842.23 310.38 1843.58 309.947 1844.7 309.125C1845.82 308.303 1846.64 307.137 1847.03 305.806C1847.17 304.477 1846.91 303.136 1846.26 301.963C1845.62 300.791 1844.63 299.845 1843.43 299.251C1841.01 298.114 1838.35 297.553 1835.67 297.613C1831.63 297.484 1827.58 297.56 1823.54 297.84L1823.77 298.113Z" fill="#FFD530"/>
<path d="M1756.15 344.272C1753.82 348.119 1752.27 352.389 1751.6 356.836C1751.04 359.583 1751.34 362.436 1752.46 365.007C1753.05 366.266 1754.04 367.297 1755.27 367.942C1756.51 368.588 1757.92 368.811 1759.29 368.58C1760.54 368.122 1761.63 367.294 1762.4 366.204C1763.17 365.115 1763.6 363.816 1763.61 362.48C1763.59 359.804 1762.94 357.171 1761.72 354.787C1760.15 351.123 1758.17 347.458 1756.24 343.953L1756.15 344.272Z" fill="#FFD530"/>
<path d="M1719.32 332.095C1715.02 333.375 1711.01 335.495 1707.53 338.331C1705.26 339.971 1703.56 342.267 1702.64 344.909C1702.22 346.236 1702.25 347.662 1702.72 348.97C1703.2 350.277 1704.09 351.393 1705.26 352.147C1706.49 352.663 1707.84 352.792 1709.15 352.515C1710.46 352.239 1711.65 351.57 1712.56 350.599C1714.35 348.606 1715.65 346.232 1716.38 343.657C1717.71 339.902 1718.66 335.873 1719.69 332.004L1719.32 332.095Z" fill="#FFD530"/>
<path d="M1679.47 261.287C1676.18 258.209 1672.31 255.824 1668.09 254.277C1665.52 253.161 1662.68 252.859 1659.94 253.412C1658.58 253.72 1657.36 254.466 1656.47 255.536C1655.58 256.605 1655.06 257.938 1655 259.33C1655.18 260.653 1655.76 261.89 1656.66 262.874C1657.57 263.859 1658.75 264.544 1660.05 264.838C1662.68 265.368 1665.39 265.283 1667.97 264.587C1671.93 263.769 1675.84 262.744 1679.69 261.515L1679.47 261.287Z" fill="#FFD530"/>
<path d="M1687.91 302.961C1682.59 302.688 1676.99 302.438 1672.14 304.714C1669.43 306.011 1666.81 308.833 1667.72 311.701C1668.13 312.679 1668.82 313.509 1669.71 314.079C1670.61 314.648 1671.65 314.931 1672.71 314.888C1674.83 314.737 1676.86 313.995 1678.58 312.748C1682.37 310.283 1685.55 306.982 1687.87 303.098L1687.91 302.961Z" fill="#FFD530"/>
<path d="M1731.52 205.023C1753.1 196.147 1797.12 196.215 1817.1 241.645C1837.08 287.075 1807.61 316.276 1787.99 325.858C1768.37 335.44 1717.43 342.792 1695.83 300.64C1674.23 258.487 1701.8 217.177 1731.52 204.932" fill="#FFE96B"/>
</g>
</svg>
