<svg width="1920" height="900" viewBox="0 0 1920 900" fill="none" xmlns="http://www.w3.org/2000/svg">
<mask id="mask0" mask-type="alpha" maskUnits="userSpaceOnUse" x="0" y="0" width="1920" height="900">
<path d="M0 0H1920V840C1920 840 1317 900 960 900C603 900 0 840 0 840V0Z" fill="#FEF8E4"/>
</mask>
<g mask="url(#mask0)">
<path d="M0 0H1920V840C1920 840 1317 900 960 900C603 900 0 840 0 840V0Z" fill="#FEF8E4"/>
<path fill-rule="evenodd" clip-rule="evenodd" d="M54.3403 163.146C105.314 165.976 160.635 167.676 200.376 199.661C239.041 230.781 242.352 286.72 263.568 331.544C282.872 372.327 322.635 407.085 319.862 452.105C317.098 496.983 268.542 523.781 249.226 564.401C227.667 609.738 232.247 665.456 200.069 704.019C162.422 749.138 113.15 799.54 54.3403 797.964C-4.69693 796.382 -46.2393 739.038 -86.9394 696.327C-119.957 661.679 -129.091 612.512 -158.415 574.698C-193.755 529.125 -268.505 509.2 -276.327 452.105C-283.922 396.662 -225.393 355.446 -194.883 308.498C-165.954 263.984 -147.285 209.679 -101.385 182.91C-55.4241 156.104 1.18896 160.195 54.3403 163.146Z" fill="#FAF0D0"/>
<path fill-rule="evenodd" clip-rule="evenodd" d="M1874.34 163.146C1925.31 165.976 1980.64 167.676 2020.38 199.661C2059.04 230.781 2062.35 286.72 2083.57 331.544C2102.87 372.327 2142.63 407.085 2139.86 452.105C2137.1 496.983 2088.54 523.781 2069.23 564.401C2047.67 609.738 2052.25 665.456 2020.07 704.019C1982.42 749.138 1933.15 799.54 1874.34 797.964C1815.3 796.382 1773.76 739.038 1733.06 696.327C1700.04 661.679 1690.91 612.512 1661.58 574.698C1626.25 529.125 1551.49 509.2 1543.67 452.105C1536.08 396.662 1594.61 355.446 1625.12 308.498C1654.05 263.984 1672.72 209.679 1718.61 182.91C1764.58 156.104 1821.19 160.195 1874.34 163.146Z" fill="#FAF0D0"/>
</g>
</svg>
