<svg width="1920" height="1120" viewBox="0 0 1920 1120" fill="none" xmlns="http://www.w3.org/2000/svg">
<mask id="mask0" mask-type="alpha" maskUnits="userSpaceOnUse" x="0" y="0" width="1920" height="1120">
<path d="M0 0H1920V1120C1920 1120 1415.5 1082.5 960 1082.5C504.5 1082.5 0 1120 0 1120V0Z" fill="#E7F2F0"/>
</mask>
<g mask="url(#mask0)">
<path d="M0 0H1920V1120C1920 1120 1415.5 1082.5 960 1082.5C504.5 1082.5 0 1120 0 1120V0Z" fill="#E7F2F0"/>
<path d="M1682 234C1678.89 221.616 1666.78 212.367 1652.32 212.367C1649.73 212.373 1647.14 212.676 1644.63 213.272C1640.71 206.016 1634.85 199.967 1627.68 195.791C1620.51 191.616 1612.31 189.476 1603.99 189.607C1599.45 189.603 1594.94 190.227 1590.58 191.462C1585.37 183.855 1578.34 177.641 1570.11 173.373C1561.88 169.104 1552.71 166.916 1543.41 167.002C1519.49 167.002 1499.15 180.866 1491.44 200.292C1485.74 197.389 1479.42 195.875 1473 195.877C1452.03 195.877 1435 211.329 1435 230.578C1435 231.704 1435 232.786 1435.18 233.956L1682 234Z" fill="white"/>
<path d="M201 421C197.893 408.616 185.778 399.367 171.315 399.367C168.725 399.373 166.145 399.676 163.626 400.272C159.714 393.016 153.85 386.967 146.68 382.791C139.509 378.616 131.311 376.476 122.988 376.607C118.452 376.603 113.937 377.227 109.576 378.462C104.371 370.855 97.3399 364.641 89.1098 360.373C80.8796 356.104 71.7072 353.916 62.4118 354.002C38.4941 354.002 18.1529 367.866 10.4412 387.292C4.73845 384.389 -1.58443 382.875 -8 382.877C-28.9671 382.877 -46 398.329 -46 417.578C-46 418.704 -46 419.786 -45.8211 420.956L201 421Z" fill="white"/>
<path d="M1690 390C1693.64 375.212 1707.87 364.183 1724.75 364.183C1727.76 364.19 1730.76 364.552 1733.68 365.263C1738.25 356.597 1745.11 349.373 1753.5 344.388C1761.88 339.403 1771.48 336.851 1781.21 337.015C1786.5 337.019 1791.77 337.777 1796.85 339.266C1802.94 330.141 1811.2 322.688 1820.87 317.58C1830.54 312.472 1841.32 309.869 1852.23 310.005C1880.2 310.005 1904.03 326.571 1913.05 349.755C1919.72 346.308 1927.12 344.517 1934.62 344.533C1959.19 344.533 1979 363.08 1979 385.971C1979 387.317 1978.93 388.661 1978.8 390H1690Z" fill="white"/>
</g>
</svg>
