<svg width="375" height="713" viewBox="0 0 375 713" fill="none" xmlns="http://www.w3.org/2000/svg">
<mask id="mask0" mask-type="alpha" maskUnits="userSpaceOnUse" x="0" y="0" width="375" height="713">
<path d="M0 0H375V713C375 713 303.5 699.094 187.5 699.094C71.5 699.094 0 713 0 713V0Z" fill="#E7F2F0"/>
</mask>
<g mask="url(#mask0)">
<path d="M0 -13.405H375L369.5 593.595L0 674.595V-13.405Z" fill="#E7F2F0"/>
<path d="M730.917 597.692C682.444 579.744 631.401 575.482 581.457 585.212C508.542 599.463 438.47 643.469 365.163 631.579C352.335 629.501 339.664 625.653 328.426 618.718C308.39 606.324 294.228 584.167 289.854 560.043C287.815 548.817 287.893 536.829 292.267 526.389C295.582 518.508 301.162 511.979 306.654 505.61C322.767 486.883 339.125 467.776 349.305 444.857C359.484 421.938 362.721 394.161 352.09 371.464C338.017 341.425 304.388 327.802 284.765 301.476C262.728 271.967 261.394 231.12 262.149 193.471C262.326 184.704 264.358 175.269 266.514 167.822C266.514 167.822 281.373 125.918 309.003 110.378C336.633 94.838 459.163 66.6532 552.193 88.724C581.801 95.7448 611.143 107.549 633.984 128.697C659.051 151.899 674.536 184.729 684.755 218.296C723.866 346.737 694.042 492.785 746 616.013" fill="#D6EEEC"/>
<path d="M799 835.594C799 835.594 753.3 608.365 607.323 603.34C558.3 601.673 300.916 546.218 156.149 628.869C11.3815 711.52 -31.8844 815.601 -56 835.594H799Z" fill="#9DBEAA"/>
<path d="M90.7161 -11.2994C103.335 2.14113 104.175 6.94847 104.46 22.0573C105.382 71.0334 22.4697 90.9358 22.1405 133.256C21.7894 178.005 114.174 195.119 114.804 243.423C115.316 282.841 54.0912 295.302 54.7788 332.478C55.62 379.998 156.029 383.204 192.157 482.659C198.601 500.387 207.891 525.972 199.925 546.007C176.13 606.054 1.30815 608.673 -83.0453 490.63C-181.56 352.787 -144.591 67.1569 -31.0083 -3.9435C10.4516 -29.897 78.0973 -24.7399 90.7161 -11.2994Z" fill="#D6EEEC"/>
<path d="M-230.811 737C-230.811 737 -253.339 579.314 -102.259 579.314C48.8204 579.314 88.5864 531.358 202.793 579.314C317 627.27 317 725.559 317 725.559L-230.811 737Z" fill="#92B19D"/>
<path d="M-1.35445 665.388C-4.97094 656.313 -8.08533 647.04 -10.6832 637.614C-18.3062 608.375 -16.4004 587.053 -16.1622 576.802C-16.1622 575.451 -18.2681 575.085 -18.4587 576.474C-19.0413 581.301 -19.315 586.162 -19.2781 591.026C-19.3326 599.254 -18.8391 607.476 -17.8012 615.637C-23.366 617.102 -28.6354 614.904 -32.9424 610.93C-40.3654 604.122 -43.0239 595.057 -44.1864 585.008C-44.3103 583.976 -44.3484 583.012 -45.1393 582.414C-45.165 582.273 -45.2417 582.146 -45.3545 582.059C-45.4673 581.972 -45.608 581.93 -45.7495 581.942C-45.8909 581.954 -46.0228 582.019 -46.1196 582.124C-46.2164 582.229 -46.2712 582.367 -46.2733 582.511C-47.4548 583.735 -46.8831 586.194 -46.702 587.776C-44.2817 609.204 -31.4274 619.61 -21.0791 619.484C-19.8184 619.508 -18.5599 619.369 -17.3343 619.07C-16.5783 624.213 -15.6254 629.289 -14.4756 634.297C-12.1463 643.806 -9.19865 653.148 -5.65194 662.264C6.14473 693.586 9.9086 709.585 13.2627 718.65C13.3838 718.991 13.6281 719.272 13.9463 719.437C14.2644 719.602 14.6327 719.639 14.9765 719.539C15.3204 719.44 15.6141 719.213 15.7984 718.902C15.9826 718.592 16.0436 718.223 15.9689 717.869C15.8069 717.213 6.60211 686.354 -1.3735 665.359" fill="#304852"/>
<path d="M46.7686 583.268C46.6539 582.594 46.2621 582.141 46.1187 581.515C45.918 580.687 44.5706 580.601 44.4273 581.515C44.3508 582.035 44.0641 582.363 43.9494 582.892C43.5863 584.625 44.4655 594.359 42.1815 609.243C41.6795 613.208 40.8157 617.117 39.6013 620.922C37.4894 627.026 33.6382 633.611 28.8409 637.77C28.7154 629.046 28.1444 620.335 27.1303 611.67C26.4932 606.483 25.7096 601.323 24.7794 596.188C24.3112 593.695 23.8238 591.201 23.2695 588.717C22.8244 586.136 22.0302 583.629 20.9091 581.265C20.8194 581.116 20.6837 581 20.5226 580.936C20.3616 580.872 20.1841 580.862 20.0173 580.909C19.8505 580.956 19.7035 581.057 19.5988 581.196C19.4941 581.335 19.4374 581.505 19.4374 581.679C19.5154 583.938 19.8358 586.181 20.3931 588.37C20.8709 590.617 21.3168 592.863 21.7309 595.11C24.673 610.998 26.0876 627.135 25.9549 643.297C14.6574 628.661 7.5579 611.186 5.42783 592.77C5.12203 589.988 4.9309 587.196 4.87356 584.394C4.87356 582.95 4.80667 581.506 4.778 580.052C4.778 579.301 4.48175 577.058 3.23943 577.712C1.9971 578.367 2.19779 579.638 2.10222 580.851C2.00666 582.064 1.98755 583.422 2.00666 584.702C2.00666 587.167 2.16912 589.641 2.39847 592.106C4.17178 610.081 10.5504 627.283 20.9091 642.026C22.4108 644.32 24.0917 646.49 25.9357 648.515C25.4961 677.071 21.1576 715.139 21.1576 718.018C21.1576 718.653 21.1576 718.49 21.3869 718.73C22.3426 719.693 23.3842 719.963 23.7378 718.961C24.3876 717.084 24.2825 715.322 25.2477 704.905C26.9869 686.333 28.9364 643.778 28.9269 642.055C34.9569 637.684 39.2286 630.964 42.0191 623.955C43.4365 620.226 44.4428 616.352 45.0198 612.401C47.2368 598.922 47.1699 585.444 46.8068 583.239" fill="#304852"/>
<path d="M4.65488 559.594C4.88688 557.526 5.00209 555.447 4.99997 553.366C4.99997 529.747 -9.77213 510.594 -27.9952 510.594C-46.2183 510.594 -61 529.747 -61 553.366C-60.9973 555.446 -60.8821 557.526 -60.6549 559.594H4.65488Z" fill="#5C806A"/>
<path d="M42.6453 549.594C42.8754 546.7 43 543.71 43 540.681C43 506.921 28.2279 479.594 9.99521 479.594C-8.23747 479.594 -23 506.95 -23 540.681C-23 543.71 -22.885 546.681 -22.6549 549.594H42.6453Z" fill="#66A480"/>
<path d="M-22.5571 586.594C-22.8563 583.633 -23.0041 580.658 -22.9999 577.681C-22.9999 543.921 -4.20174 516.594 19.0048 516.594C42.2114 516.594 60.9999 543.95 60.9999 577.681C61.0041 580.658 60.8563 583.633 60.5572 586.594H-22.5571Z" fill="#5C806A"/>
<path d="M78 266.594C75.9259 258.289 67.8386 252.075 58.1845 252.075C56.4507 252.079 54.7232 252.283 53.0367 252.683C50.4291 247.808 46.5176 243.744 41.7335 240.938C36.9494 238.133 31.4787 236.695 25.9247 236.784C22.8965 236.78 19.8827 237.199 16.972 238.03C13.4863 232.903 8.7735 228.717 3.25714 225.849C-2.25922 222.98 -8.40621 221.519 -14.6313 221.597C-30.5971 221.597 -44.1755 230.911 -49.3233 243.962C-53.13 242.012 -57.3508 240.995 -61.6334 240.996C-75.6295 240.996 -86.9995 251.378 -86.9995 264.31C-87.0048 265.063 -86.9649 265.816 -86.8802 266.565L78 266.594Z" fill="white"/>
<path d="M375 179.594C372.926 171.289 364.839 165.075 355.185 165.075C353.451 165.079 351.723 165.283 350.037 165.683C347.429 160.808 343.518 156.744 338.733 153.938C333.949 151.133 328.479 149.695 322.925 149.784C319.896 149.78 316.883 150.199 313.972 151.03C310.486 145.903 305.773 141.717 300.257 138.849C294.741 135.98 288.594 134.519 282.369 134.597C266.403 134.597 252.825 143.911 247.677 156.962C243.87 155.012 239.649 153.995 235.367 153.996C221.37 153.996 210 164.378 210 177.31C209.995 178.063 210.035 178.816 210.12 179.565L375 179.594Z" fill="white"/>
<path d="M356 75.0569C359.323 61.6826 372.31 51.6927 387.723 51.6927C390.47 51.6922 393.207 52.0138 395.878 52.6509C400.057 44.7952 406.327 38.2478 413.994 33.7324C421.661 29.2169 430.427 26.9093 439.324 27.0644C444.153 27.0764 448.956 27.7626 453.595 29.1032C459.17 20.8399 466.711 14.0916 475.54 9.46526C484.369 4.83891 494.21 2.47952 504.177 2.59931C529.702 2.59931 551.456 17.6046 559.693 38.6038C565.768 35.4912 572.499 33.8765 579.326 33.8943C601.752 33.8943 619.836 50.6937 619.836 71.4279C619.837 72.6399 619.776 73.8511 619.652 75.0569H356Z" fill="white"/>
</g>
<path d="M247.233 416.626C247.233 416.626 235.628 435.539 218.421 437.987C201.214 440.435 192.975 429.054 192.975 429.054L195.239 428.294C199.452 433.095 205.322 436.118 211.668 436.753C231.729 438.559 243.374 417.475 243.876 416.547L247.233 416.626Z" fill="#E8D16E"/>
<path d="M120.271 424.513L123.558 424.02C124.169 424.878 138.324 444.403 158.011 440.178C164.233 438.774 169.697 435.065 173.308 429.794L175.651 430.278C175.651 430.278 167.195 406.805 145.264 408.404C126.305 409.825 120.271 424.513 120.271 424.513Z" fill="#AC8A2F"/>
<path d="M123.549 423.99C124.159 424.849 138.314 444.373 158.001 440.149C164.223 438.745 169.687 435.036 173.298 429.765C173.298 429.765 163.061 410.852 146.208 411.415C129.356 411.977 123.568 423.98 123.568 423.98" fill="white"/>
<path d="M162.224 386.471C158.907 382.009 149.477 386.945 144.84 383.875C138.698 379.808 135.095 363.827 129.73 358.773C124.366 353.719 119.828 347.52 117.849 340.403C115.467 331.816 116.973 322.636 119.031 313.979C122.096 300.991 126.381 288.323 131.827 276.144C144.031 284.978 154.902 295.53 164.104 307.474C170.877 316.269 176.901 326.604 176.32 337.699C176.064 342.259 175.592 351.992 174.223 356.345C170.512 368.19 165.906 374.655 162.195 386.471" fill="#FFD32A"/>
<path d="M163.071 385.977C160.816 383.016 156.83 383.411 153.542 383.707C151.741 383.943 149.922 384.013 148.108 383.914C147.399 383.853 146.702 383.687 146.041 383.421C145.451 383.155 144.914 382.784 144.456 382.325C142.084 380.134 140.578 376.985 139.18 374.073C137.546 370.677 136.119 367.163 134.386 363.847C133.657 362.401 132.811 361.018 131.857 359.711C130.675 358.171 129.179 356.917 127.86 355.496C124.551 352.051 121.884 348.039 119.985 343.651C115.772 333.405 117.958 322.162 120.546 311.807C123.216 301.097 126.725 290.614 131.04 280.458C131.581 279.174 132.142 277.911 132.703 276.637L131.364 276.993C138.615 282.25 145.4 288.125 151.642 294.553C154.772 297.771 157.762 301.121 160.61 304.602C163.431 307.996 166.038 311.563 168.416 315.282C170.78 318.945 172.653 322.905 173.987 327.058C174.619 329.066 175.047 331.133 175.267 333.227C175.409 335.123 175.409 337.027 175.267 338.923C175.07 342.358 174.863 345.832 174.489 349.228C174.312 350.847 174.095 352.466 173.771 354.065C173.36 355.887 172.82 357.679 172.156 359.425C169.311 367.41 165.197 374.873 162.313 382.868C161.919 383.973 161.555 385.089 161.2 386.214C160.846 387.339 162.706 387.942 163.09 386.737C164.485 382.496 166.125 378.34 168.002 374.29C169.735 370.44 171.526 366.62 173.062 362.682C173.879 360.589 174.666 358.467 175.296 356.305C175.696 354.818 175.989 353.304 176.172 351.775C176.674 348.152 176.94 344.51 177.157 340.857C177.255 339.248 177.383 337.63 177.373 336.011C177.354 333.79 177.106 331.577 176.635 329.407C175.613 325.076 173.954 320.921 171.713 317.078C169.489 313.199 166.971 309.497 164.183 306.003C161.414 302.391 158.454 298.906 155.304 295.55C149.096 288.899 142.328 282.796 135.075 277.309C134.176 276.651 133.271 275.993 132.359 275.335C132.134 275.201 131.866 275.162 131.613 275.227C131.36 275.292 131.143 275.455 131.01 275.68C126.433 285.898 122.658 296.459 119.72 307.267C118.166 312.703 116.972 318.236 116.146 323.83C115.298 329.306 115.518 334.894 116.796 340.285C118.141 345.073 120.427 349.543 123.519 353.433C125.009 355.354 126.634 357.165 128.382 358.852C129.485 359.882 130.451 361.049 131.256 362.327C133.108 365.534 134.752 368.857 136.178 372.276C137.539 375.611 139.262 378.786 141.316 381.743C142.191 383.002 143.305 384.075 144.594 384.901C146.163 385.702 147.917 386.067 149.673 385.958C151.524 385.958 153.355 385.691 155.196 385.563C156.793 385.339 158.421 385.474 159.96 385.958C160.505 386.168 160.991 386.506 161.377 386.945C161.509 387.169 161.723 387.332 161.974 387.398C162.225 387.465 162.491 387.429 162.716 387.3C162.94 387.168 163.102 386.953 163.169 386.702C163.235 386.45 163.2 386.183 163.071 385.958" fill="#AC8A2F"/>
<path d="M201.618 448.322C206.786 450.296 212.18 441.155 217.732 441.294C225.095 441.481 236.582 453.139 243.807 454.58C251.033 456.021 258.14 458.874 263.573 463.868C270.129 469.89 273.692 478.458 276.527 486.907C280.768 499.565 283.806 512.597 285.603 525.828C270.6 524.789 255.825 521.591 241.73 516.332C231.336 512.463 220.734 506.915 215.399 497.173C213.214 493.165 208.508 484.656 207.347 480.234C204.256 468.241 204.748 460.285 201.657 448.292" fill="#FFD32A"/>
<path d="M201.372 449.24C204.758 450.523 208.075 447.828 210.595 445.913C211.991 444.781 213.495 443.789 215.084 442.952L215.34 442.834L215.468 442.774C215.675 442.686 215.871 442.616 216.078 442.547L216.6 442.409L216.895 442.34H217.033C217.181 442.34 216.875 442.34 217.033 442.34C217.393 442.3 217.756 442.3 218.116 442.34H218.352H218.441C218.616 442.36 218.79 442.39 218.962 442.429C219.721 442.585 220.466 442.806 221.187 443.09C221.364 443.149 221.541 443.219 221.718 443.298C221.718 443.298 221.886 443.367 221.718 443.298L221.846 443.357L222.161 443.495C222.565 443.673 222.949 443.86 223.343 444.067C225.034 444.967 226.677 445.956 228.264 447.029C231.572 449.161 234.761 451.49 238.206 453.395C239.644 454.222 241.17 454.884 242.754 455.37C243.738 455.646 244.723 455.804 245.707 456.041C246.898 456.327 248.08 456.653 249.251 457.028C253.91 458.424 258.244 460.739 261.998 463.839C265.606 467.037 268.559 470.909 270.69 475.24C272.864 479.66 274.681 484.249 276.124 488.96C277.876 494.35 279.412 499.818 280.731 505.326C282.05 510.834 283.152 516.411 284.018 522.018C284.235 523.38 284.432 524.742 284.619 526.104L285.603 524.861C276.019 524.198 266.516 522.651 257.214 520.241C252.562 519.037 247.968 517.619 243.433 515.987C239.621 514.647 235.902 513.054 232.3 511.219C228.852 509.471 225.632 507.303 222.713 504.763C221.279 503.491 219.962 502.094 218.775 500.588C217.664 499.169 216.676 497.656 215.822 496.067C214.198 493.106 212.584 490.145 211.107 487.095C210.359 485.565 209.65 484.035 209.06 482.534C208.433 480.833 207.933 479.088 207.563 477.313C205.644 468.814 205.211 460.078 203.36 451.559C203.104 450.395 202.829 449.23 202.533 448.075C202.447 447.844 202.277 447.655 202.059 447.543C201.84 447.431 201.587 447.406 201.35 447.471C201.113 447.537 200.91 447.689 200.779 447.897C200.648 448.106 200.6 448.356 200.643 448.598C201.748 453.052 202.59 457.568 203.163 462.121C203.724 466.356 204.236 470.6 205.034 474.796C205.418 476.976 205.918 479.134 206.53 481.261C207.037 482.818 207.642 484.341 208.341 485.821C209.827 489.098 211.521 492.267 213.263 495.426C214.031 496.827 214.769 498.259 215.645 499.601C216.745 501.279 218.001 502.849 219.395 504.29C222.195 507.138 225.376 509.583 228.845 511.555C232.368 513.568 236.045 515.297 239.84 516.727C244.25 518.445 248.759 519.935 253.306 521.218C262.697 523.879 272.312 525.664 282.03 526.549C283.221 526.647 284.412 526.746 285.603 526.825C286.312 526.874 286.588 526.164 286.588 525.581C285.82 519.935 284.835 514.325 283.634 508.751C282.434 503.178 280.996 497.67 279.323 492.227C277.851 487.188 276.072 482.243 273.998 477.421C272.068 472.881 269.407 468.689 266.123 465.013C262.663 461.373 258.473 458.509 253.828 456.613C251.501 455.639 249.102 454.847 246.652 454.244C245.599 453.978 244.526 453.8 243.473 453.524C243.128 453.435 242.784 453.326 242.488 453.208L241.967 453.001L241.721 452.902H241.622C238.205 451.21 234.938 449.229 231.857 446.979C228.728 444.71 225.362 442.79 221.817 441.254C220.397 440.632 218.858 440.329 217.309 440.366C215.529 440.562 213.832 441.222 212.387 442.281C210.831 443.268 209.434 444.492 207.888 445.568C207.183 446.082 206.443 446.547 205.673 446.96L205.171 447.197C205.004 447.275 205.25 447.197 205.073 447.197L204.748 447.325C204.397 447.441 204.039 447.534 203.675 447.601C203.872 447.601 203.675 447.601 203.567 447.601H203.341C203.163 447.611 202.986 447.611 202.809 447.601C202.612 447.601 202.927 447.601 202.74 447.601L202.494 447.542C202.299 447.501 202.107 447.441 201.923 447.364C201.672 447.298 201.406 447.333 201.181 447.462C200.956 447.592 200.791 447.805 200.722 448.055C200.652 448.307 200.685 448.575 200.812 448.803C200.939 449.03 201.151 449.198 201.401 449.269" fill="#AC8A2F"/>
<path d="M142.025 434.927L116.432 443.278C111.225 444.976 105.919 446.693 100.436 446.802C88.171 447.039 77.4022 439.438 67.5881 432.153C56.6027 424.01 45.3515 415.58 38.1657 403.903C37.1814 402.333 36.3447 400.181 37.5456 398.79C38.2113 398.176 39.0438 397.774 39.9376 397.635C59.1719 392.433 79.0067 389.205 98.9301 389.047C104.334 389.047 110.034 389.274 114.68 392.127C117.471 394.041 119.882 396.461 121.787 399.263C125.665 404.465 129.042 410.023 132.408 415.57L139.505 427.257C141.051 429.804 142.665 432.726 141.907 435.608" fill="#FFD32A"/>
<path d="M141.759 433.979L115.733 442.449C111.68 443.924 107.488 444.986 103.222 445.617C99.3519 446.036 95.4377 445.701 91.6949 444.63C84.2335 442.606 77.6186 438.234 71.4368 433.733C65.2551 429.231 58.9158 424.632 53.1377 419.538C50.249 417.017 47.5234 414.313 44.9773 411.444C43.7272 410.013 42.5263 408.542 41.414 407.002C40.2651 405.538 39.2566 403.968 38.4018 402.314C38.0549 401.66 37.9045 400.919 37.9687 400.181C38.0555 399.839 38.2376 399.528 38.4937 399.285C38.7499 399.042 39.0697 398.877 39.4157 398.809C41.3844 398.138 43.5205 397.694 45.5581 397.181C49.8433 396.115 54.1515 395.154 58.4827 394.298C67.1107 392.585 75.8302 391.372 84.5977 390.666C88.9945 390.311 93.3978 390.103 97.8077 390.044C101.696 389.848 105.594 390.18 109.394 391.031C111.233 391.499 112.983 392.269 114.571 393.311C116.131 394.397 117.538 395.689 118.755 397.151C121.426 400.37 123.867 403.774 126.059 407.338C128.431 411.01 130.685 414.761 132.949 418.502C134.111 420.423 135.276 422.342 136.444 424.256C137.576 426.142 138.806 427.988 139.81 429.942C140.814 431.568 141.195 433.504 140.883 435.391C140.588 436.625 142.478 437.148 142.783 435.914C143.856 431.521 140.657 427.415 138.511 423.891C136.119 419.943 133.737 415.995 131.325 412.046C128.913 408.098 126.62 404.446 124.031 400.803C121.649 397.457 119.109 394.032 115.703 391.692C112.297 389.353 108.311 388.534 104.334 388.238C100.038 387.996 95.7322 388.015 91.4389 388.297C82.3408 388.726 73.2775 389.714 64.3003 391.258C59.8641 392.008 55.441 392.884 51.0311 393.884C48.7966 394.387 46.5622 394.871 44.3474 395.483C43.235 395.759 42.1227 396.045 41.0202 396.342C40.033 396.558 39.0651 396.855 38.1262 397.23C37.2668 397.63 36.5881 398.338 36.2237 399.215C35.8592 400.092 35.8356 401.074 36.1575 401.968C36.804 403.754 37.7385 405.421 38.9236 406.903C41.1982 410.154 43.7437 413.205 46.5326 416.024C52.2451 421.597 58.376 426.722 64.8712 431.354C71.2695 436.121 77.6678 441.037 85.0406 444.304C88.6774 445.987 92.5528 447.092 96.5281 447.581C100.788 447.976 105.084 447.591 109.207 446.446C113.666 445.311 118.017 443.751 122.387 442.33L135.696 437.987L142.251 435.855C143.452 435.46 142.94 433.565 141.73 433.96" fill="#AC8A2F"/>
<path d="M159.044 450.859C148.748 456.613 135.991 455.705 125.045 460.108C121.281 461.759 117.659 463.721 114.217 465.971C108.606 469.426 102.867 473.019 98.8806 478.27C92.4823 486.7 91.5866 498.012 91.5669 508.593C91.5472 519.175 92.0591 530.201 87.8066 539.894L115.369 538.127C119.641 537.851 124.021 537.554 127.939 535.837C131.689 534.198 134.829 531.365 137.556 528.345C146.543 518.474 152.656 506.274 156.574 493.52C160.492 480.767 162.303 467.461 163.464 454.165C163.708 453.003 163.496 451.79 162.874 450.78C162.135 449.881 160.285 450 160.127 451.165" fill="#FFD32A"/>
<path d="M158.582 450.01C151.189 454.116 142.566 454.777 134.436 456.426C130.203 457.216 126.084 458.526 122.171 460.325C118.132 462.363 114.221 464.644 110.457 467.155C106.811 469.355 103.438 471.979 100.406 474.973C97.5588 477.976 95.3338 481.515 93.8605 485.387C90.8582 493.136 90.5629 501.664 90.5727 509.877C90.5727 518.76 90.8877 527.851 88.0922 536.37C87.7575 537.357 87.3736 538.413 86.9405 539.4C86.6747 540.022 86.9405 540.93 87.787 540.881L103.34 539.894C108.36 539.568 113.39 539.331 118.41 538.907C120.797 538.748 123.163 538.365 125.478 537.762C127.636 537.159 129.685 536.22 131.552 534.978C135.183 532.394 138.402 529.272 141.1 525.719C146.634 518.748 151.102 510.99 154.359 502.7C157.842 493.753 160.36 484.458 161.87 474.973C162.706 470.038 163.346 465.102 163.838 460.167C163.966 458.923 164.094 457.669 164.212 456.416C164.365 455.27 164.454 454.117 164.478 452.961C164.528 451.872 164.146 450.807 163.415 450C163.076 449.699 162.672 449.479 162.235 449.36C161.799 449.24 161.34 449.222 160.895 449.309C160.474 449.378 160.082 449.571 159.772 449.865C159.461 450.159 159.246 450.539 159.153 450.957C159.118 451.082 159.109 451.213 159.125 451.342C159.141 451.471 159.182 451.595 159.246 451.708C159.31 451.82 159.396 451.919 159.498 451.999C159.6 452.079 159.717 452.137 159.842 452.171C159.967 452.206 160.097 452.215 160.225 452.199C160.354 452.183 160.478 452.142 160.59 452.078C160.703 452.013 160.801 451.928 160.881 451.825C160.96 451.723 161.018 451.606 161.053 451.48C161.053 451.48 161.122 451.165 161.053 451.372C161.122 451.165 161.053 451.372 161.053 451.372L161.112 451.313C161.023 451.372 161.023 451.372 161.112 451.313C161.2 451.253 161.023 451.313 161.112 451.313C161.319 451.241 161.544 451.241 161.752 451.313C162.017 451.392 161.633 451.224 161.88 451.362L162.037 451.461C161.889 451.352 162.106 451.559 162.116 451.569C162.126 451.579 162.185 451.698 162.224 451.757C162.386 452.106 162.469 452.487 162.47 452.872C162.464 453.962 162.388 455.05 162.244 456.13C162.126 457.324 162.017 458.508 161.889 459.703C161.397 464.441 160.797 469.169 160.019 473.868C158.609 483.002 156.284 491.971 153.079 500.637C150.082 508.595 145.968 516.083 140.864 522.877C138.382 526.266 135.503 529.345 132.29 532.047C130.715 533.341 128.957 534.392 127.073 535.166C125.006 535.945 122.85 536.459 120.655 536.696C118.361 536.982 116.058 537.1 113.764 537.249L106.342 537.722L91.498 538.709L87.787 538.956L88.6434 540.437C92.2855 532.096 92.5808 522.896 92.5808 513.934C92.5808 505.662 92.4036 497.232 94.707 489.207C95.7359 485.389 97.4907 481.806 99.8749 478.655C102.523 475.443 105.655 472.666 109.157 470.423C110.91 469.238 112.701 468.123 114.493 467.017C116.461 465.813 118.43 464.609 120.399 463.503C122.348 462.404 124.378 461.457 126.472 460.67C128.405 459.971 130.377 459.388 132.378 458.923C140.519 457.008 149.034 456.505 156.771 453.129C157.755 452.714 158.651 452.25 159.566 451.747C160.669 451.135 159.684 449.427 158.582 450.049" fill="#AC8A2F"/>
<path d="M193.32 387.339C191.743 385.527 190.339 383.571 189.127 381.496C185.845 376.231 182.581 371 179.332 365.801C177.335 362.823 175.634 359.656 174.253 356.345C172.343 351.281 171.959 345.793 171.635 340.384C171.372 336.179 171.133 331.974 170.916 327.769C170.589 323.738 170.652 319.685 171.103 315.667C172.432 306.339 177.797 297.899 184.628 291.464C191.46 285.028 199.728 280.26 208.085 275.956C208.496 275.685 208.982 275.554 209.473 275.581C210.016 275.737 210.483 276.088 210.782 276.568C215.173 282.274 217.407 289.302 219.563 296.172C222.792 306.487 226.05 316.901 226.749 327.69C227.146 331.803 226.769 335.956 225.636 339.93C224.721 342.782 223.225 345.408 222.152 348.211C220.843 351.617 220.183 355.249 218.549 358.526C217.382 360.734 216.015 362.829 214.464 364.784C208.509 372.78 202.346 380.963 193.891 386.214" fill="#FFD32A"/>
<path d="M194.019 386.648C192.668 385.117 191.459 383.465 190.406 381.713C189.179 379.739 187.955 377.765 186.735 375.791C184.293 371.895 181.852 367.989 179.411 364.074C177.055 360.543 175.268 356.662 174.115 352.574C173.215 348.386 172.701 344.123 172.58 339.841C172.304 335.251 172.018 330.651 171.812 326.022C171.487 321.73 171.739 317.414 172.56 313.189C174.243 305.885 178.358 299.37 183.516 293.971C189.176 288.098 196.076 283.616 203.203 279.697C204.985 278.71 206.786 277.723 208.607 276.825C208.892 276.687 209.198 276.48 209.503 276.647C209.852 276.918 210.146 277.253 210.369 277.634C210.95 278.434 211.501 279.263 212.023 280.112C214.035 283.563 215.665 287.224 216.885 291.029C218.264 295.057 219.504 299.123 220.724 303.2C222.004 307.454 223.195 311.748 224.12 316.091C225.073 320.4 225.659 324.782 225.873 329.19C226.142 333.486 225.47 337.788 223.904 341.795C223.087 343.769 222.122 345.635 221.345 347.599C220.567 349.564 219.986 351.636 219.376 353.67C218.795 355.659 218 357.579 217.004 359.395C215.905 361.204 214.702 362.948 213.401 364.617C208.755 370.855 204 377.133 197.976 382.108C196.527 383.303 195.001 384.401 193.409 385.395C192.336 386.066 193.32 387.774 194.393 387.093C201.283 382.789 206.687 376.62 211.609 370.233C212.859 368.605 214.09 366.966 215.32 365.298C216.65 363.597 217.86 361.806 218.943 359.938C221.049 356.108 221.748 351.745 223.412 347.737C224.248 345.763 225.243 343.789 226.04 341.746C226.842 339.657 227.375 337.475 227.625 335.251C228.034 330.706 227.855 326.128 227.093 321.629C225.784 312.607 223.018 303.861 220.291 295.195C219.11 291.203 217.68 287.29 216.009 283.478C215.156 281.612 214.169 279.811 213.056 278.089C212.072 276.539 210.645 273.923 208.39 274.713C207.413 275.115 206.466 275.587 205.555 276.124L202.77 277.615C200.919 278.602 199.088 279.678 197.277 280.773C193.627 282.96 190.146 285.419 186.863 288.127C180.682 293.089 175.78 299.467 172.57 306.724C170.994 310.489 170.062 314.493 169.813 318.569C169.654 323.264 169.776 327.964 170.178 332.645C170.434 337.205 170.611 341.795 171.083 346.346C171.448 350.759 172.556 355.077 174.361 359.119C176.461 363.201 178.798 367.156 181.36 370.964C183.85 374.912 186.331 378.979 188.851 382.957C189.949 384.774 191.207 386.488 192.611 388.08C193.468 389.008 194.856 387.616 193.999 386.688" fill="#AC8A2F"/>
<path d="M213.696 390.765C207.623 367.193 213.027 341.114 228.058 321.432C230.015 318.744 232.311 316.322 234.889 314.226C237.388 312.451 240.003 310.845 242.715 309.419C246.14 307.445 249.448 305.283 252.982 303.496C259.872 300.041 267.432 298.126 274.943 296.241C276.321 295.896 277.896 295.57 279.077 296.33C280.258 297.09 280.534 298.482 280.741 299.775C284.137 321.56 279.107 344.194 268.869 363.936C267.068 367.42 265.06 370.904 262.097 373.57C259.255 375.913 256.063 377.791 252.637 379.137C240.165 384.62 227.035 388.456 213.578 390.547" fill="#FFD32A"/>
<path d="M214.641 390.498C212.696 382.859 211.92 374.968 212.338 367.094C212.757 359.194 214.319 351.397 216.974 343.947C219.649 336.437 223.417 329.365 228.156 322.962C230.568 319.456 233.565 316.394 237.016 313.91C238.896 312.666 240.874 311.6 242.833 310.475C244.792 309.35 246.83 308.096 248.838 306.912C252.75 304.587 256.885 302.662 261.181 301.167C265.473 299.696 269.873 298.561 274.273 297.455C275.76 297.08 278.132 296.192 279.107 297.909C279.455 298.645 279.668 299.437 279.737 300.249C279.904 301.325 280.052 302.401 280.17 303.476C280.648 307.772 280.823 312.097 280.691 316.417C280.398 325.131 278.999 333.772 276.528 342.131C275.294 346.334 273.832 350.466 272.147 354.509C270.504 358.522 268.614 362.428 266.487 366.206C265.482 368.028 264.287 369.738 262.924 371.309C261.521 372.855 259.899 374.185 258.11 375.258C254.289 377.44 250.284 379.28 246.14 380.756C237.611 384.084 228.806 386.657 219.829 388.445C217.643 388.879 215.445 389.271 213.233 389.62C212.985 389.691 212.775 389.857 212.648 390.082C212.521 390.308 212.487 390.574 212.554 390.824C212.623 391.074 212.788 391.288 213.013 391.417C213.238 391.546 213.505 391.581 213.755 391.515C223.04 390.065 232.177 387.793 241.061 384.724C245.432 383.204 249.743 381.506 253.956 379.601C257.982 377.784 261.831 375.652 264.784 372.178C267.491 368.688 269.743 364.867 271.488 360.807C273.44 356.723 275.165 352.535 276.656 348.261C279.634 339.769 281.552 330.939 282.365 321.974C282.757 317.557 282.839 313.117 282.611 308.688C282.493 306.457 282.289 304.237 282.001 302.025C281.754 300.101 281.676 297.82 280.406 296.251C278.92 294.435 276.468 294.839 274.5 295.343C272.236 295.915 269.982 296.478 267.727 297.1C263.215 298.278 258.801 299.809 254.527 301.68C250.226 303.654 246.288 306.221 242.213 308.59C240.244 309.735 238.177 310.83 236.248 312.104C234.353 313.356 232.603 314.816 231.031 316.457C228.111 319.59 225.512 323.009 223.274 326.663C221.087 330.106 219.162 333.709 217.515 337.442C214.192 344.946 211.983 352.897 210.96 361.043C209.933 369.094 210.126 377.254 211.531 385.247C211.878 387.221 212.298 389.152 212.79 391.041C212.877 391.272 213.046 391.461 213.265 391.573C213.484 391.685 213.737 391.71 213.974 391.645C214.211 391.579 214.414 391.427 214.545 391.219C214.676 391.01 214.724 390.76 214.68 390.518" fill="#AC8A2F"/>
<path d="M227.625 392.857C229.81 384.556 233.905 376.906 237.97 369.355C239.153 367.024 240.467 364.763 241.908 362.583C243.664 360.122 245.677 357.855 247.912 355.822C256.772 347.609 267.974 342.239 279.697 339.475C291.421 336.712 303.617 336.514 315.597 337.649C315.981 337.653 316.357 337.766 316.68 337.975C317.028 338.353 317.215 338.853 317.201 339.367C317.871 347.905 312.86 355.733 308.066 362.82L300.733 373.678C295.811 380.943 290.653 388.484 283.142 392.966C279.843 394.851 276.339 396.352 272.698 397.437C265.836 399.687 258.814 401.416 251.692 402.61C245.786 403.597 239.614 404.209 233.974 402.225C231.9 401.614 230.074 400.36 228.757 398.642C228.121 397.77 227.77 396.723 227.751 395.643C227.731 394.564 228.045 393.504 228.648 392.61" fill="#FFD32A"/>
<path d="M228.57 393.114C230.676 385.217 234.476 377.854 238.413 370.658C240.2 367.015 242.379 363.58 244.91 360.412C247.408 357.536 250.206 354.939 253.257 352.663C259.231 348.221 265.878 344.772 272.944 342.447C280.656 339.927 288.673 338.469 296.776 338.113C301.019 337.903 305.271 337.919 309.513 338.163C310.567 338.163 311.63 338.291 312.683 338.37C313.736 338.449 314.799 338.479 315.833 338.646C316.128 338.646 316.187 338.735 316.246 338.982C316.332 339.384 316.368 339.795 316.355 340.206C316.389 341.145 316.36 342.085 316.266 343.019C315.761 346.728 314.555 350.306 312.712 353.561C310.812 357.005 308.722 360.34 306.452 363.551C304.03 367.13 301.606 370.71 299.178 374.29C297.12 377.32 295.024 380.341 292.681 383.174C290.422 385.974 287.826 388.484 284.954 390.646C281.719 392.891 278.174 394.647 274.431 395.858C266.385 398.66 258.097 400.708 249.674 401.978C245.736 402.7 241.707 402.776 237.744 402.205C235.897 401.923 234.106 401.35 232.438 400.507C230.99 399.832 229.821 398.674 229.131 397.23C228.831 396.574 228.711 395.85 228.782 395.132C228.853 394.414 229.112 393.728 229.534 393.144C229.667 392.918 229.706 392.649 229.641 392.396C229.577 392.142 229.414 391.925 229.19 391.791C229.078 391.726 228.954 391.683 228.826 391.665C228.698 391.647 228.567 391.655 228.442 391.688C228.317 391.721 228.199 391.779 228.096 391.857C227.993 391.936 227.906 392.034 227.841 392.147C227.322 392.89 226.984 393.745 226.852 394.643C226.721 395.541 226.8 396.457 227.083 397.319C227.683 399.111 228.888 400.636 230.489 401.632C232.116 402.664 233.913 403.399 235.795 403.804C237.84 404.292 239.934 404.54 242.036 404.544C246.359 404.484 250.666 403.992 254.891 403.074C259.203 402.258 263.468 401.248 267.688 400.043C271.898 398.918 276.02 397.486 280.022 395.759C283.597 394.12 286.879 391.902 289.738 389.195C295.466 383.825 299.689 377.034 304.07 370.569C306.511 366.966 308.992 363.393 311.364 359.711C313.599 356.371 315.436 352.78 316.837 349.011C317.487 347.134 317.926 345.191 318.146 343.217C318.254 342.257 318.294 341.29 318.264 340.324C318.361 339.332 318.118 338.336 317.575 337.501C316.847 336.652 315.606 336.702 314.622 336.603C313.638 336.504 312.447 336.416 311.364 336.346C309.159 336.198 306.944 336.1 304.739 336.05C295.967 335.821 287.203 336.73 278.664 338.755C271.121 340.572 263.902 343.545 257.264 347.57C250.501 351.725 244.132 357.125 239.909 363.936C238.777 365.702 237.793 367.578 236.809 369.444C235.824 371.309 234.84 373.155 233.856 375.03C231.856 378.83 230.084 382.746 228.55 386.757C227.841 388.672 227.211 390.617 226.69 392.591C226.646 392.833 226.694 393.083 226.825 393.292C226.956 393.5 227.159 393.652 227.396 393.718C227.633 393.783 227.886 393.758 228.105 393.646C228.324 393.534 228.493 393.344 228.579 393.114" fill="#AC8A2F"/>
<path d="M232.192 406.785C234.278 403.116 237.28 400.055 240.904 397.901C244.497 395.809 248.493 394.861 252.204 393.065C255.019 391.702 257.657 389.866 260.463 388.484C269.558 384.003 280.032 384.536 289.56 387.645C299.089 390.755 307.85 396.322 316.522 401.84L332.016 411.711C328.423 418.137 321.188 419.963 315.203 423.269C312.381 424.947 309.654 426.78 307.033 428.758C304.29 430.732 301.497 432.601 298.656 434.364C295.852 436.24 292.835 437.775 289.669 438.935C286.636 439.863 283.488 440.362 280.317 440.415C271.232 440.8 261.91 439.32 253.848 434.493C248.96 431.396 244.616 427.511 240.992 422.993C236.582 417.712 232.674 411.484 231.493 404.238" fill="#FFD32A"/>
<path d="M233.039 407.279C234.66 404.437 236.848 401.96 239.466 400.004C242.321 397.921 245.619 396.776 248.877 395.522C250.636 394.872 252.352 394.111 254.015 393.242C255.649 392.364 257.224 391.377 258.839 390.469C261.897 388.71 265.222 387.466 268.682 386.787C275.573 385.464 282.719 386.431 289.354 388.593C296.382 390.893 302.898 394.516 309.188 398.365C315.872 402.452 322.448 406.726 329.053 410.931C329.899 411.464 330.746 411.997 331.583 412.54L331.228 411.188C327.773 417.288 320.646 419.163 314.898 422.322C310.96 424.493 307.436 427.346 303.725 429.883C300.092 432.483 296.261 434.794 292.267 436.793C288.228 438.543 283.87 439.43 279.471 439.398C275.371 439.534 271.27 439.203 267.245 438.411C263.18 437.618 259.26 436.207 255.62 434.226C252.075 432.215 248.825 429.72 245.963 426.813C240.382 421.266 235.224 414.534 233.117 406.825C232.852 405.837 232.635 404.85 232.468 403.863C232.397 403.612 232.229 403.4 232.002 403.272C231.776 403.145 231.508 403.112 231.257 403.182C231.009 403.254 230.799 403.42 230.672 403.645C230.545 403.87 230.511 404.137 230.578 404.386C231.956 412.648 236.848 419.815 242.39 425.895C245.228 429.068 248.441 431.883 251.958 434.276C255.56 436.654 259.518 438.44 263.682 439.566C267.8 440.699 272.042 441.319 276.311 441.412C280.779 441.647 285.256 441.16 289.57 439.971C293.911 438.619 297.809 436.082 301.589 433.624C303.558 432.351 305.468 431.038 307.367 429.676C309.267 428.313 311.167 426.912 313.126 425.629C316.302 423.731 319.589 422.027 322.969 420.525C326.15 419.129 328.994 417.062 331.307 414.465C331.886 413.746 332.41 412.984 332.872 412.184C332.938 412.072 332.98 411.948 332.998 411.82C333.016 411.691 333.008 411.56 332.975 411.435C332.942 411.309 332.885 411.191 332.806 411.088C332.728 410.984 332.63 410.897 332.518 410.832C325.716 406.519 318.953 402.146 312.112 397.891C305.664 393.874 299.03 389.995 291.883 387.409C285.121 384.769 277.831 383.774 270.611 384.507C267.003 384.936 263.489 385.953 260.207 387.517C256.821 389.146 253.759 391.387 250.294 392.857C246.829 394.328 243.315 395.295 240.136 397.21C237.214 399.001 234.685 401.368 232.704 404.169C232.222 404.85 231.72 405.561 231.336 406.282C231.218 406.507 231.192 406.77 231.263 407.014C231.333 407.259 231.495 407.466 231.715 407.594C231.935 407.721 232.196 407.759 232.442 407.698C232.689 407.637 232.902 407.484 233.039 407.269" fill="#AC8A2F"/>
<path d="M218.953 442.567C230.591 434.05 243.791 427.918 257.795 424.523C260.627 423.742 263.55 423.343 266.487 423.339C268.748 423.444 270.99 423.805 273.171 424.414C279.745 426.25 286.185 428.539 292.445 431.265C298.607 433.792 304.847 436.358 310.094 440.465C314.258 443.732 317.654 447.868 321.011 451.974C323.458 454.955 325.906 457.943 328.354 460.937C325.646 461.18 323 461.884 320.528 463.02C308.716 467.688 296.904 472.654 284.53 475.477C280.03 476.624 275.391 477.135 270.749 476.997C261.073 476.474 252.194 471.706 243.709 467.007C233.147 461.144 222.053 454.6 216.649 443.761" fill="#FFD32A"/>
<path d="M219.445 443.386C228.967 436.425 239.551 431.058 250.787 427.494C254.638 426.189 258.588 425.199 262.599 424.533C264.685 424.237 266.803 424.237 268.889 424.533C270.986 424.864 273.058 425.339 275.09 425.954C279.181 427.158 283.209 428.568 287.158 430.179C290.978 431.699 294.797 433.219 298.538 434.907C302.164 436.475 305.612 438.428 308.824 440.731C311.985 443.188 314.855 446 317.378 449.111C320.164 452.379 322.841 455.735 325.568 459.051C326.267 459.92 326.976 460.779 327.684 461.638C327.911 461.085 328.147 460.522 328.373 459.96C326.201 460.103 324.065 460.589 322.044 461.401C319.997 462.161 317.979 462.99 315.951 463.799C311.915 465.408 307.869 467.017 303.794 468.527C295.614 471.558 287.168 474.391 278.506 475.635C274.256 476.282 269.926 476.185 265.709 475.348C261.723 474.464 257.852 473.123 254.173 471.351C250.442 469.613 246.839 467.619 243.246 465.616C240.106 463.859 236.986 462.072 233.964 460.098C228.058 456.278 222.496 451.678 218.815 445.617C218.352 444.857 217.919 444.077 217.525 443.278C216.954 442.143 215.261 443.14 215.832 444.265C219.1 450.79 224.485 455.863 230.361 460.058C233.373 462.19 236.543 464.095 239.742 465.981C243.187 467.955 246.633 469.88 250.176 471.666C257.785 475.526 265.926 478.517 274.578 478.073C279.092 477.747 283.563 476.977 287.926 475.773C292.189 474.667 296.402 473.335 300.556 471.874C304.71 470.413 308.844 468.814 312.958 467.185L319.061 464.757C321.09 463.885 323.167 463.134 325.283 462.506C326.301 462.225 327.348 462.06 328.403 462.013C328.598 462.014 328.79 461.957 328.953 461.848C329.116 461.74 329.243 461.585 329.318 461.404C329.393 461.223 329.412 461.024 329.374 460.831C329.335 460.639 329.241 460.463 329.102 460.325C326.267 456.87 323.452 453.415 320.607 449.96C318.071 446.745 315.269 443.75 312.23 441.007C305.979 435.618 298.223 432.627 290.682 429.557C286.666 427.929 282.63 426.329 278.496 424.997C274.362 423.664 270.109 422.391 265.788 422.43C261.467 422.47 257.352 423.635 253.316 424.78C241.761 428.107 230.815 433.28 220.901 440.099C220.094 440.652 219.297 441.225 218.509 441.807C218.286 441.939 218.123 442.154 218.057 442.405C217.991 442.657 218.026 442.924 218.155 443.149C218.287 443.374 218.501 443.537 218.752 443.603C219.002 443.67 219.269 443.634 219.494 443.505" fill="#AC8A2F"/>
<path d="M173.505 459.555C169.056 467.452 163.179 474.45 158.149 482.011C153.119 489.572 148.847 497.982 148.305 507.054C148.176 510.183 148.288 513.318 148.64 516.431C149.172 522.353 149.828 528.276 150.609 534.198C150.883 536.82 151.357 539.417 152.026 541.967C153.857 548.343 158.011 554.157 158.139 560.791C159.123 556.398 162.431 552.894 166.083 550.318C169.735 547.741 173.84 545.797 177.383 543.063C179.763 541.142 181.988 539.036 184.038 536.765C186.59 534.181 188.918 531.384 190.997 528.404C196.293 520.438 198.055 510.696 199.699 501.269C200.485 497.575 200.858 493.804 200.811 490.026C200.535 484.578 198.537 479.356 196.145 474.45C194.048 470.146 191.558 465.912 187.896 462.832C183.91 459.522 178.843 457.809 173.672 458.025" fill="#FFD32A"/>
<path d="M172.658 459.051C169.115 465.329 164.695 471.035 160.511 476.878C156.456 482.544 152.637 488.427 150.087 494.942C148.814 498.143 147.947 501.493 147.508 504.912C147.14 508.679 147.177 512.474 147.616 516.233C147.971 520.103 148.364 523.966 148.798 527.822C149.231 531.652 149.605 535.521 150.333 539.302C151.088 542.707 152.217 546.017 153.7 549.173C155.138 552.122 156.206 555.238 156.879 558.451C157.002 559.212 157.071 559.981 157.086 560.751C157.086 561.827 158.769 562.133 159.055 561.008C159.911 557.207 162.579 554.167 165.591 551.838C169.095 549.133 173.141 547.248 176.743 544.691C180.355 541.916 183.662 538.762 186.607 535.284C189.7 532.028 192.303 528.337 194.334 524.328C198.163 516.431 199.62 507.498 201.018 498.871C201.44 496.464 201.687 494.029 201.756 491.586C201.767 489.205 201.489 486.832 200.929 484.518C199.793 480.11 198.103 475.864 195.899 471.884C194.056 468.06 191.457 464.651 188.26 461.865C184.941 459.179 180.917 457.516 176.675 457.077C175.654 456.97 174.628 456.937 173.603 456.979C172.343 457.038 172.343 459.002 173.603 458.953C177.662 458.784 181.677 459.851 185.12 462.013C188.482 464.307 191.241 467.382 193.163 470.975C195.367 474.723 197.131 478.715 198.419 482.87C199.09 484.993 199.52 487.185 199.699 489.404C199.833 491.792 199.721 494.187 199.364 496.551C198.754 500.953 197.937 505.366 196.992 509.709C196.171 513.827 194.947 517.854 193.34 521.731C191.619 525.673 189.294 529.32 186.449 532.54C184.963 534.238 183.417 535.876 181.852 537.476C180.318 539.113 178.673 540.643 176.93 542.056C170.572 547.06 161.683 549.765 158.09 557.661C157.665 558.552 157.335 559.485 157.106 560.445L159.074 560.712C158.907 553.95 154.91 548.264 153.02 541.957C152.082 538.332 151.456 534.634 151.15 530.902C150.691 527.085 150.274 523.258 149.9 519.422C149.425 515.574 149.204 511.7 149.241 507.823C149.402 504.432 150.035 501.08 151.121 497.864C153.276 491.339 156.909 485.426 160.817 479.83C164.902 473.986 169.341 468.379 173.052 462.279C173.505 461.529 173.948 460.769 174.371 460.009C174.472 459.786 174.486 459.534 174.412 459.301C174.337 459.069 174.18 458.872 173.969 458.749C173.758 458.626 173.51 458.586 173.271 458.636C173.033 458.687 172.821 458.824 172.678 459.022" fill="#AC8A2F"/>
<path d="M196.106 457.502C196.209 464.672 195.368 471.824 193.605 478.773C192.72 482.268 191.637 485.683 191.056 489.266C189.156 501.713 194.659 514.388 203.262 523.923C205.365 526.323 207.752 528.457 210.369 530.28C213.415 532.215 216.63 533.867 219.976 535.215L236.297 542.302C236.911 542.618 237.579 542.812 238.266 542.875C240.362 542.875 241.642 540.723 242.311 538.838C245.865 528.868 246.357 518.109 245.865 507.665C245.619 502.513 245.117 497.291 243.138 492.494C241.668 489.149 239.751 486.021 237.439 483.196C227.103 469.929 212.072 459.505 194.934 456.544" fill="#FFD32A"/>
<path d="M195.121 457.502C195.187 461.601 194.937 465.7 194.373 469.761C193.763 473.854 192.888 477.903 191.755 481.883C190.614 485.599 189.926 489.441 189.707 493.323C189.637 496.848 190.054 500.366 190.948 503.776C192.859 510.711 196.244 517.15 200.87 522.65C203.249 525.618 205.995 528.271 209.04 530.546C212.315 532.742 215.816 534.575 219.484 536.015L231.09 541.108L234.043 542.401C234.968 542.796 235.893 543.26 236.848 543.586C237.649 543.876 238.519 543.915 239.342 543.696C240.166 543.477 240.903 543.012 241.455 542.362C242.497 541.037 243.258 539.512 243.689 537.88C244.31 536.005 244.821 534.09 245.255 532.165C246.093 528.265 246.623 524.304 246.839 520.32C247.058 516.342 247.074 512.356 246.889 508.376C246.802 504.409 246.338 500.459 245.501 496.581C243.739 489.286 239.102 483.166 234.122 477.727C229.564 472.744 224.367 468.389 218.667 464.777C212.913 461.121 206.631 458.377 200.043 456.643C198.439 456.238 196.824 455.893 195.2 455.656C194.951 455.589 194.685 455.623 194.461 455.75C194.236 455.877 194.07 456.088 193.999 456.337C193.929 456.588 193.962 456.857 194.089 457.084C194.216 457.312 194.428 457.48 194.678 457.551C201.177 458.681 207.454 460.844 213.273 463.957C219.045 467.048 224.37 470.914 229.101 475.447C231.452 477.696 233.662 480.089 235.716 482.613C238.053 485.366 240.056 488.388 241.681 491.616C243.227 495.049 244.183 498.72 244.506 502.473C244.892 506.307 245.076 510.159 245.058 514.013C245.215 521.762 244.165 529.488 241.947 536.913C241.609 538.366 240.983 539.735 240.106 540.94C239.757 541.441 239.234 541.793 238.64 541.927H238.275C238.116 541.924 237.957 541.901 237.803 541.858C237.367 541.736 236.943 541.577 236.533 541.385L225.154 536.449C221.492 534.86 217.762 533.369 214.238 531.514C210.946 529.769 207.955 527.507 205.378 524.811C200.483 519.855 196.662 513.937 194.157 507.429C191.671 501.027 191.073 494.044 192.434 487.312C193.281 483.363 194.56 479.504 195.387 475.526C196.213 471.553 196.746 467.525 196.982 463.474C197.087 461.499 197.126 459.525 197.1 457.551C197.1 457.289 196.996 457.038 196.812 456.853C196.627 456.668 196.377 456.564 196.116 456.564C195.854 456.564 195.604 456.668 195.419 456.853C195.235 457.038 195.131 457.289 195.131 457.551" fill="#AC8A2F"/>
<path d="M131.483 441.116C122.951 440.261 114.394 439.602 105.811 439.142C103.547 439.023 101.263 438.915 98.989 438.944C82.6782 439.191 66.9678 446.969 55.382 458.499C50.7358 463.118 46.6409 468.37 41.3057 472.16C41.9531 473.167 42.9002 473.944 44.0126 474.381C55.1593 480.09 66.9153 484.514 79.0557 487.568C81.4853 488.217 83.9548 488.705 86.4482 489.029C91.0695 489.522 95.7425 489.077 100.189 487.72C104.635 486.364 108.763 484.123 112.327 481.133C115.195 478.52 117.891 475.724 120.399 472.762C124.255 468.536 128.35 464.535 132.664 460.779C135.715 458.104 139.101 455.143 139.554 451.105C139.659 449.675 139.474 448.238 139.01 446.881C138.547 445.524 137.814 444.275 136.857 443.209C134.947 441.097 132.757 439.258 130.351 437.74" fill="#FFD32A"/>
<path d="M131.483 440.129C124.041 439.392 116.589 438.796 109.128 438.342C105.456 438.125 101.785 437.869 98.1129 437.977C95.0149 438.084 91.9305 438.441 88.8894 439.043C82.8418 440.292 77.0085 442.42 71.5746 445.361C66.09 448.288 61.0104 451.922 56.4648 456.169C51.73 460.572 47.7532 465.764 42.7428 469.89C42.1325 470.403 41.4927 470.877 40.8529 471.351C40.6294 471.482 40.4668 471.697 40.4005 471.949C40.3341 472.2 40.3693 472.468 40.4985 472.693C41.4828 474.598 43.865 475.437 45.686 476.345C47.8188 477.392 49.9746 478.398 52.1533 479.366C56.5238 481.34 61.0125 483.048 65.5011 484.597C69.9898 486.147 74.5178 487.48 79.1049 488.625C83.4869 489.853 88.0354 490.376 92.5808 490.174C101.211 489.594 109.335 485.878 115.428 479.721C118.745 476.434 121.718 472.811 124.986 469.445C126.659 467.728 128.382 466.06 130.134 464.421C131.886 462.783 133.432 461.46 135.056 459.999C138.009 457.304 140.854 453.919 140.598 449.684C140.312 445.035 137.015 441.521 133.5 438.826C132.634 438.175 131.748 437.553 130.862 436.931C130.637 436.813 130.376 436.787 130.132 436.857C129.888 436.928 129.681 437.091 129.554 437.311C129.427 437.532 129.39 437.793 129.45 438.04C129.51 438.288 129.664 438.502 129.878 438.638C133.185 440.938 136.867 443.505 138.206 447.522C138.834 449.313 138.788 451.271 138.078 453.03C137.314 454.683 136.234 456.168 134.898 457.403C133.441 458.864 131.847 460.187 130.311 461.569C128.628 463.089 126.974 464.658 125.389 466.257C122.151 469.465 119.158 472.9 116.058 476.237C113.274 479.383 109.996 482.05 106.352 484.133C102.819 486.062 98.9731 487.346 94.9925 487.924C90.8659 488.495 86.6703 488.311 82.6093 487.381C78.1107 486.394 73.6615 485.14 69.2811 483.739C64.9007 482.337 60.6187 480.777 56.3958 479.01C52.173 477.243 48.0879 475.437 44.1209 473.305C43.3431 472.958 42.6854 472.388 42.231 471.666L41.8372 472.999C47.1724 469.179 51.2772 464.036 55.8741 459.427C60.199 455.069 65.0774 451.302 70.3835 448.223C75.6243 445.145 81.2849 442.851 87.1865 441.412C90.0963 440.706 93.0596 440.244 96.0457 440.03C99.5356 439.846 103.033 439.879 106.519 440.129C113.948 440.544 121.37 441.103 128.785 441.807C129.691 441.886 130.597 441.975 131.502 442.074C131.763 442.074 132.014 441.97 132.198 441.784C132.383 441.599 132.487 441.348 132.487 441.086C132.487 440.825 132.383 440.574 132.198 440.388C132.014 440.203 131.763 440.099 131.502 440.099" fill="#AC8A2F"/>
<path d="M142.015 406.637C130.544 406.433 119.163 404.571 108.222 401.109C103.365 399.727 98.7451 397.613 94.52 394.841C90.9202 392.192 87.7065 389.053 84.9717 385.513C77.6875 376.521 71.9979 366.107 69.3106 354.844C67.9128 348.922 67.3419 342.93 66.2788 336.978C65.4126 332.112 64.2314 327.305 63.0403 322.498C77.1448 324.018 91.0592 326.968 104.57 331.302C108.733 332.514 112.746 334.196 116.53 336.317C129.652 344.154 135.656 359.74 140.745 374.182C142.429 378.432 143.631 382.859 144.328 387.379C144.643 390.968 144.643 394.578 144.328 398.168C144.132 401.613 143.59 405.61 140.617 407.328" fill="#FFD32A"/>
<path d="M142.015 405.65C133.279 405.492 124.587 404.367 116.097 402.294C111.91 401.298 107.79 400.035 103.763 398.513C100.002 397.139 96.4783 395.184 93.3191 392.719C90.2105 390.104 87.401 387.151 84.9422 383.914C82.5224 380.86 80.3123 377.645 78.3273 374.29C74.2288 367.415 71.3138 359.897 69.7044 352.051C68.8283 347.668 68.2967 343.167 67.5782 338.794C66.8596 334.422 65.8654 329.911 64.7924 325.528C64.5365 324.442 64.2609 323.366 63.9951 322.29L63.0108 323.534C72.8217 324.577 82.5457 326.322 92.1083 328.756C96.8431 329.96 101.548 331.322 106.185 332.882C110.495 334.202 114.586 336.158 118.322 338.686C124.484 343.078 128.904 349.465 132.309 356.147C134.068 359.662 135.642 363.267 137.024 366.946C138.531 370.895 139.978 374.843 141.277 378.87C142.067 381.213 142.682 383.612 143.118 386.046C143.486 388.462 143.625 390.908 143.531 393.351C143.531 395.621 143.403 397.921 143.137 400.181C143.014 401.88 142.506 403.527 141.651 404.998C141.245 405.602 140.71 406.107 140.086 406.479C139.872 406.616 139.718 406.83 139.658 407.077C139.597 407.325 139.635 407.586 139.762 407.806C139.889 408.027 140.096 408.189 140.34 408.26C140.583 408.331 140.845 408.305 141.07 408.187C144.565 406.124 145.067 401.672 145.283 398.01C145.431 395.463 145.579 392.907 145.49 390.36C145.398 387.77 145.042 385.197 144.427 382.68C143.228 378.233 141.782 373.857 140.096 369.572C138.698 365.742 137.202 361.932 135.489 358.23C132.201 351.113 127.978 344.194 121.964 339.061C118.58 336.23 114.751 333.982 110.634 332.408C105.983 330.65 101.242 329.144 96.4296 327.897C86.6896 325.219 76.7717 323.24 66.7513 321.974C65.511 321.826 64.2806 321.678 63.0403 321.55C62.3808 321.471 61.9575 322.231 62.0559 322.794C63.1584 327.265 64.2707 331.747 65.1173 336.287C65.9638 340.828 66.5151 345.171 67.2632 349.613C67.9507 353.808 68.998 357.937 70.3934 361.952C71.7421 365.741 73.3879 369.418 75.3152 372.948C77.2484 376.472 79.4259 379.856 81.8316 383.075C84.2383 386.405 86.9398 389.511 89.9034 392.354C92.9431 395.168 96.4211 397.465 100.2 399.155C104.162 400.881 108.253 402.294 112.435 403.38C121.04 405.73 129.877 407.12 138.786 407.525C139.859 407.575 140.932 407.604 142.005 407.624C142.266 407.624 142.517 407.52 142.701 407.335C142.886 407.15 142.99 406.899 142.99 406.637C142.99 406.375 142.886 406.124 142.701 405.939C142.517 405.754 142.266 405.65 142.005 405.65" fill="#AC8A2F"/>
<path d="M176.763 504.921C168.12 510.37 158.867 515.779 148.679 516.204C141.509 516.502 134.453 514.328 128.687 510.044C127.6 509.266 126.609 508.361 125.734 507.35C123.667 504.892 121.176 501.24 120.605 498.081C119.597 493.333 119.44 488.443 120.143 483.64C120.487 481.597 121.482 478.704 120.911 477.974C119.503 476.256 116.717 478.339 115.861 480.402C115.004 482.465 114.877 484.874 114.217 486.986C112.908 481.231 110.211 470.758 107.327 470.531C106.254 470.531 105.545 472.051 105.624 473.137C105.889 475.96 106.874 478.675 107.071 481.448C106.086 479.839 104.787 476.444 103.556 475.032C102.631 473.976 101.056 472.821 100.16 473.907C99.5599 474.638 100.003 477.776 100.397 478.635C101.381 480.817 102.365 482.988 103.419 485.17C102.469 482.61 101.141 480.208 99.4812 478.043C98.989 477.441 97.355 476.414 96.6856 476.819C96.3017 477.046 96.4395 477.263 96.3706 477.707C96.0064 480.155 97.4337 482.909 98.861 484.933C99.3071 485.562 99.6586 486.254 99.9045 486.986C99.0579 485.9 96.5576 482.732 95.4059 481.991C94.2543 481.251 93.1518 481.231 92.6793 482.88C92.5119 483.482 94.1361 486.562 94.5496 487.025C95.5339 488.141 100.347 495.396 101.342 496.521C107.996 504.033 108.783 506.274 116.107 512.473C119.395 515.276 122.84 518.928 126.689 520.883C130.261 522.711 134.034 524.115 137.93 525.068C144.041 526.3 150.34 526.263 156.436 524.959C162.598 523.686 168.672 520.892 174.952 518.731C176.192 518.306 176.615 517.171 177.393 516.115C177.857 515.402 178.138 514.585 178.21 513.736C178.757 510.001 178.127 506.188 176.409 502.829" fill="#3BB87D"/>
<path d="M176.478 504.497C170.571 508.199 164.547 511.851 157.893 513.983C154.648 515.051 151.266 515.639 147.852 515.73C144.516 515.788 141.192 515.305 138.009 514.299C134.831 513.289 131.838 511.765 129.15 509.788C126.496 507.759 124.311 505.18 122.742 502.227C121.958 500.901 121.393 499.458 121.068 497.953C120.701 496.047 120.442 494.123 120.29 492.188C120.148 490.292 120.148 488.388 120.29 486.492C120.433 484.829 120.703 483.179 121.098 481.557C121.255 480.906 121.403 480.244 121.501 479.583C121.614 479.082 121.614 478.563 121.501 478.063C121.127 476.937 119.67 476.701 118.696 477.076C117.442 477.568 116.398 478.482 115.743 479.662C115.031 481.165 114.572 482.776 114.384 484.429C114.224 485.237 114.017 486.035 113.764 486.818H114.749C113.913 482.717 112.741 478.693 111.244 474.786C110.742 473.267 109.927 471.872 108.852 470.689C108.457 470.274 107.918 470.027 107.346 469.998C106.313 469.998 105.643 471.045 105.378 471.972C105.23 472.587 105.21 473.225 105.318 473.848C105.417 474.667 105.565 475.477 105.732 476.296C106.144 477.99 106.453 479.707 106.657 481.439L107.573 481.182C106.756 479.81 106.145 478.31 105.397 476.888C104.759 475.415 103.692 474.169 102.336 473.315C102.016 473.107 101.644 472.996 101.263 472.996C100.882 472.996 100.509 473.107 100.19 473.315C99.9638 473.504 99.7828 473.741 99.6601 474.009C99.5375 474.277 99.4763 474.57 99.4812 474.865C99.4363 475.524 99.4627 476.185 99.56 476.839C99.6242 477.458 99.7597 478.067 99.9635 478.655C100.387 479.761 100.948 480.836 101.46 481.912C101.972 482.988 102.543 484.242 103.074 485.407C103.31 485.91 104.177 485.545 103.97 485.032C103.32 483.324 102.53 481.673 101.607 480.096C100.944 478.74 99.948 477.576 98.7134 476.71C98.2172 476.379 97.6363 476.197 97.04 476.187C96.7493 476.205 96.4769 476.336 96.2804 476.551C96.0838 476.767 95.9785 477.05 95.9867 477.342C95.8882 478.125 95.8882 478.918 95.9867 479.701C96.1417 480.524 96.3928 481.326 96.7349 482.09C97.1267 482.971 97.5944 483.817 98.1326 484.617C98.6788 485.376 99.1316 486.198 99.4812 487.065L100.298 486.581C99.2532 485.209 98.1395 483.892 96.9613 482.633C95.9769 481.646 94.0968 480.096 92.8368 481.547C92.577 481.821 92.3959 482.16 92.3127 482.528C92.2296 482.897 92.2474 483.281 92.3643 483.64C92.6274 484.407 92.9568 485.151 93.3487 485.861C93.8553 486.776 94.4277 487.654 95.0614 488.486C96.8628 490.984 98.5362 493.57 100.367 496.038C101.46 497.518 102.749 498.851 103.931 500.262C105.112 501.674 106.342 503.224 107.563 504.665C108.783 506.106 109.827 507.3 111.047 508.534C112.642 510.143 114.335 511.614 116.038 513.094C117.948 514.743 119.759 516.5 121.708 518.099C122.667 518.913 123.669 519.674 124.71 520.379C125.73 521.009 126.788 521.573 127.88 522.067C130.243 523.191 132.684 524.141 135.184 524.91C137.709 525.66 140.305 526.146 142.931 526.361C148.401 526.801 153.907 526.286 159.202 524.841C161.889 524.11 164.508 523.163 167.077 522.195L171.014 520.685C172.343 520.192 173.692 519.698 175.021 519.234C175.972 518.789 176.748 518.039 177.226 517.102C177.574 516.638 177.877 516.143 178.131 515.621C178.356 515.047 178.508 514.447 178.584 513.835C178.953 511.268 178.786 508.653 178.092 506.155C177.768 504.932 177.323 503.745 176.763 502.612C176.478 502.049 175.631 502.543 175.916 503.105C177.057 505.351 177.708 507.814 177.826 510.331C177.893 511.576 177.817 512.824 177.6 514.052C177.52 514.617 177.336 515.163 177.058 515.661C176.763 516.135 176.438 516.589 176.074 517.053C175.831 517.441 175.513 517.777 175.139 518.04C174.555 518.34 173.941 518.578 173.308 518.75C172.018 519.214 170.729 519.738 169.449 520.182C166.969 521.12 164.527 522.077 161.978 522.896C156.965 524.587 151.714 525.457 146.425 525.473C141.327 525.522 136.271 524.539 131.561 522.58C129.304 521.732 127.134 520.664 125.084 519.392C123.075 518.005 121.176 516.464 119.405 514.782C116.284 511.949 113.016 509.294 110.171 506.175C107.72 503.47 105.496 500.558 103.113 497.785C102.129 496.669 101.322 495.722 100.485 494.547C99.6485 493.372 98.6839 491.951 97.7783 490.599C97.0006 489.483 96.2328 488.348 95.406 487.253L95.0614 486.818C94.9588 486.705 94.8665 486.583 94.7858 486.453C94.3947 485.819 94.0461 485.159 93.7424 484.479C93.5948 484.163 93.4569 483.847 93.3388 483.492C93.3388 483.354 93.2502 483.215 93.2109 483.077C93.2109 483.077 93.2109 482.899 93.2109 482.998C93.2109 483.097 93.2109 482.781 93.2109 482.929C93.2364 482.727 93.3072 482.533 93.418 482.362C93.5288 482.191 93.6767 482.048 93.8507 481.942C94.0167 481.898 94.19 481.889 94.3595 481.917C94.5291 481.944 94.691 482.006 94.835 482.1C95.4704 482.457 96.0344 482.929 96.4986 483.492C97.1384 484.173 97.7291 484.884 98.3197 485.594C98.7626 486.137 99.1957 486.68 99.619 487.233C99.9242 487.618 100.603 487.233 100.446 486.759C100.218 486.094 99.9146 485.458 99.5403 484.864C99.1465 484.262 98.7233 483.669 98.3689 483.038C97.5634 481.767 97.0583 480.329 96.8924 478.833C96.8645 478.504 96.8645 478.174 96.8924 477.846C96.8947 477.627 96.9178 477.409 96.9613 477.194C97.2073 476.947 97.9456 477.392 98.1523 477.51C99.2299 478.263 100.095 479.283 100.662 480.471C101.557 482.012 102.317 483.627 102.936 485.298L103.832 484.923C102.986 483.067 102.132 481.218 101.273 479.376C100.984 478.824 100.759 478.241 100.603 477.638C100.475 477.05 100.396 476.453 100.367 475.852C100.281 475.329 100.325 474.793 100.495 474.292C100.761 473.759 101.479 473.996 101.854 474.233C103.006 475.014 103.911 476.11 104.462 477.392C105.21 478.813 105.82 480.353 106.637 481.695C106.874 482.09 107.622 481.952 107.553 481.448C107.317 478.665 106.362 476 106.145 473.216C106.086 472.515 106.342 471.242 107.13 471.045C107.214 471.023 107.302 471.018 107.389 471.032C107.475 471.045 107.558 471.077 107.632 471.124C107.821 471.232 107.994 471.369 108.144 471.528C109.083 472.631 109.801 473.904 110.26 475.279C110.992 477.116 111.626 478.991 112.16 480.896C112.74 482.959 113.252 485.032 113.725 487.114C113.725 487.245 113.777 487.371 113.869 487.463C113.961 487.556 114.086 487.608 114.217 487.608C114.348 487.608 114.473 487.556 114.565 487.463C114.657 487.371 114.709 487.245 114.709 487.114C115.241 485.476 115.418 483.758 115.851 482.09C116.125 480.644 116.912 479.347 118.066 478.438C118.514 478.073 119.065 477.859 119.641 477.826C120.025 477.826 120.537 478.073 120.625 478.448C120.668 478.949 120.621 479.454 120.487 479.938C120.359 480.639 120.182 481.33 120.025 482.021C119.24 485.537 119.011 489.154 119.346 492.741C119.509 494.609 119.772 496.468 120.133 498.308C120.47 499.81 121.034 501.251 121.806 502.582C123.327 505.473 125.413 508.028 127.939 510.094C130.565 512.123 133.496 513.722 136.621 514.832C142.966 517.052 149.837 517.269 156.308 515.454C162.933 513.677 169.006 510.271 174.814 506.688L176.999 505.326C177.531 504.99 176.999 504.142 176.497 504.477" fill="#335137"/>
<path d="M113.764 488.536C113.477 490.371 113.332 492.226 113.331 494.083C113.331 494.169 113.365 494.252 113.426 494.313C113.487 494.375 113.57 494.409 113.656 494.409C113.742 494.409 113.825 494.375 113.886 494.313C113.947 494.252 113.981 494.169 113.981 494.083C113.98 492.282 114.118 490.483 114.394 488.703C114.463 488.289 113.833 488.111 113.764 488.536Z" fill="#335137"/>
<path d="M203.341 493.057C211.009 512.63 222.91 530.299 236.396 546.359C240.609 551.384 245.087 556.359 250.777 559.596C252.514 560.46 254.185 561.449 255.778 562.557C257.669 564.057 259.059 566.099 259.764 568.411C259.997 568.983 260.022 569.619 259.833 570.207C259.78 570.349 259.698 570.477 259.592 570.584C259.487 570.692 259.359 570.776 259.219 570.831C259.079 570.886 258.929 570.91 258.779 570.903C258.628 570.896 258.481 570.858 258.347 570.79C258.187 570.654 258.053 570.49 257.953 570.306C257.057 568.835 256.152 567.345 255.256 565.914C257.165 568.658 259.144 571.954 258.14 575.143C258.002 575.567 257.746 576.031 257.303 576.13C256.86 576.229 256.457 575.715 256.201 575.301L251.86 568.391L254.813 574.314C255.247 575.141 255.496 576.054 255.541 576.989C255.552 577.4 255.417 577.801 255.162 578.122C254.906 578.444 254.545 578.664 254.144 578.746C253.021 578.834 252.234 577.699 251.761 576.673C251.003 574.762 249.879 573.019 248.454 571.54C250.501 574.432 253.189 580.325 251.574 581.292C250.117 582.803 244.487 575.478 242.715 571.293C242.538 573.386 241.288 576.998 239.329 577.127C238.512 577.275 238.463 576.653 238.345 575.863C238.226 575.074 238.079 574.254 238.049 573.415C237.911 569.556 237.626 565.519 235.707 562.202C234.298 560.049 232.614 558.091 230.696 556.378C223.097 548.788 212.043 537.505 207.426 527.812C204.827 522.353 203.223 521.346 200.092 516.174C197.691 512.226 198.98 506.303 197.139 502.029C196.47 500.46 196.037 498.456 197.139 497.202C198.055 496.215 199.551 496.136 200.85 495.781C202.15 495.426 203.538 494.271 203.114 492.987" fill="#3BB87D"/>
<path d="M202.819 493.185C205.322 499.546 208.239 505.735 211.55 511.713C214.85 517.682 218.465 523.471 222.378 529.056C226.316 534.643 230.44 540.052 234.791 545.313C239.142 550.574 243.414 555.599 249.044 559.211C251.86 561.008 255.108 562.173 257.254 564.838C258.26 566.062 258.974 567.5 259.341 569.043C259.404 569.232 259.427 569.433 259.408 569.632C259.39 569.831 259.33 570.023 259.232 570.198C259.085 570.405 258.76 570.583 258.524 570.405C258.248 570.097 258.022 569.747 257.854 569.368L257.047 568.056C256.575 567.276 256.063 566.496 255.61 565.716L254.763 566.21C256.457 568.648 258.543 571.797 257.638 574.916C257.569 575.143 257.441 575.656 257.126 575.646C256.811 575.636 256.663 575.232 256.555 575.064C256.043 574.284 255.571 573.494 255.078 572.705L252.214 568.144C252.142 568.046 252.037 567.977 251.917 567.952C251.798 567.927 251.674 567.947 251.569 568.008C251.463 568.069 251.384 568.168 251.347 568.284C251.31 568.401 251.317 568.527 251.367 568.638C252.076 570.059 252.782 571.481 253.484 572.902C254.219 574.059 254.717 575.351 254.95 576.703C254.98 576.961 254.944 577.223 254.844 577.463C254.744 577.704 254.584 577.914 254.38 578.075C254.152 578.194 253.889 578.23 253.637 578.176C253.385 578.122 253.161 577.981 253.001 577.778C252.258 576.828 251.664 575.77 251.239 574.64C250.602 573.338 249.746 572.156 248.71 571.145C248.316 570.79 247.597 571.264 247.932 571.747C249.032 573.319 249.944 575.016 250.649 576.801C250.989 577.608 251.243 578.448 251.407 579.308C251.536 579.786 251.505 580.292 251.318 580.75C251.255 580.821 251.182 580.884 251.102 580.937C251.151 580.937 251.023 580.937 251.102 580.937C251.18 580.937 250.974 580.937 251.102 580.937H250.984L250.747 580.868C250.267 580.647 249.828 580.347 249.448 579.98C248.185 578.794 247.059 577.469 246.091 576.031C244.927 574.445 243.937 572.737 243.138 570.938C242.931 570.435 242.262 570.76 242.223 571.185C242.096 572.628 241.642 574.022 240.894 575.261C240.612 575.781 240.175 576.199 239.644 576.456C239.506 576.505 239.142 576.624 239.014 576.515C238.886 576.406 238.856 575.765 238.837 575.587C238.699 574.511 238.571 573.465 238.522 572.389C238.472 571.313 238.413 570.336 238.305 569.319C238.139 567.358 237.695 565.43 236.986 563.594C235.509 559.942 232.468 557.346 229.761 554.621C227.221 552.065 224.701 549.488 222.25 546.843C217.191 541.503 212.2 535.778 208.696 529.263C207.849 527.703 207.14 526.075 206.245 524.535C205.473 523.232 204.635 521.97 203.734 520.754C202.75 519.382 201.766 518.01 200.9 516.589C200.401 515.825 199.992 515.007 199.679 514.151C199.42 513.309 199.229 512.447 199.108 511.574C198.852 509.798 198.803 507.991 198.596 506.215C198.508 505.324 198.36 504.44 198.153 503.569C197.946 502.73 197.592 501.95 197.316 501.131C196.785 499.562 196.667 497.627 198.458 496.877C199.294 496.605 200.146 496.385 201.008 496.215C201.808 496.006 202.53 495.567 203.085 494.952C203.346 494.671 203.533 494.328 203.628 493.955C203.722 493.583 203.722 493.192 203.626 492.82C203.591 492.689 203.505 492.577 203.388 492.51C203.271 492.442 203.132 492.424 203.001 492.459C202.871 492.495 202.759 492.581 202.692 492.698C202.625 492.816 202.607 492.955 202.642 493.086C202.888 493.925 202.14 494.587 201.47 494.962C200.651 495.311 199.791 495.556 198.911 495.692C198.071 495.856 197.303 496.281 196.716 496.906C196.189 497.554 195.913 498.371 195.938 499.206C195.938 501.013 196.923 502.612 197.297 504.349C197.604 506.175 197.808 508.017 197.907 509.867C197.997 511.664 198.356 513.437 198.97 515.128C199.775 516.822 200.765 518.421 201.923 519.896C202.789 521.12 203.695 522.334 204.512 523.597C205.496 525.16 206.383 526.782 207.17 528.454C208.808 531.654 210.746 534.692 212.958 537.525C215.32 540.654 217.88 543.635 220.518 546.537C223.156 549.439 225.646 552.006 228.294 554.661C229.574 555.964 230.893 557.237 232.163 558.55C233.688 560.004 234.939 561.723 235.854 563.624C236.647 565.535 237.132 567.561 237.291 569.625C237.39 570.662 237.449 571.718 237.498 572.764C237.547 573.81 237.695 574.876 237.833 575.942C237.911 576.574 238 577.364 238.738 577.561C239.059 577.617 239.389 577.604 239.705 577.522C240.02 577.441 240.315 577.292 240.569 577.087C241.672 576.094 242.437 574.779 242.754 573.327C242.949 572.649 243.081 571.955 243.148 571.254L242.233 571.501C243.012 573.242 243.972 574.896 245.097 576.436C246.145 578.013 247.378 579.458 248.769 580.74C249.556 581.431 250.737 582.418 251.81 581.618C252.028 581.42 252.201 581.178 252.316 580.907C252.432 580.636 252.488 580.343 252.48 580.049C252.453 579.185 252.287 578.332 251.988 577.522C251.232 575.282 250.161 573.161 248.808 571.224L248.03 571.826C249.102 572.884 249.973 574.128 250.6 575.498C251.2 576.663 251.643 578.084 252.795 578.835C253.051 579.001 253.342 579.105 253.645 579.139C253.948 579.173 254.255 579.136 254.541 579.03C254.828 578.925 255.086 578.754 255.295 578.532C255.504 578.31 255.659 578.042 255.748 577.749C256.25 576.436 255.541 574.876 254.96 573.702L252.184 568.125L251.338 568.618L254.015 572.892L255.305 574.955C255.587 575.56 256.021 576.08 256.565 576.466C258.002 577.216 258.612 575.242 258.74 574.225C258.883 572.825 258.666 571.411 258.11 570.119C257.438 568.553 256.589 567.069 255.58 565.696C255.226 565.183 254.399 565.647 254.734 566.19L256.26 568.677L257.027 569.921C257.227 570.298 257.457 570.658 257.717 570.997C257.947 571.243 258.258 571.397 258.592 571.431C258.927 571.466 259.262 571.378 259.538 571.185C259.845 570.967 260.083 570.665 260.225 570.315C260.366 569.965 260.404 569.582 260.335 569.211C260.072 567.611 259.431 566.098 258.465 564.798C257.517 563.465 256.325 562.326 254.95 561.442C253.464 560.455 251.84 559.734 250.324 558.826C248.859 557.944 247.46 556.954 246.14 555.865C243.521 553.648 241.088 551.218 238.866 548.6C234.24 543.299 229.869 537.742 225.725 532.056C221.569 526.352 217.712 520.434 214.169 514.328C210.625 508.224 207.484 501.893 204.768 495.376C204.433 494.567 204.108 493.748 203.784 492.928C203.557 492.346 202.602 492.593 202.799 493.185" fill="#335137"/>
<path d="M272.462 424.316C272.462 441.26 267.452 457.823 258.064 471.911C248.677 485.999 235.334 496.98 219.723 503.464C204.113 509.948 186.935 511.645 170.363 508.339C153.791 505.033 138.568 496.874 126.62 484.893C114.672 472.912 106.536 457.647 103.239 441.029C99.9428 424.411 101.635 407.186 108.101 391.532C114.567 375.878 125.517 362.498 139.566 353.084C153.616 343.671 170.133 338.646 187.03 338.646C209.688 338.646 231.418 347.672 247.44 363.738C263.461 379.805 272.462 401.595 272.462 424.316Z" fill="#D4AC2A"/>
<path d="M189.924 597.007C189.924 597.007 189.875 598.626 189.796 601.35C189.796 602.456 189.727 603.749 189.678 605.19C189.195 622.207 188.103 659.391 188.103 659.371C188.103 661.178 188.487 661.434 187.335 663.744C185.868 666.705 182 670.012 172.008 670.012C158.926 670.012 151.987 669.933 149.102 667.673C148.74 667.356 148.46 666.956 148.287 666.506C148.114 666.057 148.053 665.572 148.11 665.093C148.166 664.615 148.338 664.157 148.61 663.76C148.883 663.364 149.248 663.039 149.673 662.816C155.097 660.033 167.943 651.593 168.691 637.25C169.301 625.583 169.744 611.793 169.981 603.561C169.981 602.08 170.069 600.787 170.099 599.721C170.099 599.405 170.099 599.09 170.099 598.784C170.099 597.214 170.158 596.326 170.158 596.326C176.635 597.669 183.292 597.896 189.845 596.997" fill="#4F745E"/>
<path d="M172.009 670.555C158.434 670.555 151.78 670.446 148.788 668.097C148.346 667.75 148.001 667.296 147.784 666.778C147.567 666.26 147.485 665.694 147.547 665.136C147.6 664.546 147.801 663.98 148.131 663.489C148.462 662.999 148.911 662.601 149.437 662.332C166.043 653.804 167.973 640.942 168.14 637.201C168.593 628.525 169.026 617.193 169.43 603.532L169.548 599.682C169.548 599.376 169.548 599.06 169.548 598.764C169.548 597.185 169.597 596.296 169.597 596.296V595.783H170.256C176.679 597.112 183.28 597.332 189.776 596.434L190.387 596.346L190.19 602.87C190.19 603.581 190.19 604.351 190.121 605.16C189.885 613.669 189.481 627.212 189.136 638.632L188.536 658.917C188.536 659.065 188.536 659.203 188.536 659.322C188.536 659.697 188.536 660.003 188.536 660.309C188.66 661.547 188.377 662.791 187.729 663.852L187.67 663.971C186.183 666.932 182.226 670.535 171.92 670.535L172.009 670.555ZM170.601 596.967C170.601 597.382 170.601 597.955 170.601 598.794C170.601 599.09 170.601 599.406 170.601 599.781L170.493 603.62C170.079 617.292 169.646 628.623 169.193 637.32C168.869 643.657 166.24 649.53 161.319 654.761C158.013 658.226 154.158 661.118 149.91 663.319C149.541 663.51 149.227 663.791 148.997 664.136C148.766 664.481 148.626 664.88 148.591 665.294C148.551 665.667 148.607 666.044 148.753 666.39C148.9 666.735 149.132 667.038 149.428 667.268C152.144 669.4 159.035 669.499 172.009 669.499C181.714 669.499 185.425 666.32 186.774 663.576V663.467C187.381 662.552 187.649 661.452 187.532 660.358C187.532 660.062 187.532 659.736 187.532 659.371C187.532 659.253 188.615 622.454 189.107 605.17C189.107 604.351 189.107 603.591 189.176 602.88L189.333 597.589C183.106 598.369 176.794 598.162 170.631 596.977" fill="#335137"/>
<path d="M235.254 666.537C232.369 668.788 222.457 669.499 209.375 670.022C191.656 670.742 193.684 661.622 193.281 659.361C193.221 658.591 191.263 621.931 190.327 605.18C190.249 603.739 190.18 602.446 190.121 601.34L189.885 597.007C200.831 598.507 206.51 596.444 206.51 596.444C206.51 596.444 206.589 597.54 206.776 599.475C206.865 600.511 206.993 601.804 207.14 603.295C207.908 610.767 209.404 623.402 211.865 636.431C215.881 650.31 212.692 653.064 223.107 653.557C231.572 653.972 236.888 665.244 235.214 666.537" fill="#4F745E"/>
<path d="M207.475 670.594C201.854 670.594 197.828 669.489 195.466 667.307C194.569 666.405 193.871 665.323 193.418 664.133C192.966 662.942 192.768 661.67 192.837 660.398C192.836 660.067 192.813 659.738 192.769 659.41V659.351C192.71 658.542 190.642 619.957 189.816 605.16C189.737 603.719 189.668 602.426 189.609 601.311C189.471 598.606 189.373 596.987 189.373 596.987V596.346L190.003 596.434C200.663 597.895 206.333 595.921 206.382 595.901L207.032 595.664V596.355C207.032 596.355 207.111 597.451 207.298 599.376C207.386 600.432 207.514 601.784 207.662 603.196C208.489 611.3 209.985 623.619 212.387 636.283C213.44 639.935 213.991 642.818 214.444 645.167C215.635 651.385 215.891 652.679 223.126 653.064C226.316 653.344 229.288 654.804 231.464 657.16C233.355 659.062 234.801 661.361 235.696 663.892C236.041 664.968 236.297 666.379 235.539 666.981C232.674 669.212 223.776 669.992 209.355 670.574C208.695 670.574 208.056 670.624 207.386 670.624L207.475 670.594ZM193.714 659.332C193.764 659.695 193.79 660.061 193.792 660.427C193.861 662.085 193.96 664.593 196.086 666.567C198.488 668.788 202.927 669.785 209.266 669.528C220.606 669.064 231.907 668.423 234.86 666.162C234.929 666.103 235.116 665.58 234.673 664.188C233.432 660.24 228.875 654.376 223.047 654.09C214.986 653.705 214.611 651.78 213.381 645.384C212.938 643.094 212.397 640.241 211.334 636.589C208.922 623.846 207.396 611.487 206.589 603.354C206.451 601.942 206.313 600.59 206.225 599.524C206.136 598.458 206.057 597.658 206.018 597.145C204.266 597.619 199.039 598.715 190.416 597.619C190.416 598.32 190.524 599.593 190.613 601.32C190.672 602.426 190.741 603.719 190.82 605.16C191.912 625.563 193.655 658.088 193.773 659.312" fill="#335137"/>
<path d="M206.914 599.445H206.815C201.37 600.584 195.83 601.212 190.268 601.32H190.16L189.924 596.987C189.924 596.987 189.875 598.606 189.796 601.33H189.56C188.979 601.33 188.388 601.33 187.788 601.33C181.843 601.353 175.91 600.805 170.069 599.692C170.069 599.376 170.069 599.06 170.069 598.754C170.069 597.866 170.128 597.036 170.148 596.296C170.207 593.878 170.237 592.456 170.237 592.456C176.664 593.799 183.273 594.023 189.776 593.118C200.604 594.618 206.225 592.555 206.225 592.555C206.225 592.555 206.422 595.141 206.855 599.405" fill="#335137"/>
<path d="M204.532 486.443C204.532 521.88 228.639 588.577 226.483 590.907C224.327 593.236 218.017 599.06 187.335 599.06C156.653 599.06 150.343 593.236 148.187 590.907C146.031 588.577 170.138 521.88 170.138 486.443" fill="#4F745E"/>
<path d="M187.335 599.583C155.511 599.583 149.713 593.315 147.803 591.262C146.947 590.344 148.059 585.961 152.814 569.112C159.507 545.422 169.617 509.521 169.617 486.443H170.66C170.66 509.659 160.521 545.609 153.818 569.359C150.796 580.078 148.187 589.347 148.601 590.541C153.522 595.812 166.555 598.487 187.335 598.487C208.115 598.487 221.138 595.812 226.069 590.541C226.483 589.347 223.874 580.078 220.852 569.368C214.149 545.58 204.01 509.63 204.01 486.404H205.053C205.053 509.482 215.163 545.343 221.856 569.082C226.611 585.922 227.762 590.305 226.867 591.223C219.159 599.544 195.21 599.544 187.335 599.544" fill="#335137"/>
<path d="M265.099 424.335C265.101 439.739 260.548 454.798 252.015 467.607C243.482 480.415 231.353 490.399 217.162 496.295C202.97 502.192 187.354 503.735 172.288 500.731C157.221 497.727 143.382 490.311 132.519 479.419C121.656 468.528 114.258 454.651 111.261 439.543C108.263 424.435 109.801 408.775 115.679 394.544C121.557 380.312 131.511 368.148 144.284 359.59C157.056 351.032 172.072 346.464 187.433 346.464C197.632 346.463 207.731 348.476 217.154 352.389C226.577 356.302 235.139 362.037 242.351 369.269C249.563 376.5 255.284 385.085 259.187 394.533C263.09 403.982 265.099 414.108 265.099 424.335Z" fill="#AC8A2F"/>
<path d="M262.904 424.316C262.904 439.364 258.454 454.074 250.117 466.586C241.78 479.098 229.93 488.85 216.066 494.609C202.201 500.368 186.946 501.874 172.227 498.939C157.509 496.003 143.99 488.757 133.379 478.116C122.767 467.475 115.541 453.918 112.613 439.159C109.686 424.4 111.188 409.102 116.931 395.199C122.674 381.297 132.399 369.414 144.876 361.054C157.354 352.693 172.023 348.231 187.03 348.231C207.153 348.231 226.452 356.247 240.681 370.516C254.91 384.784 262.904 404.137 262.904 424.316Z" fill="#E8D16E"/>
<path d="M258.524 427.05C258.524 465.408 226.237 496.502 186.41 496.502C146.583 496.502 114.296 465.408 114.296 427.05C114.296 388.692 146.583 357.599 186.41 357.599C226.237 357.599 258.524 388.692 258.524 427.05Z" fill="#F8E876"/>
<path d="M125.439 403.518C125.439 403.518 140.677 386.115 161.535 388.02C161.535 388.02 138.698 381.95 125.439 403.518Z" fill="#AC8A2F"/>
<path d="M203.547 389.817C203.547 389.817 228.156 380.005 243.611 399.915C243.611 399.915 231.631 375.238 203.547 389.817Z" fill="#AC8A2F"/>
<path d="M247.233 416.626L243.906 416.528C243.404 417.456 231.759 438.54 211.698 436.733C205.352 436.098 199.482 433.075 195.269 428.274L193.005 429.034C193.005 429.034 198.576 404.702 220.567 403.636C239.516 402.728 247.282 416.607 247.282 416.607" fill="#AC8A2F"/>
<path d="M122.003 420.575L125.33 420.476C125.832 421.404 137.477 442.488 157.538 440.682C163.883 440.043 169.752 437.021 173.967 432.222L176.231 432.982C176.231 432.982 170.66 408.651 148.669 407.585C129.72 406.677 121.954 420.555 121.954 420.555" fill="#AC8A2F"/>
<path d="M243.916 416.508C243.414 417.436 231.769 438.52 211.708 436.714C205.365 436.076 199.496 433.058 195.279 428.264C195.279 428.264 203.154 408.256 219.966 406.775C236.779 405.295 243.955 416.508 243.955 416.508" fill="white"/>
<path d="M125.468 420.535L123.44 424.632C123.942 425.56 137.645 442.577 157.696 440.771C164.042 440.134 169.912 437.112 174.125 432.311C174.125 432.311 166.25 412.303 149.437 410.822C132.624 409.342 125.449 420.545 125.449 420.545" fill="white"/>
<path d="M228.166 421.582C227.94 424.307 226.911 426.904 225.212 429.044C223.513 431.183 221.218 432.769 218.619 433.6C216.021 434.431 213.234 434.47 210.614 433.712C207.993 432.954 205.655 431.433 203.897 429.342C202.139 427.251 201.039 424.683 200.736 421.965C200.434 419.247 200.943 416.499 202.199 414.071C203.455 411.643 205.401 409.643 207.791 408.325C210.181 407.007 212.908 406.43 215.625 406.667C219.258 406.983 222.618 408.73 224.968 411.526C227.319 414.322 228.469 417.937 228.166 421.582Z" fill="#8EC45D"/>
<path d="M214.484 434.503C214.08 434.503 213.676 434.503 213.273 434.453C209.608 434.145 206.209 432.409 203.804 429.618C201.4 426.827 200.181 423.202 200.41 419.521C200.638 415.839 202.296 412.394 205.027 409.924C207.758 407.453 211.345 406.153 215.02 406.303C218.696 406.453 222.166 408.04 224.688 410.725C227.21 413.41 228.583 416.979 228.513 420.666C228.443 424.354 226.935 427.867 224.312 430.454C221.69 433.04 218.162 434.493 214.484 434.503ZM214.484 406.913C211.104 406.92 207.85 408.196 205.361 410.489C202.872 412.781 201.33 415.925 201.037 419.301C200.738 422.88 201.869 426.431 204.182 429.174C206.494 431.916 209.798 433.625 213.366 433.925C216.935 434.225 220.477 433.091 223.211 430.772C225.946 428.454 227.651 425.141 227.95 421.562C228.247 417.987 227.119 414.44 224.812 411.698C222.506 408.955 219.209 407.242 215.645 406.933C215.261 406.914 214.877 406.914 214.493 406.933" fill="#231F20"/>
<path d="M221.699 420.92C221.575 422.391 221.018 423.792 220.1 424.946C219.182 426.1 217.943 426.954 216.54 427.402C215.137 427.85 213.634 427.87 212.22 427.461C210.805 427.051 209.544 426.23 208.595 425.102C207.646 423.973 207.052 422.588 206.888 421.121C206.724 419.654 206.998 418.171 207.675 416.86C208.352 415.549 209.401 414.469 210.69 413.756C211.979 413.044 213.45 412.73 214.917 412.856C216.882 413.024 218.701 413.968 219.972 415.48C221.244 416.992 221.865 418.949 221.699 420.92Z" fill="#221011"/>
<path d="M224.553 419.064C221.758 419.894 219.041 419.064 218.509 417.238C217.978 415.412 219.799 413.29 222.604 412.411C225.41 411.533 228.107 412.411 228.648 414.247C229.19 416.083 227.359 418.196 224.553 419.064Z" fill="white"/>
<path d="M139.791 427.119C140.341 429.799 141.672 432.255 143.615 434.176C145.558 436.097 148.027 437.395 150.707 437.908C153.387 438.421 156.159 438.124 158.671 437.055C161.183 435.986 163.322 434.194 164.817 431.905C166.312 429.616 167.096 426.934 167.069 424.198C167.042 421.461 166.206 418.795 164.666 416.536C163.127 414.277 160.953 412.527 158.42 411.508C155.888 410.489 153.111 410.247 150.441 410.812C146.875 411.567 143.752 413.708 141.756 416.765C139.76 419.823 139.053 423.55 139.791 427.129" fill="#8EC45D"/>
<path d="M153.227 438.372C149.625 438.377 146.159 436.995 143.543 434.512C140.928 432.028 139.363 428.633 139.171 425.026C138.98 421.419 140.176 417.876 142.514 415.128C144.852 412.38 148.152 410.637 151.734 410.258C155.316 409.88 158.906 410.894 161.764 413.093C164.622 415.291 166.529 418.506 167.092 422.074C167.655 425.641 166.83 429.289 164.789 432.265C162.748 435.241 159.645 437.317 156.121 438.066C155.17 438.27 154.2 438.373 153.227 438.372ZM140.047 427.07C140.592 429.69 141.899 432.089 143.804 433.964C145.709 435.839 148.126 437.106 150.748 437.604C153.371 438.101 156.082 437.808 158.538 436.761C160.995 435.713 163.086 433.959 164.548 431.72C166.011 429.48 166.778 426.857 166.753 424.18C166.728 421.503 165.912 418.894 164.408 416.683C162.904 414.471 160.78 412.757 158.305 411.756C155.829 410.755 153.113 410.512 150.5 411.059C148.759 411.41 147.105 412.105 145.635 413.102C144.164 414.1 142.905 415.381 141.933 416.871C140.96 418.361 140.292 420.03 139.968 421.78C139.645 423.531 139.671 425.329 140.047 427.07Z" fill="#231F20"/>
<path d="M146.14 425.678C146.441 427.12 147.162 428.44 148.212 429.472C149.261 430.503 150.592 431.2 152.036 431.473C153.48 431.746 154.973 431.584 156.325 431.006C157.677 430.429 158.828 429.463 159.632 428.23C160.437 426.997 160.859 425.552 160.845 424.079C160.831 422.605 160.382 421.169 159.554 419.951C158.727 418.734 157.557 417.79 156.195 417.238C154.832 416.687 153.337 416.553 151.898 416.853C150.942 417.053 150.034 417.44 149.227 417.992C148.42 418.543 147.73 419.249 147.195 420.069C146.66 420.888 146.292 421.806 146.11 422.768C145.929 423.731 145.939 424.719 146.14 425.678Z" fill="#221011"/>
<path d="M142.655 424.089C145.451 424.928 148.158 424.089 148.709 422.292C149.26 420.496 147.429 418.285 144.634 417.446C141.838 416.607 139.131 417.446 138.58 419.252C138.029 421.058 139.86 423.2 142.655 424.089Z" fill="white"/>
<path d="M122.279 427.307C122.279 427.307 134.091 441.886 151.445 442.231C168.799 442.577 175.621 430.278 175.621 430.278L173.278 429.794C169.667 435.065 164.203 438.774 157.981 440.178C138.294 444.403 124.188 424.878 123.578 424.02L122.279 427.307Z" fill="#E8D16E"/>
<path d="M189.678 605.19C189.195 622.207 188.113 659.371 188.103 659.371C188.307 660.873 188.039 662.402 187.335 663.744C188.231 654.86 187.817 601.37 187.817 601.37H189.786C189.786 602.475 189.717 603.768 189.668 605.21" fill="#335137"/>
<path d="M181.36 434.502C181.113 437.456 180.095 440.292 178.407 442.725C177.58 443.959 176.379 445.084 176.212 446.673C176.179 447.37 176.314 448.065 176.605 448.699C176.897 449.333 177.336 449.888 177.885 450.316C179.279 451.291 180.892 451.905 182.581 452.102C182.748 452.145 182.925 452.122 183.075 452.038C183.225 451.953 183.337 451.814 183.388 451.648C183.433 451.481 183.411 451.302 183.327 451.151C183.242 450.999 183.101 450.887 182.935 450.839C181.546 450.672 180.206 450.222 178.998 449.516C178.513 449.222 178.119 448.798 177.86 448.293C177.601 447.788 177.487 447.22 177.531 446.654C177.713 445.991 178.051 445.382 178.515 444.877C178.948 444.314 179.372 443.742 179.755 443.14C180.543 441.928 181.203 440.638 181.724 439.29C182.282 437.752 182.601 436.137 182.669 434.502C182.728 433.663 181.419 433.663 181.36 434.502Z" fill="#AC8A2F"/>
<path d="M177.393 464.895C176.143 464.895 181.212 473.779 186.085 474.549C187.116 474.751 188.184 474.645 189.156 474.243C190.013 473.762 190.744 473.085 191.292 472.269C193.664 469.158 195.193 465.486 195.732 461.608C195.776 461.467 195.776 461.315 195.732 461.174C195.554 460.818 195.013 460.947 194.659 461.174C194.659 461.174 182.069 464.875 177.423 464.895" fill="#D3957B"/>
<path d="M195.259 428.284C197.062 423.427 199.809 418.978 203.341 415.195C206.847 411.334 211.373 408.548 216.393 407.16C221.411 405.739 226.739 405.856 231.69 407.496C234.146 408.332 236.467 409.522 238.581 411.03C240.705 412.5 242.524 414.37 243.935 416.538C243.207 415.466 242.369 414.473 241.435 413.576C240.515 412.704 239.527 411.905 238.482 411.188C236.359 409.741 234.038 408.611 231.592 407.831C229.167 407.047 226.638 406.634 224.091 406.607C223.454 406.588 222.816 406.608 222.181 406.667L221.197 406.716C220.882 406.716 220.567 406.805 220.212 406.844L218.332 407.15L216.482 407.614C214.02 408.245 211.668 409.243 209.503 410.576C208.422 411.255 207.383 412 206.392 412.806C205.408 413.616 204.473 414.484 203.577 415.393C201.798 417.234 200.206 419.248 198.822 421.404C197.415 423.553 196.212 425.83 195.229 428.205" fill="#010101"/>
<path d="M173.278 429.765C172.021 427.524 170.554 425.409 168.898 423.447C167.264 421.473 165.441 419.665 163.454 418.048C162.455 417.252 161.417 416.508 160.344 415.817C159.266 415.138 158.149 414.525 156.997 413.981C154.686 412.91 152.227 412.194 149.703 411.859L147.803 411.612C147.173 411.612 146.533 411.612 145.903 411.553C145.588 411.553 145.264 411.553 144.919 411.553L143.935 411.612C143.302 411.636 142.671 411.696 142.045 411.79C139.517 412.122 137.054 412.838 134.741 413.912C132.421 414.982 130.269 416.385 128.352 418.077C127.383 418.916 126.481 419.83 125.655 420.812C124.866 421.795 124.18 422.856 123.608 423.98C124.753 421.659 126.334 419.581 128.264 417.86C130.176 416.113 132.331 414.653 134.662 413.527C139.377 411.295 144.651 410.535 149.801 411.345C154.943 412.109 159.763 414.32 163.7 417.722C167.659 421.051 170.915 425.138 173.278 429.745" fill="#010101"/>
</svg>
