<svg width="1920" height="1120" viewBox="0 0 1920 1120" fill="none" xmlns="http://www.w3.org/2000/svg">
<mask id="mask0" mask-type="alpha" maskUnits="userSpaceOnUse" x="0" y="0" width="1920" height="1120">
<path d="M0 0H1920V1117.5C1920 1117.5 1415.5 1120 960 1120C504.5 1120 0 1117.5 0 1117.5V0Z" fill="#FEF8E4"/>
</mask>
<g mask="url(#mask0)">
<path d="M0 0H1920V1117.5C1920 1117.5 1415.5 1120 960 1120C504.5 1120 0 1117.5 0 1117.5V0Z" fill="#FEF8E4"/>
<path fill-rule="evenodd" clip-rule="evenodd" d="M1764.29 667.332C1793.83 622.742 1824.64 573.624 1874.61 554.632C1923.23 536.153 1975.59 562.783 2027.38 567.338C2074.49 571.482 2126.98 553.937 2166.25 580.285C2205.39 606.55 2203.94 664.643 2230.46 703.619C2260.07 747.121 2312.91 772.487 2330.77 822.001C2351.67 879.934 2371.19 951.174 2338.64 1003.51C2305.97 1056.05 2232.1 1063.25 2171.92 1077.43C2123.1 1088.93 2073.78 1071.15 2024.05 1077.64C1964.12 1085.46 1906.53 1142.49 1850.73 1119.33C1796.55 1096.83 1790.24 1022.09 1763.91 969.64C1738.94 919.911 1699.69 874.273 1699.76 818.597C1699.83 762.846 1733.49 713.826 1764.29 667.332Z" fill="#FAF0D0"/>
<path fill-rule="evenodd" clip-rule="evenodd" d="M-456.572 273.105C-417.517 214.146 -376.772 149.198 -310.698 124.085C-246.413 99.6511 -177.174 134.863 -108.704 140.886C-46.406 146.366 22.9999 123.166 74.9177 158.006C126.672 192.735 124.753 269.549 159.832 321.086C198.983 378.607 268.844 412.147 292.461 477.619C320.094 554.221 345.912 648.42 302.874 717.625C259.669 787.097 161.998 796.608 82.4212 815.359C17.8656 830.57 -47.3458 807.062 -113.103 815.64C-192.352 825.979 -268.497 901.392 -342.274 870.762C-413.916 841.02 -422.267 742.187 -457.082 672.837C-490.092 607.082 -541.994 546.736 -541.9 473.117C-541.806 399.399 -497.296 334.582 -456.572 273.105Z" fill="#FAF0D0"/>
<path d="M386.631 367.402C384.182 357.517 374.631 350.151 363.231 350.151C361.183 350.147 359.142 350.39 357.152 350.874C354.072 345.082 349.453 340.253 343.803 336.92C338.154 333.587 331.693 331.879 325.135 331.984C321.558 331.97 317.998 332.469 314.562 333.464C310.461 327.361 304.905 322.372 298.397 318.949C291.888 315.525 284.63 313.774 277.277 313.853C258.44 313.853 242.405 324.936 236.309 340.442C231.815 338.122 226.829 336.913 221.771 336.918C205.261 336.918 191.816 349.253 191.816 364.618C191.81 365.513 191.857 366.407 191.957 367.296L386.631 367.402Z" fill="white"/>
<path d="M836.818 477.096C834.369 467.21 824.818 459.827 813.418 459.827C811.376 459.832 809.342 460.075 807.356 460.55C804.272 454.758 799.65 449.929 793.997 446.597C788.345 443.264 781.883 441.555 775.322 441.66C771.746 441.657 768.187 442.155 764.749 443.14C760.646 437.069 755.103 432.108 748.615 428.701C742.128 425.295 734.897 423.548 727.569 423.617C708.715 423.617 692.68 434.683 686.601 450.189C682.106 447.872 677.122 446.664 672.064 446.665C655.536 446.665 642.109 458.999 642.109 474.364C642.109 475.263 642.109 476.126 642.25 477.06L836.818 477.096Z" fill="white"/>
<path d="M1491 228.628C1493.87 217.051 1505.1 208.417 1518.42 208.417C1520.79 208.422 1523.16 208.706 1525.47 209.263C1529.07 202.479 1534.48 196.823 1541.1 192.921C1547.71 189.018 1555.28 187.021 1562.96 187.149C1567.14 187.152 1571.29 187.745 1575.3 188.911C1580.11 181.767 1586.62 175.933 1594.25 171.934C1601.88 167.935 1610.38 165.897 1619 166.004C1641.06 166.004 1659.86 178.973 1666.98 197.122C1672.25 194.424 1678.08 193.022 1684 193.034C1703.38 193.034 1719.01 207.554 1719.01 225.474C1719.01 226.527 1718.96 227.58 1718.85 228.628H1491Z" fill="white"/>
</g>
</svg>
