<svg width="1920" height="1152" viewBox="0 0 1920 1152" fill="none" xmlns="http://www.w3.org/2000/svg">
<mask id="mask0" mask-type="alpha" maskUnits="userSpaceOnUse" x="0" y="0" width="1920" height="1152">
<path d="M0 0H1920V1079.53C1920 1079.53 1415.5 1152 960 1152C504.5 1152 0 1079.53 0 1079.53V0Z" fill="#FEF8E5"/>
</mask>
<g mask="url(#mask0)">
<path d="M0 0H1920V1047.53C1920 1047.53 1415.5 1120 960 1120C504.5 1120 0 1047.53 0 1047.53V0Z" fill="#FEF8E5"/>
<path fill-rule="evenodd" clip-rule="evenodd" d="M1748.57 251.972C1803.05 242.456 1863.08 211.595 1911.13 238.963C1959.13 266.309 1954.7 337.657 1982.65 385.306C2010.83 433.363 2070.32 464.989 2076.16 520.388C2082.02 576.078 2040.24 624.055 2012.92 672.942C1985.25 722.464 1966.74 785.194 1915.07 808.641C1863.43 832.072 1805.28 793.716 1748.57 792.882C1692.95 792.064 1631.18 834.624 1584.88 803.786C1537.9 772.489 1558.06 695.498 1529.39 646.879C1500.34 597.605 1425.24 577.095 1417.77 520.388C1410.45 464.733 1456.69 415.627 1493.34 373.095C1526.04 335.157 1570.57 312.027 1615.82 290.552C1658.17 270.454 1702.39 260.04 1748.57 251.972Z" fill="#FAF0D0"/>
<path fill-rule="evenodd" clip-rule="evenodd" d="M74.5747 330.938C129.048 321.421 189.081 290.56 237.126 317.928C285.133 345.274 280.704 416.622 308.646 464.271C336.827 512.329 396.324 543.955 402.155 599.354C408.017 655.044 366.241 703.02 338.921 751.908C311.246 801.43 292.744 864.16 241.07 887.606C189.428 911.037 131.281 872.682 74.5747 871.848C18.9482 871.03 -42.8218 913.589 -89.1163 882.752C-136.1 851.455 -115.94 774.463 -144.609 725.844C-173.664 676.571 -248.761 656.061 -256.227 599.354C-263.554 543.699 -217.305 494.593 -180.655 452.061C-147.964 414.123 -103.429 390.992 -58.1785 369.518C-15.8271 349.42 28.3926 339.006 74.5747 330.938Z" fill="#FAF0D0"/>
<path d="M1691 181.921C1687.89 169.542 1675.78 160.297 1661.32 160.297C1658.73 160.303 1656.14 160.607 1653.63 161.202C1649.71 153.949 1643.85 147.902 1636.68 143.729C1629.51 139.555 1621.31 137.416 1612.99 137.548C1608.45 137.543 1603.94 138.167 1599.58 139.401C1594.37 131.798 1587.34 125.586 1579.11 121.32C1570.88 117.054 1561.71 114.866 1552.41 114.953C1528.49 114.953 1508.15 128.81 1500.44 148.227C1494.74 145.326 1488.42 143.813 1482 143.814C1461.03 143.814 1444 159.26 1444 178.501C1444 179.626 1444 180.707 1444.18 181.877L1691 181.921Z" fill="white"/>
<path d="M210 368.84C206.893 356.461 194.778 347.216 180.315 347.216C177.725 347.222 175.145 347.525 172.626 348.121C168.714 340.868 162.85 334.821 155.68 330.648C148.509 326.474 140.311 324.335 131.988 324.466C127.452 324.462 122.937 325.086 118.576 326.32C113.371 318.717 106.34 312.505 98.1098 308.239C89.8796 303.973 80.7072 301.785 71.4118 301.871C47.4941 301.871 27.1529 315.729 19.4412 335.146C13.7384 332.245 7.41557 330.732 1 330.733C-19.9671 330.733 -37 346.179 -37 365.42C-37 366.545 -37 367.626 -36.8211 368.796L210 368.84Z" fill="white"/>
<path d="M1699 337.853C1702.64 323.072 1716.87 312.047 1733.75 312.047C1736.76 312.054 1739.76 312.417 1742.68 313.127C1747.25 304.465 1754.11 297.244 1762.5 292.261C1770.88 287.278 1780.48 284.728 1790.21 284.892C1795.5 284.896 1800.77 285.653 1805.85 287.141C1811.94 278.02 1820.2 270.57 1829.87 265.465C1839.54 260.359 1850.32 257.757 1861.23 257.893C1889.2 257.893 1913.03 274.452 1922.05 297.626C1928.72 294.18 1936.12 292.39 1943.62 292.406C1968.19 292.406 1988 310.945 1988 333.826C1988 335.171 1987.93 336.515 1987.8 337.853H1699Z" fill="white"/>
<path d="M242.797 232.902C247.013 231.345 250.88 228.971 254.177 225.917C256.358 224.162 257.947 221.78 258.729 219.092C259.065 217.739 258.946 216.313 258.391 215.034C257.836 213.755 256.874 212.695 255.656 212.017C254.391 211.587 253.025 211.553 251.741 211.919C250.456 212.285 249.313 213.033 248.464 214.064C246.807 216.161 245.661 218.614 245.118 221.231C244.064 225.127 243.213 229.076 242.569 233.061L242.797 232.902Z" fill="#FFD530"/>
<path d="M264.806 269.689C270.087 270.576 275.617 271.441 280.738 269.689C283.606 268.711 286.497 266.208 285.928 263.251C285.647 262.237 285.058 261.336 284.243 260.672C283.427 260.007 282.425 259.613 281.376 259.542C279.261 259.446 277.161 259.951 275.321 260.998C271.27 263.015 267.735 265.933 264.988 269.53L264.806 269.689Z" fill="#FFD530"/>
<path d="M224.634 344.311C224.634 349.657 224.634 355.254 227.069 359.986C228.481 362.648 231.394 365.128 234.239 364.104C235.201 363.661 236.002 362.931 236.532 362.015C237.062 361.098 237.295 360.039 237.198 358.985C237.005 356.888 236.215 354.891 234.922 353.229C232.299 349.543 228.865 346.508 224.885 344.356L224.634 344.311Z" fill="#FFD530"/>
<path d="M128.312 232.356C126.651 228.185 124.175 224.388 121.028 221.185C119.192 219.078 116.753 217.585 114.041 216.908C112.67 216.613 111.24 216.781 109.975 217.386C108.711 217.992 107.683 219 107.054 220.252C106.656 221.533 106.661 222.904 107.068 224.182C107.475 225.459 108.265 226.581 109.33 227.396C111.479 228.986 113.962 230.067 116.59 230.558C120.459 231.537 124.556 232.196 128.517 232.833L128.312 232.356Z" fill="#FFD530"/>
<path d="M161.178 209.696C162.103 205.304 162.142 200.771 161.292 196.364C160.933 193.59 159.715 190.996 157.809 188.947C156.846 187.946 155.579 187.29 154.205 187.08C152.831 186.871 151.426 187.119 150.207 187.787C149.165 188.628 148.406 189.768 148.032 191.053C147.657 192.339 147.686 193.708 148.113 194.976C149.022 197.49 150.493 199.762 152.415 201.619C155.101 204.554 158.151 207.375 161.11 210.06L161.178 209.696Z" fill="#FFD530"/>
<path d="M207.268 203.895C209.954 199.344 212.708 194.385 212.867 189.038C212.867 186.035 211.638 182.441 208.679 181.94C207.622 181.849 206.563 182.086 205.646 182.619C204.729 183.153 204 183.957 203.558 184.921C202.732 186.88 202.472 189.032 202.807 191.132C203.277 195.626 204.772 199.953 207.177 203.781L207.268 203.895Z" fill="#FFD530"/>
<path d="M254.769 308.979C257.22 312.73 260.401 315.948 264.123 318.444C266.35 320.137 269.043 321.106 271.839 321.219C273.227 321.241 274.583 320.808 275.701 319.986C276.819 319.165 277.637 317.999 278.03 316.669C278.173 315.34 277.905 314 277.262 312.828C276.619 311.656 275.632 310.71 274.434 310.117C272.008 308.98 269.351 308.419 266.672 308.479C262.627 308.35 258.578 308.426 254.541 308.706L254.769 308.979Z" fill="#FFD530"/>
<path d="M187.147 355.117C184.817 358.963 183.27 363.231 182.595 367.676C182.038 370.422 182.34 373.274 183.46 375.843C184.052 377.102 185.04 378.133 186.273 378.778C187.506 379.423 188.916 379.646 190.288 379.415C191.543 378.958 192.629 378.129 193.401 377.04C194.174 375.951 194.596 374.653 194.613 373.318C194.587 370.643 193.94 368.011 192.724 365.628C191.153 361.965 189.173 358.302 187.238 354.799L187.147 355.117Z" fill="#FFD530"/>
<path d="M150.321 342.946C146.018 344.226 142.011 346.344 138.531 349.18C136.265 350.819 134.557 353.114 133.638 355.755C133.221 357.081 133.252 358.506 133.725 359.813C134.198 361.12 135.087 362.236 136.255 362.989C137.486 363.505 138.845 363.634 140.15 363.357C141.456 363.081 142.646 362.413 143.561 361.442C145.346 359.45 146.654 357.077 147.385 354.503C148.705 350.749 149.661 346.723 150.685 342.855L150.321 342.946Z" fill="#FFD530"/>
<path d="M110.467 272.169C107.184 269.092 103.314 266.709 99.0872 265.162C96.5237 264.047 93.6795 263.745 90.939 264.297C89.5807 264.605 88.3614 265.351 87.4689 266.42C86.5765 267.489 86.0603 268.822 86 270.212C86.1806 271.535 86.7613 272.772 87.6644 273.756C88.5674 274.74 89.7496 275.424 91.0527 275.718C93.6768 276.248 96.3882 276.163 98.9735 275.468C102.932 274.65 106.844 273.625 110.695 272.396L110.467 272.169Z" fill="#FFD530"/>
<path d="M118.912 313.825C113.586 313.552 107.987 313.302 103.139 315.577C100.43 316.874 97.8128 319.695 98.7232 322.561C99.1278 323.539 99.8228 324.368 100.714 324.938C101.606 325.507 102.651 325.79 103.708 325.746C105.826 325.595 107.86 324.855 109.58 323.608C113.372 321.144 116.549 317.844 118.866 313.962L118.912 313.825Z" fill="#FFD530"/>
<path d="M162.52 215.93C184.097 207.057 228.116 207.125 248.1 252.535C268.083 297.945 238.609 327.134 218.989 336.712C199.37 346.29 148.432 353.639 126.832 311.505C105.233 269.371 132.795 228.078 162.52 215.839" fill="#FFE96B"/>
</g>
</svg>
