<svg width="1920" height="1120" viewBox="0 0 1920 1120" fill="none" xmlns="http://www.w3.org/2000/svg">
<mask id="mask0" mask-type="alpha" maskUnits="userSpaceOnUse" x="0" y="0" width="1920" height="1120">
<path d="M0 0H1920V1120C1920 1120 1317 1070 960 1070C603 1070 0 1120 0 1120V0Z" fill="#E7F2F0"/>
</mask>
<g mask="url(#mask0)">
<path d="M0 0H1920V1120C1920 1120 1317 1070 960 1070C603 1070 0 1120 0 1120V0Z" fill="#E7F2F0"/>
<path fill-rule="evenodd" clip-rule="evenodd" d="M14.2438 298.751C67.1878 305.179 125.394 289.211 170.351 317.86C214.994 346.309 216.71 411.477 252.419 450.528C301.49 504.194 400.556 517.083 417.204 587.823C432.863 654.357 380 724.738 327.186 768.218C277.92 808.776 200.875 783.194 144.205 812.571C91.3629 839.964 72.7716 919.528 14.2438 930.443C-43.583 941.227 -94.6385 893.407 -147.136 866.904C-202.527 838.94 -261.188 816.624 -302.617 770.477C-349.282 718.498 -412.979 655.936 -397.683 587.823C-381.427 515.437 -274.42 506.493 -229.984 447.039C-193.063 397.641 -218.185 309.114 -165.44 277.089C-113 245.248 -46.6826 291.353 14.2438 298.751Z" fill="#D6EEEC"/>
<path fill-rule="evenodd" clip-rule="evenodd" d="M14.2438 298.751C67.1878 305.179 125.394 289.211 170.351 317.86C214.994 346.309 216.71 411.477 252.419 450.528C301.49 504.194 400.556 517.083 417.204 587.823C432.863 654.357 380 724.738 327.186 768.218C277.92 808.776 200.875 783.194 144.205 812.571C91.3629 839.964 72.7716 919.528 14.2438 930.443C-43.583 941.227 -94.6385 893.407 -147.136 866.904C-202.527 838.94 -261.188 816.624 -302.617 770.477C-349.282 718.498 -412.979 655.936 -397.683 587.823C-381.427 515.437 -274.42 506.493 -229.984 447.039C-193.063 397.641 -218.185 309.114 -165.44 277.089C-113 245.248 -46.6826 291.353 14.2438 298.751Z" fill="#D6EEEC"/>
<path fill-rule="evenodd" clip-rule="evenodd" d="M1787.24 374.751C1840.19 381.179 1898.39 365.211 1943.35 393.86C1987.99 422.309 1989.71 487.477 2025.42 526.528C2074.49 580.194 2173.56 593.083 2190.2 663.823C2205.86 730.357 2153 800.738 2100.19 844.218C2050.92 884.776 1973.88 859.194 1917.21 888.571C1864.36 915.964 1845.77 995.528 1787.24 1006.44C1729.42 1017.23 1678.36 969.407 1625.86 942.904C1570.47 914.94 1511.81 892.624 1470.38 846.477C1423.72 794.498 1360.02 731.936 1375.32 663.823C1391.57 591.437 1498.58 582.493 1543.02 523.039C1579.94 473.641 1554.81 385.114 1607.56 353.089C1660 321.248 1726.32 367.353 1787.24 374.751Z" fill="#D6EEEC"/>
<path d="M1920 324C1916.78 311.061 1904.22 301.398 1889.23 301.398C1886.55 301.404 1883.87 301.721 1881.26 302.343C1877.21 294.762 1871.13 288.443 1863.7 284.08C1856.27 279.718 1847.77 277.482 1839.15 277.619C1834.44 277.615 1829.76 278.267 1825.25 279.557C1819.85 271.61 1812.56 265.117 1804.03 260.658C1795.5 256.199 1786 253.912 1776.36 254.003C1751.57 254.003 1730.49 268.486 1722.5 288.782C1716.59 285.75 1710.03 284.168 1703.38 284.17C1681.65 284.17 1664 300.314 1664 320.425C1664 321.601 1664 322.732 1664.19 323.954L1920 324Z" fill="white"/>
<path d="M288 217C285.384 206.464 275.181 198.595 263.002 198.595C260.821 198.601 258.648 198.859 256.527 199.365C253.233 193.192 248.295 188.046 242.256 184.494C236.218 180.942 229.315 179.121 222.306 179.233C218.486 179.229 214.684 179.76 211.012 180.811C206.629 174.34 200.707 169.052 193.777 165.421C186.846 161.79 179.122 159.929 171.294 160.002C151.153 160.002 134.024 171.796 127.529 188.323C122.727 185.853 117.403 184.565 112 184.567C94.3435 184.567 80 197.713 80 214.089C80 215.047 80 215.967 80.1506 216.962L288 217Z" fill="white"/>
</g>
</svg>
