<svg width="1920" height="900" viewBox="0 0 1920 900" fill="none" xmlns="http://www.w3.org/2000/svg">
<mask id="mask0" mask-type="alpha" maskUnits="userSpaceOnUse" x="0" y="0" width="1920" height="900">
<path d="M0 0H1920V840C1920 840 1317 900 960 900C603 900 0 840 0 840V0Z" fill="#FEF8E4"/>
</mask>
<g mask="url(#mask0)">
<path d="M0 -10H1920V830C1920 830 1317 890 960 890C603 890 0 830 0 830V-10Z" fill="#FEF8E4"/>
<path fill-rule="evenodd" clip-rule="evenodd" d="M119.316 95.3111C174.132 98.3583 233.623 100.189 276.359 134.635C317.938 168.148 321.499 228.391 344.315 276.663C365.073 320.583 407.834 358.014 404.852 406.497C401.879 454.828 349.664 483.687 328.892 527.432C305.707 576.256 310.632 636.26 276.029 677.789C235.544 726.379 182.558 780.658 119.316 778.961C55.8284 777.257 11.1548 715.503 -32.6132 669.506C-68.1195 632.192 -77.9426 579.243 -109.477 538.521C-147.48 489.443 -227.865 467.984 -236.276 406.497C-244.444 346.79 -181.503 302.404 -148.693 251.844C-117.584 203.906 -97.5072 145.424 -48.148 116.595C1.27759 87.7275 62.158 92.1336 119.316 95.3111Z" fill="#FAF0D0"/>
<path d="M289 409C285.78 396.061 273.223 386.398 258.234 386.398C255.549 386.404 252.875 386.721 250.264 387.343C246.21 379.762 240.132 373.443 232.7 369.08C225.269 364.718 216.772 362.482 208.146 362.619C203.444 362.615 198.765 363.267 194.245 364.557C188.851 356.61 181.563 350.117 173.033 345.658C164.503 341.199 154.996 338.912 145.362 339.003C120.573 339.003 99.4905 353.486 91.4977 373.782C85.5872 370.75 79.034 369.168 72.3846 369.17C50.6536 369.17 33 385.314 33 405.425C33 406.601 33 407.732 33.1854 408.954L289 409Z" fill="white"/>
<path fill-rule="evenodd" clip-rule="evenodd" d="M2016.34 210.146C2067.31 212.976 2122.64 214.676 2162.38 246.661C2201.04 277.781 2204.35 333.72 2225.57 378.544C2244.87 419.327 2284.63 454.085 2281.86 499.105C2279.1 543.983 2230.54 570.781 2211.23 611.401C2189.67 656.738 2194.25 712.456 2162.07 751.019C2124.42 796.138 2075.15 846.54 2016.34 844.964C1957.3 843.382 1915.76 786.038 1875.06 743.327C1842.04 708.679 1832.91 659.512 1803.58 621.698C1768.25 576.125 1693.49 556.2 1685.67 499.105C1678.08 443.662 1736.61 402.446 1767.12 355.498C1796.05 310.984 1814.72 256.679 1860.61 229.91C1906.58 203.104 1963.19 207.195 2016.34 210.146Z" fill="#FAF0D0"/>
<path d="M1920 377C1916.78 364.061 1904.22 354.398 1889.23 354.398C1886.55 354.404 1883.87 354.721 1881.26 355.343C1877.21 347.762 1871.13 341.443 1863.7 337.08C1856.27 332.718 1847.77 330.482 1839.15 330.619C1834.44 330.615 1829.76 331.267 1825.25 332.557C1819.85 324.61 1812.56 318.117 1804.03 313.658C1795.5 309.199 1786 306.912 1776.36 307.003C1751.57 307.003 1730.49 321.486 1722.5 341.782C1716.59 338.75 1710.03 337.168 1703.38 337.17C1681.65 337.17 1664 353.314 1664 373.425C1664 374.601 1664 375.732 1664.19 376.954L1920 377Z" fill="white"/>
</g>
</svg>
