<svg width="722" height="549" viewBox="0 0 722 549" fill="none" xmlns="http://www.w3.org/2000/svg">
<g clip-path="url(#clip0)">
<path opacity="0.47" d="M671.407 279.753C668.253 243.492 653.093 207.193 626.837 181.249C585.914 140.815 524.036 130.612 469.795 139.962C446.997 143.888 424.541 150.81 401.286 148.629C367.355 145.443 337.47 123.633 306.579 107.626C264.535 85.8546 216.336 74.1342 171.69 83.5978C120.945 94.3509 79.3948 134.936 74.4362 188.778C72.1754 213.186 95.0116 256.161 87.7352 279.298C80.4208 302.739 27.073 374.578 28.3839 429.122C29.6948 483.665 41.9868 500.487 59.3514 528.157H573.071C616.673 528.157 647.583 484.234 633.429 441.999C633.296 441.62 633.182 441.259 633.049 440.899C622.942 411.484 650.414 387.247 661.053 359.88C670.647 335.681 673.706 306.304 671.407 279.753Z" fill="#FAF0D0"/>
<path d="M27.9467 287.795C21.8672 274.348 26.5978 257.868 38.5289 251.002C50.4599 244.137 73.3341 244.649 79.4326 258.152C85.5312 271.655 67.1596 283.091 59.6552 295.589C49.206 313.037 34.0452 301.241 27.9467 287.795Z" fill="#FAF0D0"/>
<path d="M535.549 26.551C538.056 14.4133 549.398 5.51874 560.912 6.71354C572.425 7.90834 587.699 19.5339 585.154 31.6905C582.608 43.8471 564.502 42.6144 553.217 47.4315C537.543 54.1641 533.06 38.6696 535.549 26.551Z" fill="#FAF0D0"/>
<path d="M681.02 455.805C684.213 458.696 686.271 462.628 686.824 466.895C687.378 471.162 686.391 475.487 684.041 479.095C679.158 486.472 666.525 493.11 659.989 487.61C653.454 482.11 660.73 470.276 661.889 461.173C663.39 448.466 674.447 450.306 681.02 455.805Z" fill="#FAF0D0"/>
<path d="M694.319 134.538C690.491 137.416 685.761 138.839 680.977 138.55C676.193 138.262 671.669 136.281 668.215 132.964C661.167 126.118 656.531 110.964 663.903 104.971C671.274 98.9785 682.711 109.409 692.4 112.558C706.022 116.844 701.691 128.564 694.319 134.538Z" fill="#FAF0D0"/>
<path opacity="0.41" d="M432.919 98.3335C438.219 89.2493 448.858 86.6131 456.686 92.4544C464.513 98.2956 472.037 114.435 466.755 123.519C461.473 132.603 448.896 123.955 439.492 123.235C426.345 122.229 427.637 107.418 432.919 98.3335Z" fill="#FAF0D0"/>
<path d="M586.104 490.36C591.404 459.011 582.893 432.27 580.784 401.528C578.77 372.435 587.472 347.951 592.297 320.244C596.591 295.589 595.166 267.634 589.77 243.397C582.399 210.284 565.452 179.637 541.001 160.956C503.004 131.845 452.145 135.277 410.083 155.267C392.471 163.649 375.41 174.801 356.545 177.626C329.016 181.78 302.247 167.708 275.478 159.306C238.982 147.813 198.914 146.96 164.489 165.109C125.39 185.63 97.6713 232.113 100.901 283.281C102.383 306.475 109.887 329.366 107.228 352.408C104.53 375.773 92.8457 395.326 86.6522 417.326C78.2168 447.366 77.4379 491.517 91.0218 521.994L542.198 528.252C563.534 528.537 582.19 512.758 586.047 490.701L586.104 490.36Z" fill="#FAF0D0"/>
<path opacity="0.22" d="M721.943 203.4V186.787C721.943 183.24 718.143 180.358 713.565 180.377L572.786 180.585C572.085 180.447 571.372 180.377 570.658 180.377L389.469 180.642C384.853 180.642 381.11 183.544 381.11 187.09V203.4V414.272C381.14 421.185 383.919 427.803 388.835 432.672C393.751 437.54 400.403 440.261 407.328 440.236H695.782C702.697 440.246 709.334 437.518 714.238 432.651C719.142 427.785 721.913 421.175 721.943 414.272V203.4Z" fill="#5957C1"/>
<path d="M690.082 432.649H401.533C394.608 432.675 387.957 429.954 383.04 425.085C378.124 420.217 375.345 413.599 375.315 406.686V195.814H716.243V406.686C716.213 413.589 713.442 420.198 708.538 425.065C703.634 429.932 696.997 432.659 690.082 432.649Z" fill="white"/>
<path d="M383.77 173.056L565.072 172.791C565.793 172.792 566.512 172.862 567.219 172.999L707.979 172.791C712.596 172.791 716.357 175.654 716.357 179.201V198.166L573.451 197.786V198.166L375.391 197.635V179.504C375.315 175.958 379.058 173.075 383.77 173.056Z" fill="#EA7D8A"/>
<path d="M701.291 190.029C700.253 190.029 699.258 189.618 698.524 188.885C697.79 188.152 697.378 187.159 697.378 186.123C697.378 185.086 697.79 184.093 698.524 183.36C699.258 182.627 700.253 182.216 701.291 182.216C702.329 182.216 703.325 182.627 704.059 183.36C704.793 184.093 705.205 185.086 705.205 186.123C705.195 187.156 704.78 188.144 704.048 188.874C703.316 189.605 702.326 190.02 701.291 190.029Z" fill="white"/>
<path d="M686.055 190.048C685.017 190.048 684.021 189.637 683.287 188.904C682.553 188.172 682.141 187.178 682.141 186.142C682.141 185.106 682.553 184.112 683.287 183.379C684.021 182.646 685.017 182.235 686.055 182.235C687.093 182.235 688.088 182.646 688.822 183.379C689.556 184.112 689.968 185.106 689.968 186.142C689.968 187.178 689.556 188.172 688.822 188.904C688.088 189.637 687.093 190.048 686.055 190.048Z" fill="white"/>
<path d="M671.122 190.068C670.346 190.076 669.585 189.852 668.937 189.425C668.289 188.999 667.784 188.389 667.486 187.673C667.188 186.958 667.111 186.17 667.264 185.411C667.418 184.651 667.795 183.955 668.348 183.411C668.707 183.046 669.136 182.757 669.609 182.561C670.082 182.366 670.591 182.268 671.103 182.273C671.639 182.236 672.176 182.309 672.682 182.488C673.188 182.667 673.652 182.948 674.045 183.313C674.437 183.679 674.75 184.121 674.965 184.613C675.179 185.104 675.289 185.635 675.289 186.17C675.289 186.706 675.179 187.237 674.965 187.728C674.75 188.22 674.437 188.662 674.045 189.028C673.652 189.393 673.188 189.674 672.682 189.853C672.176 190.032 671.639 190.105 671.103 190.068H671.122Z" fill="white"/>
<path opacity="0.83" d="M694.585 220.089H406.492V405.985H694.585V220.089Z" fill="#F7E0DE"/>
<path d="M546.625 237.291H484.993V298.813H546.625V237.291Z" fill="white"/>
<path opacity="0.83" d="M535.112 248.783H496.507V287.32H535.112V248.783Z" fill="#F7E0DE"/>
<path d="M443.197 229.192V259.821H473.917V229.192H443.197ZM450.473 236.456H466.641V252.595H450.473V236.456Z" fill="white"/>
<path d="M429.119 275.315V336.591H468.541V275.315H429.119ZM434.287 283.338H463.392V328.588H434.287V283.338Z" fill="white"/>
<path d="M569.537 457.171L675.929 431.265L698.005 331.547C701.365 316.468 698.912 300.678 691.135 287.323C683.358 273.968 670.827 264.027 656.037 259.48L601.587 242.752L602.518 254.131L571.019 323.828L534.561 258.455L534.371 256.256L498.483 271.94C486.11 277.35 475.48 286.073 467.767 297.142C460.055 308.212 455.562 321.196 454.786 334.657L445.952 441.885L526.125 457.057H569.537V457.171Z" fill="#39374A"/>
<path d="M606.489 123.633C602.461 115.63 592.107 112.254 584.014 110.054C582.855 109.75 574.192 108.764 573.85 108.157C573.454 107.318 572.991 106.512 572.463 105.749C570.572 103.08 568.137 100.84 565.318 99.1766C562.499 97.513 559.359 96.463 556.105 96.0956C539.918 94.0094 533.022 102.126 524.017 110.111C521.764 109.607 519.433 109.56 517.162 109.972C514.89 110.384 512.725 111.247 510.794 112.51C508.863 113.773 507.205 115.409 505.919 117.323C504.634 119.237 503.746 121.389 503.308 123.652C502.131 126.484 501.631 129.551 501.849 132.609C502.067 135.667 502.996 138.633 504.562 141.27C503.03 143.515 502.056 146.093 501.722 148.789C501.389 151.485 501.704 154.222 502.643 156.771C503.582 159.321 505.117 161.61 507.121 163.449C509.125 165.287 511.539 166.622 514.163 167.341C516.787 168.061 519.546 168.144 522.209 167.586C524.872 167.027 527.363 165.842 529.475 164.128C531.587 162.415 533.259 160.223 534.352 157.735C535.444 155.247 535.926 152.535 535.758 149.824C535.686 148.537 535.463 147.264 535.093 146.031C535.672 145.509 536.223 144.959 536.746 144.381C539.154 145.781 541.923 146.441 544.706 146.277C548.081 146.121 551.291 144.777 553.768 142.484C556.238 142.332 558.518 142.086 560.589 141.763C563.27 143.776 566.578 144.776 569.928 144.585C573.277 144.394 576.45 143.025 578.884 140.72C579.951 142.107 580.785 143.657 581.354 145.31C582.874 150.051 582.38 155.323 582.627 160.235C582.741 162.492 582.779 164.768 582.912 167.025C583.66 170.346 584.624 173.615 585.8 176.811C588.592 180.926 597.047 173.473 597.047 173.473C597.047 173.473 599.327 170.439 600.163 170.533C609.016 171.595 609.111 143.034 609.13 137.838C609.367 132.962 608.463 128.099 606.489 123.633Z" fill="#211B38"/>
<path opacity="0.19" d="M608.997 142.237L581.354 145.272C581.924 147.172 582.268 149.132 582.38 151.113L608.788 148.287C608.864 146.125 608.94 144.134 608.997 142.237Z" fill="white"/>
<path opacity="0.19" d="M582.456 155.513C582.456 157.125 582.456 158.718 582.551 160.292V161.487L607.458 158.832C607.819 156.935 608.085 154.792 608.294 152.744L582.456 155.513Z" fill="white"/>
<path opacity="0.46" d="M512.256 146.561V146.542L512.617 170.457L512.256 146.561Z" fill="#DF6969"/>
<path d="M595.432 167.935C594.818 167.922 594.219 168.117 593.732 168.489C593.245 168.862 592.9 169.389 592.753 169.983C591.898 173.397 589.789 179.466 586.255 174.307C585.203 171.67 584.377 168.948 583.786 166.171C583.653 163.782 583.615 161.392 583.482 159.002C583.235 153.825 583.729 148.287 582.133 143.28C581.693 141.857 581.053 140.504 580.233 139.26C578.808 141.027 576.982 142.43 574.905 143.353C572.829 144.276 570.562 144.691 568.293 144.565C566.024 144.439 563.818 143.775 561.857 142.628C559.896 141.481 558.236 139.885 557.017 137.97C556.091 139.981 554.711 141.75 552.985 143.138C551.259 144.526 549.234 145.497 547.069 145.973C544.905 146.449 542.659 146.417 540.508 145.881C538.358 145.345 536.361 144.318 534.675 142.882C531.855 145.84 528.229 147.908 524.244 148.828C520.259 149.749 516.091 149.481 512.256 148.06L512.56 167.764V170.457L513.168 211.365V213.527C513.279 220.799 516.094 227.77 521.065 233.087C526.037 238.404 532.81 241.686 540.07 242.297L542.597 257.791C543.056 260.636 544.073 263.363 545.589 265.816C547.106 268.268 549.091 270.398 551.433 272.084C553.774 273.77 556.426 274.978 559.236 275.64C562.046 276.302 564.958 276.404 567.808 275.941L583.121 273.475C588.877 272.54 594.027 269.362 597.439 264.64C600.851 259.918 602.248 254.038 601.321 248.29L593.722 201.143V196.591C597.221 196.551 600.587 195.251 603.202 192.931C605.816 190.61 607.503 187.424 607.952 183.96L608.18 182.064C608.469 180.263 608.351 178.421 607.833 176.672C607.316 174.923 606.413 173.312 605.19 171.957C603.968 170.601 602.457 169.537 600.768 168.841C599.079 168.145 597.256 167.836 595.432 167.935Z" fill="#E8A396"/>
<path opacity="0.5" d="M540.165 242.297C540.165 242.297 564.654 240.704 574.952 230.425C574.952 230.425 574.724 250.509 543.034 259.859L540.165 242.297Z" fill="#DF6969"/>
<path d="M542.388 223.787C542.536 223.756 542.672 223.685 542.782 223.582C542.891 223.479 542.97 223.347 543.009 223.202C543.049 223.057 543.047 222.903 543.004 222.759C542.962 222.614 542.88 222.485 542.768 222.384C541.562 221.325 540.06 220.66 538.464 220.477C536.868 220.294 535.255 220.602 533.839 221.36C533.656 221.474 533.524 221.652 533.467 221.86C533.411 222.067 533.435 222.288 533.535 222.479C533.588 222.572 533.659 222.655 533.745 222.721C533.83 222.787 533.928 222.836 534.032 222.864C534.136 222.892 534.245 222.899 534.352 222.885C534.459 222.871 534.562 222.836 534.656 222.782C535.774 222.196 537.043 221.96 538.297 222.105C539.551 222.251 540.732 222.771 541.685 223.598C541.781 223.679 541.894 223.738 542.015 223.771C542.137 223.804 542.264 223.809 542.388 223.787Z" fill="#DF6969"/>
<path d="M542.236 159.306C543.775 158.91 545.38 158.839 546.948 159.098C548.6 159.249 550.291 159.363 551.754 159.401C553.217 159.439 554.889 159.401 556.561 159.401C558.135 159.228 559.728 159.389 561.234 159.875C562.469 160.444 562.944 161.98 561.405 163.801C560.08 165.06 558.503 166.026 556.777 166.634C555.052 167.242 553.217 167.478 551.393 167.328C549.581 167.382 547.778 167.043 546.109 166.336C544.44 165.629 542.944 164.57 541.723 163.232C540.355 161.354 540.963 159.856 542.236 159.306Z" fill="#211B38"/>
<path d="M512.598 164.446C513.837 164.776 515.131 164.847 516.398 164.654C517.785 164.54 519.191 164.465 520.388 164.427C521.585 164.389 523.009 164.427 524.396 164.427C525.676 164.563 526.969 164.433 528.196 164.047C529.241 163.592 529.64 162.322 528.367 160.804C527.274 159.755 525.971 158.947 524.543 158.434C523.116 157.921 521.597 157.714 520.084 157.827C518.602 157.8 517.132 158.087 515.77 158.669C514.407 159.251 513.184 160.114 512.18 161.203C511.059 162.777 511.534 164.028 512.598 164.446Z" fill="#211B38"/>
<path d="M598.586 187.279C598.714 187.252 598.835 187.195 598.937 187.113C599.039 187.03 599.121 186.925 599.175 186.805C599.219 186.707 599.243 186.601 599.246 186.493C599.249 186.385 599.23 186.278 599.192 186.178C599.153 186.077 599.094 185.985 599.02 185.908C598.945 185.83 598.856 185.767 598.757 185.724L594.653 183.96L597.788 177.057C597.846 176.958 597.882 176.848 597.895 176.735C597.908 176.621 597.896 176.506 597.861 176.396C597.826 176.287 597.769 176.187 597.692 176.101C597.616 176.016 597.522 175.947 597.418 175.901C597.313 175.854 597.2 175.829 597.085 175.829C596.97 175.829 596.857 175.853 596.752 175.899C596.647 175.946 596.553 176.014 596.476 176.099C596.399 176.184 596.341 176.284 596.306 176.393L592.506 184.795L598.092 187.241C598.251 187.294 598.421 187.307 598.586 187.279Z" fill="#DF6969"/>
<path d="M524.568 176.868C524.867 177.352 525.016 177.914 524.996 178.483C524.976 179.052 524.788 179.603 524.455 180.065C524.122 180.527 523.659 180.881 523.125 181.081C522.591 181.281 522.009 181.318 521.454 181.189C520.899 181.06 520.394 180.769 520.004 180.354C519.614 179.938 519.355 179.417 519.262 178.855C519.168 178.294 519.243 177.717 519.477 177.198C519.711 176.679 520.094 176.24 520.578 175.938C520.901 175.737 521.26 175.601 521.636 175.538C522.011 175.476 522.396 175.488 522.766 175.574C523.137 175.661 523.487 175.82 523.796 176.041C524.105 176.263 524.368 176.544 524.568 176.868Z" fill="#211B38"/>
<path d="M553.863 175.275C554.163 175.759 554.312 176.322 554.292 176.891C554.272 177.46 554.083 178.01 553.75 178.472C553.417 178.934 552.955 179.288 552.421 179.488C551.887 179.688 551.305 179.726 550.75 179.596C550.194 179.467 549.69 179.176 549.299 178.761C548.909 178.346 548.651 177.824 548.557 177.263C548.464 176.701 548.539 176.124 548.773 175.605C549.007 175.086 549.39 174.648 549.873 174.346C550.196 174.144 550.556 174.008 550.931 173.945C551.307 173.883 551.691 173.895 552.062 173.982C552.433 174.068 552.783 174.227 553.092 174.449C553.401 174.671 553.663 174.951 553.863 175.275Z" fill="#211B38"/>
<path d="M512.959 187.507C511.358 187.509 509.817 186.895 508.657 185.794C507.497 184.692 506.806 183.187 506.728 181.59L506.329 173.7C506.251 172.051 506.832 170.439 507.943 169.216C509.054 167.993 510.605 167.26 512.256 167.176L524.339 166.57C525.169 166.529 525.998 166.652 526.779 166.933C527.56 167.214 528.277 167.646 528.89 168.205C529.503 168.764 529.999 169.438 530.349 170.189C530.7 170.941 530.898 171.754 530.932 172.582L531.331 180.452C531.414 182.104 530.836 183.722 529.724 184.949C528.613 186.175 527.058 186.912 525.403 186.995L513.32 187.602L512.959 187.507ZM524.643 168.466H524.434L512.351 169.073C511.782 169.1 511.224 169.238 510.709 169.481C510.193 169.723 509.731 170.065 509.348 170.486C508.965 170.907 508.669 171.399 508.477 171.934C508.285 172.47 508.201 173.038 508.229 173.606L508.628 181.495C508.652 182.066 508.79 182.626 509.033 183.143C509.276 183.66 509.62 184.123 510.044 184.506C510.468 184.889 510.965 185.184 511.505 185.374C512.044 185.563 512.616 185.644 513.187 185.611L525.251 185.004C525.822 184.977 526.382 184.838 526.899 184.594C527.415 184.351 527.879 184.007 528.262 183.584C528.645 183.161 528.94 182.667 529.131 182.129C529.322 181.592 529.405 181.022 529.374 180.452L528.994 172.582C528.936 171.479 528.46 170.441 527.663 169.676C526.865 168.912 525.806 168.479 524.7 168.466H524.643Z" fill="white"/>
<path d="M542.122 193.538C542.258 193.516 542.382 193.446 542.472 193.343C542.563 193.239 542.613 193.106 542.616 192.969C542.621 192.889 542.611 192.809 542.585 192.733C542.559 192.658 542.518 192.588 542.465 192.528C542.412 192.468 542.348 192.419 542.276 192.384C542.204 192.349 542.126 192.329 542.046 192.324L536.347 192.077C534.47 191.835 532.762 190.871 531.588 189.39C530.413 187.909 529.864 186.029 530.058 184.15V183.562C530.038 182.776 530.33 182.013 530.871 181.441C531.412 180.869 532.158 180.534 532.946 180.509C533.812 180.542 534.676 180.39 535.479 180.063C536.282 179.736 537.005 179.241 537.6 178.612C538.874 177.286 539.611 175.536 539.671 173.7L540.013 165.109C540.018 165.028 540.007 164.946 539.98 164.87C539.953 164.793 539.911 164.722 539.856 164.662C539.801 164.602 539.734 164.553 539.66 164.519C539.586 164.485 539.506 164.467 539.424 164.464C539.264 164.464 539.11 164.525 538.994 164.634C538.877 164.743 538.807 164.893 538.797 165.052L538.455 173.643C538.405 175.181 537.79 176.646 536.727 177.759C536.247 178.281 535.658 178.69 535 178.955C534.343 179.221 533.635 179.337 532.927 179.295C531.813 179.31 530.75 179.762 529.968 180.554C529.186 181.345 528.747 182.412 528.747 183.524V184.112C528.535 186.337 529.217 188.556 530.641 190.28C532.066 192.004 534.118 193.094 536.347 193.31L542.046 193.557C542.046 193.557 542.084 193.538 542.122 193.538Z" fill="#DF6969"/>
<path d="M541.932 194.486L536.327 194.239C533.846 193.98 531.566 192.757 529.98 190.834C528.395 188.91 527.631 186.441 527.854 183.96V183.391C527.851 182.713 527.984 182.042 528.245 181.416C528.505 180.789 528.888 180.221 529.371 179.745C529.854 179.268 530.427 178.892 531.057 178.639C531.687 178.386 532.362 178.261 533.041 178.271C533.597 178.279 534.15 178.173 534.663 177.957C535.177 177.742 535.64 177.422 536.023 177.019C536.92 176.065 537.44 174.818 537.486 173.511L537.847 164.995C537.867 164.591 538.041 164.21 538.335 163.931C538.629 163.652 539.019 163.497 539.424 163.497C539.632 163.502 539.837 163.548 540.027 163.633C540.216 163.718 540.387 163.841 540.529 163.993C540.67 164.145 540.78 164.323 540.851 164.518C540.923 164.713 540.954 164.921 540.944 165.128L540.602 173.719C540.537 175.79 539.704 177.764 538.265 179.257C537.579 179.986 536.743 180.56 535.816 180.939C534.889 181.319 533.89 181.495 532.889 181.457C532.676 181.449 532.464 181.483 532.265 181.558C532.066 181.633 531.884 181.747 531.73 181.893C531.271 182.345 531.005 182.957 530.989 183.6V184.188C530.811 185.832 531.287 187.48 532.314 188.778C533.34 190.076 534.836 190.92 536.479 191.129L542.179 191.376C542.593 191.397 542.982 191.581 543.262 191.888C543.4 192.038 543.507 192.214 543.576 192.407C543.644 192.599 543.673 192.803 543.661 193.007C543.649 193.356 543.519 193.691 543.291 193.957C543.063 194.222 542.751 194.402 542.407 194.467L541.932 194.486Z" fill="#DF6969"/>
<path d="M531.084 175.919C530.959 175.936 530.832 175.927 530.711 175.894C530.589 175.862 530.476 175.806 530.376 175.729C530.175 175.574 530.043 175.346 530.01 175.094C529.978 174.843 530.046 174.589 530.201 174.388C530.356 174.187 530.585 174.056 530.837 174.023L531.312 173.89C534.856 172.978 538.554 172.83 542.16 173.454C542.407 173.5 542.627 173.641 542.773 173.846C542.918 174.052 542.978 174.306 542.939 174.554C542.892 174.801 542.751 175.021 542.546 175.166C542.34 175.311 542.086 175.37 541.837 175.332C538.496 174.761 535.072 174.897 531.787 175.73L531.312 175.863L531.084 175.919Z" fill="white"/>
<path d="M547.822 185.857C546.22 185.855 544.68 185.24 543.517 184.14C542.355 183.04 541.658 181.537 541.571 179.94L541.191 172.051C541.14 171.223 541.254 170.394 541.528 169.611C541.801 168.829 542.228 168.108 542.783 167.492C543.338 166.876 544.011 166.376 544.762 166.023C545.513 165.669 546.327 165.468 547.157 165.432L561.444 164.73C562.271 164.679 563.101 164.793 563.884 165.066C564.667 165.339 565.387 165.766 566.003 166.32C566.619 166.875 567.118 167.547 567.47 168.296C567.822 169.046 568.021 169.858 568.055 170.685L568.454 178.556C568.487 179.384 568.355 180.21 568.065 180.987C567.776 181.764 567.334 182.476 566.767 183.081C566.2 183.686 565.518 184.173 564.76 184.513C564.003 184.852 563.186 185.039 562.355 185.061V184.112V185.061L548.05 185.781L547.822 185.857ZM561.729 166.684H561.501L547.214 167.385C546.643 167.412 546.083 167.551 545.566 167.795C545.05 168.038 544.587 168.381 544.203 168.805C543.82 169.228 543.525 169.722 543.334 170.26C543.143 170.797 543.06 171.367 543.091 171.937L543.471 179.826C543.498 180.396 543.637 180.955 543.881 181.471C544.125 181.986 544.469 182.449 544.893 182.831C545.317 183.214 545.812 183.509 546.351 183.699C546.889 183.89 547.46 183.972 548.031 183.942L562.336 183.221C562.907 183.197 563.466 183.059 563.982 182.814C564.498 182.57 564.959 182.225 565.338 181.799C565.723 181.377 566.021 180.884 566.213 180.346C566.406 179.809 566.489 179.239 566.459 178.669L566.155 170.685C566.127 170.117 565.987 169.559 565.742 169.045C565.497 168.531 565.154 168.07 564.73 167.689C563.909 166.952 562.832 166.564 561.729 166.608V166.684Z" fill="white"/>
<path d="M567.029 172.164C566.904 172.174 566.779 172.159 566.66 172.121C566.541 172.083 566.43 172.021 566.335 171.94C566.24 171.859 566.162 171.76 566.105 171.649C566.048 171.538 566.013 171.416 566.003 171.292C565.993 171.167 566.008 171.042 566.046 170.923C566.085 170.804 566.147 170.694 566.228 170.599C566.309 170.504 566.408 170.426 566.519 170.369C566.631 170.312 566.752 170.278 566.877 170.268L590.093 166.323C590.34 166.284 590.592 166.344 590.795 166.49C590.997 166.636 591.134 166.855 591.176 167.1C591.198 167.224 591.195 167.35 591.168 167.472C591.14 167.595 591.089 167.71 591.016 167.812C590.944 167.915 590.852 168.002 590.746 168.068C590.64 168.135 590.521 168.18 590.397 168.2L567.2 172.126L567.029 172.164Z" fill="white"/>
<path d="M546.036 202.148C545.798 202.154 545.568 202.069 545.391 201.91C545.214 201.751 545.105 201.531 545.086 201.295C545.065 201.041 545.145 200.789 545.308 200.594C545.472 200.399 545.706 200.276 545.96 200.252L557.359 199.266C557.896 199.218 558.418 199.06 558.892 198.802C559.366 198.544 559.782 198.192 560.113 197.766C560.445 197.341 560.685 196.852 560.819 196.331C560.953 195.809 560.978 195.265 560.893 194.733C560.868 194.61 560.869 194.484 560.896 194.362C560.922 194.24 560.974 194.125 561.047 194.023C561.12 193.922 561.213 193.837 561.32 193.773C561.428 193.709 561.547 193.668 561.672 193.652C561.794 193.63 561.919 193.633 562.041 193.661C562.162 193.689 562.276 193.74 562.377 193.813C562.478 193.885 562.564 193.977 562.628 194.083C562.693 194.189 562.736 194.307 562.754 194.429C562.886 195.218 562.852 196.026 562.656 196.801C562.46 197.576 562.106 198.303 561.615 198.935C561.125 199.567 560.509 200.091 559.806 200.475C559.103 200.858 558.328 201.092 557.53 201.162L546.036 202.148Z" fill="#DF6969"/>
<path d="M536.784 283.754L563.382 345.96C563.993 347.191 564.942 348.224 566.119 348.939C567.295 349.653 568.65 350.02 570.027 349.996C571.404 349.972 572.746 349.559 573.897 348.804C575.048 348.05 575.96 346.984 576.529 345.732L599.441 283.527L536.784 283.754Z" fill="white"/>
<path d="M553.578 292.972L570.677 316.071L583.463 289.937L566.003 272.508L553.578 292.972Z" fill="#EA7D8A"/>
<path d="M562.736 306.095L555.934 372.245C555.821 373.324 556.047 374.411 556.58 375.356L573.546 406.041C574.042 406.937 574.786 407.67 575.69 408.153C576.593 408.636 577.617 408.849 578.639 408.765C579.66 408.68 580.636 408.303 581.448 407.679C582.26 407.054 582.874 406.209 583.216 405.245L595.09 371.714C595.469 370.672 595.508 369.538 595.204 368.471L576.775 304.711C576.428 303.508 575.665 302.466 574.622 301.772C573.578 301.077 572.322 300.775 571.076 300.918L567.428 301.316C566.217 301.458 565.09 302.009 564.237 302.879C563.383 303.748 562.853 304.884 562.736 306.095Z" fill="#EA7D8A"/>
<path d="M530.21 250.338L524.947 269.303C524.648 270.4 524.655 271.557 524.966 272.649C525.278 273.742 525.882 274.73 526.714 275.505L547.157 294.527C547.448 295.038 547.874 295.459 548.389 295.744C548.904 296.03 549.487 296.168 550.076 296.145C550.664 296.121 551.235 295.936 551.725 295.611C552.216 295.285 552.607 294.832 552.856 294.299L566.763 273.096L535.948 246.868C533.478 244.743 530.058 246.754 530.21 250.338Z" fill="#F4F4F4"/>
<path d="M600.865 236.039L563.191 273.665L589.789 295.001C591.123 295.877 592.741 296.214 594.315 295.942C595.889 295.671 597.3 294.813 598.263 293.541L618.192 264.429C618.906 263.394 619.302 262.174 619.333 260.918C619.363 259.662 619.026 258.424 618.363 257.355L605.349 236.361C605.093 236.022 604.767 235.741 604.393 235.537C604.019 235.334 603.605 235.213 603.181 235.183C602.756 235.152 602.329 235.213 601.93 235.36C601.531 235.508 601.168 235.739 600.865 236.039Z" fill="#F4F4F4"/>
<path d="M375.999 298.415L408.297 414.538C408.815 416.368 410.002 417.937 411.624 418.935C413.246 419.932 415.185 420.285 417.055 419.924L477.85 407.843C478.843 407.639 479.785 407.239 480.62 406.666C481.456 406.093 482.168 405.359 482.715 404.507C483.262 403.655 483.633 402.703 483.806 401.706C483.978 400.709 483.95 399.688 483.721 398.702L455.565 280.436C455.112 278.502 453.916 276.823 452.236 275.759C450.556 274.695 448.525 274.332 446.579 274.746L381.699 288.989C380.691 289.21 379.738 289.633 378.9 290.233C378.061 290.833 377.353 291.597 376.82 292.479C376.286 293.361 375.939 294.342 375.798 295.363C375.657 296.383 375.725 297.422 375.999 298.415Z" fill="#5C7460"/>
<path opacity="0.45" d="M417.264 412.508C415.601 412.511 413.983 411.968 412.658 410.965C411.334 409.961 410.375 408.551 409.931 406.952L381.623 304.92C381.34 303.923 381.264 302.879 381.401 301.851C381.538 300.824 381.884 299.836 382.418 298.948C382.952 298.059 383.662 297.289 384.506 296.685C385.35 296.082 386.308 295.657 387.322 295.437L444.318 282.92C446.266 282.5 448.303 282.861 449.987 283.925C451.672 284.989 452.87 286.672 453.323 288.61L478.021 392.519C478.255 393.51 478.287 394.538 478.114 395.541C477.942 396.545 477.569 397.503 477.018 398.36C476.466 399.217 475.748 399.953 474.905 400.527C474.063 401.101 473.113 401.499 472.113 401.698L418.67 412.319C418.208 412.424 417.737 412.488 417.264 412.508ZM445.933 284.722C445.524 284.72 445.116 284.765 444.717 284.855L387.721 297.353C386.965 297.518 386.25 297.835 385.62 298.286C384.991 298.736 384.46 299.31 384.06 299.972C383.66 300.634 383.399 301.37 383.294 302.136C383.188 302.902 383.24 303.681 383.447 304.427L411.754 406.439C412.139 407.821 413.032 409.006 414.254 409.758C415.476 410.511 416.938 410.775 418.347 410.498L471.809 399.878C472.558 399.728 473.27 399.428 473.902 398.998C474.533 398.568 475.071 398.015 475.484 397.372C475.897 396.73 476.177 396.011 476.306 395.259C476.435 394.507 476.411 393.736 476.235 392.993L451.537 289.084C451.236 287.831 450.518 286.717 449.499 285.924C448.481 285.132 447.224 284.708 445.933 284.722Z" fill="#78987E"/>
<path d="M380.882 413.608L369.749 392.064C368.774 390.18 368.279 388.085 368.309 385.964C368.339 383.844 368.892 381.763 369.92 379.907L382.25 357.642C382.839 356.577 383.64 355.642 384.603 354.895C385.566 354.147 386.671 353.604 387.851 353.297C389.031 352.99 390.262 352.926 391.468 353.109C392.673 353.292 393.829 353.718 394.865 354.361L399.405 357.187L387.227 368.813L404.592 352.218C405.043 351.786 405.592 351.467 406.191 351.289C406.791 351.11 407.424 351.077 408.039 351.192C408.654 351.307 409.233 351.567 409.727 351.95C410.221 352.333 410.617 352.828 410.881 353.394C411.384 354.458 411.608 355.633 411.531 356.807C411.455 357.982 411.081 359.118 410.444 360.108L396.708 381.197L415.364 359.387C415.662 359.039 416.056 358.786 416.497 358.659C416.938 358.533 417.406 358.539 417.844 358.676C418.281 358.814 418.668 359.077 418.957 359.432C419.246 359.788 419.424 360.221 419.468 360.677C420.293 368.448 418.422 376.268 414.167 382.828L410.368 388.517C415.16 390.903 419.404 394.258 422.828 398.368C426.252 402.479 428.783 407.255 430.259 412.394C430.772 414.238 430.784 416.185 430.293 418.035C429.802 419.885 428.826 421.571 427.466 422.92C419.981 430.297 402.768 440.842 380.882 413.608Z" fill="#E79A9A"/>
<path d="M398.076 356.315C397.891 356.254 397.694 356.247 397.505 356.294C397.317 356.341 397.146 356.44 397.012 356.58L384.853 369.154C384.66 369.352 384.552 369.618 384.552 369.894C384.552 370.17 384.66 370.435 384.853 370.633C384.95 370.731 385.065 370.808 385.192 370.861C385.32 370.914 385.456 370.941 385.594 370.941C385.731 370.941 385.868 370.914 385.995 370.861C386.122 370.808 386.237 370.731 386.335 370.633L398.494 358.06C398.591 357.964 398.668 357.851 398.72 357.725C398.773 357.6 398.8 357.465 398.8 357.329C398.8 357.194 398.773 357.059 398.72 356.934C398.668 356.808 398.591 356.695 398.494 356.599C398.385 356.465 398.24 356.366 398.076 356.315Z" fill="#DF6969"/>
<path d="M395.853 377.081C395.601 376.958 395.31 376.94 395.045 377.031C394.779 377.121 394.561 377.313 394.437 377.565C394.314 377.816 394.295 378.107 394.386 378.372C394.477 378.637 394.67 378.855 394.922 378.978C394.922 378.978 396.632 380.23 398.588 381.576C398.815 381.697 399.078 381.73 399.327 381.669C399.576 381.608 399.795 381.458 399.94 381.247C400.086 381.036 400.148 380.779 400.116 380.525C400.084 380.271 399.96 380.038 399.766 379.869L396.138 377.29C396.056 377.204 395.959 377.133 395.853 377.081Z" fill="#DF6969"/>
<path d="M383.903 368.396C383.695 368.324 383.468 368.322 383.259 368.39C383.05 368.459 382.869 368.594 382.744 368.775C382.663 368.884 382.605 369.008 382.572 369.14C382.54 369.272 382.534 369.409 382.556 369.543C382.577 369.678 382.624 369.806 382.696 369.922C382.767 370.037 382.861 370.137 382.972 370.216C382.972 370.216 384.682 371.449 386.638 372.796C386.749 372.875 386.874 372.932 387.007 372.963C387.14 372.994 387.278 372.998 387.412 372.975C387.547 372.952 387.675 372.903 387.79 372.829C387.905 372.756 388.005 372.661 388.082 372.549C388.237 372.322 388.295 372.044 388.246 371.774C388.196 371.504 388.042 371.265 387.816 371.108L384.188 368.529C384.105 368.462 384.007 368.417 383.903 368.396Z" fill="#DF6969"/>
<path d="M410.766 386.26C410.544 386.187 410.303 386.189 410.083 386.268C409.862 386.348 409.675 386.498 409.55 386.697C408.826 387.732 407.978 388.675 407.024 389.504C406.85 389.691 406.752 389.936 406.747 390.191C406.743 390.446 406.832 390.694 406.998 390.888C407.164 391.082 407.396 391.209 407.649 391.243C407.903 391.278 408.16 391.219 408.373 391.078C409.492 390.116 410.482 389.013 411.317 387.797C411.46 387.564 411.507 387.286 411.446 387.02C411.386 386.754 411.224 386.522 410.994 386.374L410.766 386.26Z" fill="#DF6969"/>
<path opacity="0.36" d="M495.272 386.526L491.776 393.847C490.501 396.527 490.339 399.602 491.324 402.401C492.31 405.2 494.364 407.497 497.039 408.791L578.39 448.011L590.72 416.529L495.272 386.526Z" fill="#262535"/>
<path opacity="0.5" d="M511.99 341.769L513.434 337.464C513.767 336.443 514.313 335.504 515.036 334.71C515.758 333.915 516.642 333.283 517.628 332.855C518.614 332.426 519.679 332.212 520.754 332.225C521.829 332.238 522.89 332.479 523.865 332.931L617.66 375.508L644.79 303.44L626.209 391.154L511.99 341.769Z" fill="#262535"/>
<path d="M454.805 334.941L462.575 336.022L456.876 335.226C456.086 335.119 455.325 334.857 454.636 334.455C453.947 334.054 453.345 333.521 452.863 332.887C452.381 332.252 452.03 331.529 451.828 330.759C451.627 329.989 451.58 329.187 451.689 328.398C451.932 326.413 452.951 324.603 454.523 323.364C456.096 322.124 458.095 321.555 460.087 321.78C464.789 322.242 469.427 323.215 473.918 324.681C478.458 323.657 490.788 321.267 498.407 323.904C507.906 327.185 513.434 339.076 513.434 339.076L530.115 347.743L510.623 398.266L463.563 374.787C462.515 374.647 461.505 374.302 460.591 373.771C459.678 373.239 458.878 372.533 458.239 371.692C457.6 370.851 457.133 369.893 456.867 368.871C456.6 367.85 456.539 366.786 456.686 365.74C456.726 365.435 456.826 365.14 456.98 364.873C457.135 364.606 457.341 364.372 457.586 364.186C457.832 363.999 458.112 363.862 458.411 363.784C458.71 363.706 459.021 363.688 459.327 363.73L461.53 364.034L455.831 363.256C454.869 363.123 453.943 362.803 453.105 362.312C452.267 361.822 451.534 361.171 450.949 360.398C450.363 359.625 449.935 358.744 449.691 357.806C449.446 356.868 449.389 355.891 449.523 354.93L449.637 354.096C449.733 353.387 449.968 352.704 450.328 352.086C450.689 351.468 451.167 350.927 451.737 350.494C452.307 350.061 452.957 349.744 453.65 349.561C454.342 349.379 455.064 349.334 455.774 349.431L463.696 350.512L452.791 349.032C451.085 348.792 449.543 347.887 448.503 346.515C447.464 345.143 447.011 343.416 447.244 341.712L447.396 340.612C447.632 338.882 448.543 337.316 449.931 336.254C451.319 335.192 453.071 334.72 454.805 334.941Z" fill="#E79A9A"/>
<path opacity="0.57" d="M465.007 337.881C465.377 337.918 465.746 337.811 466.037 337.58C466.328 337.35 466.517 337.016 466.565 336.648C466.594 336.461 466.586 336.269 466.539 336.085C466.492 335.902 466.408 335.729 466.293 335.578C466.177 335.428 466.033 335.302 465.867 335.209C465.702 335.115 465.519 335.057 465.33 335.036L454.976 333.651C454.617 333.638 454.265 333.758 453.99 333.989C453.715 334.22 453.537 334.546 453.489 334.901C453.442 335.257 453.529 335.618 453.734 335.912C453.938 336.207 454.246 336.416 454.596 336.496L464.95 337.881H465.007Z" fill="#DF6969"/>
<path opacity="0.57" d="M452.696 350.72L465.862 351.801C466.242 351.827 466.617 351.702 466.906 351.454C467.194 351.205 467.372 350.853 467.401 350.474C467.418 350.099 467.292 349.733 467.049 349.448C466.805 349.163 466.463 348.98 466.09 348.937L452.943 347.837C452.561 347.811 452.184 347.935 451.893 348.184C451.601 348.432 451.419 348.784 451.385 349.165C451.354 349.545 451.474 349.921 451.719 350.212C451.965 350.504 452.316 350.686 452.696 350.72Z" fill="#DF6969"/>
<path opacity="0.57" d="M467.363 365.873C467.55 365.895 467.74 365.879 467.921 365.827C468.102 365.775 468.271 365.688 468.418 365.571C468.565 365.454 468.688 365.309 468.779 365.144C468.87 364.98 468.928 364.799 468.949 364.612C468.971 364.425 468.955 364.236 468.903 364.056C468.851 363.875 468.764 363.706 468.646 363.559C468.529 363.412 468.384 363.29 468.219 363.199C468.054 363.108 467.873 363.05 467.686 363.029L457.959 361.739C457.763 361.694 457.56 361.69 457.362 361.728C457.165 361.766 456.977 361.844 456.812 361.959C456.647 362.073 456.507 362.22 456.402 362.392C456.298 362.563 456.23 362.754 456.203 362.953C456.177 363.152 456.192 363.354 456.248 363.547C456.304 363.74 456.4 363.918 456.53 364.072C456.659 364.225 456.82 364.35 457 364.438C457.181 364.527 457.378 364.576 457.579 364.584L467.306 365.873H467.363Z" fill="#DF6969"/>
<path opacity="0.57" d="M500.383 335.245L473.576 324.738C473.576 324.738 499.319 329.992 500.383 335.245Z" fill="#DF6969"/>
<path d="M483.284 328.399L497.761 302.948C497.985 302.589 498.331 302.323 498.735 302.197C499.14 302.072 499.576 302.096 499.964 302.265L504.714 304.351C504.929 304.438 505.124 304.57 505.286 304.736C505.447 304.903 505.573 305.102 505.653 305.319C505.733 305.537 505.768 305.769 505.753 306.001C505.739 306.233 505.676 306.459 505.569 306.665L491.548 331.452L483.284 328.399Z" fill="#705FCF"/>
<path d="M648.799 452.335C671.692 439.534 695.573 369.344 689.703 343.495L647.089 295.608L621.536 383.094L521.091 337.255C520.457 336.937 519.764 336.756 519.055 336.725C518.347 336.694 517.64 336.813 516.981 337.075C516.322 337.336 515.726 337.735 515.233 338.243C514.739 338.751 514.36 339.358 514.118 340.024L495.747 390.756C495.081 392.582 495.111 394.589 495.833 396.394C496.555 398.199 497.918 399.675 499.661 400.542C520.008 410.517 582.608 441.24 588.422 443.782C601.132 449.301 633.923 460.661 648.799 452.335Z" fill="#373449"/>
<path opacity="0.5" d="M526.98 407.976H526.695C526.457 407.901 526.258 407.736 526.14 407.516C526.023 407.296 525.997 407.039 526.068 406.8L537.353 368.566C537.388 368.442 537.448 368.325 537.528 368.224C537.608 368.122 537.707 368.037 537.82 367.974C537.933 367.91 538.057 367.87 538.186 367.854C538.314 367.839 538.445 367.849 538.569 367.884C538.694 367.919 538.811 367.978 538.913 368.057C539.014 368.137 539.1 368.236 539.163 368.349C539.227 368.462 539.267 368.586 539.283 368.714C539.298 368.843 539.288 368.973 539.253 369.097L527.968 407.331C527.898 407.532 527.763 407.704 527.584 407.821C527.405 407.937 527.193 407.992 526.98 407.976Z" fill="#262535"/>
<path d="M515.809 392.785C514.843 392.785 513.899 392.499 513.096 391.963C512.294 391.428 511.668 390.666 511.298 389.776C510.929 388.885 510.832 387.905 511.02 386.96C511.209 386.014 511.674 385.146 512.357 384.464C513.039 383.783 513.909 383.318 514.857 383.13C515.804 382.942 516.785 383.039 517.678 383.408C518.57 383.777 519.332 384.401 519.869 385.203C520.405 386.004 520.692 386.947 520.692 387.911C520.687 389.202 520.171 390.439 519.256 391.352C518.342 392.265 517.103 392.78 515.809 392.785ZM515.809 384.933C515.219 384.933 514.643 385.108 514.152 385.435C513.661 385.762 513.279 386.227 513.053 386.771C512.828 387.315 512.769 387.914 512.884 388.492C512.999 389.069 513.283 389.6 513.7 390.016C514.117 390.432 514.649 390.716 515.227 390.831C515.806 390.946 516.406 390.887 516.951 390.662C517.496 390.436 517.961 390.055 518.289 389.565C518.617 389.075 518.792 388.5 518.792 387.911C518.777 387.131 518.456 386.388 517.898 385.842C517.341 385.296 516.59 384.99 515.809 384.99V384.933Z" fill="#262535"/>
<path d="M625.241 96.494H672.167C677.911 96.479 683.416 94.1944 687.478 90.1395C691.54 86.0846 693.829 80.5894 693.844 74.8549C693.829 69.1205 691.54 63.6252 687.478 59.5704C683.416 55.5155 677.911 53.2308 672.167 53.2158H625.241C619.498 53.2358 613.995 55.5221 609.934 59.5759C605.874 63.6297 603.583 69.122 603.563 74.8549C603.578 80.5894 605.867 86.0846 609.929 90.1395C613.991 94.1944 619.496 96.479 625.241 96.494Z" fill="#79A182"/>
<path d="M635.709 93.782L613.765 107.361V90.3872L635.709 93.782Z" fill="#79A182"/>
<path d="M672.775 81.3221C671.711 81.3258 670.669 81.0142 669.783 80.4268C668.896 79.8393 668.204 79.0024 667.794 78.022C667.384 77.0417 667.275 75.9619 667.48 74.9196C667.685 73.8772 668.196 72.9191 668.947 72.1666C669.698 71.4141 670.656 70.901 671.7 70.6924C672.743 70.4838 673.825 70.589 674.809 70.9946C675.792 71.4003 676.633 72.0882 677.225 72.9712C677.816 73.8542 678.132 74.8926 678.132 75.955C678.132 77.3751 677.568 78.7374 676.564 79.7434C675.56 80.7494 674.197 81.3171 672.775 81.3221ZM672.775 72.5033C672.085 72.4996 671.411 72.7004 670.836 73.0803C670.261 73.4602 669.813 74.0021 669.547 74.637C669.282 75.2719 669.211 75.9713 669.345 76.6463C669.478 77.3213 669.81 77.9415 670.297 78.428C670.785 78.9145 671.406 79.2454 672.082 79.3787C672.758 79.512 673.459 79.4417 674.095 79.1767C674.731 78.9116 675.274 78.4639 675.654 77.8902C676.035 77.3166 676.236 76.643 676.232 75.955C676.227 75.0411 675.862 74.166 675.214 73.5198C674.567 72.8736 673.69 72.5083 672.775 72.5033Z" fill="white"/>
<path d="M648.704 81.3221C647.64 81.3221 646.601 81.0073 645.717 80.4176C644.833 79.8278 644.143 78.9896 643.736 78.0089C643.329 77.0282 643.223 75.9491 643.43 74.9079C643.638 73.8668 644.15 72.9105 644.902 72.1599C645.654 71.4093 646.612 70.8981 647.655 70.691C648.698 70.4839 649.779 70.5902 650.761 70.9964C651.744 71.4027 652.583 72.0906 653.174 72.9732C653.765 73.8558 654.08 74.8935 654.08 75.955C654.08 77.3785 653.514 78.7436 652.506 79.7501C651.497 80.7567 650.13 81.3221 648.704 81.3221ZM648.704 72.5034C648.015 72.5034 647.342 72.7074 646.77 73.0896C646.198 73.4718 645.752 74.015 645.49 74.6502C645.227 75.2855 645.16 75.9843 645.295 76.6581C645.431 77.3318 645.764 77.9502 646.252 78.4348C646.74 78.9194 647.362 79.2484 648.037 79.3802C648.713 79.512 649.412 79.4405 650.047 79.1749C650.682 78.9093 651.224 78.4615 651.604 77.8883C651.984 77.3151 652.184 76.6422 652.18 75.955C652.175 75.0378 651.807 74.1599 651.155 73.5132C650.504 72.8664 649.623 72.5034 648.704 72.5034Z" fill="white"/>
<path d="M624.728 81.3221C623.664 81.3221 622.625 81.0073 621.741 80.4176C620.856 79.8278 620.167 78.9896 619.76 78.0089C619.353 77.0282 619.247 75.9491 619.454 74.9079C619.662 73.8668 620.174 72.9105 620.926 72.1599C621.678 71.4093 622.636 70.8981 623.679 70.691C624.722 70.4839 625.803 70.5902 626.785 70.9964C627.768 71.4027 628.607 72.0906 629.198 72.9732C629.789 73.8558 630.104 74.8935 630.104 75.955C630.104 77.3785 629.538 78.7436 628.529 79.7501C627.521 80.7567 626.154 81.3221 624.728 81.3221ZM624.728 72.5034C624.039 72.5034 623.366 72.7074 622.794 73.0896C622.222 73.4718 621.776 74.015 621.514 74.6502C621.251 75.2855 621.183 75.9843 621.319 76.6581C621.455 77.3318 621.788 77.9502 622.276 78.4348C622.764 78.9194 623.385 79.2484 624.061 79.3802C624.737 79.512 625.436 79.4405 626.071 79.1749C626.706 78.9093 627.248 78.4615 627.628 77.8883C628.007 77.3151 628.208 76.6422 628.204 75.955C628.199 75.0378 627.831 74.1599 627.179 73.5132C626.528 72.8664 625.646 72.5034 624.728 72.5034Z" fill="white"/>
<path d="M403.851 215.86C406.911 223.057 411.77 229.349 417.964 234.134C424.158 238.919 431.479 242.037 439.226 243.188C446.972 244.34 454.886 243.487 462.207 240.711C469.529 237.935 476.014 233.329 481.042 227.334L497.438 229.837L488.736 214.115C491.362 207.137 492.235 199.623 491.279 192.23C490.323 184.837 487.567 177.79 483.252 171.706C478.937 165.622 473.195 160.686 466.527 157.329C459.86 153.972 452.47 152.298 445.004 152.451C437.538 152.605 430.223 154.582 423.7 158.209C417.176 161.837 411.642 167.005 407.582 173.261C403.521 179.517 401.058 186.671 400.408 194.097C399.758 201.523 400.94 208.996 403.851 215.86Z" fill="#79A182"/>
<path d="M467.363 182.33H423.895C423.643 182.33 423.401 182.23 423.223 182.052C423.045 181.875 422.945 181.633 422.945 181.382C422.945 181.13 423.045 180.889 423.223 180.711C423.401 180.533 423.643 180.434 423.895 180.434H467.363C467.615 180.434 467.857 180.533 468.035 180.711C468.213 180.889 468.313 181.13 468.313 181.382C468.313 181.633 468.213 181.875 468.035 182.052C467.857 182.23 467.615 182.33 467.363 182.33Z" fill="white"/>
<path d="M467.363 196.914H423.895C423.643 196.914 423.401 196.814 423.223 196.636C423.045 196.459 422.945 196.217 422.945 195.966C422.945 195.714 423.045 195.473 423.223 195.295C423.401 195.117 423.643 195.018 423.895 195.018H467.363C467.615 195.018 467.857 195.117 468.035 195.295C468.213 195.473 468.313 195.714 468.313 195.966C468.313 196.217 468.213 196.459 468.035 196.636C467.857 196.814 467.615 196.914 467.363 196.914Z" fill="white"/>
<path d="M467.363 212.73H423.895C423.643 212.73 423.401 212.631 423.223 212.453C423.045 212.275 422.945 212.034 422.945 211.782C422.945 211.531 423.045 211.29 423.223 211.112C423.401 210.934 423.643 210.834 423.895 210.834H467.363C467.615 210.834 467.857 210.934 468.035 211.112C468.213 211.29 468.313 211.531 468.313 211.782C468.313 212.034 468.213 212.275 468.035 212.453C467.857 212.631 467.615 212.73 467.363 212.73Z" fill="white"/>
<path opacity="0.74" d="M500.458 48.816L499.433 43.8472C499.168 42.5725 499.419 41.2451 500.13 40.1544C500.842 39.0637 501.957 38.2982 503.232 38.0249L511.041 36.4318C512.317 36.1675 513.647 36.4179 514.74 37.1285C515.833 37.8391 516.599 38.9521 516.873 40.2249L517.899 45.1937C517.968 45.5305 518 45.874 517.994 46.2178V65.4863C517.992 66.6178 517.6 67.714 516.884 68.5911C516.167 69.4682 515.171 70.0728 514.061 70.3034C512.951 70.5286 511.796 70.3672 510.79 69.8462C509.785 69.3251 508.988 68.4758 508.533 67.4397L500.819 49.7643C500.66 49.4643 500.539 49.1458 500.458 48.816ZM512.959 73.224L515.961 72.6171C517.505 72.4409 519.056 72.883 520.274 73.8464C521.492 74.8098 522.278 76.216 522.459 77.7567C522.885 79.2153 522.727 80.7821 522.018 82.1266C521.309 83.4711 520.105 84.4882 518.659 84.9634L515.676 85.5892C514.144 85.7498 512.611 85.3029 511.406 84.345C510.201 83.3871 509.422 81.9949 509.236 80.4687C508.79 79.0148 508.929 77.4447 509.625 76.0919C510.32 74.7391 511.516 73.7103 512.959 73.224Z" fill="#EA7D8A"/>
<path opacity="0.74" d="M561.919 58.4503L562.717 55.2831C562.919 54.4769 563.431 53.7824 564.142 53.3496C564.853 52.9167 565.705 52.7802 566.516 52.9694L571.494 54.2211C572.301 54.4232 572.997 54.9342 573.431 55.6438C573.864 56.3534 574.001 57.2047 573.812 58.0141L573.014 61.2002C572.955 61.4146 572.878 61.6239 572.786 61.8261L567.314 72.9965C566.993 73.6488 566.458 74.1719 565.798 74.4789C565.138 74.7859 564.393 74.8584 563.686 74.6844C562.978 74.5036 562.354 74.0876 561.915 73.5049C561.476 72.9222 561.25 72.2077 561.273 71.4793L561.767 59.0382C561.793 58.8368 561.844 58.6394 561.919 58.4503ZM562.356 76.1636L564.255 76.6378C565.188 76.9769 565.951 77.6667 566.38 78.5599C566.81 79.453 566.872 80.4784 566.554 81.4169C566.386 82.3733 565.857 83.2289 565.076 83.8076C564.295 84.3862 563.321 84.6438 562.356 84.5272L560.456 84.0531C559.52 83.7177 558.753 83.0294 558.319 82.1359C557.886 81.2423 557.821 80.2148 558.138 79.2739C558.306 78.3138 558.838 77.4552 559.623 76.8761C560.408 76.297 561.387 76.0419 562.356 76.1636Z" fill="#EA7D8A"/>
<path d="M457.275 73.2619C455.178 83.5157 450.473 93.0581 443.612 100.971C436.751 108.884 427.965 114.9 418.1 118.442C408.235 121.984 397.622 122.931 387.284 121.193C376.946 119.455 367.23 115.09 359.072 108.518L338.173 116.104L345.45 93.2321C340.173 84.7746 337.052 75.1554 336.36 65.2156C335.668 55.2758 337.426 45.3181 341.48 36.2132C345.534 27.1084 351.761 19.1337 359.617 12.9865C367.472 6.83932 376.716 2.70685 386.541 0.950462C396.367 -0.805929 406.473 -0.132753 415.977 2.91113C425.481 5.955 434.094 11.2769 441.061 18.4114C448.029 25.5459 453.139 34.2758 455.946 43.8376C458.753 53.3994 459.17 63.502 457.161 73.2619H457.275Z" fill="#F6D445"/>
<path d="M399.5 97.3662H395.169C390.419 97.3662 386.581 92.9094 386.581 87.4665C386.581 82.0235 390.381 77.5667 395.169 77.5667H399.576C404.326 77.5667 408.183 82.0045 408.183 87.4665C408.183 92.9284 404.25 97.3662 399.5 97.3662ZM395.169 79.4632C391.483 79.4632 388.481 83.0476 388.481 87.4665C388.481 91.8853 391.369 95.4697 395.169 95.4697H399.576C403.281 95.4697 406.283 91.8664 406.283 87.4665C406.283 83.0666 403.281 79.4632 399.576 79.4632H395.169ZM400.526 75.6702H394.618C393.277 75.6622 391.982 75.1823 390.96 74.3151C389.938 73.4479 389.256 72.2489 389.032 70.929L387.132 58.6775C387.056 58.2196 387.091 57.7502 387.233 57.3083C387.375 56.8663 387.621 56.4645 387.949 56.1362C388.41 55.6886 389.003 55.4024 389.64 55.3207C400.583 53.7846 401.989 51.395 401.989 49.4795C401.989 47.564 400.089 46.4451 397.069 46.4451C393.509 46.783 390.093 48.009 387.132 50.0105C385.89 50.7454 384.414 50.9818 383.003 50.672C381.592 50.3622 380.352 49.5293 379.533 48.3416L373.833 39.7694C373.021 38.5348 372.721 37.0333 372.998 35.5822C373.274 34.1311 374.106 32.8442 375.315 31.9937C382.32 27.1191 390.677 24.5529 399.215 24.6543C414.851 24.6543 425.813 33.7196 425.813 46.6916V46.9003C425.813 57.5396 420.513 64.1015 408.601 68.1411C407.959 68.3561 407.386 68.7385 406.942 69.2487C406.497 69.7588 406.198 70.3782 406.074 71.0427C405.825 72.3482 405.127 73.5257 404.1 74.371C403.073 75.2162 401.782 75.6759 400.45 75.6702H400.526ZM389.222 57.4638C389.106 57.5827 389.018 57.7264 388.966 57.8841C388.913 58.0418 388.897 58.2093 388.918 58.3741L390.913 70.6255C391.064 71.5 391.518 72.2939 392.195 72.8691C392.871 73.4443 393.729 73.7644 394.618 73.7737H400.526C401.404 73.7678 402.253 73.4584 402.929 72.8983C403.604 72.3382 404.064 71.5619 404.231 70.7014C404.416 69.7018 404.866 68.7699 405.535 68.0028C406.203 67.2357 407.065 66.6613 408.031 66.3394C419.05 62.5464 423.951 56.5914 423.951 46.8813V46.6727C423.951 34.8195 413.825 26.5318 399.253 26.5318C391.012 26.3709 382.931 28.8208 376.17 33.5299C375.368 34.0935 374.814 34.9453 374.627 35.9068C374.439 36.8684 374.631 37.8652 375.163 38.6884L380.863 47.2606C381.408 48.0551 382.236 48.6128 383.178 48.8206C384.12 49.0284 385.106 48.8707 385.935 48.3795C389.187 46.1926 392.951 44.8857 396.86 44.5865C401.001 44.5865 403.68 46.483 403.68 49.4226C403.68 53.557 399.5 55.8517 389.697 57.2362C389.467 57.2557 389.251 57.3565 389.089 57.5207L389.222 57.4638Z" fill="white"/>
<path d="M207.54 35.7488L213.543 56.3258C213.695 56.8189 214.36 57.312 214.645 57.1223L218.331 54.7517C218.54 54.6379 218.92 54.7517 219.205 55.112L228.875 66.3773C229.35 66.9273 229.977 66.9083 229.806 66.3773L223.916 45.8571C223.764 45.364 223.099 44.8709 222.814 45.0606L219.129 47.4122C218.92 47.526 218.54 47.4122 218.255 47.0519L208.47 35.8246C207.995 35.1798 207.369 35.1988 207.54 35.7488Z" fill="#CAE2EF"/>
<path d="M307.567 39.5042L301.563 60.0623C301.411 60.5743 300.746 61.0485 300.442 60.8588L296.757 58.5071C296.567 58.3744 296.168 58.5071 295.902 58.8675L286.231 70.0379C285.737 70.5879 285.11 70.5689 285.281 70.0379L291.171 49.5177C291.323 49.0057 291.988 48.5315 292.292 48.7212L295.978 51.0918C296.168 51.2056 296.548 51.0918 296.833 50.7125L306.617 39.5042C307.111 38.9163 307.776 38.9352 307.567 39.5042Z" fill="#CAE2EF"/>
<path d="M263.946 7.83263L252.775 34.8009C252.49 35.4647 252.775 36.5267 253.269 36.5836L259.196 37.2095C259.519 37.2095 259.785 37.7595 259.804 38.3474L260.545 58.4124C260.545 59.4175 261.248 59.9296 261.552 59.2089L272.818 32.4113C273.084 31.7475 272.818 30.6665 272.305 30.6096L266.378 29.9838C266.074 29.9838 265.808 29.4528 265.789 28.8649L264.972 8.6102C264.934 7.58608 264.25 7.11196 263.946 7.83263Z" fill="#CAE2EF"/>
<path d="M51.296 103.795C51.6917 111.6 54.0885 119.172 58.2569 125.786C62.4252 132.401 68.2254 137.836 75.1016 141.57C81.9777 145.305 89.6995 147.214 97.527 147.115C105.355 147.016 113.025 144.912 119.805 141.005L134.338 148.989L131.565 131.238C136.435 125.588 139.843 118.832 141.492 111.562C143.141 104.292 142.98 96.7299 141.023 89.5366C139.067 82.3433 135.373 75.7384 130.267 70.2997C125.161 64.8611 118.798 60.7546 111.733 58.3394C104.669 55.9243 97.1198 55.2743 89.7456 56.4461C82.3715 57.6179 75.3974 60.576 69.4337 65.0614C63.47 69.5468 58.6984 75.4229 55.5364 82.1754C52.3745 88.928 50.9185 96.3512 51.296 103.795Z" fill="#F6D445"/>
<path d="M92.9218 134.785C85.6834 134.785 78.5779 129.436 72.2704 119.195C71.8758 118.631 71.6217 117.981 71.5295 117.299C70.2787 117.811 69.0822 118.446 67.9578 119.195L66.2859 120.371C66.0834 120.514 65.8328 120.572 65.5879 120.533C65.3429 120.494 65.123 120.361 64.975 120.163C64.8277 119.965 64.7631 119.718 64.795 119.474C64.8269 119.229 64.9528 119.007 65.146 118.854C65.7159 118.418 66.3049 118.001 66.8938 117.621C70.8455 114.776 74.6959 111.78 78.4449 108.632C76.1461 108.48 73.8473 108.385 71.5485 108.366C70.8629 108.43 70.1715 108.352 69.5176 108.137C68.8638 107.921 68.2615 107.573 67.7488 107.115C67.4099 106.734 67.1511 106.29 66.9879 105.808C66.8247 105.325 66.7604 104.815 66.7988 104.308C64.5812 104.617 62.3217 104.396 60.2064 103.663C59.9544 103.62 59.7298 103.479 59.582 103.271C59.4341 103.063 59.3751 102.805 59.4179 102.554C59.4608 102.302 59.6019 102.078 59.8103 101.93C60.0188 101.783 60.2774 101.724 60.5293 101.766H67.0078C67.3959 98.7616 68.0767 95.8017 69.0407 92.9288L68.6797 92.6253C68.5806 92.5494 68.4979 92.4544 68.4364 92.3458C68.3749 92.2373 68.3359 92.1176 68.3217 91.9937C68.3075 91.8698 68.3184 91.7444 68.3538 91.6248C68.3892 91.5053 68.4484 91.394 68.5277 91.2978C68.6585 91.1129 68.8535 90.9833 69.0748 90.9342C69.2961 90.8852 69.5277 90.9201 69.7246 91.0323C71.9284 85.0753 75.8318 79.8931 80.9527 76.1257C82.3166 74.7129 84.1036 73.7811 86.0443 73.4706C86.2932 72.643 86.7589 71.8966 87.3932 71.3086C87.3557 70.7909 87.4608 70.2728 87.6972 69.8104C88.4571 68.3311 90.357 67.9139 92.7698 68.7294C95.6168 69.6683 98.3707 70.8682 100.996 72.3138L102.326 72.8448C102.554 72.3896 102.915 71.8396 103.637 72.0293C104.359 72.2189 104.435 72.8637 104.435 73.793C111.416 77.1796 117.268 82.5075 121.287 89.1357C121.931 90.1714 122.465 91.2709 122.882 92.4167C123.357 93.0994 124.06 93.8391 124.649 93.6494C125.238 93.4598 125.333 93.0805 125.618 92.7201L129.418 87.6185C129.55 87.4416 129.74 87.3164 129.956 87.2644C130.171 87.2125 130.397 87.2371 130.596 87.3341C130.792 87.4379 130.948 87.6048 131.037 87.8079C131.127 88.0109 131.146 88.2382 131.09 88.453C129.764 93.6788 127.718 98.6956 125.01 103.36C125.047 104.458 124.817 105.548 124.34 106.539C123.864 107.529 123.155 108.39 122.274 109.049C121.488 109.622 120.576 109.999 119.615 110.149C121.199 111.308 122.663 112.623 123.984 114.075C124.081 114.185 124.151 114.316 124.19 114.457C124.23 114.598 124.237 114.746 124.212 114.89C124.186 115.036 124.126 115.174 124.037 115.293C123.948 115.411 123.832 115.507 123.699 115.573C121.8 116.521 119.9 117.47 117.791 118.437L117.373 118.987C116.574 119.769 115.626 120.383 114.585 120.794C113.544 121.204 112.431 121.402 111.312 121.376L110.761 122.116C110.644 122.263 110.486 122.373 110.307 122.43C110.128 122.487 109.935 122.49 109.754 122.438C109.21 122.287 108.682 122.084 108.178 121.831C106.79 122.179 105.381 122.433 103.96 122.59C101.515 122.86 99.0431 122.764 96.6265 122.306C98.3999 124.663 99.2082 127.606 98.8873 130.536C98.78 131.705 98.2539 132.796 97.4054 133.609C96.5387 134.266 95.4913 134.643 94.4037 134.69C93.9119 134.75 93.4172 134.781 92.9218 134.785ZM73.7523 116.616C73.6106 116.701 73.498 116.826 73.4293 116.976C73.4293 117.299 73.6953 117.906 73.8853 118.19C78.2929 125.359 85.4934 133.723 94.2137 132.755C94.8975 132.736 95.5596 132.511 96.1135 132.111C96.619 131.602 96.9228 130.929 96.9685 130.214C97.4434 127.028 95.8476 124.259 93.7197 121.509C90.4295 120.496 87.4925 118.576 85.2464 115.971C81.4089 115.453 77.5075 115.672 73.7523 116.616ZM94.9926 119.973C97.8666 120.797 100.875 121.048 103.846 120.713H104.055L102.953 120.409C100.859 120.275 98.8038 119.788 96.8735 118.968C95.7716 118.551 94.4987 118.114 93.0738 117.716L93.3018 117.982C93.8147 118.626 94.3657 119.29 94.9926 119.973ZM107.76 119.48C108.368 119.48 108.957 119.575 109.659 119.594L110.457 119.347C111.509 117.254 112.03 114.936 111.977 112.596C111.331 112.709 110.666 112.785 110.077 112.842C109.862 113.814 109.564 114.766 109.185 115.687C108.828 116.896 108.175 117.998 107.285 118.892C107.431 119.097 107.59 119.293 107.76 119.48ZM91.1929 110.282C94.2419 114.195 98.4295 117.07 103.181 118.513C103.434 118.532 103.688 118.532 103.941 118.513C102.401 116.577 101.123 114.447 100.141 112.178C98.3554 111.856 96.5505 111.477 94.7646 111.097L92.1048 110.528L91.1929 110.282ZM88.4761 116.559C89.3153 117.281 90.2255 117.917 91.1929 118.456L89.939 116.901L88.4761 116.559ZM113.801 112.102C113.874 114.256 113.546 116.404 112.832 118.437C114.067 117.963 115.302 117.451 116.518 116.901C117.178 115.153 117.361 113.261 117.05 111.42V110.889C116.006 111.405 114.911 111.812 113.782 112.102H113.801ZM102.402 112.463C103.28 114.317 104.411 116.04 105.765 117.583L105.955 117.432C106.621 116.751 107.111 115.917 107.38 115.004C107.64 114.289 107.837 113.553 107.969 112.804C106.095 112.82 104.222 112.706 102.364 112.463H102.402ZM91.0029 115.194C92.1998 115.478 93.3397 115.801 94.4037 116.142C92.4515 114.658 90.7294 112.894 89.2931 110.908L88.5521 111.173L88.6851 111.458C89.3363 112.778 90.1192 114.03 91.0219 115.194H91.0029ZM118.988 111.894C119.092 113.159 119.047 114.432 118.855 115.687C119.824 115.232 120.755 114.758 121.743 114.264C120.877 113.415 119.957 112.623 118.988 111.894ZM86.3103 114.226C86.9753 114.226 87.6212 114.416 88.2102 114.53C87.7113 113.795 87.2729 113.022 86.8993 112.216C86.8218 112.068 86.7521 111.916 86.6903 111.761L85.0944 112.349C85.3984 112.899 85.7214 113.449 86.0823 113.98L86.3103 114.226ZM81.1047 108.746C78.9642 110.667 76.7351 112.513 74.4172 114.283L82.5866 111.325C82.246 110.526 81.9479 109.709 81.6937 108.878L81.1047 108.746ZM81.1047 113.809C82.0356 113.809 83.0046 113.809 83.8595 113.942C83.67 113.636 83.4987 113.32 83.3465 112.994L81.1047 113.809ZM101.376 110.339C103.628 110.731 105.911 110.922 108.197 110.908C108.273 109.733 108.273 108.555 108.197 107.38C105.506 106.783 102.718 106.783 100.027 107.38L101.376 110.339ZM110.191 108.101C110.191 109.049 110.191 109.997 110.096 110.946C110.666 110.946 111.217 110.813 111.768 110.718C111.768 109.997 111.616 109.277 111.502 108.556L110.191 108.101ZM83.7835 109.201C83.9355 109.732 84.1255 110.244 84.3345 110.775L86.0443 110.149C86.0443 109.921 85.9113 109.694 85.8543 109.485C85.2084 109.277 84.5054 109.182 83.8215 109.106L83.7835 109.201ZM113.516 109.201C113.573 109.521 113.611 109.844 113.63 110.168C114.105 110.016 114.58 109.846 115.036 109.656L113.516 109.201ZM94.5177 109.03L95.0876 109.163L99.1343 109.997C98.8303 109.296 98.5263 108.613 98.2414 107.911C97.0445 108.234 95.8096 108.613 94.5367 109.03H94.5177ZM89.673 108.101L90.9079 108.328C93.1878 107.513 95.3916 106.754 97.5574 106.185C97.2534 105.465 96.9875 104.744 96.7215 104.004H87.0892C87.6592 104.877 88.2102 105.787 88.7421 106.659L89.673 108.101ZM116.594 108.101H116.784C116.632 106.508 116.48 104.915 116.29 103.303C115.044 103.623 113.773 103.833 112.49 103.928C112.699 104.687 112.889 105.465 113.06 106.242C114.257 106.83 115.454 107.418 116.594 108.101ZM118.133 102.753C118.342 104.384 118.494 106.034 118.646 107.684C120.407 106.326 121.928 104.686 123.148 102.829C123.105 101.611 122.894 100.405 122.521 99.2441C121.492 100.866 119.947 102.095 118.133 102.734V102.753ZM83.2705 107.134L85.4744 107.399C85.3414 106.678 85.2654 105.92 85.1894 105.18L83.2895 106.963C83.2743 107.018 83.2679 107.076 83.2705 107.134ZM68.7177 103.872C68.5973 104.527 68.726 105.203 69.0787 105.768C69.7973 106.287 70.6903 106.504 71.5675 106.375C74.5312 106.375 77.514 106.546 80.4778 106.811L81.1237 106.242C81.0287 105.844 80.9527 105.446 80.8767 105.066C80.8007 104.687 80.7057 104.232 80.6298 103.815H69.0597L68.7177 103.872ZM98.7923 103.985C99.0013 104.554 99.2293 105.123 99.4573 105.692C101.075 105.345 102.723 105.154 104.378 105.123C103.01 104.725 101.642 104.346 100.236 104.004L98.7923 103.985ZM110.191 105.047L110.932 105.351C110.818 104.915 110.704 104.478 110.571 104.061H110.134L110.191 105.047ZM82.6246 103.872L82.7956 104.725V104.82L83.8595 103.872H82.6246ZM107.323 104.061L108.292 104.308V104.004L107.323 104.061ZM100.445 102.165H108.045C107.949 100.541 107.949 98.914 108.045 97.2907C106.392 92.7201 104.492 88.4151 102.326 83.8635C100.633 87.768 98.3665 91.3987 95.6006 94.6356C96.2592 96.9367 97.0001 99.2125 97.8234 101.463L100.445 102.165ZM110.096 97.0631L110.666 98.5803C111.103 99.6993 111.521 100.894 111.92 102.146C113.319 102.07 114.707 101.854 116.062 101.501C115.555 97.6359 114.559 93.8506 113.098 90.2357L112.813 89.5719C112.585 90.0461 112.319 90.4823 112.072 90.9185C111.825 91.3547 111.654 91.6581 111.464 92.0374C110.71 93.5981 110.24 95.2808 110.077 97.0062L110.096 97.0631ZM88.6281 102.07H92.0099L89.2931 101.368L88.7041 101.937L88.6281 102.07ZM82.2636 102.07H83.2326C82.876 101.703 82.4952 101.361 82.0926 101.046L82.2636 102.07ZM72.9544 102.07H80.3258C80.2118 101.368 80.1168 100.666 80.0028 99.9838C79.4377 99.8087 78.8454 99.738 78.2549 99.7751C76.4519 100.025 74.7405 100.723 73.2773 101.804L72.9544 102.07ZM70.6555 94.2753C69.8524 96.7847 69.2801 99.362 68.9457 101.975C69.2891 101.856 69.6254 101.716 69.9526 101.558C70.7244 101.103 71.4726 100.609 72.1944 100.079C73.5932 99.1195 75.1399 98.3955 76.7731 97.9355C74.5681 96.9327 72.5049 95.6447 70.6365 94.1046L70.6555 94.2753ZM83.7455 99.9648C84.2262 100.375 84.6711 100.826 85.0754 101.311C85.0754 100.989 85.0754 100.685 85.0754 100.363L83.7455 99.9648ZM86.9943 100.894V101.065L87.1462 100.932L86.9943 100.894ZM90.794 99.9269L95.0496 100.932L95.5626 101.065C95.0306 99.5286 94.5367 97.9924 94.0617 96.4563C93.0928 97.5562 91.9529 98.7131 90.8509 99.8131L90.794 99.9269ZM113.592 86.9168C114.069 87.7756 114.495 88.6622 114.865 89.5719C116.357 93.2211 117.379 97.0447 117.905 100.951C118.752 100.635 119.515 100.128 120.134 99.4706C120.754 98.8128 121.213 98.0215 121.477 97.158V96.8735C119.388 92.4439 116.654 88.3473 113.364 84.7169C113.514 85.4016 113.578 86.1025 113.554 86.8031L113.592 86.9168ZM123.49 96.3994C124.056 97.612 124.483 98.8843 124.763 100.192C125.928 97.9212 126.913 95.5623 127.708 93.1374L127.176 93.877C126.717 94.5815 126.054 95.1304 125.276 95.4511C124.706 95.6584 124.08 95.6584 123.509 95.4511C123.519 95.742 123.512 96.0333 123.49 96.3235V96.3994ZM86.9943 98.8269L88.7041 99.282C90.3 97.689 91.9339 96.0011 93.4917 94.1805L93.1878 93.1374C92.7888 91.6581 92.4088 90.1219 92.1048 88.5858C92.1997 90.8611 91.6464 93.1167 90.509 95.0908C89.6503 96.3988 88.4384 97.4377 87.0132 98.0872L86.9943 98.8269ZM81.6937 97.1769C82.8575 97.2219 84.0205 97.068 85.1324 96.7218L85.5124 77.3774C85.5124 76.7705 85.5124 76.1637 85.6264 75.4809C84.8143 75.8386 84.0272 76.2504 83.2705 76.7137L82.2826 77.3585C81.4937 78.7503 81.0996 80.3304 81.1427 81.929C80.8594 86.9892 80.9992 92.0641 81.5607 97.1011L81.6937 97.1769ZM71.3585 92.1322C73.9394 93.8728 76.7124 95.311 79.6228 96.4183C79.126 91.6114 79.018 86.7723 79.2999 81.948C79.2999 81.2084 79.3948 80.4498 79.5088 79.6912C75.8483 83.147 73.0448 87.4066 71.3205 92.1322H71.3585ZM87.6592 75.0637C87.5152 75.8531 87.4263 76.6516 87.3932 77.4533L87.0323 95.8873C87.7989 95.404 88.4479 94.7561 88.9321 93.9908C90.004 91.9589 90.4533 89.657 90.224 87.372C90.0991 83.1135 89.4612 78.8855 88.3242 74.7792L87.6592 75.0637ZM103.295 81.4549C105.195 85.7031 107.095 89.6857 108.805 93.8201C109.052 92.9314 109.383 92.0678 109.792 91.2409C110.001 90.8236 110.21 90.4254 110.438 90.0271C110.93 89.2547 111.314 88.4188 111.578 87.5427V87.2772C109.75 83.9294 107.144 81.0679 103.979 78.9326C103.732 79.6532 103.504 80.5256 103.257 81.3601L103.295 81.4549ZM96.8925 76.3154C96.6093 76.3052 96.3266 76.3437 96.0565 76.4292C94.7266 76.8843 94.1567 78.6291 93.9097 79.6343C93.2218 83.9132 93.5936 88.2952 94.9926 92.3977C97.65 89.1494 99.7493 85.4837 101.205 81.5497C100.54 80.1274 99.8372 78.686 99.1153 77.1878C99.001 77.0964 98.9098 76.9795 98.8493 76.8464V76.6568L98.2224 76.524C97.7889 76.4023 97.3425 76.3322 96.8925 76.3154ZM107.057 78.7808C108.312 79.7971 109.458 80.9412 110.476 82.1945C110.145 81.5989 109.771 81.0284 109.355 80.4877L108.178 79.4825C107.779 79.217 107.418 78.9895 107.038 78.7808H107.057ZM90.281 74.6465C90.8963 76.9527 91.3596 79.2968 91.6679 81.6635C91.7436 80.8335 91.8769 80.0097 92.0668 79.1981C92.1927 78.2635 92.539 77.3721 93.0774 76.5973C93.6158 75.8225 94.3308 75.1863 95.1636 74.7413C93.5369 74.5475 91.895 74.5157 90.262 74.6465H90.281ZM101.433 77.5102L102.003 78.7239C102.003 78.4395 102.136 78.155 102.193 77.8705L101.433 77.5102ZM89.559 72.2V72.3707C90.357 72.2189 91.1739 72.0862 91.9909 72.0103C91.1702 71.8851 90.3316 71.95 89.5401 72.2H89.559Z" fill="white"/>
<path d="M351.32 225.039L349.306 222.934L347.406 220.81C337.033 203.096 347.046 189.005 346.039 169.851C345.64 162.265 346.457 155.323 342.372 147.377C316.686 97.7077 275.478 105.844 274.87 105.009C268.924 95.5267 252.072 92.7768 234.745 96.0577C232.918 91.6307 230.128 87.6638 226.579 84.4432C223.029 81.2227 218.807 78.8288 214.219 77.4343C209.63 76.0397 204.788 75.6793 200.043 76.3791C195.298 77.0788 190.767 78.8212 186.778 81.4805C182.789 84.1399 179.441 87.6499 176.976 91.7574C174.511 95.8649 172.989 100.467 172.522 105.233C172.055 109.998 172.652 114.808 174.273 119.315C175.893 123.822 178.495 127.913 181.892 131.295C170.093 139.241 160.689 150.449 158.656 163.535C157.099 173.644 145.68 179.997 137.131 186.635C134.68 188.531 132.002 190.712 129.152 193.14C116.911 201.859 108.161 214.625 104.454 229.173C99.0771 250.907 106.202 273.229 121.704 290.468C140.703 311.538 158.903 333.234 173.304 356.656C185.349 376.266 207.103 391.78 234.099 397.109C273.103 404.695 311.632 387.626 325.064 356.656C328.526 348.721 330.199 340.123 329.966 331.471C329.951 329.22 330.556 327.009 331.716 325.079C332.875 323.149 334.544 321.575 336.539 320.528C337.698 319.864 338.819 319.143 339.921 318.404L347.084 313.568C371.877 296.897 378.621 253.847 351.32 225.039Z" fill="#211B38"/>
<path d="M276.941 338.583C265.888 330.774 253.862 324.436 241.167 319.731C231.915 316.299 222.662 312.847 213.619 309.035C207.027 306.266 201.061 302.758 194.032 300.766C186.622 298.775 179.079 297.311 171.461 296.385C147.048 293.01 120.165 290.279 96.4173 298.092C77.4699 304.53 60.7293 316.18 48.1232 331.698C38.8503 343.016 31.6066 355.848 26.7119 369.628C25.04 374.256 23.5961 378.94 22.3422 383.701C22.1005 384.611 22.1823 385.578 22.5737 386.435C22.9651 387.293 23.6419 387.988 24.489 388.404L87.3931 420.019L63.7399 507.865L265.124 521.994L270.406 494.532C278.461 482.471 297.554 459.656 303.178 392.121C304.888 372.037 293.299 350.398 276.941 338.583Z" fill="#EA7D8A"/>
<path d="M213.144 358.8C209.145 358.796 205.154 358.454 201.213 357.775C185.539 355.12 173.399 348.786 166.123 339.493C157.991 329.081 154.724 313.189 157.402 296.955C157.462 296.581 157.595 296.223 157.794 295.901C157.992 295.578 158.253 295.298 158.56 295.076C158.867 294.854 159.214 294.695 159.583 294.607C159.952 294.52 160.334 294.505 160.708 294.565C161.082 294.625 161.441 294.758 161.764 294.956C162.087 295.154 162.367 295.414 162.59 295.72C162.812 296.026 162.972 296.374 163.06 296.742C163.147 297.11 163.162 297.491 163.102 297.865C160.689 312.563 163.539 326.806 170.701 335.985C178.776 346.302 192.303 350.493 202.239 352.181C220.838 355.329 243.542 351.1 251.483 329.764C251.611 329.41 251.807 329.084 252.062 328.806C252.317 328.528 252.624 328.304 252.966 328.146C253.309 327.987 253.679 327.898 254.056 327.884C254.433 327.869 254.809 327.93 255.162 328.062C255.516 328.194 255.839 328.394 256.114 328.652C256.39 328.909 256.611 329.219 256.765 329.562C256.919 329.906 257.004 330.277 257.014 330.653C257.023 331.03 256.958 331.404 256.822 331.755C249.298 351.782 230.965 358.8 213.144 358.8Z" fill="#E5657B"/>
<path opacity="0.52" d="M130.121 383.302L126.853 433.161C126.767 434.446 126.413 435.698 125.813 436.837C125.213 437.976 124.38 438.977 123.369 439.776C122.358 440.575 121.19 441.153 119.941 441.474C118.693 441.795 117.391 441.851 116.119 441.639L113.06 441.127C111.233 440.825 109.358 441.174 107.764 442.114C106.17 443.054 104.957 444.524 104.34 446.266L97.4432 465.743L91.3447 463.183L103.599 428.003L110.495 429.899C111.6 430.188 112.774 430.044 113.777 429.498C114.78 428.951 115.536 428.044 115.891 426.96L130.121 383.302Z" fill="#E5657B"/>
<path d="M120.279 413.722C119.844 413.732 119.414 413.634 119.025 413.438L31.4614 370.444C31.107 370.291 30.7874 370.069 30.5219 369.789C30.2564 369.509 30.0505 369.179 29.9168 368.817C29.7832 368.456 29.7244 368.071 29.7442 367.686C29.764 367.302 29.8619 366.925 30.0319 366.579C30.2019 366.233 30.4406 365.925 30.7333 365.674C31.0261 365.423 31.3669 365.234 31.7351 365.118C32.1033 365.003 32.4912 364.963 32.8752 365.002C33.2592 365.04 33.6314 365.156 33.9692 365.343L121.59 408.336C122.161 408.623 122.619 409.093 122.89 409.671C123.162 410.248 123.23 410.9 123.086 411.522C122.941 412.143 122.591 412.698 122.093 413.097C121.594 413.496 120.975 413.716 120.336 413.722H120.279Z" fill="#E5657B"/>
<path d="M111.198 432.403C110.159 432.403 109.131 432.19 108.177 431.777L103.77 429.88C103.077 429.579 102.533 429.014 102.257 428.312C101.98 427.61 101.995 426.826 102.297 426.135C102.6 425.443 103.165 424.9 103.869 424.624C104.572 424.349 105.357 424.363 106.05 424.665L110.438 426.562C110.681 426.669 110.943 426.724 111.208 426.724C111.473 426.724 111.735 426.669 111.977 426.562C112.214 426.451 112.426 426.293 112.6 426.098C112.773 425.902 112.904 425.672 112.984 425.424L127.613 381.197C127.865 380.485 128.39 379.903 129.072 379.577C129.754 379.252 130.538 379.21 131.251 379.462C131.964 379.713 132.548 380.237 132.874 380.918C133.2 381.6 133.241 382.382 132.99 383.094L118.38 427.301C118.048 428.299 117.512 429.218 116.805 429.998C116.099 430.778 115.237 431.404 114.276 431.834C113.303 432.242 112.253 432.436 111.198 432.403Z" fill="#E5657B"/>
<path d="M354.303 474.676L340.073 304.597L339.864 299.647C339.506 291.098 336.821 282.808 332.098 275.667C327.375 268.527 320.792 262.806 313.057 259.119L299.948 252.861C289.717 247.944 278.093 246.724 267.062 249.409C266.349 249.553 265.654 249.775 264.991 250.073C260.469 253.562 261.571 262.609 267.081 264.088C269.08 264.077 271.072 263.861 273.027 263.443C271.368 264.068 269.802 264.917 268.373 265.965C266.158 267.68 264.532 270.039 263.718 272.716C262.905 275.393 262.945 278.256 263.832 280.91L264.497 282.92L265.105 282.37C268.974 278.94 273.933 276.985 279.107 276.851L285.034 276.7C285.034 276.7 264.592 277.212 263.281 287.187C261.97 297.163 266.416 297.068 266.416 297.068C266.416 297.068 275.915 290.146 285.129 293.844C285.129 293.844 257.638 292.687 260.944 308.371C262.844 317.664 273.749 322.386 282.241 324.681L283.001 324.871L270.994 487.686C273.084 507.163 283.077 517.157 295.825 521.823C326.242 532.709 357.571 506.897 354.303 474.676ZM288.397 313.34L287.162 313.549L284.825 311.159L288.397 313.34Z" fill="#FFB1A5"/>
<path opacity="0.5" d="M307.776 266.307L309.789 257.659L306.256 255.895L304.489 263.481C303.013 269.925 300.243 276.004 296.347 281.35C292.452 286.695 287.511 291.197 281.824 294.584C282.934 294.761 284.019 295.073 285.053 295.513C283.368 295.463 281.681 295.501 280 295.627C274.931 298.355 269.419 300.166 263.718 300.975C262.681 301.907 261.858 303.052 261.305 304.332C272.185 304.059 282.664 300.172 291.081 293.284C299.498 286.397 305.373 276.903 307.776 266.307Z" fill="#DF6969"/>
<path opacity="0.5" d="M291.095 317.531L292.102 318.556C292.769 319.236 293.246 320.079 293.486 321.001C293.726 321.922 293.72 322.89 293.47 323.809C293.244 324.611 292.734 325.305 292.036 325.761C291.337 326.218 290.497 326.407 289.67 326.293C287.154 325.888 284.662 325.35 282.204 324.681L281.767 341.2L307.776 325.117L294.477 316.981L291.095 317.531Z" fill="#ED9996"/>
<path d="M315.869 190.428C315.869 190.428 305.135 192.969 281.786 185.44C262.882 179.333 260.564 166.096 256.138 156.48C252.015 185.44 235.239 194.885 222.206 197.255L209.591 193.273L208.831 192.874V193.026L200.206 190.295C194.578 188.536 188.48 189.077 183.251 191.801C178.023 194.524 174.09 199.207 172.316 204.822L172.164 205.296C170.405 210.9 170.94 216.971 173.653 222.181C176.366 227.391 181.036 231.317 186.641 233.099L195.133 235.773L169.542 301.222C162.969 320.187 177.864 337.407 197.128 344.083L197.926 344.348C207.121 347.582 217.223 347.054 226.029 342.879C234.835 338.704 241.629 331.221 244.928 322.064L252.68 299.648C277.264 302.132 300.29 287.112 306.009 263.614L317.864 214.836C307.32 201.257 315.869 190.428 315.869 190.428Z" fill="#FFB1A5"/>
<path opacity="0.5" d="M252.68 300.008C252.68 300.008 210.883 287.681 209.097 270.688C209.097 270.688 199.484 292.327 245.081 321.135L252.68 300.008Z" fill="#ED9996"/>
<path d="M189.187 218.534C188.683 218.594 188.176 218.452 187.777 218.139C187.378 217.826 187.12 217.368 187.059 216.865C186.999 216.362 187.141 215.856 187.454 215.457C187.768 215.059 188.227 214.801 188.731 214.741L194.981 213.224L191.41 204.595C191.315 204.364 191.266 204.118 191.267 203.869C191.268 203.619 191.318 203.373 191.414 203.143C191.51 202.913 191.651 202.705 191.828 202.529C192.004 202.354 192.214 202.214 192.445 202.12C192.676 202.025 192.923 201.977 193.173 201.978C193.422 201.978 193.669 202.028 193.899 202.124C194.129 202.22 194.338 202.36 194.514 202.537C194.69 202.714 194.83 202.923 194.924 203.153L199.332 213.831C199.435 214.083 199.483 214.355 199.471 214.628C199.46 214.901 199.389 215.168 199.265 215.411C199.141 215.654 198.965 215.868 198.75 216.037C198.536 216.206 198.287 216.327 198.021 216.391L189.624 218.42L189.187 218.534Z" fill="#DF6969"/>
<path d="M302.247 240.382C301.968 241.182 301.458 241.881 300.781 242.392C300.105 242.903 299.291 243.202 298.444 243.252C297.597 243.302 296.754 243.1 296.022 242.672C295.29 242.244 294.701 241.609 294.33 240.847C293.959 240.085 293.823 239.231 293.938 238.392C294.053 237.552 294.415 236.766 294.977 236.132C295.54 235.498 296.278 235.044 297.098 234.828C297.919 234.613 298.785 234.644 299.587 234.92C300.122 235.103 300.615 235.39 301.038 235.764C301.461 236.138 301.806 236.592 302.053 237.099C302.301 237.607 302.445 238.158 302.478 238.721C302.511 239.284 302.433 239.849 302.247 240.382Z" fill="#211B38"/>
<path d="M262.35 224.698C262.073 225.497 261.564 226.197 260.889 226.709C260.213 227.221 259.401 227.521 258.554 227.573C257.708 227.625 256.865 227.425 256.132 226.999C255.4 226.573 254.81 225.94 254.437 225.18C254.064 224.419 253.925 223.566 254.037 222.727C254.15 221.888 254.508 221.101 255.068 220.465C255.628 219.829 256.364 219.373 257.183 219.154C258.002 218.936 258.868 218.964 259.671 219.236C260.751 219.606 261.64 220.39 262.142 221.414C262.644 222.438 262.719 223.619 262.35 224.698Z" fill="#211B38"/>
<path d="M258.246 232.322C257.827 232.341 257.414 232.221 257.07 231.981C256.726 231.741 256.472 231.394 256.347 230.994C256.055 230.2 255.498 229.53 254.77 229.098C254.418 228.948 254.04 228.871 253.658 228.871C253.276 228.871 252.898 228.948 252.547 229.098C252.308 229.2 252.051 229.253 251.791 229.253C251.532 229.252 251.275 229.198 251.036 229.095C250.798 228.991 250.584 228.84 250.406 228.65C250.229 228.461 250.092 228.237 250.005 227.993C249.918 227.748 249.882 227.489 249.899 227.23C249.916 226.971 249.987 226.719 250.106 226.488C250.225 226.257 250.39 226.054 250.591 225.889C250.792 225.725 251.024 225.603 251.274 225.532C252.103 225.191 252.994 225.027 253.891 225.05C254.787 225.073 255.669 225.282 256.48 225.665C258.133 226.562 259.383 228.054 259.975 229.837C260.124 230.318 260.075 230.837 259.84 231.282C259.605 231.726 259.202 232.059 258.721 232.208C258.569 232.266 258.409 232.304 258.246 232.322Z" fill="#DF6969"/>
<path d="M299.112 247.551C298.712 247.55 298.321 247.424 297.997 247.189C297.673 246.953 297.432 246.622 297.307 246.242C297.022 245.444 296.463 244.773 295.731 244.345C295.379 244.196 295.001 244.119 294.619 244.119C294.237 244.119 293.859 244.196 293.508 244.345C293.032 244.514 292.508 244.487 292.052 244.27C291.596 244.053 291.245 243.664 291.076 243.189C290.907 242.713 290.934 242.19 291.152 241.735C291.369 241.28 291.759 240.93 292.235 240.761C293.065 240.425 293.956 240.263 294.852 240.286C295.747 240.309 296.629 240.516 297.44 240.894C299.083 241.799 300.325 243.289 300.917 245.066C300.994 245.304 301.023 245.555 301.002 245.804C300.982 246.053 300.912 246.295 300.797 246.517C300.683 246.739 300.525 246.936 300.334 247.097C300.142 247.259 299.921 247.38 299.682 247.456C299.498 247.516 299.306 247.548 299.112 247.551Z" fill="#DF6969"/>
<path d="M282.565 216.638L277.15 229.667C276.884 230.62 277.001 231.639 277.476 232.507C277.952 233.375 278.748 234.023 279.696 234.313L283.249 235.356C283.894 235.543 284.495 235.856 285.019 236.276C285.542 236.697 285.977 237.216 286.298 237.805C286.62 238.394 286.821 239.04 286.891 239.707C286.961 240.374 286.898 241.048 286.706 241.691C285.756 244.896 283.569 247.594 280.626 249.191C277.683 250.788 274.226 251.153 271.014 250.206L265.428 248.556" fill="#FFB1A5"/>
<path d="M274.604 252.633C273.208 252.628 271.82 252.424 270.482 252.026L264.782 250.376C264.302 250.231 263.899 249.903 263.66 249.462C263.422 249.022 263.367 248.505 263.509 248.025C263.65 247.542 263.978 247.135 264.42 246.893C264.861 246.651 265.381 246.594 265.865 246.735L271.451 248.385C274.176 249.184 277.109 248.87 279.603 247.511C282.097 246.153 283.948 243.861 284.749 241.14C284.87 240.739 284.91 240.318 284.868 239.902C284.826 239.485 284.701 239.081 284.503 238.713C284.095 237.972 283.413 237.42 282.603 237.177L279.031 236.115C277.6 235.691 276.393 234.724 275.668 233.421C274.959 232.108 274.795 230.568 275.212 229.135V228.946L280.608 215.917C280.703 215.686 280.844 215.476 281.021 215.3C281.198 215.124 281.408 214.984 281.639 214.889C281.87 214.794 282.118 214.745 282.368 214.746C282.618 214.746 282.866 214.796 283.097 214.893C283.559 215.086 283.926 215.453 284.118 215.915C284.31 216.376 284.312 216.895 284.123 217.358L278.765 230.273C278.647 230.721 278.708 231.197 278.936 231.601C279.174 232.029 279.569 232.348 280.038 232.492L283.61 233.535C285.39 234.063 286.888 235.273 287.774 236.902C288.661 238.53 288.865 240.443 288.34 242.221C287.447 245.219 285.61 247.851 283.102 249.726C280.594 251.601 277.548 252.62 274.414 252.633H274.604Z" fill="#DF6969"/>
<path d="M263.148 286.884C262.94 286.866 262.742 286.786 262.578 286.656C261.414 285.664 259.976 285.047 258.454 284.885C256.932 284.722 255.396 285.022 254.048 285.746C253.841 285.864 253.595 285.897 253.365 285.836C253.134 285.776 252.936 285.628 252.813 285.423C252.696 285.22 252.664 284.978 252.724 284.75C252.785 284.523 252.933 284.329 253.136 284.21C254.813 283.31 256.722 282.933 258.616 283.129C260.509 283.325 262.3 284.085 263.756 285.31C263.84 285.391 263.907 285.488 263.952 285.596C263.998 285.703 264.021 285.819 264.021 285.936C264.021 286.052 263.998 286.168 263.952 286.275C263.907 286.383 263.84 286.48 263.756 286.561C263.6 286.74 263.384 286.854 263.148 286.884Z" fill="#E8A396"/>
<path d="M274.509 205.486C273.11 204.923 271.61 204.652 270.101 204.689C268.525 204.689 266.929 204.481 265.542 204.329C264.155 204.177 262.578 203.95 261.001 203.684C259.541 203.32 258.021 203.262 256.536 203.514C255.302 203.893 254.637 205.277 255.872 207.193C256.952 208.555 258.31 209.672 259.857 210.469C261.403 211.267 263.101 211.728 264.839 211.82C266.536 212.109 268.275 212.029 269.938 211.583C271.601 211.138 273.147 210.339 274.471 209.241C276.029 207.629 275.649 206.131 274.509 205.486Z" fill="#211B38"/>
<path d="M298.561 214.741C300.003 215.18 301.337 215.916 302.475 216.903C303.767 217.832 305.078 218.8 306.275 219.501C307.472 220.203 308.82 221.075 310.207 221.853C311.567 222.493 312.777 223.411 313.76 224.546C314.501 225.627 314.121 227.106 311.955 227.827C310.25 228.181 308.489 228.173 306.787 227.804C305.085 227.435 303.48 226.712 302.076 225.684C300.579 224.835 299.283 223.674 298.276 222.28C297.27 220.886 296.576 219.291 296.243 217.605C296.034 215.443 297.269 214.513 298.561 214.741Z" fill="#211B38"/>
<path d="M262.502 267.407C261.849 267.405 261.216 267.18 260.708 266.769C260.2 266.359 259.848 265.788 259.709 265.15L259.367 263.5C259.128 262.367 258.464 261.368 257.51 260.708C256.556 260.049 255.385 259.779 254.238 259.954C253.482 260.067 252.712 259.876 252.098 259.422C251.483 258.969 251.074 258.29 250.961 257.536C250.847 256.781 251.039 256.013 251.493 255.399C251.947 254.786 252.627 254.378 253.383 254.264C255.966 253.864 258.605 254.47 260.755 255.955C262.904 257.441 264.4 259.694 264.934 262.249L265.295 263.899C265.373 264.265 265.378 264.643 265.309 265.011C265.24 265.379 265.1 265.73 264.895 266.043C264.69 266.357 264.425 266.627 264.116 266.838C263.806 267.05 263.458 267.198 263.091 267.274C262.9 267.338 262.702 267.382 262.502 267.407Z" fill="#DF6969"/>
<path d="M271.74 411.31L222.208 413.166C217.091 413.358 213.099 417.654 213.291 422.762L216.89 518.449C217.082 523.557 221.386 527.542 226.502 527.35L276.035 525.494C281.151 525.302 285.144 521.006 284.952 515.899L281.353 420.211C281.161 415.104 276.857 411.118 271.74 411.31Z" fill="#373449"/>
<path opacity="0.47" d="M222.78 420.727L238.669 420.09C239.073 420.074 239.476 420.137 239.855 420.276C240.234 420.416 240.582 420.628 240.879 420.902C241.177 421.176 241.417 421.505 241.586 421.871C241.756 422.237 241.851 422.633 241.868 423.037L241.871 423.131C241.904 423.951 241.61 424.749 241.053 425.352C240.496 425.954 239.722 426.311 238.901 426.344L223.012 426.981C222.609 426.997 222.205 426.934 221.826 426.795C221.447 426.655 221.099 426.443 220.802 426.169C220.505 425.896 220.265 425.566 220.095 425.2C219.925 424.834 219.83 424.438 219.814 424.035L219.81 423.94C219.777 423.121 220.071 422.322 220.628 421.719C221.185 421.117 221.959 420.76 222.78 420.727Z" fill="#DFE0FC"/>
<path d="M225.512 423.755C225.525 424.091 225.439 424.424 225.265 424.713C225.091 425.001 224.836 425.233 224.532 425.378C224.227 425.524 223.887 425.577 223.553 425.532C223.218 425.487 222.904 425.345 222.65 425.124C222.395 424.903 222.211 424.612 222.12 424.288C222.029 423.964 222.035 423.62 222.137 423.299C222.239 422.978 222.434 422.694 222.696 422.481C222.958 422.269 223.276 422.138 223.612 422.105C223.847 422.081 224.084 422.106 224.309 422.177C224.534 422.249 224.741 422.365 224.919 422.52C225.097 422.675 225.242 422.864 225.344 423.076C225.446 423.289 225.503 423.519 225.512 423.755Z" fill="#373449"/>
<path d="M280.817 488.577C280.053 487.504 278.953 486.715 277.691 486.334C276.429 485.953 275.076 486.002 273.844 486.472L278.366 483.646C279.863 482.712 280.928 481.223 281.327 479.505C281.726 477.788 281.426 475.983 280.494 474.486C279.64 473.134 278.324 472.136 276.789 471.679C278.296 470.775 279.384 469.314 279.817 467.614C280.25 465.913 279.992 464.11 279.101 462.598C278.209 461.086 276.756 459.986 275.056 459.538C273.357 459.09 271.549 459.33 270.026 460.206L251.768 470.94L267.1 461.931C268.409 460.945 269.308 459.511 269.625 457.904C269.941 456.297 269.654 454.63 268.817 453.222C267.98 451.814 266.652 450.763 265.087 450.27C263.523 449.778 261.831 449.878 260.336 450.552L227.545 469.84L221.408 466.521C219.762 465.644 218.351 464.385 217.293 462.85C216.235 461.316 215.562 459.55 215.329 457.702L214.379 450.325C211.215 451.497 208.296 453.246 205.773 455.483C200.193 460.543 195.482 466.482 191.828 473.064L188.085 479.815C188.085 479.815 123.167 467.886 91.7246 462.216L101.946 426.58L24.9449 388.65C24.9449 388.65 2.81167 457.19 2.79267 457.228C-9.63235 500.165 21.1262 529.959 61.346 535.174C98.7921 540.029 136.789 547.407 174.653 548.81C215.576 550.346 226.196 541.983 226.196 541.983C238.621 538.038 253.915 523.283 263.49 512.435C267.385 508.035 279.373 496.808 279.373 496.808C280.01 496.363 280.553 495.797 280.971 495.142C281.389 494.487 281.673 493.757 281.807 492.992C281.941 492.227 281.922 491.444 281.753 490.686C281.583 489.928 281.265 489.212 280.817 488.577Z" fill="#FFB1A5"/>
<path d="M245.404 475.89C245.091 475.894 244.787 475.795 244.536 475.609C244.286 475.423 244.103 475.16 244.017 474.861C243.931 474.561 243.945 474.242 244.058 473.952C244.172 473.661 244.377 473.416 244.644 473.254L267.917 458.84C268.232 458.66 268.604 458.607 268.957 458.692C269.31 458.776 269.618 458.992 269.817 459.295C269.992 459.611 270.043 459.981 269.959 460.332C269.874 460.684 269.661 460.99 269.361 461.192L246.106 475.586C245.904 475.75 245.661 475.855 245.404 475.89Z" fill="#DF6969"/>
<path d="M251.464 487.496C251.143 487.507 250.828 487.409 250.57 487.218C250.311 487.027 250.125 486.754 250.042 486.445C249.958 486.135 249.982 485.806 250.109 485.512C250.236 485.217 250.459 484.974 250.742 484.822L276.865 469.991C277.188 469.813 277.569 469.769 277.924 469.868C278.279 469.968 278.582 470.203 278.765 470.522C278.939 470.846 278.98 471.224 278.881 471.577C278.782 471.931 278.55 472.232 278.233 472.419L252.167 487.401C251.945 487.492 251.703 487.525 251.464 487.496Z" fill="#DF6969"/>
<path d="M253.44 501.037C253.196 501.037 252.956 500.974 252.743 500.855C252.53 500.735 252.351 500.563 252.224 500.355C252.046 500.038 251.995 499.665 252.084 499.312C252.172 498.959 252.392 498.654 252.699 498.458L275.231 484.898C275.392 484.802 275.571 484.739 275.756 484.712C275.941 484.685 276.13 484.694 276.312 484.74C276.494 484.786 276.665 484.867 276.815 484.979C276.965 485.09 277.092 485.231 277.188 485.391C277.284 485.552 277.348 485.73 277.375 485.915C277.402 486.1 277.392 486.289 277.347 486.47C277.301 486.651 277.219 486.822 277.108 486.972C276.996 487.122 276.855 487.249 276.694 487.345L254.181 500.886C253.953 501.005 253.696 501.057 253.44 501.037Z" fill="#DF6969"/>
<path opacity="0.5" d="M97.5763 424.513L80.0977 458.461L91.0978 463.809L101.908 426.505L97.5763 424.513Z" fill="#ED9996"/>
<path d="M108.747 466.654H108.443L76.8108 460.054C76.6273 460.016 76.4531 459.942 76.2984 459.836C76.1436 459.73 76.0112 459.595 75.9089 459.438C75.8065 459.282 75.7361 459.106 75.7018 458.922C75.6675 458.738 75.6699 458.549 75.7089 458.366C75.7451 458.184 75.8172 458.01 75.9212 457.856C76.0251 457.701 76.1587 457.569 76.3143 457.467C76.4698 457.365 76.6442 457.294 76.8273 457.26C77.0104 457.225 77.1985 457.227 77.3807 457.266L109.032 463.866C109.391 463.923 109.715 464.115 109.937 464.403C110.159 464.69 110.263 465.052 110.226 465.413C110.19 465.774 110.016 466.108 109.741 466.346C109.466 466.584 109.111 466.707 108.747 466.692V466.654Z" fill="#DF6969"/>
</g>
<defs>
<clipPath id="clip0">
<rect width="722" height="549" fill="white"/>
</clipPath>
</defs>
</svg>
