<svg width="58" height="56" viewBox="0 0 58 56" fill="none" xmlns="http://www.w3.org/2000/svg">
<path d="M24.657 21.7871C24.0093 20.9185 22.1682 21.8794 21.2631 21.2817C20.0638 20.4899 19.3605 17.3785 18.3131 16.3945C17.2657 15.4105 16.3797 14.2036 15.9934 12.818C15.5283 11.146 15.8224 9.35869 16.224 7.67325C16.8225 5.14447 17.6591 2.67802 18.7224 0.306885C21.1051 2.02689 23.2275 4.0813 25.0241 6.40676C26.3463 8.11911 27.5224 10.1313 27.4091 12.2914C27.3591 13.1793 27.2668 15.0742 26.9997 15.9217C26.2752 18.2279 25.3758 19.4867 24.6512 21.7871" fill="#FFD32A"/>
<path d="M24.8221 21.6909C24.382 21.1144 23.6037 21.1913 22.9618 21.2489C22.6102 21.295 22.2551 21.3085 21.901 21.2893C21.7624 21.2773 21.6264 21.2449 21.4974 21.1932C21.3822 21.1414 21.2773 21.0691 21.188 20.9799C20.7248 20.5532 20.4308 19.9401 20.1579 19.3732C19.8388 18.7121 19.5602 18.0279 19.2219 17.3822C19.0796 17.1007 18.9144 16.8314 18.728 16.577C18.4974 16.2771 18.2053 16.0331 17.9478 15.7563C17.3017 15.0856 16.781 14.3045 16.4103 13.4501C15.5878 11.4553 16.0144 9.26632 16.5198 7.25033C17.0411 5.16504 17.7262 3.12414 18.5685 1.14661C18.6742 0.896771 18.7838 0.650778 18.8933 0.402862L18.6319 0.472048C20.0476 1.49558 21.3721 2.63948 22.5909 3.89098C23.202 4.51749 23.7856 5.16963 24.3417 5.84739C24.8924 6.50816 25.4014 7.20265 25.8657 7.92681C26.3273 8.64003 26.693 9.41089 26.9534 10.2195C27.0767 10.6106 27.1604 11.013 27.2033 11.4207C27.2311 11.7898 27.2311 12.1605 27.2033 12.5296C27.1648 13.1984 27.1245 13.8749 27.0514 14.536C27.0169 14.8512 26.9746 15.1663 26.9112 15.4777C26.831 15.8326 26.7257 16.1813 26.596 16.5212C26.0406 18.076 25.2372 19.5289 24.6742 21.0856C24.5973 21.3008 24.5262 21.518 24.457 21.7371C24.3878 21.9561 24.751 22.0734 24.826 21.8389C25.0982 21.0131 25.4184 20.2039 25.785 19.4155C26.1232 18.666 26.473 17.9222 26.7728 17.1554C26.9323 16.748 27.086 16.3348 27.209 15.9139C27.2871 15.6243 27.3442 15.3296 27.3801 15.0318C27.4781 14.3265 27.53 13.6173 27.5723 12.9063C27.5915 12.593 27.6165 12.2778 27.6145 11.9626C27.6107 11.5303 27.5624 11.0994 27.4704 10.6769C27.2708 9.83363 26.947 9.02467 26.5095 8.27658C26.0752 7.52135 25.5837 6.80048 25.0393 6.12029C24.4986 5.41691 23.9208 4.7385 23.3058 4.08508C22.0937 2.7901 20.7724 1.60186 19.3565 0.533546C19.1809 0.405425 19.0041 0.277303 18.826 0.149181C18.7822 0.123194 18.7298 0.115682 18.6805 0.128295C18.6311 0.140909 18.5887 0.172617 18.5627 0.216445C17.6691 2.20591 16.932 4.2621 16.3584 6.36629C16.055 7.42467 15.822 8.50196 15.6608 9.59111C15.4951 10.6571 15.5382 11.7452 15.7876 12.7948C16.0502 13.727 16.4965 14.5974 17.1002 15.3547C17.391 15.7287 17.7083 16.0813 18.0496 16.4098C18.265 16.6102 18.4536 16.8376 18.6108 17.0862C18.9723 17.7107 19.2933 18.3577 19.5717 19.0234C19.8375 19.6727 20.1739 20.2908 20.5749 20.8665C20.7456 21.1116 20.9631 21.3206 21.2149 21.4815C21.5211 21.6374 21.8635 21.7084 22.2065 21.6871C22.5678 21.6871 22.9253 21.6352 23.2847 21.6102C23.5966 21.5667 23.9143 21.593 24.2148 21.6871C24.3211 21.7281 24.4161 21.794 24.4916 21.8793C24.5172 21.9229 24.5591 21.9546 24.608 21.9676C24.657 21.9805 24.709 21.9737 24.7529 21.9485C24.7966 21.9228 24.8283 21.8809 24.8413 21.832C24.8542 21.7831 24.8473 21.731 24.8221 21.6871" fill="#AC8A2F"/>
<path d="M32.3481 33.8292C33.3571 34.2136 34.4103 32.434 35.4942 32.4609C36.9317 32.4974 39.1745 34.7671 40.5851 35.0476C41.9957 35.3282 43.3833 35.8836 44.4441 36.8561C45.7241 38.0284 46.4198 39.6965 46.9732 41.3416C47.8011 43.8061 48.3944 46.3433 48.7452 48.9194C45.8161 48.7171 42.9313 48.0945 40.1796 47.0706C38.1501 46.3172 36.0803 45.2372 35.0387 43.3403C34.6121 42.5601 33.6934 40.9035 33.4666 40.0425C32.8632 37.7075 32.9593 36.1585 32.3558 33.8234" fill="#FFD32A"/>
<path d="M32.3001 34.0081C32.9612 34.2579 33.6088 33.7333 34.1008 33.3604C34.3733 33.14 34.6669 32.9469 34.9772 32.7839L35.0271 32.7608L35.0521 32.7493C35.0925 32.732 35.1309 32.7185 35.1713 32.7051L35.2731 32.6782L35.3308 32.6647H35.3577C35.3865 32.6647 35.3269 32.6647 35.3577 32.6647C35.4279 32.657 35.4988 32.657 35.5691 32.6647H35.6152H35.6325C35.6668 32.6686 35.7008 32.6744 35.7344 32.682C35.8826 32.7123 36.0279 32.7554 36.1687 32.8108C36.2033 32.8223 36.2379 32.8358 36.2725 32.8512C36.2725 32.8512 36.3052 32.8646 36.2725 32.8512L36.2975 32.8627L36.359 32.8896C36.4378 32.9242 36.5127 32.9607 36.5896 33.0011C36.9198 33.1762 37.2405 33.3687 37.5505 33.5776C38.1962 33.9927 38.8189 34.4463 39.4915 34.8172C39.7722 34.978 40.0701 35.107 40.3794 35.2015C40.5716 35.2554 40.7638 35.2861 40.956 35.3322C41.1885 35.388 41.4191 35.4514 41.6478 35.5244C42.5575 35.7962 43.4037 36.247 44.1366 36.8505C44.841 37.4732 45.4174 38.2271 45.8336 39.0702C46.2579 39.9309 46.6127 40.8242 46.8944 41.7415C47.2365 42.7908 47.5363 43.8555 47.7938 44.9279C48.0514 46.0003 48.2666 47.0861 48.4357 48.1777C48.478 48.4429 48.5165 48.7081 48.553 48.9734L48.7451 48.7312C46.8739 48.6021 45.0186 48.3011 43.2026 47.8318C42.2942 47.5973 41.3974 47.3212 40.512 47.0035C39.7677 46.7427 39.0416 46.4326 38.3384 46.0752C37.6652 45.7349 37.0365 45.3127 36.4666 44.8184C36.1868 44.5707 35.9295 44.2986 35.6979 44.0054C35.4809 43.729 35.288 43.4346 35.1213 43.1252C34.8042 42.5487 34.489 41.9721 34.2008 41.3783C34.0547 41.0804 33.9163 40.7825 33.801 40.4904C33.6787 40.1592 33.581 39.8194 33.5089 39.4738C33.1341 37.8191 33.0496 36.1183 32.6883 34.4597C32.6383 34.2329 32.5845 34.0062 32.5268 33.7813C32.5099 33.7364 32.4769 33.6995 32.4341 33.6777C32.3914 33.656 32.3421 33.651 32.2958 33.6637C32.2496 33.6765 32.2098 33.7061 32.1843 33.7467C32.1587 33.7873 32.1493 33.836 32.1578 33.8832C32.3736 34.7503 32.5379 35.6295 32.6498 36.5161C32.7594 37.3405 32.8593 38.1669 33.015 38.9837C33.09 39.4082 33.1876 39.8284 33.3071 40.2425C33.4061 40.5456 33.5242 40.8422 33.6607 41.1304C33.9509 41.7684 34.2815 42.3853 34.6216 43.0003C34.7715 43.2732 34.9157 43.5519 35.0867 43.8133C35.3014 44.14 35.5466 44.4456 35.8189 44.7261C36.3656 45.2806 36.9865 45.7566 37.6639 46.1406C38.3517 46.5325 39.0695 46.8693 39.8106 47.1476C40.6715 47.482 41.5517 47.7722 42.4396 48.0221C44.2729 48.5402 46.1502 48.8876 48.0475 49.0598C48.2801 49.0791 48.5126 49.0983 48.7451 49.1136C48.8835 49.1233 48.9373 48.9849 48.9373 48.8715C48.7874 47.7722 48.5952 46.68 48.3608 45.5948C48.1263 44.5096 47.8457 43.4372 47.519 42.3776C47.2316 41.3964 46.8843 40.4337 46.4793 39.4949C46.1026 38.6109 45.5831 37.7948 44.9418 37.0792C44.2665 36.3703 43.4483 35.8129 42.5415 35.4437C42.0871 35.254 41.6187 35.0998 41.1405 34.9825C40.9348 34.9306 40.7254 34.896 40.5197 34.8422C40.4525 34.8249 40.3852 34.8037 40.3275 34.7807L40.2257 34.7403L40.1776 34.7211H40.1584C39.4912 34.3918 38.8534 34.006 38.252 33.568C37.6411 33.1262 36.9838 32.7524 36.2917 32.4533C36.0144 32.3322 35.714 32.2732 35.4115 32.2804C35.0641 32.3186 34.7328 32.4471 34.4506 32.6532C34.1469 32.8454 33.874 33.0837 33.5723 33.2932C33.4346 33.3933 33.2901 33.4839 33.1399 33.5642L33.0419 33.6103C33.0092 33.6256 33.0573 33.6103 33.0227 33.6103L32.9593 33.6353C32.8907 33.6579 32.8207 33.6759 32.7498 33.6891C32.7882 33.6891 32.7498 33.6891 32.7286 33.6891H32.6844C32.6499 33.691 32.6152 33.691 32.5807 33.6891C32.5422 33.6891 32.6037 33.6891 32.5672 33.6891L32.5192 33.6775C32.481 33.6695 32.4437 33.658 32.4077 33.6429C32.3588 33.63 32.3067 33.6368 32.2628 33.662C32.2189 33.6872 32.1867 33.7287 32.1732 33.7775C32.1596 33.8264 32.1659 33.8787 32.1908 33.923C32.2156 33.9673 32.257 34 32.3058 34.0139" fill="#AC8A2F"/>
<path d="M20.7133 31.2213L15.7166 32.8472C14.6999 33.1778 13.664 33.5122 12.5936 33.5333C10.199 33.5794 8.09651 32.0996 6.18045 30.6813C4.03569 29.0958 1.83904 27.4546 0.436106 25.181C0.243923 24.8755 0.0805681 24.4565 0.315031 24.1855C0.445002 24.066 0.607538 23.9877 0.782035 23.9607C4.53729 22.9479 8.40977 22.3194 12.2995 22.2887C13.3546 22.2887 14.4674 22.3329 15.3745 22.8883C15.9195 23.261 16.3901 23.7322 16.762 24.2778C17.5192 25.2906 18.1784 26.3726 18.8357 27.4526L20.2213 29.7281C20.5231 30.2239 20.8382 30.7928 20.6902 31.354" fill="#FFD32A"/>
<path d="M20.6614 31.0369L15.58 32.6858C14.7887 32.9732 13.9703 33.1799 13.1374 33.3027C12.3819 33.3844 11.6177 33.3191 10.8869 33.1106C9.4302 32.7166 8.13874 31.8652 6.93183 30.9889C5.72492 30.1125 4.48727 29.2169 3.35915 28.2253C2.79518 27.7343 2.26304 27.208 1.76596 26.6494C1.52189 26.3707 1.28742 26.0844 1.07026 25.7846C0.845949 25.4995 0.64905 25.1938 0.48218 24.8717C0.414452 24.7444 0.38508 24.6002 0.397619 24.4566C0.414556 24.3899 0.450104 24.3293 0.500121 24.282C0.550138 24.2347 0.612565 24.2026 0.680128 24.1894C1.06449 24.0588 1.48153 23.9723 1.87935 23.8723C2.71598 23.6648 3.5571 23.4777 4.40271 23.3112C6.08721 22.9775 7.78958 22.7414 9.50131 22.6039C10.3597 22.5348 11.2194 22.4944 12.0804 22.4829C12.8396 22.4446 13.6005 22.5093 14.3424 22.675C14.7016 22.7661 15.0432 22.9161 15.3533 23.119C15.6578 23.3304 15.9325 23.5819 16.17 23.8666C16.6916 24.4932 17.1681 25.156 17.596 25.8499C18.0592 26.5648 18.4993 27.2951 18.9413 28.0235C19.1681 28.3976 19.3955 28.7711 19.6236 29.1439C19.8446 29.511 20.0848 29.8704 20.2808 30.2509C20.4768 30.5675 20.5512 30.9444 20.4903 31.3117C20.4327 31.552 20.8016 31.6538 20.8612 31.4136C21.0707 30.5584 20.4461 29.7589 20.0272 29.0728C19.5601 28.3041 19.0951 27.5353 18.6242 26.7666C18.1534 25.9979 17.7056 25.2868 17.2001 24.5777C16.7351 23.9262 16.2392 23.2593 15.5743 22.8038C14.9093 22.3483 14.131 22.1888 13.3546 22.1312C12.5159 22.0841 11.6752 22.0879 10.837 22.1427C9.06068 22.2262 7.29118 22.4187 5.5385 22.7192C4.6724 22.8653 3.80886 23.0357 2.94788 23.2305C2.51163 23.3285 2.07537 23.4226 1.64296 23.5418C1.4258 23.5956 1.20863 23.6513 0.993385 23.709C0.800646 23.7511 0.611678 23.809 0.428369 23.882C0.260585 23.9598 0.128062 24.0977 0.0569157 24.2685C-0.0142301 24.4392 -0.0188369 24.6305 0.0440032 24.8044C0.17023 25.1521 0.352666 25.4767 0.584036 25.7653C1.02813 26.3982 1.52511 26.9922 2.06961 27.5411C3.18489 28.6262 4.38186 29.624 5.64997 30.5257C6.89916 31.4539 8.14834 32.411 9.58779 33.0471C10.2978 33.3747 11.0544 33.5899 11.8306 33.6852C12.6622 33.762 13.501 33.6871 14.3059 33.4642C15.1765 33.2432 16.0259 32.9395 16.8792 32.6628L19.4775 31.8172L20.7574 31.4021C20.9919 31.3252 20.892 30.9562 20.6556 31.0331" fill="#AC8A2F"/>
<path d="M24.0362 34.3234C22.026 35.4438 19.5353 35.267 17.3982 36.1241C16.6633 36.4458 15.9562 36.8276 15.2842 37.2657C14.1888 37.9383 13.0683 38.6379 12.29 39.6603C11.0408 41.3015 10.8659 43.504 10.8621 45.5642C10.8582 47.6243 10.9582 49.771 10.1279 51.6583L15.509 51.3143C16.3431 51.2604 17.1983 51.2028 17.9632 50.8684C18.6954 50.5494 19.3085 49.9978 19.8408 49.4097C21.5955 47.4879 22.7889 45.1125 23.5538 42.6295C24.3187 40.1465 24.6723 37.5559 24.8991 34.9672C24.9467 34.7408 24.9054 34.5048 24.7838 34.308C24.6396 34.1331 24.2783 34.1562 24.2476 34.383" fill="#FFD32A"/>
<path d="M23.9458 34.158C22.5025 34.9574 20.819 35.0862 19.2316 35.4071C18.4053 35.561 17.601 35.816 16.837 36.1663C16.0486 36.5631 15.2849 37.0072 14.55 37.4962C13.8383 37.9244 13.1796 38.4354 12.5878 39.0183C12.0318 39.6029 11.5975 40.292 11.3098 41.0458C10.7237 42.5544 10.666 44.2149 10.6679 45.8138C10.6679 47.5435 10.7294 49.3135 10.1836 50.972C10.1183 51.1642 10.0433 51.3698 9.95876 51.562C9.90687 51.6831 9.95876 51.8599 10.124 51.8503L13.1605 51.6581C14.1407 51.5947 15.1227 51.5486 16.1028 51.4659C16.5688 51.435 17.0308 51.3603 17.4827 51.243C17.9039 51.1257 18.3041 50.9428 18.6685 50.701C19.3775 50.1979 20.006 49.5901 20.5327 48.8984C21.6131 47.5411 22.4855 46.0307 23.1214 44.4167C23.8013 42.6747 24.2929 40.8649 24.5877 39.0183C24.7511 38.0573 24.876 37.0964 24.9721 36.1355C24.9971 35.8934 25.022 35.6493 25.0451 35.4052C25.075 35.1821 25.0923 34.9576 25.097 34.7326C25.1067 34.5205 25.0321 34.3132 24.8894 34.156C24.8232 34.0974 24.7444 34.0547 24.6591 34.0314C24.5738 34.0081 24.4843 34.0047 24.3974 34.0215C24.3152 34.0349 24.2388 34.0726 24.1781 34.1298C24.1175 34.187 24.0754 34.2611 24.0573 34.3424C24.0506 34.3668 24.0487 34.3922 24.0519 34.4173C24.055 34.4424 24.063 34.4666 24.0755 34.4885C24.088 34.5105 24.1047 34.5298 24.1247 34.5453C24.1446 34.5608 24.1674 34.5722 24.1918 34.5788C24.2162 34.5855 24.2416 34.5874 24.2667 34.5842C24.2917 34.5811 24.3159 34.5731 24.3379 34.5606C24.3598 34.5481 24.3791 34.5314 24.3946 34.5114C24.4101 34.4915 24.4215 34.4687 24.4282 34.4443C24.4282 34.4443 24.4416 34.3828 24.4282 34.4232C24.4416 34.3828 24.4282 34.4232 24.4282 34.4232L24.4397 34.4116C24.4224 34.4232 24.4224 34.4232 24.4397 34.4116C24.457 34.4001 24.4224 34.4116 24.4397 34.4116C24.4802 34.3977 24.5242 34.3977 24.5646 34.4116C24.6165 34.427 24.5416 34.3943 24.5896 34.4212L24.6204 34.4405C24.5915 34.4193 24.6338 34.4597 24.6358 34.4616C24.6377 34.4635 24.6492 34.4866 24.6569 34.4981C24.6884 34.5662 24.7048 34.6403 24.7049 34.7153C24.7037 34.9274 24.6889 35.1392 24.6607 35.3495C24.6377 35.582 24.6165 35.8126 24.5915 36.0452C24.4955 36.9677 24.3782 37.8882 24.2264 38.803C23.9512 40.5815 23.4972 42.3276 22.8715 44.015C22.2862 45.5643 21.4832 47.0222 20.4865 48.3449C20.002 49.0048 19.44 49.6042 18.8126 50.1303C18.5052 50.3822 18.1619 50.5869 17.7941 50.7376C17.3906 50.8892 16.9696 50.9893 16.541 51.0354C16.0932 51.0912 15.6435 51.1142 15.1957 51.1431L13.7467 51.2353L10.8486 51.4275L10.124 51.4755L10.2912 51.7638C11.0023 50.1399 11.06 48.3487 11.06 46.6037C11.06 44.9932 11.0254 43.352 11.4751 41.7895C11.676 41.0461 12.0186 40.3485 12.484 39.7351C13.001 39.1098 13.6125 38.569 14.2963 38.1323C14.6384 37.9017 14.9882 37.6845 15.338 37.4693C15.7223 37.2348 16.1067 37.0003 16.4911 36.7851C16.8716 36.5711 17.268 36.3867 17.6768 36.2335C18.0541 36.0974 18.4392 35.9838 18.8299 35.8934C20.4193 35.5205 22.0816 35.4225 23.5922 34.7652C23.7844 34.6845 23.9593 34.5942 24.138 34.4962C24.3532 34.377 24.1611 34.0446 23.9458 34.1656" fill="#AC8A2F"/>
<path d="M30.7277 21.9563C30.4199 21.6034 30.1458 21.2225 29.909 20.8185C29.2684 19.7936 28.631 18.775 27.9968 17.7628C27.6069 17.183 27.2748 16.5663 27.0052 15.9217C26.6323 14.9358 26.5574 13.8673 26.4939 12.8141C26.4427 11.9954 26.3959 11.1767 26.3537 10.358C26.2898 9.57331 26.3021 8.78425 26.3902 8.00188C26.6496 6.18576 27.697 4.54259 29.0308 3.28956C30.3645 2.03653 31.9788 1.10829 33.6105 0.270374C33.6906 0.217623 33.7856 0.192022 33.8814 0.197345C33.9875 0.227596 34.0785 0.296064 34.137 0.389527C34.9942 1.50034 35.4304 2.86868 35.8513 4.20627C36.4817 6.21458 37.1178 8.24211 37.2542 10.3427C37.3319 11.1436 37.2582 11.952 37.0371 12.7257C36.8584 13.2811 36.5662 13.7923 36.3568 14.3381C36.1012 15.0012 35.9724 15.7084 35.6534 16.3464C35.4256 16.7763 35.1586 17.1841 34.8558 17.5649C33.6931 19.1216 32.49 20.7148 30.8392 21.7372" fill="#FFD32A"/>
<path d="M30.8645 21.8218C30.6007 21.5235 30.3646 21.2019 30.1592 20.8609C29.9196 20.4765 29.6806 20.0921 29.4423 19.7078C28.9657 18.9493 28.4891 18.1889 28.0125 17.4266C27.5526 16.7391 27.2037 15.9835 26.9785 15.1876C26.8028 14.3722 26.7025 13.5423 26.6787 12.7085C26.6249 11.8148 26.5692 10.9193 26.5288 10.0179C26.4655 9.18235 26.5146 8.34206 26.6749 7.51956C27.0035 6.0974 27.8068 4.829 28.8139 3.77776C29.9189 2.63428 31.2661 1.76177 32.6575 0.998801C33.0054 0.806619 33.3571 0.614436 33.7126 0.43955C33.7683 0.412644 33.8279 0.372286 33.8875 0.404957C33.9556 0.45767 34.013 0.522899 34.0566 0.59714C34.17 0.752807 34.2776 0.914241 34.3795 1.07952C34.7723 1.75138 35.0907 2.46412 35.3289 3.20506C35.5979 3.98916 35.8401 4.78095 36.0784 5.57467C36.3282 6.40298 36.5608 7.23897 36.7414 8.08457C36.9273 8.92347 37.0417 9.77661 37.0835 10.6348C37.1361 11.4711 37.0049 12.3088 36.6991 13.089C36.5396 13.4734 36.3513 13.8366 36.1994 14.219C36.0476 14.6015 35.9342 15.0051 35.8151 15.401C35.7017 15.7883 35.5464 16.162 35.3519 16.5156C35.1374 16.8679 34.9025 17.2073 34.6485 17.5323C33.7414 18.7469 32.8132 19.9691 31.637 20.9377C31.3541 21.1703 31.0562 21.3841 30.7453 21.5777C30.5358 21.7084 30.728 22.0409 30.9375 21.9083C32.2828 21.0704 33.3379 19.8692 34.2988 18.6258C34.5428 18.3087 34.7831 17.9897 35.0233 17.6649C35.2828 17.3337 35.5191 16.9851 35.7305 16.6213C36.1418 15.8757 36.2782 15.0262 36.603 14.2459C36.7664 13.8616 36.9605 13.4772 37.1162 13.0794C37.2727 12.6728 37.3767 12.2478 37.4256 11.8148C37.5054 10.93 37.4705 10.0386 37.3218 9.16272C37.0662 7.40617 36.5262 5.70343 35.9938 4.01607C35.7631 3.23893 35.4839 2.47703 35.1578 1.73486C34.9913 1.37161 34.7986 1.02092 34.5813 0.685544C34.3891 0.383817 34.1104 -0.125467 33.6703 0.028279C33.4796 0.106682 33.2946 0.198519 33.1168 0.3031L32.573 0.593296C32.2117 0.785478 31.8542 0.994958 31.5006 1.20828C30.788 1.63408 30.1083 2.11267 29.4673 2.64004C28.2606 3.60602 27.3035 4.84777 26.6768 6.26076C26.3692 6.99381 26.1872 7.77345 26.1387 8.56695C26.1076 9.48106 26.1314 10.3962 26.2098 11.3075C26.2598 12.1954 26.2944 13.089 26.3866 13.975C26.4578 14.8341 26.6742 15.675 27.0266 16.4618C27.4366 17.2566 27.8929 18.0266 28.393 18.768C28.8792 19.5367 29.3635 20.3285 29.8555 21.103C30.0698 21.4568 30.3155 21.7906 30.5896 22.1005C30.7568 22.2811 31.0278 22.0101 30.8606 21.8295" fill="#AC8A2F"/>
<path d="M34.706 22.6234C33.5203 18.034 34.5753 12.9566 37.51 9.12444C37.892 8.60111 38.3404 8.12953 38.8437 7.72151C39.3316 7.37586 39.842 7.06319 40.3716 6.78558C41.0404 6.40121 41.6861 5.98033 42.376 5.63248C43.7213 4.95984 45.1973 4.58701 46.6636 4.21994C46.9327 4.15267 47.2402 4.08925 47.4708 4.23723C47.7014 4.38522 47.7552 4.65619 47.7956 4.90795C48.4586 9.14943 47.4766 13.5562 45.4779 17.3998C45.1262 18.0782 44.7341 18.7566 44.1556 19.2755C43.6009 19.7317 42.9776 20.0975 42.3088 20.3594C39.8737 21.427 37.3104 22.1738 34.683 22.5811" fill="#FFD32A"/>
<path d="M34.8904 22.5713C34.5107 21.084 34.359 19.5476 34.4406 18.0147C34.5226 16.4766 34.8275 14.9585 35.3458 13.508C35.8681 12.0459 36.6038 10.669 37.529 9.42221C37.9999 8.73964 38.585 8.14345 39.2587 7.65989C39.6257 7.41774 40.012 7.21018 40.3945 6.9911C40.7769 6.77201 41.1747 6.52794 41.5668 6.29732C42.3306 5.84474 43.138 5.47003 43.9767 5.17881C44.8147 4.89246 45.6737 4.67145 46.5328 4.45621C46.823 4.38318 47.2861 4.21021 47.4764 4.54461C47.5443 4.68785 47.586 4.84212 47.5994 5.00008C47.6321 5.20956 47.6609 5.41904 47.6839 5.62852C47.7774 6.4649 47.8115 7.30685 47.7858 8.14804C47.7285 9.84457 47.4553 11.5269 46.9729 13.1544C46.7321 13.9728 46.4466 14.7773 46.1177 15.5644C45.7968 16.3456 45.4278 17.1062 45.0126 17.8417C44.8163 18.1965 44.5831 18.5295 44.3169 18.8353C44.0431 19.1363 43.7264 19.3953 43.3771 19.604C42.6312 20.0289 41.8492 20.3871 41.0402 20.6745C39.3749 21.3226 37.6559 21.8236 35.9032 22.1716C35.4765 22.2562 35.0473 22.3324 34.6155 22.4003C34.5671 22.4142 34.5261 22.4466 34.5013 22.4904C34.4765 22.5343 34.4699 22.5861 34.4829 22.6348C34.4964 22.6835 34.5286 22.725 34.5725 22.7502C34.6164 22.7754 34.6685 22.7823 34.7174 22.7693C36.53 22.4871 38.3141 22.0446 40.0485 21.4471C40.9018 21.1511 41.7436 20.8206 42.5661 20.4496C43.3522 20.096 44.1036 19.6809 44.6801 19.0044C45.2085 18.3249 45.6483 17.581 45.9889 16.7905C46.37 15.9955 46.7068 15.18 46.9979 14.3478C47.5794 12.6945 47.9538 10.9755 48.1125 9.23002C48.189 8.36995 48.2051 7.50557 48.1606 6.64325C48.1375 6.20891 48.0978 5.7765 48.0414 5.34601C47.9934 4.97126 47.978 4.52732 47.7301 4.22174C47.4399 3.86813 46.9613 3.94692 46.577 4.04494C46.135 4.1564 45.6949 4.26595 45.2548 4.38702C44.3737 4.6164 43.512 4.91456 42.6776 5.27875C41.8378 5.66311 41.069 6.16279 40.2734 6.62403C39.889 6.84696 39.4854 7.06028 39.1088 7.3082C38.7388 7.55195 38.3971 7.83622 38.0902 8.15572C37.5202 8.76576 37.0128 9.43149 36.5758 10.1429C36.1489 10.8132 35.7731 11.5148 35.4515 12.2415C34.8026 13.7024 34.3714 15.2506 34.1716 16.8366C33.9712 18.404 34.0088 19.9927 34.2831 21.5489C34.351 21.9333 34.433 22.3093 34.5291 22.677C34.5459 22.7219 34.579 22.7589 34.6218 22.7806C34.6645 22.8024 34.7138 22.8074 34.7601 22.7946C34.8063 22.7819 34.8461 22.7523 34.8716 22.7117C34.8971 22.6711 34.9066 22.6224 34.898 22.5752" fill="#AC8A2F"/>
<path d="M37.4253 23.0307C37.8519 21.4144 38.6514 19.925 39.4451 18.4548C39.676 18.001 39.9326 17.5608 40.2139 17.1364C40.5567 16.6572 40.9497 16.2159 41.3862 15.82C43.1158 14.221 45.3029 13.1756 47.5918 12.6374C49.8806 12.0993 52.2618 12.0609 54.6006 12.2819C54.6757 12.2826 54.749 12.3046 54.812 12.3453C54.88 12.4189 54.9166 12.5162 54.9139 12.6163C55.0446 14.2787 54.0664 15.8027 53.1305 17.1826L51.6987 19.2966C50.7378 20.711 49.7307 22.1793 48.2644 23.0518C47.6202 23.4189 46.936 23.711 46.2253 23.9224C44.8854 24.3604 43.5145 24.697 42.1242 24.9295C40.9711 25.1216 39.7661 25.2408 38.6649 24.8545C38.2601 24.7356 37.9034 24.4914 37.6463 24.1569C37.5223 23.9872 37.4537 23.7833 37.4499 23.5731C37.4461 23.3629 37.5073 23.1567 37.6252 22.9826" fill="#FFD32A"/>
<path d="M37.6099 23.0806C38.0212 21.5431 38.763 20.1094 39.5317 18.7084C39.8806 17.9992 40.3059 17.3303 40.8001 16.7135C41.2877 16.1537 41.8341 15.6479 42.4298 15.2049C43.5961 14.3401 44.8939 13.6685 46.2735 13.2158C47.779 12.7253 49.3443 12.4414 50.9262 12.3721C51.7547 12.3311 52.5849 12.3343 53.413 12.3818C53.6187 12.3818 53.8262 12.4067 54.0319 12.4221C54.2375 12.4375 54.4451 12.4432 54.6469 12.4759C54.7045 12.4759 54.7161 12.4932 54.7276 12.5413C54.7443 12.6195 54.7514 12.6996 54.7487 12.7796C54.7555 12.9623 54.7497 13.1453 54.7314 13.3273C54.6328 14.0493 54.3973 14.746 54.0376 15.3798C53.6667 16.0503 53.2586 16.6996 52.8154 17.3247C52.3426 18.0217 51.8692 18.7187 51.3951 19.4156C50.9935 20.0056 50.5841 20.5937 50.1267 21.1453C49.6857 21.6905 49.179 22.1791 48.6181 22.6001C47.9866 23.0371 47.2944 23.379 46.5637 23.6148C44.9927 24.1603 43.3747 24.5592 41.7303 24.8064C40.9613 24.9469 40.1747 24.9618 39.401 24.8506C39.0405 24.7957 38.6909 24.6841 38.3652 24.52C38.0825 24.3886 37.8542 24.163 37.7194 23.882C37.661 23.7542 37.6375 23.6133 37.6513 23.4735C37.6652 23.3337 37.7159 23.2001 37.7982 23.0863C37.8242 23.0425 37.8317 22.9901 37.8191 22.9408C37.8065 22.8914 37.7748 22.849 37.731 22.823C37.7091 22.8102 37.685 22.8019 37.6599 22.7985C37.6349 22.795 37.6094 22.7965 37.5849 22.803C37.5605 22.8094 37.5375 22.8206 37.5174 22.8359C37.4973 22.8512 37.4804 22.8704 37.4677 22.8922C37.3664 23.037 37.3002 23.2034 37.2746 23.3782C37.2489 23.5531 37.2643 23.7315 37.3197 23.8993C37.4368 24.2481 37.6719 24.5451 37.9846 24.7391C38.3023 24.9399 38.653 25.083 39.0205 25.1619C39.4197 25.2569 39.8286 25.3053 40.2389 25.306C41.083 25.2943 41.9238 25.1984 42.7488 25.0197C43.5906 24.8608 44.4234 24.6641 45.2472 24.4297C46.0691 24.2106 46.8739 23.9318 47.6553 23.5956C48.3533 23.2764 48.9941 22.8446 49.5521 22.3176C50.6706 21.2721 51.4951 19.9499 52.3503 18.6911C52.8269 17.9896 53.3112 17.2939 53.7744 16.5771C54.2107 15.9268 54.5694 15.2276 54.8429 14.4938C54.9699 14.1285 55.0556 13.7501 55.0985 13.3657C55.1196 13.1788 55.1273 12.9906 55.1216 12.8026C55.1405 12.6094 55.0931 12.4156 54.987 12.253C54.8448 12.0877 54.6027 12.0973 54.4105 12.0781C54.2183 12.0589 53.9858 12.0416 53.7744 12.0281C53.3439 11.9993 52.9115 11.9801 52.481 11.9705C50.7684 11.9259 49.0572 12.1029 47.3901 12.4971C45.9174 12.8508 44.5081 13.4297 43.212 14.2133C41.8917 15.0223 40.6483 16.0736 39.8238 17.3996C39.6028 17.7436 39.4106 18.1088 39.2184 18.472C39.0263 18.8352 38.8341 19.1946 38.6419 19.5598C38.2515 20.2995 37.9056 21.0619 37.606 21.8429C37.4677 22.2157 37.3447 22.5943 37.2428 22.9787C37.2343 23.0259 37.2437 23.0746 37.2692 23.1152C37.2948 23.1558 37.3346 23.1854 37.3808 23.1981C37.427 23.2109 37.4764 23.2059 37.5191 23.1842C37.5618 23.1624 37.5949 23.1254 37.6118 23.0806" fill="#AC8A2F"/>
<path d="M38.3171 25.7423C38.7244 25.0279 39.3105 24.4319 40.0179 24.0126C40.7194 23.6052 41.4997 23.4207 42.2242 23.0709C42.7738 22.8057 43.2889 22.4483 43.8366 22.1792C45.6124 21.3067 47.6572 21.4105 49.5175 22.0158C51.3778 22.6212 53.0883 23.7051 54.7814 24.7794L57.8064 26.7013C57.1049 27.9524 55.6924 28.3079 54.5239 28.9517C53.973 29.2784 53.4405 29.6351 52.9288 30.0203C52.3932 30.4046 51.8481 30.7685 51.2933 31.1119C50.7458 31.4771 50.1568 31.7758 49.5387 32.0017C48.9465 32.1825 48.332 32.2795 47.7129 32.2899C45.9391 32.3649 44.1191 32.0766 42.5451 31.1368C41.5908 30.534 40.7427 29.7775 40.0352 28.8979C39.1742 27.8697 38.4113 26.6571 38.1807 25.2464" fill="#FFD32A"/>
<path d="M38.4826 25.8383C38.7992 25.285 39.2264 24.8028 39.7376 24.4219C40.2949 24.0164 40.9387 23.7935 41.5748 23.5494C41.9183 23.4228 42.2534 23.2745 42.578 23.1055C42.897 22.9344 43.2045 22.7422 43.5197 22.5654C44.1168 22.223 44.766 21.9808 45.4415 21.8486C46.7868 21.5911 48.1821 21.7794 49.4774 22.2003C50.8496 22.6481 52.1218 23.3534 53.3499 24.1029C54.6548 24.8985 55.9386 25.7307 57.2281 26.5494C57.3934 26.6531 57.5587 26.7569 57.722 26.8626L57.6528 26.5993C56.9783 27.787 55.5869 28.1522 54.4645 28.7672C53.6958 29.19 53.0078 29.7454 52.2832 30.2393C51.574 30.7456 50.826 31.1954 50.0462 31.5846C49.2577 31.9253 48.4068 32.0981 47.5479 32.0919C46.7475 32.1184 45.9468 32.0539 45.161 31.8997C44.3673 31.7453 43.6019 31.4705 42.8913 31.0849C42.1992 30.6932 41.5647 30.2075 41.006 29.6416C39.9163 28.5615 38.9093 27.2508 38.498 25.7499C38.4461 25.5577 38.4038 25.3655 38.3711 25.1733C38.3573 25.1245 38.3246 25.0831 38.2803 25.0583C38.236 25.0334 38.1837 25.0271 38.1348 25.0407C38.0863 25.0546 38.0453 25.087 38.0205 25.1308C37.9957 25.1747 37.9891 25.2265 38.0022 25.2752C38.2712 26.8838 39.2264 28.279 40.3083 29.4629C40.8623 30.0807 41.4896 30.6286 42.1764 31.0945C42.8796 31.5576 43.6523 31.9054 44.4653 32.1246C45.2693 32.3451 46.0974 32.4658 46.931 32.484C47.8033 32.5297 48.6774 32.4349 49.5197 32.2034C50.3672 31.9401 51.1282 31.4462 51.8662 30.9676C52.2506 30.7197 52.6234 30.4641 52.9943 30.1989C53.3652 29.9337 53.7361 29.6608 54.1186 29.411C54.7387 29.0415 55.3804 28.7097 56.0404 28.4174C56.6615 28.1455 57.2166 27.7431 57.6682 27.2374C57.7813 27.0975 57.8835 26.9491 57.9738 26.7934C57.9866 26.7716 57.9949 26.7475 57.9984 26.7224C58.0018 26.6974 58.0003 26.6719 57.9938 26.6474C57.9874 26.623 57.9762 26.6 57.9609 26.5799C57.9456 26.5598 57.9265 26.5429 57.9046 26.5302C56.5766 25.6903 55.2563 24.8389 53.9206 24.0106C52.6618 23.2285 51.3665 22.4732 49.9713 21.9697C48.6511 21.4557 47.2278 21.262 45.8182 21.4046C45.1137 21.4883 44.4276 21.6862 43.7869 21.9908C43.1257 22.3079 42.5281 22.7442 41.8516 23.0305C41.1751 23.3169 40.489 23.5052 39.8682 23.878C39.2977 24.2266 38.804 24.6876 38.4173 25.2329C38.3231 25.3655 38.2251 25.5039 38.1501 25.6442C38.1272 25.6881 38.122 25.7392 38.1359 25.7868C38.1497 25.8344 38.1813 25.8748 38.2242 25.8997C38.2672 25.9245 38.318 25.9317 38.3661 25.9199C38.4143 25.9081 38.456 25.8782 38.4826 25.8364" fill="#AC8A2F"/>
<path d="M35.7324 32.7089C38.0047 31.0507 40.5817 29.8569 43.316 29.1958C43.8688 29.0437 44.4395 28.9662 45.0129 28.9652C45.4544 28.9858 45.8921 29.0561 46.3178 29.1747C47.6014 29.532 48.8587 29.9776 50.0808 30.5084C51.2838 31.0004 52.5023 31.5001 53.5266 32.2996C54.3396 32.9357 55.0026 33.7409 55.6579 34.5404C56.1358 35.1208 56.6137 35.7025 57.0916 36.2854C56.563 36.3327 56.0463 36.4699 55.5638 36.691C53.2576 37.6 50.9514 38.5667 48.5356 39.1163C47.6569 39.3397 46.7513 39.4393 45.8451 39.4123C43.9559 39.3104 42.2224 38.3822 40.5658 37.4674C38.5037 36.3258 36.3378 35.0516 35.2827 32.9415" fill="#FFD32A"/>
<path d="M35.8285 32.8684C37.6876 31.513 39.7541 30.4681 41.9476 29.7743C42.6996 29.5202 43.4708 29.3274 44.2538 29.1977C44.6611 29.1401 45.0746 29.1401 45.4819 29.1977C45.8913 29.2621 46.2959 29.3546 46.6926 29.4745C47.4913 29.7089 48.2777 29.9834 49.0488 30.297C49.7945 30.593 50.5401 30.8889 51.2704 31.2176C51.9784 31.5228 52.6516 31.903 53.2787 32.3514C53.8958 32.8299 54.4561 33.3773 54.9488 33.9831C55.4927 34.6192 56.0154 35.2726 56.5478 35.9184C56.6842 36.0875 56.8226 36.2547 56.9609 36.4219C57.0051 36.3143 57.0513 36.2047 57.0955 36.0952C56.6714 36.123 56.2543 36.2177 55.8597 36.3758C55.46 36.5237 55.066 36.6852 54.6701 36.8428C53.8822 37.156 53.0923 37.4693 52.2967 37.7633C50.6996 38.3533 49.0507 38.9049 47.3595 39.147C46.5297 39.273 45.6844 39.2542 44.8611 39.0913C44.0829 38.9192 43.3272 38.658 42.6087 38.313C41.8804 37.9747 41.177 37.5865 40.4755 37.1964C39.8624 36.8543 39.2532 36.5064 38.6632 36.1221C37.5101 35.3783 36.4243 34.4828 35.7055 33.3028C35.6152 33.1548 35.5307 33.0029 35.4538 32.8473C35.3423 32.6263 35.0118 32.8204 35.1232 33.0395C35.7613 34.3098 36.8125 35.2976 37.9598 36.1144C38.5479 36.5295 39.1667 36.9004 39.7913 37.2675C40.464 37.6518 41.1366 38.0266 41.8285 38.3745C43.3141 39.1259 44.9034 39.7082 46.5927 39.6217C47.4739 39.5583 48.3468 39.4083 49.1987 39.1739C50.0308 38.9587 50.8534 38.6992 51.6644 38.4148C52.4754 38.1304 53.2826 37.819 54.0859 37.5019L55.2774 37.0292C55.6734 36.8595 56.0789 36.7132 56.492 36.591C56.6909 36.5363 56.8952 36.504 57.1012 36.4949C57.1394 36.4951 57.1768 36.484 57.2086 36.4629C57.2404 36.4418 57.2652 36.4117 57.2798 36.3764C57.2945 36.3412 57.2983 36.3024 57.2908 36.2649C57.2833 36.2275 57.2648 36.1932 57.2377 36.1663C56.6842 35.4936 56.1346 34.821 55.5792 34.1484C55.084 33.5223 54.5369 32.9392 53.9437 32.4053C52.7233 31.3559 51.2089 30.7736 49.7368 30.1759C48.9527 29.8588 48.1647 29.5475 47.3576 29.2881C46.5504 29.0286 45.7202 28.7807 44.8765 28.7884C44.0328 28.7961 43.2295 29.0228 42.4415 29.2458C40.1855 29.8936 38.0486 30.9007 36.113 32.2285C35.9554 32.3361 35.7997 32.4475 35.646 32.5609C35.6023 32.5866 35.5706 32.6285 35.5576 32.6774C35.5447 32.7263 35.5516 32.7784 35.5768 32.8223C35.6024 32.8659 35.6443 32.8977 35.6932 32.9106C35.7422 32.9236 35.7942 32.9167 35.8381 32.8915" fill="#AC8A2F"/>
<path d="M26.8593 36.0166C25.9906 37.5541 24.8433 38.9167 23.8612 40.3888C22.8792 41.8609 22.0451 43.4983 21.9394 45.2644C21.9141 45.8738 21.9359 46.4842 22.0047 47.0902C22.1085 48.2433 22.2366 49.3964 22.3891 50.5495C22.4427 51.0599 22.5352 51.5656 22.6658 52.0619C23.0233 53.3034 23.8343 54.4354 23.8593 55.7269C24.0515 54.8717 24.6972 54.1894 25.4102 53.6878C26.1232 53.1862 26.9246 52.8076 27.6165 52.2753C28.0811 51.9013 28.5155 51.4913 28.9156 51.0491C29.4139 50.5461 29.8685 50.0015 30.2744 49.4214C31.3083 47.8704 31.6523 45.9736 31.9733 44.1383C32.1268 43.4189 32.1996 42.6848 32.1904 41.9493C32.1366 40.8885 31.7465 39.8718 31.2795 38.9167C30.8701 38.0787 30.3839 37.2543 29.669 36.6547C28.8908 36.0102 27.9015 35.6768 26.8919 35.7187" fill="#FFD32A"/>
<path d="M26.6941 35.9183C26.0023 37.1405 25.1394 38.2514 24.3226 39.3891C23.5308 40.4922 22.7851 41.6376 22.2874 42.906C22.0388 43.5294 21.8696 44.1815 21.7839 44.8471C21.7121 45.5805 21.7192 46.3195 21.805 47.0514C21.8742 47.8048 21.9511 48.5568 22.0356 49.3076C22.1202 50.0533 22.1932 50.8067 22.3354 51.5427C22.4828 52.2056 22.7033 52.8502 22.9927 53.4645C23.2735 54.0387 23.482 54.6455 23.6134 55.2711C23.6374 55.4192 23.6509 55.5688 23.6538 55.7188C23.6538 55.9283 23.9824 55.9879 24.0382 55.7688C24.2054 55.0289 24.7262 54.437 25.3143 53.9834C25.9984 53.4569 26.7883 53.0898 27.4917 52.592C28.1968 52.0517 28.8423 51.4377 29.4174 50.7605C30.0213 50.1266 30.5296 49.408 30.926 48.6273C31.6736 47.0898 31.958 45.3506 32.2309 43.6709C32.3134 43.2023 32.3616 42.7283 32.375 42.2526C32.3772 41.7891 32.323 41.327 32.2136 40.8766C31.9918 40.0183 31.6618 39.1917 31.2316 38.4166C30.8717 37.6721 30.3643 37.0085 29.7402 36.466C29.0922 35.9431 28.3065 35.6193 27.4782 35.5339C27.2791 35.5131 27.0787 35.5067 26.8786 35.5147C26.6326 35.5262 26.6326 35.9087 26.8786 35.899C27.6711 35.8662 28.4549 36.0739 29.1272 36.4948C29.7834 36.9416 30.3221 37.5402 30.6973 38.2398C31.1278 38.9695 31.4722 39.7466 31.7235 40.5556C31.8546 40.9689 31.9384 41.3957 31.9734 41.8279C31.9997 42.2927 31.9778 42.759 31.908 43.2193C31.7889 44.0764 31.6294 44.9355 31.4449 45.7811C31.2846 46.5828 31.0457 47.3669 30.7319 48.1219C30.396 48.8892 29.9421 49.5993 29.3866 50.2263C29.0964 50.5568 28.7947 50.8758 28.4891 51.1872C28.1895 51.5059 27.8684 51.8039 27.5282 52.0789C26.2867 53.0533 24.5513 53.5798 23.8498 55.1173C23.7669 55.2907 23.7025 55.4724 23.6576 55.6593L24.042 55.7112C24.0093 54.3947 23.2291 53.2877 22.8601 52.0597C22.6769 51.354 22.5547 50.6339 22.4949 49.9072C22.4053 49.1641 22.3239 48.4191 22.2509 47.6722C22.1581 46.9231 22.1151 46.1687 22.1221 45.414C22.1537 44.7537 22.2773 44.1011 22.4892 43.4749C22.91 42.2046 23.6192 41.0534 24.3822 39.9637C25.1797 38.826 26.0465 37.7344 26.771 36.5467C26.8594 36.4006 26.9459 36.2527 27.0285 36.1047C27.0481 36.0613 27.0509 36.0122 27.0364 35.9669C27.0219 35.9216 26.9911 35.8833 26.95 35.8594C26.9089 35.8355 26.8603 35.8277 26.8138 35.8375C26.7672 35.8473 26.726 35.874 26.698 35.9125" fill="#AC8A2F"/>
<path d="M31.2716 35.6167C31.2918 37.0127 31.1276 38.4052 30.7834 39.7583C30.6105 40.4386 30.3991 41.1035 30.2857 41.8012C29.9148 44.2246 30.9891 46.6922 32.6687 48.5487C33.0794 49.0159 33.5453 49.4315 34.0563 49.7864C34.6509 50.1632 35.2787 50.4849 35.932 50.7473L39.1184 52.1271C39.2382 52.1885 39.3687 52.2264 39.5028 52.2386C39.9121 52.2386 40.1619 51.8196 40.2926 51.4526C40.9864 49.5115 41.0825 47.4167 40.9864 45.3834C40.9384 44.3802 40.8404 43.3636 40.4541 42.4296C40.1671 41.7784 39.7927 41.1694 39.3413 40.6192C37.3234 38.0363 34.3888 36.0068 31.0429 35.4303" fill="#FFD32A"/>
<path d="M31.0795 35.6165C31.0924 36.4148 31.0436 37.2128 30.9334 38.0035C30.8142 38.8003 30.6435 39.5887 30.4222 40.3635C30.1995 41.087 30.0652 41.835 30.0225 42.5908C30.0087 43.2772 30.0902 43.9621 30.2646 44.6261C30.6378 45.9763 31.2986 47.2298 32.2018 48.3006C32.6664 48.8785 33.2024 49.3951 33.797 49.8381C34.4363 50.2655 35.1199 50.6224 35.836 50.9028L38.1019 51.8944L38.6784 52.1462C38.8591 52.223 39.0397 52.3134 39.2261 52.3768C39.3825 52.4333 39.5524 52.4408 39.7131 52.3982C39.8738 52.3556 40.0177 52.265 40.1255 52.1385C40.329 51.8805 40.4775 51.5835 40.5618 51.266C40.6829 50.9008 40.7828 50.528 40.8674 50.1532C41.031 49.3939 41.1345 48.6227 41.1768 47.847C41.2194 47.0726 41.2226 46.2964 41.1864 45.5216C41.1695 44.7492 41.0788 43.9802 40.9154 43.2251C40.5714 41.8048 39.6662 40.6133 38.6938 39.5544C37.804 38.5841 36.7894 37.7362 35.6765 37.0329C34.5532 36.3212 33.3267 35.787 32.0404 35.4493C31.7271 35.3705 31.412 35.3033 31.0949 35.2572C31.0462 35.2441 30.9944 35.2507 30.9505 35.2755C30.9067 35.3003 30.8743 35.3413 30.8604 35.3898C30.8468 35.4387 30.8531 35.491 30.8779 35.5353C30.9028 35.5796 30.9442 35.6123 30.993 35.6262C32.2617 35.8462 33.4873 36.2673 34.6233 36.8734C35.7503 37.4752 36.79 38.2278 37.7136 39.1104C38.1727 39.5483 38.604 40.0143 39.0051 40.5057C39.4614 41.0417 39.8524 41.63 40.1697 42.2584C40.4716 42.9269 40.6581 43.6416 40.7213 44.3724C40.7966 45.1188 40.8325 45.8688 40.8289 46.619C40.8596 48.1277 40.6547 49.632 40.2216 51.0776C40.1556 51.3604 40.0334 51.6271 39.8622 51.8617C39.794 51.9592 39.6919 52.0277 39.5759 52.0539H39.5048C39.4736 52.0532 39.4426 52.0487 39.4125 52.0405C39.3275 52.0166 39.2446 51.9858 39.1646 51.9482L36.943 50.9873C36.2281 50.6779 35.4997 50.3877 34.8117 50.0264C34.169 49.6868 33.585 49.2462 33.082 48.7215C32.1262 47.7565 31.3803 46.6042 30.8912 45.3371C30.4058 44.0908 30.2891 42.7313 30.5548 41.4205C30.7201 40.6517 30.97 39.9003 31.1314 39.1258C31.2927 38.3523 31.3967 37.568 31.4427 36.7792C31.4632 36.3949 31.4709 36.0105 31.4658 35.6262C31.4658 35.5752 31.4455 35.5263 31.4095 35.4903C31.3735 35.4542 31.3246 35.434 31.2736 35.434C31.2226 35.434 31.1737 35.4542 31.1377 35.4903C31.1017 35.5263 31.0814 35.5752 31.0814 35.6262" fill="#AC8A2F"/>
<path d="M18.6552 32.4263C16.9896 32.2597 15.3189 32.1316 13.643 32.0419C13.201 32.0189 12.7552 31.9977 12.3112 32.0035C9.12675 32.0516 6.05952 33.566 3.79753 35.8106C2.89043 36.7101 2.09095 37.7325 1.04932 38.4705C1.17571 38.6665 1.36062 38.8178 1.57782 38.9029C3.75405 40.0145 6.04927 40.8758 8.41952 41.4704C8.89387 41.5967 9.376 41.6918 9.86281 41.7549C10.7651 41.8508 11.6774 41.7642 12.5454 41.5C13.4135 41.2359 14.2194 40.7997 14.9153 40.2174C15.4752 39.7087 16.0016 39.1643 16.4912 38.5877C17.2442 37.7649 18.0437 36.9859 18.8858 36.2546C19.4816 35.7338 20.1427 35.1572 20.2311 34.3712C20.2515 34.0927 20.2153 33.8129 20.1248 33.5487C20.0343 33.2845 19.8914 33.0413 19.7045 32.8337C19.3315 32.4227 18.9041 32.0645 18.4342 31.769" fill="#FFD32A"/>
<path d="M18.6547 32.2343C17.2018 32.0908 15.747 31.9748 14.2902 31.8864C13.5734 31.8442 12.8566 31.7942 12.1397 31.8153C11.5349 31.8362 10.9327 31.9056 10.339 32.0229C9.15823 32.266 8.01936 32.6804 6.95847 33.2529C5.88768 33.8228 4.89595 34.5303 4.00847 35.3573C3.08407 36.2144 2.30765 37.2253 1.32944 38.0286C1.21029 38.1285 1.08537 38.2208 0.960448 38.313C0.916816 38.3387 0.885076 38.3805 0.872122 38.4295C0.859168 38.4784 0.866046 38.5305 0.891262 38.5744C1.08345 38.9453 1.54853 39.1087 1.90407 39.2855C2.32046 39.4892 2.74134 39.6852 3.16671 39.8735C4.02 40.2579 4.89635 40.5904 5.7727 40.8921C6.64906 41.1938 7.5331 41.4533 8.42867 41.6762C9.28419 41.9153 10.1722 42.0171 11.0596 41.9779C12.7446 41.865 14.3306 41.1414 15.5202 39.9427C16.1679 39.3028 16.7483 38.5975 17.3863 37.9421C17.713 37.6077 18.0493 37.2829 18.3914 36.9639C18.7335 36.6449 19.0352 36.3874 19.3523 36.1029C19.9289 35.5783 20.4843 34.9191 20.4343 34.0946C20.3786 33.1894 19.7348 32.5053 19.0487 31.9806C18.8796 31.8538 18.7066 31.7327 18.5336 31.6116C18.4897 31.5886 18.4386 31.5835 18.391 31.5973C18.3434 31.6111 18.303 31.6428 18.2782 31.6857C18.2534 31.7286 18.2461 31.7795 18.2579 31.8276C18.2697 31.8758 18.2996 31.9175 18.3414 31.9441C18.9872 32.3919 19.7059 32.8916 19.9673 33.6737C20.0899 34.0223 20.081 34.4036 19.9423 34.7461C19.7932 35.0678 19.5823 35.3571 19.3216 35.5975C19.0372 35.8819 18.7258 36.1394 18.426 36.4085C18.0974 36.7045 17.7745 37.01 17.4651 37.3214C16.8328 37.946 16.2486 38.6147 15.6432 39.2643C15.0998 39.8769 14.4597 40.3963 13.7483 40.8018C13.0586 41.1773 12.3077 41.4272 11.5305 41.5398C10.7248 41.651 9.90571 41.6152 9.11284 41.4341C8.23456 41.2419 7.3659 40.9978 6.51068 40.7249C5.65547 40.452 4.81948 40.1484 3.99501 39.8044C3.17055 39.4604 2.37299 39.1087 1.59849 38.6935C1.44664 38.6261 1.31823 38.515 1.2295 38.3745L1.15263 38.634C2.19426 37.8902 2.99566 36.889 3.89316 35.9915C4.73752 35.1431 5.68998 34.4097 6.72593 33.8102C7.74911 33.2109 8.85428 32.7642 10.0065 32.4841C10.5746 32.3467 11.1531 32.2567 11.7361 32.2151C12.4175 32.1792 13.1004 32.1856 13.781 32.2343C15.2313 32.315 16.6804 32.4239 18.1281 32.561C18.3049 32.5764 18.4817 32.5937 18.6586 32.6129C18.7095 32.6129 18.7584 32.5926 18.7944 32.5566C18.8305 32.5206 18.8507 32.4717 18.8507 32.4207C18.8507 32.3697 18.8305 32.3209 18.7944 32.2848C18.7584 32.2488 18.7095 32.2285 18.6586 32.2285" fill="#AC8A2F"/>
<path d="M20.7113 25.7133C18.4718 25.6736 16.2497 25.3111 14.1137 24.6371C13.1654 24.3679 12.2634 23.9564 11.4385 23.4167C10.7357 22.901 10.1082 22.2897 9.57431 21.6006C8.15216 19.8498 7.04134 17.8223 6.51668 15.6295C6.24378 14.4764 6.13232 13.3098 5.92476 12.151C5.75564 11.2035 5.52502 10.2676 5.29248 9.33167C8.0462 9.62761 10.7628 10.202 13.4007 11.0459C14.2135 11.2819 14.9968 11.6094 15.7357 12.0222C18.2975 13.5482 19.4698 16.5827 20.4634 19.3943C20.792 20.2219 21.0267 21.0838 21.1629 21.9638C21.2244 22.6627 21.2244 23.3656 21.1629 24.0644C21.1245 24.7351 21.0188 25.5134 20.4384 25.8478" fill="#FFD32A"/>
<path d="M20.7114 25.5213C19.0058 25.4906 17.3088 25.2714 15.6513 24.8679C14.8337 24.6739 14.0294 24.4281 13.2432 24.1318C12.5089 23.8643 11.8209 23.4836 11.2041 23.0037C10.5972 22.4946 10.0487 21.9196 9.56867 21.2894C9.09623 20.6948 8.66475 20.0688 8.2772 19.4157C7.47702 18.0771 6.90789 16.6133 6.59368 15.0858C6.42264 14.2325 6.31886 13.3561 6.17857 12.5048C6.03828 11.6534 5.84417 10.7751 5.63469 9.92184C5.58472 9.71044 5.53091 9.50096 5.47902 9.29148L5.28684 9.53364C7.2023 9.73663 9.10078 10.0764 10.9678 10.5503C11.8922 10.7847 12.8108 11.05 13.716 11.3536C14.5575 11.6106 15.3561 11.9915 16.0856 12.4836C17.2886 13.3389 18.1515 14.5823 18.8165 15.8833C19.1598 16.5677 19.4671 17.2694 19.7371 17.9858C20.0311 18.7546 20.3136 19.5233 20.5673 20.3074C20.7214 20.7636 20.8416 21.2306 20.9267 21.7046C20.9987 22.175 21.0257 22.6512 21.0074 23.1267C21.0074 23.5687 20.9824 24.0165 20.9305 24.4566C20.9064 24.7872 20.8072 25.108 20.6403 25.3945C20.561 25.5119 20.4566 25.6104 20.3347 25.6827C20.2929 25.7093 20.263 25.7511 20.2512 25.7992C20.2394 25.8474 20.2466 25.8982 20.2715 25.9411C20.2963 25.984 20.3367 26.0157 20.3843 26.0295C20.4319 26.0433 20.483 26.0382 20.5269 26.0152C21.2092 25.6136 21.3072 24.7468 21.3495 24.0338C21.3783 23.538 21.4071 23.0402 21.3898 22.5444C21.3718 22.0402 21.3023 21.5392 21.1823 21.0492C20.9482 20.1834 20.6659 19.3313 20.3367 18.497C20.0638 17.7514 19.7716 17.0095 19.4372 16.2889C18.7954 14.9032 17.9709 13.556 16.7967 12.5567C16.136 12.0056 15.3885 11.5678 14.5846 11.2614C13.6767 10.919 12.7509 10.6259 11.8114 10.3831C9.90983 9.86166 7.97349 9.47632 6.01714 9.22999C5.77499 9.20116 5.53476 9.17233 5.29261 9.14735C5.16384 9.13197 5.08121 9.27995 5.10042 9.3895C5.31567 10.2601 5.53284 11.1326 5.69811 12.0166C5.86339 12.9007 5.97101 13.7463 6.11707 14.6111C6.25129 15.428 6.45576 16.2317 6.72821 17.0134C6.99153 17.7513 7.31284 18.4671 7.68912 19.1543C8.06655 19.8405 8.49168 20.4994 8.96137 21.1261C9.43124 21.7745 9.95868 22.3791 10.5373 22.9326C11.1307 23.4805 11.8098 23.9278 12.5475 24.2567C13.3211 24.5929 14.1198 24.8679 14.9363 25.0793C16.6163 25.5368 18.3417 25.8075 20.0811 25.8865C20.2905 25.8961 20.5 25.9018 20.7095 25.9057C20.7605 25.9057 20.8093 25.8854 20.8454 25.8494C20.8814 25.8133 20.9017 25.7645 20.9017 25.7135C20.9017 25.6625 20.8814 25.6136 20.8454 25.5776C20.8093 25.5416 20.7605 25.5213 20.7095 25.5213" fill="#AC8A2F"/>
<path d="M46.1794 29.1557C46.1794 32.4546 45.2012 35.6795 43.3684 38.4224C41.5356 41.1653 38.9306 43.3032 35.8828 44.5656C32.8351 45.8281 29.4814 46.1584 26.2458 45.5148C23.0103 44.8712 20.0383 43.2826 17.7056 40.95C15.373 38.6173 13.7844 35.6453 13.1408 32.4098C12.4972 29.1742 12.8275 25.8205 14.09 22.7728C15.3524 19.725 17.4903 17.12 20.2332 15.2872C22.9761 13.4544 26.201 12.4762 29.4999 12.4762C33.9235 12.4762 38.1661 14.2335 41.2941 17.3615C44.4221 20.4895 46.1794 24.732 46.1794 29.1557Z" fill="#D4AC2A"/>
<path d="M44.7419 29.1592C44.7423 32.1583 43.8533 35.0901 42.1874 37.584C40.5215 40.0778 38.1535 42.0216 35.3828 43.1695C32.6121 44.3175 29.5632 44.6181 26.6217 44.0332C23.6802 43.4484 20.9782 42.0043 18.8574 39.8838C16.7366 37.7633 15.2923 35.0615 14.707 32.12C14.1218 29.1786 14.422 26.1297 15.5696 23.3589C16.7172 20.588 18.6607 18.2198 21.1543 16.5535C23.6479 14.8873 26.5797 13.9979 29.5787 13.9979C31.5699 13.9977 33.5416 14.3896 35.3813 15.1515C37.221 15.9133 38.8926 17.03 40.3006 18.4379C41.7087 19.8458 42.8256 21.5172 43.5877 23.3568C44.3497 25.1964 44.7419 27.168 44.7419 29.1592Z" fill="#AC8A2F"/>
<path d="M44.3134 29.1556C44.3134 32.0854 43.4446 34.9495 41.8169 37.3855C40.1892 39.8216 37.8756 41.7202 35.1688 42.8414C32.462 43.9626 29.4835 44.256 26.61 43.6844C23.7365 43.1128 21.097 41.702 19.0253 39.6303C16.9536 37.5586 15.5427 34.9191 14.9712 32.0456C14.3996 29.172 14.6929 26.1936 15.8141 23.4867C16.9353 20.7799 18.834 18.4664 21.2701 16.8387C23.7061 15.211 26.5701 14.3422 29.5 14.3422C33.4287 14.3422 37.1966 15.9029 39.9747 18.6809C42.7527 21.459 44.3134 25.2268 44.3134 29.1556Z" fill="#E8D16E"/>
<path d="M43.4579 29.6877C43.4579 37.156 37.1543 43.2097 29.3786 43.2097C21.6029 43.2097 15.2993 37.156 15.2993 29.6877C15.2993 22.2195 21.6029 16.1658 29.3786 16.1658C37.1543 16.1658 43.4579 22.2195 43.4579 29.6877Z" fill="#F8E876"/>
</svg>
