<svg width="650" height="650" viewBox="0 0 650 650" fill="none" xmlns="http://www.w3.org/2000/svg">
<path d="M415.5 544.586C246.769 504.027 79.3861 550.583 47.2603 593.565C15.1346 636.547 137.652 644.697 211.534 644.697C285.415 644.697 360.948 631.264 456.292 644.697C551.637 658.13 618.915 642.963 632.123 610.465C645.331 577.966 626.414 595.284 415.5 544.586Z" fill="#9DBEAA"/>
<path d="M210.577 551.332H211.667C210.104 522.349 220.736 495.071 229.947 477.288C235.724 465.923 242.625 455.166 250.548 445.179L249.743 444.35C241.779 454.363 234.831 465.143 229 476.53C219.717 494.479 208.991 521.994 210.577 551.285" fill="#49745B"/>
<path d="M255.307 443.544C254.299 445.416 252.91 447.054 251.23 448.356C249.55 449.657 247.615 450.591 245.552 451.098C244.94 446.398 245.924 441.628 248.346 437.554C249.351 435.685 250.736 434.048 252.412 432.747C254.088 431.446 256.018 430.51 258.078 430C258.685 434.697 257.71 439.463 255.307 443.544Z" fill="#49745B"/>
<path d="M241.787 448.612C242.031 453.315 240.661 457.96 237.903 461.777C234.858 458.408 233.171 454.029 233.167 449.488C232.934 444.779 234.303 440.13 237.051 436.299C240.095 439.678 241.782 444.064 241.787 448.612Z" fill="#49745B"/>
<path d="M231.226 457.657C233.218 461.925 233.702 466.742 232.599 471.32C230.611 470.71 228.781 469.67 227.238 468.275C225.696 466.88 224.478 465.163 223.672 463.246C221.68 458.987 221.196 454.177 222.299 449.606C224.285 450.214 226.113 451.25 227.656 452.641C229.198 454.032 230.417 455.744 231.226 457.657Z" fill="#49745B"/>
<path d="M223.909 479.94C224.858 481.664 225.192 483.66 224.856 485.599C224.01 485.412 223.215 485.042 222.528 484.514C221.84 483.986 221.277 483.314 220.878 482.544C219.931 480.811 219.597 478.808 219.931 476.861C220.781 477.048 221.578 477.421 222.266 477.953C222.954 478.485 223.515 479.164 223.909 479.94Z" fill="#49745B"/>
<path d="M220.736 487.92C221.681 489.654 222.022 491.653 221.707 493.603C220.855 493.423 220.054 493.052 219.365 492.519C218.676 491.986 218.117 491.304 217.729 490.524C216.76 488.807 216.417 486.807 216.758 484.865C217.606 485.047 218.403 485.416 219.091 485.944C219.779 486.473 220.341 487.147 220.736 487.92Z" fill="#49745B"/>
<path d="M244.818 461.991C246.617 462.031 248.381 462.493 249.969 463.341C251.557 464.188 252.923 465.397 253.958 466.869C252.822 468.295 251.383 469.45 249.744 470.249C248.105 471.048 246.309 471.47 244.486 471.486C242.687 471.444 240.923 470.981 239.336 470.134C237.749 469.287 236.382 468.079 235.346 466.608C236.481 465.182 237.921 464.027 239.559 463.228C241.198 462.43 242.995 462.007 244.818 461.991Z" fill="#49745B"/>
<path d="M238.732 473.286C240.536 473.328 242.306 473.794 243.897 474.646C245.489 475.497 246.858 476.71 247.896 478.187C246.756 479.607 245.315 480.755 243.676 481.55C242.038 482.344 240.244 482.765 238.424 482.781C236.624 482.745 234.858 482.284 233.27 481.436C231.682 480.589 230.316 479.378 229.284 477.903C230.42 476.478 231.86 475.324 233.499 474.525C235.137 473.727 236.933 473.303 238.755 473.286" fill="#49745B"/>
<path d="M228.692 488.701C229.866 488.723 231.019 489.022 232.056 489.573C233.093 490.125 233.985 490.913 234.659 491.874C233.913 492.809 232.966 493.563 231.887 494.079C230.809 494.596 229.627 494.862 228.432 494.858C227.26 494.84 226.109 494.543 225.076 493.991C224.042 493.439 223.155 492.648 222.488 491.685C223.228 490.75 224.171 489.995 225.246 489.478C226.321 488.961 227.499 488.695 228.692 488.701Z" fill="#49745B"/>
<path d="M210.718 544.95C209.999 539.633 206.24 533.483 195.235 535.859C195.156 535.837 195.127 535.842 195.161 535.875C195.185 535.87 195.21 535.864 195.235 535.859C196.184 536.126 204.468 540.33 202.075 547.111C201.211 544.518 198.186 540.024 193 542.789C195.737 543.366 196.457 544.086 199.482 552.297C202.507 560.507 210.718 562.668 217.632 554.025C224.546 545.382 221.089 542.789 230.596 542.357C230.596 541.925 224.546 537.604 220.225 540.629C216.768 543.049 215.327 545.094 215.039 545.814C215.327 542.645 214.694 536.134 209.854 535.443C209.854 535.875 212.014 539.765 210.718 544.95Z" fill="#49745B"/>
<path d="M371.288 211.93C368.773 205.34 355.538 208.078 350.934 202.734C344.819 195.632 345.956 174.892 341.142 166.858C336.327 158.823 332.926 149.693 332.975 140.328C333.035 129.019 338.042 118.366 343.561 108.502C351.83 93.728 361.474 79.7673 372.366 66.8057C384.226 81.8235 393.866 98.4684 400.99 116.23C406.226 129.314 410.066 144.029 405.462 157.348C403.578 162.813 399.624 174.531 396.434 179.364C387.803 192.49 379.913 198.804 371.276 211.93" fill="#FFD240"/>
<path d="M372.498 211.617C370.759 207.236 365.757 206.333 361.629 205.551C359.347 205.207 357.101 204.657 354.918 203.908C354.069 203.591 353.274 203.146 352.559 202.59C351.931 202.058 351.401 201.421 350.994 200.706C348.857 197.209 348.105 192.846 347.383 188.807C346.564 184.101 346.029 179.346 345.06 174.664C344.676 172.648 344.12 170.669 343.399 168.747C342.496 166.448 341.094 164.402 339.968 162.211C337.126 156.865 335.269 151.05 334.485 145.047C332.878 131.084 339.444 118.138 346.197 106.402C353.167 94.2648 361.082 82.6956 369.868 71.8012C370.975 70.4289 372.095 69.0687 373.226 67.7206L371.463 67.6845C378.511 76.6176 384.776 86.1421 390.187 96.1521C392.903 101.163 395.397 106.285 397.668 111.517C399.955 116.637 401.911 121.898 403.524 127.268C405.143 132.551 406.06 138.025 406.25 143.548C406.315 146.219 406.113 148.891 405.648 151.522C405.187 153.886 404.543 156.21 403.722 158.474C402.296 162.603 400.851 166.731 399.202 170.776C398.426 172.69 397.607 174.591 396.656 176.427C395.522 178.507 394.238 180.502 392.817 182.397C386.569 191.16 378.974 198.834 372.715 207.597C371.848 208.801 371.006 210.028 370.187 211.28C369.302 212.628 371.439 213.916 372.324 212.58C375.466 207.885 378.882 203.38 382.555 199.087C386.004 194.988 389.519 190.95 392.787 186.683C394.514 184.414 396.217 182.09 397.728 179.677C398.735 178.002 399.62 176.256 400.376 174.453C402.242 170.21 403.825 165.853 405.353 161.483C406.027 159.551 406.75 157.619 407.303 155.651C408.042 152.931 408.496 150.142 408.657 147.328C408.926 141.702 408.358 136.067 406.972 130.608C405.597 125.103 403.798 119.712 401.592 114.484C399.397 109.092 396.965 103.804 394.297 98.6197C389.006 88.3518 382.843 78.5577 375.875 69.3456C375.008 68.2021 374.129 67.0686 373.238 65.9451C373.125 65.8268 372.99 65.732 372.84 65.6661C372.69 65.6003 372.528 65.5647 372.364 65.5613C372.2 65.5579 372.038 65.5869 371.885 65.6466C371.732 65.7063 371.593 65.7954 371.475 65.909C362.331 76.7875 354.054 88.3665 346.721 100.54C342.936 106.626 339.56 112.957 336.616 119.492C333.841 125.908 331.843 132.733 331.711 139.792C331.687 146.101 332.934 152.35 335.376 158.167C336.533 161.026 337.893 163.8 339.444 166.466C340.437 168.106 341.216 169.865 341.762 171.703C343.074 176.21 343.621 180.923 344.331 185.545C345.018 190.017 345.68 194.627 347.341 198.87C347.977 200.709 348.969 202.404 350.26 203.859C351.818 205.472 353.991 206.339 356.116 206.917C358.379 207.519 360.708 207.868 363.001 208.355C365.011 208.783 367.069 209.252 368.694 210.492C369.286 210.955 369.757 211.553 370.067 212.237C370.157 212.552 370.364 212.821 370.647 212.987C370.929 213.154 371.264 213.207 371.583 213.134C371.904 213.05 372.178 212.843 372.346 212.558C372.514 212.272 372.562 211.932 372.48 211.611" fill="#AB8935"/>
<path d="M398.065 301.016C403.692 305.277 413.472 295.949 420.207 298.049C429.15 300.836 439.165 319.036 447.501 323.327C455.837 327.618 463.552 333.558 468.469 341.515C474.398 351.145 475.794 362.832 476.33 374.123C477.121 391.033 476.315 407.98 473.922 424.739C455.91 418.278 438.921 409.256 423.481 397.951C412.112 389.621 401.068 379.167 397.926 365.451C396.632 359.817 393.792 347.786 393.93 341.978C394.303 326.27 397.662 316.743 398.035 301.052" fill="#FFD240"/>
<path d="M397.421 302.082C401.11 304.82 406.1 302.684 409.849 301.233C411.951 300.323 414.136 299.618 416.373 299.127L416.734 299.072L416.915 299.042C416.915 299.042 416.746 299.042 416.885 299.042C417.162 299.012 417.433 298.988 417.703 298.982H418.389L418.787 299.012H418.949C419.148 299.012 418.757 298.976 418.949 299.012C419.404 299.091 419.851 299.21 420.285 299.367L420.562 299.476C420.664 299.518 420.905 299.62 420.67 299.518C420.875 299.608 421.08 299.704 421.272 299.807C422.146 300.264 422.982 300.791 423.77 301.384L424.372 301.823C424.372 301.823 424.558 301.973 424.372 301.853L424.516 301.967L424.853 302.244C425.275 302.605 425.69 302.972 426.099 303.352C427.905 305.007 429.542 306.812 431.155 308.636C434.459 312.385 437.558 316.334 441.109 319.86C442.577 321.377 444.212 322.722 445.984 323.869C447.08 324.543 448.259 325.072 449.379 325.716C450.733 326.481 452.069 327.293 453.363 328.124C458.485 331.512 463.173 335.731 466.604 340.859C470.034 345.987 472.057 351.801 473.278 357.789C474.524 363.922 474.933 370.175 475.174 376.446C475.451 383.633 475.451 390.821 475.174 398.011C474.897 405.201 474.311 412.367 473.417 419.509C473.206 421.242 472.971 422.97 472.731 424.697L474.319 423.493C462.813 419.382 451.712 414.214 441.158 408.056C435.885 404.97 430.762 401.644 425.786 398.077C421.587 395.124 417.591 391.891 413.827 388.399C410.209 385.071 407.017 381.306 404.324 377.193C403.01 375.139 401.874 372.977 400.93 370.729C400.083 368.612 399.417 366.428 398.938 364.199C397.981 360.022 397.036 355.839 396.277 351.62C395.892 349.496 395.549 347.407 395.351 345.349C395.176 343.055 395.176 340.751 395.351 338.458C395.952 327.426 398.438 316.61 399.124 305.59C399.22 304.074 399.287 302.581 399.323 301.046C399.359 299.512 396.867 299.421 396.825 301.046C396.632 306.851 396.095 312.639 395.218 318.38C394.448 323.742 393.593 329.099 393.124 334.497C392.83 337.296 392.694 340.109 392.714 342.923C392.785 344.994 392.986 347.059 393.316 349.104C393.996 353.612 394.965 358.078 395.977 362.52C396.428 364.5 396.837 366.498 397.445 368.442C398.209 370.87 399.198 373.221 400.4 375.465C402.84 379.904 405.878 383.986 409.428 387.599C413.041 391.278 416.937 394.669 421.08 397.74C425.895 401.351 430.878 404.74 436 407.893C446.564 414.398 457.707 419.911 469.288 424.36C470.702 424.908 472.129 425.431 473.555 425.949C474.41 426.25 475.042 425.491 475.15 424.745C476.161 417.587 476.887 410.399 477.329 403.181C477.77 395.963 477.919 388.74 477.774 381.514C477.727 374.85 477.268 368.195 476.402 361.587C475.511 355.424 473.934 349.303 471.1 343.736C468.15 338.092 464.032 333.141 459.02 329.213C456.537 327.233 453.905 325.447 451.148 323.869C449.945 323.183 448.693 322.593 447.501 321.889C447.116 321.66 446.737 321.407 446.364 321.148L445.792 320.721L445.521 320.516C445.521 320.516 445.364 320.39 445.473 320.474L445.37 320.39C441.657 317.309 438.594 313.475 435.464 309.821C432.334 306.168 429.09 302.292 425.166 299.349C423.642 298.101 421.866 297.195 419.96 296.695C417.733 296.226 415.446 296.695 413.34 297.333C411.083 298.037 408.922 299 406.72 299.789C405.68 300.171 404.614 300.479 403.53 300.709C403.301 300.758 403.072 300.794 402.838 300.83C402.603 300.866 402.94 300.83 402.705 300.83L402.254 300.866C401.786 300.893 401.317 300.881 400.852 300.83C401.104 300.83 400.809 300.83 400.713 300.83L400.406 300.758C400.189 300.703 399.979 300.625 399.762 300.553C399.545 300.481 399.901 300.637 399.684 300.523L399.407 300.372C399.185 300.249 398.972 300.11 398.769 299.957C398.485 299.789 398.146 299.74 397.826 299.818C397.505 299.897 397.228 300.098 397.054 300.378C396.891 300.664 396.844 301.001 396.922 301.32C397 301.639 397.198 301.916 397.475 302.094" fill="#AB8935"/>
<path d="M329.815 264.02L295.575 265.308C288.612 265.567 281.528 265.82 274.794 264.044C259.783 260.102 249.215 247.066 239.73 234.782C229.119 221.036 218.274 206.844 213.519 190.143C212.875 187.892 212.58 184.979 214.53 183.691C215.481 183.089 216.697 183.053 217.834 183.089C243.166 183.432 268.54 186.381 292.963 193.11C299.584 194.916 306.475 197.239 311.109 202.312C314.004 205.478 315.792 209.493 317.326 213.495C320.275 221.187 322.478 229.143 324.675 237.069C326.22 242.643 327.765 248.216 329.309 253.789C330.32 257.43 331.271 261.553 329.351 264.809" fill="#FFD240"/>
<path d="M329.815 262.769C318.235 263.206 306.653 263.641 295.07 264.075C289.653 264.279 284.086 264.49 278.681 263.599C273.801 262.781 269.123 261.03 264.905 258.441C256.479 253.32 249.889 245.682 243.84 238.026C237.792 230.371 231.713 222.595 226.411 214.38C223.746 210.304 221.348 206.06 219.231 201.675C218.195 199.496 217.244 197.281 216.408 195.018C215.51 192.836 214.823 190.572 214.356 188.259C214.155 187.339 214.224 186.379 214.554 185.497C214.975 184.606 215.884 184.365 216.799 184.323C219.471 184.197 222.216 184.389 224.876 184.48C230.479 184.666 236.082 184.979 241.674 185.449C252.824 186.351 263.912 187.898 274.884 190.083C280.377 191.186 285.831 192.464 291.248 193.917C296.003 195.193 300.83 196.559 305.091 199.081C307.179 200.292 309.054 201.84 310.64 203.661C312.172 205.526 313.445 207.588 314.425 209.794C316.67 214.608 318.289 219.706 319.842 224.756C321.467 230.064 322.924 235.426 324.404 240.777C325.162 243.521 325.923 246.266 326.685 249.01C327.431 251.695 328.286 254.379 328.84 257.117C329.315 259.452 329.49 261.992 328.238 264.135C327.443 265.531 329.58 266.831 330.374 265.429C333.215 260.445 330.718 254.325 329.315 249.275C327.756 243.636 326.21 237.996 324.627 232.363C323.098 226.904 321.497 221.458 319.589 216.113C317.832 211.202 315.978 206.152 312.566 202.102C309.262 198.154 304.609 195.686 299.849 193.941C294.733 192.063 289.364 190.781 284.062 189.535C272.784 186.905 261.356 184.967 249.841 183.733C244.175 183.116 238.47 182.658 232.724 182.361C229.819 182.201 226.91 182.074 223.997 181.982C222.541 181.942 221.086 181.908 219.634 181.88C218.352 181.8 217.066 181.827 215.788 181.958C213.176 182.349 211.78 184.552 211.774 187.074C211.774 189.481 212.664 191.889 213.429 194.097C215.086 198.854 217.146 203.461 219.586 207.868C224.455 216.727 230.509 224.876 236.696 232.917C242.883 240.958 249.064 249.167 256.888 255.727C260.754 259.038 265.109 261.73 269.798 263.708C274.854 265.778 280.276 266.572 285.711 266.717C291.549 266.879 297.417 266.494 303.255 266.277L321.034 265.609L329.791 265.278C331.392 265.218 331.428 262.72 329.791 262.781" fill="#AB8935"/>
<path d="M345.15 289.37C330.555 292.819 315.262 287.276 300.354 288.853C295.148 289.401 290.075 290.815 285.031 292.229C276.966 294.498 268.703 296.882 262.004 301.907C251.267 309.954 246.254 323.447 242.546 336.357C238.839 349.267 235.667 362.881 227.103 373.227L261.408 380.641C266.729 381.791 272.182 382.946 277.574 382.218C282.726 381.52 287.499 379.143 291.922 376.416C306.367 367.539 318.043 354.75 327.251 340.54C336.459 326.33 343.32 310.736 349.363 294.907C349.893 293.517 350.422 291.94 349.82 290.58C349.219 289.22 346.913 288.726 346.324 290.099" fill="#FFD240"/>
<path d="M344.861 288.161C334.395 290.604 323.622 288.419 313.101 287.607C307.651 287.099 302.158 287.266 296.749 288.106C291.098 289.069 285.549 290.73 280.06 292.368C274.896 293.902 269.732 295.696 265.056 298.416C260.529 301.082 256.582 304.626 253.446 308.84C247.084 317.266 243.774 327.546 240.939 337.573C237.882 348.406 235.089 359.606 228.722 369.031C227.957 370.163 227.145 371.27 226.272 372.324C225.724 372.992 225.779 374.207 226.796 374.424L246.157 378.637C252.411 379.991 258.652 381.442 264.929 382.669C267.899 383.301 270.921 383.654 273.957 383.723C276.805 383.736 279.637 383.306 282.353 382.447C287.733 380.738 292.644 377.686 297.237 374.46C306.422 367.885 314.573 359.973 321.419 350.988C328.882 341.358 334.979 330.766 340.209 319.794C342.935 314.076 345.439 308.25 347.798 302.37C348.396 300.89 348.982 299.409 349.556 297.929C350.137 296.582 350.644 295.203 351.072 293.8C351.415 292.512 351.524 290.995 350.807 289.804C350.499 289.318 350.082 288.91 349.589 288.614C349.096 288.317 348.54 288.139 347.967 288.094C347.428 288.03 346.882 288.13 346.4 288.38C345.918 288.63 345.522 289.019 345.264 289.497C345.101 289.782 345.054 290.119 345.132 290.438C345.211 290.758 345.409 291.035 345.686 291.212C345.97 291.381 346.309 291.432 346.63 291.353C346.951 291.274 347.228 291.072 347.401 290.791C347.401 290.791 347.599 290.43 347.443 290.664C347.599 290.43 347.485 290.664 347.443 290.664L347.533 290.61C347.401 290.652 347.401 290.652 347.533 290.61C347.822 290.496 347.419 290.61 347.599 290.61C347.88 290.588 348.158 290.665 348.388 290.827C348.683 291.019 348.268 290.682 348.514 290.929C348.568 290.989 348.629 291.049 348.677 291.11C348.538 290.917 348.731 291.248 348.737 291.266C348.765 291.353 348.788 291.441 348.803 291.531C348.881 292.015 348.851 292.511 348.713 292.981C348.329 294.306 347.861 295.605 347.311 296.869C346.763 298.29 346.203 299.704 345.643 301.112C343.399 306.722 341.027 312.283 338.421 317.742C333.414 328.352 327.588 338.632 320.552 348.027C314.138 356.69 306.517 364.391 297.923 370.897C293.71 374.057 289.136 377.042 284.249 379.1C281.874 380.136 279.359 380.811 276.786 381.105C273.994 381.333 271.186 381.208 268.426 380.731C265.531 380.286 262.672 379.63 259.807 379.01L250.569 377.018L232.086 373.022L227.47 372.023L227.993 374.123C235.336 365.216 238.827 354.1 241.944 343.158C244.803 333.065 247.506 322.725 253.103 313.727C255.69 309.431 259.08 305.674 263.087 302.659C267.361 299.548 272.29 297.477 277.291 295.84C279.837 295.004 282.413 294.269 284.989 293.541C287.799 292.753 290.616 291.958 293.463 291.308C296.234 290.65 299.05 290.201 301.889 289.966C304.509 289.783 307.138 289.758 309.761 289.894C320.378 290.387 330.964 292.729 341.599 291.296C342.911 291.12 344.209 290.881 345.493 290.58C347.058 290.219 346.438 287.799 344.891 288.173" fill="#AB8935"/>
<path d="M409.03 223.793C407.726 221.035 406.688 218.159 405.931 215.204L399.377 192.653C398.113 188.29 396.837 183.89 396.446 179.364C395.844 172.521 397.294 165.69 398.763 158.985C399.902 153.769 401.068 148.553 402.26 143.337C403.403 138.342 404.595 133.322 406.677 128.634C411.534 117.716 421.001 109.333 431.6 103.814C442.199 98.2946 453.947 95.3876 465.665 93.0464C466.251 92.8556 466.884 92.8556 467.47 93.0464C468.079 93.4295 468.524 94.0262 468.716 94.7196C472.117 103.2 472.418 112.552 472.67 121.683C473.056 135.375 473.429 149.223 470.546 162.608C469.444 167.712 467.843 172.798 464.949 177.143C462.842 180.309 460.104 182.999 457.817 186.039C455.036 189.734 452.936 193.935 449.842 197.371C447.649 199.66 445.249 201.741 442.674 203.589C432.623 211.268 422.253 219.11 410.09 222.583" fill="#FFD240"/>
<path d="M410.12 223.185C409.009 220.832 408.116 218.382 407.454 215.866C406.629 213.056 405.817 210.233 404.998 207.44C403.367 201.825 401.718 196.216 400.111 190.589C398.618 185.377 397.427 180.171 397.613 174.712C397.8 169.253 398.986 163.945 400.141 158.654C401.393 152.949 402.645 147.219 403.987 141.562C405.239 136.241 406.707 130.939 409.355 126.13C413.948 117.795 421.248 111.228 429.415 106.486C438.365 101.28 448.356 98.2164 458.394 95.9052C460.922 95.3034 463.462 94.7677 466.008 94.2802C466.399 94.202 466.85 94.0636 467.163 94.3645C467.496 94.8169 467.738 95.3301 467.874 95.8751C468.315 97.0548 468.704 98.2585 469.041 99.4863C470.308 104.398 471.037 109.433 471.214 114.502C471.497 119.883 471.605 125.288 471.695 130.68C471.786 136.314 471.755 141.959 471.382 147.586C471.051 153.172 470.246 158.718 468.975 164.167C467.681 169.512 465.677 174.537 462.24 178.877C460.573 180.977 458.743 182.939 457.106 185.064C455.469 187.188 454.055 189.517 452.568 191.774C451.174 194.004 449.535 196.072 447.681 197.937C445.715 199.767 443.641 201.477 441.47 203.059C433.646 209.047 425.642 215.066 416.554 219.032C414.364 219.98 412.114 220.785 409.819 221.44C408.278 221.885 408.892 224.304 410.421 223.847C420.339 220.988 429.078 215.337 437.305 209.258C439.408 207.705 441.49 206.132 443.553 204.54C445.771 202.929 447.873 201.163 449.842 199.255C453.742 195.313 456.113 190.228 459.538 185.918C461.253 183.752 463.149 181.705 464.828 179.527C466.539 177.253 467.947 174.766 469.017 172.13C471.238 166.803 472.321 161.026 473.08 155.332C474.614 143.897 474.247 132.251 473.916 120.72C473.857 115.458 473.465 110.205 472.743 104.993C472.358 102.424 471.78 99.8868 471.015 97.4038C470.305 95.1529 469.511 91.4816 466.489 91.6622C465.153 91.8129 463.83 92.0603 462.529 92.4025C461.217 92.6793 459.907 92.9642 458.599 93.2571C455.987 93.8589 453.381 94.4608 450.775 95.195C445.551 96.5933 440.439 98.3818 435.482 100.546C426.334 104.596 417.848 110.416 411.564 118.27C408.331 122.302 405.803 126.852 404.089 131.727C402.115 137.331 400.966 143.223 399.666 149.019C398.39 154.676 397.024 160.334 396.055 166.051C395.092 171.606 394.7 177.179 395.639 182.765C396.602 188.482 398.492 194.043 400.105 199.616C401.772 205.358 403.415 211.112 405.112 216.847C405.826 219.443 406.773 221.969 407.941 224.395C408.669 225.833 410.848 224.611 410.12 223.191" fill="#AB8935"/>
<path d="M432.768 235.041C433.502 204.184 449.144 174.254 474.344 155.458C477.663 152.863 481.304 150.709 485.177 149.049C488.788 147.61 492.604 146.822 496.371 145.883C501.24 144.679 506.043 143.175 510.984 142.236C520.614 140.43 530.52 140.713 540.349 141.032C542.154 141.086 544.194 141.243 545.38 142.573C546.566 143.903 546.421 145.708 546.223 147.351C542.834 175.109 528.859 200.916 509.48 221.512C506.067 225.123 502.408 228.68 497.852 230.907C493.699 232.935 489.005 233.765 484.358 234.409C467.204 236.77 449.815 236.889 432.629 234.764" fill="#FFD240"/>
<path d="M434.013 235.053C434.281 225.056 436.064 215.157 439.304 205.695C442.554 196.206 447.164 187.239 452.99 179.075C458.863 170.824 465.927 163.49 473.952 157.312C478.231 154.02 482.794 151.035 487.969 149.374C490.696 148.495 493.494 147.881 496.269 147.195C499.14 146.485 501.993 145.678 504.857 144.932C510.443 143.455 516.164 142.546 521.932 142.218C527.698 141.905 533.475 142.055 539.241 142.218C541.185 142.278 544.405 142.019 544.995 144.457C545.163 145.474 545.151 146.513 544.959 147.526C544.79 148.894 544.59 150.256 544.357 151.613C543.46 157.022 542.177 162.36 540.517 167.586C537.136 178.112 532.43 188.165 526.512 197.504C523.558 202.202 520.343 206.731 516.882 211.07C513.481 215.397 509.812 219.507 505.899 223.377C504.039 225.248 501.99 226.92 499.784 228.367C497.528 229.78 495.076 230.853 492.507 231.551C487.151 233.043 481.487 233.585 475.962 234.108C464.378 235.203 452.72 235.283 441.121 234.349C438.293 234.12 435.47 233.832 432.653 233.482C432.322 233.481 432.004 233.61 431.768 233.843C431.533 234.075 431.399 234.391 431.395 234.722C431.4 235.051 431.531 235.366 431.762 235.6C431.994 235.835 432.306 235.971 432.635 235.98C444.49 237.443 456.452 237.846 468.379 237.184C474.247 236.853 480.115 236.275 485.929 235.414C491.484 234.602 496.973 233.284 501.686 230.106C506.398 226.928 510.16 222.739 513.837 218.569C517.633 214.262 521.191 209.751 524.496 205.057C531.081 195.729 536.484 185.621 540.583 174.964C542.591 169.727 544.228 164.356 545.482 158.889C546.108 156.128 546.63 153.348 547.047 150.547C547.408 148.14 548.112 145.299 547.089 142.952C545.886 140.213 542.762 139.864 540.15 139.78C537.189 139.69 534.222 139.6 531.261 139.576C525.327 139.445 519.393 139.779 513.512 140.575C507.584 141.453 501.872 143.247 496.058 144.697C493.212 145.407 490.341 146.027 487.548 146.912C484.804 147.776 482.164 148.941 479.676 150.385C475.022 153.2 470.657 156.467 466.646 160.141C462.781 163.582 459.18 167.308 455.873 171.287C449.213 179.292 443.757 188.225 439.677 197.805C435.639 207.261 433.048 217.272 431.991 227.5C431.738 230 431.58 232.505 431.516 235.017C431.48 236.618 433.977 236.642 434.013 235.017" fill="#AB8935"/>
<path d="M449.078 242.432C454.627 233.067 462.283 225.165 469.872 217.353C472.145 214.927 474.556 212.634 477.094 210.486C480.096 208.095 483.342 206.027 486.778 204.317C500.416 197.365 516.022 194.723 531.315 195.421C546.608 196.119 561.624 200.062 575.852 205.653C576.319 205.791 576.737 206.06 577.056 206.429C577.206 206.715 577.297 207.028 577.324 207.349C577.351 207.671 577.313 207.994 577.212 208.301C575.076 218.954 566.24 226.766 557.911 233.741L545.194 244.4C536.659 251.556 527.74 258.911 517.003 261.854C512.345 263.118 507.5 263.497 502.679 263.659C493.503 264.009 484.313 263.677 475.186 262.666C467.639 261.836 459.857 260.421 453.652 256.046C451.419 254.475 449.379 252.435 448.512 249.859C447.645 247.283 448.253 244.063 450.474 242.474" fill="#FFD240"/>
<path d="M450.143 243.076C455.476 234.121 462.698 226.531 469.926 219.074C473.537 215.379 477.1 211.696 481.421 208.843C485.471 206.2 489.796 204.004 494.319 202.295C503.151 198.947 512.465 197.045 521.902 196.661C532.211 196.269 542.525 197.282 552.56 199.671C557.832 200.88 563.036 202.37 568.148 204.136C569.424 204.578 570.696 205.031 571.964 205.496C573.204 205.954 574.516 206.363 575.713 206.929C576.057 207.091 576.117 207.152 576.111 207.489C576.065 208.007 575.967 208.519 575.816 209.017C575.532 210.175 575.166 211.312 574.72 212.418C572.981 216.793 570.032 220.621 566.806 224.003C563.289 227.543 559.578 230.884 555.69 234.012C551.481 237.539 547.268 241.066 543.051 244.593C539.482 247.602 535.883 250.521 532.037 253.145C528.308 255.78 524.264 257.94 520 259.573C515.282 261.294 510.322 261.98 505.327 262.287C494.514 262.908 483.666 262.527 472.923 261.15C467.928 260.506 462.818 259.495 458.256 257.286C456.095 256.299 454.103 254.979 452.352 253.374C450.926 252.002 449.656 250.244 449.439 248.222C449.299 247.316 449.402 246.39 449.739 245.537C450.075 244.685 450.632 243.937 451.353 243.371C451.59 243.141 451.727 242.827 451.734 242.497C451.741 242.166 451.617 241.847 451.389 241.608C451.156 241.376 450.843 241.242 450.515 241.236C450.186 241.229 449.868 241.349 449.626 241.571C448.736 242.294 448.027 243.215 447.554 244.259C447.082 245.304 446.86 246.444 446.905 247.59C447.016 249.995 447.963 252.285 449.583 254.066C451.219 255.885 453.161 257.404 455.319 258.556C457.657 259.853 460.135 260.883 462.704 261.625C467.964 263.19 473.483 263.798 478.954 264.291C484.511 264.793 490.082 265.044 495.667 265.044C501.186 265.132 506.704 264.817 512.176 264.099C517.117 263.341 521.901 261.78 526.338 259.477C535.203 254.908 542.726 248.09 550.315 241.728C554.528 238.177 558.844 234.692 562.984 231.033C566.8 227.669 570.459 224.064 573.39 219.887C574.838 217.822 576.049 215.601 577.001 213.266C577.461 212.132 577.841 210.968 578.139 209.782C578.434 208.578 578.819 207.26 578.277 206.098C577.676 204.81 576.159 204.437 574.943 203.974C573.727 203.51 572.355 202.987 571.049 202.523C568.401 201.572 565.735 200.682 563.051 199.869C552.404 196.549 541.373 194.621 530.232 194.133C520.377 193.73 510.519 194.849 501.006 197.45C491.292 200.17 481.626 204.546 474.109 211.389C472.123 213.194 470.263 215.132 468.391 217.058C466.52 218.984 464.672 220.898 462.842 222.848C459.088 226.794 455.573 230.96 452.316 235.324C450.775 237.413 449.307 239.573 448.007 241.8C447.188 243.184 449.319 244.478 450.143 243.094" fill="#AB8935"/>
<path d="M449.836 261.005C453.66 257.253 458.393 254.557 463.57 253.181C468.686 251.887 473.91 252.11 479.068 251.213C482.986 250.533 486.838 249.209 490.756 248.493C503.431 246.182 516.07 250.455 526.633 257.569C537.195 264.682 546 274.511 554.703 284.249L570.249 301.642C563.628 308.232 554.137 307.938 545.681 309.9C541.661 310.838 537.731 312.355 533.783 313.757C529.834 315.16 525.676 316.496 521.589 317.682C517.502 318.867 513.241 319.963 509.022 320.137C504.989 320.212 500.964 319.728 497.064 318.699C485.827 316.008 474.927 310.971 466.76 302.232C461.867 297.002 458.064 290.574 455.012 283.737C451.449 275.763 448.831 266.807 449.878 257.611" fill="#FFD240"/>
<path d="M450.703 261.902C453.676 259.008 457.212 256.755 461.091 255.282C465.304 253.729 469.727 253.476 474.151 253.085C476.527 252.901 478.889 252.565 481.223 252.08C483.528 251.58 485.791 250.924 488.084 250.37C492.415 249.287 496.893 248.919 501.343 249.281C510.208 250.058 518.64 253.717 525.964 258.646C533.788 263.9 540.481 270.581 546.843 277.46C553.601 284.766 560.156 292.265 566.788 299.686L569.322 302.521L569.358 300.758C563.02 306.993 553.656 306.776 545.519 308.666C539.951 309.936 534.655 312.205 529.269 314.004C523.882 315.804 518.435 317.615 512.844 318.506C507.253 319.397 501.758 318.621 496.329 317.248C491.265 316.003 486.358 314.186 481.704 311.832C477.004 309.453 472.696 306.37 468.927 302.689C465.294 299.004 462.185 294.836 459.688 290.303C454.777 281.589 450.805 271.592 450.895 261.451C450.895 260.175 450.972 258.901 451.124 257.629C451.119 257.301 450.987 256.989 450.756 256.757C450.524 256.526 450.212 256.394 449.884 256.389C449.556 256.396 449.243 256.529 449.009 256.759C448.776 256.99 448.639 257.301 448.626 257.629C447.459 268.185 450.956 278.627 455.614 287.956C457.982 292.816 460.934 297.367 464.407 301.51C467.995 305.659 472.218 309.212 476.919 312.036C481.595 314.824 486.596 317.026 491.809 318.59C497.184 320.246 502.877 321.6 508.529 321.437C514.306 321.287 519.964 319.553 525.435 317.862C528.263 316.988 531.072 316.059 533.861 315.076C536.671 314.083 539.458 313.029 542.287 312.151C546.806 310.754 551.459 310.189 556.093 309.334C560.396 308.539 564.772 307.366 568.395 304.814C569.356 304.143 570.259 303.394 571.097 302.575C571.33 302.342 571.463 302.028 571.468 301.7C571.474 301.371 571.352 301.052 571.127 300.812C564.314 293.18 557.544 285.507 550.664 277.941C544.164 270.797 537.381 263.828 529.551 258.134C522.155 252.76 513.638 248.601 504.544 247.199C499.979 246.472 495.327 246.493 490.768 247.259C486.056 248.077 481.542 249.739 476.787 250.328C472.141 250.93 467.404 250.888 462.854 252.134C458.675 253.291 454.774 255.285 451.389 257.996C450.55 258.658 449.748 259.36 448.981 260.102C447.82 261.216 449.553 263.015 450.715 261.908" fill="#AB8935"/>
<path d="M421.254 300.053C438.441 293.714 456.707 290.818 475.011 291.531C478.737 291.682 482.499 291.989 486.061 293.108C488.794 294.022 491.417 295.233 493.886 296.719C501.397 301.064 508.252 306.433 515.083 311.765C521.745 316.977 528.492 322.28 533.481 329.111C537.448 334.527 540.168 340.769 542.858 346.938C544.816 351.435 546.776 355.931 548.738 360.425C545.386 359.589 541.871 359.901 538.441 360.245C522.359 361.827 506.224 363.801 490.088 362.941C484.19 362.622 478.268 361.918 472.682 359.998C461.024 355.995 451.816 347.106 443.071 338.415C432.184 327.582 420.857 315.756 418.016 300.679" fill="#FFD240"/>
<path d="M421.567 301.263C430.911 297.817 440.595 295.378 450.456 293.987C455.407 293.299 460.392 292.881 465.388 292.735C470.541 292.485 475.706 292.654 480.831 293.24C483.484 293.587 486.074 294.308 488.523 295.383C490.975 296.518 493.348 297.817 495.625 299.271C500.211 302.162 504.649 305.284 508.92 308.624C513.061 311.795 517.207 314.979 521.204 318.338C525.097 321.507 528.641 325.084 531.772 329.008C534.878 333.029 537.189 337.597 539.325 342.201C541.6 347.154 543.719 352.18 545.898 357.175C546.463 358.475 547.029 359.769 547.589 361.069C548.07 360.467 548.546 359.865 549.021 359.263C546.315 358.685 543.535 358.535 540.782 358.818C538.013 359.035 535.257 359.348 532.494 359.631C527 360.19 521.499 360.744 515.986 361.171C504.936 362.032 493.615 362.556 482.595 361.063C477.158 360.377 471.883 358.748 467.007 356.248C462.434 353.785 458.161 350.802 454.272 347.359C450.318 343.946 446.598 340.263 442.903 336.574C439.665 333.342 436.463 330.074 433.46 326.625C427.604 319.92 422.344 312.373 419.942 303.7C419.641 302.605 419.388 301.504 419.172 300.396C418.871 298.819 416.457 299.445 416.764 300.998C418.498 310.092 423.325 318.151 429.084 325.265C432.033 328.912 435.241 332.343 438.521 335.683C442.048 339.294 445.617 342.839 449.319 346.251C457.287 353.6 466.207 360.094 476.944 362.501C482.547 363.783 488.331 364.181 494.06 364.307C499.663 364.451 505.273 364.307 510.864 363.94C516.455 363.573 522.064 363.085 527.656 362.531L535.967 361.689C538.749 361.323 541.551 361.122 544.357 361.087C545.7 361.101 547.038 361.26 548.347 361.563C548.583 361.622 548.831 361.612 549.062 361.534C549.293 361.456 549.496 361.313 549.647 361.123C549.798 360.932 549.891 360.702 549.915 360.459C549.938 360.217 549.891 359.973 549.78 359.757C547.511 354.557 545.26 349.351 542.979 344.157C540.89 339.408 538.7 334.672 535.835 330.314C530.057 321.569 521.601 315.232 513.44 308.864C509.094 305.476 504.713 302.124 500.121 299.072C495.529 296.021 490.78 293.102 485.484 291.639C480.308 290.219 474.753 290.171 469.42 290.177C454.132 290.203 438.948 292.709 424.462 297.598C423.258 298.001 422.115 298.416 420.941 298.844C420.627 298.936 420.359 299.145 420.192 299.428C420.026 299.711 419.973 300.046 420.044 300.366C420.129 300.686 420.337 300.959 420.622 301.127C420.907 301.295 421.246 301.344 421.567 301.263Z" fill="#AB8935"/>
<path d="M359.787 304.988C351.602 313.095 341.984 319.577 333.215 327.046C324.446 334.515 316.315 343.296 312.482 354.172C311.245 357.949 310.295 361.813 309.641 365.733C308.244 373.136 306.983 380.559 305.855 388.002C305.284 391.295 304.964 394.627 304.898 397.969C304.898 406.395 307.992 414.911 305.855 423.048C308.539 418.028 313.83 414.935 319.198 413.045C324.567 411.155 330.248 410.21 335.538 408.104C339.111 406.588 342.558 404.793 345.848 402.735C349.808 400.376 353.757 397.957 357.283 394.965C366.51 387.081 372.041 375.814 377.319 364.873C379.395 360.563 381.496 356.212 382.573 351.548C384.132 344.807 383.482 337.741 382.254 330.928C381.183 324.952 379.606 318.891 376.194 313.896C372.472 308.461 366.866 304.6 360.461 303.062" fill="#FFD240"/>
<path d="M358.92 304.092C352.414 310.519 345.03 315.936 337.856 321.612C330.934 327.118 324.23 332.962 318.849 340.028C316.184 343.495 313.961 347.28 312.229 351.295C310.345 355.725 309.346 360.425 308.455 365.137C307.532 369.976 306.674 374.825 305.879 379.684C305.085 384.499 304.2 389.356 303.779 394.225C303.4 398.667 303.881 403.024 304.483 407.43C305.043 411.534 305.626 415.705 305.157 419.858C305.046 420.827 304.865 421.786 304.615 422.729C304.278 424.047 306.192 424.992 306.884 423.716C309.244 419.37 313.565 416.596 318.055 414.802C323.273 412.714 328.888 411.793 334.172 409.945C339.649 408.019 344.669 404.974 349.586 401.929C354.503 398.883 358.981 395.543 362.784 391.264C370.205 382.916 375.08 372.57 379.769 362.537C381.127 359.746 382.273 356.857 383.199 353.895C384.035 350.997 384.518 348.008 384.638 344.993C384.896 339.246 384.036 333.444 382.862 327.835C381.761 322.617 380.082 317.356 376.982 312.957C373.848 308.532 369.503 305.107 364.47 303.093C363.26 302.602 362.017 302.2 360.75 301.889C359.191 301.516 358.499 303.917 360.07 304.296C365.117 305.496 369.678 308.204 373.148 312.06C376.627 315.918 378.607 320.793 379.877 325.77C381.287 331.111 382.076 336.596 382.23 342.117C382.309 344.943 382.073 347.769 381.526 350.543C380.867 353.501 379.903 356.384 378.649 359.143C376.374 364.301 373.834 369.375 371.192 374.364C368.757 379.105 365.865 383.596 362.556 387.773C359.067 391.977 354.945 395.612 350.338 398.546C347.931 400.099 345.481 401.556 343.007 402.994C340.551 404.449 337.999 405.738 335.37 406.852C325.861 410.746 314.052 410.969 306.92 419.346C306.104 420.291 305.39 421.32 304.79 422.416L307.053 423.403C309.195 415.097 306.282 406.774 306.15 398.426C306.078 393.683 306.951 388.959 307.685 384.294C308.443 379.48 309.262 374.665 310.14 369.85C311.019 365.035 311.826 360.148 313.348 355.478C314.72 351.396 316.655 347.524 319.096 343.976C323.983 336.754 330.477 330.814 337.2 325.319C344.217 319.607 351.596 314.317 358.264 308.16C359.083 307.402 359.883 306.637 360.672 305.855C361.821 304.724 360.07 302.924 358.945 304.049" fill="#AB8935"/>
<path d="M388.128 310.339C385.777 319.123 382.272 327.556 377.704 335.418C375.411 339.366 372.853 343.182 370.957 347.329C364.337 361.851 366.666 379.227 373.882 393.84C375.621 397.501 377.8 400.937 380.37 404.071C383.307 407.544 386.882 410.469 390.433 413.376L407.941 427.688C408.597 428.297 409.366 428.771 410.204 429.084C412.756 429.867 415.073 427.634 416.548 425.563C424.372 414.646 428.663 401.748 431.684 388.772C433.165 382.405 434.368 375.863 433.61 369.326C433.087 364.758 431.612 360.299 429.855 356.001C421.808 336.237 407.038 318.277 387.081 308.768" fill="#FFD240"/>
<path d="M386.931 310.002C385.589 315.025 383.865 319.939 381.773 324.699C379.601 329.467 377.127 334.09 374.364 338.542C371.806 342.755 369.393 347.052 367.906 351.782C366.589 356.053 365.882 360.488 365.806 364.957C365.607 374.063 367.768 383.121 371.403 391.438C373.281 395.891 375.72 400.086 378.661 403.921C381.767 407.863 385.667 411.053 389.531 414.212L401.989 424.402C403.06 425.268 404.128 426.139 405.191 427.014C406.184 427.826 407.153 428.699 408.2 429.421C409.08 430.053 410.131 430.402 411.214 430.422C412.296 430.441 413.359 430.13 414.261 429.53C416.096 428.368 417.354 426.605 418.552 424.835C419.958 422.761 421.256 420.616 422.44 418.407C424.809 413.947 426.821 409.306 428.458 404.529C430.114 399.752 431.52 394.892 432.671 389.97C433.827 385.089 434.856 380.13 435.079 375.098C435.452 365.589 431.901 356.519 427.694 348.159C423.841 340.493 418.983 333.375 413.25 326.992C407.478 320.532 400.742 315.004 393.28 310.604C391.475 309.55 389.609 308.569 387.719 307.667C387.434 307.503 387.098 307.455 386.779 307.532C386.459 307.609 386.182 307.806 386.004 308.082C385.833 308.365 385.781 308.705 385.86 309.026C385.939 309.348 386.142 309.625 386.425 309.797C393.98 313.437 400.907 318.256 406.948 324.073C412.937 329.848 418.11 336.413 422.326 343.585C424.422 347.143 426.295 350.827 427.935 354.617C429.848 358.807 431.257 363.209 432.13 367.731C432.942 372.438 432.629 377.277 431.829 381.965C430.97 386.775 429.859 391.536 428.501 396.229C425.834 405.666 422.217 414.887 416.764 423.09C415.723 424.649 414.664 426.364 413.117 427.363C412.512 427.822 411.763 428.051 411.005 428.007C410.776 428.007 411.137 428.007 410.908 428.007L410.547 427.917C410.352 427.854 410.164 427.769 409.988 427.664C409.498 427.362 409.033 427.022 408.597 426.647L396.392 416.668C392.468 413.46 388.423 410.355 384.74 406.87C381.295 403.586 378.398 399.772 376.157 395.573C371.881 387.827 369.254 379.28 368.442 370.47C367.738 361.773 369.2 353.076 373.311 345.337C375.718 340.799 378.619 336.549 380.996 331.987C383.376 327.426 385.419 322.697 387.111 317.838C387.914 315.479 388.646 313.093 389.308 310.682C389.723 309.129 387.322 308.443 386.901 310.002" fill="#AB8935"/>
<path d="M314.811 267.92C304.663 263.908 294.432 260.134 284.116 256.6C281.378 255.661 278.633 254.74 275.835 253.993C255.793 248.625 233.892 252.657 215.728 262.69C208.445 266.717 201.614 271.718 193.772 274.468C194.055 275.955 195.211 277.093 196.318 278.122C207.977 288.951 220.822 298.43 234.608 306.379C237.356 308.014 240.209 309.465 243.148 310.724C248.624 312.939 254.49 314.028 260.395 313.924C266.301 313.821 272.125 312.528 277.52 310.122C282.01 308.094 286.108 305.307 290.291 302.725C296.46 298.893 302.842 295.414 309.406 292.307C314.07 290.099 319.24 287.667 321.232 282.906C322.623 279.578 322.105 275.684 320.631 272.386C319.156 269.088 316.851 266.241 314.564 263.449" fill="#FFD240"/>
<path d="M315.154 266.717C306.327 263.23 297.417 259.918 288.425 256.78C284.02 255.239 279.608 253.644 275.082 252.507C271.254 251.561 267.355 250.925 263.424 250.605C255.589 250.004 247.708 250.552 240.031 252.23C232.313 253.9 224.846 256.567 217.816 260.162C210.492 263.894 203.823 268.853 196.276 272.139C195.343 272.549 194.404 272.916 193.453 273.259C193.137 273.349 192.867 273.557 192.701 273.841C192.534 274.124 192.482 274.461 192.556 274.781C193.128 277.454 195.716 279.301 197.636 281.029C199.883 283.059 202.17 285.037 204.497 286.963C209.188 290.839 214.029 294.512 219.02 297.983C224.011 301.453 229.093 304.663 234.265 307.612C239.29 310.495 244.496 312.987 250.202 314.179C260.96 316.459 272.18 314.748 281.769 309.364C286.975 306.505 291.862 303.093 297.026 300.149C299.67 298.641 302.348 297.194 305.061 295.81C307.564 294.54 310.116 293.403 312.62 292.121C317.14 289.864 321.822 286.704 322.978 281.462C324.242 275.696 321.419 270.268 318.043 265.814C317.212 264.712 316.345 263.647 315.473 262.588C315.244 262.349 314.929 262.21 314.598 262.203C314.266 262.195 313.946 262.32 313.706 262.549C313.467 262.778 313.328 263.093 313.321 263.424C313.313 263.755 313.438 264.076 313.667 264.315C316.911 268.281 320.522 272.681 320.769 278.044C320.916 280.444 320.184 282.817 318.711 284.718C317.2 286.465 315.359 287.897 313.294 288.931C311.001 290.213 308.593 291.26 306.24 292.416C303.644 293.692 301.08 295.026 298.549 296.418C293.469 299.205 288.624 302.352 283.677 305.356C279.085 308.142 274.318 310.417 269.064 311.615C264.073 312.731 258.925 312.96 253.855 312.289C248.626 311.547 243.573 309.874 238.935 307.348C233.77 304.576 228.748 301.544 223.889 298.266C219.042 295.056 214.335 291.645 209.769 288.034C205.236 284.514 200.885 280.766 196.733 276.804C195.895 276.121 195.284 275.199 194.982 274.162L194.085 275.684C201.909 272.88 208.728 268.029 215.956 263.996C222.758 260.192 230.028 257.292 237.581 255.372C245.046 253.457 252.75 252.634 260.451 252.928C264.265 253.082 268.059 253.549 271.796 254.325C276.126 255.309 280.39 256.565 284.562 258.086C293.513 261.168 302.4 264.426 311.224 267.86L314.456 269.13C314.774 269.218 315.114 269.176 315.402 269.015C315.69 268.854 315.904 268.586 315.996 268.269C316.078 267.95 316.034 267.612 315.874 267.325C315.714 267.037 315.45 266.822 315.136 266.723" fill="#AB8935"/>
<path d="M339.595 229.51C325.633 225.28 312.355 219.055 300.174 211.027C294.823 207.5 289.641 203.582 285.585 198.629C281.974 194.242 279.368 189.144 277.159 183.938C271.363 170.438 268.011 155.759 268.624 141.08C268.949 133.431 270.334 125.865 271.104 118.24C271.706 111.999 271.947 105.727 272.157 99.4561C288.885 106.206 304.884 114.637 319.908 124.619C324.494 127.665 329.02 130.879 332.8 134.881C346.137 149.007 348.075 170.095 349.309 189.481C349.676 195.259 350.037 201.097 349.116 206.82C348.394 211.328 346.883 215.674 345.379 219.989C343.94 224.112 341.9 228.812 337.663 229.871" fill="#FFD240"/>
<path d="M339.932 228.312C329.299 225.083 319.056 220.689 309.388 215.21C304.612 212.542 300.01 209.573 295.612 206.321C291.491 203.327 287.861 199.71 284.85 195.602C281.946 191.33 279.524 186.75 277.628 181.946C275.728 177.36 274.141 172.651 272.88 167.85C270.257 158.049 269.295 147.877 270.033 137.758C270.478 132.094 271.369 126.485 272.025 120.846C272.681 115.206 273.006 109.411 273.229 103.693C273.283 102.285 273.331 100.87 273.379 99.4801L271.79 100.684C283.423 105.39 294.708 110.915 305.56 117.217C310.935 120.34 316.219 123.632 321.353 127.141C326.077 130.379 330.579 133.948 334.184 138.438C340.203 145.937 343.393 155.29 345.246 164.594C346.177 169.475 346.852 174.401 347.269 179.352C347.756 184.678 348.147 190.035 348.346 195.373C348.497 198.504 348.417 201.643 348.105 204.762C347.723 207.839 347.047 210.872 346.089 213.82C345.234 216.57 344.338 219.351 343.242 222.017C342.448 223.937 341.358 225.995 339.739 227.38C339.041 227.974 338.219 228.404 337.332 228.637C335.779 229.047 336.399 231.466 337.934 231.045C342.917 229.739 345.072 224.497 346.606 220.091C347.672 217.04 348.731 213.976 349.507 210.835C350.298 207.661 350.758 204.413 350.88 201.145C351.096 195.319 350.567 189.451 350.133 183.649C349.742 178.485 349.237 173.327 348.424 168.212C346.865 158.383 344.097 148.477 338.518 140.129C335.359 135.507 331.456 131.439 326.968 128.092C321.879 124.307 316.589 120.799 311.121 117.584C300.131 110.934 288.679 105.081 276.852 100.07C275.395 99.468 273.933 98.8662 272.464 98.2643C272.278 98.2136 272.084 98.2063 271.894 98.2428C271.705 98.2794 271.527 98.3589 271.374 98.4752C271.22 98.5915 271.095 98.7415 271.009 98.9136C270.923 99.0858 270.877 99.2754 270.875 99.468C270.677 105.318 270.478 111.168 269.943 116.994C269.419 122.687 268.51 128.339 267.896 134.02C267.285 139.374 267.136 144.771 267.451 150.15C267.789 155.245 268.534 160.304 269.678 165.281C270.816 170.251 272.307 175.134 274.137 179.893C275.924 184.794 278.152 189.522 280.794 194.019C283.536 198.505 286.992 202.514 291.025 205.887C295.279 209.361 299.796 212.498 304.537 215.27C314.243 221.125 324.567 225.887 335.322 229.468C336.622 229.901 337.922 230.317 339.234 230.714C340.769 231.183 341.455 228.782 339.914 228.306" fill="#AB8935"/>
<g opacity="0.5">
<g opacity="0.5">
<path opacity="0.5" d="M493.025 296.382C487.156 317.049 475.291 335.512 458.929 349.436C442.567 363.36 422.444 372.12 401.104 374.607C379.764 377.094 358.166 373.198 339.04 363.41C319.915 353.623 304.121 338.383 293.657 319.62C283.192 300.856 278.526 279.411 280.25 257.996C281.973 236.58 290.008 216.157 303.339 199.308C316.669 182.46 334.697 169.942 355.141 163.339C375.586 156.736 397.529 156.343 418.197 162.211C475.908 178.6 509.413 238.646 493.025 296.382Z" fill="#D3AA34"/>
</g>
</g>
<path d="M348.665 346.805C345.282 357.109 337.037 364.969 329.213 372.468C318.097 383.115 307.035 394.135 299.12 407.333C298.2 408.868 297.315 410.517 297.315 412.305C297.315 414.477 298.645 416.397 299.927 418.149C308.313 429.656 317.048 440.901 326.131 451.882C328.316 454.512 330.615 457.377 330.874 460.784C331.362 467.278 324.38 472.219 323.79 478.689C323.629 479.676 323.844 480.687 324.392 481.524C325.319 482.727 327.167 482.818 328.527 482.168C329.887 481.518 330.868 480.29 331.807 479.11C331.566 480.494 332.902 481.764 334.299 481.921C335.695 482.077 337.049 481.421 338.229 480.651C343.591 477.154 346.919 471.099 348.219 464.828C349.519 458.557 348.966 452.045 347.894 445.725C347.22 441.723 346.227 437.54 343.441 434.591C341.828 432.882 339.727 431.72 337.747 430.456C334.71 428.528 331.866 426.311 329.255 423.836C325.776 420.544 322.52 416.096 323.393 411.384C323.995 408.068 326.529 405.486 328.906 403.09C334.728 397.28 340.345 391.312 345.758 385.185C347.563 383.139 349.369 381.038 350.519 378.565C351.752 375.844 352.095 372.823 352.426 369.85L353.889 356.772C354.118 354.707 354.34 352.559 353.756 350.579C353.173 348.599 351.56 346.739 349.489 346.534" fill="#40B87E"/>
<path d="M347.792 346.565C344.181 357.458 335.28 365.396 327.239 373.124C318.464 381.55 309.827 390.247 302.75 400.208C300.979 402.64 299.345 405.17 297.856 407.785C297.114 409.016 296.64 410.39 296.466 411.817C296.393 413.223 296.714 414.622 297.393 415.856C298.115 417.156 298.94 418.395 299.861 419.563C300.836 420.891 301.813 422.217 302.792 423.541C304.798 426.226 306.804 428.894 308.81 431.546C312.823 436.802 316.915 442 321.088 447.14C323.074 449.59 325.168 451.955 327.064 454.477C328.677 456.613 330.11 459.039 330.001 461.807C329.905 464.094 328.798 466.207 327.672 468.139C326.468 470.203 325.072 472.177 324.097 474.374C323.176 476.444 322.292 479.219 323.285 481.415C324.41 483.823 327.612 483.925 329.616 482.619C330.711 481.828 331.672 480.867 332.463 479.772L330.922 479.134C330.876 479.722 330.989 480.311 331.248 480.841C331.507 481.37 331.904 481.82 332.397 482.144C332.935 482.504 333.547 482.741 334.188 482.836C334.829 482.932 335.484 482.885 336.104 482.697C338.512 482.065 340.726 480.152 342.406 478.388C345.826 474.667 348.145 470.068 349.104 465.105C350.374 458.966 349.929 452.659 348.948 446.514C348.117 441.296 346.841 435.934 342.46 432.527C340.197 430.77 337.645 429.427 335.322 427.712C332.975 426.034 330.784 424.149 328.774 422.079C326.968 420.171 325.259 417.944 324.525 415.368C324.183 414.13 324.122 412.831 324.345 411.566C324.569 410.301 325.073 409.102 325.818 408.056C327.347 405.739 329.496 403.843 331.434 401.875C333.653 399.612 335.847 397.323 338.018 395.008C340.189 392.692 342.333 390.357 344.452 388.002C346.438 385.787 348.538 383.59 350.157 381.075C351.646 378.626 352.593 375.886 352.932 373.04C353.395 369.91 353.672 366.751 354.021 363.603C354.37 360.455 354.87 357.338 355.002 354.208C355.111 351.614 354.593 348.84 352.595 347.04C351.735 346.262 350.653 345.773 349.501 345.644C348.352 345.499 348.364 347.311 349.501 347.449C351.969 347.762 353.112 350.555 353.215 352.715C353.389 355.58 352.799 358.541 352.487 361.382C352.149 364.421 351.818 367.461 351.475 370.5C351.162 373.239 350.777 376.067 349.537 378.565C348.298 381.063 346.396 383.133 344.56 385.185C342.554 387.448 340.522 389.687 338.463 391.902C336.405 394.117 334.359 396.277 332.324 398.384C330.35 400.418 328.286 402.38 326.384 404.481C324.765 406.286 323.261 408.296 322.683 410.686C322.159 413.105 322.48 415.63 323.592 417.842C325.788 422.56 330.212 426.19 334.341 429.187C336.525 430.782 338.915 432.058 341.081 433.665C343.121 435.191 344.666 437.284 345.523 439.683C346.357 442.091 346.942 444.577 347.268 447.104C347.745 450.003 348.026 452.93 348.111 455.867C348.231 461.181 347.473 466.592 345.102 471.395C344.055 473.542 342.681 475.514 341.027 477.239C340.201 478.092 339.296 478.865 338.325 479.55C337.26 480.29 335.984 481.121 334.636 481.036C334.384 481.044 334.134 480.998 333.901 480.903C333.668 480.808 333.457 480.665 333.283 480.484C333.108 480.302 332.973 480.086 332.887 479.85C332.801 479.613 332.765 479.362 332.782 479.11C332.779 478.933 332.724 478.761 332.625 478.614C332.525 478.468 332.385 478.354 332.221 478.286C332.057 478.218 331.877 478.2 331.703 478.233C331.529 478.266 331.368 478.349 331.241 478.472C330.411 479.514 329.55 480.645 328.352 481.277C327.45 481.758 326.089 481.879 325.307 481.115C324.525 480.35 324.705 478.773 324.91 477.726C325.149 476.647 325.521 475.602 326.017 474.615C327.991 470.576 331.331 467.013 331.813 462.379C332.415 456.715 327.6 452.22 324.344 448.211C320.251 443.208 316.239 438.15 312.307 433.039C308.375 427.927 304.513 422.779 300.721 417.595C299.846 416.501 299.136 415.284 298.615 413.984C298.174 412.656 298.256 411.21 298.844 409.94C299.448 408.63 300.159 407.372 300.968 406.178C301.771 404.894 302.599 403.632 303.454 402.392C310.188 392.624 318.5 384.096 327.034 375.869C334.858 368.321 343.531 360.852 348.099 350.771C348.659 349.552 349.152 348.302 349.574 347.028C349.941 345.921 348.201 345.445 347.834 346.546" fill="#335137"/>
<path d="M332.704 479.736C334.83 476.556 336.598 473.151 337.976 469.583C338.04 469.355 338.013 469.112 337.901 468.904C337.788 468.696 337.599 468.54 337.374 468.469C337.148 468.41 336.907 468.439 336.701 468.551C336.495 468.663 336.34 468.849 336.267 469.071C334.93 472.49 333.222 475.751 331.175 478.797C330.525 479.766 332.084 480.669 332.734 479.706" fill="#335137"/>
<path d="M486.369 593.149C484.906 596.158 481.837 598.06 478.635 598.927C475.433 599.794 472.069 599.733 468.752 599.673L448.325 599.276C442.451 599.162 435.975 598.807 431.769 594.702C429.993 592.975 428.819 590.736 427.718 588.521C416.211 565.314 409.626 540.024 400.334 515.835C400.141 515.33 399.949 514.824 399.732 514.319C398.727 511.743 397.631 509.101 395.639 507.193C394.255 505.869 391.499 505.267 390.788 507.042C390.595 507.726 390.616 508.453 390.849 509.125C391.414 511.532 391.982 513.939 392.552 516.347C398.326 540.85 404.095 565.34 409.861 589.815C411.023 594.756 411.667 601.039 407.49 603.874C406.063 604.837 404.318 605.168 402.615 605.439C388.772 607.624 374.707 606.908 360.732 606.185C359.155 606.107 357.452 605.975 356.254 604.939C354.304 603.26 354.719 600.058 356.019 597.838C360.19 590.7 370.729 588.611 373.618 580.865C374.623 578.181 374.502 575.22 374.328 572.361C373.279 554.653 370.942 537.044 367.334 519.675C366.363 514.993 365.3 510.334 364.144 505.7H364.078C363.248 504.322 362.489 502.498 362.616 501C362.629 500.593 362.737 500.195 362.932 499.838C363.126 499.481 363.401 499.174 363.735 498.941C364.323 498.59 364.98 498.373 365.661 498.303C369.016 497.838 372.405 497.655 375.79 497.756C376.795 497.756 377.8 497.756 378.8 497.756C388.66 497.711 398.486 496.579 408.098 494.379C409.237 494.122 410.369 493.85 411.492 493.561C413.195 493.127 415.073 492.676 416.638 493.464C417.19 493.753 417.667 494.165 418.034 494.668C418.748 495.695 419.291 496.832 419.641 498.033C421.615 503.762 423.756 509.379 426.063 514.884C434.776 535.992 446.537 555.707 460.97 573.402C464.106 577.224 467.482 580.558 472.327 581.545C475.565 582.208 481.806 582.328 484.521 584.218C487.235 586.108 487.837 590.182 486.381 593.161" fill="#4F735F"/>
<path d="M485.586 592.692C482.378 599.029 474.229 598.879 468.132 598.759C460.76 598.614 453.363 598.602 445.996 598.307C443.025 598.286 440.073 597.83 437.233 596.953C434.357 595.982 431.912 594.033 430.324 591.446C428.519 588.557 427.134 585.343 425.714 582.244C424.237 579.002 422.833 575.728 421.501 572.421C416.139 559.145 411.781 545.495 407.111 531.965C404.818 525.345 402.567 518.586 399.81 512.104C398.703 509.516 397.144 506.422 394.345 505.363C393.821 505.135 393.254 505.023 392.682 505.035C392.111 505.048 391.549 505.184 391.035 505.435C389.711 506.212 389.639 507.758 389.922 509.101C391.517 516.558 393.419 523.96 395.164 531.369C396.909 538.778 398.673 546.295 400.43 553.758C402.188 561.221 403.939 568.69 405.696 576.153C406.583 579.909 407.466 583.664 408.344 587.42C409.013 590.248 409.759 593.077 409.813 596.002C409.855 598.373 409.434 600.955 407.598 602.622C406.431 603.682 404.884 604.097 403.385 604.38C401.544 604.729 399.672 604.982 397.806 605.168C390.365 605.924 382.88 606.17 375.405 605.903C371.68 605.806 367.96 605.638 364.241 605.451C362.505 605.436 360.771 605.328 359.047 605.126C357.638 604.903 356.357 604.272 355.953 602.815C355.261 600.341 356.838 597.808 358.433 596.056C360.118 594.319 362.003 592.787 364.048 591.494C367.96 588.834 372.354 586.168 374.28 581.618C375.61 578.446 375.393 574.997 375.188 571.615C374.956 567.855 374.667 564.096 374.322 560.336C372.944 545.427 370.656 530.616 367.473 515.986C366.71 512.459 365.892 508.946 365.017 505.447C364.974 505.297 364.893 505.161 364.782 505.05C364.672 504.94 364.535 504.859 364.385 504.815H364.319L364.855 505.231C364.132 503.997 363.362 502.468 363.519 500.988C363.699 499.284 365.601 499.182 366.955 499.008C370.3 498.669 373.664 498.551 377.024 498.652C383.844 498.69 390.657 498.23 397.409 497.274C400.791 496.789 404.15 496.187 407.484 495.469C409.151 495.095 410.806 494.662 412.473 494.265C413.839 493.946 415.482 493.663 416.686 494.572C417.89 495.481 418.323 496.979 418.775 498.279C419.376 499.934 419.936 501.589 420.538 503.239C421.698 506.42 422.919 509.582 424.203 512.724C428.908 524.338 434.483 535.58 440.881 546.355C444.058 551.684 447.449 556.872 451.052 561.919C452.89 564.487 454.777 567.019 456.715 569.515C458.575 571.922 460.435 574.329 462.511 576.538C464.282 578.532 466.419 580.166 468.807 581.353C471.015 582.37 473.332 582.683 475.722 582.978C478.111 583.273 480.537 583.496 482.751 584.35C483.759 584.743 484.629 585.425 485.25 586.311C485.871 587.196 486.216 588.246 486.242 589.328C486.319 590.501 486.1 591.674 485.604 592.74C485.117 593.787 486.67 594.702 487.163 593.655C487.724 592.502 488.026 591.241 488.049 589.959C488.072 588.677 487.815 587.406 487.295 586.234C486.254 583.965 484.214 582.797 481.879 582.184C479.395 581.626 476.878 581.224 474.344 580.98C471.773 580.697 469.312 579.781 467.182 578.314C464.81 576.64 462.908 574.39 461.091 572.151C458.96 569.535 456.89 566.868 454.88 564.152C450.972 558.88 447.3 553.441 443.866 547.836C437.01 536.596 431.073 524.822 426.111 512.627C424.751 509.313 423.457 505.973 422.229 502.607C421.627 500.921 421.026 499.236 420.424 497.545C420.008 496.087 419.281 494.736 418.293 493.585C415.886 491.111 412.275 492.453 409.41 493.145C405.859 493.992 402.276 494.702 398.661 495.276C391.546 496.37 384.355 496.897 377.157 496.853C373.604 496.745 370.049 496.882 366.516 497.262C365.023 497.467 363.422 497.665 362.441 498.941C361.46 500.217 361.581 501.746 361.96 503.154C362.16 503.852 362.426 504.529 362.754 505.177C363.013 505.706 363.272 506.428 363.898 506.603L363.296 505.971C366.956 520.693 369.69 535.63 371.481 550.695C372.372 558.158 373.058 565.657 373.461 573.162C373.63 576.346 373.57 579.602 371.848 582.4C370.515 584.384 368.805 586.087 366.817 587.414C362.857 590.284 358.246 592.668 355.526 596.893C354.136 599.047 353.317 602.135 354.707 604.488C356.417 607.371 360.329 607.064 363.212 607.209C370.795 607.594 378.384 607.931 385.974 607.75C389.729 607.66 393.491 607.443 397.228 607.046C399.106 606.841 400.978 606.601 402.844 606.306C404.464 606.124 406.039 605.655 407.496 604.922C412.479 602.099 411.962 595.448 410.963 590.664C410.21 587.053 409.289 583.49 408.447 579.909C407.548 576.105 406.653 572.293 405.763 568.473L395.128 523.25C394.249 519.511 393.368 515.769 392.486 512.026C392.269 511.111 392.052 510.22 391.842 509.275C391.691 508.673 391.27 507.572 391.842 507.042C392.558 506.38 393.99 507.042 394.646 507.482C395.85 508.318 396.687 509.763 397.355 511.033C398.1 512.533 398.755 514.076 399.317 515.655C400.605 519.013 401.853 522.387 403.06 525.778C407.929 539.44 412.263 553.295 417.426 566.86C419.978 573.565 422.729 580.197 425.852 586.667C427.297 589.677 428.711 592.927 431.149 595.298C433.312 597.292 435.981 598.655 438.864 599.24C441.756 599.829 444.7 600.126 447.651 600.125C451.485 600.215 455.319 600.275 459.153 600.347C462.987 600.42 466.893 600.54 470.763 600.564C474.157 600.564 477.654 600.408 480.826 599.09C483.53 598.063 485.778 596.104 487.163 593.565C487.693 592.529 486.134 591.615 485.604 592.65" fill="#335137"/>
<path d="M426.051 514.872C417.475 515.131 408.892 515.348 400.334 515.835C400.141 515.33 399.949 514.824 399.732 514.319C398.727 511.743 397.631 509.101 395.639 507.193C394.255 505.869 391.499 505.267 390.788 507.042C390.595 507.726 390.616 508.453 390.849 509.125C391.414 511.532 391.982 513.939 392.552 516.347C384.474 516.947 376.436 518.004 368.478 519.513C368.09 519.59 367.698 519.642 367.304 519.669C366.333 514.987 365.27 510.328 364.114 505.694H364.048C363.218 504.316 362.459 502.492 362.586 500.994C366.654 499.116 371.174 498.43 375.61 497.774H375.76C386.473 496.191 397.246 494.614 408.068 494.403C409.785 494.367 411.504 494.367 413.225 494.403C414.82 494.445 416.415 494.518 418.004 494.674C418.718 495.701 419.261 496.838 419.611 498.039C421.585 503.768 423.726 509.385 426.033 514.89" fill="#335137"/>
<path d="M397.036 357.771C407.016 364.008 416.219 371.41 424.45 379.823C426.394 381.809 428.464 383.957 431.185 384.541C431.636 384.67 432.116 384.654 432.557 384.493C433.706 383.969 433.502 382.29 433.087 381.099C429.985 372.144 425.726 363.634 420.418 355.785C418.768 353.377 416.861 350.856 414.098 349.844C412.389 349.243 410.487 349.243 408.82 348.538C407.153 347.834 405.666 345.981 406.364 344.325C406.918 343.001 407.917 342.225 408.844 342.225C409.921 342.225 406.737 341.081 407.767 338.409C408.23 337.206 409.711 336.664 412.094 336.393C413.153 336.273 411.492 334.672 411.907 333.679C412.756 331.554 415.579 331.368 416.993 331.368C418.407 331.368 419.822 331.711 421.206 331.524C421.732 331.504 422.232 331.29 422.608 330.922C423.529 329.821 422.253 328.274 421.092 327.431L417.848 325.09C417.19 324.708 416.662 324.138 416.331 323.453C415.856 322.117 417.083 320.649 418.474 320.384C419.864 320.119 421.272 320.697 422.518 321.365C432.984 326.98 438.341 338.716 442.981 349.652L452.893 372.98C456.45 381.345 460.074 390.084 459.514 399.16C459.363 401.7 458.84 404.312 457.347 406.382C455.09 409.476 451.136 410.71 447.447 411.721C444.781 412.455 442.03 413.177 439.286 412.858C436.541 412.539 434.122 411.263 431.726 409.993C422.843 405.299 414.016 400.51 405.245 395.627C404.22 395.142 403.3 394.461 402.537 393.623C401.67 392.534 401.375 391.107 401.104 389.741C399.07 379.269 397.212 368.767 395.531 358.234" fill="#40B87E"/>
<path d="M396.578 358.553C406.583 364.829 415.809 372.268 424.065 380.714C425.87 382.519 427.766 384.433 430.258 385.227C431.401 385.595 432.767 385.751 433.658 384.782C434.404 383.97 434.392 382.784 434.2 381.773C433.889 380.492 433.466 379.242 432.936 378.035C432.412 376.645 431.853 375.261 431.275 373.895C430.119 371.17 428.857 368.496 427.489 365.872C426.117 363.254 424.642 360.684 423.066 358.186C421.639 355.929 420.195 353.564 418.317 351.644C417.45 350.724 416.432 349.959 415.308 349.381C414.033 348.838 412.691 348.467 411.317 348.28C410.072 348.039 408.79 347.762 407.881 346.811C407.67 346.631 407.497 346.41 407.372 346.162C407.248 345.914 407.174 345.643 407.155 345.366C407.137 345.089 407.174 344.812 407.265 344.549C407.355 344.287 407.497 344.045 407.682 343.838C407.939 343.466 408.325 343.204 408.766 343.104C409.115 343.038 409.422 343.104 409.705 342.797C410.276 342.195 409.855 341.563 409.404 341.106C408.947 340.736 408.623 340.226 408.483 339.655C408.422 339.28 408.492 338.896 408.682 338.567C408.872 338.238 409.169 337.985 409.524 337.85C409.997 337.643 410.495 337.497 411.005 337.416C411.622 337.392 412.231 337.271 412.81 337.055C413.707 336.532 413.346 335.539 413.039 334.78C412.883 334.516 412.802 334.214 412.804 333.908C412.977 333.475 413.3 333.118 413.713 332.902C414.485 332.486 415.345 332.259 416.223 332.24C417.429 332.23 418.634 332.289 419.834 332.415C421.104 332.475 422.711 332.415 423.481 331.211C425.052 328.804 421.778 326.715 420.195 325.566C419.593 325.12 418.955 324.681 418.341 324.23C417.908 323.911 417.294 323.508 417.186 322.936C416.951 321.732 418.48 321.088 419.424 321.13C420.809 321.208 422.115 322.021 423.276 322.719C424.294 323.331 425.272 324.008 426.201 324.747C433.983 330.983 438.238 340.534 442.024 349.477C444.552 355.412 447.073 361.35 449.589 367.292C451.997 373.004 454.633 378.679 456.517 384.602C457.462 387.464 458.129 390.41 458.509 393.401C458.912 396.258 458.834 399.163 458.28 401.995C458.027 403.254 457.518 404.448 456.785 405.503C456.052 406.558 455.111 407.451 454.019 408.128C451.918 409.434 449.499 410.114 447.134 410.764C444.154 411.583 441.079 412.341 438.004 411.564C435.073 410.824 432.412 409.157 429.764 407.773C424.071 404.748 418.395 401.682 412.738 398.577C410.03 397.09 407.201 395.712 404.601 394.045C404.03 393.685 403.537 393.215 403.151 392.662C402.764 392.109 402.492 391.484 402.35 390.825C401.971 389.386 401.748 387.9 401.465 386.437C400.261 380.078 399.11 373.702 398.011 367.31C397.473 364.169 396.955 361.021 396.458 357.867C396.277 356.724 394.538 357.211 394.718 358.349C395.766 364.945 396.885 371.529 398.077 378.101C398.667 381.335 399.268 384.567 399.882 387.797C400.092 389.306 400.428 390.793 400.887 392.245C401.364 393.533 402.233 394.638 403.373 395.405C404.637 396.219 405.943 396.966 407.285 397.644L411.558 399.997C414.447 401.582 417.344 403.159 420.249 404.727C423.154 406.296 426.063 407.855 428.976 409.404C431.636 410.818 434.32 412.413 437.251 413.238C440.339 414.08 443.45 413.599 446.496 412.804C449.066 412.225 451.565 411.363 453.947 410.234C456.261 409.119 458.117 407.237 459.201 404.908C460.35 402.302 460.573 399.377 460.519 396.56C460.386 390.391 458.539 384.415 456.306 378.715C453.959 372.697 451.329 366.817 448.807 360.889C446.399 355.273 444.106 349.61 441.585 344.037C439.565 339.319 437.066 334.822 434.128 330.615C431.215 326.613 427.646 323.05 423.294 320.643C421.025 319.391 417.878 318.398 416 320.871C415.643 321.324 415.426 321.871 415.375 322.445C415.325 323.019 415.444 323.596 415.717 324.103C416.385 325.307 417.836 326.071 418.919 326.848C420.002 327.624 421.374 328.328 421.928 329.52C422.584 330.97 419.695 330.585 418.985 330.519C416.951 330.339 414.688 330.218 412.846 331.277C412.39 331.519 411.989 331.853 411.669 332.258C411.348 332.663 411.116 333.131 410.986 333.631C410.924 334.099 410.989 334.574 411.173 335.009C411.257 335.232 411.366 335.448 411.45 335.671C411.582 336.002 411.45 336.068 411.775 335.671C412.1 335.274 411.986 335.454 411.721 335.448C411.555 335.455 411.389 335.478 411.227 335.514C410.922 335.555 410.615 335.609 410.306 335.677C409.749 335.792 409.206 335.97 408.687 336.207C408.253 336.401 407.864 336.684 407.546 337.037C407.228 337.391 406.987 337.807 406.84 338.259C406.626 339.026 406.65 339.84 406.91 340.593C407.171 341.345 407.654 342.001 408.296 342.472C408.778 342.815 409.398 341.298 408.856 341.22C408.607 341.209 408.358 341.243 408.122 341.322C407.548 341.495 407.028 341.812 406.611 342.243C406.169 342.66 405.825 343.17 405.603 343.736C405.381 344.303 405.288 344.911 405.329 345.517C405.672 348.274 408.441 349.483 410.836 349.941C412.249 350.108 413.623 350.515 414.899 351.145C415.987 351.803 416.954 352.644 417.757 353.63C419.554 355.877 421.164 358.266 422.572 360.774C424.125 363.338 425.571 365.968 426.911 368.664C428.272 371.403 429.524 374.201 430.643 377.048C431.191 378.445 431.732 379.847 432.208 381.261C432.412 381.863 432.948 383.572 431.871 383.669C430.667 383.753 429.271 382.832 428.35 382.164C427.298 381.348 426.315 380.447 425.413 379.468C423.27 377.289 421.086 375.158 418.829 373.106C414.385 369.071 409.704 365.305 404.811 361.827C402.404 360.126 399.959 358.497 397.475 356.94C396.488 356.339 395.579 357.885 396.566 358.499" fill="#335137"/>
<path d="M351.403 356.423C341.785 404.871 341.462 454.706 350.452 503.275C350.753 504.9 351.096 506.591 352.077 507.921C354.1 510.647 358 510.96 361.394 510.93C391.002 510.761 420.231 504.256 447.116 491.851C449.337 490.828 451.75 489.528 452.532 487.205C453.525 484.196 451.232 481.132 449.174 478.689C422.344 446.851 410.481 405.323 400.538 364.897C399.937 362.387 399.184 359.673 397.132 358.102C395.742 357.031 393.948 356.663 392.221 356.356C380.082 354.195 367.724 353.528 355.424 354.37C353.702 354.485 351.494 355.105 351.415 356.826" fill="#4F735F"/>
<path d="M350.531 356.182C341.149 403.395 340.573 451.935 348.833 499.356C349.164 501.258 349.435 503.184 349.899 505.056C350.213 506.684 351 508.183 352.162 509.365C354.37 511.43 357.578 511.773 360.497 511.845C368.053 511.904 375.606 511.484 383.109 510.587C398.34 508.897 413.34 505.541 427.838 500.578C431.474 499.326 435.071 497.976 438.63 496.528C442.012 495.156 445.437 493.771 448.693 492.11C451.365 490.75 453.905 488.547 453.634 485.255C453.351 481.746 450.558 479.02 448.452 476.444C439.653 465.707 432.449 453.736 426.466 441.23C420.388 428.512 415.573 415.236 411.42 401.778C409.368 395.092 407.478 388.357 405.684 381.598C404.782 378.18 403.901 374.769 403.042 371.367C402.609 369.657 402.188 367.948 401.766 366.239C401.422 364.634 400.98 363.053 400.442 361.502C399.944 360.029 399.081 358.706 397.932 357.656C396.552 356.609 394.928 355.928 393.214 355.676C389.29 354.906 385.294 354.382 381.315 353.973C373.319 353.133 365.269 352.931 357.241 353.371C354.768 353.51 350.807 353.6 350.501 356.844C350.392 357.999 352.198 357.993 352.306 356.844C352.414 355.694 354.238 355.412 355.117 355.315C357.031 355.099 358.981 355.074 360.901 355.014C364.813 354.888 368.725 354.918 372.649 355.099C376.573 355.279 380.473 355.61 384.361 356.092C386.347 356.338 388.333 356.633 390.313 356.958C392.052 357.247 393.924 357.446 395.549 358.216C398.48 359.625 399.16 363.031 399.846 365.92C400.649 369.258 401.485 372.59 402.356 375.917C404.041 382.537 405.811 389.097 407.713 395.639C411.43 408.748 415.961 421.613 421.278 434.158C426.532 446.577 433.084 458.405 440.826 469.444C442.768 472.177 444.801 474.845 446.923 477.449C448.019 478.791 449.204 480.079 450.185 481.512C451.088 482.83 451.949 484.37 451.846 486.019C451.636 489.221 447.814 490.606 445.352 491.719C442.006 493.236 438.624 494.66 435.205 495.992C421.31 501.392 406.875 505.285 392.149 507.602C384.824 508.75 377.443 509.499 370.037 509.847C366.534 510.015 362.977 510.214 359.474 510.033C356.645 509.895 353.486 509.215 352.204 506.374C351.476 504.755 351.283 502.865 350.97 501.132C350.621 499.206 350.288 497.276 349.971 495.342C349.341 491.502 348.767 487.654 348.25 483.799C347.226 476.131 346.424 468.435 345.842 460.712C343.576 429.681 345.039 398.491 350.2 367.81C350.826 364.094 351.508 360.389 352.246 356.693C352.469 355.556 350.729 355.068 350.501 356.212" fill="#335137"/>
<path d="M350.633 352.282C350.228 354.821 350.189 357.405 350.519 359.956C350.703 361.779 351.225 363.553 352.059 365.186C353.456 367.719 355.887 369.549 358.463 370.861C365.956 374.683 374.845 374.683 383.139 373.317C388.899 372.366 395.14 370.374 398.053 365.312C399.732 362.399 400.021 358.914 400.268 355.556C400.358 354.95 400.302 354.331 400.105 353.75C399.582 352.547 398.071 352.24 396.777 352.077L359.655 347.419C357.639 347.166 355.526 346.919 353.606 347.612C351.686 348.304 350.055 350.236 350.428 352.24" fill="#4F735F"/>
<path d="M349.76 352.041C349.371 354.471 349.3 356.941 349.549 359.39C349.705 361.646 350.335 363.845 351.397 365.842C353.486 369.453 357.416 371.625 361.189 373.022C365.442 374.502 369.93 375.188 374.43 375.044C378.691 374.997 382.933 374.456 387.069 373.431C390.68 372.516 394.291 371.024 396.939 368.309C400.033 365.131 400.785 360.846 401.152 356.591C401.236 355.502 401.435 354.304 400.942 353.281C400.533 352.513 399.849 351.929 399.028 351.644C398.174 351.357 397.289 351.177 396.392 351.108L392.534 350.627L377.09 348.683L361.647 346.745C357.735 346.257 352.107 345.258 350.001 349.7C349.591 350.559 349.456 351.524 349.616 352.462C349.79 353.612 351.53 353.124 351.361 351.987C351.084 350.181 352.854 348.737 354.412 348.31C356.417 347.756 358.583 348.165 360.605 348.418L374.562 350.175L388.405 351.909L395.386 352.781C396.765 352.956 399.389 352.884 399.485 354.762C399.485 355.722 399.418 356.681 399.286 357.632C399.19 358.718 399.034 359.797 398.817 360.864C398.463 362.754 397.688 364.54 396.548 366.088C394.484 368.755 391.3 370.301 388.122 371.27C384.553 372.315 380.876 372.946 377.162 373.148C373.087 373.493 368.983 373.213 364.993 372.318C360.961 371.343 356.609 369.573 353.889 366.299C352.551 364.551 351.718 362.469 351.481 360.281C351.112 357.723 351.129 355.124 351.53 352.571C351.704 351.433 349.965 350.94 349.784 352.089" fill="#335137"/>
<path d="M408.375 343.423C409.796 342.81 411.323 342.481 412.87 342.454C414.303 342.37 415.734 342.637 417.041 343.23C417.246 343.337 417.483 343.363 417.706 343.302C417.929 343.242 418.122 343.1 418.245 342.905C418.354 342.701 418.382 342.463 418.321 342.239C418.261 342.015 418.117 341.823 417.92 341.701C416.348 340.944 414.614 340.583 412.87 340.648C411.004 340.692 409.163 341.101 407.454 341.852C407.249 341.976 407.101 342.175 407.04 342.406C406.979 342.637 407.011 342.883 407.129 343.092C407.256 343.293 407.454 343.438 407.685 343.499C407.915 343.559 408.159 343.53 408.369 343.417" fill="#335137"/>
<path d="M412.094 337.272C413.087 337.194 414.08 337.115 415.073 337.115C416.163 337.115 417.246 337.206 418.329 337.272C418.569 337.272 418.798 337.177 418.968 337.007C419.137 336.838 419.232 336.609 419.232 336.369C419.226 336.132 419.129 335.905 418.961 335.737C418.793 335.569 418.567 335.472 418.329 335.466C417.246 335.4 416.163 335.316 415.073 335.31C414.08 335.31 413.087 335.388 412.094 335.466C411.857 335.472 411.63 335.569 411.462 335.737C411.294 335.905 411.197 336.132 411.191 336.369C411.191 336.609 411.286 336.838 411.456 337.007C411.625 337.177 411.855 337.272 412.094 337.272Z" fill="#335137"/>
<path d="M397.222 274.445C401.099 269.143 405.99 264.665 411.612 261.27C417.243 257.78 423.747 255.954 430.372 256.004C437.006 255.998 443.489 257.984 448.981 261.703C451.688 263.57 454.107 265.823 456.161 268.39C458.247 270.926 459.825 273.84 460.808 276.972C460.28 275.429 459.59 273.947 458.749 272.549C457.904 271.161 456.954 269.839 455.909 268.595C453.828 266.099 451.395 263.92 448.686 262.125C446.001 260.322 443.056 258.94 439.954 258.026C439.182 257.777 438.397 257.576 437.6 257.424L436.397 257.166C435.999 257.069 435.596 257.051 435.193 256.991C434.393 256.895 433.592 256.786 432.786 256.702L430.378 256.63C427.142 256.545 423.911 256.951 420.797 257.834C419.241 258.287 417.714 258.832 416.223 259.465C414.742 260.121 413.292 260.849 411.883 261.649C409.069 263.277 406.424 265.18 403.987 267.331C401.511 269.482 399.246 271.864 397.222 274.445Z" fill="black"/>
<path d="M369.826 268.576C369.062 265.405 367.998 262.314 366.648 259.344C365.323 256.371 363.711 253.535 361.833 250.876C360.882 249.556 359.879 248.288 358.824 247.072C357.74 245.872 356.584 244.738 355.363 243.678C352.911 241.563 350.151 239.834 347.178 238.55L344.945 237.599C344.181 237.334 343.405 237.1 342.64 236.853C342.249 236.738 341.876 236.588 341.479 236.504L340.275 236.251C339.482 236.052 338.678 235.901 337.868 235.8C334.663 235.326 331.406 235.346 328.208 235.86C325.01 236.356 321.901 237.317 318.981 238.713C317.517 239.405 316.108 240.21 314.768 241.12C313.444 242.065 316.008 251.02 314.907 252.23C317.043 249.745 315.954 239.922 318.861 238.436C323.283 236.199 328.154 234.994 333.109 234.91C338.063 234.827 342.972 235.868 347.467 237.954C353.499 240.688 358.638 245.069 362.291 250.593C365.972 256.033 368.537 262.15 369.838 268.588" fill="black"/>
<path d="M484.009 293.848C478.674 312.635 467.887 329.418 453.013 342.075C438.139 354.732 419.846 362.694 400.447 364.954C381.048 367.214 361.414 363.67 344.029 354.772C326.644 345.873 312.287 332.019 302.776 314.962C293.264 297.904 289.025 278.409 290.593 258.942C292.161 239.475 299.467 220.91 311.586 205.595C323.706 190.28 340.094 178.903 358.68 172.902C377.265 166.901 397.213 166.547 416 171.883C441.192 179.038 462.51 195.908 475.264 218.781C488.018 241.653 491.164 268.656 484.009 293.848Z" fill="#AB8935"/>
<path d="M481.337 293.06C476.124 311.415 465.585 327.812 451.053 340.178C436.522 352.543 418.649 360.322 399.697 362.53C380.744 364.739 361.562 361.278 344.576 352.584C327.591 343.891 313.564 330.356 304.271 313.692C294.977 297.027 290.834 277.981 292.365 258.961C293.896 239.942 301.032 221.803 312.872 206.84C324.711 191.876 340.722 180.759 358.879 174.895C377.036 169.03 396.525 168.682 414.881 173.893C427.069 177.354 438.457 183.181 448.393 191.043C458.329 198.904 466.619 208.646 472.791 219.712C478.962 230.778 482.893 242.951 484.359 255.536C485.826 268.121 484.799 280.872 481.337 293.06Z" fill="#E7D173"/>
<path d="M475.03 294.871C461.747 341.665 411.48 368.382 362.766 354.545C314.052 340.708 285.332 291.573 298.615 244.785C311.898 197.997 362.164 171.275 410.878 185.106C459.592 198.936 488.313 248.083 475.03 294.871Z" fill="#F8E77D"/>
<path d="M335.731 217.184C335.731 217.184 358.999 194.314 378.083 213.182C378.083 213.182 365.143 186.099 335.731 217.184Z" fill="#AB8935"/>
<path d="M413.117 220.188C413.117 220.188 436.517 203.98 457.618 236.251C457.618 236.251 439.912 196.396 413.117 220.188Z" fill="#AB8935"/>
<path d="M368.58 312.74C366.847 312.596 373.046 324.495 379.744 326.029C381.15 326.421 382.636 326.421 384.042 326.029C385.246 325.557 386.322 324.809 387.183 323.845C390.734 320.284 393.218 315.802 394.357 310.905C394.417 310.727 394.417 310.535 394.357 310.357C394.141 309.882 393.376 309.984 392.865 310.17C392.865 310.17 375.032 313.288 368.574 312.746" fill="#D2947C"/>
<path d="M408.82 348.539C410.499 349.231 412.395 349.225 414.098 349.845C416.861 350.856 418.768 353.347 420.418 355.785C423.283 360.031 425.845 364.473 428.085 369.08H451.287L443.005 349.586C438.359 338.662 433.002 326.926 422.542 321.299C421.29 320.631 419.882 320.047 418.492 320.318C417.101 320.589 415.874 322.051 416.349 323.387C416.682 324.071 417.21 324.64 417.866 325.024L421.11 327.366C422.271 328.208 423.517 329.773 422.626 330.856C422.25 331.224 421.75 331.438 421.224 331.458C419.822 331.645 418.407 331.296 417.011 331.302C415.615 331.308 412.798 331.488 411.925 333.613C411.528 334.606 413.171 336.207 412.112 336.327C409.705 336.598 408.248 337.134 407.785 338.343C406.755 341.016 409.939 342.159 408.862 342.159C407.935 342.159 406.936 342.935 406.388 344.26C405.684 345.939 407.159 347.804 408.838 348.472" fill="#40B87E"/>
<path d="M410.824 350.019C412.237 350.186 413.611 350.593 414.887 351.223C415.975 351.881 416.942 352.722 417.745 353.708C419.54 355.956 421.15 358.345 422.56 360.852C424.113 363.416 425.559 366.046 426.9 368.743L427.068 369.092H429.12C428.603 368.014 428.073 366.943 427.519 365.884C426.147 363.26 424.673 360.698 423.096 358.198C421.669 355.935 420.225 353.576 418.347 351.65C417.478 350.734 416.461 349.971 415.338 349.393C414.063 348.85 412.721 348.479 411.348 348.292C410.102 348.051 408.82 347.774 407.911 346.829C407.695 346.648 407.518 346.425 407.391 346.174C407.263 345.923 407.188 345.648 407.17 345.367C407.151 345.086 407.19 344.804 407.283 344.538C407.376 344.272 407.522 344.028 407.712 343.82C407.969 343.448 408.356 343.186 408.796 343.086C409.145 343.02 409.452 343.086 409.735 342.779C410.306 342.177 409.885 341.545 409.434 341.088C408.977 340.717 408.654 340.208 408.513 339.637C408.452 339.262 408.522 338.878 408.712 338.549C408.902 338.22 409.199 337.967 409.554 337.832C410.027 337.625 410.525 337.479 411.035 337.398C411.652 337.374 412.261 337.252 412.84 337.037C413.737 336.514 413.376 335.52 413.069 334.762C412.913 334.498 412.832 334.196 412.834 333.889C412.912 333.474 413.406 333.089 413.743 332.884C414.515 332.468 415.376 332.241 416.253 332.222C417.459 332.212 418.664 332.27 419.864 332.397C421.134 332.457 422.741 332.397 423.511 331.193C425.082 328.786 421.808 326.691 420.225 325.548C419.623 325.102 418.985 324.663 418.371 324.212C417.938 323.893 417.324 323.489 417.216 322.918C416.981 321.714 418.51 321.07 419.455 321.112C420.839 321.19 422.145 322.003 423.306 322.701C424.325 323.313 425.302 323.99 426.231 324.729C434.013 330.964 438.269 340.516 442.054 349.459C444.582 355.394 447.104 361.332 449.619 367.274C449.872 367.876 450.119 368.436 450.372 369.02H452.346C451.178 366.299 450.005 363.603 448.849 360.87C446.442 355.255 444.149 349.598 441.627 344.019C439.607 339.301 437.108 334.804 434.17 330.597C431.257 326.595 427.688 323.032 423.337 320.625C421.068 319.373 417.92 318.38 416.042 320.853C415.685 321.306 415.468 321.853 415.418 322.427C415.367 323.001 415.486 323.578 415.759 324.085C416.427 325.289 417.878 326.053 418.961 326.83C420.044 327.606 421.417 328.31 421.97 329.502C422.626 330.952 419.737 330.567 419.027 330.501C416.993 330.32 414.73 330.2 412.888 331.259C412.432 331.501 412.031 331.835 411.711 332.24C411.391 332.645 411.158 333.113 411.029 333.613C410.967 334.08 411.031 334.556 411.215 334.991C411.281 335.159 411.354 335.322 411.426 335.484L411.269 335.514C410.965 335.555 410.658 335.609 410.349 335.677C409.79 335.792 409.246 335.971 408.73 336.213C408.295 336.405 407.906 336.686 407.587 337.039C407.269 337.391 407.029 337.807 406.882 338.259C406.719 338.828 406.689 339.426 406.793 340.008C406.898 340.59 407.134 341.14 407.484 341.617C406.805 342.009 406.247 342.582 405.873 343.271C405.499 343.961 405.324 344.74 405.365 345.523C405.708 348.28 408.477 349.489 410.872 349.947" fill="#335137"/>
<path d="M408.375 343.423C409.796 342.81 411.323 342.481 412.87 342.454C414.303 342.37 415.734 342.637 417.041 343.23C417.246 343.337 417.483 343.363 417.706 343.302C417.929 343.242 418.122 343.1 418.245 342.905C418.354 342.701 418.382 342.463 418.321 342.239C418.261 342.015 418.117 341.823 417.92 341.701C416.348 340.944 414.614 340.583 412.87 340.648C411.004 340.692 409.163 341.101 407.454 341.852C407.249 341.976 407.101 342.175 407.04 342.406C406.979 342.637 407.011 342.883 407.129 343.092C407.256 343.293 407.454 343.438 407.685 343.499C407.915 343.559 408.159 343.53 408.369 343.417" fill="#335137"/>
<path d="M412.094 337.272C413.087 337.194 414.08 337.115 415.073 337.115C416.163 337.115 417.246 337.206 418.329 337.272C418.569 337.272 418.798 337.177 418.968 337.007C419.137 336.838 419.232 336.609 419.232 336.369C419.226 336.132 419.129 335.905 418.961 335.737C418.793 335.569 418.567 335.472 418.329 335.466C417.246 335.4 416.163 335.316 415.073 335.31C414.08 335.31 413.087 335.388 412.094 335.466C411.857 335.472 411.63 335.569 411.462 335.737C411.294 335.905 411.197 336.132 411.191 336.369C411.191 336.609 411.286 336.838 411.456 337.007C411.625 337.177 411.855 337.272 412.094 337.272Z" fill="#335137"/>
<path d="M186.111 97.3256C184.275 94.7015 185.286 91.7404 188.807 89.8626C196.782 85.6015 200.158 79.0293 198.828 70.0798C198.226 66.0052 197.022 64.0974 194.91 64.4163C193.315 64.6511 192.665 68.8219 190.558 73.5705C188.807 77.633 185.521 81.1117 181.531 81.7015C177.191 82.3455 173.869 79.4867 173.351 75.4001C172.479 68.2802 178.575 61.7622 190.895 59.9386C205.514 57.7719 214.765 62.1052 216.131 71.3196C217.786 82.49 208.602 94.4427 195.554 98.102C191.383 99.2636 187.495 99.3057 186.111 97.3256ZM198.491 102.014C203.631 101.25 207.47 103.94 208.193 108.815C208.915 113.69 206.032 117.464 200.892 118.228C195.752 118.992 191.828 116.314 191.088 111.343C190.366 106.468 193.261 102.778 198.491 102.008" fill="#4F735F"/>
<path d="M193.507 216.378C191.377 213.971 192.039 210.925 195.313 208.65C202.74 203.504 205.34 196.613 202.993 187.856C201.927 183.872 200.525 182.115 198.449 182.674C196.89 183.09 196.727 187.308 195.18 192.268C193.905 196.481 191.04 200.339 187.146 201.38C182.903 202.517 179.274 200.062 178.299 196.059C176.613 189.09 181.91 181.916 193.947 178.69C208.223 174.856 217.906 178.088 220.32 187.116C223.245 198.021 215.505 210.955 202.956 216.077C198.942 217.714 195.084 218.19 193.489 216.396L193.507 216.378ZM206.321 219.628C211.34 218.28 215.463 220.513 216.739 225.273C218.015 230.034 215.607 234.121 210.588 235.445C205.568 236.769 201.362 234.584 200.056 229.739C198.749 224.894 201.259 220.982 206.339 219.61" fill="#4F735F"/>
<path d="M270.165 93.5338C267.312 92.0713 266.825 88.9838 269.064 85.6737C274.125 78.1866 274.041 70.8019 268.691 63.5075C266.253 60.1852 264.309 59.0538 262.576 60.3237C261.276 61.2746 262.648 65.2709 263.009 70.4528C263.352 74.8644 262.07 79.4806 258.796 81.8579C255.257 84.4519 250.972 83.4769 248.619 80.1005C244.526 74.2144 246.874 65.6079 256.912 58.2413C268.829 49.4963 279.03 49.0149 284.543 56.526C291.218 65.626 288.678 80.4917 278.85 89.8084C275.702 92.7875 272.278 94.6232 270.141 93.5338H270.165ZM283.274 91.8968C287.487 88.8274 292.115 89.4112 295.028 93.3834C297.941 97.3556 297.158 102.044 292.969 105.119C288.78 108.195 284.056 107.659 281.089 103.615C278.122 99.5704 279.012 95.0264 283.274 91.8968Z" fill="#4F735F"/>
<path d="M122.651 107.461C120.677 104.939 121.532 101.93 124.956 99.8714C132.696 95.201 135.724 88.4663 133.936 79.595C133.118 75.5566 131.836 73.7149 129.723 74.1362C128.146 74.4552 127.713 78.6561 125.859 83.5131C124.319 87.6598 121.219 91.301 117.265 92.1015C112.962 92.9682 109.495 90.296 108.767 86.2274C107.527 79.1677 113.281 72.3427 125.486 69.8811C139.973 66.9561 149.434 70.802 151.275 79.9381C153.508 91.0001 144.956 103.41 132.119 107.744C128.008 109.122 124.126 109.357 122.651 107.461ZM135.254 111.499C140.346 110.47 144.318 112.962 145.293 117.789C146.268 122.615 143.59 126.545 138.498 127.569C133.316 128.616 129.338 126.13 128.345 121.207C127.376 116.392 130.072 112.546 135.254 111.499Z" fill="#4F735F"/>
<path d="M184.919 159.786C181.717 159.683 179.954 157.101 180.562 153.165C181.928 144.228 178.69 137.595 170.733 133.304C167.122 131.342 164.865 131.156 163.842 133.045C163.078 134.466 166.027 137.481 168.573 142.013C170.775 145.853 171.582 150.565 169.668 154.11C167.586 157.974 163.306 158.925 159.719 156.885C153.502 153.322 151.937 144.535 157.854 133.575C164.883 120.569 173.893 115.766 182.09 120.196C192.021 125.558 196.089 140.057 191.196 152.696C189.625 156.734 187.326 159.864 184.919 159.792V159.786ZM196.089 152.69C198.557 148.116 203.017 146.671 207.35 148.995C211.683 151.318 212.983 155.91 210.516 160.484C208.048 165.058 203.546 166.593 199.129 164.209C194.711 161.826 193.58 157.336 196.089 152.69Z" fill="#4F735F"/>
<path d="M234.788 142.037C232.465 139.828 232.875 136.729 235.956 134.213C242.925 128.453 244.93 121.352 241.86 112.841C240.464 108.965 238.917 107.328 236.895 108.063C235.378 108.604 235.571 112.823 234.445 117.897C233.537 122.224 230.997 126.287 227.223 127.653C223.094 129.146 219.273 126.997 217.961 123.091C215.692 116.29 220.368 108.695 232.092 104.47C245.995 99.4501 255.919 101.864 259.079 110.633C262.913 121.249 256.281 134.785 244.219 140.948C240.356 142.916 236.546 143.716 234.807 142.061L234.788 142.037ZM247.867 144.204C252.754 142.44 257.051 144.318 258.7 148.952C260.349 153.587 258.297 157.86 253.41 159.623C248.523 161.387 244.141 159.539 242.438 154.808C240.735 150.078 242.871 145.985 247.855 144.192" fill="#4F735F"/>
<path d="M458.804 283.743L455.066 282.431C454.157 283.298 433.508 297.315 411.42 288.004C404.459 284.981 398.898 279.439 395.85 272.489L393.003 272.525C393.003 272.525 408.116 247.036 433.405 253.795C455.217 259.633 458.834 283.743 458.834 283.743" fill="#AB8935"/>
<path d="M455.078 282.401C454.169 283.268 433.52 297.285 411.432 287.974C404.471 284.951 398.91 279.409 395.862 272.458C395.864 272.448 395.864 272.438 395.862 272.428C395.862 272.428 412.04 252.663 431.618 257.075C451.196 261.487 455.09 282.353 455.09 282.353" fill="white"/>
<path d="M432.395 282.082C426.226 288.552 413.779 287.926 408.212 281.823C402.645 275.72 401.658 264.887 407.827 258.417C413.996 251.947 433.105 251.339 438.672 257.442C444.239 263.545 438.563 275.618 432.395 282.082Z" fill="#91C361"/>
<path d="M432.395 282.082C426.226 288.552 413.779 287.926 408.212 281.823C402.645 275.72 401.658 264.887 407.827 258.417C413.996 251.947 433.105 251.339 438.672 257.442C444.239 263.545 438.563 275.648 432.395 282.082Z" stroke="#211011" stroke-width="2" stroke-miterlimit="10"/>
<path d="M426.918 271.074C425.281 275.016 419.304 279.061 415.23 277.369C411.155 275.678 408.194 270.785 411.336 264.213C413.177 260.361 419.509 256.563 423.631 258.134C429.65 260.421 428.561 267.162 426.918 271.074Z" fill="#211011"/>
<path d="M433.935 274.691C429.427 274.589 424.45 273.12 424.763 266.867C424.956 262.925 429.403 260.849 433.911 260.969C438.419 261.089 442.476 263.786 442.229 269.287C442.096 272.368 438.449 274.788 433.935 274.703" fill="white"/>
<path d="M458.804 283.743C458.804 283.743 441.519 298.296 421.122 294.829C400.725 291.363 392.973 272.525 392.973 272.525L395.82 272.489C398.868 279.439 404.429 284.981 411.39 288.004C433.478 297.315 454.121 283.298 455.036 282.431L458.804 283.743Z" fill="#E7D173"/>
<path d="M314.028 253.741L317.886 254.234C318.295 255.396 324.091 273.849 347.588 275.408C355.036 275.818 362.364 273.4 368.105 268.637L370.584 269.919C370.584 269.919 368.55 240.879 343.363 235.673C321.63 231.183 314.004 253.729 314.004 253.729" fill="#AB8935"/>
<path d="M317.886 254.204V254.24C318.295 255.402 324.091 273.855 347.588 275.413C355.034 275.826 362.361 273.407 368.099 268.643C368.099 268.643 362.598 244.153 343.459 239.405C324.32 234.656 317.85 254.222 317.85 254.222" fill="white"/>
<path d="M328.063 246.308C325.054 254.734 328.93 266.205 337.296 268.577C346.324 271.134 356.32 265.832 359.456 257.442C362.592 249.052 359.618 239.651 352.234 237.051C344.849 234.451 333.54 230.714 328.033 246.308" fill="#91C361"/>
<path d="M328.063 246.308C325.054 254.734 328.93 266.205 337.296 268.577C346.324 271.134 356.32 265.832 359.456 257.442C362.592 249.052 359.618 239.651 352.234 237.051C344.849 234.451 333.57 230.714 328.063 246.308Z" stroke="#211011" stroke-width="2" stroke-miterlimit="10"/>
<path d="M334.028 246.344C331.675 250.918 333.318 258.122 337.163 260.108C341.009 262.094 346.432 260.614 349.441 254.018C351.578 249.341 349.845 243.238 346.005 241.258C342.165 239.278 336.375 241.776 334.028 246.344Z" fill="#211011"/>
<path d="M351.644 259.097C354.834 260.674 359.137 259.097 360.63 256.268C362.592 252.543 360.293 248.222 357.018 246.789C353.744 245.357 349.243 245.784 347.281 249.407C345.752 252.224 347.148 256.888 351.626 259.097" fill="white"/>
<path d="M314.028 253.741C314.028 253.741 317.639 270.165 337.103 276.106C356.567 282.046 370.608 269.937 370.608 269.937L368.129 268.655C362.388 273.418 355.06 275.836 347.612 275.425C324.139 273.867 318.319 255.414 317.91 254.252L314.028 253.741Z" fill="#E7D173"/>
<path d="M378.198 273.078C377.55 276.707 375.833 280.06 373.269 282.708C372.667 283.31 371.938 283.851 371.349 284.513C371.029 284.861 370.791 285.277 370.652 285.729C370.514 286.181 370.478 286.658 370.548 287.125C370.765 288.991 371.896 290.592 373.106 291.94C373.744 292.668 374.809 291.603 374.171 290.881C373.569 290.222 373.05 289.493 372.625 288.708C372.239 287.974 371.788 286.861 372.101 286.03C372.414 285.199 373.347 284.73 373.907 284.188C374.505 283.611 375.066 282.996 375.586 282.347C377.654 279.764 379.048 276.707 379.642 273.451C379.811 272.5 378.36 272.097 378.192 273.048" fill="#AB8935"/>
</svg>
