<svg width="650" height="650" viewBox="0 0 650 650" fill="none" xmlns="http://www.w3.org/2000/svg">
<path d="M602.759 558.998C602.759 558.998 555.071 495.639 525.039 485.978C495.007 476.317 523.317 514.849 523.317 514.849C523.317 514.849 470.068 456.489 450.521 461.825C432.603 466.637 450.521 502.735 450.521 502.735C450.521 502.735 430.338 482.701 405.885 482.701C381.433 482.701 424.795 557.594 424.795 557.594L602.759 558.998Z" fill="#66A480"/>
<path d="M514.217 470.082C504.406 454.729 502.571 436.212 502.758 423.274C502.848 415.075 503.777 406.907 505.53 398.897L504.818 398.635C503.036 406.736 502.089 414.999 501.991 423.293C501.785 436.25 503.638 454.973 513.58 470.513L514.217 470.082Z" fill="#49745B"/>
<path d="M507.983 396.351C507.909 397.79 507.538 399.198 506.893 400.487C506.249 401.776 505.345 402.917 504.238 403.84C502.427 401.45 501.561 398.477 501.804 395.489C501.882 394.051 502.255 392.644 502.899 391.356C503.543 390.068 504.445 388.926 505.549 388C507.37 390.391 508.238 393.374 507.983 396.369" fill="#49745B"/>
<path d="M501.355 403.634C502.94 406.171 503.527 409.207 503.002 412.153C501.607 411.782 500.298 411.14 499.151 410.263C498.004 409.386 497.041 408.291 496.318 407.041C494.71 404.485 494.122 401.417 494.67 398.447C497.491 399.203 499.895 401.049 501.355 403.577" fill="#49745B"/>
<path d="M497.591 412.19C500.085 413.818 501.877 416.324 502.609 419.211C501.263 419.562 499.857 419.617 498.487 419.375C497.117 419.133 495.815 418.598 494.67 417.807C492.176 416.179 490.385 413.673 489.653 410.786C490.999 410.441 492.405 410.387 493.774 410.63C495.143 410.872 496.444 411.404 497.591 412.19Z" fill="#49745B"/>
<path d="M498.752 424.117C499.778 424.818 500.643 425.73 501.289 426.793C501.934 427.855 502.346 429.042 502.497 430.276C501.441 430.749 500.284 430.947 499.131 430.853C497.979 430.758 496.87 430.373 495.906 429.734C494.879 429.038 494.013 428.129 493.367 427.07C492.721 426.01 492.31 424.824 492.161 423.592C493.216 423.122 494.372 422.923 495.523 423.015C496.675 423.107 497.785 423.485 498.752 424.117Z" fill="#49745B"/>
<path d="M507.215 409.981C508.293 409.401 509.485 409.063 510.708 408.992C511.93 408.921 513.154 409.118 514.292 409.569C513.997 410.782 513.449 411.92 512.685 412.907C511.92 413.894 510.956 414.709 509.855 415.298C508.779 415.887 507.586 416.229 506.362 416.3C505.138 416.371 503.914 416.17 502.777 415.71C503.072 414.494 503.62 413.354 504.384 412.364C505.149 411.373 506.113 410.555 507.215 409.962" fill="#49745B"/>
<path d="M506.953 418.219C508.035 417.639 509.23 417.301 510.456 417.23C511.681 417.159 512.907 417.356 514.049 417.807C513.753 419.025 513.206 420.167 512.442 421.161C511.677 422.154 510.713 422.976 509.612 423.574C508.53 424.155 507.334 424.491 506.107 424.559C504.881 424.627 503.655 424.425 502.516 423.967C502.81 422.751 503.358 421.611 504.122 420.62C504.887 419.63 505.851 418.812 506.953 418.219Z" fill="#49745B"/>
<path d="M500.231 437.242C500.829 437.391 501.39 437.66 501.879 438.034C502.368 438.407 502.776 438.877 503.077 439.414C502.629 439.782 502.102 440.042 501.537 440.172C500.971 440.302 500.383 440.299 499.82 440.163C499.222 440.014 498.661 439.745 498.172 439.371C497.683 438.998 497.275 438.528 496.974 437.991C497.417 437.614 497.944 437.35 498.511 437.219C499.078 437.089 499.668 437.097 500.231 437.242Z" fill="#49745B"/>
<path d="M510.173 480.923C487.705 475.549 470.555 458.923 460.145 445.929C453.369 437.5 447.519 428.367 442.695 418.687L441.796 419.155C446.633 428.907 452.515 438.104 459.34 446.585C469.862 459.691 487.181 476.542 509.892 481.953L510.173 480.923Z" fill="#49745B"/>
<path d="M443.013 413.688C445.266 416.913 446.161 420.894 445.503 424.772C443.62 424.504 441.814 423.844 440.201 422.834C438.589 421.825 437.206 420.489 436.142 418.912C435.018 417.315 434.222 415.513 433.797 413.607C433.373 411.702 433.33 409.731 433.67 407.809C435.553 408.08 437.358 408.741 438.97 409.75C440.582 410.759 441.966 412.094 443.032 413.669" fill="#49745B"/>
<path d="M442.414 427.655C444.258 428.133 445.982 428.989 447.478 430.168C448.973 431.348 450.207 432.826 451.101 434.508C449.499 435.525 447.703 436.197 445.826 436.48C443.95 436.764 442.035 436.653 440.204 436.155C438.359 435.676 436.633 434.819 435.134 433.64C433.636 432.46 432.398 430.984 431.498 429.303C433.104 428.286 434.903 427.615 436.783 427.331C438.662 427.048 440.579 427.158 442.414 427.655Z" fill="#49745B"/>
<path d="M445.747 440.012C447.578 439.546 449.487 439.471 451.348 439.794C453.21 440.116 454.983 440.829 456.55 441.885C455.567 443.549 454.257 444.998 452.7 446.143C451.142 447.288 449.37 448.107 447.488 448.55C445.657 449.014 443.748 449.086 441.887 448.764C440.026 448.441 438.253 447.73 436.685 446.678C437.676 445.022 438.991 443.583 440.551 442.447C442.111 441.312 443.885 440.503 445.765 440.069" fill="#49745B"/>
<path d="M454.696 451.228C456.528 450.764 458.436 450.692 460.297 451.014C462.158 451.337 463.931 452.047 465.5 453.1C464.512 454.757 463.201 456.199 461.644 457.338C460.087 458.476 458.316 459.289 456.438 459.728C454.607 460.197 452.697 460.273 450.835 459.95C448.973 459.628 447.2 458.914 445.634 457.856C446.622 456.2 447.933 454.762 449.49 453.626C451.048 452.49 452.818 451.681 454.696 451.246" fill="#49745B"/>
<path d="M452.019 432.579C451.798 428.958 452.94 425.385 455.221 422.562C456.5 423.716 457.531 425.117 458.252 426.682C458.973 428.246 459.369 429.94 459.415 431.662C459.632 435.283 458.49 438.855 456.213 441.679C454.938 440.523 453.909 439.121 453.188 437.557C452.467 435.993 452.07 434.3 452.019 432.579Z" fill="#49745B"/>
<path d="M461.362 444.188C461.076 440.578 462.136 436.989 464.339 434.115C465.638 435.245 466.693 436.628 467.44 438.18C468.187 439.731 468.61 441.419 468.683 443.139C468.954 446.76 467.866 450.352 465.631 453.212C464.334 452.081 463.282 450.697 462.538 449.146C461.795 447.594 461.375 445.907 461.306 444.188" fill="#49745B"/>
<path d="M569.656 512.659H570.63C569.226 486.952 578.662 462.762 586.826 446.997C591.965 436.961 598.086 427.46 605.099 418.631L604.388 417.901C597.346 426.764 591.2 436.303 586.039 446.379C577.801 462.275 568.29 486.69 569.694 512.659" fill="#49745B"/>
<path d="M609.312 417.17C608.419 418.83 607.188 420.285 605.698 421.439C604.208 422.594 602.492 423.423 600.662 423.873C600.127 419.703 600.996 415.474 603.133 411.853C604.028 410.2 605.258 408.752 606.744 407.601C608.231 406.45 609.94 405.622 611.765 405.169C612.316 409.331 611.452 413.558 609.312 417.17Z" fill="#49745B"/>
<path d="M597.442 421.57C597.657 425.743 596.442 429.865 593.997 433.253C591.289 430.267 589.776 426.388 589.747 422.357C589.546 418.182 590.767 414.063 593.211 410.673C595.913 413.662 597.419 417.541 597.442 421.57Z" fill="#49745B"/>
<path d="M587.911 429.603C589.687 433.384 590.116 437.658 589.128 441.717C587.367 441.173 585.746 440.252 584.378 439.016C583.01 437.781 581.928 436.261 581.208 434.565C579.452 430.778 579.023 426.511 579.991 422.451C581.754 422.992 583.376 423.913 584.745 425.148C586.113 426.384 587.194 427.905 587.911 429.603Z" fill="#49745B"/>
<path d="M581.471 449.356C582.32 450.881 582.624 452.651 582.332 454.373C581.577 454.214 580.867 453.887 580.255 453.417C579.642 452.947 579.143 452.346 578.793 451.658C577.95 450.13 577.653 448.36 577.951 446.641C578.703 446.801 579.41 447.129 580.019 447.599C580.628 448.068 581.124 448.669 581.471 449.356Z" fill="#49745B"/>
<path d="M578.663 456.489C579.513 458.021 579.817 459.797 579.524 461.525C578.769 461.366 578.059 461.039 577.447 460.569C576.834 460.1 576.335 459.499 575.985 458.81C575.141 457.276 574.844 455.5 575.143 453.774C575.893 453.938 576.598 454.267 577.207 454.737C577.816 455.206 578.313 455.804 578.663 456.489Z" fill="#49745B"/>
<path d="M600.007 433.44C601.602 433.477 603.167 433.888 604.575 434.639C605.983 435.39 607.195 436.461 608.114 437.765C607.1 439.038 605.813 440.068 604.349 440.777C602.884 441.487 601.279 441.859 599.651 441.866C598.055 441.825 596.49 441.411 595.082 440.657C593.674 439.903 592.462 438.829 591.544 437.522C592.559 436.251 593.847 435.225 595.311 434.519C596.776 433.812 598.381 433.444 600.007 433.44Z" fill="#49745B"/>
<path d="M594.633 443.383C596.231 443.419 597.798 443.831 599.206 444.585C600.615 445.34 601.826 446.416 602.741 447.727C601.722 448.998 600.431 450.024 598.963 450.73C597.495 451.437 595.888 451.805 594.259 451.808C592.664 451.771 591.099 451.361 589.691 450.61C588.283 449.859 587.071 448.788 586.152 447.483C587.17 446.21 588.46 445.18 589.928 444.471C591.395 443.761 593.003 443.39 594.633 443.383Z" fill="#49745B"/>
<path d="M585.721 457.126C586.759 457.152 587.776 457.419 588.693 457.906C589.609 458.394 590.4 459.088 591.001 459.934C590.343 460.763 589.507 461.433 588.553 461.894C587.6 462.354 586.555 462.593 585.496 462.593C584.457 462.574 583.437 462.31 582.52 461.822C581.602 461.334 580.813 460.635 580.217 459.784C580.872 458.953 581.709 458.281 582.663 457.821C583.616 457.36 584.662 457.122 585.721 457.126Z" fill="#49745B"/>
<path d="M485.852 554.804C485.852 550.535 511.69 555.59 513.936 549.749C516.183 543.907 491.806 543.589 491.806 535.706C491.806 527.824 504.182 533.347 511.446 533.347C518.711 533.347 497.104 529.958 497.104 527.169C497.104 524.379 504.593 525.858 504.593 522.881C504.593 519.904 464.825 517.695 469.488 510.43C474.15 503.165 495.513 512.546 501.317 508.782C507.121 505.019 469.956 500.937 469.094 495.358C468.233 489.778 496.543 500.151 500.549 496.125C504.556 492.1 455.726 477.683 457.767 467.086C459.808 456.489 494.783 480.66 503.526 478.058C512.27 475.455 459.433 438.234 471.697 423.761C483.961 409.288 507.402 471.729 515.434 469.595C523.466 467.46 505.417 430.089 513.562 423.611C521.706 417.133 545.185 476.036 546.664 488.187C548.144 500.338 551.121 462.143 563.965 457.687C576.809 453.231 564.32 481.316 566.567 489.872C568.814 498.428 579.205 467.928 593.266 470.156C607.327 472.385 567.859 500.301 571.772 508.483C575.685 516.665 606.129 481.147 615.678 490.696C625.227 500.245 578.999 526.719 581.527 533.965C584.055 541.211 611.784 528.797 619.778 536.792C627.773 544.787 589.971 549.898 584.972 549.898C579.973 549.898 560.819 556.189 579.505 554.954C598.191 553.718 485.889 559.241 485.889 554.954" fill="#49745B"/>
<path d="M559.509 559.748C559.509 559.748 590.627 561.414 599.689 555.722C608.751 550.03 601.561 545.574 601.561 545.574C601.561 545.574 630.338 544.956 630.263 538.085C630.189 531.214 623.224 531.663 623.224 531.663C623.224 531.663 637.734 521.796 635.038 515.655C630.863 506.293 607.215 522.657 607.215 522.657C607.215 522.657 614.967 513.445 608.694 511.292C591.507 505.376 559.471 559.71 559.471 559.71" fill="#66A480"/>
<path d="M635.075 515.691C637.772 521.833 623.261 531.7 623.261 531.7C623.261 531.7 633.746 531.569 632.042 538.197C630.338 544.825 603.957 547.034 603.957 547.034C603.957 547.034 613.169 548.906 604.107 554.523C595.045 560.14 559.49 559.728 559.49 559.728L635.075 515.691Z" fill="#49745B"/>
<path d="M377.679 510.076C201.019 469.628 62.143 517.771 28.5075 560.637C-5.12793 603.503 123.147 611.63 200.501 611.63C277.854 611.63 356.936 598.234 456.762 611.63C556.587 625.027 627.026 609.902 640.855 577.491C654.683 545.08 598.505 560.637 377.679 510.076Z" fill="#9DBEAA"/>
<path d="M200.137 526.714H199.048C200.611 497.731 189.979 470.452 180.768 452.669C174.991 441.305 168.089 430.548 160.167 420.56L160.972 419.731C168.935 429.744 175.884 440.524 181.715 451.911C190.997 469.86 201.724 497.375 200.137 526.667" fill="#49745B"/>
<path d="M155.407 418.926C156.415 420.797 157.804 422.436 159.485 423.737C161.165 425.038 163.099 425.973 165.163 426.48C165.774 421.78 164.79 417.01 162.369 412.935C161.364 411.067 159.979 409.43 158.302 408.129C156.626 406.828 154.696 405.892 152.637 405.382C152.03 410.079 153.004 414.845 155.407 418.926Z" fill="#49745B"/>
<path d="M168.928 423.994C168.683 428.697 170.054 433.342 172.811 437.159C175.856 433.79 177.544 429.411 177.547 424.87C177.78 420.161 176.412 415.512 173.664 411.681C170.619 415.06 168.933 419.446 168.928 423.994Z" fill="#49745B"/>
<path d="M179.489 433.039C177.497 437.306 177.013 442.124 178.115 446.702C180.104 446.092 181.934 445.052 183.476 443.657C185.019 442.262 186.236 440.545 187.043 438.628C189.035 434.369 189.519 429.559 188.416 424.988C186.43 425.596 184.601 426.632 183.059 428.023C181.517 429.414 180.298 431.126 179.489 433.039Z" fill="#49745B"/>
<path d="M186.806 455.321C185.856 457.046 185.522 459.042 185.858 460.981C186.705 460.794 187.5 460.423 188.187 459.896C188.874 459.368 189.438 458.695 189.837 457.926C190.784 456.193 191.118 454.19 190.784 452.243C189.934 452.43 189.136 452.802 188.448 453.335C187.76 453.867 187.199 454.546 186.806 455.321Z" fill="#49745B"/>
<path d="M189.979 463.301C189.034 465.035 188.692 467.035 189.008 468.984C189.86 468.804 190.66 468.434 191.349 467.901C192.038 467.368 192.598 466.686 192.986 465.906C193.954 464.188 194.297 462.189 193.957 460.247C193.109 460.429 192.312 460.798 191.624 461.326C190.936 461.854 190.374 462.529 189.979 463.301Z" fill="#49745B"/>
<path d="M165.897 437.373C164.098 437.413 162.333 437.875 160.746 438.722C159.158 439.57 157.792 440.778 156.757 442.25C157.892 443.677 159.332 444.831 160.97 445.63C162.609 446.429 164.406 446.852 166.229 446.868C168.027 446.826 169.791 446.363 171.379 445.516C172.966 444.669 174.332 443.461 175.369 441.99C174.233 440.564 172.794 439.409 171.155 438.61C169.516 437.811 167.72 437.388 165.897 437.373Z" fill="#49745B"/>
<path d="M171.983 448.667C170.178 448.71 168.409 449.176 166.817 450.027C165.226 450.879 163.856 452.092 162.819 453.569C163.959 454.989 165.4 456.137 167.038 456.931C168.676 457.726 170.47 458.147 172.291 458.163C174.09 458.127 175.856 457.666 177.445 456.818C179.033 455.971 180.399 454.76 181.431 453.285C180.294 451.86 178.854 450.706 177.216 449.907C175.578 449.109 173.782 448.685 171.959 448.667" fill="#49745B"/>
<path d="M182.022 464.083C180.848 464.105 179.696 464.404 178.659 464.955C177.622 465.506 176.73 466.295 176.055 467.256C176.801 468.191 177.749 468.944 178.827 469.461C179.906 469.978 181.087 470.244 182.283 470.24C183.454 470.222 184.605 469.925 185.639 469.373C186.672 468.821 187.56 468.03 188.226 467.067C187.486 466.131 186.543 465.377 185.468 464.86C184.393 464.343 183.215 464.077 182.022 464.083Z" fill="#49745B"/>
<path d="M199.997 520.332C200.715 515.014 204.474 508.864 215.48 511.241C215.559 511.219 215.587 511.224 215.554 511.257C215.529 511.252 215.505 511.246 215.48 511.241C214.53 511.508 206.246 515.712 208.64 522.493C209.504 519.9 212.529 515.406 217.715 518.171C214.978 518.747 214.257 519.468 211.232 527.678C208.207 535.889 199.997 538.05 193.082 529.407C186.168 520.764 189.625 518.171 180.118 517.739C180.118 517.307 186.168 512.986 190.49 516.011C193.947 518.431 195.387 520.476 195.675 521.196C195.387 518.027 196.021 511.516 200.861 510.825C200.861 511.257 198.7 515.146 199.997 520.332Z" fill="#49745B"/>
<path d="M307.664 254.205C303.73 248.934 292.555 254.757 287.075 251.137C279.782 246.331 275.522 227.445 269.159 221.465C262.796 215.485 257.427 208.175 255.091 199.761C252.266 189.615 254.039 178.783 256.48 168.538C260.131 153.189 265.223 138.219 271.687 123.827C286.145 134.268 299.023 146.736 309.924 160.85C317.955 171.246 325.138 183.461 324.405 196.57C324.103 201.951 323.545 213.463 321.924 218.6C317.525 232.547 312.045 240.235 307.664 254.205Z" fill="#FFD240"/>
<path d="M308.669 253.612C305.996 250.125 301.277 250.59 297.372 250.939C295.242 251.213 293.09 251.293 290.945 251.177C290.103 251.106 289.277 250.91 288.493 250.596C287.793 250.28 287.155 249.841 286.61 249.3C283.803 246.714 282.019 242.995 280.363 239.555C278.428 235.545 276.737 231.419 274.68 227.468C273.824 225.757 272.82 224.124 271.681 222.586C270.287 220.756 268.509 219.274 266.945 217.595C263.033 213.522 259.884 208.781 257.648 203.596C252.656 191.491 255.248 178.213 258.316 165.975C261.473 153.319 265.623 140.932 270.728 128.929C271.375 127.418 272.034 125.913 272.704 124.414L271.112 124.832C279.7 131.054 287.735 138.004 295.129 145.607C298.837 149.407 302.378 153.363 305.752 157.473C309.099 161.484 312.191 165.702 315.009 170.101C317.808 174.429 320.028 179.106 321.61 184.012C322.353 186.388 322.859 188.83 323.121 191.305C323.312 193.542 323.326 195.79 323.162 198.029C322.935 202.097 322.691 206.164 322.244 210.232C322.034 212.144 321.785 214.056 321.401 215.939C320.912 218.093 320.269 220.21 319.478 222.273C316.107 231.716 311.237 240.537 307.855 249.98C307.391 251.287 306.949 252.607 306.53 253.926C306.077 255.361 308.326 255.971 308.774 254.547C310.396 249.54 312.31 244.631 314.503 239.845C316.555 235.295 318.681 230.78 320.5 226.131C321.465 223.656 322.401 221.145 323.144 218.577C323.619 216.82 323.966 215.031 324.185 213.225C324.766 208.948 325.091 204.636 325.347 200.33C325.463 198.424 325.62 196.512 325.608 194.6C325.591 191.967 325.297 189.344 324.731 186.773C323.545 181.658 321.602 176.75 318.966 172.21C316.33 167.626 313.346 163.251 310.04 159.123C306.701 154.862 303.176 150.74 299.464 146.757C292.105 138.901 284.085 131.69 275.493 125.204C274.424 124.402 273.349 123.608 272.268 122.822C272.136 122.744 271.99 122.694 271.839 122.673C271.687 122.652 271.533 122.661 271.385 122.7C271.237 122.739 271.099 122.807 270.977 122.899C270.855 122.992 270.753 123.108 270.676 123.24C265.252 135.321 260.783 147.809 257.311 160.588C255.471 167.009 254.06 173.546 253.086 180.154C252.226 186.61 252.179 193.258 253.853 199.598C255.439 205.261 258.148 210.548 261.82 215.142C263.584 217.406 265.507 219.543 267.573 221.535C268.883 222.749 270.029 224.128 270.984 225.637C273.308 229.345 275 233.424 276.795 237.393C278.538 241.234 280.317 245.197 282.879 248.574C283.92 250.06 285.24 251.329 286.767 252.31C288.574 253.362 290.742 253.583 292.793 253.56C294.978 253.56 297.151 253.24 299.331 253.095C301.242 252.967 303.212 252.862 304.985 253.56C305.631 253.825 306.204 254.244 306.653 254.78C306.816 255.038 307.071 255.224 307.367 255.301C307.663 255.377 307.977 255.339 308.245 255.192C308.377 255.116 308.493 255.013 308.585 254.892C308.678 254.77 308.746 254.631 308.784 254.483C308.823 254.335 308.833 254.181 308.812 254.03C308.791 253.878 308.74 253.732 308.663 253.6" fill="#AB8935"/>
<path d="M354.367 327.25C360.492 329.638 366.89 318.783 373.462 318.952C382.179 319.172 395.8 332.945 404.36 334.642C412.92 336.338 421.352 339.715 427.785 345.613C435.554 352.732 439.779 362.86 443.132 372.844C448.153 387.8 451.754 403.195 453.888 418.827C436.09 417.631 418.556 413.879 401.826 407.687C389.513 403.114 376.949 396.553 370.632 385.024C368.041 380.299 362.427 370.235 361.085 365.016C357.424 350.837 358.005 341.446 354.344 327.244" fill="#FFD240"/>
<path d="M354.036 328.371C358.04 329.888 361.974 326.709 364.961 324.443C366.614 323.091 368.395 321.904 370.278 320.898L370.586 320.753L370.737 320.683C370.737 320.683 370.592 320.741 370.737 320.683C370.975 320.584 371.214 320.497 371.458 320.422C371.702 320.346 371.864 320.3 372.074 320.247L372.434 320.172H372.585C372.765 320.172 372.405 320.172 372.585 320.172C373.012 320.134 373.442 320.134 373.869 320.172H374.148C374.247 320.172 374.491 320.212 374.259 320.172C374.462 320.201 374.671 320.236 374.875 320.276C375.775 320.462 376.658 320.724 377.513 321.061C377.722 321.136 377.931 321.218 378.135 321.305H378.175L378.332 321.369L378.704 321.537C379.175 321.746 379.64 321.973 380.099 322.211C382.117 323.26 384.08 324.412 385.98 325.663C389.896 328.179 393.679 330.934 397.764 333.218C399.465 334.196 401.273 334.976 403.151 335.542C404.314 335.867 405.476 336.053 406.638 336.332C408.048 336.673 409.447 337.061 410.834 337.495C416.352 339.152 421.488 341.888 425.942 345.543C430.301 349.25 433.619 353.957 436.24 359.019C438.913 364.197 440.889 369.705 442.678 375.232C444.759 381.608 446.58 388.057 448.141 394.577C449.702 401.097 451 407.669 452.034 414.294C452.282 415.902 452.519 417.511 452.743 419.123C453.115 418.635 453.487 418.141 453.865 417.653C442.507 416.876 431.245 415.049 420.224 412.196C414.708 410.774 409.269 409.097 403.907 407.164C399.389 405.583 394.982 403.702 390.716 401.533C386.633 399.47 382.818 396.915 379.355 393.926C377.653 392.419 376.084 390.768 374.665 388.992C373.367 387.311 372.214 385.523 371.219 383.646C369.296 380.16 367.384 376.632 365.629 373.047C364.746 371.24 363.886 369.432 363.206 367.66C362.462 365.65 361.87 363.587 361.434 361.489C359.161 351.441 358.638 341.115 356.453 331.056C356.151 329.681 355.824 328.307 355.471 326.936C355.099 325.489 352.856 326.105 353.228 327.558C354.54 332.819 355.537 338.153 356.215 343.532C356.889 348.541 357.482 353.556 358.441 358.519C358.882 361.094 359.464 363.643 360.184 366.155C360.787 367.993 361.503 369.792 362.328 371.542C364.072 375.406 366.094 379.16 368.14 382.885C369.046 384.547 369.924 386.238 370.964 387.824C372.268 389.807 373.754 391.663 375.403 393.368C378.726 396.728 382.496 399.614 386.607 401.945C390.784 404.321 395.14 406.367 399.636 408.064C404.866 410.093 410.194 411.847 415.587 413.37C426.714 416.513 438.108 418.618 449.623 419.658C451.035 419.785 452.447 419.902 453.859 419.995C454.696 420.053 455.073 419.21 454.98 418.524C454.07 411.853 452.892 405.225 451.447 398.639C450.002 392.053 448.296 385.543 446.328 379.108C444.592 373.143 442.488 367.292 440.029 361.587C437.663 356.288 434.688 351.209 430.731 346.938C426.634 342.629 421.665 339.244 416.157 337.006C413.428 335.862 410.615 334.931 407.742 334.223C406.493 333.909 405.214 333.7 403.971 333.374C403.558 333.264 403.157 333.136 402.762 332.997L402.134 332.764L401.844 332.642H401.786L401.675 332.596C397.561 330.777 393.836 328.121 390.105 325.623C386.375 323.124 382.481 320.52 378.193 318.847C376.507 318.122 374.687 317.765 372.852 317.801C370.737 317.94 368.785 318.916 367.041 320.061C365.298 321.206 363.508 322.682 361.718 323.955C360.88 324.559 360.003 325.107 359.092 325.593L358.511 325.878C358.313 325.965 358.598 325.843 358.394 325.925L358.005 326.076C357.59 326.217 357.164 326.326 356.732 326.401C356.971 326.355 356.692 326.401 356.605 326.401C356.508 326.407 356.411 326.407 356.314 326.401C356.105 326.401 355.896 326.401 355.686 326.401C355.477 326.401 355.826 326.436 355.605 326.401L355.314 326.343C355.086 326.285 354.861 326.215 354.64 326.134C354.347 326.049 354.032 326.083 353.763 326.229C353.494 326.374 353.294 326.62 353.205 326.913C353.129 327.211 353.171 327.526 353.323 327.794C353.475 328.061 353.724 328.26 354.019 328.348" fill="#AB8935"/>
<path d="M283.728 311.455L253.365 321.334C247.187 323.339 240.9 325.367 234.409 325.495C219.951 325.774 207.155 316.778 195.527 308.184C182.516 298.561 169.179 288.6 160.66 274.84C159.498 272.986 158.504 270.447 159.922 268.796C160.62 267.994 161.706 267.675 162.729 267.396C185.526 261.253 209.026 257.441 232.631 257.25C239.023 257.203 245.793 257.517 251.226 260.887C254.626 262.985 257.246 266.117 259.646 269.325C264.295 275.467 268.264 282.034 272.257 288.56C275.057 293.17 277.86 297.774 280.665 302.373C282.496 305.383 284.402 308.829 283.507 312.252" fill="#FFD240"/>
<path d="M283.42 310.333L252.621 320.352C247.786 321.921 242.876 323.513 237.803 324.094C233.219 324.6 228.581 324.221 224.141 322.978C215.267 320.52 207.416 315.36 200.036 310.06C192.656 304.761 185.265 299.287 178.402 293.272C174.978 290.295 171.748 287.102 168.732 283.713C167.25 282.022 165.826 280.278 164.507 278.483C163.148 276.754 161.957 274.9 160.951 272.945C160.536 272.17 160.352 271.293 160.422 270.417C160.573 269.511 161.329 269.069 162.136 268.796C164.502 268 166.995 267.482 169.418 266.878C174.489 265.615 179.591 264.478 184.724 263.467C194.95 261.442 205.284 260.006 215.674 259.167C220.881 258.779 226.097 258.537 231.323 258.44C235.908 258.376 240.586 258.371 245.049 259.55C247.231 260.103 249.306 261.012 251.191 262.241C253.039 263.525 254.706 265.052 256.148 266.779C259.379 270.498 262.134 274.677 264.807 278.814C267.614 283.155 270.281 287.595 272.971 292.017L277.115 298.816C278.463 301.036 279.916 303.221 281.107 305.534C282.124 307.503 282.932 309.735 282.385 311.972C282.025 313.425 284.268 314.041 284.628 312.588C285.907 307.393 282.106 302.541 279.567 298.374C276.731 293.725 273.895 289.076 271.06 284.428C268.293 279.924 265.475 275.449 262.407 271.143C259.583 267.186 256.596 263.142 252.528 260.37C248.565 257.673 243.765 256.645 239.052 256.302C233.965 256.017 228.865 256.04 223.781 256.372C213.002 256.879 202.264 258.043 191.628 259.858C186.355 260.753 181.11 261.788 175.891 262.961C173.247 263.543 170.603 264.188 167.977 264.85C166.659 265.183 165.346 265.522 164.037 265.867C162.866 266.121 161.72 266.473 160.608 266.919C158.365 267.936 157.703 270.26 158.313 272.521C158.894 274.677 160.329 276.588 161.59 278.402C164.289 282.232 167.31 285.824 170.621 289.14C177.245 295.87 184.776 301.628 192.343 307.254C199.909 312.879 207.573 318.696 216.244 322.56C220.553 324.544 225.144 325.85 229.853 326.43C234.915 327.011 239.97 326.331 244.886 325.088C250.163 323.745 255.346 321.903 260.501 320.224L276.272 315.099L284.053 312.577C285.471 312.117 284.867 309.869 283.437 310.333" fill="#AB8935"/>
<path d="M303.939 330.283C291.736 337.082 276.627 336.007 263.651 341.214C259.124 343.033 254.934 345.596 250.773 348.147C244.119 352.214 237.32 356.468 232.596 362.674C225.042 372.64 223.955 385.994 223.926 398.506C223.897 411.017 224.507 424.04 219.469 435.493L252.127 433.407C257.189 433.082 262.372 432.727 267.021 430.699C271.461 428.764 275.156 425.417 278.411 421.849C289.068 410.227 296.303 395.763 300.946 380.695C305.589 365.626 307.739 349.896 309.134 334.206C309.256 332.823 309.326 331.3 308.442 330.214C307.559 329.127 305.363 329.29 305.188 330.667" fill="#FFD240"/>
<path d="M303.352 329.278C294.594 334.131 284.378 334.915 274.738 336.833C269.725 337.767 264.845 339.315 260.21 341.441C255.393 343.765 250.837 346.671 246.339 349.512C242.097 352.203 237.925 355.126 234.426 358.752C231.043 362.302 228.403 366.492 226.663 371.077C223.101 380.242 222.752 390.318 222.764 400.028C222.764 410.488 223.13 421.268 219.823 431.338C219.422 432.547 218.975 433.744 218.463 434.912C218.144 435.65 218.498 436.725 219.469 436.656L237.89 435.493C243.84 435.116 249.803 434.831 255.741 434.331C258.571 434.143 261.376 433.689 264.121 432.977C266.677 432.263 269.106 431.155 271.321 429.694C275.708 426.788 279.34 422.808 282.635 418.746C289.19 410.512 294.478 401.346 298.325 391.55C302.567 381.032 305.333 369.973 307.228 358.81C308.216 352.999 308.971 347.124 309.599 341.255C309.75 339.779 309.901 338.303 310.04 336.827C310.218 335.478 310.32 334.12 310.348 332.759C310.348 331.516 310.04 330.127 309.093 329.272C308.694 328.915 308.216 328.655 307.698 328.515C307.181 328.375 306.637 328.358 306.112 328.465C305.613 328.543 305.149 328.77 304.781 329.116C304.413 329.463 304.158 329.912 304.049 330.406C303.967 330.702 304.006 331.019 304.157 331.287C304.309 331.555 304.56 331.752 304.857 331.835C305.008 331.879 305.167 331.891 305.324 331.871C305.48 331.851 305.631 331.8 305.767 331.72C305.902 331.64 306.021 331.533 306.114 331.406C306.207 331.279 306.274 331.134 306.31 330.981C306.31 330.952 306.397 330.603 306.31 330.853C306.391 330.603 306.35 330.853 306.31 330.853L306.379 330.783C306.269 330.853 306.275 330.853 306.379 330.783C306.606 330.609 306.275 330.783 306.432 330.748C306.677 330.658 306.947 330.658 307.193 330.748C307.507 330.836 307.053 330.644 307.332 330.807C307.399 330.84 307.464 330.879 307.524 330.923C307.35 330.789 307.611 331.033 307.617 331.045C307.623 331.056 307.704 331.196 307.745 331.266C307.937 331.681 308.036 332.133 308.035 332.591C308.028 333.877 307.938 335.162 307.768 336.438C307.634 337.844 307.495 339.256 307.35 340.662C306.769 346.264 306.06 351.849 305.136 357.404C303.346 368.189 300.76 378.905 296.826 389.098C293.279 398.5 288.409 407.349 282.362 415.375C279.369 419.286 276.045 423.122 272.193 426.213C270.332 427.729 268.259 428.963 266.039 429.874C263.594 430.808 261.039 431.427 258.438 431.716C255.724 432.053 252.993 432.193 250.267 432.367L241.475 432.948L223.891 434.07L219.498 434.354L220.503 436.098C224.815 426.219 225.152 415.381 225.152 404.782C225.152 395.008 224.937 385.024 227.662 375.564C228.887 371.054 230.968 366.822 233.793 363.099C236.838 359.217 240.726 356.126 244.793 353.365C246.862 351.971 248.983 350.657 251.11 349.35C253.434 347.926 255.759 346.497 258.141 345.189C260.45 343.895 262.853 342.776 265.33 341.842C267.632 341.013 269.982 340.324 272.367 339.779C282.008 337.518 292.096 336.92 301.271 332.928C302.399 332.439 303.501 331.895 304.578 331.295C305.891 330.574 304.717 328.564 303.416 329.29" fill="#AB8935"/>
<path d="M344.518 255.227C342.643 253.089 340.979 250.775 339.549 248.318L327.927 229.769C325.678 226.178 323.418 222.563 321.912 218.6C319.64 212.62 319.193 206.129 318.804 199.743C318.494 194.776 318.211 189.808 317.955 184.838C317.717 180.067 317.502 175.261 318.176 170.531C319.751 159.49 326.102 149.582 334.203 141.934C342.304 134.287 352.095 128.697 361.997 123.612C362.485 123.295 363.06 123.138 363.642 123.164C364.283 123.348 364.833 123.762 365.188 124.327C370.418 131.062 373.044 139.372 375.595 147.49C379.425 159.693 383.283 171.995 384.109 184.733C384.428 189.591 384.283 194.554 382.795 199.185C381.709 202.561 379.942 205.67 378.664 208.977C377.118 212.998 376.298 217.298 374.398 221.18C373.016 223.791 371.394 226.268 369.552 228.578C362.497 238.021 355.204 247.69 345.18 253.902" fill="#FFD240"/>
<path d="M345.343 254.408C343.735 252.586 342.299 250.619 341.054 248.533C339.601 246.208 338.152 243.884 336.707 241.56C333.802 236.946 330.896 232.337 328.037 227.706C325.37 223.417 322.982 219.047 321.755 214.108C320.529 209.169 320.244 204.107 319.936 199.069C319.605 193.636 319.28 188.202 319.03 182.769C318.803 177.678 318.768 172.553 319.919 167.567C321.912 158.926 326.788 151.18 332.901 144.851C339.601 137.878 347.777 132.613 356.186 127.999C358.307 126.837 360.44 125.675 362.578 124.606C362.91 124.437 363.281 124.193 363.642 124.385C364.051 124.705 364.396 125.099 364.659 125.547C365.356 126.492 366.009 127.461 366.617 128.453C369.007 132.544 370.94 136.886 372.382 141.4C374.009 146.153 375.479 150.97 376.932 155.776C378.448 160.809 379.837 165.876 380.959 171.019C382.083 176.108 382.775 181.282 383.028 186.488C383.231 191.607 382.714 196.628 380.738 201.388C379.779 203.712 378.634 205.92 377.71 208.245C376.786 210.569 376.107 213.016 375.351 215.416C374.664 217.768 373.721 220.038 372.539 222.185C371.25 224.322 369.839 226.382 368.314 228.357C362.811 235.719 357.18 243.146 350.038 249.021C348.319 250.434 346.51 251.732 344.622 252.909C343.349 253.699 344.517 255.71 345.784 254.919C353.955 249.829 360.312 242.542 366.175 234.993C367.663 233.07 369.122 231.123 370.574 229.182C372.152 227.171 373.587 225.053 374.869 222.842C377.362 218.315 378.193 213.161 380.163 208.419C381.151 206.036 382.336 203.77 383.277 201.341C384.234 198.874 384.869 196.294 385.166 193.665C385.799 188.33 385.3 182.868 384.533 177.574C382.987 166.899 379.704 156.584 376.473 146.333C375.08 141.629 373.391 137.017 371.417 132.526C370.414 130.324 369.248 128.199 367.93 126.169C366.722 124.327 365.077 121.241 362.41 122.171C361.249 122.646 360.125 123.206 359.045 123.844C357.941 124.425 356.841 125.007 355.744 125.588C353.548 126.777 351.38 128.017 349.242 129.307C344.916 131.903 340.788 134.816 336.893 138.023C329.717 143.98 323.568 151.36 319.954 160.001C318.083 164.431 316.976 169.147 316.682 173.948C316.334 179.48 316.804 185.053 317.112 190.573C317.414 195.972 317.629 201.393 318.193 206.769C318.739 211.999 319.809 217.095 322.075 221.877C324.399 226.759 327.503 231.262 330.362 235.824C333.319 240.554 336.26 245.29 339.235 250.003C340.537 252.147 342.029 254.169 343.692 256.047C344.715 257.145 346.354 255.5 345.343 254.402" fill="#AB8935"/>
<path d="M368.657 259.272C361.463 231.425 367.861 200.58 385.677 177.336C387.993 174.167 390.712 171.315 393.766 168.851C396.614 166.655 399.856 164.97 402.994 163.168C407.062 160.844 410.973 158.275 415.198 156.195C423.333 152.127 432.317 149.855 441.208 147.623C442.841 147.217 444.695 146.839 446.113 147.728C447.531 148.617 447.856 150.273 448.083 151.796C452.11 177.539 446.148 204.229 434.02 227.631C431.887 231.751 429.505 235.859 425.989 239.014C422.781 241.891 418.783 243.832 414.785 245.587C400.007 252.07 384.448 256.604 368.5 259.074" fill="#FFD240"/>
<path d="M369.778 258.964C367.475 249.935 366.556 240.608 367.053 231.303C368.051 212.441 374.57 194.289 385.8 179.102C388.798 175.063 392.128 171.228 396.341 168.415C398.561 166.939 400.914 165.678 403.227 164.348C405.54 163.017 407.969 161.523 410.351 160.129C414.982 157.382 419.879 155.11 424.966 153.347C430.057 151.604 435.269 150.262 440.488 148.954C442.231 148.512 445.061 147.461 446.212 149.494C446.624 150.363 446.877 151.297 446.961 152.255C447.159 153.522 447.329 154.794 447.473 156.073C448.043 161.15 448.251 166.261 448.094 171.367C447.741 181.664 446.082 191.875 443.155 201.754C441.699 206.717 439.968 211.596 437.971 216.368C436.02 221.113 433.776 225.732 431.254 230.199C430.064 232.36 428.652 234.391 427.041 236.26C425.378 238.099 423.453 239.683 421.329 240.961C416.906 243.663 411.967 245.61 407.149 247.469C397.041 251.399 386.61 254.438 375.973 256.552C373.381 257.067 370.778 257.528 368.163 257.935C368.016 257.976 367.878 258.045 367.757 258.138C367.636 258.232 367.535 258.349 367.46 258.481C367.384 258.614 367.336 258.76 367.317 258.912C367.298 259.064 367.309 259.217 367.349 259.365C367.439 259.657 367.636 259.905 367.902 260.056C368.168 260.207 368.482 260.251 368.779 260.178C379.78 258.468 390.606 255.781 401.129 252.147C406.307 250.358 411.421 248.347 416.418 246.098C421.189 243.954 425.774 241.374 429.203 237.323C432.631 233.273 434.921 228.566 437.158 223.888C439.468 219.057 441.51 214.102 443.277 209.047C446.809 199.015 449.083 188.584 450.047 177.992C450.51 172.775 450.605 167.532 450.332 162.302C450.192 159.67 449.954 157.037 449.611 154.422C449.321 152.156 449.233 149.454 447.717 147.6C445.973 145.45 443.068 145.938 440.685 146.531C438.006 147.199 435.333 147.879 432.666 148.605C427.315 150.001 422.08 151.811 417.011 154.021C411.92 156.346 407.254 159.379 402.425 162.157C400.054 163.517 397.637 164.801 395.353 166.306C393.108 167.788 391.034 169.515 389.17 171.455C385.701 175.155 382.608 179.19 379.936 183.501C377.349 187.572 375.069 191.829 373.114 196.239C369.184 205.11 366.567 214.507 365.345 224.132C364.137 233.643 364.368 243.281 366.03 252.723C366.437 255.047 366.937 257.313 367.518 259.574C367.896 261.027 370.139 260.411 369.761 258.958" fill="#AB8935"/>
<path d="M385.166 261.742C387.758 251.938 392.61 242.902 397.427 233.97C398.841 231.216 400.416 228.548 402.146 225.98C404.227 223.07 406.609 220.388 409.253 217.978C419.713 208.274 433.026 201.94 446.909 198.674C460.792 195.408 475.261 195.117 489.458 196.512C489.915 196.51 490.363 196.646 490.742 196.901C490.948 197.119 491.109 197.375 491.215 197.656C491.321 197.936 491.369 198.235 491.358 198.534C492.154 208.628 486.215 217.879 480.532 226.253L471.815 239.038C466.004 247.626 459.873 256.471 450.971 261.835C447.124 264.159 442.87 265.722 438.599 267.117C430.463 269.767 422.142 271.81 413.704 273.23C406.731 274.392 399.386 275.113 392.709 272.771C390.309 271.934 387.961 270.633 386.526 268.535C385.09 266.437 384.823 263.404 386.404 261.41" fill="#FFD240"/>
<path d="M386.282 262.056C388.781 252.659 393.325 244.041 397.904 235.511C400.182 231.28 402.454 227.067 405.604 223.406C408.558 220.009 411.87 216.94 415.482 214.254C422.55 209.006 430.416 204.93 438.779 202.184C447.917 199.202 457.418 197.477 467.021 197.059C472.055 196.811 477.098 196.828 482.13 197.111C483.389 197.181 484.644 197.264 485.895 197.361C487.127 197.454 488.406 197.489 489.62 197.692C489.975 197.75 490.039 197.791 490.12 198.093C490.216 198.569 490.259 199.054 490.248 199.54C490.288 200.649 490.249 201.76 490.132 202.864C489.684 207.228 488.017 211.412 485.983 215.265C483.733 219.334 481.257 223.274 478.568 227.067C475.697 231.305 472.822 235.538 469.944 239.764C467.509 243.344 465.028 246.906 462.25 250.224C459.576 253.534 456.502 256.499 453.098 259.051C449.266 261.708 445.064 263.786 440.627 265.217C431.101 268.53 421.289 270.954 411.316 272.458C406.667 273.149 401.838 273.544 397.183 272.731C394.995 272.395 392.873 271.716 390.896 270.72C389.269 269.86 387.682 268.605 386.967 266.85C386.614 266.072 386.473 265.214 386.558 264.364C386.644 263.513 386.954 262.701 387.456 262.009C387.533 261.877 387.583 261.731 387.604 261.58C387.625 261.428 387.616 261.274 387.577 261.126C387.538 260.978 387.47 260.84 387.378 260.718C387.285 260.596 387.169 260.494 387.037 260.417C386.769 260.27 386.454 260.231 386.158 260.309C385.862 260.387 385.606 260.575 385.445 260.835C384.831 261.715 384.43 262.725 384.275 263.786C384.119 264.847 384.214 265.93 384.55 266.949C385.258 269.066 386.682 270.87 388.577 272.051C390.501 273.262 392.62 274.129 394.842 274.613C397.267 275.179 399.748 275.471 402.239 275.485C407.359 275.549 412.461 274.689 417.47 273.742C422.576 272.777 427.635 271.584 432.648 270.162C437.636 268.836 442.519 267.142 447.258 265.095C451.495 263.161 455.386 260.544 458.775 257.349C465.562 250.997 470.572 242.972 475.761 235.336C478.666 231.077 481.613 226.852 484.396 222.523C486.959 218.536 489.324 214.387 490.881 209.878C491.657 207.662 492.18 205.366 492.439 203.032C492.566 201.9 492.613 200.76 492.578 199.621C492.543 198.494 492.543 197.187 491.765 196.28C490.905 195.28 489.44 195.339 488.237 195.228C487.034 195.118 485.663 195.007 484.373 194.92C481.758 194.738 479.141 194.624 476.522 194.577C466.134 194.307 455.755 195.382 445.642 197.773C436.705 199.921 428.153 203.435 420.288 208.193C412.275 213.097 404.72 219.484 399.723 227.532C398.404 229.659 397.23 231.867 396.044 234.07C394.859 236.272 393.679 238.463 392.558 240.677C390.185 245.165 388.083 249.791 386.264 254.53C385.422 256.791 384.678 259.092 384.056 261.428C383.673 262.875 385.916 263.497 386.299 262.05" fill="#AB8935"/>
<path d="M390.57 278.198C393.045 273.867 396.601 270.251 400.891 267.704C405.15 265.24 409.892 264.107 414.286 261.991C417.627 260.382 420.742 258.214 424.071 256.581C434.845 251.281 447.264 251.892 458.549 255.587C469.834 259.283 480.218 265.844 490.51 272.358L508.879 283.98C504.607 291.57 496.036 293.72 488.952 297.637C485.588 299.496 482.45 301.861 479.271 304.116C476.092 306.371 472.699 308.637 469.34 310.741C465.981 312.844 462.43 314.913 458.7 316.145C455.1 317.236 451.367 317.823 447.606 317.888C436.85 318.341 425.797 316.598 416.226 310.845C410.508 307.399 405.464 302.605 400.99 297.247C395.76 291.006 391.111 283.649 389.734 275.136" fill="#FFD240"/>
<path d="M391.558 278.792C393.482 275.433 396.077 272.507 399.182 270.197C402.559 267.733 406.464 266.373 410.334 264.897C412.416 264.13 414.446 263.229 416.412 262.201C418.353 261.166 420.219 260.004 422.13 258.923C425.741 256.849 429.667 255.381 433.753 254.577C441.888 253.014 450.39 254.152 458.206 256.709C466.539 259.429 474.262 263.683 481.717 268.25C489.632 273.085 497.407 278.129 505.252 283.103L508.251 284.998L507.833 283.411C503.765 290.611 495.292 292.831 488.47 296.568C483.821 299.125 479.631 302.507 475.238 305.494C470.845 308.48 466.44 311.479 461.663 313.716C456.887 315.953 451.755 316.622 446.555 316.79C441.697 316.951 436.837 316.561 432.067 315.628C427.251 314.699 422.605 313.042 418.289 310.712C414.094 308.336 410.247 305.39 406.859 301.96C400.234 295.4 394.127 287.433 391.628 278.332C391.312 277.184 391.056 276.021 390.861 274.846C390.821 274.698 390.752 274.561 390.658 274.44C390.564 274.319 390.448 274.218 390.315 274.143C390.182 274.067 390.036 274.018 389.884 274C389.733 273.981 389.579 273.992 389.431 274.032C389.284 274.073 389.146 274.142 389.025 274.235C388.905 274.329 388.804 274.446 388.728 274.578C388.653 274.711 388.604 274.857 388.585 275.009C388.566 275.161 388.577 275.314 388.618 275.462C390.257 285.224 396.05 293.697 402.599 300.874C405.96 304.616 409.766 307.933 413.931 310.753C418.201 313.572 422.893 315.693 427.831 317.034C432.733 318.346 437.779 319.047 442.853 319.121C448.083 319.237 453.534 318.981 458.543 317.412C463.686 315.814 468.3 312.821 472.786 309.91C475.11 308.411 477.392 306.861 479.631 305.261C481.898 303.657 484.129 302.001 486.453 300.49C490.155 298.084 494.176 296.422 498.122 294.447C501.777 292.645 505.392 290.472 508.001 287.264C508.688 286.418 509.306 285.519 509.849 284.574C509.927 284.442 509.977 284.296 509.999 284.145C510.02 283.994 510.011 283.84 509.973 283.692C509.934 283.544 509.867 283.405 509.775 283.283C509.683 283.161 509.568 283.059 509.436 282.981C501.382 277.873 493.357 272.719 485.256 267.687C477.615 262.933 469.758 258.389 461.286 255.303C453.29 252.368 444.596 250.805 436.089 251.863C431.816 252.378 427.655 253.585 423.769 255.437C419.754 257.366 416.133 260.01 412.019 261.748C407.998 263.444 403.75 264.653 399.984 266.89C396.521 269.002 393.527 271.8 391.186 275.113C390.605 275.921 390.065 276.758 389.565 277.612C388.804 278.908 390.814 280.082 391.576 278.774" fill="#AB8935"/>
<path d="M374.886 320.486C388.679 310.426 404.318 303.181 420.91 299.165C424.286 298.346 427.738 297.666 431.213 297.764C433.893 297.892 436.551 298.313 439.139 299.02C446.973 301.001 454.487 304.064 461.971 307.12C469.27 310.096 476.667 313.135 482.891 317.987C487.831 321.851 491.852 326.739 495.832 331.579L504.549 342.179C501.336 342.277 498.261 343.457 495.251 344.637C481.235 350.157 467.277 356.044 452.575 359.379C447.211 360.594 441.72 361.471 436.222 361.175C424.757 360.547 414.233 354.922 404.186 349.361C391.674 342.44 378.507 334.7 372.12 321.904" fill="#FFD240"/>
<path d="M375.473 321.491C382.98 316.018 391.051 311.364 399.549 307.609C403.81 305.73 408.171 304.085 412.612 302.681C417.158 301.14 421.822 299.974 426.559 299.194C429.025 298.826 431.532 298.813 434.003 299.154C436.49 299.548 438.948 300.109 441.359 300.833C446.205 302.259 450.976 303.927 455.655 305.831C460.176 307.626 464.708 309.422 469.136 311.415C473.437 313.265 477.528 315.57 481.34 318.289C485.146 321.108 488.406 324.606 491.468 328.168C494.763 332.033 497.948 336.002 501.167 339.924L503.678 342.981C503.957 342.318 504.23 341.656 504.503 340.993C501.928 341.163 499.396 341.738 497.001 342.696C494.577 343.591 492.183 344.573 489.777 345.532C484.989 347.432 480.201 349.327 475.372 351.116C465.685 354.696 455.666 358.049 445.41 359.519C440.363 360.288 435.221 360.174 430.214 359.182C425.493 358.146 420.907 356.571 416.546 354.487C412.13 352.435 407.858 350.076 403.605 347.711C399.88 345.636 396.178 343.521 392.61 341.197C385.637 336.67 379.018 331.248 374.654 324.083C374.108 323.184 373.598 322.262 373.126 321.317C372.452 319.981 370.447 321.154 371.115 322.479C374.991 330.191 381.366 336.188 388.339 341.075C391.907 343.597 395.655 345.852 399.456 348.013C403.523 350.338 407.632 352.616 411.822 354.737C420.835 359.293 430.475 362.826 440.732 362.291C446.078 362.018 451.366 360.902 456.544 359.577C461.605 358.276 466.585 356.701 471.513 354.969C476.441 353.237 481.334 351.355 486.204 349.431L493.444 346.56C495.845 345.543 498.303 344.668 500.807 343.94C502.014 343.61 503.253 343.415 504.503 343.359C504.734 343.36 504.96 343.292 505.152 343.165C505.344 343.037 505.494 342.855 505.583 342.642C505.671 342.429 505.694 342.194 505.649 341.968C505.604 341.741 505.492 341.534 505.328 341.371C501.969 337.303 498.628 333.195 495.257 329.121C492.177 325.391 489.005 321.701 485.332 318.539C477.929 312.147 468.735 308.661 459.798 305.017C455.039 303.082 450.256 301.193 445.363 299.624C440.47 298.055 435.42 296.544 430.301 296.591C425.298 296.632 420.312 298.009 415.529 299.369C401.833 303.289 388.862 309.4 377.118 317.464C376.159 318.127 375.218 318.795 374.276 319.481C374.017 319.643 373.83 319.898 373.752 320.194C373.674 320.49 373.712 320.804 373.858 321.073C373.935 321.205 374.037 321.321 374.159 321.414C374.28 321.506 374.419 321.574 374.567 321.613C374.715 321.652 374.869 321.661 375.021 321.64C375.172 321.619 375.318 321.569 375.45 321.491" fill="#AB8935"/>
<path d="M321.035 340.557C315.764 349.901 308.791 358.165 302.835 367.091C296.878 376.016 291.823 385.977 291.149 396.686C290.998 400.387 291.131 404.094 291.544 407.774C292.179 414.771 292.94 421.744 293.827 428.694C294.15 431.802 294.709 434.882 295.501 437.905C297.669 445.459 302.591 452.31 302.742 460.149C303.875 454.966 307.832 450.852 312.161 447.783C316.491 444.715 321.349 442.431 325.527 439.2C328.359 436.927 331.007 434.434 333.448 431.745C336.4 428.624 339.323 425.451 341.699 421.866C347.969 412.452 350.056 400.946 352.002 389.8C352.775 385.407 353.542 380.967 353.321 376.516C353.002 370.072 350.625 363.906 347.789 358.112C345.308 353.028 342.362 348.019 338.021 344.387C333.301 340.472 327.296 338.447 321.169 338.703" fill="#FFD240"/>
<path d="M320.035 339.971C315.834 347.385 310.592 354.126 305.636 361.036C300.83 367.73 296.309 374.674 293.287 382.38C291.782 386.166 290.753 390.125 290.225 394.165C289.643 398.61 289.963 403.085 290.364 407.53C290.751 412.098 291.216 416.663 291.759 421.227C292.276 425.748 292.712 430.321 293.578 434.796C294.362 438.864 295.902 442.658 297.564 446.453C299.115 449.992 300.696 453.583 301.335 457.419C301.48 458.316 301.562 459.223 301.579 460.132C301.614 461.405 303.567 461.765 303.869 460.44C304.874 455.948 308.041 452.357 311.609 449.608C315.758 446.406 320.553 444.175 324.824 441.153C329.246 438.027 332.959 434.023 336.603 430.042C340.246 426.062 343.396 421.907 345.72 417.119C350.247 407.745 351.979 397.233 353.629 387.04C354.139 384.194 354.433 381.313 354.507 378.423C354.519 375.612 354.192 372.81 353.531 370.078C352.299 364.848 350.044 359.874 347.574 355.149C345.25 350.75 342.414 346.433 338.515 343.306C334.577 340.137 329.81 338.172 324.783 337.646C323.577 337.521 322.363 337.486 321.151 337.542C319.658 337.6 319.652 339.93 321.151 339.866C325.963 339.665 330.723 340.929 334.801 343.492C338.869 346.066 341.914 349.931 344.32 354.074C346.945 358.501 349.051 363.216 350.596 368.125C351.384 370.638 351.888 373.23 352.101 375.854C352.268 378.672 352.137 381.501 351.712 384.292C350.991 389.522 350.021 394.705 348.905 399.842C347.929 404.718 346.479 409.486 344.576 414.079C342.522 418.743 339.751 423.057 336.365 426.864C334.621 428.869 332.779 430.81 330.925 432.721C329.102 434.654 327.149 436.459 325.079 438.126C317.525 444.041 307.013 447.243 302.753 456.57C302.264 457.627 301.884 458.731 301.62 459.865L303.91 460.173C303.712 452.183 298.982 445.465 296.739 438.015C295.466 433.779 295.048 429.299 294.519 424.952C293.973 420.415 293.481 415.881 293.043 411.348C292.607 406.804 292.084 402.225 292.264 397.651C292.461 393.641 293.218 389.678 294.513 385.878C297.058 378.167 301.364 371.176 305.996 364.563C310.836 357.654 316.101 351.035 320.495 343.823C321.029 342.94 321.558 342.045 322.063 341.144C322.801 339.837 320.797 338.663 320.059 339.982" fill="#AB8935"/>
<path d="M347.807 338.14C347.935 346.612 346.941 355.063 344.849 363.273C343.797 367.399 342.472 371.473 341.827 375.668C339.578 390.382 346.104 405.357 356.297 416.625C358.786 419.462 361.612 421.985 364.711 424.139C368.227 426.504 372.178 428.206 376.101 429.915L395.44 438.289C396.182 438.669 396.992 438.9 397.823 438.969C400.31 439.015 401.821 436.429 402.617 434.198C406.83 422.419 407.411 409.791 406.818 397.361C406.528 391.277 405.941 385.1 403.599 379.434C401.96 375.477 399.531 371.88 396.835 368.445C384.591 352.755 366.78 340.436 346.47 336.99" fill="#FFD240"/>
<path d="M346.644 338.14C346.722 342.985 346.427 347.828 345.761 352.627C345.037 357.464 343.998 362.249 342.652 366.952C341.438 371.385 340.363 375.843 340.235 380.462C340.144 384.627 340.639 388.784 341.705 392.811C343.843 401.022 348.097 408.594 353.461 415.12C356.279 418.633 359.534 421.771 363.148 424.458C366.937 427.201 371.243 429.072 375.514 430.92L389.274 436.876L392.808 438.411C393.9 438.881 394.993 439.422 396.12 439.811C397.07 440.153 398.101 440.198 399.077 439.94C400.053 439.681 400.927 439.132 401.582 438.364C402.931 436.859 403.61 434.953 404.232 433.064C404.963 430.846 405.582 428.592 406.086 426.312C407.081 421.71 407.711 417.037 407.969 412.336C408.23 407.633 408.248 402.92 408.021 398.215C407.818 393.566 407.475 388.836 406.376 384.269C404.285 375.645 398.822 368.422 392.895 361.995C387.498 356.097 381.34 350.944 374.584 346.671C367.763 342.348 360.314 339.108 352.502 337.065C350.613 336.577 348.701 336.176 346.772 335.845C346.475 335.772 346.161 335.816 345.896 335.967C345.63 336.119 345.432 336.366 345.343 336.658C345.302 336.806 345.291 336.96 345.31 337.111C345.329 337.263 345.377 337.409 345.453 337.542C345.529 337.675 345.63 337.791 345.75 337.885C345.871 337.979 346.009 338.048 346.156 338.088C353.855 339.417 361.292 341.967 368.186 345.642C375.025 349.295 381.334 353.864 386.938 359.223C389.725 361.877 392.343 364.703 394.778 367.684C397.546 370.941 399.92 374.515 401.85 378.33C403.773 382.339 404.72 386.762 405.197 391.166C405.653 395.698 405.868 400.251 405.842 404.805C405.842 413.94 404.964 423.133 402.158 431.867C401.629 433.529 401.112 435.354 399.978 436.627C399.55 437.195 398.931 437.589 398.235 437.737C398.026 437.777 398.369 437.737 398.148 437.737C398.032 437.737 397.916 437.737 397.805 437.737C397.609 437.731 397.414 437.704 397.224 437.655C396.708 437.501 396.205 437.307 395.719 437.074L382.26 431.327C377.925 429.45 373.509 427.695 369.325 425.516C365.414 423.444 361.859 420.76 358.795 417.566C352.989 411.711 348.458 404.717 345.488 397.024C342.646 389.406 341.734 381.241 343.454 373.257C344.459 368.573 345.97 364.023 346.941 359.31C347.911 354.614 348.538 349.854 348.818 345.067C348.953 342.743 349.004 340.418 348.969 338.094C348.969 336.594 346.644 336.594 346.644 338.094" fill="#AB8935"/>
<path d="M271.269 318.777C261.154 317.766 251.017 316.991 240.859 316.453C238.169 316.307 235.472 316.18 232.776 316.22C213.437 316.511 194.83 325.698 181.104 339.319C175.601 344.776 170.743 350.982 164.42 355.463C165.048 356.724 166.373 357.456 167.628 358.095C180.838 364.834 194.766 370.06 209.148 373.674C212.027 374.449 214.955 375.031 217.911 375.418C223.384 376.007 228.92 375.488 234.187 373.89C239.455 372.293 244.347 369.65 248.571 366.12C252.057 363.156 255.05 359.629 258.136 356.241C262.697 351.232 267.537 346.484 272.634 342.022C276.255 338.854 280.27 335.362 280.84 330.585C281.241 327.244 279.788 323.897 277.638 321.288C275.488 318.678 272.692 316.743 269.926 314.82" fill="#FFD240"/>
<path d="M271.269 317.616C262.459 316.74 253.63 316.037 244.782 315.506C240.441 315.245 236.065 314.925 231.73 315.076C228.058 315.196 224.402 315.618 220.799 316.337C213.622 317.791 206.695 320.288 200.24 323.746C193.744 327.213 187.728 331.511 182.342 336.531C176.728 341.761 172.009 347.88 166.07 352.755C165.346 353.356 164.598 353.937 163.827 354.499C163.567 354.66 163.379 354.915 163.301 355.211C163.223 355.507 163.262 355.822 163.409 356.091C164.606 358.345 167.395 359.339 169.557 360.403C172.087 361.646 174.64 362.837 177.216 363.976C182.407 366.254 187.682 368.315 193.04 370.159C198.398 372.003 203.771 373.59 209.16 374.919C214.39 376.226 219.701 377.133 225.123 376.755C235.346 376.059 244.967 371.668 252.191 364.401C256.131 360.507 259.646 356.207 263.528 352.255C265.512 350.225 267.546 348.246 269.63 346.317C271.548 344.573 273.535 342.83 275.441 341.087C278.928 337.914 282.321 333.91 282.013 328.883C281.676 323.398 277.765 319.243 273.605 316.099C272.582 315.326 271.53 314.594 270.473 313.862C270.207 313.707 269.89 313.665 269.593 313.743C269.296 313.821 269.041 314.015 268.886 314.28C268.809 314.412 268.758 314.557 268.736 314.708C268.715 314.86 268.724 315.014 268.762 315.162C268.801 315.309 268.868 315.448 268.96 315.57C269.052 315.692 269.167 315.795 269.299 315.872C273.221 318.598 277.579 321.625 279.178 326.367C279.922 328.482 279.868 330.797 279.026 332.875C278.124 334.83 276.844 336.588 275.261 338.047C273.518 339.791 271.641 341.331 269.822 342.969C267.823 344.771 265.864 346.617 263.947 348.507C260.106 352.302 256.561 356.358 252.906 360.31C249.5 363.976 245.81 367.231 241.4 369.636C237.211 371.908 232.655 373.425 227.941 374.117C223.051 374.783 218.082 374.566 213.268 373.478C207.932 372.293 202.658 370.84 197.468 369.125C192.308 367.475 187.219 365.613 182.202 363.541C177.28 361.501 172.358 359.316 167.674 356.794C166.752 356.389 165.973 355.717 165.437 354.865L165.019 356.457C171.341 351.947 176.199 345.869 181.65 340.418C186.777 335.274 192.556 330.824 198.839 327.181C205.053 323.559 211.759 320.858 218.748 319.161C222.207 318.325 225.729 317.777 229.278 317.523C233.41 317.307 237.552 317.349 241.679 317.65C250.484 318.135 259.278 318.791 268.061 319.62L271.269 319.94C271.577 319.94 271.873 319.817 272.09 319.6C272.308 319.382 272.431 319.086 272.431 318.778C272.431 318.469 272.308 318.174 272.09 317.956C271.873 317.738 271.577 317.616 271.269 317.616Z" fill="#AB8935"/>
<path d="M283.722 278.03C270.129 277.788 256.642 275.586 243.678 271.492C237.983 269.697 232.346 267.5 227.442 264.089C223.106 261.073 219.457 257.174 216.127 253.048C207.498 242.425 200.751 230.117 197.573 216.804C195.911 209.86 195.248 202.724 193.975 195.692C192.953 189.939 191.546 184.256 190.14 178.584C206.854 180.378 223.344 183.863 239.354 188.986C244.241 190.55 249.117 192.287 253.522 194.908C269.072 204.177 276.185 222.586 282.217 239.653C284.018 244.744 285.831 249.881 286.465 255.244C286.959 259.475 286.709 263.752 286.465 268.029C286.226 272.097 285.593 276.827 282.072 278.855" fill="#FFD240"/>
<path d="M283.722 276.868C273.366 276.675 263.064 275.334 253.004 272.87C248.043 271.697 243.161 270.208 238.39 268.413C233.936 266.78 229.763 264.467 226.018 261.556C222.324 258.474 218.986 254.991 216.063 251.171C213.198 247.546 210.584 243.729 208.242 239.746C203.399 231.621 199.954 222.74 198.049 213.475C197.003 208.285 196.375 203.015 195.527 197.785C194.679 192.555 193.499 187.296 192.232 182.095C191.918 180.822 191.604 179.544 191.285 178.271C190.913 178.759 190.541 179.253 190.163 179.741C201.792 180.999 213.317 183.079 224.652 185.965C230.266 187.394 235.839 189.004 241.33 190.846C246.397 192.543 251.337 194.594 255.707 197.703C263.017 202.898 268.253 210.435 272.286 218.338C274.373 222.499 276.239 226.766 277.876 231.123C279.666 235.772 281.363 240.473 282.92 245.215C283.845 247.984 284.564 250.818 285.07 253.693C285.51 256.549 285.676 259.441 285.564 262.328C285.5 265.013 285.407 267.733 285.099 270.406C284.878 272.323 284.425 274.445 283.356 276.101C282.876 276.813 282.243 277.409 281.502 277.844C280.212 278.605 281.38 280.616 282.664 279.855C286.796 277.42 287.395 272.167 287.65 267.831C287.825 264.821 287.993 261.805 287.894 258.789C287.788 255.732 287.366 252.694 286.633 249.724C285.343 244.448 283.373 239.328 281.508 234.232C279.846 229.705 278.079 225.207 276.045 220.826C272.152 212.417 267.149 204.235 260.018 198.162C256.01 194.818 251.473 192.163 246.595 190.306C241.079 188.206 235.454 186.408 229.743 184.919C218.199 181.758 206.444 179.427 194.568 177.946C193.112 177.76 191.647 177.589 190.175 177.434C189.396 177.347 188.891 178.242 189.053 178.904C190.367 184.198 191.674 189.492 192.68 194.85C193.656 200.08 194.283 205.385 195.178 210.639C195.982 215.595 197.21 220.473 198.851 225.219C200.451 229.698 202.406 234.043 204.697 238.212C206.984 242.387 209.563 246.395 212.414 250.206C215.267 254.141 218.468 257.811 221.979 261.172C225.584 264.494 229.706 267.206 234.182 269.203C238.888 271.244 243.745 272.914 248.71 274.2C258.901 276.98 269.369 278.621 279.921 279.093C281.194 279.151 282.473 279.192 283.745 279.21C285.244 279.239 285.244 276.914 283.745 276.885" fill="#AB8935"/>
<g opacity="0.5">
<g opacity="0.5">
<path opacity="0.5" d="M438.291 298.921C438.292 318.944 432.356 338.518 421.232 355.166C410.109 371.815 394.298 384.792 375.8 392.455C357.301 400.118 336.946 402.123 317.308 398.217C297.669 394.311 279.63 384.669 265.472 370.511C251.314 356.353 241.672 338.314 237.766 318.675C233.86 299.037 235.865 278.682 243.528 260.183C251.191 241.685 264.168 225.874 280.817 214.751C297.465 203.627 317.039 197.691 337.062 197.692C363.909 197.693 389.656 208.359 408.64 227.343C427.624 246.327 438.29 272.074 438.291 298.921Z" fill="#D3AA34"/>
</g>
</g>
<path d="M423.113 496.44C423.113 519.458 381.389 523.072 356.465 518.993C317.101 512.548 327.898 525.199 287.447 522.09C268.16 520.608 244.642 514.815 244.642 496.44C244.642 488.502 248.478 483.778 252.057 481.076C257.194 484.086 256.189 482.819 267.985 483.696C277.632 484.429 285.349 480.274 291.759 473.422C301.085 473.422 318.693 441.723 319.739 417.334C320.134 408.106 320.32 399.215 320.454 392.073C320.611 382.578 320.587 376.168 320.587 376.168L355.071 373.402C355.071 373.402 354.809 379.44 354.606 388.569C354.466 394.746 354.356 402.335 354.385 410.436C354.449 438.05 372.98 471.545 380.047 474.771C386.084 477.531 383.533 477.136 389.925 476.363C390.216 476.392 389.646 476.363 389.925 476.363C407.678 477.357 423.136 481.238 423.136 496.458" fill="#4F735F"/>
<path d="M423.113 496.44C423.113 519.458 381.389 523.072 356.465 518.993C317.101 512.548 327.898 525.199 287.447 522.09C268.16 520.608 244.642 514.815 244.642 496.44C244.642 488.502 248.478 483.778 252.057 481.076C257.194 484.086 256.189 482.819 267.985 483.696C277.632 484.429 285.349 480.274 291.759 473.422C301.085 473.422 318.693 441.723 319.739 417.334C320.134 408.106 320.32 399.215 320.454 392.073C320.611 382.578 320.587 376.168 320.587 376.168L355.07 373.402C355.07 373.402 354.809 379.44 354.606 388.569C354.466 394.746 354.356 402.335 354.385 410.436C354.449 438.05 372.98 471.545 380.047 474.771C386.084 477.531 383.533 477.136 389.925 476.363C390.216 476.392 389.646 476.363 389.925 476.363C407.655 477.339 423.113 481.221 423.113 496.44Z" stroke="#335137" stroke-width="2" stroke-miterlimit="10"/>
<path d="M385.288 476.165C386.544 478.008 388.171 479.569 390.065 480.746C391.96 481.922 394.08 482.69 396.288 482.999C403.953 484.161 414.495 481.767 414.495 481.767C414.495 481.767 406.568 475.601 385.288 476.165Z" fill="#335137"/>
<path d="M324.551 518.72C324.551 518.72 346.708 511.938 346.708 496.178C346.708 474.404 332.25 480.151 316.055 490.605C299.859 501.06 289.056 494.609 289.056 494.609" stroke="#335137" stroke-width="2" stroke-miterlimit="10"/>
<path d="M252.057 481.076C252.057 481.076 255.678 486.968 271.908 486.131C289.922 485.201 291.759 473.422 291.759 473.422L252.057 481.076Z" fill="#335137"/>
<path d="M288.818 495.086C288.237 494.569 287.848 494.342 288.121 492.692C288.365 491.228 290.695 490.367 291.997 489.676C298.906 485.91 306.896 484.446 314.765 484.365C318.798 484.312 322.9 484.591 326.823 483.743C329.333 483.202 331.727 482.215 334.232 481.651C336.736 481.087 339.462 480.988 341.757 482.151C342.919 482.732 343.913 483.632 345.046 484.283C348.341 486.16 352.397 485.806 356.175 485.492C364.86 484.778 373.582 484.602 382.29 484.963C383.184 485.004 384.172 485.085 384.788 485.736C385.509 486.491 385.369 487.776 384.788 488.642C384.178 489.587 383.344 490.368 382.359 490.914C377.129 493.285 371.173 493.488 365.455 493.075C359.737 492.663 354.152 491.216 348.678 489.525C347.888 489.341 347.15 488.977 346.522 488.461C345.697 487.671 345.465 486.462 344.977 485.428C343.727 482.801 340.758 481.36 337.864 481.058C334.034 480.663 330.205 481.924 326.823 483.714C323.441 485.504 320.32 487.822 317.008 489.781C311.662 492.93 308.744 495.173 302.637 496.266C299.865 496.76 291.544 496.179 288.841 495.103" fill="#335137"/>
<path d="M306.763 417.275C312.835 405.595 316.212 397.378 320.454 392.073C320.343 399.215 320.134 408.106 319.739 417.339C312.278 435.017 304.63 459.662 291.759 473.422C285.366 480.273 277.632 484.428 267.985 483.696C256.189 482.801 248.048 480.791 243.143 477.426C229.313 467.902 233.067 460.173 237.791 459.08C243.829 457.68 255.468 466.484 269.171 461.376C282.873 456.268 294.687 440.502 306.763 417.275Z" fill="#40B87E"/>
<path d="M306.763 417.275C312.835 405.595 316.212 397.378 320.454 392.073C320.343 399.215 320.134 408.106 319.739 417.339C312.278 435.017 304.63 459.662 291.759 473.422C285.366 480.273 277.632 484.428 267.985 483.696C256.189 482.801 248.048 480.791 243.143 477.426C229.313 467.902 233.067 460.173 237.791 459.08C243.829 457.68 255.468 466.484 269.171 461.376C282.873 456.268 294.687 440.502 306.763 417.275Z" stroke="#335137" stroke-width="2" stroke-miterlimit="10"/>
<path d="M406.865 480.558H406.824L405.964 480.511C365.519 480.511 371.504 437.085 354.385 414.637C354.385 406.536 354.466 398.947 354.606 392.77C358.345 395.485 361.18 399.263 362.741 403.613C369.244 420.564 376.688 459.167 403.146 458.185C429.604 457.203 430.551 448.434 435.688 454.472C440.825 460.509 428.9 480.703 406.894 480.558" fill="#40B87E"/>
<path d="M406.865 480.558H406.824L405.964 480.511C365.519 480.511 371.504 437.085 354.385 414.637C354.385 406.536 354.466 398.947 354.606 392.77C358.345 395.485 361.18 399.263 362.741 403.613C369.244 420.564 376.688 459.167 403.146 458.185C429.604 457.203 430.551 448.434 435.688 454.472C440.825 460.509 428.871 480.703 406.865 480.558Z" stroke="#335137" stroke-width="2" stroke-miterlimit="10"/>
<path d="M429.563 298.944C429.564 317.145 424.168 334.938 414.056 350.072C403.945 365.206 389.573 377.002 372.757 383.968C355.942 390.934 337.438 392.757 319.587 389.206C301.735 385.656 285.337 376.891 272.467 364.021C259.597 351.151 250.832 334.753 247.282 316.901C243.731 299.05 245.554 280.546 252.52 263.731C259.486 246.915 271.282 232.543 286.416 222.432C301.55 212.32 319.343 206.924 337.544 206.925C349.628 206.925 361.594 209.305 372.758 213.93C383.922 218.554 394.066 225.332 402.611 233.877C411.156 242.422 417.934 252.566 422.558 263.73C427.183 274.894 429.563 286.86 429.563 298.944Z" fill="#AB8935"/>
<path d="M426.971 298.921C426.971 316.703 421.698 334.086 411.819 348.872C401.939 363.657 387.897 375.181 371.469 381.986C355.04 388.791 336.962 390.572 319.521 387.103C302.081 383.633 286.06 375.07 273.486 362.496C260.912 349.922 252.349 333.902 248.88 316.461C245.411 299.021 247.192 280.943 253.997 264.514C260.802 248.085 272.325 234.044 287.111 224.164C301.896 214.285 319.279 209.012 337.062 209.012C360.907 209.012 383.776 218.484 400.637 235.346C417.498 252.207 426.971 275.076 426.971 298.921Z" fill="#E7D173"/>
<path d="M421.776 302.152C421.776 347.478 383.516 384.227 336.353 384.227C289.19 384.227 250.872 347.478 250.872 302.152C250.872 256.825 289.132 220.076 336.353 220.076C383.574 220.076 421.776 256.825 421.776 302.152Z" fill="#F8E77D"/>
<path d="M373.724 296.504C375.599 296.214 377.453 295.8 379.274 295.266L380.575 294.807L381.226 294.586L381.848 294.313C382.266 294.127 382.679 293.947 383.097 293.772L384.26 293.139L384.841 292.819C385.038 292.709 385.224 292.581 385.422 292.459L386.584 291.727C386.956 291.471 387.311 291.192 387.677 290.931C388.048 290.672 388.405 290.392 388.746 290.094L389.798 289.228C390.129 288.92 390.449 288.595 390.791 288.293C391.134 287.989 391.46 287.667 391.768 287.328C392.076 286.991 392.43 286.689 392.721 286.334C393.981 284.952 395.157 283.495 396.242 281.97C397.373 280.398 398.422 278.769 399.386 277.089C399.248 279.184 398.811 281.248 398.09 283.22C397.422 285.142 396.527 286.978 395.423 288.688C395.376 288.769 395.324 288.845 395.272 288.92C395.812 289.1 396.335 289.304 396.847 289.53C397.678 289.891 398.485 290.309 399.27 290.739L400.432 291.419L401.594 292.128L400.368 291.837L399.154 291.599C398.363 291.46 397.566 291.361 396.765 291.303C396.024 291.247 395.279 291.259 394.54 291.338C394.21 291.376 393.883 291.44 393.563 291.529L393.209 291.663L392.686 292.273L391.617 293.337C391.262 293.687 390.888 294.017 390.495 294.325C391.076 294.813 391.657 295.307 392.238 295.83C392.994 296.544 393.726 297.271 394.423 298.032C395.121 298.793 395.777 299.572 396.411 300.356C395.586 299.775 394.766 299.241 393.924 298.747C393.081 298.253 392.238 297.794 391.39 297.375C390.542 296.957 389.681 296.573 388.827 296.213L388.246 295.992L388.078 296.103C387.863 296.242 387.665 296.393 387.438 296.515L386.753 296.876L385.37 297.585C384.893 297.782 384.405 297.962 383.917 298.166L383.533 298.311C383.725 298.753 383.917 299.188 384.114 299.636C384.591 300.798 385.015 301.96 385.445 303.123C384.643 302.129 383.835 301.124 383.016 300.165C382.615 299.706 382.208 299.252 381.796 298.799C381.511 298.875 381.215 298.956 380.936 299.026C378.858 299.458 376.741 299.678 374.619 299.682C370.203 299.663 365.832 298.789 361.748 297.108C365.78 297.253 369.817 297.039 373.811 296.469" fill="#090907"/>
<path d="M259.728 295.109C259.728 295.109 272.547 270.941 297.122 267.413C297.122 267.413 269.13 266.693 259.728 295.109Z" fill="#AB8935"/>
<path d="M346.04 257.981C346.04 257.981 371.708 239.967 394.987 258.632C394.987 258.632 374.433 233.54 346.04 257.981Z" fill="#AB8935"/>
<path d="M307.815 312.676C305.782 313.573 303.698 314.349 301.574 315L299.981 315.419L299.191 315.64L298.389 315.791C297.855 315.895 297.326 316 296.791 316.116L295.181 316.319L294.38 316.418C294.112 316.453 293.833 316.459 293.56 316.476L291.921 316.581C291.34 316.581 290.823 316.581 290.271 316.581C289.719 316.581 289.167 316.581 288.621 316.581L286.959 316.517C286.413 316.47 285.86 316.412 285.303 316.372C284.745 316.331 284.198 316.267 283.641 316.192C283.083 316.116 282.531 316.075 281.979 315.965C279.743 315.629 277.526 315.179 275.337 314.617C273.111 314.036 270.897 313.391 268.654 312.612C270.413 314.237 272.381 315.621 274.506 316.726C276.62 317.872 278.845 318.798 281.148 319.492C281.258 319.533 281.363 319.556 281.473 319.591C281.096 320.048 280.747 320.528 280.427 321.026C279.915 321.809 279.443 322.618 279.015 323.45L278.434 324.693L277.882 325.948L278.835 324.978L279.817 324.048C280.475 323.456 281.163 322.9 281.88 322.38C282.557 321.878 283.279 321.438 284.036 321.067C284.383 320.897 284.743 320.751 285.111 320.631C285.262 320.591 285.413 320.55 285.547 320.527L286.511 320.695L288.336 320.904C288.917 320.98 289.545 320.997 290.149 321.021C289.957 321.759 289.783 322.502 289.649 323.252C289.463 324.275 289.306 325.303 289.219 326.326C289.132 327.349 289.086 328.372 289.074 329.383C289.428 328.436 289.8 327.5 290.236 326.599C290.672 325.699 291.125 324.827 291.619 323.978C292.113 323.13 292.654 322.311 293.217 321.526C293.345 321.34 293.485 321.166 293.624 320.986H293.868C294.176 320.986 294.478 320.986 294.792 320.933L295.716 320.806L297.57 320.538C298.151 320.41 298.779 320.259 299.383 320.114L299.865 319.998C300.01 320.469 300.162 320.933 300.324 321.398C300.754 322.63 301.231 323.822 301.701 325.013C301.701 323.729 301.731 322.444 301.8 321.183C301.829 320.602 301.876 319.969 301.928 319.353C302.259 319.242 302.596 319.138 302.922 319.022C305.2 318.136 307.389 317.037 309.459 315.738C313.534 313.191 317.058 309.857 319.826 305.929C316.016 308.513 311.996 310.774 307.809 312.687" fill="#090907"/>
<path d="M344.564 348.187C335.394 347.676 332.977 341.748 332.872 341.475C332.769 341.211 332.775 340.916 332.889 340.657C333.003 340.397 333.215 340.193 333.479 340.089C333.744 339.986 334.038 339.992 334.298 340.106C334.558 340.22 334.762 340.432 334.865 340.697C334.964 340.946 337.306 346.438 346.749 346.066C356.192 345.694 358.232 338.773 358.313 338.477C358.39 338.202 358.573 337.97 358.822 337.83C359.07 337.691 359.364 337.656 359.638 337.733C359.912 337.81 360.145 337.993 360.284 338.241C360.424 338.49 360.459 338.784 360.382 339.058C360.382 339.145 357.924 347.774 346.836 348.222C346.034 348.257 345.279 348.222 344.564 348.222" fill="#AB8935"/>
<path d="M343.355 301.414C344.938 304.626 347.344 307.361 350.329 309.34C351.793 310.369 353.635 311.118 354.495 312.78C354.836 313.55 354.985 314.39 354.932 315.23C354.878 316.069 354.623 316.884 354.187 317.604C353.153 319.411 351.392 320.573 349.666 321.671C349.497 321.791 349.287 321.842 349.082 321.811C348.876 321.781 348.69 321.673 348.562 321.509C348.437 321.34 348.384 321.128 348.415 320.92C348.445 320.712 348.557 320.525 348.725 320.399C350.137 319.515 351.63 318.603 352.589 317.208C353.333 316.139 353.705 314.529 353.002 313.35C352.52 312.686 351.889 312.144 351.16 311.769C350.428 311.316 349.707 310.863 349.01 310.357C347.595 309.336 346.294 308.168 345.128 306.87C343.814 305.414 342.727 303.769 341.903 301.989C341.478 301.065 342.955 300.501 343.379 301.408" fill="#AB8935"/>
<path d="M267.666 491.797C267.666 491.797 269.607 506.069 258.583 505.093L267.666 491.797Z" fill="#4F735F"/>
<path d="M267.666 491.797C267.666 491.797 269.607 506.069 258.583 505.093" stroke="#335137" stroke-width="2" stroke-miterlimit="10" stroke-linecap="round"/>
<path d="M409.166 503.413C407.777 504.448 399.02 500.88 399.095 495.981L409.166 503.413Z" fill="#4F735F"/>
<path d="M409.166 503.413C407.777 504.448 399.02 500.88 399.095 495.981" stroke="#335137" stroke-width="2" stroke-miterlimit="10" stroke-linecap="round"/>
</svg>
