<svg width="512" height="585" viewBox="0 0 512 585" fill="none" xmlns="http://www.w3.org/2000/svg">
<path d="M502.863 412.114C499.638 382.814 484.612 353.405 457.973 339.401C444.775 332.453 430.286 328.279 417.088 321.303C402.815 313.763 398.998 305.145 400.826 289.337C402.573 274.471 407.465 260.224 410.288 245.601C413.404 228.281 413.974 210.598 411.981 193.113C404.723 124.573 357.71 72.1122 294.487 47.9283C230.432 23.4481 158.231 40.8185 102.482 77.8754C75.6012 95.7844 52.1348 118.272 37.5656 147.519C22.9965 176.766 15.712 208.167 11.7337 240.026C3.83089 303.314 10.9542 371.637 43.2374 427.627C44.9308 430.562 46.7318 433.444 48.6134 436.244C91.8369 528.536 214.277 550.377 310.105 548.304C367.602 547.038 428.378 534.838 470.741 492.584C491.869 471.416 506.223 442.573 502.863 412.114Z" fill="#FAF0D0"/>
<path d="M185.461 377.642C182.324 379.766 179.446 382.252 176.887 385.048C152.694 411.063 88.4504 492.771 89.0149 494.387C89.5794 496.003 124.712 540.735 124.712 540.735C124.712 540.735 134.792 541.597 165.032 516.659C195.273 491.721 236.077 443.946 236.077 443.946L185.461 377.642Z" fill="#ED9996"/>
<path d="M185.461 377.642C182.324 379.766 179.446 382.252 176.887 385.048C163.446 399.456 137.776 430.83 117.75 456.415C136.781 472.923 166.457 501.47 182.72 515.043C210.89 489.163 236.211 443.946 236.211 443.946L185.461 377.642Z" fill="#FED353"/>
<path d="M175.919 387.014C173.231 384.159 259.463 320.925 335.695 335.253C435.717 354.104 453.834 534.81 453.834 534.81H252.581C252.581 534.81 229.491 441.387 175.919 387.014Z" fill="#FED353"/>
<path d="M269.328 314.3C273.279 314.543 300.67 333.825 300.67 333.825C300.67 333.825 280.268 392.292 266.828 394.985C253.388 397.678 217.771 365.631 217.771 365.631L269.328 314.3Z" fill="#ED9996"/>
<path d="M162.774 314.57C169.253 327.47 166.78 341.824 157.398 346.591C148.017 351.357 134.926 344.813 128.448 331.913C121.97 319.013 124.363 304.659 133.851 299.866C143.34 295.072 156.323 301.67 162.774 314.57Z" fill="#ED9996"/>
<path d="M286.047 261.381C298.815 297.199 288.735 355.101 237.528 378.8C209.922 391.619 173.231 373.71 147.56 329.274C110.922 265.798 133.744 233.535 173.204 213.848C212.664 194.162 268.763 213.04 286.047 261.381Z" fill="#FFB1A5"/>
<path d="M253.2 219.908C249.163 217.317 244.919 215.065 240.512 213.175C226.669 216.245 200.837 222.547 178.123 228.391L176.322 220.5L169.333 215.868C153.877 224.19 141.405 234.72 134.631 248.455V248.616C134.093 249.747 133.582 250.905 133.099 252.09V252.279C125.68 271.13 128.448 295.88 147.775 329.274C161.699 353.512 178.903 369.67 196.16 377.507C177.989 351.25 190.138 308.968 192.961 297.415C208.686 291.248 220.11 255.457 220.11 255.457C234.772 262.743 250.574 267.453 266.828 269.38C266.828 269.38 257.796 236.066 253.2 219.908Z" fill="#ED9996"/>
<path d="M288.816 284.461C286.585 285.161 236.319 263.967 215.352 238.463C215.352 238.463 209.358 270.78 192.907 284.946C176.456 299.111 179.467 261.704 179.467 261.704C179.467 261.704 137.131 323.645 103.45 313.115C69.7685 302.586 109.148 267.602 109.148 267.602C109.148 267.602 54.5005 271.534 86.4612 240.671C118.422 209.809 200.622 143.424 225.62 194.081C225.62 194.081 257.447 175.66 272.822 206.146C288.87 238.005 288.816 284.461 288.816 284.461Z" fill="#282828"/>
<path d="M222.314 188.506C194.036 148.783 117.132 211.29 86.4343 240.806C54.4737 271.534 109.121 267.737 109.121 267.737C109.121 267.737 72.8598 300.054 99.7938 311.877C99.0143 309.18 98.6073 306.389 98.5842 303.582C99.0554 294.816 102.718 286.528 108.879 280.287C115.024 274.131 121.904 268.758 129.362 264.29C126.471 265.11 123.415 265.15 120.504 264.406C117.592 263.661 114.929 262.159 112.784 260.051C110.639 257.943 109.088 255.304 108.289 252.402C107.49 249.5 107.471 246.438 108.234 243.526C109.847 237.251 114.793 232.484 119.631 228.202C134.711 214.737 151.055 202.564 169.656 194.862C186.212 187.634 204.519 185.424 222.314 188.506Z" fill="#424242"/>
<path d="M247.205 298.277C242.712 299.922 238.524 302.306 234.813 305.332C233.335 306.356 231.749 307.379 230.163 308.483C231.346 306.975 232.502 305.44 233.765 304.013C236.453 300.97 238.926 296.634 242.286 294.398C242.616 294.208 242.866 293.903 242.987 293.541C243.108 293.179 243.093 292.786 242.944 292.434C242.795 292.083 242.523 291.798 242.179 291.634C241.835 291.47 241.443 291.438 241.077 291.544C237.26 292.702 234.921 297.522 232.394 300.485C228.529 304.779 225.281 309.592 222.744 314.785C222.666 315.003 222.666 315.241 222.744 315.458C222.646 315.619 222.599 315.806 222.608 315.994C222.617 316.182 222.682 316.364 222.795 316.514C222.908 316.665 223.063 316.778 223.241 316.84C223.419 316.901 223.611 316.908 223.793 316.859C228.335 315.405 232.125 311.473 236.077 308.941C239.774 305.955 243.909 303.557 248.334 301.831C248.805 301.681 249.197 301.35 249.423 300.911C249.65 300.471 249.694 299.96 249.544 299.488C249.394 299.017 249.064 298.624 248.625 298.397C248.186 298.17 247.676 298.127 247.205 298.277Z" fill="#282828"/>
<path d="M187.827 329.193C182.214 325.514 176.378 322.186 170.355 319.229C170.174 319.118 169.971 319.047 169.761 319.021C169.55 318.995 169.336 319.015 169.134 319.079C168.932 319.143 168.746 319.251 168.589 319.393C168.431 319.536 168.307 319.711 168.223 319.906C168.139 320.101 168.098 320.312 168.103 320.525C168.108 320.737 168.158 320.946 168.251 321.138C168.343 321.329 168.476 321.498 168.64 321.633C168.803 321.768 168.994 321.867 169.199 321.922C172.772 323.216 176.226 324.82 179.521 326.716C177.774 326.339 176.026 326.042 174.145 325.746C169.602 325.073 165.005 323.592 160.463 323.349C158.984 323.349 158.662 325.261 159.764 326.042C163.51 327.946 167.634 328.986 171.833 329.086C176.913 329.705 182.021 330.055 187.128 330.594H187.37C187.541 330.611 187.712 330.569 187.856 330.475C188 330.382 188.108 330.241 188.161 330.078C188.214 329.914 188.21 329.737 188.149 329.577C188.089 329.416 187.975 329.28 187.827 329.193Z" fill="#282828"/>
<path d="M237.77 279.075C231.883 281.633 227.798 286.266 223.551 290.898C221.965 292.648 212.073 307.595 210.997 307.325C210.882 307.296 210.76 307.301 210.647 307.34C210.534 307.378 210.434 307.449 210.36 307.543C210.286 307.637 210.241 307.75 210.23 307.869C210.219 307.988 210.243 308.108 210.299 308.214L210.756 308.941C210.827 309.071 210.929 309.181 211.051 309.264C211.174 309.346 211.314 309.399 211.46 309.418C211.607 309.436 211.756 309.419 211.895 309.369C212.034 309.319 212.159 309.237 212.261 309.13C220.916 300.808 227.045 287.181 238.684 282.361C240.7 281.633 239.786 278.213 237.77 279.075Z" fill="#282828"/>
<path d="M186.617 314.57C177.612 312.361 169.306 308.456 160.462 305.44C158.608 304.821 157.774 307.783 159.656 308.349C165.624 310.18 171.483 312.523 177.316 314.704C179.494 315.539 184.977 318.205 186.913 315.701C186.99 315.615 187.045 315.511 187.072 315.398C187.099 315.285 187.098 315.168 187.069 315.056C187.04 314.943 186.983 314.84 186.904 314.756C186.825 314.671 186.727 314.607 186.617 314.57Z" fill="#282828"/>
<path d="M204.358 340.693C194.735 338.484 195.219 324.723 194.359 316.859C194.322 316.64 194.208 316.441 194.038 316.297C193.869 316.154 193.654 316.075 193.432 316.075C193.21 316.075 192.995 316.154 192.825 316.297C192.655 316.441 192.542 316.64 192.504 316.859C191.752 325.154 192.504 343.009 203.955 343.628C204.305 343.61 204.638 343.47 204.896 343.233C205.154 342.996 205.322 342.675 205.369 342.328C205.417 341.98 205.342 341.626 205.158 341.328C204.973 341.029 204.691 340.805 204.358 340.693Z" fill="#282828"/>
<path d="M208.605 359.114V359.437C209.761 363.315 215.621 365.119 218.067 362.857C222.529 358.79 231.507 353.97 237.179 356.313C240.754 357.74 244.168 352.812 244.168 350.576C244.248 333.475 203.901 346.429 208.605 359.114Z" fill="white"/>
<path d="M293.028 307.256C303.534 305.54 310.17 292.594 307.85 278.34C305.53 264.086 295.134 253.922 284.628 255.638C274.122 257.354 267.486 270.301 269.806 284.555C272.126 298.808 282.522 308.972 293.028 307.256Z" fill="#FFB1A5"/>
<path d="M192.181 268.572C190.45 268.353 188.692 268.5 187.02 269.003C187.673 266.666 187.892 264.229 187.665 261.812C187.427 260.61 186.891 259.487 186.106 258.546C185.322 257.605 184.315 256.876 183.176 256.426C181.974 256.026 180.702 255.879 179.44 255.995C178.805 254.256 177.898 252.628 176.752 251.175C173.688 247.781 164.468 251.74 159.791 258.069C157.291 261.462 146.055 276.921 146.807 279.614C144.98 273.554 151.78 255.591 153.044 249.316C154.307 243.042 158.608 237.844 149.576 237.655C142.695 237.494 131.136 267.01 129.658 277.405C126.136 302.478 124.067 328.197 118.502 352.812C119.766 354.805 118.502 355.505 119.9 357.309C132.373 362.534 150.329 369.859 162.317 362.507C173.204 355.828 179.789 341.501 180.22 329.139C180.248 316.206 183.579 303.496 189.896 292.217C192.316 287.828 196.106 279.533 195.918 273.877C195.956 272.706 195.611 271.555 194.937 270.597C194.263 269.64 193.295 268.929 192.181 268.572Z" fill="#FFB1A5"/>
<path d="M184.79 270.484C173.285 276.813 170.812 291.813 166.43 303.07C166 304.148 167.747 304.632 168.178 303.555C172.72 291.813 175.355 279.721 185.327 271.238C185.73 270.861 185.22 270.269 184.79 270.484Z" fill="#282828"/>
<path d="M176.806 256.372C163.043 264.802 155.302 285.242 152.614 300.35C152.372 301.697 154.442 302.289 154.684 300.916C157.673 284.413 165.637 269.225 177.505 257.396C177.64 257.303 177.734 257.16 177.764 256.998C177.794 256.836 177.759 256.669 177.666 256.534C177.574 256.398 177.431 256.305 177.27 256.274C177.108 256.244 176.942 256.279 176.806 256.372Z" fill="#282828"/>
<path d="M118.503 352.838C114.955 365.631 86.9454 482.107 82.4026 505.052C75.145 541.57 126.943 555.547 148.689 525.007C164.28 503.086 160.087 363.691 160.087 363.691L118.503 352.838Z" fill="#FFB1A5"/>
<path d="M357.979 342.632C348.491 338.942 324.191 335.711 320.589 358.602C314.998 394.07 371.661 483.776 371.661 483.776L236.077 503.382L241.641 540.735C241.641 540.735 460.904 567.666 449.292 505.725C433.943 423.64 405.02 360.81 357.979 342.632Z" fill="#FFB1A5"/>
<path d="M426.658 424.367L352.442 450.678C358.786 462.366 364.565 472.223 368.086 478.013C392.696 478.276 417.092 473.406 439.722 463.713C436.125 450.357 431.764 437.22 426.658 424.367Z" fill="#ED9996"/>
<path d="M357.979 342.632C348.491 338.942 324.191 335.711 320.589 358.602C316.261 386.044 346.233 451.271 361.366 477.098C381.069 472.977 418.003 462.986 439.803 453.937C423.003 396.52 395.047 357.04 357.979 342.632Z" fill="#FFE36E"/>
<path d="M265.323 495.949C265.323 495.949 261.103 471.038 248.281 469.018C226.508 465.437 221.858 469.476 221.535 476.801C221.535 476.801 199.412 473.435 196.698 482.726C196.06 484.445 196.002 486.325 196.531 488.081C197.06 489.836 198.147 491.37 199.628 492.448C199.628 492.448 191.322 492.987 192.988 501.039C193.455 502.536 194.268 503.902 195.361 505.025C196.454 506.148 197.796 506.997 199.278 507.502C197.981 508.79 196.993 510.356 196.388 512.082C195.782 513.808 195.576 515.649 195.784 517.467C195.72 519.19 196.256 520.882 197.301 522.253C198.345 523.624 199.833 524.588 201.509 524.981C201.509 524.981 196.886 531.929 204.358 538.931C210.218 544.317 262.715 541.974 262.715 541.974L265.323 495.949Z" fill="#FFB1A5"/>
<path d="M244.195 478.229C241.507 477.986 239.088 477.609 236.534 477.259C237.189 476.236 238.039 475.353 239.035 474.66C240.032 473.967 241.155 473.477 242.34 473.22C242.547 473.22 242.745 473.137 242.892 472.991C243.038 472.844 243.12 472.646 243.12 472.439C243.12 472.231 243.038 472.033 242.892 471.886C242.745 471.74 242.547 471.658 242.34 471.658C239.168 471.658 236.964 474.808 235.378 477.044C231.404 476.412 227.365 476.303 223.363 476.721C223.013 476.721 222.771 477.286 223.175 477.475C226.004 478.329 228.96 478.684 231.911 478.525C236.023 478.902 239.975 479.656 244.195 480.06C245.324 480.114 245.324 478.229 244.195 478.229Z" fill="#282828"/>
<path d="M210.863 493.579C207.799 492.906 204.654 493.579 201.563 492.502C201.079 492.367 200.622 493.04 201.052 493.391C203.579 495.464 207.557 495.114 210.648 495.303C210.85 495.285 211.039 495.198 211.185 495.057C211.331 494.916 211.424 494.729 211.449 494.528C211.474 494.326 211.43 494.122 211.323 493.95C211.217 493.777 211.054 493.646 210.863 493.579Z" fill="#282828"/>
<path d="M208.041 507.853C205.725 507.499 203.364 507.581 201.079 508.095C200.971 508.13 200.878 508.199 200.811 508.291C200.745 508.383 200.709 508.493 200.709 508.607C200.709 508.72 200.745 508.831 200.811 508.923C200.878 509.014 200.971 509.083 201.079 509.118C203.36 509.642 205.702 509.86 208.041 509.765C208.266 509.727 208.471 509.61 208.619 509.435C208.767 509.26 208.848 509.038 208.848 508.809C208.848 508.579 208.767 508.358 208.619 508.183C208.471 508.008 208.266 507.891 208.041 507.853Z" fill="#282828"/>
<path d="M208.847 524.819C206.654 524.684 204.455 524.684 202.261 524.819C201.724 524.819 201.751 525.788 202.261 525.896C204.424 526.389 206.63 526.669 208.847 526.731C209.073 526.693 209.278 526.576 209.425 526.401C209.573 526.226 209.654 526.004 209.654 525.775C209.654 525.546 209.573 525.324 209.425 525.149C209.278 524.974 209.073 524.857 208.847 524.819Z" fill="#282828"/>
<path d="M227.233 459.377C221.857 449.359 216.132 439.664 211.508 429.322C206.67 418.55 202.504 407.374 197.665 396.547C197.665 396.278 197.101 396.547 197.181 396.736C200.998 408.074 204.627 419.385 209.358 430.4C212.611 437.94 216.616 445.104 220.567 452.294C204.708 442.842 188.795 432.985 176.698 418.819C176.349 418.415 175.677 418.954 175.973 419.385C187.477 435.866 204.896 446.181 221.857 456.253C222.131 456.419 222.457 456.476 222.771 456.415C223.551 457.815 224.303 459.108 225.056 460.67C225.809 462.232 227.986 460.751 227.233 459.377Z" fill="#935221"/>
<path d="M319.218 207.573C302.337 215.356 320.185 236.47 329.782 223.732C332.47 220.258 326.556 216.918 323.949 220.312C319.594 221.039 318.143 219.369 319.648 215.276C321.019 214.038 322.718 213.225 324.54 212.933C327.24 212.459 330.019 213.037 332.308 214.549C337.254 217.996 337.523 225.159 334.674 230.007C328.384 240.618 310.24 238.706 303.493 229.657C290.805 212.61 319.245 195.993 333.652 198.309C334.204 198.406 334.772 198.294 335.246 197.994C335.719 197.695 336.065 197.23 336.216 196.69C336.367 196.149 336.312 195.572 336.062 195.07C335.811 194.568 335.384 194.177 334.862 193.973C309.138 183.201 276.424 223.597 305.482 240.348C318.492 247.835 339.297 243.984 342.953 227.637C346.071 213.902 332.631 201.406 319.218 207.573Z" fill="#BC2445"/>
<path d="M76.9729 151.423C69.1238 153.55 49.2055 164.08 61.893 172.967C62.9951 173.748 64.581 172.186 63.7746 171.055C58.9631 164.242 72.1344 159.744 76.8116 158.29C84.1768 156.001 92.3753 157.213 97.2675 163.676C102.859 171.217 100.977 187.375 90.1442 189.368C87.5723 189.625 85 188.883 82.959 187.294C80.9179 185.705 79.564 183.392 79.177 180.831C78.2631 175.176 81.5963 172.267 86.6229 175.66C90.4668 178.353 94.0687 172.025 90.2248 169.439C76.7847 160.444 67.3228 176.495 74.473 188.291C85.0907 205.796 105.977 192.438 107.428 176.091C107.727 172.241 107.087 168.376 105.562 164.828C104.038 161.281 101.675 158.159 98.677 155.731C95.6794 153.303 92.1372 151.642 88.356 150.891C84.5748 150.141 80.6681 150.323 76.9729 151.423Z" fill="#BC2445"/>
<path d="M159.307 128.72C152.127 129.967 145.055 131.768 138.152 134.106C135.207 123.226 133.113 112.133 131.889 100.927C131.378 95.5411 122.857 95.5411 123.368 100.927C124.809 114.311 127.39 127.546 131.082 140.489C131.396 141.558 132.113 142.463 133.082 143.011C134.05 143.56 135.194 143.708 136.27 143.424C142.937 141.566 149.442 139.331 156.108 137.634C157.047 146.049 156.702 154.557 155.086 162.868C155.064 162.948 155.056 163.031 155.066 163.113C155.075 163.196 155.1 163.275 155.14 163.348C155.18 163.421 155.234 163.484 155.298 163.536C155.363 163.588 155.437 163.626 155.517 163.649C155.596 163.672 155.679 163.679 155.761 163.67C155.843 163.661 155.923 163.636 155.995 163.596C156.068 163.556 156.132 163.502 156.183 163.437C156.235 163.372 156.273 163.298 156.296 163.218C159.513 153.67 161.791 143.829 163.097 133.837C163.339 131.521 161.995 128.343 159.307 128.72Z" fill="#BC2445"/>
<path d="M256.076 97.1031C255.565 91.5015 247.125 91.2861 247.179 97.1031C247.179 102.489 242.69 107.364 240.539 111.969C238.35 116.961 236.482 122.088 234.948 127.32C229.117 125.474 223.107 124.256 217.019 123.684C216.192 123.684 215.399 124.013 214.814 124.599C214.229 125.185 213.901 125.979 213.901 126.808C215.46 138.442 212.745 150.076 214.895 161.818C215.164 163.299 217.583 162.976 217.583 161.468C216.523 151.107 217.122 140.642 219.358 130.47C225.191 131.736 230.728 133.837 236.507 135.399C237.473 135.638 238.493 135.491 239.352 134.988C240.21 134.485 240.839 133.666 241.104 132.706C244.297 124.564 247.995 116.631 252.178 108.953C254.302 105.182 256.399 101.628 256.076 97.1031Z" fill="#BC2445"/>
<path d="M322.148 148.137C314.836 151.207 310.535 156.216 304.461 161.091C302.773 163.241 300.385 164.728 297.714 165.292C296.695 164.209 295.609 163.193 294.461 162.249C292.552 160.95 290.558 159.78 288.494 158.748C277.742 155.543 271.559 168.901 265.242 175.149C264.033 176.361 265.699 178.677 267.124 177.572C271.263 174.422 275.188 168.12 280.08 166.181C289.461 162.464 289.891 171.728 296.208 173.667C299.568 174.718 302.149 172.994 304.864 171.136C312.095 166.208 316.852 159.125 324.997 155.166C328.975 153.281 326.207 146.44 322.148 148.137Z" fill="#BC2445"/>
<path d="M67.2419 265.475C60.6831 266.606 54.1781 268.41 47.673 269.838C43.0765 270.834 35.2543 270.699 32.1631 274.604C31.9241 274.858 31.7446 275.162 31.6379 275.495C31.5312 275.827 31.4998 276.179 31.5462 276.524C31.5926 276.87 31.7155 277.201 31.9059 277.494C32.0964 277.786 32.3495 278.032 32.647 278.213C37.4854 280.664 44.4474 277.351 49.4202 276.14C56.1903 274.798 62.7107 272.408 68.7472 269.057C69.1466 268.811 69.445 268.43 69.5883 267.983C69.7317 267.535 69.7105 267.052 69.5285 266.619C69.3466 266.186 69.016 265.832 68.5965 265.623C68.1771 265.413 67.6965 265.36 67.2419 265.475Z" fill="#BC2445"/>
<path d="M66.2474 220.662C62.3467 217.502 57.9133 215.067 53.1567 213.471C49.7967 212.313 43.9637 208.974 40.523 210.105C39.8967 210.287 39.3663 210.707 39.0449 211.276C38.7235 211.844 38.6366 212.516 38.8027 213.148C40.2811 216.838 44.797 217.242 48.2645 218.211C53.6525 219.431 58.8641 221.332 63.7744 223.867C65.7098 225.078 68.1022 222.17 66.2474 220.662Z" fill="#BC2445"/>
</svg>
