<svg width="350" height="400" viewBox="0 0 350 400" fill="none" xmlns="http://www.w3.org/2000/svg">
<path d="M343.754 281.788C341.549 261.753 331.277 241.644 313.068 232.069C304.045 227.318 294.141 224.464 285.119 219.695C275.362 214.539 272.752 208.646 274.002 197.837C275.196 187.672 278.541 177.931 280.47 167.932C282.6 156.09 282.99 143.998 281.628 132.043C276.666 85.1785 244.528 49.3075 201.31 32.7715C157.522 16.0329 108.166 27.9101 70.0556 53.2481C51.6804 65.4936 35.6389 80.8695 25.6795 100.867C15.7202 120.865 10.7405 142.336 8.02098 164.12C2.61868 207.394 7.4881 254.111 29.5567 292.394C30.7143 294.401 31.9455 296.372 33.2317 298.287C62.779 361.392 146.478 376.326 211.986 374.909C251.29 374.043 292.836 365.701 321.796 336.809C336.239 322.336 346.051 302.614 343.754 281.788Z" fill="#FAF0D0"/>
<path d="M126.78 258.217C124.635 259.669 122.668 261.369 120.918 263.281C104.381 281.069 60.4641 336.938 60.8499 338.043C61.2358 339.147 85.2522 369.734 85.2522 369.734C85.2522 369.734 92.1429 370.323 112.815 353.271C133.487 336.22 161.381 303.553 161.381 303.553L126.78 258.217Z" fill="#ED9996"/>
<path d="M126.78 258.217C124.635 259.669 122.668 261.369 120.918 263.281C111.731 273.132 94.1824 294.585 80.4929 312.078C93.5026 323.366 113.789 342.885 124.906 352.166C144.163 334.47 161.472 303.553 161.472 303.553L126.78 258.217Z" fill="#FED353"/>
<path d="M120.257 264.625C118.419 262.673 177.367 219.436 229.479 229.233C297.853 242.123 310.238 365.682 310.238 365.682H172.663C172.663 365.682 156.879 301.803 120.257 264.625Z" fill="#FED353"/>
<path d="M184.111 214.906C186.812 215.072 205.536 228.257 205.536 228.257C205.536 228.257 191.59 268.234 182.402 270.075C173.214 271.917 148.867 250.004 148.867 250.004L184.111 214.906Z" fill="#ED9996"/>
<path d="M111.272 215.09C115.7 223.911 114.01 233.726 107.597 236.985C101.184 240.244 92.2349 235.77 87.8065 226.949C83.378 218.129 85.0134 208.314 91.4999 205.036C97.9863 201.759 106.862 206.27 111.272 215.09Z" fill="#ED9996"/>
<path d="M195.54 178.722C204.268 203.213 197.378 242.804 162.373 259.009C143.502 267.774 118.42 255.528 100.871 225.145C75.8258 181.742 91.4264 159.682 118.401 146.221C145.376 132.76 183.725 145.669 195.54 178.722Z" fill="#FFB1A5"/>
<path d="M173.086 150.364C170.326 148.593 167.425 147.053 164.413 145.761C154.949 147.86 137.291 152.169 121.764 156.165L120.533 150.769L115.755 147.602C105.189 153.292 96.6633 160.492 92.0328 169.883V169.994C91.6653 170.767 91.3161 171.559 90.9854 172.369V172.498C85.9138 185.388 87.8065 202.311 101.018 225.145C110.537 241.718 122.297 252.766 134.094 258.125C121.672 240.171 129.978 211.26 131.907 203.361C142.656 199.144 150.466 174.671 150.466 174.671C160.489 179.654 171.291 182.874 182.402 184.191C182.402 184.191 176.228 161.413 173.086 150.364Z" fill="#ED9996"/>
<path d="M197.433 194.503C195.908 194.982 161.546 180.49 147.213 163.052C147.213 163.052 143.116 185.149 131.87 194.835C120.624 204.521 122.682 178.943 122.682 178.943C122.682 178.943 93.7416 221.296 70.7175 214.096C47.6934 206.896 74.613 182.976 74.613 182.976C74.613 182.976 37.2562 185.664 59.1043 164.562C80.9524 143.459 137.144 98.0678 154.233 132.705C154.233 132.705 175.989 120.11 186.5 140.955C197.469 162.739 197.433 194.503 197.433 194.503Z" fill="#282828"/>
<path d="M151.973 128.893C132.642 101.732 80.0705 144.472 59.086 164.654C37.2379 185.664 74.5947 183.068 74.5947 183.068C74.5947 183.068 49.8066 205.165 68.2185 213.249C67.6856 211.405 67.4074 209.497 67.3916 207.577C67.7137 201.584 70.2177 195.917 74.4293 191.649C78.63 187.44 83.3329 183.766 88.4312 180.711C86.4549 181.272 84.3658 181.299 82.3755 180.79C80.3853 180.281 78.5647 179.254 77.0983 177.813C75.632 176.371 74.572 174.567 74.0258 172.583C73.4796 170.598 73.4667 168.505 73.9883 166.514C75.0908 162.223 78.4719 158.964 81.7794 156.036C92.0879 146.829 103.26 138.506 115.976 133.239C127.293 128.297 139.808 126.786 151.973 128.893Z" fill="#424242"/>
<path d="M168.988 203.95C165.916 205.075 163.053 206.705 160.517 208.774C159.507 209.474 158.422 210.174 157.338 210.929C158.147 209.898 158.937 208.848 159.801 207.872C161.638 205.791 163.329 202.827 165.625 201.298C165.851 201.168 166.022 200.959 166.104 200.712C166.187 200.465 166.177 200.195 166.075 199.955C165.973 199.715 165.787 199.52 165.552 199.408C165.317 199.296 165.049 199.274 164.799 199.346C162.189 200.138 160.591 203.434 158.863 205.46C156.221 208.396 154.001 211.687 152.267 215.238C152.213 215.387 152.213 215.549 152.267 215.698C152.2 215.808 152.167 215.936 152.174 216.064C152.18 216.193 152.224 216.317 152.301 216.42C152.379 216.523 152.485 216.601 152.606 216.643C152.728 216.685 152.859 216.689 152.983 216.656C156.089 215.661 158.68 212.973 161.381 211.242C163.908 209.2 166.735 207.561 169.76 206.38C170.082 206.278 170.349 206.052 170.504 205.751C170.659 205.451 170.689 205.101 170.587 204.778C170.484 204.456 170.258 204.188 169.959 204.032C169.659 203.877 169.31 203.847 168.988 203.95Z" fill="#282828"/>
<path d="M128.397 225.089C124.56 222.573 120.571 220.298 116.453 218.276C116.33 218.2 116.191 218.152 116.047 218.134C115.903 218.116 115.757 218.13 115.619 218.174C115.481 218.218 115.354 218.291 115.246 218.389C115.139 218.486 115.053 218.606 114.996 218.739C114.939 218.873 114.911 219.017 114.914 219.162C114.917 219.308 114.952 219.45 115.015 219.581C115.078 219.712 115.169 219.828 115.281 219.92C115.393 220.013 115.523 220.08 115.663 220.118C118.106 221.003 120.467 222.099 122.719 223.395C121.525 223.138 120.33 222.935 119.044 222.732C115.939 222.272 112.797 221.259 109.691 221.094C108.681 221.094 108.46 222.401 109.214 222.935C111.774 224.237 114.593 224.948 117.464 225.016C120.937 225.439 124.428 225.679 127.919 226.047H128.085C128.202 226.059 128.319 226.03 128.417 225.966C128.516 225.902 128.589 225.806 128.626 225.694C128.662 225.582 128.659 225.461 128.618 225.351C128.576 225.241 128.498 225.149 128.397 225.089Z" fill="#282828"/>
<path d="M162.538 190.821C158.514 192.57 155.721 195.737 152.818 198.904C151.734 200.101 144.972 210.321 144.237 210.137C144.157 210.117 144.074 210.12 143.997 210.147C143.919 210.173 143.851 210.221 143.801 210.286C143.75 210.35 143.719 210.427 143.712 210.509C143.705 210.59 143.721 210.672 143.759 210.745L144.071 211.242C144.12 211.33 144.19 211.406 144.273 211.462C144.357 211.519 144.453 211.555 144.553 211.568C144.653 211.58 144.755 211.569 144.85 211.535C144.945 211.5 145.031 211.444 145.1 211.371C151.017 205.681 155.206 196.363 163.163 193.067C164.541 192.57 163.916 190.231 162.538 190.821Z" fill="#282828"/>
<path d="M127.57 215.091C121.415 213.581 115.737 210.91 109.691 208.848C108.423 208.425 107.854 210.45 109.14 210.837C113.219 212.089 117.225 213.691 121.212 215.183C122.701 215.753 126.449 217.576 127.772 215.864C127.825 215.805 127.863 215.734 127.881 215.657C127.9 215.58 127.899 215.499 127.879 215.423C127.859 215.346 127.82 215.276 127.767 215.218C127.713 215.16 127.645 215.116 127.57 215.091Z" fill="#282828"/>
<path d="M139.698 232.952C133.12 231.442 133.45 222.033 132.862 216.656C132.837 216.506 132.759 216.37 132.643 216.272C132.527 216.174 132.38 216.12 132.229 216.12C132.077 216.12 131.93 216.174 131.814 216.272C131.698 216.37 131.62 216.506 131.595 216.656C131.08 222.327 131.595 234.536 139.422 234.959C139.662 234.947 139.889 234.852 140.066 234.689C140.242 234.527 140.356 234.308 140.389 234.07C140.422 233.832 140.371 233.591 140.244 233.387C140.118 233.182 139.925 233.029 139.698 232.952Z" fill="#282828"/>
<path d="M142.601 245.548V245.769C143.391 248.42 147.397 249.654 149.069 248.107C152.12 245.327 158.257 242.031 162.134 243.633C164.578 244.609 166.912 241.239 166.912 239.71C166.967 228.017 139.385 236.875 142.601 245.548Z" fill="white"/>
<path d="M200.312 210.09C207.493 208.916 212.03 200.064 210.444 190.318C208.858 180.572 201.751 173.622 194.57 174.795C187.388 175.969 182.852 184.821 184.437 194.567C186.023 204.313 193.13 211.263 200.312 210.09Z" fill="#FFB1A5"/>
<path d="M131.374 183.639C130.19 183.489 128.989 183.59 127.846 183.934C128.292 182.336 128.442 180.669 128.287 179.017C128.124 178.195 127.757 177.427 127.221 176.783C126.685 176.14 125.996 175.642 125.218 175.334C124.396 175.061 123.527 174.96 122.664 175.039C122.23 173.85 121.61 172.737 120.827 171.743C118.732 169.423 112.429 172.13 109.232 176.457C107.523 178.778 99.8421 189.347 100.357 191.189C99.1071 187.046 103.756 174.763 104.62 170.473C105.483 166.182 108.423 162.628 102.249 162.499C97.5452 162.389 89.6439 182.571 88.6333 189.679C86.2261 206.822 84.8112 224.408 81.0076 241.239C81.8712 242.601 81.0076 243.08 81.9631 244.314C90.4892 247.886 102.764 252.895 110.959 247.868C118.401 243.301 122.903 233.505 123.197 225.053C123.216 216.209 125.494 207.518 129.812 199.807C131.466 196.805 134.057 191.134 133.928 187.267C133.954 186.466 133.719 185.678 133.258 185.024C132.797 184.369 132.136 183.883 131.374 183.639Z" fill="#FFB1A5"/>
<path d="M126.321 184.946C118.456 189.274 116.766 199.53 113.771 207.228C113.477 207.964 114.671 208.296 114.965 207.559C118.07 199.53 119.871 191.262 126.688 185.462C126.964 185.204 126.615 184.799 126.321 184.946Z" fill="#282828"/>
<path d="M120.863 175.297C111.455 181.061 106.163 195.037 104.326 205.368C104.16 206.288 105.575 206.694 105.741 205.754C107.784 194.471 113.228 184.085 121.341 175.997C121.434 175.933 121.497 175.836 121.518 175.725C121.539 175.615 121.515 175.5 121.451 175.408C121.388 175.315 121.29 175.251 121.18 175.23C121.07 175.21 120.956 175.234 120.863 175.297Z" fill="#282828"/>
<path d="M81.0076 241.257C78.582 250.004 59.4351 329.646 56.3297 345.335C51.3684 370.304 86.7774 379.861 101.643 358.979C112.301 343.99 109.434 248.678 109.434 248.678L81.0076 241.257Z" fill="#FFB1A5"/>
<path d="M244.712 234.278C238.226 231.755 221.615 229.546 219.152 245.198C215.33 269.449 254.065 330.787 254.065 330.787L161.381 344.193L165.184 369.733C165.184 369.733 315.071 388.148 307.133 345.795C296.64 289.668 276.869 246.708 244.712 234.278Z" fill="#FFB1A5"/>
<path d="M291.661 290.165L240.927 308.156C245.263 316.148 249.214 322.888 251.621 326.847C268.444 327.027 285.121 323.697 300.591 317.069C298.132 307.936 295.151 298.954 291.661 290.165Z" fill="#ED9996"/>
<path d="M244.712 234.278C238.226 231.755 221.615 229.546 219.152 245.198C216.194 263.962 236.682 308.561 247.027 326.221C260.497 323.403 285.744 316.571 300.646 310.384C289.162 271.125 270.052 244.13 244.712 234.278Z" fill="#FFE36E"/>
<path d="M181.373 339.111C181.373 339.111 178.488 322.077 169.723 320.696C154.839 318.247 151.66 321.009 151.44 326.018C151.44 326.018 136.317 323.716 134.461 330.069C134.025 331.244 133.985 332.53 134.347 333.73C134.709 334.931 135.452 335.979 136.464 336.717C136.464 336.717 130.786 337.085 131.925 342.591C132.244 343.615 132.8 344.549 133.547 345.316C134.294 346.084 135.212 346.665 136.225 347.01C135.339 347.891 134.663 348.962 134.249 350.142C133.835 351.322 133.694 352.581 133.836 353.824C133.793 355.002 134.159 356.159 134.873 357.096C135.587 358.033 136.604 358.693 137.75 358.961C137.75 358.961 134.59 363.712 139.698 368.5C143.704 372.183 179.59 370.581 179.59 370.581L181.373 339.111Z" fill="#FFB1A5"/>
<path d="M166.93 326.994C165.093 326.828 163.439 326.57 161.693 326.331C162.141 325.632 162.722 325.028 163.403 324.554C164.084 324.08 164.852 323.745 165.662 323.569C165.804 323.569 165.939 323.513 166.039 323.412C166.139 323.312 166.195 323.177 166.195 323.035C166.195 322.893 166.139 322.757 166.039 322.657C165.939 322.557 165.804 322.501 165.662 322.501C163.494 322.501 161.987 324.655 160.903 326.184C158.186 325.752 155.425 325.677 152.689 325.963C152.45 325.963 152.285 326.349 152.561 326.478C154.495 327.063 156.515 327.306 158.533 327.197C161.344 327.454 164.045 327.97 166.93 328.246C167.702 328.283 167.702 326.994 166.93 326.994Z" fill="#282828"/>
<path d="M144.145 337.49C142.05 337.03 139.9 337.49 137.787 336.753C137.456 336.661 137.144 337.122 137.438 337.361C139.165 338.779 141.885 338.54 143.998 338.669C144.136 338.656 144.265 338.597 144.365 338.5C144.464 338.404 144.528 338.276 144.545 338.139C144.562 338.001 144.532 337.862 144.459 337.744C144.386 337.626 144.275 337.536 144.145 337.49Z" fill="#282828"/>
<path d="M142.215 347.25C140.632 347.008 139.018 347.064 137.456 347.415C137.383 347.44 137.319 347.486 137.273 347.549C137.228 347.612 137.203 347.688 137.203 347.765C137.203 347.843 137.228 347.918 137.273 347.981C137.319 348.044 137.383 348.091 137.456 348.115C139.016 348.473 140.616 348.622 142.215 348.557C142.369 348.531 142.51 348.451 142.611 348.331C142.711 348.212 142.767 348.06 142.767 347.903C142.767 347.747 142.711 347.595 142.611 347.475C142.51 347.356 142.369 347.276 142.215 347.25Z" fill="#282828"/>
<path d="M142.767 358.851C141.267 358.758 139.764 358.758 138.265 358.851C137.897 358.851 137.916 359.514 138.265 359.587C139.743 359.924 141.251 360.115 142.767 360.158C142.921 360.132 143.061 360.052 143.162 359.932C143.263 359.813 143.318 359.661 143.318 359.504C143.318 359.348 143.263 359.196 143.162 359.076C143.061 358.957 142.921 358.877 142.767 358.851Z" fill="#282828"/>
<path d="M155.335 314.104C151.66 307.254 147.746 300.625 144.586 293.554C141.278 286.188 138.43 278.546 135.123 271.143C135.123 270.959 134.737 271.143 134.792 271.272C137.401 279.025 139.882 286.759 143.116 294.29C145.339 299.446 148.077 304.344 150.778 309.261C139.937 302.798 129.059 296.058 120.79 286.372C120.551 286.096 120.092 286.464 120.294 286.759C128.158 298.028 140.065 305.081 151.66 311.968C151.848 312.081 152.07 312.12 152.285 312.078C152.818 313.036 153.332 313.92 153.847 314.988C154.361 316.056 155.85 315.043 155.335 314.104Z" fill="#935221"/>
<path d="M218.215 141.931C206.676 147.252 218.877 161.689 225.437 152.979C227.274 150.604 223.232 148.32 221.449 150.641C218.472 151.138 217.48 149.996 218.509 147.197C219.446 146.351 220.608 145.795 221.853 145.595C223.699 145.271 225.599 145.667 227.164 146.7C230.545 149.057 230.729 153.955 228.781 157.27C224.481 164.525 212.078 163.218 207.466 157.03C198.793 145.374 218.234 134.012 228.083 135.596C228.46 135.662 228.848 135.585 229.172 135.381C229.496 135.176 229.732 134.858 229.835 134.489C229.938 134.119 229.9 133.725 229.729 133.381C229.558 133.038 229.266 132.771 228.91 132.631C211.324 125.266 188.962 152.887 208.825 164.341C217.719 169.46 231.941 166.827 234.44 155.649C236.572 146.258 227.384 137.714 218.215 141.931Z" fill="#BC2445"/>
<path d="M52.618 103.537C47.2524 104.992 33.6364 112.192 42.3095 118.268C43.0629 118.802 44.147 117.734 43.5958 116.961C40.3066 112.302 49.3105 109.227 52.5077 108.233C57.5425 106.667 63.147 107.496 66.4913 111.915C70.3133 117.071 69.027 128.12 61.6218 129.483C59.8637 129.658 58.1053 129.151 56.7101 128.064C55.3148 126.978 54.3893 125.396 54.1248 123.645C53.5 119.778 55.7785 117.79 59.2147 120.11C61.8423 121.951 64.3046 117.624 61.677 115.856C52.4894 109.706 46.0213 120.681 50.9091 128.746C58.1673 140.715 72.4448 131.582 73.4371 120.404C73.6415 117.772 73.2037 115.129 72.1615 112.703C71.1193 110.278 69.504 108.143 67.4548 106.483C65.4057 104.823 62.9843 103.687 60.3995 103.174C57.8146 102.66 55.144 102.785 52.618 103.537Z" fill="#BC2445"/>
<path d="M108.901 88.0136C103.993 88.8662 99.1584 90.0975 94.4398 91.6964C92.427 84.2572 90.9955 76.6721 90.1584 69.0101C89.8092 65.3272 83.9843 65.3272 84.3334 69.0101C85.3188 78.1611 87.0831 87.2109 89.6071 96.0606C89.8213 96.7919 90.3116 97.4108 90.9738 97.7856C91.636 98.1604 92.418 98.2616 93.1535 98.0678C97.7106 96.7972 102.157 95.2688 106.714 94.1087C107.356 99.8623 107.121 105.68 106.016 111.363C106 111.417 105.996 111.474 106.002 111.531C106.008 111.587 106.025 111.641 106.053 111.691C106.08 111.74 106.117 111.784 106.161 111.82C106.205 111.855 106.256 111.881 106.31 111.897C106.364 111.913 106.421 111.917 106.477 111.911C106.534 111.905 106.588 111.888 106.637 111.86C106.687 111.833 106.731 111.796 106.766 111.752C106.801 111.707 106.827 111.657 106.843 111.602C109.042 105.073 110.599 98.3448 111.492 91.5123C111.657 89.9287 110.739 87.7558 108.901 88.0136Z" fill="#BC2445"/>
<path d="M175.052 66.3953C174.703 62.5651 168.933 62.4178 168.97 66.3953C168.97 70.0781 165.901 73.4111 164.431 76.56C162.934 79.9731 161.658 83.479 160.609 87.0561C156.623 85.7945 152.515 84.9611 148.353 84.5702C147.787 84.5702 147.245 84.7952 146.846 85.1958C146.446 85.5964 146.221 86.1397 146.221 86.7062C147.287 94.6612 145.431 102.616 146.901 110.645C147.085 111.658 148.739 111.437 148.739 110.405C148.014 103.321 148.423 96.1657 149.951 89.2106C153.939 90.076 157.724 91.5124 161.675 92.5804C162.335 92.7442 163.032 92.6433 163.619 92.2994C164.206 91.9555 164.636 91.3956 164.817 90.739C166.999 85.172 169.528 79.7476 172.387 74.4976C173.839 71.9196 175.272 69.4889 175.052 66.3953Z" fill="#BC2445"/>
<path d="M220.218 101.29C215.22 103.39 212.28 106.815 208.127 110.148C206.974 111.618 205.341 112.634 203.515 113.02C202.819 112.28 202.076 111.585 201.292 110.939C199.987 110.051 198.624 109.252 197.212 108.546C189.862 106.354 185.636 115.488 181.318 119.76C180.491 120.588 181.63 122.172 182.604 121.417C185.434 119.263 188.117 114.954 191.461 113.628C197.874 111.087 198.168 117.421 202.486 118.747C204.783 119.465 206.547 118.287 208.403 117.016C213.346 113.646 216.598 108.803 222.166 106.096C224.885 104.807 222.993 100.13 220.218 101.29Z" fill="#BC2445"/>
<path d="M45.9661 181.521C41.4826 182.295 37.0358 183.528 32.589 184.504C29.4468 185.186 24.0996 185.094 21.9865 187.764C21.8231 187.937 21.7004 188.145 21.6274 188.372C21.5545 188.599 21.5331 188.84 21.5648 189.076C21.5965 189.313 21.6805 189.539 21.8107 189.739C21.9408 189.939 22.1139 190.107 22.3172 190.231C25.6248 191.907 30.3839 189.642 33.7833 188.813C38.4113 187.896 42.8686 186.262 46.9951 183.97C47.2682 183.802 47.4722 183.542 47.5701 183.236C47.6681 182.93 47.6536 182.599 47.5292 182.303C47.4049 182.007 47.1789 181.766 46.8922 181.622C46.6054 181.479 46.2769 181.443 45.9661 181.521Z" fill="#BC2445"/>
<path d="M45.2862 150.88C42.6196 148.719 39.589 147.054 36.3375 145.963C34.0406 145.171 30.0532 142.888 27.7011 143.661C27.273 143.786 26.9104 144.073 26.6907 144.462C26.471 144.851 26.4116 145.31 26.5251 145.742C27.5358 148.265 30.6228 148.541 32.9932 149.204C36.6764 150.039 40.239 151.338 43.5957 153.071C44.9187 153.9 46.5541 151.911 45.2862 150.88Z" fill="#BC2445"/>
</svg>
