<svg width="1920" height="1779" viewBox="0 0 1920 1779" fill="none" xmlns="http://www.w3.org/2000/svg">
<rect width="1918" height="1779" fill="#FEF8E4"/>
<path d="M1986 543C1982.78 530.061 1970.22 520.398 1955.23 520.398C1952.55 520.404 1949.87 520.721 1947.26 521.343C1943.21 513.762 1937.13 507.443 1929.7 503.08C1922.27 498.718 1913.77 496.482 1905.15 496.619C1900.44 496.615 1895.76 497.267 1891.25 498.557C1885.85 490.61 1878.56 484.117 1870.03 479.658C1861.5 475.199 1852 472.912 1842.36 473.003C1817.57 473.003 1796.49 487.486 1788.5 507.782C1782.59 504.75 1776.03 503.168 1769.38 503.17C1747.65 503.17 1730 519.314 1730 539.425C1730 540.601 1730 541.732 1730.19 542.954L1986 543Z" fill="white"/>
<path d="M257 1018C252.295 999.147 233.951 985.065 212.052 985.065C208.13 985.075 204.223 985.537 200.409 986.443C194.486 975.397 185.607 966.188 174.75 959.831C163.893 953.475 151.479 950.217 138.877 950.417C132.008 950.41 125.172 951.36 118.569 953.24C110.688 941.66 100.041 932.199 87.5792 925.701C75.1174 919.204 61.2287 915.872 47.1539 916.004C10.9385 916.004 -19.8615 937.109 -31.5385 966.683C-40.1734 962.264 -49.7473 959.959 -59.4615 959.961C-91.2092 959.961 -117 983.486 -117 1012.79C-117 1014.5 -117 1016.15 -116.729 1017.93L257 1018Z" fill="white"/>
<path d="M209.797 181.003C214.013 179.445 217.88 177.071 221.177 174.015C223.358 172.26 224.947 169.876 225.729 167.187C226.065 165.834 225.946 164.407 225.391 163.128C224.836 161.848 223.874 160.787 222.656 160.109C221.391 159.679 220.025 159.645 218.741 160.011C217.456 160.377 216.313 161.126 215.464 162.157C213.807 164.255 212.661 166.709 212.118 169.327C211.064 173.225 210.213 177.175 209.569 181.162L209.797 181.003Z" fill="#FFD530"/>
<path d="M231.806 217.806C237.087 218.694 242.617 219.559 247.738 217.806C250.606 216.828 253.497 214.324 252.928 211.365C252.647 210.351 252.058 209.45 251.243 208.785C250.427 208.12 249.425 207.726 248.376 207.655C246.261 207.559 244.161 208.064 242.321 209.112C238.27 211.129 234.735 214.049 231.988 217.647L231.806 217.806Z" fill="#FFD530"/>
<path d="M191.634 292.46C191.634 297.809 191.634 303.408 194.069 308.142C195.48 310.805 198.394 313.286 201.239 312.262C202.201 311.819 203.002 311.088 203.532 310.171C204.062 309.254 204.295 308.195 204.198 307.14C204.005 305.043 203.215 303.044 201.922 301.382C199.299 297.695 195.865 294.658 191.884 292.505L191.634 292.46Z" fill="#FFD530"/>
<path d="M95.3118 180.457C93.6511 176.284 91.175 172.485 88.0284 169.281C86.1922 167.173 83.7532 165.68 81.041 165.002C79.6702 164.707 78.2401 164.875 76.9754 165.481C75.7106 166.086 74.6828 167.095 74.0535 168.348C73.6562 169.629 73.6614 171.001 74.0684 172.279C74.4754 173.557 75.2646 174.68 76.3296 175.495C78.4791 177.086 80.9617 178.167 83.5901 178.659C87.4594 179.637 91.5563 180.297 95.5166 180.935L95.3118 180.457Z" fill="#FFD530"/>
<path d="M128.178 157.787C129.103 153.393 129.142 148.858 128.292 144.449C127.933 141.673 126.715 139.079 124.809 137.029C123.846 136.028 122.579 135.371 121.205 135.161C119.831 134.952 118.426 135.2 117.207 135.868C116.165 136.71 115.406 137.85 115.032 139.136C114.657 140.422 114.686 141.791 115.113 143.061C116.022 145.575 117.493 147.848 119.415 149.707C122.101 152.643 125.151 155.465 128.11 158.151L128.178 157.787Z" fill="#FFD530"/>
<path d="M174.268 151.983C176.954 147.431 179.708 142.469 179.867 137.121C179.867 134.116 178.638 130.52 175.679 130.019C174.622 129.928 173.563 130.165 172.646 130.699C171.729 131.232 171 132.036 170.558 133.001C169.732 134.961 169.472 137.114 169.807 139.214C170.277 143.711 171.772 148.04 174.177 151.869L174.268 151.983Z" fill="#FFD530"/>
<path d="M221.769 257.113C224.22 260.865 227.401 264.085 231.123 266.582C233.35 268.276 236.043 269.245 238.839 269.358C240.227 269.38 241.583 268.947 242.701 268.125C243.819 267.303 244.637 266.137 245.03 264.806C245.173 263.477 244.905 262.136 244.262 260.963C243.619 259.791 242.632 258.845 241.434 258.251C239.008 257.114 236.351 256.553 233.672 256.613C229.627 256.484 225.578 256.56 221.541 256.84L221.769 257.113Z" fill="#FFD530"/>
<path d="M154.147 303.272C151.817 307.119 150.27 311.389 149.595 315.836C149.038 318.583 149.34 321.436 150.46 324.007C151.052 325.266 152.04 326.297 153.273 326.942C154.506 327.588 155.916 327.811 157.288 327.58C158.543 327.122 159.629 326.294 160.401 325.204C161.174 324.115 161.596 322.816 161.613 321.48C161.587 318.804 160.94 316.171 159.724 313.787C158.153 310.123 156.173 306.458 154.238 302.953L154.147 303.272Z" fill="#FFD530"/>
<path d="M117.321 291.095C113.018 292.375 109.011 294.495 105.531 297.331C103.265 298.971 101.557 301.267 100.638 303.909C100.222 305.236 100.252 306.662 100.725 307.97C101.198 309.277 102.087 310.393 103.255 311.147C104.486 311.663 105.845 311.792 107.15 311.515C108.456 311.239 109.646 310.57 110.561 309.599C112.347 307.606 113.654 305.232 114.385 302.657C115.705 298.902 116.661 294.873 117.685 291.004L117.321 291.095Z" fill="#FFD530"/>
<path d="M77.4674 220.287C74.1842 217.209 70.3135 214.824 66.0872 213.277C63.5237 212.161 60.6795 211.859 57.939 212.412C56.5807 212.72 55.3614 213.466 54.4689 214.536C53.5765 215.605 53.0603 216.938 53 218.33C53.1806 219.653 53.7613 220.89 54.6644 221.874C55.5674 222.859 56.7496 223.544 58.0527 223.838C60.6768 224.368 63.3882 224.283 65.9735 223.587C69.9319 222.769 73.8444 221.744 77.695 220.515L77.4674 220.287Z" fill="#FFD530"/>
<path d="M85.9119 261.961C80.586 261.688 74.9869 261.438 70.139 263.714C67.4305 265.011 64.813 267.833 65.7235 270.701C66.1281 271.679 66.823 272.509 67.7144 273.079C68.6059 273.648 69.6508 273.931 70.708 273.888C72.8267 273.737 74.8607 272.995 76.5801 271.748C80.3724 269.283 83.5492 265.982 85.8664 262.098L85.9119 261.961Z" fill="#FFD530"/>
<path d="M129.521 164.023C151.098 155.147 195.116 155.215 215.1 200.645C235.083 246.075 205.609 275.276 185.989 284.858C166.37 294.44 115.432 301.792 93.8324 259.64C72.2328 217.487 99.7956 176.177 129.521 163.932" fill="#FFE96B"/>
</svg>
