<svg width="350" height="400" viewBox="0 0 350 400" fill="none" xmlns="http://www.w3.org/2000/svg">
<g clip-path="url(#clip0)">
<path d="M348.071 176.107C341.684 141.686 318.194 111.172 291.056 88.7166C263.919 66.261 229.745 48.6046 193.497 44.5351C155.158 40.2223 117.207 62.3698 109.053 99.6607C106.821 109.384 107.573 119.555 111.209 128.845C114.192 136.952 123.562 152.857 115.003 160.137C109.037 165.195 97.8186 164.676 90.6857 167.206C88.7763 167.891 86.904 168.676 85.0766 169.557C60.4356 173.788 35.6162 177.145 23.2471 201.578C6.38741 234.799 17.8325 277.133 42.279 304.079C64.1155 328.189 98.078 335.939 130.047 337.657C164.706 339.522 199.495 335.242 234.025 333.037C268.182 330.832 297.865 318.736 317.513 291.044C340.857 258.131 355.447 215.862 348.071 176.107Z" fill="#FAF0D0"/>
<path d="M217.133 211.29C217.171 211.195 217.204 211.097 217.23 210.998C217.28 210.634 217.193 210.265 216.987 209.961C215.058 193.65 199.155 181.879 185.845 174.129C185.692 174.052 185.517 174.027 185.348 174.057C185.178 174.088 185.024 174.173 184.907 174.299C184.79 174.425 184.717 174.586 184.699 174.757C184.681 174.928 184.719 175.1 184.808 175.248C182.781 194.558 170.396 212.133 154.007 222.153C135.753 233.292 115.327 229.952 95.095 230.341C84.6064 230.535 69.7245 235.513 68.3465 247.949C68.0709 250.316 68.4924 253.558 71.5888 253.737C72.3042 253.631 72.9908 253.382 73.6067 253.002C74.2226 252.623 74.7549 252.123 75.1714 251.532C74.1339 258.568 74.1015 268.41 79.4998 270.988C84.4929 273.29 90.0209 265.881 93.4415 263.789C102.941 257.985 117.612 260.676 128.425 260.627C147.149 260.627 166.83 259.833 183.932 251.337C198.733 243.976 213.664 229.238 216.922 212.425C217.102 212.201 217.189 211.917 217.165 211.631C217.167 211.516 217.156 211.402 217.133 211.29Z" fill="#282828"/>
<path d="M193.967 291.757C193.292 301.024 193.991 310.339 196.042 319.401C197.701 326.166 200.403 332.632 204.051 338.565H284.102C293.115 330.994 298.351 296.978 300.799 287.671C305.89 268.442 307.024 248.467 306.635 228.671C306.262 209.62 305.954 189.953 300.151 171.664C294.915 155.257 286.161 140.259 276.012 126.429C265.864 112.599 255.019 98.6879 242.18 87.7763C218.787 67.7527 187.061 59.8892 158.578 74.0435C146.225 80.1235 136.077 90.3056 137.196 105.027C137.325 106.811 137.552 108.594 137.86 110.394C138.76 117.618 141.05 124.6 144.604 130.953C146.254 134.237 148.168 137.382 150.327 140.356C156.471 149.387 163.734 158.094 169.91 167.222C177.866 179.346 184.123 192.504 188.504 206.329C193.27 220.824 199.722 237.134 199.852 252.456C199.852 265.686 194.697 278.495 193.967 291.757Z" fill="#282828"/>
<path d="M202.77 99.8876C202.675 99.7477 202.55 99.6309 202.404 99.5463C202.258 99.4616 202.094 99.4111 201.926 99.3986C201.757 99.3861 201.588 99.412 201.431 99.4742C201.274 99.5364 201.133 99.6334 201.019 99.7579C195.762 105.318 190.949 111.281 186.623 117.593C185.748 117.836 185.148 118.955 186.056 119.619C191.503 123.624 198.458 124.094 202.997 118.452C205.046 115.78 206.137 112.497 206.096 109.131C206.055 105.764 204.884 102.508 202.77 99.8876Z" fill="white"/>
<path d="M168.305 125.618L167.981 125.472C167.886 125.272 167.723 125.112 167.521 125.02C167.32 124.928 167.092 124.91 166.878 124.97C161.162 122.088 155.682 118.759 150.489 115.015C150.366 114.952 150.231 114.918 150.093 114.915C149.956 114.913 149.819 114.941 149.694 114.999C149.57 115.057 149.459 115.142 149.372 115.249C149.285 115.356 149.224 115.481 149.192 115.615C148.495 121.03 149.549 127.11 154.38 130.369C159.94 134.098 164.398 131.293 167.916 126.543C168.003 126.409 168.063 126.261 168.094 126.105C168.402 126.17 168.597 125.732 168.305 125.618Z" fill="white"/>
<path d="M204.78 123.883C203.678 125.683 194.843 135.492 190.952 133.32C190.755 133.23 190.531 133.217 190.324 133.283C190.117 133.349 189.943 133.489 189.834 133.676C188.764 135.298 186.672 140.567 183.236 137.097C183.073 136.945 182.859 136.86 182.636 136.86C182.413 136.86 182.198 136.945 182.036 137.097C181.541 137.855 181 138.58 180.415 139.27C178.356 140.664 175.714 140.162 173.249 140C172.585 140 171.628 139.14 170.753 139.059C170.315 139.059 169.894 140 169.634 140.016C168.669 140.016 167.715 139.817 166.83 139.432C165.656 138.49 164.61 137.4 163.717 136.189C163.578 135.974 163.358 135.824 163.107 135.771C162.856 135.717 162.595 135.766 162.38 135.906C162.165 136.045 162.014 136.265 161.961 136.516C161.908 136.767 161.956 137.028 162.096 137.243C165.614 142.902 168.37 147.571 174.384 149.647C177.626 150.765 178.551 152.111 181.387 151.657C182.83 151.414 184.776 150.311 186.04 150.036C188.585 149.387 187.904 149.938 190.109 148.414C191.73 147.279 193.578 145.285 194.972 144.329C195.362 144.053 195.815 144.426 196.237 144.021C198.669 141.686 199.641 138.492 201.198 135.525C203.062 131.974 205.899 128.488 206.45 124.451C206.468 124.248 206.417 124.046 206.306 123.876C206.195 123.705 206.03 123.577 205.838 123.512C205.645 123.447 205.437 123.448 205.245 123.515C205.053 123.582 204.89 123.712 204.78 123.883Z" fill="white"/>
<path d="M119.509 240.182C119.509 240.182 84.9793 233.308 81.7371 252.115C78.4948 270.923 70.1785 312.592 66.4823 313.029C62.7862 313.467 38.291 273.274 38.291 273.274L19.2915 282.743C19.2915 282.743 45.3915 363.048 74.5717 354.39C112.166 343.267 137.471 270.988 119.509 240.182Z" fill="#ED9996"/>
<path d="M81.7374 252.132C80.0352 261.973 75.4474 281.089 72.3511 294.286C84.2987 301.015 102.131 311.927 113.479 317.455C124.405 291.806 129.317 257.109 119.445 240.199C119.509 240.182 84.9796 233.324 81.7374 252.132Z" fill="#00857C"/>
<path d="M135.023 228.995C146.371 222.104 166.327 218.505 175.681 228.444C187.175 240.636 212.562 280.667 217.214 338.565H107.367C107.367 338.565 101.498 300.804 93.3604 286.974C79.9214 264.162 110.658 243.798 135.023 228.995Z" fill="#00857C"/>
<path d="M127.355 204.821C126.026 205.745 141.038 227.212 141.038 227.212L110.609 256.704L97.0728 227.212L127.355 204.821Z" fill="#FFB1A5"/>
<path d="M126.772 205.242L97.0728 227.212L103.201 240.588C117.726 233.794 124.826 212.717 126.772 205.242Z" fill="#ED9996"/>
<path d="M68.995 211.193C71.7833 217.565 70.146 224.423 65.3637 226.514C60.5813 228.606 54.4211 225.136 51.649 218.764C48.8769 212.393 50.4818 205.534 55.2803 203.443C60.0788 201.351 66.2066 204.821 68.995 211.193Z" fill="#ED9996"/>
<path d="M134.942 181.814C136.142 201.967 124.227 228.833 95.0143 235.448C77.3603 239.436 58.2797 223.288 51.4385 196.909C44.4353 169.962 61.3598 145.026 84.4121 140.81C107.464 136.595 133.305 154.592 134.942 181.814Z" fill="#FFB1A5"/>
<path d="M115.943 184.668C115.943 184.668 81.7858 183.889 72.4805 164.368C72.4805 164.368 54.8589 175.215 50.7575 190.213C50.7575 190.213 44.9053 155.354 73.4532 151.3C102.001 147.247 119.396 172.086 115.943 184.668Z" fill="#ED9996"/>
<path d="M117.531 185.057C117.531 185.057 80.2457 178.571 74.1503 158.078C74.1503 158.078 50.5305 174.842 50.5143 193.634C50.5143 193.634 1.13499 136.579 82.0613 135.752C82.0613 135.752 137.941 101.477 139.19 172.378C139.19 172.378 160.037 168.292 165.338 185.867C170.639 203.443 160.475 199.762 162.89 207.123C165.306 214.484 156.682 223.807 147.701 219.316C138.72 214.825 117.531 185.057 117.531 185.057Z" fill="#282828"/>
<path d="M136.45 187.537C138.395 194.217 135.931 200.816 130.906 202.292C125.88 203.767 120.239 199.552 118.342 192.872C116.445 186.192 118.861 179.593 123.87 178.134C128.879 176.674 134.553 180.874 136.45 187.537Z" fill="#FFB1A5"/>
<path d="M82.0613 135.687C1.13499 136.514 50.5143 193.569 50.5143 193.569C50.5535 190.666 51.0739 187.789 52.0544 185.057C50.3388 180.525 49.1899 175.798 48.6338 170.983C47.9205 163.671 49.493 155.808 54.4861 150.425C60.3059 144.134 69.7246 142.318 78.2193 143.502C81.9305 143.81 85.4752 145.178 88.4323 147.442C92.4909 142.387 97.5643 138.24 103.325 135.269C109.086 132.297 115.405 130.567 121.876 130.191C105.065 121.581 82.0613 135.687 82.0613 135.687Z" fill="#424242"/>
<path d="M98.2238 193.569C98.3083 194.999 97.9614 196.421 97.2282 197.651C96.495 198.881 95.4092 199.863 94.1116 200.469C92.814 201.075 91.3643 201.277 89.9504 201.049C88.5365 200.822 87.2236 200.175 86.1818 199.192C85.14 198.209 84.4173 196.936 84.1074 195.538C83.7975 194.139 83.9146 192.68 84.4436 191.349C84.9726 190.018 85.8891 188.877 87.0743 188.073C88.2595 187.269 89.6588 186.839 91.0909 186.84C92.9285 186.788 94.7119 187.467 96.0492 188.729C97.3866 189.99 98.1687 191.731 98.2238 193.569Z" fill="#ED9996"/>
<path d="M72.4807 201.384C72.5651 202.813 72.2186 204.234 71.4861 205.464C70.7535 206.694 69.6687 207.676 68.3721 208.282C67.0754 208.889 65.6266 209.092 64.2132 208.865C62.7999 208.639 61.487 207.993 60.4446 207.012C59.4022 206.031 58.6782 204.76 58.3664 203.362C58.0547 201.965 58.1695 200.507 58.696 199.175C59.2224 197.844 60.1364 196.701 61.3194 195.896C62.5024 195.09 63.9001 194.658 65.3315 194.655C67.1708 194.603 68.9558 195.281 70.2958 196.542C71.6357 197.804 72.4214 199.544 72.4807 201.384Z" fill="#ED9996"/>
<path d="M94.5116 196.876C95.6576 196.876 96.5866 195.882 96.5866 194.655C96.5866 193.428 95.6576 192.434 94.5116 192.434C93.3655 192.434 92.4365 193.428 92.4365 194.655C92.4365 195.882 93.3655 196.876 94.5116 196.876Z" fill="#282828"/>
<path d="M68.5575 204.821C69.7035 204.821 70.6325 203.826 70.6325 202.6C70.6325 201.373 69.7035 200.378 68.5575 200.378C67.4115 200.378 66.4824 201.373 66.4824 202.6C66.4824 203.826 67.4115 204.821 68.5575 204.821Z" fill="#282828"/>
<path d="M98.8884 193.163C98.5804 190.894 97.0889 189.645 95.5002 188.153C95.4192 188.153 95.2409 188.153 95.3219 188.283C96.4045 189.451 97.2816 190.794 97.9157 192.255C98.1851 193.116 98.2297 194.032 98.0454 194.914C97.7251 195.724 97.2641 196.471 96.6837 197.119C96.655 197.164 96.6407 197.216 96.6425 197.269C96.6444 197.322 96.6625 197.373 96.6943 197.416C96.726 197.458 96.77 197.49 96.8203 197.506C96.8705 197.523 96.9247 197.524 96.9755 197.509C98.6938 196.974 99.0667 194.687 98.8884 193.163Z" fill="#282828"/>
<path d="M100.267 193.163C100.267 192.969 99.8939 193.001 99.9101 193.163C99.9754 193.88 99.9261 194.602 99.7642 195.304C99.516 195.822 99.3258 196.365 99.1968 196.925C99.1976 196.972 99.2091 197.018 99.2305 197.06C99.2518 197.102 99.2824 197.138 99.3199 197.166C99.3575 197.194 99.4009 197.213 99.447 197.222C99.4931 197.231 99.5406 197.229 99.5858 197.217C101.142 196.844 100.51 194.298 100.267 193.163Z" fill="#282828"/>
<path d="M65.4612 207.075C63.3699 206.702 61.5056 206.621 60.0142 204.853C59.3336 204.043 58.8841 203.064 58.7129 202.02C58.5417 200.976 58.6553 199.904 59.0415 198.919C59.1388 198.676 58.7497 198.514 58.62 198.741C56.1884 203.329 60.5978 208.242 65.3477 207.853C65.7692 207.755 65.9313 207.156 65.4612 207.075Z" fill="#282828"/>
<path d="M64.2128 209.555C63.4206 209.689 62.6077 209.624 61.8468 209.366C61.0858 209.109 60.4005 208.667 59.852 208.08C59.852 208.08 59.7223 208.08 59.7547 208.08C60.5815 209.296 62.997 210.658 64.3911 209.896C64.6181 209.831 64.4398 209.523 64.2128 209.555Z" fill="#282828"/>
<path d="M64.5371 211.176C63.9431 210.971 63.3174 210.872 62.689 210.885C61.9405 210.743 61.2186 210.486 60.5491 210.123C60.5133 210.109 60.4738 210.108 60.4376 210.121C60.4014 210.134 60.3709 210.159 60.3515 210.192C60.332 210.225 60.3249 210.264 60.3314 210.302C60.3379 210.339 60.3576 210.374 60.387 210.398C61.3759 211.063 63.3536 212.133 64.5371 211.517C64.5675 211.5 64.5928 211.475 64.6105 211.446C64.6281 211.416 64.6374 211.381 64.6374 211.347C64.6374 211.312 64.6281 211.278 64.6105 211.248C64.5928 211.218 64.5675 211.193 64.5371 211.176Z" fill="#282828"/>
<path d="M81.9805 180.063C83.4269 181.534 85.2737 182.547 87.2913 182.977C89.309 183.406 91.4083 183.233 93.3283 182.479" stroke="#282828" stroke-linecap="round" stroke-linejoin="round"/>
<path d="M62.932 186.84C62.1924 188.763 60.9037 190.427 59.2261 191.623C57.5485 192.82 55.5562 193.496 53.4971 193.569" stroke="#282828" stroke-linecap="round" stroke-linejoin="round"/>
<path d="M75.2524 199.081C75.2524 199.081 74.831 209.62 79.824 210.56" stroke="#282828" stroke-linecap="round" stroke-linejoin="round"/>
<path d="M78.365 224.147C77.994 223.701 77.7637 223.155 77.7031 222.578C77.6425 222 77.7543 221.418 78.0246 220.905C78.1834 220.656 78.3907 220.442 78.6342 220.276C78.8777 220.11 79.1523 219.994 79.4415 219.937C79.7307 219.879 80.0285 219.881 80.3171 219.941C80.6057 220.002 80.8791 220.12 81.1209 220.288C81.6559 220.726 81.9152 221.44 82.4826 221.829C82.9494 222.093 83.5007 222.167 84.0206 222.034C84.5405 221.901 84.9886 221.572 85.271 221.115C85.5406 220.65 85.7037 220.132 85.7486 219.596C85.7934 219.061 85.7189 218.522 85.5303 218.019C85.2297 217.439 85.1601 216.767 85.3358 216.138C85.8221 215.197 87.2487 215.522 88.1566 216.057C89.0644 216.592 90.3127 217.175 91.0746 216.446C91.5609 215.992 91.5771 215.246 91.7717 214.614C91.9701 214.174 92.2548 213.779 92.6088 213.452C92.9628 213.125 93.379 212.872 93.8327 212.708C94.2863 212.545 94.7681 212.475 95.2495 212.501C95.7309 212.528 96.2021 212.651 96.635 212.863C97.4837 213.365 98.1908 214.075 98.6899 214.926C99.189 215.777 99.4637 216.741 99.4882 217.727" stroke="#282828" stroke-linecap="round" stroke-linejoin="round"/>
<path d="M166.976 227.212C166.976 227.212 149.954 222.445 143.859 254.45C137.763 286.455 127.388 314.099 121.957 317.78C117.272 321.022 83.8284 297.918 74.815 291.595C75.1392 282.905 75.1554 273.76 70.3083 266.27C66.8553 260.968 59.7062 253.721 52.476 257.077C46.6399 259.801 58.085 264.34 59.5441 265.183C60.6148 265.715 61.5304 266.513 62.2027 267.502C63.3213 269.61 62.7377 269.204 61.4246 268.783C59.3333 268.118 57.3393 266.529 55.2805 265.686C52.2652 264.454 48.6663 263.497 45.5538 265.054C43.4625 266.091 40.8525 268.799 43.0735 270.923C44.3366 271.789 45.7863 272.345 47.3046 272.544C50.1279 273.146 52.7009 274.594 54.6807 276.695C50.3037 274.506 43.5274 272.155 40.0906 275.755C38.8585 277.035 38.2425 278.868 39.5881 280.246C42.8303 283.586 47.9206 280.246 50.7576 284.396C47.3694 282.856 42.8951 281.559 39.7826 283.813C37.124 285.758 38.3236 288.498 41.1281 289.471C43.2842 290.217 46.2995 289.341 48.2448 290.493C50.482 291.822 49.866 295.827 51.0494 298.064C51.9063 299.813 53.1144 301.366 54.5982 302.627C56.0821 303.888 57.8099 304.829 59.6737 305.393C69.06 316.385 113.933 366.647 137.115 355.298C163.053 342.602 182.668 290.882 184.695 277.554C186.721 264.227 186.024 231.249 166.976 227.212Z" fill="#FFB1A5"/>
<path d="M133.143 295.016C139.108 302.182 152.061 314.294 169.488 317.455C174.703 307.53 179.042 297.168 182.457 286.488C169.699 280.991 141.929 270.712 140.113 271.118C137.941 279.938 135.542 288.077 133.143 295.016Z" fill="#ED9996"/>
<path d="M166.975 227.212C166.975 227.212 149.954 222.445 143.858 254.45C141.272 268.237 137.718 281.825 133.224 295.113C141.735 299.475 164.754 308.587 179.717 311.586C183.189 300.894 185.664 289.903 187.11 278.754C189.055 265.346 186.024 231.249 166.975 227.212Z" fill="#079191"/>
<path d="M33.7519 246.165C32.896 244.602 31.7391 243.224 30.3479 242.111C28.9566 240.998 27.3587 240.172 25.6463 239.68C23.7171 239.177 20.4911 238.642 18.6754 239.777C16.8598 240.912 17.5244 242.663 18.6754 244.09C20.0048 245.841 22.0149 246.733 23.5388 248.24C24.5981 249.345 25.4689 250.615 26.1164 252.002C26.9269 253.623 27.9645 255.374 25.5976 254.288C23.7982 253.477 22.5013 251.597 20.8315 250.543C18.9489 249.498 16.8537 248.893 14.7037 248.776C11.6236 248.467 7.18169 248.289 4.71759 250.575C2.93436 252.197 2.75603 254.661 5.00939 255.893C6.30557 256.418 7.68141 256.72 9.0784 256.785C11.784 257.18 14.3447 258.257 16.5193 259.914C11.9316 258.098 5.1715 255.391 2.01032 258.633C1.65736 258.955 1.37984 259.351 1.19761 259.792C1.01538 260.234 0.932937 260.71 0.95617 261.187C0.979402 261.665 1.10774 262.131 1.33201 262.552C1.55627 262.974 1.87093 263.341 2.25349 263.627C3.47268 264.406 4.8243 264.956 6.24144 265.248C8.7887 265.873 11.1824 267.01 13.2771 268.588C9.06219 267.259 2.28591 265.232 0.30814 269.675C-1.78311 274.425 7.23033 274.749 9.71064 275.09C10.9751 275.252 13.6824 275.366 14.574 276.403C15.4656 277.441 15.3684 279.273 15.7898 280.327C16.3774 282.229 17.6949 283.821 19.4536 284.753C25.549 287.866 30.542 282.191 36.1187 280.765C36.2285 280.739 36.3259 280.676 36.3943 280.586C36.8876 280.453 37.3464 280.215 37.7398 279.889C37.9992 279.678 38.3234 279.451 38.599 279.192C38.6263 279.241 38.669 279.281 38.7207 279.304C38.7723 279.327 38.8301 279.332 38.8852 279.319C38.9402 279.307 38.9896 279.276 39.0257 279.233C39.0619 279.189 39.0828 279.135 39.0854 279.078C39.0854 278.9 39.0854 278.705 39.0854 278.511L39.1664 278.414C39.1991 278.351 39.2161 278.282 39.2161 278.211C39.2161 278.14 39.1991 278.071 39.1664 278.008C40.4147 267.372 39.3934 255.488 33.7519 246.165Z" fill="#ED9996"/>
<path d="M30.137 257.628C28.2889 256.282 23.5714 253.591 21.2694 255.617C19.47 257.239 21.3991 259.833 22.4366 261.276C23.7173 263.124 25.6789 265.183 25.4681 267.632C25.2013 268.692 24.86 269.732 24.4468 270.745C23.847 273.241 24.6414 275.025 25.2736 277.457C25.3087 277.574 25.3881 277.673 25.4949 277.732C25.6016 277.792 25.7274 277.808 25.8455 277.776C25.9636 277.744 26.0647 277.668 26.1274 277.563C26.1901 277.458 26.2095 277.333 26.1814 277.214C25.5978 274.911 24.8683 273.566 25.4195 271.004C25.946 269.734 26.3425 268.414 26.6029 267.064C26.6029 264.859 24.8035 262.897 23.6363 261.179C23.2148 260.563 22.0151 259.46 22.0151 258.698C21.853 253.672 28.3051 257.352 29.6344 258.293C32.7956 260.546 36.1999 264.34 36.7187 268.28C36.7187 268.327 36.7375 268.373 36.7709 268.406C36.8044 268.44 36.8497 268.459 36.897 268.459C36.9443 268.459 36.9897 268.44 37.0231 268.406C37.0566 268.373 37.0753 268.327 37.0753 268.28C37.3834 264.146 33.2495 259.882 30.137 257.628Z" fill="#282828"/>
<path d="M85.0605 262.297C88.8053 275.803 95.5978 294.27 100.818 307.273" stroke="#024154" stroke-linecap="round" stroke-linejoin="round"/>
<path d="M81.3315 283.488C85.5643 287.298 90.2788 290.536 95.3542 293.119" stroke="#024154" stroke-linecap="round" stroke-linejoin="round"/>
<path d="M272.867 224.504C270.663 204.691 257.223 188.834 240.818 178.604C240.818 178.604 240.737 178.604 240.704 178.604C240.558 177.923 239.472 177.696 239.31 178.506C236.684 191.007 234.544 203.994 229.275 215.7C226.438 221.991 222.305 229.109 215.318 231.314C207.098 233.924 199.252 228.395 192.622 224.326C181.728 217.678 168.451 210.35 159.065 223.256C157.249 225.59 151.672 233.065 155.628 236.015C156.249 236.4 156.968 236.597 157.699 236.582C158.429 236.568 159.14 236.343 159.745 235.934C161.188 235.302 162.129 233.632 163.442 232.805C166.933 230.711 170.899 229.54 174.968 229.4C169.699 235.416 159.827 239.599 165.841 248.857C166.033 249.167 166.337 249.392 166.691 249.483C167.045 249.573 167.42 249.523 167.738 249.343C173.185 245.452 178.388 241.869 184.63 239.842C179.377 246.749 168.953 255.828 177.805 262.784C177.959 262.931 178.145 263.042 178.347 263.108C178.55 263.174 178.765 263.194 178.977 263.166C179.189 263.138 179.391 263.063 179.57 262.946C179.749 262.83 179.899 262.674 180.009 262.492C181.04 260.137 182.352 257.916 183.916 255.877C189.039 250.008 193.465 251.986 198.215 256.331C200.679 258.585 202.802 261.292 205.704 263.059C212.902 267.405 222.661 266.61 230.264 263.838C239.018 260.595 246.265 254.45 253.236 248.467C260.839 241.982 269.252 235.74 273.337 226.336C273.48 226.023 273.511 225.67 273.425 225.337C273.34 225.004 273.143 224.71 272.867 224.504Z" fill="#282828"/>
<path d="M240.996 169.119C234.512 179.463 234.155 192.888 231.691 204.594C230.264 211.322 228.205 218.813 223.099 223.791C221.402 225.47 219.37 226.772 217.135 227.61C214.899 228.449 212.512 228.804 210.13 228.655C209.994 228.556 209.827 228.51 209.66 228.525C209.06 228.525 208.476 228.525 207.909 228.525C206.379 228.307 204.867 227.977 203.386 227.536C195.28 224.699 188.099 216.916 179.069 215.733C173.606 215.019 164.998 214.808 161.545 219.98C161.221 220.483 161.966 221.034 162.372 220.613C169.294 213.495 185.067 219.202 191.714 223.093C196.318 225.817 202.527 231.784 208.46 230.665C212.433 231.185 216.47 230.505 220.053 228.71C223.636 226.916 226.599 224.09 228.562 220.597C232.68 213.787 233.993 205.761 235.338 198.044C236.75 188.444 239.241 179.035 242.763 169.994C243.282 168.843 241.547 168.195 240.996 169.119Z" fill="white"/>
<path d="M280.973 208.323C276.774 213.268 274.585 220.24 271.132 225.801C267.245 232.579 262.523 238.843 257.077 244.446C243.379 257.66 223.212 265.394 204.796 258.552C204.164 258.309 203.71 259.347 204.326 259.655C220.878 267.842 239.391 261.13 253.365 250.559C267.339 239.988 274.521 224.326 282.351 209.377C282.788 208.55 281.654 207.529 280.973 208.323Z" fill="white"/>
</g>
<defs>
<clipPath id="clip0">
<rect width="350" height="313" fill="white" transform="translate(0 44)"/>
</clipPath>
</defs>
</svg>
