<svg width="350" height="400" viewBox="0 0 350 400" fill="none" xmlns="http://www.w3.org/2000/svg">
<g clip-path="url(#clip0)">
<g clip-path="url(#clip1)">
<path d="M341.629 156.495C331.24 133.905 313.486 115.528 291.287 104.386C264.582 81.4153 228.969 69.8061 195.368 61.0948C175.754 55.7677 155.782 51.8643 135.607 49.4149C116.681 47.3651 97.3311 46.835 79.3748 54.1328C50.3413 65.9364 21.4843 85.0377 10.5835 115.854C5.08017 131.651 3.42212 150.965 7.42613 167.327C9.66626 176.551 13.829 185.139 16.4572 194.221C19.985 206.59 18.5033 216.574 13.1058 228.094C5.29183 244.74 -1.76369 260.731 0.388245 279.497C2.13549 294.505 9.33747 308.343 20.62 318.371C49.8298 344.646 93.3271 343.886 129.981 341.112C152.083 339.685 174.064 336.763 195.773 332.365C217.169 327.789 237.789 321.056 258.532 314.201C289.947 303.811 324.272 292.625 339.53 260.413C354.981 227.829 356.498 189.468 341.629 156.495Z" fill="#FAF0D0"/>
<path d="M329.458 38H131.444V304.853H329.458V38Z" fill="#282828"/>
<path d="M319.633 51.2349H141.251V291.636H319.633V51.2349Z" fill="#C98CD2"/>
<path d="M205.104 75.1071C205.104 75.7404 204.916 76.3595 204.565 76.8858C204.213 77.4121 203.713 77.822 203.129 78.0636C202.545 78.3051 201.902 78.3674 201.282 78.2426C200.662 78.1177 200.093 77.8114 199.648 77.3623C199.202 76.9132 198.899 76.3417 198.778 75.7202C198.657 75.0986 198.723 74.455 198.967 73.8709C199.211 73.2868 199.623 72.7885 200.151 72.4392C200.678 72.0899 201.297 71.9053 201.929 71.9088C202.347 71.9088 202.762 71.9917 203.148 72.1526C203.534 72.3136 203.885 72.5494 204.18 72.8466C204.475 73.1439 204.709 73.4966 204.867 73.8845C205.026 74.2724 205.106 74.6879 205.104 75.1071Z" fill="#FFE36E"/>
<path d="M243.416 121.933C243.416 122.457 243.261 122.969 242.97 123.405C242.679 123.841 242.266 124.181 241.782 124.381C241.299 124.582 240.767 124.635 240.254 124.532C239.74 124.43 239.269 124.178 238.899 123.807C238.529 123.436 238.277 122.964 238.175 122.45C238.073 121.936 238.125 121.403 238.325 120.918C238.526 120.434 238.865 120.02 239.3 119.729C239.735 119.438 240.247 119.282 240.77 119.282C241.472 119.282 242.145 119.561 242.641 120.059C243.137 120.556 243.416 121.23 243.416 121.933Z" fill="#FFE36E"/>
<path d="M212.354 165.048C214.273 165.048 215.829 163.489 215.829 161.567C215.829 159.644 214.273 158.086 212.354 158.086C210.435 158.086 208.879 159.644 208.879 161.567C208.879 163.489 210.435 165.048 212.354 165.048Z" fill="#FFE36E"/>
<path d="M297.337 129.884C297.334 130.324 297.201 130.753 296.954 131.116C296.708 131.48 296.36 131.763 295.953 131.929C295.547 132.094 295.101 132.136 294.671 132.048C294.241 131.96 293.846 131.747 293.537 131.435C293.228 131.123 293.018 130.726 292.934 130.294C292.85 129.863 292.895 129.416 293.063 129.011C293.232 128.605 293.517 128.258 293.882 128.014C294.247 127.77 294.676 127.64 295.115 127.64C295.706 127.645 296.271 127.883 296.688 128.304C297.104 128.724 297.338 129.292 297.337 129.884Z" fill="#FFE36E"/>
<path d="M292.081 193.85C296.153 193.85 299.454 190.543 299.454 186.464C299.454 182.384 296.153 179.078 292.081 179.078C288.009 179.078 284.708 182.384 284.708 186.464C284.708 190.543 288.009 193.85 292.081 193.85Z" fill="#FFE36E"/>
<path d="M245.726 206.731C245.755 207.08 245.712 207.43 245.599 207.761C245.486 208.092 245.306 208.395 245.069 208.653C244.833 208.91 244.546 209.116 244.227 209.256C243.907 209.397 243.562 209.469 243.213 209.469C242.864 209.469 242.519 209.397 242.199 209.256C241.879 209.116 241.592 208.91 241.356 208.653C241.12 208.395 240.94 208.092 240.826 207.761C240.713 207.43 240.67 207.08 240.699 206.731C240.752 206.1 241.04 205.511 241.505 205.083C241.971 204.654 242.58 204.416 243.213 204.416C243.845 204.416 244.455 204.654 244.92 205.083C245.386 205.511 245.673 206.1 245.726 206.731Z" fill="#FFE36E"/>
<path d="M290.017 244.757C291.595 244.757 292.875 243.476 292.875 241.895C292.875 240.314 291.595 239.032 290.017 239.032C288.439 239.032 287.16 240.314 287.16 241.895C287.16 243.476 288.439 244.757 290.017 244.757Z" fill="#FFE36E"/>
<path d="M267.034 270.927C267.037 271.368 266.91 271.8 266.668 272.168C266.426 272.537 266.08 272.825 265.674 272.996C265.268 273.167 264.821 273.214 264.389 273.13C263.956 273.046 263.559 272.835 263.246 272.525C262.934 272.214 262.72 271.817 262.633 271.385C262.546 270.953 262.589 270.504 262.756 270.096C262.924 269.688 263.209 269.34 263.575 269.094C263.941 268.849 264.371 268.718 264.811 268.718C265.398 268.718 265.96 268.95 266.377 269.364C266.793 269.777 267.029 270.339 267.034 270.927Z" fill="#FFE36E"/>
<path d="M292.582 90.4962C294.585 78.0781 286.16 66.3844 273.764 64.3775C261.368 62.3707 249.695 70.8107 247.691 83.2288C245.688 95.6469 254.113 107.341 266.509 109.347C278.905 111.354 290.578 102.914 292.582 90.4962Z" fill="#E6E5EA"/>
<path d="M256.962 95.7811C258.374 98.0252 258.726 100.322 257.827 100.888C256.927 101.453 255.022 100.11 253.629 97.8661C252.235 95.622 251.865 93.3249 252.764 92.7418C253.664 92.1587 255.569 93.5193 256.962 95.7811Z" fill="#D2CEDB"/>
<path d="M261.813 103.856C263.206 104.775 264.159 105.8 263.93 106.136C263.7 106.471 262.395 106.012 261.002 105.093C259.608 104.174 258.656 103.167 258.867 102.831C259.079 102.496 260.402 102.937 261.813 103.856Z" fill="#D2CEDB"/>
<path d="M276.929 105.57C278.464 104.916 279.84 104.669 279.998 105.058C280.157 105.447 279.046 106.277 277.511 106.931C275.977 107.585 274.601 107.814 274.442 107.443C274.283 107.072 275.377 106.224 276.929 105.57Z" fill="#D2CEDB"/>
<path d="M278.958 102.089C280.387 101.206 281.71 100.764 281.921 101.117C282.133 101.471 281.163 102.46 279.752 103.344C278.34 104.227 277 104.651 276.788 104.316C276.577 103.98 277.547 102.973 278.958 102.089Z" fill="#D2CEDB"/>
<path d="M284.496 98.9087C285.678 97.7248 286.86 97.0003 287.16 97.2831C287.46 97.5658 286.719 98.7673 285.537 99.9689C284.355 101.17 283.173 101.877 282.891 101.595C282.609 101.312 283.314 100.11 284.496 98.9087Z" fill="#D2CEDB"/>
<path d="M184.89 203.975C184.89 203.975 209.69 198.214 216.746 215.513C223.801 232.812 253.628 325.068 243.733 332.401C238.036 336.677 211.86 332.701 211.86 332.701L177.834 247.125L184.89 203.975Z" fill="#ED9996"/>
<path d="M197.749 297.237L243.416 284.409C236.149 256.137 220.732 225.073 216.817 215.496C209.761 198.197 184.961 203.957 184.961 203.957L177.905 247.107L197.749 297.237Z" fill="#005784"/>
<path d="M215.811 222.97C215.48 222.261 214.969 221.652 214.329 221.203C213.412 220.496 212.283 220.302 212.371 219.206C212.459 218.111 213.923 217.298 213.394 216.291C212.865 215.284 211.771 215.955 211.154 216.291C209.39 217.051 209.284 217.616 207.15 216.626C206.672 216.294 206.109 216.104 205.527 216.079C205.442 216.083 205.361 216.121 205.302 216.183C205.243 216.246 205.21 216.328 205.21 216.414C205.21 217.351 205.439 219.312 205.474 219.524C205.81 221.291 205.263 220.903 204.398 222.299C203.853 223.173 203.635 224.212 203.781 225.232C203.786 225.321 203.812 225.407 203.859 225.483C203.906 225.559 203.971 225.622 204.048 225.666C204.126 225.71 204.213 225.734 204.302 225.735C204.391 225.736 204.479 225.715 204.557 225.674C207.485 224.313 207.309 226.327 208.085 228.041C208.246 228.404 208.489 228.724 208.795 228.975C209.102 229.227 209.462 229.403 209.849 229.49C209.952 229.517 210.061 229.503 210.154 229.45C210.246 229.397 210.314 229.31 210.343 229.208C210.606 228.372 210.749 227.503 210.766 226.628C210.766 226.098 210.396 223.977 210.766 223.694C211.136 223.412 212.777 223.854 213.236 223.854C214.022 223.846 214.804 223.739 215.564 223.535C215.626 223.529 215.686 223.507 215.737 223.47C215.788 223.433 215.828 223.383 215.853 223.325C215.878 223.268 215.888 223.204 215.88 223.142C215.873 223.079 215.849 223.02 215.811 222.97Z" fill="#FFE36E"/>
<path d="M225.989 264.654C225.989 264.3 225.477 264.389 225.371 264.654C224.436 267.004 221.35 266.421 220.08 264.654C219.597 263.997 219.326 263.209 219.304 262.394C219.282 261.579 219.51 260.776 219.956 260.095C220.767 259.088 221.72 259.123 222.743 258.946C222.824 258.921 222.895 258.874 222.95 258.809C223.004 258.745 223.039 258.666 223.05 258.583C223.061 258.499 223.048 258.414 223.012 258.337C222.977 258.261 222.92 258.196 222.849 258.151C221.746 257.42 220.466 257.005 219.145 256.95C218.451 256.778 217.72 256.831 217.058 257.101C216.396 257.371 215.836 257.843 215.458 258.451C214.777 259.776 214.466 261.261 214.56 262.748C214.653 264.235 215.146 265.669 215.987 266.898C217.398 269.036 220.027 270.891 222.655 269.866C223.704 269.483 224.598 268.765 225.2 267.824C225.802 266.882 226.079 265.768 225.989 264.654Z" fill="#FFE36E"/>
<path d="M203.094 290.364C212.742 288.084 231.104 283.896 240.241 281.811C240.961 281.646 241.707 281.625 242.435 281.749C243.164 281.873 243.861 282.14 244.487 282.534C245.112 282.927 245.654 283.441 246.082 284.045C246.51 284.648 246.814 285.33 246.979 286.052L247.261 287.254C247.586 288.669 247.353 290.156 246.61 291.404C245.868 292.652 244.673 293.564 243.275 293.951L206.939 304.129C205.568 304.507 204.106 304.353 202.843 303.698C201.581 303.042 200.612 301.934 200.13 300.595L199.09 297.767C198.817 297.02 198.706 296.222 198.763 295.428C198.821 294.634 199.047 293.861 199.426 293.161C199.804 292.461 200.327 291.85 200.959 291.368C201.592 290.885 202.319 290.543 203.094 290.364Z" fill="#036C8C"/>
<path d="M128.481 200.193C128.481 200.193 69.3736 204.416 44.6969 255.112C28.1165 289.162 35.4013 342.455 35.4013 342.455L168.116 343.038C168.116 343.038 158.256 289.551 184.89 268.718C211.525 247.885 188.824 197.525 128.481 200.193Z" fill="#005784"/>
<path d="M171.22 257.321C170.906 256.606 170.399 255.994 169.756 255.554C168.839 254.847 167.71 254.652 167.798 253.557C167.886 252.461 169.333 251.649 168.821 250.641C168.31 249.634 167.198 250.306 166.563 250.641C164.8 251.419 164.694 251.984 162.559 250.995C162.088 250.662 161.531 250.472 160.954 250.447C160.87 250.447 160.789 250.48 160.73 250.54C160.67 250.6 160.637 250.681 160.637 250.765C160.637 251.719 160.866 253.681 160.901 253.893C161.219 255.66 160.672 255.271 159.825 256.667C159.283 257.535 159.064 258.568 159.208 259.582C159.204 259.675 159.226 259.767 159.27 259.848C159.314 259.93 159.379 259.998 159.459 260.045C159.539 260.092 159.629 260.116 159.722 260.116C159.814 260.115 159.905 260.09 159.984 260.042C162.912 258.681 162.736 260.696 163.512 262.41C163.673 262.772 163.916 263.092 164.222 263.344C164.529 263.595 164.889 263.772 165.276 263.859C165.378 263.877 165.484 263.859 165.574 263.808C165.665 263.756 165.734 263.674 165.77 263.576C166.025 262.739 166.167 261.871 166.193 260.996C166.193 260.448 165.823 258.345 166.193 258.063C166.563 257.78 168.204 258.222 168.662 258.222C169.443 258.213 170.219 258.106 170.973 257.904C171.042 257.908 171.111 257.891 171.17 257.854C171.229 257.818 171.276 257.764 171.303 257.7C171.33 257.636 171.336 257.565 171.322 257.497C171.307 257.429 171.271 257.367 171.22 257.321Z" fill="#FFE36E"/>
<path d="M49.089 328.796C48.7609 328.091 48.2566 327.482 47.625 327.029C46.6901 326.322 45.5613 326.11 45.6671 325.032C45.7729 323.954 47.2017 323.106 46.6901 322.117C46.1786 321.127 45.0674 321.763 44.4324 322.117C42.6685 322.894 42.5627 323.442 40.4284 322.452C39.9484 322.126 39.3857 321.942 38.8056 321.922C38.7214 321.922 38.6406 321.956 38.5811 322.015C38.5216 322.075 38.4881 322.156 38.4881 322.24C38.5205 323.282 38.6148 324.32 38.7703 325.35C39.0878 327.117 38.541 326.729 37.6944 328.124C37.1505 328.967 36.9194 329.974 37.0417 330.969C37.0433 331.06 37.068 331.149 37.1135 331.227C37.159 331.305 37.2238 331.37 37.3016 331.416C37.3794 331.462 37.4677 331.488 37.5581 331.49C37.6485 331.492 37.7379 331.471 37.8178 331.429C40.7459 330.05 40.5695 332.083 41.3456 333.779C41.5053 334.142 41.7482 334.463 42.0547 334.714C42.3611 334.966 42.7225 335.142 43.1095 335.228C43.1604 335.244 43.2141 335.249 43.2672 335.243C43.3203 335.238 43.3716 335.221 43.418 335.194C43.4643 335.168 43.5047 335.132 43.5366 335.089C43.5685 335.046 43.5912 334.997 43.6034 334.945C43.8893 334.119 44.0556 333.256 44.0972 332.383C44.0972 331.835 43.7445 329.715 44.0972 329.432C44.45 329.149 46.1257 329.609 46.5667 329.591C47.353 329.583 48.1353 329.476 48.895 329.273C48.9417 329.258 48.9846 329.233 49.0206 329.2C49.0566 329.166 49.0848 329.125 49.1033 329.08C49.1218 329.034 49.1301 328.985 49.1277 328.936C49.1252 328.887 49.112 328.839 49.089 328.796Z" fill="#FFE36E"/>
<path d="M64.576 250.677C64.2572 249.965 63.751 249.355 63.112 248.91C62.1947 248.203 61.0659 248.008 61.154 246.931C61.2422 245.853 62.6886 245.005 62.1771 243.997C61.6656 242.99 60.5543 243.662 59.9193 243.997C58.1555 244.757 58.0496 245.323 55.9153 244.333C55.4459 243.998 54.8864 243.814 54.3102 243.803C54.226 243.803 54.1452 243.837 54.0857 243.896C54.0261 243.956 53.9927 244.037 53.9927 244.121C53.9927 245.058 54.222 247.019 54.2573 247.231C54.5748 248.998 54.028 248.609 53.1813 250.005C52.6399 250.881 52.4157 251.917 52.5463 252.938C52.5493 253.03 52.5759 253.119 52.6235 253.197C52.6712 253.276 52.7383 253.34 52.8182 253.385C52.8982 253.429 52.9883 253.452 53.0797 253.451C53.1712 253.451 53.2609 253.426 53.3401 253.38C56.2681 252.02 56.0917 254.034 56.8678 255.748C57.0287 256.111 57.272 256.43 57.5783 256.682C57.8845 256.934 58.2453 257.11 58.6317 257.197C58.7344 257.22 58.8418 257.203 58.9331 257.151C59.0244 257.099 59.093 257.014 59.1256 256.914C59.3806 256.077 59.523 255.209 59.5489 254.334C59.5489 253.804 59.1785 251.684 59.5489 251.401C59.9193 251.118 61.5597 251.56 62.0184 251.56C62.7988 251.551 63.5751 251.444 64.329 251.242C64.3989 251.254 64.4707 251.242 64.533 251.208C64.5953 251.175 64.6446 251.121 64.6729 251.056C64.7013 250.991 64.7072 250.918 64.6896 250.85C64.6721 250.781 64.6321 250.72 64.576 250.677Z" fill="#FFE36E"/>
<path d="M128.34 258.01C128.34 257.656 127.811 257.762 127.723 258.01C126.77 260.36 123.701 259.777 122.431 258.01C121.939 257.358 121.662 256.568 121.64 255.75C121.618 254.933 121.851 254.129 122.308 253.451C123.119 252.444 124.072 252.479 125.077 252.302C125.158 252.277 125.229 252.23 125.284 252.165C125.338 252.101 125.373 252.022 125.384 251.939C125.395 251.855 125.382 251.77 125.346 251.693C125.311 251.617 125.254 251.552 125.183 251.507C124.08 250.777 122.8 250.361 121.479 250.306C120.783 250.136 120.051 250.191 119.389 250.465C118.726 250.738 118.167 251.214 117.792 251.825C117.119 253.15 116.814 254.632 116.91 256.115C117.007 257.598 117.5 259.028 118.339 260.254C119.733 262.392 122.378 264.247 125.007 263.24C126.053 262.849 126.945 262.127 127.546 261.183C128.147 260.24 128.426 259.126 128.34 258.01Z" fill="#FFE36E"/>
<path d="M162.559 335.44C162.559 335.087 162.048 335.193 161.942 335.44C161.007 337.79 157.92 337.207 156.65 335.44C156.168 334.783 155.897 333.995 155.875 333.18C155.853 332.365 156.081 331.563 156.527 330.881C157.338 329.874 158.291 329.909 159.314 329.732C159.394 329.708 159.466 329.66 159.52 329.596C159.575 329.531 159.61 329.452 159.621 329.369C159.632 329.285 159.619 329.2 159.583 329.124C159.548 329.047 159.491 328.982 159.42 328.937C158.317 328.207 157.036 327.791 155.716 327.736C155.02 327.563 154.287 327.617 153.624 327.891C152.961 328.164 152.402 328.642 152.029 329.255C151.348 330.577 151.037 332.059 151.13 333.543C151.223 335.027 151.717 336.459 152.558 337.684C153.969 339.822 156.598 341.677 159.226 340.67C160.276 340.284 161.171 339.563 161.773 338.618C162.375 337.673 162.651 336.557 162.559 335.44Z" fill="#FFE36E"/>
<path d="M142.874 250.147C142.874 250.147 128.34 279.037 126.382 294.763C124.424 310.49 128.552 341.554 128.552 341.554" stroke="#002B56" stroke-linecap="round" stroke-linejoin="round"/>
<path d="M115.199 203.109C115.834 207.049 121.973 248.044 142.804 247.92C155.98 247.92 170.391 213.623 170.391 213.623L115.199 203.109Z" fill="#ED9996"/>
<path d="M142.875 247.92L146.014 238.025C146.014 238.025 162.03 225.656 164.394 218.252C164.481 217.999 164.546 217.739 164.588 217.475C165.981 210.248 164.835 225.126 164.835 225.126C164.835 225.126 158.079 247.284 142.875 247.92Z" fill="#036C8C"/>
<path d="M141.005 247.832V238.997C141.005 238.997 124.072 214.365 120.173 205.424C116.275 196.483 115.199 210.725 115.199 210.725C115.199 210.725 120.932 245.888 141.005 247.832Z" fill="#036C8C"/>
<path d="M177.835 111.967C177.835 111.967 127.123 68.8166 90.399 72.0325C53.675 75.2485 49.3888 141.635 51.1526 144.126C52.9165 146.618 72.6367 122.922 74.0831 124.831C75.5295 126.739 87.8237 166.691 87.8237 166.691L177.835 111.967Z" fill="#005784"/>
<path d="M96.2199 144.515C95.9011 143.804 95.395 143.193 94.7559 142.748C93.8387 142.041 92.7098 141.847 92.798 140.769C92.8862 139.691 94.3326 138.843 93.821 137.836C93.3095 136.829 92.1983 137.5 91.5809 137.836C89.817 138.596 89.6936 139.161 87.5769 138.171C87.101 137.836 86.5358 137.652 85.9541 137.641C85.8699 137.641 85.7892 137.675 85.7296 137.735C85.6701 137.794 85.6366 137.875 85.6366 137.959C85.6366 138.896 85.8659 140.857 85.9012 141.069C86.2187 142.836 85.6896 142.448 84.8253 143.844C84.2802 144.718 84.0615 145.757 84.2079 146.777C84.2124 146.866 84.2392 146.952 84.2859 147.028C84.3326 147.104 84.3976 147.167 84.475 147.211C84.5523 147.255 84.6395 147.279 84.7285 147.28C84.8175 147.281 84.9054 147.26 84.984 147.219C87.912 145.858 87.7357 147.872 88.5118 149.586C88.6726 149.949 88.9159 150.269 89.2222 150.52C89.5285 150.772 89.8892 150.948 90.2756 151.035C90.3783 151.058 90.4858 151.042 90.577 150.989C90.6683 150.937 90.737 150.853 90.7695 150.753C91.0245 149.915 91.1669 149.048 91.1929 148.173C91.1929 147.643 90.8224 145.522 91.1929 145.239C91.5633 144.957 93.2037 145.399 93.6623 145.399C94.4428 145.39 95.219 145.283 95.973 145.08C96.0428 145.092 96.1146 145.08 96.1769 145.047C96.2392 145.013 96.2885 144.959 96.3169 144.894C96.3453 144.829 96.3512 144.757 96.3336 144.688C96.316 144.619 96.276 144.558 96.2199 144.515Z" fill="#FFE36E"/>
<path d="M71.8076 113.84C72.1458 113.125 72.2801 112.33 72.1957 111.543C72.1957 110.394 71.543 109.405 72.425 108.769C73.3069 108.132 74.8768 108.769 75.3001 107.62C75.7234 106.471 74.4887 106.171 73.8714 105.853C72.1075 105.04 71.6489 105.305 70.9962 103.043C70.9347 102.467 70.708 101.921 70.3436 101.471C70.2797 101.416 70.1984 101.386 70.1143 101.386C70.0302 101.386 69.9489 101.416 69.885 101.471C69.1794 102.089 67.8565 103.556 67.7154 103.715C66.5865 105.128 66.5336 104.457 64.9285 104.722C63.9103 104.883 62.9804 105.395 62.3003 106.171C62.2346 106.233 62.1856 106.31 62.1581 106.396C62.1306 106.482 62.1254 106.573 62.1431 106.662C62.1608 106.75 62.2007 106.833 62.259 106.902C62.3174 106.97 62.3923 107.023 62.4767 107.055C65.4224 108.362 63.782 109.564 63.0235 111.313C62.8538 111.659 62.7655 112.04 62.7655 112.426C62.7655 112.812 62.8538 113.193 63.0235 113.539C63.0728 113.635 63.1568 113.709 63.2584 113.745C63.36 113.781 63.4716 113.777 63.5703 113.734C64.3623 113.38 65.1037 112.923 65.7752 112.373C66.1985 112.02 67.539 110.341 68.0506 110.5C68.5621 110.659 69.25 112.126 69.5499 112.479C70.0734 113.061 70.6657 113.578 71.3137 114.017C71.3566 114.043 71.4048 114.06 71.4549 114.065C71.5051 114.07 71.5557 114.064 71.6032 114.047C71.6507 114.03 71.6937 114.003 71.7291 113.967C71.7645 113.931 71.7913 113.888 71.8076 113.84Z" fill="#FFE36E"/>
<path d="M152.593 104.051C152.593 103.697 152.082 103.803 151.976 104.051C151.041 106.401 147.954 105.818 146.684 104.051C146.202 103.394 145.931 102.606 145.909 101.791C145.887 100.976 146.115 100.173 146.561 99.4918C147.372 98.4846 148.325 98.5376 149.348 98.3432C149.718 98.3432 149.736 97.7248 149.348 97.5481C148.245 96.8175 146.965 96.4021 145.644 96.3465C144.95 96.1751 144.22 96.2302 143.561 96.5035C142.901 96.7769 142.345 97.2543 141.975 97.8661C141.293 99.1875 140.983 100.669 141.076 102.154C141.169 103.638 141.663 105.069 142.504 106.295C143.915 108.433 146.543 110.306 149.171 109.281C150.238 108.91 151.152 108.195 151.771 107.249C152.39 106.303 152.679 105.179 152.593 104.051Z" fill="#FFE36E"/>
<path d="M105.216 78.7295C101.018 75.1955 93.5212 80.8146 96.0964 85.7975C96.0788 85.9501 96.0788 86.1043 96.0964 86.2569C96.1189 86.3787 96.1833 86.4888 96.2783 86.568C96.3734 86.6473 96.4931 86.6907 96.6168 86.6907C96.7404 86.6907 96.8602 86.6473 96.9552 86.568C97.0503 86.4888 97.1146 86.3787 97.1371 86.2569C97.1371 84.0482 100.947 82.1398 102.834 82.7229C106.098 83.7478 103.981 88.0239 101.864 89.0311C101.635 89.1371 101.776 89.4375 101.988 89.4552C107.138 90.0206 108.479 81.486 105.216 78.7295Z" fill="#FFE36E"/>
<path d="M112.659 104.581C112.43 104.192 111.531 104.068 111.195 103.821C110.461 103.263 109.888 102.518 109.538 101.663C109.187 100.809 109.072 99.8761 109.202 98.9617C109.202 98.9151 109.19 98.8692 109.169 98.8278C109.147 98.7864 109.116 98.7506 109.079 98.7231C109.041 98.6957 108.998 98.6774 108.952 98.6698C108.906 98.6621 108.859 98.6653 108.814 98.679C107.27 99.2705 105.873 100.193 104.722 101.382C104.387 101.595 104.069 101.824 103.752 102.054C102.094 102.054 100.436 102.054 98.7777 102.054C98.6949 102.057 98.6139 102.078 98.5403 102.117C98.4667 102.155 98.4023 102.208 98.3518 102.274C98.3013 102.34 98.2659 102.416 98.2481 102.497C98.2302 102.578 98.2304 102.662 98.2486 102.743C98.9174 103.994 99.5065 105.287 100.012 106.613C100.206 108.009 98.7954 109.122 98.1074 110.147C98.0584 110.232 98.0323 110.328 98.0317 110.426C98.0312 110.525 98.0562 110.621 98.1042 110.707C98.1523 110.792 98.2218 110.864 98.3059 110.915C98.3899 110.965 98.4857 110.993 98.5837 110.995C99.889 110.995 101.23 110.624 102.517 110.624C103.805 110.624 104.034 110.783 104.951 111.772C105.633 112.77 106.598 113.539 107.721 113.981C107.847 114.015 107.981 113.999 108.096 113.936C108.211 113.874 108.297 113.77 108.338 113.645C109.185 111.331 107.826 108.238 110.102 106.913C110.825 106.507 112.465 106.401 112.765 105.5C112.889 105.005 112.889 105.146 112.659 104.581Z" fill="#FFE36E"/>
<path d="M188.735 124.725C188.735 124.725 198.86 140.628 193.745 167.557L168.116 141.688L188.735 124.725Z" fill="#282828"/>
<path d="M167.657 221.503C167.481 227.582 169.827 233.519 175.559 236.134C178.246 237.306 181.132 237.948 184.061 238.025C184.824 237.767 185.518 237.338 186.09 236.77C192.764 228.773 197.891 219.598 201.206 209.718C203.958 201.483 205.916 191.164 201.735 183.036C199.971 179.502 196.003 174.978 191.893 178.389C190.831 179.443 190.154 180.825 189.97 182.311C188.524 188.531 190.588 192.383 187.289 198.903C182.562 208.286 175.506 210.901 168.133 216.839C167.896 218.384 167.737 219.941 167.657 221.503Z" fill="#FFB1A5"/>
<path d="M188.294 211.166C192.435 203.146 194.981 194.396 195.791 185.404C196.144 182.757 196.297 180.087 196.249 177.417C195.515 177.197 194.735 177.174 193.989 177.351C193.243 177.527 192.557 177.898 191.998 178.424C190.937 179.479 190.259 180.86 190.076 182.347C188.629 188.566 190.693 192.419 187.395 198.939C182.667 208.322 175.612 210.937 168.239 216.874C168.002 218.42 167.843 219.977 167.763 221.539C167.674 224.115 168.112 226.683 169.05 229.084L170.02 228.589C177.671 224.682 184.021 218.628 188.294 211.166Z" fill="#ED9996"/>
<path d="M102.305 182.276C108.549 206.449 132.08 234.615 167.569 224.401C187.518 218.658 196.373 201.147 193.727 167.557C188.806 105.447 169.033 117.338 142.575 121.35C104.775 127.057 93.8562 149.657 102.305 182.276Z" fill="#FFB1A5"/>
<path d="M193.269 181.657C193.269 181.657 183.85 181.657 187.836 194.574C188.469 196.91 188.531 199.364 188.019 201.728C187.506 204.093 186.433 206.3 184.89 208.162C179.775 213.11 173.937 215.354 173.937 221.98C173.937 230.409 181.574 221.98 181.574 221.98L195.791 198.497L193.269 181.657Z" fill="#ED9996"/>
<path d="M189.106 138.613C186.001 127.605 181.733 120.943 176.582 116.967L106.027 134.408L105.392 135.45L112.448 180.12C112.941 178.495 123.031 164.765 123.578 154.516C123.631 154.516 177.27 156.389 189.106 138.613Z" fill="#ED9996"/>
<path d="M111.001 202.013C111.001 202.013 120.808 162.132 119.38 146.688C119.38 146.688 155.769 150.487 177.059 142.907C198.349 135.327 204.61 109.546 193.322 113.751C193.322 113.751 197.026 104.033 191.24 99.9158C185.455 95.7987 180.516 101.541 180.516 101.541C180.516 101.541 179.863 91.6462 171.026 90.9394C165.523 90.4624 162.665 97.071 161.289 102.125C160.531 104.881 158.256 108.238 155.469 107.585C121.055 99.4741 85.1428 139.214 87.4182 163.758C88.4412 174.678 93.6623 183.159 111.001 202.013Z" fill="#282828"/>
<path d="M193.321 113.751C193.321 113.751 197.025 104.033 191.24 99.9158C185.454 95.7987 180.515 101.541 180.515 101.541C180.515 101.541 179.863 91.6462 171.026 90.9394C165.522 90.4624 162.665 97.071 161.289 102.125C160.531 104.881 158.255 108.238 155.468 107.585C141.869 104.369 128.04 108.662 116.416 116.42C122.191 115.315 128.075 114.888 133.949 115.147C138.487 115.089 143.019 115.486 147.478 116.331C149.911 117.079 152.431 117.5 154.974 117.586C156.844 117.456 158.645 116.832 160.195 115.776C161.744 114.721 162.986 113.272 163.794 111.578C165.029 108.875 165.399 105.27 168.115 104.068C169.331 103.708 170.636 103.797 171.791 104.319C172.947 104.842 173.877 105.762 174.412 106.913C175.394 109.272 175.622 111.876 175.065 114.37C176.317 112.603 177.94 110.447 180.163 110.483C182.385 110.518 184.184 113.115 184.608 115.501C185.135 118.603 184.507 121.79 182.844 124.46C184.281 124.009 185.827 124.047 187.24 124.568C188.653 125.089 189.855 126.063 190.658 127.34C191.576 128.793 192.126 130.449 192.263 132.164C200.536 122.304 201.082 110.836 193.321 113.751Z" fill="#424242"/>
<path d="M119.75 192.083C122.942 201.377 120.067 210.795 113.347 213.11C106.626 215.425 98.6008 209.753 95.4082 200.441C92.2156 191.129 95.0907 181.728 101.829 179.36C108.567 176.993 116.575 182.788 119.75 192.083Z" fill="#FFB1A5"/>
<path d="M146.737 171.002C145.553 171.399 144.426 171.952 143.386 172.646C142.03 173.368 140.777 174.271 139.664 175.332C139.597 175.398 139.553 175.486 139.541 175.58C139.53 175.675 139.55 175.77 139.598 175.852C139.647 175.933 139.722 175.996 139.811 176.03C139.899 176.064 139.997 176.067 140.088 176.038C140.975 175.715 141.822 175.288 142.61 174.766C142.496 175.18 142.454 175.61 142.486 176.038C142.486 177.699 143.58 179.007 144.727 178.936C145.873 178.866 146.755 177.487 146.667 175.809C146.671 175.283 146.549 174.764 146.309 174.296C146.069 173.828 145.72 173.426 145.291 173.123C145.851 172.822 146.443 172.585 147.055 172.416C148.043 172.292 147.655 170.79 146.737 171.002Z" fill="#282828"/>
<path d="M186.054 169.218C183.603 168.17 181.001 167.52 178.346 167.292C178.262 167.29 178.179 167.312 178.107 167.356C178.035 167.4 177.977 167.463 177.94 167.539V167.68C177.915 167.723 177.902 167.772 177.902 167.822C177.902 167.871 177.915 167.92 177.94 167.963C178.66 168.572 179.544 168.953 180.48 169.059C180.005 169.746 179.781 170.576 179.845 171.409C179.845 173.07 180.939 174.377 182.103 174.324C183.267 174.271 184.131 172.858 184.043 171.179C184.019 170.775 183.936 170.376 183.796 169.995C184.396 170.172 184.978 170.331 185.56 170.455C186.142 170.578 186.795 169.571 186.054 169.218Z" fill="#282828"/>
<path d="M189.599 156.23C185.684 152.095 179.016 149.533 173.584 151.813C173.319 151.919 173.301 152.378 173.584 152.361C179.087 151.989 183.761 155.223 188.241 157.909C188.464 158.089 188.748 158.174 189.033 158.144C189.317 158.114 189.578 157.973 189.758 157.75C189.938 157.527 190.023 157.242 189.993 156.957C189.963 156.672 189.822 156.411 189.599 156.23Z" fill="#282828"/>
<path d="M148.501 155.682C142.169 154.499 134.284 159.411 131.568 165.118C131.49 165.347 131.492 165.595 131.574 165.821C131.656 166.048 131.813 166.24 132.018 166.366C132.224 166.491 132.466 166.543 132.705 166.512C132.944 166.481 133.165 166.37 133.332 166.196C135.012 163.675 137.218 161.548 139.797 159.962C142.376 158.375 145.267 157.368 148.272 157.008C148.995 156.919 149.33 155.824 148.501 155.682Z" fill="#282828"/>
<path d="M143.509 185.916C142.869 185.998 142.219 185.938 141.604 185.739C141.088 185.482 140.618 185.142 140.211 184.732C138.522 183.086 137.398 180.945 137.001 178.618C137.001 178.247 136.366 178.353 136.366 178.618C136.366 182.364 139.4 188.407 143.915 187.33C144.078 187.286 144.222 187.19 144.324 187.055C144.427 186.921 144.481 186.756 144.48 186.587C144.638 186.075 143.95 185.951 143.509 185.916Z" fill="#ED9996"/>
<path d="M140.476 188.195C139.454 187.931 138.564 187.303 137.971 186.428C137.154 185.625 136.606 184.588 136.401 183.46C136.401 183.248 136.048 183.159 135.995 183.46C135.537 185.881 137.759 189.468 140.264 189.662C141.111 189.662 141.305 188.195 140.476 188.195Z" fill="#ED9996"/>
<path d="M188.735 172.469C188.715 172.374 188.663 172.288 188.588 172.226C188.512 172.165 188.418 172.131 188.321 172.131C188.223 172.131 188.129 172.165 188.053 172.226C187.978 172.288 187.926 172.374 187.906 172.469C188.097 174.297 187.614 176.133 186.548 177.629C185.552 178.791 184.454 179.862 183.267 180.827C183.161 180.935 183.093 181.075 183.075 181.225C183.056 181.375 183.087 181.527 183.163 181.658C183.24 181.789 183.357 181.891 183.497 181.948C183.637 182.005 183.791 182.015 183.937 181.975C185.634 181.203 187.025 179.884 187.888 178.229C188.777 176.449 189.074 174.43 188.735 172.469Z" fill="#ED9996"/>
<path d="M190.499 178.247C190.129 179.396 189.053 179.802 188.083 180.332C187.113 180.862 186.742 181.781 187.8 182.223C188.859 182.665 189.811 181.552 190.34 180.951C190.669 180.606 190.924 180.198 191.09 179.751C191.257 179.305 191.332 178.829 191.311 178.353C191.298 178.26 191.256 178.174 191.19 178.108C191.124 178.042 191.038 178 190.946 177.988C190.853 177.976 190.759 177.994 190.678 178.041C190.598 178.088 190.535 178.161 190.499 178.247Z" fill="#ED9996"/>
<path d="M172.331 166.479C172.303 166.286 172.206 166.11 172.059 165.983C171.911 165.856 171.723 165.786 171.529 165.786C171.334 165.786 171.146 165.856 170.999 165.983C170.852 166.11 170.755 166.286 170.726 166.479C170.285 172.045 177.041 182.382 170.85 186.711C169.774 187.453 170.85 189.238 171.873 188.478C179.034 183.478 172.861 172.822 172.331 166.479Z" fill="#282828"/>
<path d="M171.996 203.462C168.469 198.603 163.935 194.998 157.48 196.271C153.317 197.101 147.743 200.246 148.131 205.106C148.141 205.186 148.177 205.261 148.233 205.319C148.29 205.377 148.364 205.415 148.444 205.427C148.524 205.439 148.605 205.424 148.676 205.385C148.747 205.347 148.803 205.286 148.837 205.212C149.93 201.678 154.234 199.345 157.656 198.656C162.948 197.56 166.987 200.582 169.774 204.788C170.673 206.183 172.966 204.823 171.996 203.462Z" fill="#282828"/>
<path d="M198.948 213.181C200.132 208.045 200.636 202.775 200.447 197.507C200.447 195.882 199.124 193.443 198.824 191.835C198.121 189.037 196.927 186.387 195.297 184.008C194.503 182.7 193.233 181.198 191.769 181.657C191.355 181.823 190.982 182.076 190.675 182.4C189.702 183.37 188.958 184.547 188.5 185.844C188.042 187.141 187.881 188.524 188.03 189.892C188.417 191.793 188.918 193.669 189.529 195.511C190.035 197.669 190.047 199.914 189.564 202.077C189.081 204.24 188.117 206.266 186.742 208.003C184.901 209.998 182.92 211.858 180.815 213.57C178.634 215.494 176.952 217.919 175.912 220.638C175.4 221.996 175.179 223.447 175.264 224.896C175.349 226.345 175.738 227.76 176.406 229.049" fill="#FFB1A5"/>
<path d="M201.082 196.889C200.315 193.349 198.987 189.955 197.149 186.835C197.149 186.658 196.778 186.835 196.831 186.976C197.907 190.793 199.883 194.239 200.2 198.267C200.339 202.279 200.061 206.294 199.371 210.248C199.371 210.831 200.324 210.972 200.43 210.389C201.359 205.952 201.58 201.395 201.082 196.889Z" fill="#282828"/>
<path d="M172.226 233.077C174.907 234.049 189.141 318.459 201.453 331.871C221.561 353.799 246.291 336.394 245.55 326.57C243.416 301.284 195.174 222.599 195.174 222.599L172.226 233.077Z" fill="#FFB1A5"/>
<path d="M70.0792 227.07C80.8918 213.676 110.437 211.926 109.749 238.378C109.061 264.83 105.445 307.486 105.445 307.486L177.764 293.986L185.913 318.547C185.913 318.547 94.9676 362.086 74.6476 346.819C48.9303 327.4 50.8705 250.783 70.0792 227.07Z" fill="#FFB1A5"/>
<path d="M55.8623 296.654C56.7266 309.836 59.3019 322.382 63.7998 332.118C73.0249 324.131 93.4859 313.123 105.48 306.92C105.692 304.517 106.644 292.784 107.615 278.648C102.323 276.528 97.2606 274.637 97.2606 274.637L55.8623 296.654Z" fill="#ED9996"/>
<path d="M227.541 293.88V294.198C227.979 293.524 228.276 292.768 228.413 291.976C228.55 291.184 228.525 290.372 228.338 289.59C228.152 288.808 227.808 288.072 227.328 287.427C226.848 286.782 226.243 286.242 225.548 285.84C225.555 285.734 225.555 285.628 225.548 285.522C227.894 281.988 223.184 278.56 223.184 278.56C223.466 276.793 220.256 274.673 220.256 274.673V280.751L223.255 283.437L210.907 281.953L190.711 307.044C191.752 310.578 192.828 313.865 193.886 316.886C199.833 315.396 205.074 311.871 208.703 306.92C212.33 306.752 215.945 306.387 219.533 305.825C226.006 304.871 226.588 300.524 226.588 300.524L224.048 296.99C224.875 296.883 225.651 296.53 226.274 295.975C226.897 295.42 227.338 294.69 227.541 293.88ZM224.013 287.801C224.313 287.687 224.584 287.509 224.809 287.281C225.034 287.052 225.208 286.778 225.318 286.476L226.87 291.777C225.618 290.858 222.478 288.402 224.136 287.801H224.013Z" fill="#ED9996"/>
<path d="M175.824 295.983L188.171 276.97C189.724 274.388 192.008 272.328 194.733 271.05C196.74 270.246 198.886 269.85 201.047 269.884C207.08 269.69 213.394 270.167 218.58 273.224C219.751 273.855 220.759 274.75 221.526 275.839C222.249 276.97 222.496 277.447 221.914 278.631C225.124 280.115 227.206 283.826 224.736 286.105C225.631 286.565 226.394 287.246 226.953 288.084C227.512 288.922 227.847 289.889 227.929 290.894C227.856 291.826 227.53 292.721 226.986 293.481C226.442 294.241 225.7 294.837 224.842 295.205C225.536 295.637 226.113 296.234 226.523 296.943C226.932 297.652 227.16 298.451 227.188 299.269C227.1 300.067 226.811 300.83 226.348 301.485C225.885 302.14 225.264 302.667 224.542 303.015C223.42 303.455 222.219 303.659 221.014 303.616C216.763 303.616 213.059 304.517 208.35 304.553C208.177 304.499 207.993 304.499 207.821 304.553C207.659 304.689 207.547 304.876 207.503 305.083C206.757 306.93 205.448 308.494 203.764 309.553C197.925 313.935 190.587 318.017 183.373 319.201" fill="#FFB1A5"/>
<path d="M221.508 275.75C220.742 274.662 219.733 273.767 218.562 273.135C213.271 270.078 207.062 269.601 201.029 269.796C198.868 269.762 196.722 270.158 194.715 270.962C191.99 272.24 189.706 274.3 188.153 276.881C186.001 280.203 183.849 283.543 181.68 286.865C186.876 281.667 193.142 277.668 200.042 275.15C201.8 274.442 203.656 274.007 205.545 273.86C207.269 273.831 208.989 274.033 210.66 274.461C214.564 275.334 218.361 276.632 221.984 278.33C222.408 277.305 222.249 276.811 221.508 275.75Z" fill="#FFCBBD"/>
<path d="M220.838 277.482C214.312 275.256 207.503 272.782 200.536 273.842C199.901 273.93 200.166 274.902 200.801 274.814C207.856 273.718 213.941 276.828 220.662 278.136C220.748 278.159 220.841 278.147 220.918 278.103C220.996 278.058 221.053 277.984 221.076 277.897C221.1 277.811 221.088 277.718 221.043 277.64C220.998 277.562 220.925 277.506 220.838 277.482Z" fill="#282828"/>
<path d="M223.255 285.381C217.63 283.053 211.446 282.438 205.475 283.614C204.84 283.737 205.122 284.656 205.739 284.568C211.565 283.848 217.473 284.214 223.166 285.646C223.192 285.637 223.215 285.622 223.234 285.603C223.253 285.584 223.267 285.56 223.275 285.535C223.284 285.509 223.286 285.482 223.283 285.455C223.279 285.429 223.27 285.403 223.255 285.381Z" fill="#282828"/>
<path d="M223.466 294.216C217.822 293.544 212.195 291.282 206.604 293.385C206.021 293.615 206.268 294.551 206.868 294.339C212.389 292.325 217.857 294.816 223.466 294.763C223.837 294.763 223.801 294.216 223.466 294.216Z" fill="#282828"/>
<path d="M109.749 238.29C110.437 211.785 80.8918 213.552 70.0792 226.981C56.9912 243.22 49.6358 283.737 53.5869 314.43L109.537 299.905C110.56 286.777 109.22 258.239 109.749 238.29Z" fill="#036C8C"/>
<path d="M100.136 239.898C99.8069 239.188 99.2955 238.578 98.6541 238.131C97.7369 237.424 96.608 237.212 96.6962 236.134C96.7844 235.056 98.2484 234.208 97.7192 233.219C97.1901 232.229 96.0965 232.865 95.4791 233.219C93.7152 233.996 93.6094 234.544 91.4751 233.554C90.9951 233.228 90.4324 233.044 89.8523 233.024C89.7681 233.024 89.6874 233.058 89.6278 233.117C89.5683 233.177 89.5348 233.258 89.5348 233.342C89.5348 234.279 89.7641 236.258 89.7994 236.452C90.1346 238.219 89.5878 237.848 88.7235 239.226C88.1784 240.101 87.9597 241.14 88.1061 242.16C88.1077 242.25 88.1324 242.339 88.1779 242.417C88.2234 242.495 88.2882 242.561 88.366 242.607C88.4438 242.653 88.5321 242.678 88.6225 242.68C88.7128 242.682 88.8023 242.661 88.8822 242.619C91.8102 241.241 91.6339 243.273 92.41 244.969C92.5673 245.334 92.8094 245.656 93.1163 245.908C93.4232 246.16 93.7858 246.335 94.1738 246.418C94.2248 246.434 94.2785 246.439 94.3316 246.434C94.3847 246.428 94.436 246.411 94.4823 246.385C94.5287 246.358 94.5691 246.322 94.601 246.28C94.6329 246.237 94.6556 246.188 94.6677 246.136C94.9297 245.306 95.0722 244.443 95.0911 243.573C95.0911 243.026 94.7206 240.905 95.0911 240.622C95.4615 240.34 97.1019 240.799 97.5605 240.781C98.3411 240.775 99.1177 240.668 99.8712 240.463C99.9383 240.468 100.005 240.451 100.063 240.417C100.121 240.383 100.167 240.332 100.195 240.271C100.224 240.21 100.234 240.142 100.223 240.075C100.212 240.009 100.182 239.947 100.136 239.898Z" fill="#FFE36E"/>
<path d="M76.1822 290.222C76.1822 289.869 75.6531 289.975 75.5472 290.222C74.6124 292.572 71.5432 291.989 70.2556 290.222C69.773 289.566 69.5024 288.777 69.4803 287.962C69.4583 287.147 69.6857 286.345 70.1321 285.663C70.9612 284.656 71.896 284.709 72.9191 284.515C72.9995 284.49 73.0712 284.442 73.1256 284.378C73.18 284.314 73.2148 284.235 73.2259 284.151C73.2371 284.068 73.224 283.982 73.1884 283.906C73.1528 283.829 73.096 283.765 73.0249 283.72C71.9223 282.989 70.6416 282.574 69.3207 282.518C68.6248 282.348 67.893 282.404 67.2306 282.677C66.5683 282.95 66.0093 283.426 65.6342 284.038C64.962 285.362 64.6564 286.842 64.7495 288.324C64.8426 289.807 65.3308 291.237 66.1634 292.466C67.5745 294.604 70.2203 296.477 72.8309 295.453C73.881 295.064 74.7762 294.343 75.3809 293.4C75.9856 292.456 76.2669 291.34 76.1822 290.222Z" fill="#FFE36E"/>
<path d="M53.7986 311.992C61.6831 307.557 90.4873 298.191 105.604 297.237C109.132 297.008 111.795 301.107 111.178 304.553C110.969 305.325 110.54 306.019 109.943 306.549C91.6162 312.84 73.2189 319.82 54.2748 328.336C54.0703 328.42 53.8489 328.455 53.6285 328.437C53.4081 328.42 53.195 328.351 53.0062 328.236C52.8174 328.12 52.6582 327.962 52.5416 327.774C52.4249 327.586 52.354 327.373 52.3346 327.153L51.241 315.702C51.2396 314.897 51.4837 314.11 51.9407 313.447C52.3978 312.783 53.0459 312.276 53.7986 311.992Z" fill="#0A949B"/>
</g>
</g>
<defs>
<clipPath id="clip0">
<rect width="350" height="400" fill="white"/>
</clipPath>
<clipPath id="clip1">
<rect width="352" height="312" fill="white" transform="translate(0 38)"/>
</clipPath>
</defs>
</svg>
