<svg width="350" height="400" viewBox="0 0 350 400" fill="none" xmlns="http://www.w3.org/2000/svg">
<g clip-path="url(#clip0)">
<path d="M332.063 206.925C329.186 134.546 295.302 61.7765 225.148 33.0206C205.788 24.9266 184.433 22.8688 163.883 27.1172C143.333 31.3655 124.548 41.7217 109.991 56.8273C93.5487 73.9048 85.21 93.8774 81.2364 115.219C80.6037 116.572 80.0418 117.956 79.553 119.366C76.1275 129.402 75.6381 140.395 74.7964 150.861C73.0935 171.01 69.668 188.498 54.948 203.169C29.7949 228.189 0.511545 266.647 18.6179 303.737C52.7752 373.69 139.059 373.396 205.534 368.917C242.608 366.413 278.879 358.568 304.052 328.913C332.826 294.953 333.786 249.14 332.063 206.925Z" fill="#FAF0D0"/>
<path d="M214.91 207.707C217.318 206.279 233.741 187.011 241.629 202.387C249.518 217.762 301.077 332.218 281.776 339.887C262.476 347.555 253.55 347.711 241.629 325.626C235.542 314.358 184.394 225.841 214.91 207.707Z" fill="#ED9996"/>
<path d="M262.378 249.354C253.354 227.132 244.526 208.04 241.629 202.406C233.799 187.031 217.318 206.318 214.91 207.727C198.507 217.508 201.091 247.75 212.189 275.235C223.953 273.748 248.402 261.307 262.378 249.354Z" fill="#9E1533"/>
<path d="M159.084 187.969C155.697 189.124 96.8763 190.767 73.7785 261.698C50.6807 332.629 61.1922 375.059 61.1922 375.059H203.244C203.244 375.059 189.542 271.831 227.222 242.038C264.903 212.246 159.084 187.969 159.084 187.969Z" fill="#9E1533"/>
<path d="M149.434 187.969C149.434 187.969 154.601 238.576 175.468 243.075C196.334 247.574 214.91 207.707 214.91 207.707L149.434 187.969Z" fill="#ED9996"/>
<path d="M249.42 166.667C248.754 176.585 242.843 184.272 236.207 183.842C229.571 183.412 224.717 174.98 225.383 165.063C226.048 155.145 231.96 147.457 238.595 147.907C245.231 148.357 250.085 156.749 249.42 166.667Z" fill="#ED9996"/>
<path d="M241.277 128.991C241.251 128.897 241.204 128.81 241.14 128.736C241.244 128.508 241.273 128.253 241.224 128.007C241.175 127.762 241.05 127.538 240.866 127.367C237.382 123.924 226.087 126.213 223.64 130.243C221.683 133.49 223.817 139.828 224.423 143.114C226.048 151.839 228.123 160.466 229.787 169.19C229.856 169.422 229.991 169.629 230.176 169.786C230.36 169.943 230.586 170.043 230.827 170.074C231.067 170.105 231.311 170.066 231.53 169.961C231.748 169.856 231.931 169.69 232.057 169.484C238.928 157.61 242.862 142.762 241.277 128.991Z" fill="#282828"/>
<path d="M237.382 154.304C237.597 178.658 237.382 215.082 197.254 220.129C169.85 223.572 145.088 200.685 138.531 168.486C131.758 135.563 150.98 105.399 179.05 101.8C207.12 98.2003 237.088 121.44 237.382 154.304Z" fill="#FFB1A5"/>
<path d="M212.444 195.188C209.997 191.98 206.062 192.645 202.657 193.623C199.642 194.464 197.156 195.579 193.985 194.934C191.953 194.17 189.743 194.014 187.623 194.484C186.067 194.871 184.708 195.818 183.806 197.144C183.422 197.395 183.091 197.72 182.834 198.1C182.577 198.48 182.398 198.908 182.309 199.358C182.219 199.808 182.221 200.272 182.313 200.721C182.406 201.171 182.587 201.597 182.847 201.976C184.296 204.421 188.093 204.577 190.442 203.56C193.691 202.152 194.729 199.413 198.898 199.178C200.78 199.165 202.659 199.309 204.516 199.609C206.65 199.824 210.76 200.665 212.639 199.1C214.049 197.966 213.462 196.596 212.444 195.188Z" fill="white"/>
<path d="M148.22 159.977C154.208 153.721 159.498 146.834 163.997 139.437C165.194 140.451 166.682 141.06 168.247 141.176C169.813 141.292 171.374 140.909 172.708 140.082C173.126 139.758 173.587 139.495 174.078 139.3C175.605 138.811 177.034 140.082 178.345 141.002C180.103 142.193 182.15 142.885 184.27 143.006C186.39 143.126 188.502 142.67 190.384 141.686C191.861 140.578 193.555 139.792 195.355 139.378C198.487 139.182 201.052 142.469 204.183 142.293C206.572 142.156 208.392 140.063 210.682 139.398C214.46 138.302 218.081 141.236 221.84 142.332C224.084 142.939 226.455 142.893 228.674 142.2C230.893 141.507 232.868 140.195 234.367 138.419C235.192 137.526 235.719 136.398 235.874 135.192C235.911 134.333 235.778 133.476 235.483 132.668C233.815 128.042 231.194 123.818 227.788 120.27C224.382 116.721 220.268 113.927 215.713 112.07C210.643 110.53 205.347 109.869 200.053 110.113C192.007 109.778 183.952 110.502 176.094 112.265C168.177 114.065 161.133 118.56 156.167 124.98C153.064 129.824 150.875 135.194 149.708 140.826" fill="#ED9996"/>
<path d="M250.692 117.156C252.219 112.285 249.4 107.375 245.544 104.401C243.371 102.778 239.026 102.582 237.323 101.056C235.013 98.9632 236.677 95.7355 235.365 92.8599C232.586 87.2066 226.185 86.8545 221.017 88.3216C216.143 89.73 219.197 90.2778 216.163 87.2066C213.129 84.1354 210.956 81.5728 206.826 80.0078C199.309 77.1714 195.629 80.0078 189.894 84.2723C185.823 87.3044 188.093 85.9351 182.749 83.7637C179.338 82.4909 175.646 82.1598 172.062 82.8052C165.152 84.018 163.762 87.8717 160.043 92.8404C156.931 97.007 155.756 94.7966 150.941 95.2465C149.004 95.383 147.125 95.9685 145.453 96.9565C143.782 97.9446 142.363 99.3081 141.31 100.939C139.678 103.52 139.116 106.636 139.744 109.624C140.704 114.73 141.33 112.872 136.515 115.845C130.486 119.601 127.706 124.394 129.409 131.201C130.055 133.822 131.19 135.818 131.034 138.713C131.034 140.278 130.309 141.882 130.231 143.505C130.199 146.975 130.54 150.438 131.249 153.834C131.895 157.746 132.541 164.358 135.301 168.271C136.378 168.427 138.139 168.466 138.55 168.486C139.451 168.486 142.778 171.303 143.659 171.205C147.991 165.508 151.339 159.128 153.564 152.328C155.267 147.046 156.539 143.545 158.105 138.635C160.219 131.925 161.355 135.583 167.031 135.798C171.749 135.974 168.401 135.25 172.179 134.233C178.228 132.59 178.052 135.172 183.728 136.189C186.345 136.716 189.058 136.499 191.558 135.563C192.446 135.131 193.309 134.648 194.142 134.116C198.057 132.023 195.551 131.436 199.877 133.431C202.461 134.644 203.792 136.541 206.943 136.522C210.095 136.502 210.76 134.566 213.383 133.744C218.845 132.16 221.096 138.087 225.911 139.417C229.826 140.473 233.741 139.417 237.538 138.576C242.119 137.598 247.599 134.566 247.678 129.01C247.678 126.506 245.896 125.333 246.523 122.887C246.797 121.146 250.027 119.249 250.692 117.156Z" fill="#282828"/>
<path d="M140.642 191.641C147.161 190.335 150.858 181.367 148.9 171.611C146.943 161.855 140.071 155.005 133.552 156.312C127.034 157.618 123.336 166.586 125.294 176.342C127.252 186.098 134.123 192.948 140.642 191.641Z" fill="#FFB1A5"/>
<path d="M237.401 138.459C241.982 137.48 247.462 134.448 247.541 128.893C247.541 126.389 245.759 125.215 246.386 122.77C246.797 121.166 250.027 119.268 250.692 117.175C252.219 112.304 249.4 107.394 245.544 104.421C243.371 102.797 239.026 102.602 237.323 101.076C235.013 98.9828 236.677 95.7551 235.365 92.8795C232.586 87.2262 226.185 86.8741 221.017 88.3412C216.143 89.7496 219.197 90.2974 216.163 87.2262C213.129 84.155 210.956 81.5924 206.826 80.0274C199.309 77.191 195.629 80.0274 189.894 84.2919C185.823 87.324 188.093 85.9546 182.749 83.7833C179.338 82.5105 175.646 82.1794 172.062 82.8248C169.435 83.174 166.991 84.3609 165.093 86.209C165.686 86.0496 166.287 85.9255 166.894 85.8373C176.681 84.5071 176.172 88.8889 182.397 91.5689C185.862 93.0556 187.212 92.3709 190.599 91.7449C194.419 89.4763 198.856 88.4636 203.283 88.8498C206.575 90.5019 209.165 93.2779 210.584 96.6745C211.23 97.144 211.406 98.2199 212.17 98.6307C218.884 101.624 220.92 93.7989 227.242 104.636C228.514 106.808 228.084 107.844 229.943 110.035C233.154 113.772 240.22 105.712 236.52 119.992C236.148 121.459 234.328 121.948 234.093 123.709C233.702 126.624 236.188 126.858 237.029 128.932C238.987 133.588 238.987 136.17 236.892 138.713L237.401 138.459Z" fill="#424242"/>
<path d="M179.696 171.205C179.696 173.455 178.404 175.274 176.818 175.274C175.233 175.274 173.96 173.455 173.96 171.205C173.96 168.955 175.252 167.156 176.818 167.156C178.384 167.156 179.696 168.975 179.696 171.205Z" fill="#282828"/>
<path d="M227.164 167.156C227.164 169.386 225.872 171.205 224.286 171.205C222.701 171.205 221.428 169.386 221.428 167.156C221.428 164.926 222.701 163.087 224.286 163.087C225.872 163.087 227.164 164.906 227.164 167.156Z" fill="#282828"/>
<path d="M229.376 151.428C226.546 151.769 223.678 151.286 221.115 150.039C219.157 148.529 217.436 146.735 216.006 144.718C215.752 144.444 215.262 144.718 215.399 145.129C216.238 147.843 217.9 150.229 220.156 151.956C222.998 153.569 226.3 154.182 229.532 153.697C229.833 153.676 230.114 153.537 230.312 153.31C230.51 153.082 230.61 152.785 230.589 152.484C230.568 152.183 230.429 151.903 230.201 151.705C229.974 151.507 229.677 151.407 229.376 151.428Z" fill="#282828"/>
<path d="M180.048 149.335C175.742 153.991 170.457 156.984 163.919 156.377C162.901 156.377 162.686 157.942 163.684 158.157C168.91 159.272 180.283 156.064 181.046 149.746C181.105 149.237 180.361 148.983 180.048 149.335Z" fill="#282828"/>
<path d="M207.394 170.912C206.474 166.08 206.787 161.131 206.356 156.201C206.356 156.103 206.317 156.008 206.247 155.938C206.177 155.869 206.083 155.829 205.984 155.829C205.886 155.829 205.791 155.869 205.721 155.938C205.651 156.008 205.612 156.103 205.612 156.201C205.071 160.497 204.999 164.839 205.397 169.151C206.082 175.02 209.155 181.964 200.934 183.862C200.765 183.917 200.62 184.03 200.526 184.18C200.431 184.331 200.392 184.51 200.415 184.686C200.438 184.862 200.522 185.025 200.653 185.146C200.783 185.267 200.952 185.338 201.13 185.348C203.012 185.304 204.821 184.61 206.249 183.383C207.676 182.156 208.634 180.472 208.96 178.619C209.253 176.076 207.863 173.337 207.394 170.912Z" fill="#282828"/>
<path d="M174.998 178.775C169.752 177.152 170.692 172.555 169.889 168.173C169.791 167.723 169.184 167.801 169.047 168.173C167.677 172.359 169.419 180.027 174.92 180.106C175.072 180.079 175.21 180.002 175.313 179.887C175.415 179.772 175.476 179.625 175.485 179.472C175.494 179.318 175.451 179.165 175.363 179.039C175.274 178.913 175.146 178.82 174.998 178.775Z" fill="#ED9996"/>
<path d="M171.377 181.299C169.047 179.577 166.268 178.228 166.229 174.902C166.211 174.835 166.172 174.775 166.117 174.733C166.062 174.69 165.995 174.667 165.925 174.667C165.856 174.667 165.788 174.69 165.733 174.733C165.678 174.775 165.639 174.835 165.622 174.902C165.387 178.286 168.069 180.771 170.868 182.179C170.984 182.241 171.12 182.256 171.247 182.22C171.374 182.183 171.482 182.099 171.548 181.985C171.614 181.871 171.633 181.735 171.601 181.607C171.569 181.479 171.489 181.369 171.377 181.299Z" fill="#ED9996"/>
<path d="M230.276 162.617C230.25 162.545 230.2 162.483 230.133 162.444C230.067 162.404 229.989 162.389 229.913 162.4C229.836 162.412 229.766 162.45 229.715 162.507C229.663 162.564 229.633 162.638 229.63 162.715C229.63 165.61 230.237 168.779 228.827 171.44C227.546 173.44 225.71 175.024 223.542 175.998C222.955 176.35 223.347 177.367 224.032 177.132C226.601 176.303 228.757 174.526 230.061 172.164C231.724 169.034 231.157 165.845 230.276 162.617Z" fill="#ED9996"/>
<path d="M231.509 174.511C230.983 175.239 230.364 175.897 229.669 176.467C228.99 176.992 228.23 177.402 227.418 177.68C227.229 177.791 227.081 177.961 226.998 178.164C226.915 178.368 226.902 178.592 226.96 178.804C227.018 179.016 227.144 179.202 227.319 179.335C227.494 179.468 227.707 179.539 227.927 179.538C229.063 179.348 230.109 178.802 230.914 177.979C231.72 177.156 232.243 176.1 232.41 174.961C232.439 174.902 232.457 174.837 232.461 174.772C232.466 174.706 232.458 174.64 232.437 174.577C232.416 174.514 232.383 174.456 232.34 174.406C232.296 174.356 232.244 174.316 232.184 174.286C232.125 174.256 232.061 174.239 231.995 174.234C231.929 174.229 231.863 174.238 231.8 174.259C231.737 174.28 231.68 174.313 231.63 174.356C231.58 174.399 231.539 174.452 231.509 174.511Z" fill="#ED9996"/>
<path d="M201.795 206.788C201.484 205.239 200.814 203.785 199.838 202.543C199.819 202.508 199.793 202.478 199.762 202.453C199.73 202.428 199.695 202.41 199.657 202.399C199.618 202.388 199.578 202.385 199.539 202.39C199.5 202.394 199.461 202.406 199.427 202.426C199.392 202.445 199.361 202.471 199.337 202.502C199.312 202.533 199.294 202.569 199.283 202.607C199.272 202.645 199.269 202.685 199.273 202.724C199.278 202.764 199.29 202.802 199.309 202.836C200.102 204.255 200.57 205.832 200.679 207.453C200.513 209.11 200.218 210.752 199.799 212.363C199.762 212.501 199.782 212.647 199.854 212.77C199.925 212.893 200.043 212.982 200.18 213.018C200.318 213.055 200.464 213.035 200.587 212.963C200.71 212.892 200.8 212.774 200.836 212.637C201.574 210.779 201.901 208.784 201.795 206.788Z" fill="#ED9996"/>
<path d="M207.256 207.864C207.004 206.745 206.408 205.733 205.554 204.969C205.103 204.48 204.457 205.106 204.692 205.634C205.032 206.377 205.25 207.169 205.338 207.981C205.29 208.781 205.131 209.571 204.868 210.329C204.751 211.111 205.749 211.991 206.415 211.209C206.777 210.739 207.039 210.199 207.184 209.624C207.329 209.048 207.353 208.449 207.256 207.864Z" fill="#ED9996"/>
<path d="M216.319 262.461C215.436 260.506 214.347 258.65 213.07 256.925C212.956 256.783 212.817 256.663 212.659 256.573C213.266 256.573 214.186 256.573 214.44 256.416C215.282 256.282 216.076 255.939 216.75 255.419C217.152 255.046 217.475 254.596 217.697 254.094C217.919 253.593 218.036 253.052 218.042 252.504C218.015 251.438 217.659 250.407 217.024 249.55C216.28 248.239 215.634 248.024 215.928 247.77C217.005 246.929 219.138 246.988 219.491 245.227C219.514 244.459 219.36 243.696 219.041 242.998C218.722 242.299 218.246 241.683 217.651 241.197C213.383 236.913 204.281 236.092 198.565 235.779L191.891 235.446C191.864 234.964 191.985 234.485 192.237 234.073C192.488 233.661 192.859 233.335 193.3 233.138C194.232 232.63 195.2 232.192 196.197 231.827C198.898 230.771 201.815 230.321 204.497 229.225C206.708 228.326 209.331 226.878 207.315 224.452C203.4 219.757 193.887 223.533 189.405 225.078C183.532 227.034 172.806 235.837 172.179 236.815C169.585 241.463 167.773 246.506 166.816 251.741C165.974 255.536 166.326 261.15 165.68 265.063C159.475 268.584 128.176 283.822 125.533 284.996C122.578 286.307 160.552 222.398 155.6 201.506C150.647 180.614 127.961 187.441 117.038 194.073C84.8381 213.635 70.9795 303.815 70.9012 320.403C70.8229 336.991 79.5531 355.164 103.473 353.052C127.393 350.939 186.116 284.859 186.116 284.859L185.94 284.683C189.503 282.081 192.556 280.008 194.807 275.763C194.964 275.45 196.471 272.535 197.215 271.459C197.959 270.383 199.427 264.261 204.908 265.278C205.93 265.689 206.897 266.228 207.785 266.882C209.487 268.099 211.575 268.656 213.657 268.447C217.474 267.567 217.611 265.61 216.319 262.461Z" fill="#FFB1A5"/>
<path d="M113.064 289.085L125.533 285.172C124.535 285.603 128.254 278.541 133.363 268.193L113.064 289.085Z" fill="#ED9996"/>
<path d="M142.191 249.511L88.068 238.85C84.1392 249.987 80.8712 261.346 78.2808 272.868C102.69 281.847 119.387 280.203 128.626 277.621C131.876 271.009 137.18 260.661 142.191 249.511Z" fill="#ED9996"/>
<path d="M214.734 246.753C209.664 243.995 200.347 239.828 194.709 243.29C194.657 243.312 194.609 243.344 194.569 243.384C194.528 243.425 194.496 243.473 194.474 243.525C194.453 243.578 194.441 243.634 194.441 243.691C194.441 243.748 194.453 243.805 194.475 243.858C194.496 243.91 194.528 243.958 194.569 243.998C194.609 244.039 194.657 244.071 194.71 244.092C194.762 244.114 194.819 244.125 194.876 244.125C194.933 244.125 194.989 244.114 195.042 244.092C198.37 243.41 201.808 243.484 205.103 244.308C208.372 245.012 211.23 247.085 214.48 247.535C214.812 247.477 215.126 246.968 214.734 246.753Z" fill="#282828"/>
<path d="M212.091 256.358C207.961 252.856 200.347 252.445 195.532 254.617C194.983 254.851 195.375 255.771 195.943 255.575C201.815 253.619 206.121 255.164 211.759 256.925C212.072 257.023 212.346 256.573 212.091 256.358Z" fill="#282828"/>
<path d="M155.6 201.526C150.647 180.712 127.961 187.461 117.038 194.092C99.8713 204.558 83.7615 233.705 76.3232 262.402C90.9453 269.542 120.444 276.095 132.737 275.117C142.074 256.455 159.28 216.98 155.6 201.526Z" fill="#BC2445"/>
<path d="M269.033 259.977C269.758 252.856 270.991 245.383 269.816 238.341C268.755 232.588 266.034 227.271 261.987 223.044C261.987 223.044 261.987 223.044 261.987 222.907C260.604 221.051 259.051 219.329 257.347 217.762C255.99 216.052 254.227 214.707 252.219 213.85C249.42 212.52 247.325 210.368 244.389 210.603C241.101 209.487 238.008 209.644 236.383 212.031C234.269 215.121 237.46 218.134 239.75 219.855C241.57 221.244 243.665 222.222 245.485 223.631C248.265 225.802 251.867 232.649 249.615 236.229C246.327 241.432 243.45 235.387 241.786 232.492C240.871 230.393 239.452 228.553 237.656 227.132C234.445 225.176 232.038 227.758 231.783 231.045C231.676 233.644 232.472 236.201 234.034 238.282C236.82 242.035 238.738 246.357 239.652 250.939C240.729 256.631 241.081 263.322 246.092 267.019C245.877 274.198 242.999 320.423 247.599 332.57C251.044 341.686 257.387 347.926 275.982 345.52C275.982 345.52 290.448 339.652 290.448 326.252C290.389 316.471 271.382 266.373 269.033 259.977Z" fill="#FFB1A5"/>
<path d="M267.467 238.928C264.766 235.016 255.723 215.962 248.891 219.836C248.402 220.118 247.975 220.497 247.639 220.951C246.624 219.746 246.039 218.24 245.975 216.667C246.581 212.754 248.911 213.165 251.044 213.908C253.324 214.831 255.399 216.194 257.152 217.919C261.301 221.714 263.69 227.25 266.665 231.944C266.699 231.976 266.743 231.995 266.789 231.999C266.835 232.003 266.882 231.993 266.921 231.968C266.961 231.944 266.992 231.908 267.009 231.865C267.026 231.822 267.029 231.774 267.017 231.729C263.259 224.726 259.579 216.197 251.573 213.106C248.284 210.544 242.862 207.844 240.142 211.62C237.421 215.395 243.391 219.444 246.014 221.088C246.093 221.136 246.185 221.162 246.278 221.162C246.371 221.162 246.463 221.136 246.542 221.088C246.72 221.404 246.922 221.705 247.149 221.987C246.229 225.548 251.064 230.908 252.61 233.059C255.214 236.522 256.878 239.965 253.863 244.034C252.635 245.578 251.566 247.243 250.673 249.002C249.42 251.682 248.715 254.48 250.536 257.042C250.966 257.707 252.023 257.042 251.593 256.416C247.286 249.452 258.287 245.168 257.015 238.595C256.467 235.72 243.743 221.89 249.968 220.383C254.235 219.347 259.364 228.013 261.243 230.712C263.026 233.665 264.987 236.507 267.115 239.221C267.311 239.456 267.683 239.163 267.467 238.928ZM241.238 211.972C243.352 209.429 246.542 210.876 249.341 212.539C245.427 212.246 244.546 216.139 245.818 219.621C243.45 218.016 239.124 214.613 241.296 211.972H241.238Z" fill="#282828"/>
<path d="M113.789 167.801C107.192 162.813 98.6186 154.988 94.2143 147.868C93.9983 147.52 93.6971 147.233 93.3391 147.034C92.9812 146.835 92.5784 146.731 92.1688 146.731C91.7592 146.731 91.3564 146.835 90.9985 147.034C90.6405 147.233 90.3393 147.52 90.1233 147.868C88.2833 150.391 87.5786 155.086 84.8969 156.534C82.2152 157.981 77.8109 155.986 74.7769 154.832C69.7854 152.876 63.228 148.963 57.6297 149.628C53.5387 150.137 52.6382 152.328 51.0919 155.732C49.3889 159.644 49.1344 161.502 44.4757 162.559C40.9719 163.361 38.6034 162.833 35.4715 164.769C34.9399 165.098 34.5144 165.573 34.246 166.137C33.9776 166.701 33.8777 167.33 33.9583 167.95C34.0388 168.569 34.2965 169.152 34.7003 169.629C35.1041 170.106 35.6369 170.456 36.2349 170.638C40.6391 172.222 49.7608 171.811 53.7344 168.799C55.7454 167.048 57.2296 164.772 58.0212 162.226C58.2953 161.444 58.4323 158.451 59.0391 157.981C60.8399 156.592 63.7369 158.275 65.4595 158.803C71.8408 160.759 78.3395 165.669 85.3862 164.671C92.433 163.674 91.9045 157.864 93.5292 152.523C100.674 156.768 105.724 164.926 113.104 169.19C113.887 169.581 114.493 168.427 113.789 167.801Z" fill="#57DFED"/>
<path d="M120.366 118.897C115.985 111.203 112.454 103.057 109.835 94.601C109.615 93.863 109.168 93.2135 108.556 92.746C107.944 92.2785 107.199 92.0171 106.429 91.9993C100.302 91.5102 92.1003 95.9116 88.2833 89.867C86.3259 86.6589 86.1497 82.4727 82.8416 80.0861C76.9693 75.9586 68.0629 80.2817 61.7012 83.4507C59.548 79.9101 58.7651 75.9586 55.1829 73.1417C51.6008 70.3248 45.8264 75.5086 49.7217 78.5799C53.617 81.6511 54.4783 87.324 57.7863 91.0407C58.3941 91.6364 59.1796 92.0178 60.0238 92.1272C60.868 92.2366 61.7249 92.0681 62.4646 91.6471C65.988 90.0039 73.5829 84.8788 77.4391 86.3655C79.3965 87.1479 79.7489 89.4953 80.5318 91.2755C82.2152 95.1878 83.7812 99.2958 87.9505 101.056C92.8441 103.149 96.7395 99.2371 101.3 99.687C108.758 100.45 113.945 114.906 117.978 120.247C119.035 121.714 121.247 120.54 120.366 118.897Z" fill="#57DFED"/>
<path d="M155.639 58.0204C151.606 55.7121 143.463 56.2794 141.369 51.4085C139.275 46.5376 141.506 39.3388 140.645 34.1354C139.979 29.9687 132.815 30.9077 133.226 35.1526C133.813 42.2144 131.269 51.878 136.221 57.8443C139.333 61.5415 145.754 63.7129 151.117 63.7129C150.804 69.4249 150.471 75.6651 152.507 80.849C152.587 81.0977 152.743 81.3147 152.954 81.4687C153.165 81.6227 153.42 81.7056 153.681 81.7056C153.943 81.7056 154.197 81.6227 154.408 81.4687C154.619 81.3147 154.776 81.0977 154.856 80.849C157.068 74.6479 155.052 67.6643 156.97 61.2872C157.136 60.6721 157.095 60.0197 156.855 59.4297C156.615 58.8398 156.187 58.3447 155.639 58.0204Z" fill="#57DFED"/>
<path d="M332.611 98.9828C323.724 101.93 314.916 105.099 306.186 108.49C301.136 110.446 299.061 112.539 293.11 107.688C291.016 105.966 289.665 102.915 287.473 101.056C286.789 100.391 285.873 100.018 284.918 100.018C283.964 100.018 283.047 100.391 282.364 101.056C277.137 106.436 270.619 111.013 264.962 115.904C263.885 116.823 265.275 118.564 266.469 117.86C270.136 115.342 273.968 113.075 277.94 111.072C282.481 109.116 282.99 108.49 286.357 111.561C289.724 114.632 290.82 119.034 295.811 120.031C300.803 121.029 306.01 117.254 310.12 115.669C318.244 112.5 326.524 109.624 334.804 106.905C339.893 105.321 337.701 97.3788 332.611 98.9828Z" fill="#57DFED"/>
<path d="M328.481 186.385C317.695 184.742 306.323 184.722 295.968 181.084C297.573 174.863 297.299 166.96 292.053 162.969C285.907 158.275 274.201 160.896 267.487 162.813C267.01 162.963 266.593 163.26 266.297 163.663C266.001 164.066 265.841 164.553 265.841 165.053C265.841 165.553 266.001 166.039 266.297 166.442C266.593 166.845 267.01 167.143 267.487 167.293C271.95 168.232 276.511 167.527 281.033 167.84C289.665 168.466 289.508 175.665 286.69 182.394C286.447 183.286 286.507 184.233 286.861 185.086C287.216 185.94 287.844 186.651 288.647 187.109C300.744 192.351 314.446 193.232 327.385 194.444C331.946 194.894 333.061 187.089 328.481 186.385Z" fill="#57DFED"/>
</g>
<defs>
<clipPath id="clip0">
<rect width="324.681" height="350" fill="white" transform="translate(13 25)"/>
</clipPath>
</defs>
</svg>
