<svg width="1920" height="600" viewBox="0 0 1920 600" fill="none" xmlns="http://www.w3.org/2000/svg">
<path d="M0 0H1920V600C1920 600 1321.5 540 960 540C598.5 540 0 600 0 600V0Z" fill="#E7F2F0"/>
<path fill-rule="evenodd" clip-rule="evenodd" d="M56.0535 126.555C94.1473 131.178 136.027 119.694 168.375 140.299C200.496 160.76 201.73 207.63 227.423 235.716C262.731 274.314 334.009 283.583 345.988 334.461C357.255 382.314 319.22 432.933 281.219 464.205C245.772 493.375 190.337 474.976 149.562 496.104C111.542 515.806 98.1649 573.03 56.0535 580.88C14.4464 588.636 -22.2887 554.243 -60.0613 535.182C-99.9157 515.07 -142.123 499.019 -171.932 465.829C-205.508 428.445 -251.338 383.449 -240.333 334.461C-228.637 282.4 -151.643 275.967 -119.671 233.207C-93.1067 197.679 -111.182 134.008 -73.2312 110.975C-35.5 88.075 12.2162 121.234 56.0535 126.555Z" fill="#D6EEEC"/>
<path fill-rule="evenodd" clip-rule="evenodd" d="M1870.97 129.916C1908.03 134.414 1948.78 123.241 1980.25 143.286C2011.5 163.192 2012.7 208.79 2037.69 236.114C2072.04 273.664 2141.39 282.682 2153.04 332.18C2164 378.733 2127 427.979 2090.03 458.402C2055.54 486.78 2001.61 468.88 1961.94 489.436C1924.95 508.602 1911.94 564.273 1870.97 571.91C1830.49 579.456 1794.75 545.997 1758 527.452C1719.23 507.886 1678.17 492.271 1649.17 459.982C1616.5 423.613 1571.91 379.838 1582.62 332.18C1594 281.531 1668.91 275.273 1700.01 233.673C1725.86 199.109 1708.27 137.167 1745.19 114.759C1781.9 92.4801 1828.32 124.74 1870.97 129.916Z" fill="#D6EEEC"/>
<path d="M1654.67 417.773C1658 404.378 1670.98 394.388 1686.4 394.388C1689.14 394.394 1691.88 394.723 1694.55 395.367C1698.72 387.517 1704.98 380.974 1712.64 376.458C1720.29 371.943 1729.05 369.632 1737.94 369.78C1742.77 369.784 1747.57 370.471 1752.21 371.819C1757.77 363.553 1765.31 356.803 1774.14 352.176C1782.96 347.549 1792.8 345.191 1802.77 345.315C1828.29 345.315 1850.05 360.32 1858.28 381.32C1864.38 378.197 1871.13 376.576 1877.98 376.59C1900.4 376.59 1918.49 393.389 1918.49 414.123C1918.49 415.342 1918.43 416.56 1918.3 417.773H1654.67Z" fill="white"/>
<path d="M295.447 261.86C292.613 250.443 281.563 241.901 268.372 241.901C266.003 241.906 263.643 242.186 261.338 242.736C257.775 236.035 252.431 230.448 245.894 226.592C239.357 222.735 231.883 220.759 224.294 220.881C220.156 220.875 216.038 221.452 212.061 222.594C207.299 215.545 200.86 209.791 193.322 205.848C185.785 201.905 177.386 199.897 168.88 200.004C147.066 200.004 128.513 212.807 121.479 230.749C116.278 228.068 110.511 226.67 104.66 226.671C85.536 226.671 70.0006 240.942 70.0006 258.72C69.9934 259.756 70.0479 260.79 70.1637 261.819L295.447 261.86Z" fill="white"/>
</svg>
